<?xml version="1.0" encoding="utf-8" standalone="no"?>
<!DOCTYPE svg PUBLIC "-//W3C//DTD SVG 1.1//EN"
  "http://www.w3.org/Graphics/SVG/1.1/DTD/svg11.dtd">
<svg xmlns:xlink="http://www.w3.org/1999/xlink" width="595.951094pt" height="409.257656pt" viewBox="0 0 595.951094 409.257656" xmlns="http://www.w3.org/2000/svg" version="1.1">
 <metadata>
  <rdf:RDF xmlns:dc="http://purl.org/dc/elements/1.1/" xmlns:cc="http://creativecommons.org/ns#" xmlns:rdf="http://www.w3.org/1999/02/22-rdf-syntax-ns#">
   <cc:Work>
    <dc:type rdf:resource="http://purl.org/dc/dcmitype/StillImage"/>
    <dc:date>2026-04-27T21:32:03.788727</dc:date>
    <dc:format>image/svg+xml</dc:format>
    <dc:creator>
     <cc:Agent>
      <dc:title>Matplotlib v3.9.4, https://matplotlib.org/</dc:title>
     </cc:Agent>
    </dc:creator>
   </cc:Work>
  </rdf:RDF>
 </metadata>
 <defs>
  <style type="text/css">*{stroke-linejoin: round; stroke-linecap: butt}</style>
 </defs>
 <g id="figure_1">
  <g id="patch_1">
   <path d="M 0 409.257656 
L 595.951094 409.257656 
L 595.951094 0 
L 0 0 
z
" style="fill: #ffffff"/>
  </g>
  <g id="axes_1">
   <g id="patch_2">
    <path d="M 72.151094 354.397969 
L 574.351094 354.397969 
L 574.351094 49.477969 
L 72.151094 49.477969 
z
" style="fill: #ffffff"/>
   </g>
   <g id="matplotlib.axis_1">
    <g id="xtick_1">
     <g id="line2d_1">
      <path d="M 72.151094 354.397969 
L 72.151094 49.477969 
" clip-path="url(#p1cfbfc3130)" style="fill: none; stroke: #b0b0b0; stroke-opacity: 0.3; stroke-width: 0.8; stroke-linecap: square"/>
     </g>
     <g id="line2d_2">
      <defs>
       <path id="ma3c16203c9" d="M 0 0 
L 0 3.5 
" style="stroke: #000000; stroke-width: 0.8"/>
      </defs>
      <g>
       <use xlink:href="#ma3c16203c9" x="72.151094" y="354.397969" style="stroke: #000000; stroke-width: 0.8"/>
      </g>
     </g>
     <g id="text_1">
      <!-- −5 -->
      <g transform="translate(64.042891 369.75625) scale(0.11 -0.11)">
       <defs>
        <path id="DejaVuSans-2212" d="M 678 2272 
L 4684 2272 
L 4684 1741 
L 678 1741 
L 678 2272 
z
" transform="scale(0.015625)"/>
        <path id="DejaVuSans-35" d="M 691 4666 
L 3169 4666 
L 3169 4134 
L 1269 4134 
L 1269 2991 
Q 1406 3038 1543 3061 
Q 1681 3084 1819 3084 
Q 2600 3084 3056 2656 
Q 3513 2228 3513 1497 
Q 3513 744 3044 326 
Q 2575 -91 1722 -91 
Q 1428 -91 1123 -41 
Q 819 9 494 109 
L 494 744 
Q 775 591 1075 516 
Q 1375 441 1709 441 
Q 2250 441 2565 725 
Q 2881 1009 2881 1497 
Q 2881 1984 2565 2268 
Q 2250 2553 1709 2553 
Q 1456 2553 1204 2497 
Q 953 2441 691 2322 
L 691 4666 
z
" transform="scale(0.015625)"/>
       </defs>
       <use xlink:href="#DejaVuSans-2212"/>
       <use xlink:href="#DejaVuSans-35" x="83.789062"/>
      </g>
     </g>
    </g>
    <g id="xtick_2">
     <g id="line2d_3">
      <path d="M 165.151094 354.397969 
L 165.151094 49.477969 
" clip-path="url(#p1cfbfc3130)" style="fill: none; stroke: #b0b0b0; stroke-opacity: 0.3; stroke-width: 0.8; stroke-linecap: square"/>
     </g>
     <g id="line2d_4">
      <g>
       <use xlink:href="#ma3c16203c9" x="165.151094" y="354.397969" style="stroke: #000000; stroke-width: 0.8"/>
      </g>
     </g>
     <g id="text_2">
      <!-- 0 -->
      <g transform="translate(161.651719 369.75625) scale(0.11 -0.11)">
       <defs>
        <path id="DejaVuSans-30" d="M 2034 4250 
Q 1547 4250 1301 3770 
Q 1056 3291 1056 2328 
Q 1056 1369 1301 889 
Q 1547 409 2034 409 
Q 2525 409 2770 889 
Q 3016 1369 3016 2328 
Q 3016 3291 2770 3770 
Q 2525 4250 2034 4250 
z
M 2034 4750 
Q 2819 4750 3233 4129 
Q 3647 3509 3647 2328 
Q 3647 1150 3233 529 
Q 2819 -91 2034 -91 
Q 1250 -91 836 529 
Q 422 1150 422 2328 
Q 422 3509 836 4129 
Q 1250 4750 2034 4750 
z
" transform="scale(0.015625)"/>
       </defs>
       <use xlink:href="#DejaVuSans-30"/>
      </g>
     </g>
    </g>
    <g id="xtick_3">
     <g id="line2d_5">
      <path d="M 258.151094 354.397969 
L 258.151094 49.477969 
" clip-path="url(#p1cfbfc3130)" style="fill: none; stroke: #b0b0b0; stroke-opacity: 0.3; stroke-width: 0.8; stroke-linecap: square"/>
     </g>
     <g id="line2d_6">
      <g>
       <use xlink:href="#ma3c16203c9" x="258.151094" y="354.397969" style="stroke: #000000; stroke-width: 0.8"/>
      </g>
     </g>
     <g id="text_3">
      <!-- 5 -->
      <g transform="translate(254.651719 369.75625) scale(0.11 -0.11)">
       <use xlink:href="#DejaVuSans-35"/>
      </g>
     </g>
    </g>
    <g id="xtick_4">
     <g id="line2d_7">
      <path d="M 351.151094 354.397969 
L 351.151094 49.477969 
" clip-path="url(#p1cfbfc3130)" style="fill: none; stroke: #b0b0b0; stroke-opacity: 0.3; stroke-width: 0.8; stroke-linecap: square"/>
     </g>
     <g id="line2d_8">
      <g>
       <use xlink:href="#ma3c16203c9" x="351.151094" y="354.397969" style="stroke: #000000; stroke-width: 0.8"/>
      </g>
     </g>
     <g id="text_4">
      <!-- 10 -->
      <g transform="translate(344.152344 369.75625) scale(0.11 -0.11)">
       <defs>
        <path id="DejaVuSans-31" d="M 794 531 
L 1825 531 
L 1825 4091 
L 703 3866 
L 703 4441 
L 1819 4666 
L 2450 4666 
L 2450 531 
L 3481 531 
L 3481 0 
L 794 0 
L 794 531 
z
" transform="scale(0.015625)"/>
       </defs>
       <use xlink:href="#DejaVuSans-31"/>
       <use xlink:href="#DejaVuSans-30" x="63.623047"/>
      </g>
     </g>
    </g>
    <g id="xtick_5">
     <g id="line2d_9">
      <path d="M 444.151094 354.397969 
L 444.151094 49.477969 
" clip-path="url(#p1cfbfc3130)" style="fill: none; stroke: #b0b0b0; stroke-opacity: 0.3; stroke-width: 0.8; stroke-linecap: square"/>
     </g>
     <g id="line2d_10">
      <g>
       <use xlink:href="#ma3c16203c9" x="444.151094" y="354.397969" style="stroke: #000000; stroke-width: 0.8"/>
      </g>
     </g>
     <g id="text_5">
      <!-- 15 -->
      <g transform="translate(437.152344 369.75625) scale(0.11 -0.11)">
       <use xlink:href="#DejaVuSans-31"/>
       <use xlink:href="#DejaVuSans-35" x="63.623047"/>
      </g>
     </g>
    </g>
    <g id="xtick_6">
     <g id="line2d_11">
      <path d="M 537.151094 354.397969 
L 537.151094 49.477969 
" clip-path="url(#p1cfbfc3130)" style="fill: none; stroke: #b0b0b0; stroke-opacity: 0.3; stroke-width: 0.8; stroke-linecap: square"/>
     </g>
     <g id="line2d_12">
      <g>
       <use xlink:href="#ma3c16203c9" x="537.151094" y="354.397969" style="stroke: #000000; stroke-width: 0.8"/>
      </g>
     </g>
     <g id="text_6">
      <!-- 20 -->
      <g transform="translate(530.152344 369.75625) scale(0.11 -0.11)">
       <defs>
        <path id="DejaVuSans-32" d="M 1228 531 
L 3431 531 
L 3431 0 
L 469 0 
L 469 531 
Q 828 903 1448 1529 
Q 2069 2156 2228 2338 
Q 2531 2678 2651 2914 
Q 2772 3150 2772 3378 
Q 2772 3750 2511 3984 
Q 2250 4219 1831 4219 
Q 1534 4219 1204 4116 
Q 875 4013 500 3803 
L 500 4441 
Q 881 4594 1212 4672 
Q 1544 4750 1819 4750 
Q 2544 4750 2975 4387 
Q 3406 4025 3406 3419 
Q 3406 3131 3298 2873 
Q 3191 2616 2906 2266 
Q 2828 2175 2409 1742 
Q 1991 1309 1228 531 
z
" transform="scale(0.015625)"/>
       </defs>
       <use xlink:href="#DejaVuSans-32"/>
       <use xlink:href="#DejaVuSans-30" x="63.623047"/>
      </g>
     </g>
    </g>
    <g id="text_7">
     <!-- Angolo di attacco α (gradi) -->
     <g transform="translate(243.029219 385.162031) scale(0.12 -0.12)">
      <defs>
       <path id="DejaVuSans-41" d="M 2188 4044 
L 1331 1722 
L 3047 1722 
L 2188 4044 
z
M 1831 4666 
L 2547 4666 
L 4325 0 
L 3669 0 
L 3244 1197 
L 1141 1197 
L 716 0 
L 50 0 
L 1831 4666 
z
" transform="scale(0.015625)"/>
       <path id="DejaVuSans-6e" d="M 3513 2113 
L 3513 0 
L 2938 0 
L 2938 2094 
Q 2938 2591 2744 2837 
Q 2550 3084 2163 3084 
Q 1697 3084 1428 2787 
Q 1159 2491 1159 1978 
L 1159 0 
L 581 0 
L 581 3500 
L 1159 3500 
L 1159 2956 
Q 1366 3272 1645 3428 
Q 1925 3584 2291 3584 
Q 2894 3584 3203 3211 
Q 3513 2838 3513 2113 
z
" transform="scale(0.015625)"/>
       <path id="DejaVuSans-67" d="M 2906 1791 
Q 2906 2416 2648 2759 
Q 2391 3103 1925 3103 
Q 1463 3103 1205 2759 
Q 947 2416 947 1791 
Q 947 1169 1205 825 
Q 1463 481 1925 481 
Q 2391 481 2648 825 
Q 2906 1169 2906 1791 
z
M 3481 434 
Q 3481 -459 3084 -895 
Q 2688 -1331 1869 -1331 
Q 1566 -1331 1297 -1286 
Q 1028 -1241 775 -1147 
L 775 -588 
Q 1028 -725 1275 -790 
Q 1522 -856 1778 -856 
Q 2344 -856 2625 -561 
Q 2906 -266 2906 331 
L 2906 616 
Q 2728 306 2450 153 
Q 2172 0 1784 0 
Q 1141 0 747 490 
Q 353 981 353 1791 
Q 353 2603 747 3093 
Q 1141 3584 1784 3584 
Q 2172 3584 2450 3431 
Q 2728 3278 2906 2969 
L 2906 3500 
L 3481 3500 
L 3481 434 
z
" transform="scale(0.015625)"/>
       <path id="DejaVuSans-6f" d="M 1959 3097 
Q 1497 3097 1228 2736 
Q 959 2375 959 1747 
Q 959 1119 1226 758 
Q 1494 397 1959 397 
Q 2419 397 2687 759 
Q 2956 1122 2956 1747 
Q 2956 2369 2687 2733 
Q 2419 3097 1959 3097 
z
M 1959 3584 
Q 2709 3584 3137 3096 
Q 3566 2609 3566 1747 
Q 3566 888 3137 398 
Q 2709 -91 1959 -91 
Q 1206 -91 779 398 
Q 353 888 353 1747 
Q 353 2609 779 3096 
Q 1206 3584 1959 3584 
z
" transform="scale(0.015625)"/>
       <path id="DejaVuSans-6c" d="M 603 4863 
L 1178 4863 
L 1178 0 
L 603 0 
L 603 4863 
z
" transform="scale(0.015625)"/>
       <path id="DejaVuSans-20" transform="scale(0.015625)"/>
       <path id="DejaVuSans-64" d="M 2906 2969 
L 2906 4863 
L 3481 4863 
L 3481 0 
L 2906 0 
L 2906 525 
Q 2725 213 2448 61 
Q 2172 -91 1784 -91 
Q 1150 -91 751 415 
Q 353 922 353 1747 
Q 353 2572 751 3078 
Q 1150 3584 1784 3584 
Q 2172 3584 2448 3432 
Q 2725 3281 2906 2969 
z
M 947 1747 
Q 947 1113 1208 752 
Q 1469 391 1925 391 
Q 2381 391 2643 752 
Q 2906 1113 2906 1747 
Q 2906 2381 2643 2742 
Q 2381 3103 1925 3103 
Q 1469 3103 1208 2742 
Q 947 2381 947 1747 
z
" transform="scale(0.015625)"/>
       <path id="DejaVuSans-69" d="M 603 3500 
L 1178 3500 
L 1178 0 
L 603 0 
L 603 3500 
z
M 603 4863 
L 1178 4863 
L 1178 4134 
L 603 4134 
L 603 4863 
z
" transform="scale(0.015625)"/>
       <path id="DejaVuSans-61" d="M 2194 1759 
Q 1497 1759 1228 1600 
Q 959 1441 959 1056 
Q 959 750 1161 570 
Q 1363 391 1709 391 
Q 2188 391 2477 730 
Q 2766 1069 2766 1631 
L 2766 1759 
L 2194 1759 
z
M 3341 1997 
L 3341 0 
L 2766 0 
L 2766 531 
Q 2569 213 2275 61 
Q 1981 -91 1556 -91 
Q 1019 -91 701 211 
Q 384 513 384 1019 
Q 384 1609 779 1909 
Q 1175 2209 1959 2209 
L 2766 2209 
L 2766 2266 
Q 2766 2663 2505 2880 
Q 2244 3097 1772 3097 
Q 1472 3097 1187 3025 
Q 903 2953 641 2809 
L 641 3341 
Q 956 3463 1253 3523 
Q 1550 3584 1831 3584 
Q 2591 3584 2966 3190 
Q 3341 2797 3341 1997 
z
" transform="scale(0.015625)"/>
       <path id="DejaVuSans-74" d="M 1172 4494 
L 1172 3500 
L 2356 3500 
L 2356 3053 
L 1172 3053 
L 1172 1153 
Q 1172 725 1289 603 
Q 1406 481 1766 481 
L 2356 481 
L 2356 0 
L 1766 0 
Q 1100 0 847 248 
Q 594 497 594 1153 
L 594 3053 
L 172 3053 
L 172 3500 
L 594 3500 
L 594 4494 
L 1172 4494 
z
" transform="scale(0.015625)"/>
       <path id="DejaVuSans-63" d="M 3122 3366 
L 3122 2828 
Q 2878 2963 2633 3030 
Q 2388 3097 2138 3097 
Q 1578 3097 1268 2742 
Q 959 2388 959 1747 
Q 959 1106 1268 751 
Q 1578 397 2138 397 
Q 2388 397 2633 464 
Q 2878 531 3122 666 
L 3122 134 
Q 2881 22 2623 -34 
Q 2366 -91 2075 -91 
Q 1284 -91 818 406 
Q 353 903 353 1747 
Q 353 2603 823 3093 
Q 1294 3584 2113 3584 
Q 2378 3584 2631 3529 
Q 2884 3475 3122 3366 
z
" transform="scale(0.015625)"/>
       <path id="DejaVuSans-3b1" d="M 2644 1628 
L 2506 2350 
Q 2366 3091 1809 3091 
Q 1391 3091 1200 2747 
Q 959 2316 959 1747 
Q 959 1059 1194 731 
Q 1431 397 1809 397 
Q 2228 397 2453 1063 
L 2644 1628 
z
M 2966 2584 
L 3275 3500 
L 3788 3500 
L 3147 1603 
L 3272 919 
Q 3300 766 3409 638 
Q 3538 488 3638 488 
L 3913 488 
L 3913 0 
L 3569 0 
Q 3275 0 3013 263 
Q 2884 394 2831 669 
Q 2688 322 2394 50 
Q 2256 -78 1809 -78 
Q 1075 -78 719 397 
Q 353 888 353 1747 
Q 353 2666 750 3097 
Q 1191 3578 1809 3578 
Q 2781 3578 2966 2584 
z
" transform="scale(0.015625)"/>
       <path id="DejaVuSans-28" d="M 1984 4856 
Q 1566 4138 1362 3434 
Q 1159 2731 1159 2009 
Q 1159 1288 1364 580 
Q 1569 -128 1984 -844 
L 1484 -844 
Q 1016 -109 783 600 
Q 550 1309 550 2009 
Q 550 2706 781 3412 
Q 1013 4119 1484 4856 
L 1984 4856 
z
" transform="scale(0.015625)"/>
       <path id="DejaVuSans-72" d="M 2631 2963 
Q 2534 3019 2420 3045 
Q 2306 3072 2169 3072 
Q 1681 3072 1420 2755 
Q 1159 2438 1159 1844 
L 1159 0 
L 581 0 
L 581 3500 
L 1159 3500 
L 1159 2956 
Q 1341 3275 1631 3429 
Q 1922 3584 2338 3584 
Q 2397 3584 2469 3576 
Q 2541 3569 2628 3553 
L 2631 2963 
z
" transform="scale(0.015625)"/>
       <path id="DejaVuSans-29" d="M 513 4856 
L 1013 4856 
Q 1481 4119 1714 3412 
Q 1947 2706 1947 2009 
Q 1947 1309 1714 600 
Q 1481 -109 1013 -844 
L 513 -844 
Q 928 -128 1133 580 
Q 1338 1288 1338 2009 
Q 1338 2731 1133 3434 
Q 928 4138 513 4856 
z
" transform="scale(0.015625)"/>
      </defs>
      <use xlink:href="#DejaVuSans-41"/>
      <use xlink:href="#DejaVuSans-6e" x="68.408203"/>
      <use xlink:href="#DejaVuSans-67" x="131.787109"/>
      <use xlink:href="#DejaVuSans-6f" x="195.263672"/>
      <use xlink:href="#DejaVuSans-6c" x="256.445312"/>
      <use xlink:href="#DejaVuSans-6f" x="284.228516"/>
      <use xlink:href="#DejaVuSans-20" x="345.410156"/>
      <use xlink:href="#DejaVuSans-64" x="377.197266"/>
      <use xlink:href="#DejaVuSans-69" x="440.673828"/>
      <use xlink:href="#DejaVuSans-20" x="468.457031"/>
      <use xlink:href="#DejaVuSans-61" x="500.244141"/>
      <use xlink:href="#DejaVuSans-74" x="561.523438"/>
      <use xlink:href="#DejaVuSans-74" x="600.732422"/>
      <use xlink:href="#DejaVuSans-61" x="639.941406"/>
      <use xlink:href="#DejaVuSans-63" x="701.220703"/>
      <use xlink:href="#DejaVuSans-63" x="756.201172"/>
      <use xlink:href="#DejaVuSans-6f" x="811.181641"/>
      <use xlink:href="#DejaVuSans-20" x="872.363281"/>
      <use xlink:href="#DejaVuSans-3b1" x="904.150391"/>
      <use xlink:href="#DejaVuSans-20" x="970.068359"/>
      <use xlink:href="#DejaVuSans-28" x="1001.855469"/>
      <use xlink:href="#DejaVuSans-67" x="1040.869141"/>
      <use xlink:href="#DejaVuSans-72" x="1104.345703"/>
      <use xlink:href="#DejaVuSans-61" x="1145.458984"/>
      <use xlink:href="#DejaVuSans-64" x="1206.738281"/>
      <use xlink:href="#DejaVuSans-69" x="1270.214844"/>
      <use xlink:href="#DejaVuSans-29" x="1297.998047"/>
     </g>
    </g>
   </g>
   <g id="matplotlib.axis_2">
    <g id="ytick_1">
     <g id="line2d_13">
      <path d="M 72.151094 314.871302 
L 574.351094 314.871302 
" clip-path="url(#p1cfbfc3130)" style="fill: none; stroke: #b0b0b0; stroke-opacity: 0.3; stroke-width: 0.8; stroke-linecap: square"/>
     </g>
     <g id="line2d_14">
      <defs>
       <path id="m5d4286e6fe" d="M 0 0 
L -3.5 0 
" style="stroke: #000000; stroke-width: 0.8"/>
      </defs>
      <g>
       <use xlink:href="#m5d4286e6fe" x="72.151094" y="314.871302" style="stroke: #000000; stroke-width: 0.8"/>
      </g>
     </g>
     <g id="text_8">
      <!-- −0.5 -->
      <g transform="translate(38.44 319.050443) scale(0.11 -0.11)">
       <defs>
        <path id="DejaVuSans-2e" d="M 684 794 
L 1344 794 
L 1344 0 
L 684 0 
L 684 794 
z
" transform="scale(0.015625)"/>
       </defs>
       <use xlink:href="#DejaVuSans-2212"/>
       <use xlink:href="#DejaVuSans-30" x="83.789062"/>
       <use xlink:href="#DejaVuSans-2e" x="147.412109"/>
       <use xlink:href="#DejaVuSans-35" x="179.199219"/>
      </g>
     </g>
    </g>
    <g id="ytick_2">
     <g id="line2d_15">
      <path d="M 72.151094 258.404635 
L 574.351094 258.404635 
" clip-path="url(#p1cfbfc3130)" style="fill: none; stroke: #b0b0b0; stroke-opacity: 0.3; stroke-width: 0.8; stroke-linecap: square"/>
     </g>
     <g id="line2d_16">
      <g>
       <use xlink:href="#m5d4286e6fe" x="72.151094" y="258.404635" style="stroke: #000000; stroke-width: 0.8"/>
      </g>
     </g>
     <g id="text_9">
      <!-- 0.0 -->
      <g transform="translate(47.657656 262.583776) scale(0.11 -0.11)">
       <use xlink:href="#DejaVuSans-30"/>
       <use xlink:href="#DejaVuSans-2e" x="63.623047"/>
       <use xlink:href="#DejaVuSans-30" x="95.410156"/>
      </g>
     </g>
    </g>
    <g id="ytick_3">
     <g id="line2d_17">
      <path d="M 72.151094 201.937969 
L 574.351094 201.937969 
" clip-path="url(#p1cfbfc3130)" style="fill: none; stroke: #b0b0b0; stroke-opacity: 0.3; stroke-width: 0.8; stroke-linecap: square"/>
     </g>
     <g id="line2d_18">
      <g>
       <use xlink:href="#m5d4286e6fe" x="72.151094" y="201.937969" style="stroke: #000000; stroke-width: 0.8"/>
      </g>
     </g>
     <g id="text_10">
      <!-- 0.5 -->
      <g transform="translate(47.657656 206.117109) scale(0.11 -0.11)">
       <use xlink:href="#DejaVuSans-30"/>
       <use xlink:href="#DejaVuSans-2e" x="63.623047"/>
       <use xlink:href="#DejaVuSans-35" x="95.410156"/>
      </g>
     </g>
    </g>
    <g id="ytick_4">
     <g id="line2d_19">
      <path d="M 72.151094 145.471302 
L 574.351094 145.471302 
" clip-path="url(#p1cfbfc3130)" style="fill: none; stroke: #b0b0b0; stroke-opacity: 0.3; stroke-width: 0.8; stroke-linecap: square"/>
     </g>
     <g id="line2d_20">
      <g>
       <use xlink:href="#m5d4286e6fe" x="72.151094" y="145.471302" style="stroke: #000000; stroke-width: 0.8"/>
      </g>
     </g>
     <g id="text_11">
      <!-- 1.0 -->
      <g transform="translate(47.657656 149.650443) scale(0.11 -0.11)">
       <use xlink:href="#DejaVuSans-31"/>
       <use xlink:href="#DejaVuSans-2e" x="63.623047"/>
       <use xlink:href="#DejaVuSans-30" x="95.410156"/>
      </g>
     </g>
    </g>
    <g id="ytick_5">
     <g id="line2d_21">
      <path d="M 72.151094 89.004635 
L 574.351094 89.004635 
" clip-path="url(#p1cfbfc3130)" style="fill: none; stroke: #b0b0b0; stroke-opacity: 0.3; stroke-width: 0.8; stroke-linecap: square"/>
     </g>
     <g id="line2d_22">
      <g>
       <use xlink:href="#m5d4286e6fe" x="72.151094" y="89.004635" style="stroke: #000000; stroke-width: 0.8"/>
      </g>
     </g>
     <g id="text_12">
      <!-- 1.5 -->
      <g transform="translate(47.657656 93.183776) scale(0.11 -0.11)">
       <use xlink:href="#DejaVuSans-31"/>
       <use xlink:href="#DejaVuSans-2e" x="63.623047"/>
       <use xlink:href="#DejaVuSans-35" x="95.410156"/>
      </g>
     </g>
    </g>
    <g id="text_13">
     <!-- Coefficiente di portanza $C_p$ -->
     <g transform="translate(30.72 282.757969) rotate(-90) scale(0.12 -0.12)">
      <defs>
       <path id="DejaVuSans-43" d="M 4122 4306 
L 4122 3641 
Q 3803 3938 3442 4084 
Q 3081 4231 2675 4231 
Q 1875 4231 1450 3742 
Q 1025 3253 1025 2328 
Q 1025 1406 1450 917 
Q 1875 428 2675 428 
Q 3081 428 3442 575 
Q 3803 722 4122 1019 
L 4122 359 
Q 3791 134 3420 21 
Q 3050 -91 2638 -91 
Q 1578 -91 968 557 
Q 359 1206 359 2328 
Q 359 3453 968 4101 
Q 1578 4750 2638 4750 
Q 3056 4750 3426 4639 
Q 3797 4528 4122 4306 
z
" transform="scale(0.015625)"/>
       <path id="DejaVuSans-65" d="M 3597 1894 
L 3597 1613 
L 953 1613 
Q 991 1019 1311 708 
Q 1631 397 2203 397 
Q 2534 397 2845 478 
Q 3156 559 3463 722 
L 3463 178 
Q 3153 47 2828 -22 
Q 2503 -91 2169 -91 
Q 1331 -91 842 396 
Q 353 884 353 1716 
Q 353 2575 817 3079 
Q 1281 3584 2069 3584 
Q 2775 3584 3186 3129 
Q 3597 2675 3597 1894 
z
M 3022 2063 
Q 3016 2534 2758 2815 
Q 2500 3097 2075 3097 
Q 1594 3097 1305 2825 
Q 1016 2553 972 2059 
L 3022 2063 
z
" transform="scale(0.015625)"/>
       <path id="DejaVuSans-66" d="M 2375 4863 
L 2375 4384 
L 1825 4384 
Q 1516 4384 1395 4259 
Q 1275 4134 1275 3809 
L 1275 3500 
L 2222 3500 
L 2222 3053 
L 1275 3053 
L 1275 0 
L 697 0 
L 697 3053 
L 147 3053 
L 147 3500 
L 697 3500 
L 697 3744 
Q 697 4328 969 4595 
Q 1241 4863 1831 4863 
L 2375 4863 
z
" transform="scale(0.015625)"/>
       <path id="DejaVuSans-70" d="M 1159 525 
L 1159 -1331 
L 581 -1331 
L 581 3500 
L 1159 3500 
L 1159 2969 
Q 1341 3281 1617 3432 
Q 1894 3584 2278 3584 
Q 2916 3584 3314 3078 
Q 3713 2572 3713 1747 
Q 3713 922 3314 415 
Q 2916 -91 2278 -91 
Q 1894 -91 1617 61 
Q 1341 213 1159 525 
z
M 3116 1747 
Q 3116 2381 2855 2742 
Q 2594 3103 2138 3103 
Q 1681 3103 1420 2742 
Q 1159 2381 1159 1747 
Q 1159 1113 1420 752 
Q 1681 391 2138 391 
Q 2594 391 2855 752 
Q 3116 1113 3116 1747 
z
" transform="scale(0.015625)"/>
       <path id="DejaVuSans-7a" d="M 353 3500 
L 3084 3500 
L 3084 2975 
L 922 459 
L 3084 459 
L 3084 0 
L 275 0 
L 275 525 
L 2438 3041 
L 353 3041 
L 353 3500 
z
" transform="scale(0.015625)"/>
       <path id="DejaVuSans-Oblique-43" d="M 4447 4306 
L 4319 3641 
Q 4019 3944 3683 4091 
Q 3347 4238 2956 4238 
Q 2422 4238 2017 3981 
Q 1613 3725 1319 3200 
Q 1131 2863 1032 2486 
Q 934 2109 934 1728 
Q 934 1091 1264 756 
Q 1594 422 2222 422 
Q 2656 422 3056 561 
Q 3456 700 3834 978 
L 3688 231 
Q 3316 72 2936 -9 
Q 2556 -91 2175 -91 
Q 1278 -91 773 396 
Q 269 884 269 1753 
Q 269 2309 461 2846 
Q 653 3384 1013 3828 
Q 1394 4300 1883 4525 
Q 2372 4750 3022 4750 
Q 3422 4750 3780 4639 
Q 4138 4528 4447 4306 
z
" transform="scale(0.015625)"/>
       <path id="DejaVuSans-Oblique-70" d="M 3175 2156 
Q 3175 2616 2975 2859 
Q 2775 3103 2400 3103 
Q 2144 3103 1911 2972 
Q 1678 2841 1497 2591 
Q 1319 2344 1212 1994 
Q 1106 1644 1106 1300 
Q 1106 863 1306 627 
Q 1506 391 1875 391 
Q 2147 391 2380 519 
Q 2613 647 2778 891 
Q 2956 1147 3065 1494 
Q 3175 1841 3175 2156 
z
M 1394 2969 
Q 1625 3272 1939 3428 
Q 2253 3584 2638 3584 
Q 3175 3584 3472 3232 
Q 3769 2881 3769 2247 
Q 3769 1728 3584 1258 
Q 3400 788 3053 416 
Q 2822 169 2531 39 
Q 2241 -91 1919 -91 
Q 1547 -91 1294 64 
Q 1041 219 916 525 
L 556 -1331 
L -19 -1331 
L 922 3500 
L 1497 3500 
L 1394 2969 
z
" transform="scale(0.015625)"/>
      </defs>
      <use xlink:href="#DejaVuSans-43" transform="translate(0 0.015625)"/>
      <use xlink:href="#DejaVuSans-6f" transform="translate(69.824219 0.015625)"/>
      <use xlink:href="#DejaVuSans-65" transform="translate(131.005859 0.015625)"/>
      <use xlink:href="#DejaVuSans-66" transform="translate(192.529297 0.015625)"/>
      <use xlink:href="#DejaVuSans-66" transform="translate(227.734375 0.015625)"/>
      <use xlink:href="#DejaVuSans-69" transform="translate(262.939453 0.015625)"/>
      <use xlink:href="#DejaVuSans-63" transform="translate(290.722656 0.015625)"/>
      <use xlink:href="#DejaVuSans-69" transform="translate(345.703125 0.015625)"/>
      <use xlink:href="#DejaVuSans-65" transform="translate(373.486328 0.015625)"/>
      <use xlink:href="#DejaVuSans-6e" transform="translate(435.009766 0.015625)"/>
      <use xlink:href="#DejaVuSans-74" transform="translate(498.388672 0.015625)"/>
      <use xlink:href="#DejaVuSans-65" transform="translate(537.597656 0.015625)"/>
      <use xlink:href="#DejaVuSans-20" transform="translate(599.121094 0.015625)"/>
      <use xlink:href="#DejaVuSans-64" transform="translate(630.908203 0.015625)"/>
      <use xlink:href="#DejaVuSans-69" transform="translate(694.384766 0.015625)"/>
      <use xlink:href="#DejaVuSans-20" transform="translate(722.167969 0.015625)"/>
      <use xlink:href="#DejaVuSans-70" transform="translate(753.955078 0.015625)"/>
      <use xlink:href="#DejaVuSans-6f" transform="translate(817.431641 0.015625)"/>
      <use xlink:href="#DejaVuSans-72" transform="translate(878.613281 0.015625)"/>
      <use xlink:href="#DejaVuSans-74" transform="translate(919.726562 0.015625)"/>
      <use xlink:href="#DejaVuSans-61" transform="translate(958.935547 0.015625)"/>
      <use xlink:href="#DejaVuSans-6e" transform="translate(1020.214844 0.015625)"/>
      <use xlink:href="#DejaVuSans-7a" transform="translate(1083.59375 0.015625)"/>
      <use xlink:href="#DejaVuSans-61" transform="translate(1136.083984 0.015625)"/>
      <use xlink:href="#DejaVuSans-20" transform="translate(1197.363281 0.015625)"/>
      <use xlink:href="#DejaVuSans-Oblique-43" transform="translate(1229.150391 0.015625)"/>
      <use xlink:href="#DejaVuSans-Oblique-70" transform="translate(1298.974609 -16.390625) scale(0.7)"/>
     </g>
    </g>
   </g>
   <g id="line2d_23">
    <path d="M 72.151094 295.672635 
L 350.927446 109.521727 
L 358.978749 105.889779 
L 367.030052 102.529096 
L 375.081354 99.43968 
L 382.126244 96.958963 
L 389.171134 94.685934 
L 396.216024 92.620593 
L 403.260913 90.76294 
L 410.305803 89.112975 
L 417.350693 87.670698 
L 424.395583 86.436109 
L 431.440473 85.409207 
L 438.485362 84.589994 
L 445.530252 83.978468 
L 452.575142 83.574631 
L 459.620032 83.378481 
L 462.63927 83.357995 
L 464.652096 85.43558 
L 574.351094 205.325969 
L 574.351094 205.325969 
" clip-path="url(#p1cfbfc3130)" style="fill: none; stroke: #1976d2; stroke-width: 2.8; stroke-linecap: square"/>
   </g>
   <g id="line2d_24">
    <path d="M 72.151094 320.517969 
L 367.030052 123.487338 
L 372.062116 119.670815 
L 376.087767 116.864496 
L 380.113418 114.277643 
L 384.13907 111.910255 
L 388.164721 109.762334 
L 392.190372 107.833879 
L 396.216024 106.124889 
L 400.241675 104.635366 
L 404.267326 103.365308 
L 408.292978 102.314717 
L 412.318629 101.483591 
L 416.34428 100.871931 
L 420.369931 100.479738 
L 424.395583 100.30701 
L 425.401996 100.298119 
L 426.408408 101.234931 
L 574.351094 262.921969 
L 574.351094 262.921969 
" clip-path="url(#p1cfbfc3130)" style="fill: none; stroke: #d32f2f; stroke-width: 2.6; stroke-linecap: square"/>
   </g>
   <g id="line2d_25">
    <path d="M 72.151094 258.404635 
L 574.351094 258.404635 
" clip-path="url(#p1cfbfc3130)" style="fill: none; stroke: #000000; stroke-width: 0.6; stroke-linecap: square"/>
   </g>
   <g id="line2d_26">
    <path d="M 165.151094 354.397969 
L 165.151094 49.477969 
" clip-path="url(#p1cfbfc3130)" style="fill: none; stroke: #000000; stroke-width: 0.6; stroke-linecap: square"/>
   </g>
   <g id="patch_3">
    <path d="M 72.151094 354.397969 
L 72.151094 49.477969 
" style="fill: none; stroke: #000000; stroke-width: 0.8; stroke-linejoin: miter; stroke-linecap: square"/>
   </g>
   <g id="patch_4">
    <path d="M 72.151094 354.397969 
L 574.351094 354.397969 
" style="fill: none; stroke: #000000; stroke-width: 0.8; stroke-linejoin: miter; stroke-linecap: square"/>
   </g>
   <g id="patch_5">
    <path d="M 124.110523 307.4268 
Q 125.952633 283.913575 127.689955 261.737892 
" style="fill: none; stroke: #1565c0; stroke-width: 1.2; stroke-linecap: round"/>
    <path d="M 125.383647 265.569464 
L 127.689955 261.737892 
L 129.371428 265.881881 
" style="fill: none; stroke: #1565c0; stroke-width: 1.2; stroke-linecap: round"/>
   </g>
   <g id="text_14">
    <g id="patch_6">
     <path d="M 81.451094 325.597656 
L 165.151094 325.597656 
Q 168.151094 325.597656 168.151094 322.597656 
L 168.151094 312.919531 
Q 168.151094 309.919531 165.151094 309.919531 
L 81.451094 309.919531 
Q 78.451094 309.919531 78.451094 312.919531 
L 78.451094 322.597656 
Q 78.451094 325.597656 81.451094 325.597656 
z
" style="fill: #ffffff; opacity: 0.92; stroke: #808080; stroke-linejoin: miter"/>
    </g>
    <!-- $α_0 = -2°$ (2412) -->
    <g style="fill: #1565c0" transform="translate(81.451094 320.517969) scale(0.1 -0.1)">
     <defs>
      <path id="DejaVuSans-Oblique-3b1" d="M 2619 1628 
L 2622 2350 
Q 2625 3088 2069 3091 
Q 1653 3094 1394 2747 
Q 1069 2319 959 1747 
Q 825 1059 994 731 
Q 1169 397 1547 397 
Q 1966 397 2319 1063 
L 2619 1628 
z
M 2166 3578 
Q 3141 3594 3128 2584 
Q 3128 2584 3616 3500 
L 4128 3500 
L 3119 1603 
L 3109 919 
Q 3109 766 3194 638 
Q 3291 488 3391 488 
L 3669 488 
L 3575 0 
L 3228 0 
Q 2934 0 2722 263 
Q 2622 394 2619 669 
Q 2416 334 2066 50 
Q 1900 -81 1453 -78 
Q 722 -72 456 397 
Q 184 884 353 1747 
Q 534 2675 1009 3097 
Q 1544 3569 2166 3578 
z
" transform="scale(0.015625)"/>
      <path id="DejaVuSans-3d" d="M 678 2906 
L 4684 2906 
L 4684 2381 
L 678 2381 
L 678 2906 
z
M 678 1631 
L 4684 1631 
L 4684 1100 
L 678 1100 
L 678 1631 
z
" transform="scale(0.015625)"/>
      <path id="DejaVuSans-b0" d="M 1600 4347 
Q 1350 4347 1178 4173 
Q 1006 4000 1006 3750 
Q 1006 3503 1178 3333 
Q 1350 3163 1600 3163 
Q 1850 3163 2022 3333 
Q 2194 3503 2194 3750 
Q 2194 3997 2020 4172 
Q 1847 4347 1600 4347 
z
M 1600 4750 
Q 1800 4750 1984 4673 
Q 2169 4597 2303 4453 
Q 2447 4313 2519 4134 
Q 2591 3956 2591 3750 
Q 2591 3338 2302 3052 
Q 2013 2766 1594 2766 
Q 1172 2766 890 3047 
Q 609 3328 609 3750 
Q 609 4169 896 4459 
Q 1184 4750 1600 4750 
z
" transform="scale(0.015625)"/>
      <path id="DejaVuSans-34" d="M 2419 4116 
L 825 1625 
L 2419 1625 
L 2419 4116 
z
M 2253 4666 
L 3047 4666 
L 3047 1625 
L 3713 1625 
L 3713 1100 
L 3047 1100 
L 3047 0 
L 2419 0 
L 2419 1100 
L 313 1100 
L 313 1709 
L 2253 4666 
z
" transform="scale(0.015625)"/>
     </defs>
     <use xlink:href="#DejaVuSans-Oblique-3b1" transform="translate(0 0.125)"/>
     <use xlink:href="#DejaVuSans-30" transform="translate(65.917969 -16.28125) scale(0.7)"/>
     <use xlink:href="#DejaVuSans-3d" transform="translate(132.670898 0.125)"/>
     <use xlink:href="#DejaVuSans-2212" transform="translate(255.424805 0.125)"/>
     <use xlink:href="#DejaVuSans-32" transform="translate(358.696289 0.125)"/>
     <use xlink:href="#DejaVuSans-b0" transform="translate(422.319336 0.125)"/>
     <use xlink:href="#DejaVuSans-20" transform="translate(472.319336 0.125)"/>
     <use xlink:href="#DejaVuSans-28" transform="translate(504.106445 0.125)"/>
     <use xlink:href="#DejaVuSans-32" transform="translate(543.120117 0.125)"/>
     <use xlink:href="#DejaVuSans-34" transform="translate(606.743164 0.125)"/>
     <use xlink:href="#DejaVuSans-31" transform="translate(670.366211 0.125)"/>
     <use xlink:href="#DejaVuSans-32" transform="translate(733.989258 0.125)"/>
     <use xlink:href="#DejaVuSans-29" transform="translate(797.612305 0.125)"/>
    </g>
   </g>
   <g id="patch_7">
    <path d="M 226.261758 308.159914 
Q 196.48038 283.912415 167.73941 260.511999 
" style="fill: none; stroke: #b71c1c; stroke-width: 1.2; stroke-linecap: round"/>
    <path d="M 169.578552 264.588463 
L 167.73941 260.511999 
L 172.104067 261.486564 
" style="fill: none; stroke: #b71c1c; stroke-width: 1.2; stroke-linecap: round"/>
   </g>
   <g id="text_15">
    <g id="patch_8">
     <path d="M 202.351094 325.597656 
L 273.751094 325.597656 
Q 276.751094 325.597656 276.751094 322.597656 
L 276.751094 312.919531 
Q 276.751094 309.919531 273.751094 309.919531 
L 202.351094 309.919531 
Q 199.351094 309.919531 199.351094 312.919531 
L 199.351094 322.597656 
Q 199.351094 325.597656 202.351094 325.597656 
z
" style="fill: #ffffff; opacity: 0.92; stroke: #808080; stroke-linejoin: miter"/>
    </g>
    <!-- $α_0 = 0°$ (0012) -->
    <g style="fill: #b71c1c" transform="translate(202.351094 320.517969) scale(0.1 -0.1)">
     <use xlink:href="#DejaVuSans-Oblique-3b1" transform="translate(0 0.125)"/>
     <use xlink:href="#DejaVuSans-30" transform="translate(65.917969 -16.28125) scale(0.7)"/>
     <use xlink:href="#DejaVuSans-3d" transform="translate(132.670898 0.125)"/>
     <use xlink:href="#DejaVuSans-30" transform="translate(235.942383 0.125)"/>
     <use xlink:href="#DejaVuSans-b0" transform="translate(299.56543 0.125)"/>
     <use xlink:href="#DejaVuSans-20" transform="translate(349.56543 0.125)"/>
     <use xlink:href="#DejaVuSans-28" transform="translate(381.352539 0.125)"/>
     <use xlink:href="#DejaVuSans-30" transform="translate(420.366211 0.125)"/>
     <use xlink:href="#DejaVuSans-30" transform="translate(483.989258 0.125)"/>
     <use xlink:href="#DejaVuSans-31" transform="translate(547.612305 0.125)"/>
     <use xlink:href="#DejaVuSans-32" transform="translate(611.235352 0.125)"/>
     <use xlink:href="#DejaVuSans-29" transform="translate(674.858398 0.125)"/>
    </g>
   </g>
   <g id="patch_9">
    <path d="M 258.151094 192.280175 
Q 258.151094 183.869123 258.151094 175.458071 
" style="fill: none; stroke: #7b1fa2; stroke-width: 1.8; stroke-linecap: round"/>
    <path d="M 260.351094 187.880175 
L 258.151094 192.280175 
L 255.951094 187.880175 
" style="fill: none; stroke: #7b1fa2; stroke-width: 1.8; stroke-linecap: round"/>
    <path d="M 255.951094 179.858071 
L 258.151094 175.458071 
L 260.351094 179.858071 
" style="fill: none; stroke: #7b1fa2; stroke-width: 1.8; stroke-linecap: round"/>
   </g>
   <g id="text_16">
    <g id="patch_10">
     <path d="M 267.451094 188.948323 
L 320.551094 188.948323 
Q 323.551094 188.948323 323.551094 185.948323 
L 323.551094 163.130198 
Q 323.551094 160.130198 320.551094 160.130198 
L 267.451094 160.130198 
Q 264.451094 160.130198 264.451094 163.130198 
L 264.451094 185.948323 
Q 264.451094 188.948323 267.451094 188.948323 
z
" style="fill: #ffffff; opacity: 0.92; stroke: #808080; stroke-linejoin: miter"/>
    </g>
    <!-- $ΔC_p = 0{,}22$ -->
    <g style="fill: #6a1b9a" transform="translate(267.451094 171.65051) scale(0.1 -0.1)">
     <defs>
      <path id="DejaVuSans-394" d="M 2188 4044 
L 906 525 
L 3472 525 
L 2188 4044 
z
M 50 0 
L 1831 4666 
L 2547 4666 
L 4325 0 
L 50 0 
z
" transform="scale(0.015625)"/>
      <path id="DejaVuSans-2c" d="M 750 794 
L 1409 794 
L 1409 256 
L 897 -744 
L 494 -744 
L 750 256 
L 750 794 
z
" transform="scale(0.015625)"/>
     </defs>
     <use xlink:href="#DejaVuSans-394" transform="translate(0 0.78125)"/>
     <use xlink:href="#DejaVuSans-Oblique-43" transform="translate(68.408203 0.78125)"/>
     <use xlink:href="#DejaVuSans-Oblique-70" transform="translate(138.232422 -15.625) scale(0.7)"/>
     <use xlink:href="#DejaVuSans-3d" transform="translate(204.882812 0.78125)"/>
     <use xlink:href="#DejaVuSans-30" transform="translate(308.154297 0.78125)"/>
     <use xlink:href="#DejaVuSans-2c" transform="translate(371.777344 0.78125)"/>
     <use xlink:href="#DejaVuSans-32" transform="translate(403.564453 0.78125)"/>
     <use xlink:href="#DejaVuSans-32" transform="translate(467.1875 0.78125)"/>
    </g>
    <!-- (costante) -->
    <g style="fill: #6a1b9a" transform="translate(267.451094 183.868635) scale(0.1 -0.1)">
     <defs>
      <path id="DejaVuSans-73" d="M 2834 3397 
L 2834 2853 
Q 2591 2978 2328 3040 
Q 2066 3103 1784 3103 
Q 1356 3103 1142 2972 
Q 928 2841 928 2578 
Q 928 2378 1081 2264 
Q 1234 2150 1697 2047 
L 1894 2003 
Q 2506 1872 2764 1633 
Q 3022 1394 3022 966 
Q 3022 478 2636 193 
Q 2250 -91 1575 -91 
Q 1294 -91 989 -36 
Q 684 19 347 128 
L 347 722 
Q 666 556 975 473 
Q 1284 391 1588 391 
Q 1994 391 2212 530 
Q 2431 669 2431 922 
Q 2431 1156 2273 1281 
Q 2116 1406 1581 1522 
L 1381 1569 
Q 847 1681 609 1914 
Q 372 2147 372 2553 
Q 372 3047 722 3315 
Q 1072 3584 1716 3584 
Q 2034 3584 2315 3537 
Q 2597 3491 2834 3397 
z
" transform="scale(0.015625)"/>
     </defs>
     <use xlink:href="#DejaVuSans-28"/>
     <use xlink:href="#DejaVuSans-63" x="39.013672"/>
     <use xlink:href="#DejaVuSans-6f" x="93.994141"/>
     <use xlink:href="#DejaVuSans-73" x="155.175781"/>
     <use xlink:href="#DejaVuSans-74" x="207.275391"/>
     <use xlink:href="#DejaVuSans-61" x="246.484375"/>
     <use xlink:href="#DejaVuSans-6e" x="307.763672"/>
     <use xlink:href="#DejaVuSans-74" x="371.142578"/>
     <use xlink:href="#DejaVuSans-65" x="410.351562"/>
     <use xlink:href="#DejaVuSans-29" x="471.875"/>
    </g>
   </g>
   <g id="text_17">
    <!-- Confronto profili NACA: 2412 (asimmetrico) vs 0012 (simmetrico) -->
    <g transform="translate(110.818906 31.477969) scale(0.13 -0.13)">
     <defs>
      <path id="DejaVuSans-4e" d="M 628 4666 
L 1478 4666 
L 3547 763 
L 3547 4666 
L 4159 4666 
L 4159 0 
L 3309 0 
L 1241 3903 
L 1241 0 
L 628 0 
L 628 4666 
z
" transform="scale(0.015625)"/>
      <path id="DejaVuSans-3a" d="M 750 794 
L 1409 794 
L 1409 0 
L 750 0 
L 750 794 
z
M 750 3309 
L 1409 3309 
L 1409 2516 
L 750 2516 
L 750 3309 
z
" transform="scale(0.015625)"/>
      <path id="DejaVuSans-6d" d="M 3328 2828 
Q 3544 3216 3844 3400 
Q 4144 3584 4550 3584 
Q 5097 3584 5394 3201 
Q 5691 2819 5691 2113 
L 5691 0 
L 5113 0 
L 5113 2094 
Q 5113 2597 4934 2840 
Q 4756 3084 4391 3084 
Q 3944 3084 3684 2787 
Q 3425 2491 3425 1978 
L 3425 0 
L 2847 0 
L 2847 2094 
Q 2847 2600 2669 2842 
Q 2491 3084 2119 3084 
Q 1678 3084 1418 2786 
Q 1159 2488 1159 1978 
L 1159 0 
L 581 0 
L 581 3500 
L 1159 3500 
L 1159 2956 
Q 1356 3278 1631 3431 
Q 1906 3584 2284 3584 
Q 2666 3584 2933 3390 
Q 3200 3197 3328 2828 
z
" transform="scale(0.015625)"/>
      <path id="DejaVuSans-76" d="M 191 3500 
L 800 3500 
L 1894 563 
L 2988 3500 
L 3597 3500 
L 2284 0 
L 1503 0 
L 191 3500 
z
" transform="scale(0.015625)"/>
     </defs>
     <use xlink:href="#DejaVuSans-43"/>
     <use xlink:href="#DejaVuSans-6f" x="69.824219"/>
     <use xlink:href="#DejaVuSans-6e" x="131.005859"/>
     <use xlink:href="#DejaVuSans-66" x="194.384766"/>
     <use xlink:href="#DejaVuSans-72" x="229.589844"/>
     <use xlink:href="#DejaVuSans-6f" x="268.453125"/>
     <use xlink:href="#DejaVuSans-6e" x="329.634766"/>
     <use xlink:href="#DejaVuSans-74" x="393.013672"/>
     <use xlink:href="#DejaVuSans-6f" x="432.222656"/>
     <use xlink:href="#DejaVuSans-20" x="493.404297"/>
     <use xlink:href="#DejaVuSans-70" x="525.191406"/>
     <use xlink:href="#DejaVuSans-72" x="588.667969"/>
     <use xlink:href="#DejaVuSans-6f" x="627.53125"/>
     <use xlink:href="#DejaVuSans-66" x="688.712891"/>
     <use xlink:href="#DejaVuSans-69" x="723.917969"/>
     <use xlink:href="#DejaVuSans-6c" x="751.701172"/>
     <use xlink:href="#DejaVuSans-69" x="779.484375"/>
     <use xlink:href="#DejaVuSans-20" x="807.267578"/>
     <use xlink:href="#DejaVuSans-4e" x="839.054688"/>
     <use xlink:href="#DejaVuSans-41" x="913.859375"/>
     <use xlink:href="#DejaVuSans-43" x="980.517578"/>
     <use xlink:href="#DejaVuSans-41" x="1050.341797"/>
     <use xlink:href="#DejaVuSans-3a" x="1117"/>
     <use xlink:href="#DejaVuSans-20" x="1150.691406"/>
     <use xlink:href="#DejaVuSans-32" x="1182.478516"/>
     <use xlink:href="#DejaVuSans-34" x="1246.101562"/>
     <use xlink:href="#DejaVuSans-31" x="1309.724609"/>
     <use xlink:href="#DejaVuSans-32" x="1373.347656"/>
     <use xlink:href="#DejaVuSans-20" x="1436.970703"/>
     <use xlink:href="#DejaVuSans-28" x="1468.757812"/>
     <use xlink:href="#DejaVuSans-61" x="1507.771484"/>
     <use xlink:href="#DejaVuSans-73" x="1569.050781"/>
     <use xlink:href="#DejaVuSans-69" x="1621.150391"/>
     <use xlink:href="#DejaVuSans-6d" x="1648.933594"/>
     <use xlink:href="#DejaVuSans-6d" x="1746.345703"/>
     <use xlink:href="#DejaVuSans-65" x="1843.757812"/>
     <use xlink:href="#DejaVuSans-74" x="1905.28125"/>
     <use xlink:href="#DejaVuSans-72" x="1944.490234"/>
     <use xlink:href="#DejaVuSans-69" x="1985.603516"/>
     <use xlink:href="#DejaVuSans-63" x="2013.386719"/>
     <use xlink:href="#DejaVuSans-6f" x="2068.367188"/>
     <use xlink:href="#DejaVuSans-29" x="2129.548828"/>
     <use xlink:href="#DejaVuSans-20" x="2168.5625"/>
     <use xlink:href="#DejaVuSans-76" x="2200.349609"/>
     <use xlink:href="#DejaVuSans-73" x="2259.529297"/>
     <use xlink:href="#DejaVuSans-20" x="2311.628906"/>
     <use xlink:href="#DejaVuSans-30" x="2343.416016"/>
     <use xlink:href="#DejaVuSans-30" x="2407.039062"/>
     <use xlink:href="#DejaVuSans-31" x="2470.662109"/>
     <use xlink:href="#DejaVuSans-32" x="2534.285156"/>
     <use xlink:href="#DejaVuSans-20" x="2597.908203"/>
     <use xlink:href="#DejaVuSans-28" x="2629.695312"/>
     <use xlink:href="#DejaVuSans-73" x="2668.708984"/>
     <use xlink:href="#DejaVuSans-69" x="2720.808594"/>
     <use xlink:href="#DejaVuSans-6d" x="2748.591797"/>
     <use xlink:href="#DejaVuSans-6d" x="2846.003906"/>
     <use xlink:href="#DejaVuSans-65" x="2943.416016"/>
     <use xlink:href="#DejaVuSans-74" x="3004.939453"/>
     <use xlink:href="#DejaVuSans-72" x="3044.148438"/>
     <use xlink:href="#DejaVuSans-69" x="3085.261719"/>
     <use xlink:href="#DejaVuSans-63" x="3113.044922"/>
     <use xlink:href="#DejaVuSans-6f" x="3168.025391"/>
     <use xlink:href="#DejaVuSans-29" x="3229.207031"/>
    </g>
   </g>
   <g id="PathCollection_1">
    <defs>
     <path id="m0ed649b05a" d="M 0 4.1833 
C 1.109424 4.1833 2.173559 3.742521 2.95804 2.95804 
C 3.742521 2.173559 4.1833 1.109424 4.1833 0 
C 4.1833 -1.109424 3.742521 -2.173559 2.95804 -2.95804 
C 2.173559 -3.742521 1.109424 -4.1833 0 -4.1833 
C -1.109424 -4.1833 -2.173559 -3.742521 -2.95804 -2.95804 
C -3.742521 -2.173559 -4.1833 -1.109424 -4.1833 0 
C -4.1833 1.109424 -3.742521 2.173559 -2.95804 2.95804 
C -2.173559 3.742521 -1.109424 4.1833 0 4.1833 
z
" style="stroke: #000000"/>
    </defs>
    <g clip-path="url(#p1cfbfc3130)">
     <use xlink:href="#m0ed649b05a" x="127.951094" y="258.404635" style="stroke: #000000"/>
     <use xlink:href="#m0ed649b05a" x="165.151094" y="258.404635" style="stroke: #000000"/>
    </g>
   </g>
   <g id="PathCollection_2">
    <defs>
     <path id="C0_0_ccd75f3712" d="M 0 4.472136 
C 1.186024 4.472136 2.323632 4.000923 3.162278 3.162278 
C 4.000923 2.323632 4.472136 1.186024 4.472136 -0 
C 4.472136 -1.186024 4.000923 -2.323632 3.162278 -3.162278 
C 2.323632 -4.000923 1.186024 -4.472136 0 -4.472136 
C -1.186024 -4.472136 -2.323632 -4.000923 -3.162278 -3.162278 
C -4.000923 -2.323632 -4.472136 -1.186024 -4.472136 0 
C -4.472136 1.186024 -4.000923 2.323632 -3.162278 3.162278 
C -2.323632 4.000923 -1.186024 4.472136 0 4.472136 
z
"/>
    </defs>
    <g clip-path="url(#p1cfbfc3130)">
     <use xlink:href="#C0_0_ccd75f3712" x="462.751094" y="83.357969" style="fill: #1976d2; stroke: #000000"/>
    </g>
    <g clip-path="url(#p1cfbfc3130)">
     <use xlink:href="#C0_0_ccd75f3712" x="425.551094" y="100.297969" style="fill: #d32f2f; stroke: #000000"/>
    </g>
   </g>
   <g id="legend_1">
    <g id="patch_11">
     <path d="M 79.151094 86.834219 
L 283.283906 86.834219 
Q 285.283906 86.834219 285.283906 84.834219 
L 285.283906 56.477969 
Q 285.283906 54.477969 283.283906 54.477969 
L 79.151094 54.477969 
Q 77.151094 54.477969 77.151094 56.477969 
L 77.151094 84.834219 
Q 77.151094 86.834219 79.151094 86.834219 
z
" style="fill: #ffffff; opacity: 0.8; stroke: #cccccc; stroke-linejoin: miter"/>
    </g>
    <g id="line2d_27">
     <path d="M 81.151094 62.576406 
L 91.151094 62.576406 
L 101.151094 62.576406 
" style="fill: none; stroke: #1976d2; stroke-width: 2.8; stroke-linecap: square"/>
    </g>
    <g id="text_18">
     <!-- NACA 2412 (asimmetrico, Cessna) -->
     <g transform="translate(109.151094 66.076406) scale(0.1 -0.1)">
      <use xlink:href="#DejaVuSans-4e"/>
      <use xlink:href="#DejaVuSans-41" x="74.804688"/>
      <use xlink:href="#DejaVuSans-43" x="141.462891"/>
      <use xlink:href="#DejaVuSans-41" x="211.287109"/>
      <use xlink:href="#DejaVuSans-20" x="279.695312"/>
      <use xlink:href="#DejaVuSans-32" x="311.482422"/>
      <use xlink:href="#DejaVuSans-34" x="375.105469"/>
      <use xlink:href="#DejaVuSans-31" x="438.728516"/>
      <use xlink:href="#DejaVuSans-32" x="502.351562"/>
      <use xlink:href="#DejaVuSans-20" x="565.974609"/>
      <use xlink:href="#DejaVuSans-28" x="597.761719"/>
      <use xlink:href="#DejaVuSans-61" x="636.775391"/>
      <use xlink:href="#DejaVuSans-73" x="698.054688"/>
      <use xlink:href="#DejaVuSans-69" x="750.154297"/>
      <use xlink:href="#DejaVuSans-6d" x="777.9375"/>
      <use xlink:href="#DejaVuSans-6d" x="875.349609"/>
      <use xlink:href="#DejaVuSans-65" x="972.761719"/>
      <use xlink:href="#DejaVuSans-74" x="1034.285156"/>
      <use xlink:href="#DejaVuSans-72" x="1073.494141"/>
      <use xlink:href="#DejaVuSans-69" x="1114.607422"/>
      <use xlink:href="#DejaVuSans-63" x="1142.390625"/>
      <use xlink:href="#DejaVuSans-6f" x="1197.371094"/>
      <use xlink:href="#DejaVuSans-2c" x="1258.552734"/>
      <use xlink:href="#DejaVuSans-20" x="1290.339844"/>
      <use xlink:href="#DejaVuSans-43" x="1322.126953"/>
      <use xlink:href="#DejaVuSans-65" x="1391.951172"/>
      <use xlink:href="#DejaVuSans-73" x="1453.474609"/>
      <use xlink:href="#DejaVuSans-73" x="1505.574219"/>
      <use xlink:href="#DejaVuSans-6e" x="1557.673828"/>
      <use xlink:href="#DejaVuSans-61" x="1621.052734"/>
      <use xlink:href="#DejaVuSans-29" x="1682.332031"/>
     </g>
    </g>
    <g id="line2d_28">
     <path d="M 81.151094 77.254531 
L 91.151094 77.254531 
L 101.151094 77.254531 
" style="fill: none; stroke: #d32f2f; stroke-width: 2.6; stroke-linecap: square"/>
    </g>
    <g id="text_19">
     <!-- NACA 0012 (simmetrico) -->
     <g transform="translate(109.151094 80.754531) scale(0.1 -0.1)">
      <use xlink:href="#DejaVuSans-4e"/>
      <use xlink:href="#DejaVuSans-41" x="74.804688"/>
      <use xlink:href="#DejaVuSans-43" x="141.462891"/>
      <use xlink:href="#DejaVuSans-41" x="211.287109"/>
      <use xlink:href="#DejaVuSans-20" x="279.695312"/>
      <use xlink:href="#DejaVuSans-30" x="311.482422"/>
      <use xlink:href="#DejaVuSans-30" x="375.105469"/>
      <use xlink:href="#DejaVuSans-31" x="438.728516"/>
      <use xlink:href="#DejaVuSans-32" x="502.351562"/>
      <use xlink:href="#DejaVuSans-20" x="565.974609"/>
      <use xlink:href="#DejaVuSans-28" x="597.761719"/>
      <use xlink:href="#DejaVuSans-73" x="636.775391"/>
      <use xlink:href="#DejaVuSans-69" x="688.875"/>
      <use xlink:href="#DejaVuSans-6d" x="716.658203"/>
      <use xlink:href="#DejaVuSans-6d" x="814.070312"/>
      <use xlink:href="#DejaVuSans-65" x="911.482422"/>
      <use xlink:href="#DejaVuSans-74" x="973.005859"/>
      <use xlink:href="#DejaVuSans-72" x="1012.214844"/>
      <use xlink:href="#DejaVuSans-69" x="1053.328125"/>
      <use xlink:href="#DejaVuSans-63" x="1081.111328"/>
      <use xlink:href="#DejaVuSans-6f" x="1136.091797"/>
      <use xlink:href="#DejaVuSans-29" x="1197.273438"/>
     </g>
    </g>
   </g>
  </g>
 </g>
 <defs>
  <clipPath id="p1cfbfc3130">
   <rect x="72.151094" y="49.477969" width="502.2" height="304.92"/>
  </clipPath>
 </defs>
</svg>
