<?xml version="1.0" encoding="utf-8" standalone="no"?>
<!DOCTYPE svg PUBLIC "-//W3C//DTD SVG 1.1//EN"
  "http://www.w3.org/Graphics/SVG/1.1/DTD/svg11.dtd">
<svg xmlns:xlink="http://www.w3.org/1999/xlink" width="457.749375pt" height="332.347312pt" viewBox="0 0 457.749375 332.347312" xmlns="http://www.w3.org/2000/svg" version="1.1">
 <metadata>
  <rdf:RDF xmlns:dc="http://purl.org/dc/elements/1.1/" xmlns:cc="http://creativecommons.org/ns#" xmlns:rdf="http://www.w3.org/1999/02/22-rdf-syntax-ns#">
   <cc:Work>
    <dc:type rdf:resource="http://purl.org/dc/dcmitype/StillImage"/>
    <dc:date>2026-04-27T14:38:10.545850</dc:date>
    <dc:format>image/svg+xml</dc:format>
    <dc:creator>
     <cc:Agent>
      <dc:title>Matplotlib v3.9.4, https://matplotlib.org/</dc:title>
     </cc:Agent>
    </dc:creator>
   </cc:Work>
  </rdf:RDF>
 </metadata>
 <defs>
  <style type="text/css">*{stroke-linejoin: round; stroke-linecap: butt}</style>
 </defs>
 <g id="figure_1">
  <g id="patch_1">
   <path d="M 0 332.347312 
L 457.749375 332.347312 
L 457.749375 0 
L 0 0 
z
" style="fill: #ffffff"/>
  </g>
  <g id="axes_1">
   <g id="patch_2">
    <path d="M 59.949375 289.952 
L 450.549375 289.952 
L 450.549375 23.84 
L 59.949375 23.84 
z
" style="fill: #ffffff"/>
   </g>
   <g id="matplotlib.axis_1">
    <g id="xtick_1">
     <g id="line2d_1">
      <path d="M 71.43761 289.952 
L 71.43761 23.84 
" clip-path="url(#p68aeca3aaa)" style="fill: none; stroke: #b0b0b0; stroke-opacity: 0.3; stroke-width: 0.8; stroke-linecap: square"/>
     </g>
     <g id="line2d_2">
      <defs>
       <path id="m59f8cc921e" d="M 0 0 
L 0 3.5 
" style="stroke: #000000; stroke-width: 0.8"/>
      </defs>
      <g>
       <use xlink:href="#m59f8cc921e" x="71.43761" y="289.952" style="stroke: #000000; stroke-width: 0.8"/>
      </g>
     </g>
     <g id="text_1">
      <!-- −5 -->
      <g transform="translate(62.592298 306.070125) scale(0.12 -0.12)">
       <defs>
        <path id="DejaVuSans-2212" d="M 678 2272 
L 4684 2272 
L 4684 1741 
L 678 1741 
L 678 2272 
z
" transform="scale(0.015625)"/>
        <path id="DejaVuSans-35" d="M 691 4666 
L 3169 4666 
L 3169 4134 
L 1269 4134 
L 1269 2991 
Q 1406 3038 1543 3061 
Q 1681 3084 1819 3084 
Q 2600 3084 3056 2656 
Q 3513 2228 3513 1497 
Q 3513 744 3044 326 
Q 2575 -91 1722 -91 
Q 1428 -91 1123 -41 
Q 819 9 494 109 
L 494 744 
Q 775 591 1075 516 
Q 1375 441 1709 441 
Q 2250 441 2565 725 
Q 2881 1009 2881 1497 
Q 2881 1984 2565 2268 
Q 2250 2553 1709 2553 
Q 1456 2553 1204 2497 
Q 953 2441 691 2322 
L 691 4666 
z
" transform="scale(0.015625)"/>
       </defs>
       <use xlink:href="#DejaVuSans-2212"/>
       <use xlink:href="#DejaVuSans-35" x="83.789062"/>
      </g>
     </g>
    </g>
    <g id="xtick_2">
     <g id="line2d_3">
      <path d="M 128.878787 289.952 
L 128.878787 23.84 
" clip-path="url(#p68aeca3aaa)" style="fill: none; stroke: #b0b0b0; stroke-opacity: 0.3; stroke-width: 0.8; stroke-linecap: square"/>
     </g>
     <g id="line2d_4">
      <g>
       <use xlink:href="#m59f8cc921e" x="128.878787" y="289.952" style="stroke: #000000; stroke-width: 0.8"/>
      </g>
     </g>
     <g id="text_2">
      <!-- 0 -->
      <g transform="translate(125.061287 306.070125) scale(0.12 -0.12)">
       <defs>
        <path id="DejaVuSans-30" d="M 2034 4250 
Q 1547 4250 1301 3770 
Q 1056 3291 1056 2328 
Q 1056 1369 1301 889 
Q 1547 409 2034 409 
Q 2525 409 2770 889 
Q 3016 1369 3016 2328 
Q 3016 3291 2770 3770 
Q 2525 4250 2034 4250 
z
M 2034 4750 
Q 2819 4750 3233 4129 
Q 3647 3509 3647 2328 
Q 3647 1150 3233 529 
Q 2819 -91 2034 -91 
Q 1250 -91 836 529 
Q 422 1150 422 2328 
Q 422 3509 836 4129 
Q 1250 4750 2034 4750 
z
" transform="scale(0.015625)"/>
       </defs>
       <use xlink:href="#DejaVuSans-30"/>
      </g>
     </g>
    </g>
    <g id="xtick_3">
     <g id="line2d_5">
      <path d="M 186.319963 289.952 
L 186.319963 23.84 
" clip-path="url(#p68aeca3aaa)" style="fill: none; stroke: #b0b0b0; stroke-opacity: 0.3; stroke-width: 0.8; stroke-linecap: square"/>
     </g>
     <g id="line2d_6">
      <g>
       <use xlink:href="#m59f8cc921e" x="186.319963" y="289.952" style="stroke: #000000; stroke-width: 0.8"/>
      </g>
     </g>
     <g id="text_3">
      <!-- 5 -->
      <g transform="translate(182.502463 306.070125) scale(0.12 -0.12)">
       <use xlink:href="#DejaVuSans-35"/>
      </g>
     </g>
    </g>
    <g id="xtick_4">
     <g id="line2d_7">
      <path d="M 243.76114 289.952 
L 243.76114 23.84 
" clip-path="url(#p68aeca3aaa)" style="fill: none; stroke: #b0b0b0; stroke-opacity: 0.3; stroke-width: 0.8; stroke-linecap: square"/>
     </g>
     <g id="line2d_8">
      <g>
       <use xlink:href="#m59f8cc921e" x="243.76114" y="289.952" style="stroke: #000000; stroke-width: 0.8"/>
      </g>
     </g>
     <g id="text_4">
      <!-- 10 -->
      <g transform="translate(236.12614 306.070125) scale(0.12 -0.12)">
       <defs>
        <path id="DejaVuSans-31" d="M 794 531 
L 1825 531 
L 1825 4091 
L 703 3866 
L 703 4441 
L 1819 4666 
L 2450 4666 
L 2450 531 
L 3481 531 
L 3481 0 
L 794 0 
L 794 531 
z
" transform="scale(0.015625)"/>
       </defs>
       <use xlink:href="#DejaVuSans-31"/>
       <use xlink:href="#DejaVuSans-30" x="63.623047"/>
      </g>
     </g>
    </g>
    <g id="xtick_5">
     <g id="line2d_9">
      <path d="M 301.202316 289.952 
L 301.202316 23.84 
" clip-path="url(#p68aeca3aaa)" style="fill: none; stroke: #b0b0b0; stroke-opacity: 0.3; stroke-width: 0.8; stroke-linecap: square"/>
     </g>
     <g id="line2d_10">
      <g>
       <use xlink:href="#m59f8cc921e" x="301.202316" y="289.952" style="stroke: #000000; stroke-width: 0.8"/>
      </g>
     </g>
     <g id="text_5">
      <!-- 15 -->
      <g transform="translate(293.567316 306.070125) scale(0.12 -0.12)">
       <use xlink:href="#DejaVuSans-31"/>
       <use xlink:href="#DejaVuSans-35" x="63.623047"/>
      </g>
     </g>
    </g>
    <g id="xtick_6">
     <g id="line2d_11">
      <path d="M 358.643493 289.952 
L 358.643493 23.84 
" clip-path="url(#p68aeca3aaa)" style="fill: none; stroke: #b0b0b0; stroke-opacity: 0.3; stroke-width: 0.8; stroke-linecap: square"/>
     </g>
     <g id="line2d_12">
      <g>
       <use xlink:href="#m59f8cc921e" x="358.643493" y="289.952" style="stroke: #000000; stroke-width: 0.8"/>
      </g>
     </g>
     <g id="text_6">
      <!-- 20 -->
      <g transform="translate(351.008493 306.070125) scale(0.12 -0.12)">
       <defs>
        <path id="DejaVuSans-32" d="M 1228 531 
L 3431 531 
L 3431 0 
L 469 0 
L 469 531 
Q 828 903 1448 1529 
Q 2069 2156 2228 2338 
Q 2531 2678 2651 2914 
Q 2772 3150 2772 3378 
Q 2772 3750 2511 3984 
Q 2250 4219 1831 4219 
Q 1534 4219 1204 4116 
Q 875 4013 500 3803 
L 500 4441 
Q 881 4594 1212 4672 
Q 1544 4750 1819 4750 
Q 2544 4750 2975 4387 
Q 3406 4025 3406 3419 
Q 3406 3131 3298 2873 
Q 3191 2616 2906 2266 
Q 2828 2175 2409 1742 
Q 1991 1309 1228 531 
z
" transform="scale(0.015625)"/>
       </defs>
       <use xlink:href="#DejaVuSans-32"/>
       <use xlink:href="#DejaVuSans-30" x="63.623047"/>
      </g>
     </g>
    </g>
    <g id="xtick_7">
     <g id="line2d_13">
      <path d="M 416.084669 289.952 
L 416.084669 23.84 
" clip-path="url(#p68aeca3aaa)" style="fill: none; stroke: #b0b0b0; stroke-opacity: 0.3; stroke-width: 0.8; stroke-linecap: square"/>
     </g>
     <g id="line2d_14">
      <g>
       <use xlink:href="#m59f8cc921e" x="416.084669" y="289.952" style="stroke: #000000; stroke-width: 0.8"/>
      </g>
     </g>
     <g id="text_7">
      <!-- 25 -->
      <g transform="translate(408.449669 306.070125) scale(0.12 -0.12)">
       <use xlink:href="#DejaVuSans-32"/>
       <use xlink:href="#DejaVuSans-35" x="63.623047"/>
      </g>
     </g>
    </g>
    <g id="text_8">
     <!-- Angolo di attacco α (gradi) -->
     <g transform="translate(168.342344 322.443719) scale(0.13 -0.13)">
      <defs>
       <path id="DejaVuSans-41" d="M 2188 4044 
L 1331 1722 
L 3047 1722 
L 2188 4044 
z
M 1831 4666 
L 2547 4666 
L 4325 0 
L 3669 0 
L 3244 1197 
L 1141 1197 
L 716 0 
L 50 0 
L 1831 4666 
z
" transform="scale(0.015625)"/>
       <path id="DejaVuSans-6e" d="M 3513 2113 
L 3513 0 
L 2938 0 
L 2938 2094 
Q 2938 2591 2744 2837 
Q 2550 3084 2163 3084 
Q 1697 3084 1428 2787 
Q 1159 2491 1159 1978 
L 1159 0 
L 581 0 
L 581 3500 
L 1159 3500 
L 1159 2956 
Q 1366 3272 1645 3428 
Q 1925 3584 2291 3584 
Q 2894 3584 3203 3211 
Q 3513 2838 3513 2113 
z
" transform="scale(0.015625)"/>
       <path id="DejaVuSans-67" d="M 2906 1791 
Q 2906 2416 2648 2759 
Q 2391 3103 1925 3103 
Q 1463 3103 1205 2759 
Q 947 2416 947 1791 
Q 947 1169 1205 825 
Q 1463 481 1925 481 
Q 2391 481 2648 825 
Q 2906 1169 2906 1791 
z
M 3481 434 
Q 3481 -459 3084 -895 
Q 2688 -1331 1869 -1331 
Q 1566 -1331 1297 -1286 
Q 1028 -1241 775 -1147 
L 775 -588 
Q 1028 -725 1275 -790 
Q 1522 -856 1778 -856 
Q 2344 -856 2625 -561 
Q 2906 -266 2906 331 
L 2906 616 
Q 2728 306 2450 153 
Q 2172 0 1784 0 
Q 1141 0 747 490 
Q 353 981 353 1791 
Q 353 2603 747 3093 
Q 1141 3584 1784 3584 
Q 2172 3584 2450 3431 
Q 2728 3278 2906 2969 
L 2906 3500 
L 3481 3500 
L 3481 434 
z
" transform="scale(0.015625)"/>
       <path id="DejaVuSans-6f" d="M 1959 3097 
Q 1497 3097 1228 2736 
Q 959 2375 959 1747 
Q 959 1119 1226 758 
Q 1494 397 1959 397 
Q 2419 397 2687 759 
Q 2956 1122 2956 1747 
Q 2956 2369 2687 2733 
Q 2419 3097 1959 3097 
z
M 1959 3584 
Q 2709 3584 3137 3096 
Q 3566 2609 3566 1747 
Q 3566 888 3137 398 
Q 2709 -91 1959 -91 
Q 1206 -91 779 398 
Q 353 888 353 1747 
Q 353 2609 779 3096 
Q 1206 3584 1959 3584 
z
" transform="scale(0.015625)"/>
       <path id="DejaVuSans-6c" d="M 603 4863 
L 1178 4863 
L 1178 0 
L 603 0 
L 603 4863 
z
" transform="scale(0.015625)"/>
       <path id="DejaVuSans-20" transform="scale(0.015625)"/>
       <path id="DejaVuSans-64" d="M 2906 2969 
L 2906 4863 
L 3481 4863 
L 3481 0 
L 2906 0 
L 2906 525 
Q 2725 213 2448 61 
Q 2172 -91 1784 -91 
Q 1150 -91 751 415 
Q 353 922 353 1747 
Q 353 2572 751 3078 
Q 1150 3584 1784 3584 
Q 2172 3584 2448 3432 
Q 2725 3281 2906 2969 
z
M 947 1747 
Q 947 1113 1208 752 
Q 1469 391 1925 391 
Q 2381 391 2643 752 
Q 2906 1113 2906 1747 
Q 2906 2381 2643 2742 
Q 2381 3103 1925 3103 
Q 1469 3103 1208 2742 
Q 947 2381 947 1747 
z
" transform="scale(0.015625)"/>
       <path id="DejaVuSans-69" d="M 603 3500 
L 1178 3500 
L 1178 0 
L 603 0 
L 603 3500 
z
M 603 4863 
L 1178 4863 
L 1178 4134 
L 603 4134 
L 603 4863 
z
" transform="scale(0.015625)"/>
       <path id="DejaVuSans-61" d="M 2194 1759 
Q 1497 1759 1228 1600 
Q 959 1441 959 1056 
Q 959 750 1161 570 
Q 1363 391 1709 391 
Q 2188 391 2477 730 
Q 2766 1069 2766 1631 
L 2766 1759 
L 2194 1759 
z
M 3341 1997 
L 3341 0 
L 2766 0 
L 2766 531 
Q 2569 213 2275 61 
Q 1981 -91 1556 -91 
Q 1019 -91 701 211 
Q 384 513 384 1019 
Q 384 1609 779 1909 
Q 1175 2209 1959 2209 
L 2766 2209 
L 2766 2266 
Q 2766 2663 2505 2880 
Q 2244 3097 1772 3097 
Q 1472 3097 1187 3025 
Q 903 2953 641 2809 
L 641 3341 
Q 956 3463 1253 3523 
Q 1550 3584 1831 3584 
Q 2591 3584 2966 3190 
Q 3341 2797 3341 1997 
z
" transform="scale(0.015625)"/>
       <path id="DejaVuSans-74" d="M 1172 4494 
L 1172 3500 
L 2356 3500 
L 2356 3053 
L 1172 3053 
L 1172 1153 
Q 1172 725 1289 603 
Q 1406 481 1766 481 
L 2356 481 
L 2356 0 
L 1766 0 
Q 1100 0 847 248 
Q 594 497 594 1153 
L 594 3053 
L 172 3053 
L 172 3500 
L 594 3500 
L 594 4494 
L 1172 4494 
z
" transform="scale(0.015625)"/>
       <path id="DejaVuSans-63" d="M 3122 3366 
L 3122 2828 
Q 2878 2963 2633 3030 
Q 2388 3097 2138 3097 
Q 1578 3097 1268 2742 
Q 959 2388 959 1747 
Q 959 1106 1268 751 
Q 1578 397 2138 397 
Q 2388 397 2633 464 
Q 2878 531 3122 666 
L 3122 134 
Q 2881 22 2623 -34 
Q 2366 -91 2075 -91 
Q 1284 -91 818 406 
Q 353 903 353 1747 
Q 353 2603 823 3093 
Q 1294 3584 2113 3584 
Q 2378 3584 2631 3529 
Q 2884 3475 3122 3366 
z
" transform="scale(0.015625)"/>
       <path id="DejaVuSans-3b1" d="M 2644 1628 
L 2506 2350 
Q 2366 3091 1809 3091 
Q 1391 3091 1200 2747 
Q 959 2316 959 1747 
Q 959 1059 1194 731 
Q 1431 397 1809 397 
Q 2228 397 2453 1063 
L 2644 1628 
z
M 2966 2584 
L 3275 3500 
L 3788 3500 
L 3147 1603 
L 3272 919 
Q 3300 766 3409 638 
Q 3538 488 3638 488 
L 3913 488 
L 3913 0 
L 3569 0 
Q 3275 0 3013 263 
Q 2884 394 2831 669 
Q 2688 322 2394 50 
Q 2256 -78 1809 -78 
Q 1075 -78 719 397 
Q 353 888 353 1747 
Q 353 2666 750 3097 
Q 1191 3578 1809 3578 
Q 2781 3578 2966 2584 
z
" transform="scale(0.015625)"/>
       <path id="DejaVuSans-28" d="M 1984 4856 
Q 1566 4138 1362 3434 
Q 1159 2731 1159 2009 
Q 1159 1288 1364 580 
Q 1569 -128 1984 -844 
L 1484 -844 
Q 1016 -109 783 600 
Q 550 1309 550 2009 
Q 550 2706 781 3412 
Q 1013 4119 1484 4856 
L 1984 4856 
z
" transform="scale(0.015625)"/>
       <path id="DejaVuSans-72" d="M 2631 2963 
Q 2534 3019 2420 3045 
Q 2306 3072 2169 3072 
Q 1681 3072 1420 2755 
Q 1159 2438 1159 1844 
L 1159 0 
L 581 0 
L 581 3500 
L 1159 3500 
L 1159 2956 
Q 1341 3275 1631 3429 
Q 1922 3584 2338 3584 
Q 2397 3584 2469 3576 
Q 2541 3569 2628 3553 
L 2631 2963 
z
" transform="scale(0.015625)"/>
       <path id="DejaVuSans-29" d="M 513 4856 
L 1013 4856 
Q 1481 4119 1714 3412 
Q 1947 2706 1947 2009 
Q 1947 1309 1714 600 
Q 1481 -109 1013 -844 
L 513 -844 
Q 928 -128 1133 580 
Q 1338 1288 1338 2009 
Q 1338 2731 1133 3434 
Q 928 4138 513 4856 
z
" transform="scale(0.015625)"/>
      </defs>
      <use xlink:href="#DejaVuSans-41"/>
      <use xlink:href="#DejaVuSans-6e" x="68.408203"/>
      <use xlink:href="#DejaVuSans-67" x="131.787109"/>
      <use xlink:href="#DejaVuSans-6f" x="195.263672"/>
      <use xlink:href="#DejaVuSans-6c" x="256.445312"/>
      <use xlink:href="#DejaVuSans-6f" x="284.228516"/>
      <use xlink:href="#DejaVuSans-20" x="345.410156"/>
      <use xlink:href="#DejaVuSans-64" x="377.197266"/>
      <use xlink:href="#DejaVuSans-69" x="440.673828"/>
      <use xlink:href="#DejaVuSans-20" x="468.457031"/>
      <use xlink:href="#DejaVuSans-61" x="500.244141"/>
      <use xlink:href="#DejaVuSans-74" x="561.523438"/>
      <use xlink:href="#DejaVuSans-74" x="600.732422"/>
      <use xlink:href="#DejaVuSans-61" x="639.941406"/>
      <use xlink:href="#DejaVuSans-63" x="701.220703"/>
      <use xlink:href="#DejaVuSans-63" x="756.201172"/>
      <use xlink:href="#DejaVuSans-6f" x="811.181641"/>
      <use xlink:href="#DejaVuSans-20" x="872.363281"/>
      <use xlink:href="#DejaVuSans-3b1" x="904.150391"/>
      <use xlink:href="#DejaVuSans-20" x="970.068359"/>
      <use xlink:href="#DejaVuSans-28" x="1001.855469"/>
      <use xlink:href="#DejaVuSans-67" x="1040.869141"/>
      <use xlink:href="#DejaVuSans-72" x="1104.345703"/>
      <use xlink:href="#DejaVuSans-61" x="1145.458984"/>
      <use xlink:href="#DejaVuSans-64" x="1206.738281"/>
      <use xlink:href="#DejaVuSans-69" x="1270.214844"/>
      <use xlink:href="#DejaVuSans-29" x="1297.998047"/>
     </g>
    </g>
   </g>
   <g id="matplotlib.axis_2">
    <g id="ytick_1">
     <g id="line2d_15">
      <path d="M 59.949375 289.952 
L 450.549375 289.952 
" clip-path="url(#p68aeca3aaa)" style="fill: none; stroke: #b0b0b0; stroke-opacity: 0.3; stroke-width: 0.8; stroke-linecap: square"/>
     </g>
     <g id="line2d_16">
      <defs>
       <path id="ma004cd6f2a" d="M 0 0 
L -3.5 0 
" style="stroke: #000000; stroke-width: 0.8"/>
      </defs>
      <g>
       <use xlink:href="#ma004cd6f2a" x="59.949375" y="289.952" style="stroke: #000000; stroke-width: 0.8"/>
      </g>
     </g>
     <g id="text_9">
      <!-- −0.5 -->
      <g transform="translate(23.81 294.511062) scale(0.12 -0.12)">
       <defs>
        <path id="DejaVuSans-2e" d="M 684 794 
L 1344 794 
L 1344 0 
L 684 0 
L 684 794 
z
" transform="scale(0.015625)"/>
       </defs>
       <use xlink:href="#DejaVuSans-2212"/>
       <use xlink:href="#DejaVuSans-30" x="83.789062"/>
       <use xlink:href="#DejaVuSans-2e" x="147.412109"/>
       <use xlink:href="#DejaVuSans-35" x="179.199219"/>
      </g>
     </g>
    </g>
    <g id="ytick_2">
     <g id="line2d_17">
      <path d="M 59.949375 253.990919 
L 450.549375 253.990919 
" clip-path="url(#p68aeca3aaa)" style="fill: none; stroke: #b0b0b0; stroke-opacity: 0.3; stroke-width: 0.8; stroke-linecap: square"/>
     </g>
     <g id="line2d_18">
      <g>
       <use xlink:href="#ma004cd6f2a" x="59.949375" y="253.990919" style="stroke: #000000; stroke-width: 0.8"/>
      </g>
     </g>
     <g id="text_10">
      <!-- 0.0 -->
      <g transform="translate(33.865625 258.549981) scale(0.12 -0.12)">
       <use xlink:href="#DejaVuSans-30"/>
       <use xlink:href="#DejaVuSans-2e" x="63.623047"/>
       <use xlink:href="#DejaVuSans-30" x="95.410156"/>
      </g>
     </g>
    </g>
    <g id="ytick_3">
     <g id="line2d_19">
      <path d="M 59.949375 218.029838 
L 450.549375 218.029838 
" clip-path="url(#p68aeca3aaa)" style="fill: none; stroke: #b0b0b0; stroke-opacity: 0.3; stroke-width: 0.8; stroke-linecap: square"/>
     </g>
     <g id="line2d_20">
      <g>
       <use xlink:href="#ma004cd6f2a" x="59.949375" y="218.029838" style="stroke: #000000; stroke-width: 0.8"/>
      </g>
     </g>
     <g id="text_11">
      <!-- 0.5 -->
      <g transform="translate(33.865625 222.5889) scale(0.12 -0.12)">
       <use xlink:href="#DejaVuSans-30"/>
       <use xlink:href="#DejaVuSans-2e" x="63.623047"/>
       <use xlink:href="#DejaVuSans-35" x="95.410156"/>
      </g>
     </g>
    </g>
    <g id="ytick_4">
     <g id="line2d_21">
      <path d="M 59.949375 182.068757 
L 450.549375 182.068757 
" clip-path="url(#p68aeca3aaa)" style="fill: none; stroke: #b0b0b0; stroke-opacity: 0.3; stroke-width: 0.8; stroke-linecap: square"/>
     </g>
     <g id="line2d_22">
      <g>
       <use xlink:href="#ma004cd6f2a" x="59.949375" y="182.068757" style="stroke: #000000; stroke-width: 0.8"/>
      </g>
     </g>
     <g id="text_12">
      <!-- 1.0 -->
      <g transform="translate(33.865625 186.627819) scale(0.12 -0.12)">
       <use xlink:href="#DejaVuSans-31"/>
       <use xlink:href="#DejaVuSans-2e" x="63.623047"/>
       <use xlink:href="#DejaVuSans-30" x="95.410156"/>
      </g>
     </g>
    </g>
    <g id="ytick_5">
     <g id="line2d_23">
      <path d="M 59.949375 146.107676 
L 450.549375 146.107676 
" clip-path="url(#p68aeca3aaa)" style="fill: none; stroke: #b0b0b0; stroke-opacity: 0.3; stroke-width: 0.8; stroke-linecap: square"/>
     </g>
     <g id="line2d_24">
      <g>
       <use xlink:href="#ma004cd6f2a" x="59.949375" y="146.107676" style="stroke: #000000; stroke-width: 0.8"/>
      </g>
     </g>
     <g id="text_13">
      <!-- 1.5 -->
      <g transform="translate(33.865625 150.666738) scale(0.12 -0.12)">
       <use xlink:href="#DejaVuSans-31"/>
       <use xlink:href="#DejaVuSans-2e" x="63.623047"/>
       <use xlink:href="#DejaVuSans-35" x="95.410156"/>
      </g>
     </g>
    </g>
    <g id="ytick_6">
     <g id="line2d_25">
      <path d="M 59.949375 110.146595 
L 450.549375 110.146595 
" clip-path="url(#p68aeca3aaa)" style="fill: none; stroke: #b0b0b0; stroke-opacity: 0.3; stroke-width: 0.8; stroke-linecap: square"/>
     </g>
     <g id="line2d_26">
      <g>
       <use xlink:href="#ma004cd6f2a" x="59.949375" y="110.146595" style="stroke: #000000; stroke-width: 0.8"/>
      </g>
     </g>
     <g id="text_14">
      <!-- 2.0 -->
      <g transform="translate(33.865625 114.705657) scale(0.12 -0.12)">
       <use xlink:href="#DejaVuSans-32"/>
       <use xlink:href="#DejaVuSans-2e" x="63.623047"/>
       <use xlink:href="#DejaVuSans-30" x="95.410156"/>
      </g>
     </g>
    </g>
    <g id="ytick_7">
     <g id="line2d_27">
      <path d="M 59.949375 74.185514 
L 450.549375 74.185514 
" clip-path="url(#p68aeca3aaa)" style="fill: none; stroke: #b0b0b0; stroke-opacity: 0.3; stroke-width: 0.8; stroke-linecap: square"/>
     </g>
     <g id="line2d_28">
      <g>
       <use xlink:href="#ma004cd6f2a" x="59.949375" y="74.185514" style="stroke: #000000; stroke-width: 0.8"/>
      </g>
     </g>
     <g id="text_15">
      <!-- 2.5 -->
      <g transform="translate(33.865625 78.744576) scale(0.12 -0.12)">
       <use xlink:href="#DejaVuSans-32"/>
       <use xlink:href="#DejaVuSans-2e" x="63.623047"/>
       <use xlink:href="#DejaVuSans-35" x="95.410156"/>
      </g>
     </g>
    </g>
    <g id="ytick_8">
     <g id="line2d_29">
      <path d="M 59.949375 38.224432 
L 450.549375 38.224432 
" clip-path="url(#p68aeca3aaa)" style="fill: none; stroke: #b0b0b0; stroke-opacity: 0.3; stroke-width: 0.8; stroke-linecap: square"/>
     </g>
     <g id="line2d_30">
      <g>
       <use xlink:href="#ma004cd6f2a" x="59.949375" y="38.224432" style="stroke: #000000; stroke-width: 0.8"/>
      </g>
     </g>
     <g id="text_16">
      <!-- 3.0 -->
      <g transform="translate(33.865625 42.783495) scale(0.12 -0.12)">
       <defs>
        <path id="DejaVuSans-33" d="M 2597 2516 
Q 3050 2419 3304 2112 
Q 3559 1806 3559 1356 
Q 3559 666 3084 287 
Q 2609 -91 1734 -91 
Q 1441 -91 1130 -33 
Q 819 25 488 141 
L 488 750 
Q 750 597 1062 519 
Q 1375 441 1716 441 
Q 2309 441 2620 675 
Q 2931 909 2931 1356 
Q 2931 1769 2642 2001 
Q 2353 2234 1838 2234 
L 1294 2234 
L 1294 2753 
L 1863 2753 
Q 2328 2753 2575 2939 
Q 2822 3125 2822 3475 
Q 2822 3834 2567 4026 
Q 2313 4219 1838 4219 
Q 1578 4219 1281 4162 
Q 984 4106 628 3988 
L 628 4550 
Q 988 4650 1302 4700 
Q 1616 4750 1894 4750 
Q 2613 4750 3031 4423 
Q 3450 4097 3450 3541 
Q 3450 3153 3228 2886 
Q 3006 2619 2597 2516 
z
" transform="scale(0.015625)"/>
       </defs>
       <use xlink:href="#DejaVuSans-33"/>
       <use xlink:href="#DejaVuSans-2e" x="63.623047"/>
       <use xlink:href="#DejaVuSans-30" x="95.410156"/>
      </g>
     </g>
    </g>
    <g id="text_17">
     <!-- Coefficiente di portanza $C_L$ -->
     <g transform="translate(17.08 244.061) rotate(-90) scale(0.13 -0.13)">
      <defs>
       <path id="DejaVuSans-43" d="M 4122 4306 
L 4122 3641 
Q 3803 3938 3442 4084 
Q 3081 4231 2675 4231 
Q 1875 4231 1450 3742 
Q 1025 3253 1025 2328 
Q 1025 1406 1450 917 
Q 1875 428 2675 428 
Q 3081 428 3442 575 
Q 3803 722 4122 1019 
L 4122 359 
Q 3791 134 3420 21 
Q 3050 -91 2638 -91 
Q 1578 -91 968 557 
Q 359 1206 359 2328 
Q 359 3453 968 4101 
Q 1578 4750 2638 4750 
Q 3056 4750 3426 4639 
Q 3797 4528 4122 4306 
z
" transform="scale(0.015625)"/>
       <path id="DejaVuSans-65" d="M 3597 1894 
L 3597 1613 
L 953 1613 
Q 991 1019 1311 708 
Q 1631 397 2203 397 
Q 2534 397 2845 478 
Q 3156 559 3463 722 
L 3463 178 
Q 3153 47 2828 -22 
Q 2503 -91 2169 -91 
Q 1331 -91 842 396 
Q 353 884 353 1716 
Q 353 2575 817 3079 
Q 1281 3584 2069 3584 
Q 2775 3584 3186 3129 
Q 3597 2675 3597 1894 
z
M 3022 2063 
Q 3016 2534 2758 2815 
Q 2500 3097 2075 3097 
Q 1594 3097 1305 2825 
Q 1016 2553 972 2059 
L 3022 2063 
z
" transform="scale(0.015625)"/>
       <path id="DejaVuSans-66" d="M 2375 4863 
L 2375 4384 
L 1825 4384 
Q 1516 4384 1395 4259 
Q 1275 4134 1275 3809 
L 1275 3500 
L 2222 3500 
L 2222 3053 
L 1275 3053 
L 1275 0 
L 697 0 
L 697 3053 
L 147 3053 
L 147 3500 
L 697 3500 
L 697 3744 
Q 697 4328 969 4595 
Q 1241 4863 1831 4863 
L 2375 4863 
z
" transform="scale(0.015625)"/>
       <path id="DejaVuSans-70" d="M 1159 525 
L 1159 -1331 
L 581 -1331 
L 581 3500 
L 1159 3500 
L 1159 2969 
Q 1341 3281 1617 3432 
Q 1894 3584 2278 3584 
Q 2916 3584 3314 3078 
Q 3713 2572 3713 1747 
Q 3713 922 3314 415 
Q 2916 -91 2278 -91 
Q 1894 -91 1617 61 
Q 1341 213 1159 525 
z
M 3116 1747 
Q 3116 2381 2855 2742 
Q 2594 3103 2138 3103 
Q 1681 3103 1420 2742 
Q 1159 2381 1159 1747 
Q 1159 1113 1420 752 
Q 1681 391 2138 391 
Q 2594 391 2855 752 
Q 3116 1113 3116 1747 
z
" transform="scale(0.015625)"/>
       <path id="DejaVuSans-7a" d="M 353 3500 
L 3084 3500 
L 3084 2975 
L 922 459 
L 3084 459 
L 3084 0 
L 275 0 
L 275 525 
L 2438 3041 
L 353 3041 
L 353 3500 
z
" transform="scale(0.015625)"/>
       <path id="DejaVuSans-Oblique-43" d="M 4447 4306 
L 4319 3641 
Q 4019 3944 3683 4091 
Q 3347 4238 2956 4238 
Q 2422 4238 2017 3981 
Q 1613 3725 1319 3200 
Q 1131 2863 1032 2486 
Q 934 2109 934 1728 
Q 934 1091 1264 756 
Q 1594 422 2222 422 
Q 2656 422 3056 561 
Q 3456 700 3834 978 
L 3688 231 
Q 3316 72 2936 -9 
Q 2556 -91 2175 -91 
Q 1278 -91 773 396 
Q 269 884 269 1753 
Q 269 2309 461 2846 
Q 653 3384 1013 3828 
Q 1394 4300 1883 4525 
Q 2372 4750 3022 4750 
Q 3422 4750 3780 4639 
Q 4138 4528 4447 4306 
z
" transform="scale(0.015625)"/>
       <path id="DejaVuSans-Oblique-4c" d="M 1075 4666 
L 1709 4666 
L 909 525 
L 3181 525 
L 3078 0 
L 172 0 
L 1075 4666 
z
" transform="scale(0.015625)"/>
      </defs>
      <use xlink:href="#DejaVuSans-43" transform="translate(0 0.015625)"/>
      <use xlink:href="#DejaVuSans-6f" transform="translate(69.824219 0.015625)"/>
      <use xlink:href="#DejaVuSans-65" transform="translate(131.005859 0.015625)"/>
      <use xlink:href="#DejaVuSans-66" transform="translate(192.529297 0.015625)"/>
      <use xlink:href="#DejaVuSans-66" transform="translate(227.734375 0.015625)"/>
      <use xlink:href="#DejaVuSans-69" transform="translate(262.939453 0.015625)"/>
      <use xlink:href="#DejaVuSans-63" transform="translate(290.722656 0.015625)"/>
      <use xlink:href="#DejaVuSans-69" transform="translate(345.703125 0.015625)"/>
      <use xlink:href="#DejaVuSans-65" transform="translate(373.486328 0.015625)"/>
      <use xlink:href="#DejaVuSans-6e" transform="translate(435.009766 0.015625)"/>
      <use xlink:href="#DejaVuSans-74" transform="translate(498.388672 0.015625)"/>
      <use xlink:href="#DejaVuSans-65" transform="translate(537.597656 0.015625)"/>
      <use xlink:href="#DejaVuSans-20" transform="translate(599.121094 0.015625)"/>
      <use xlink:href="#DejaVuSans-64" transform="translate(630.908203 0.015625)"/>
      <use xlink:href="#DejaVuSans-69" transform="translate(694.384766 0.015625)"/>
      <use xlink:href="#DejaVuSans-20" transform="translate(722.167969 0.015625)"/>
      <use xlink:href="#DejaVuSans-70" transform="translate(753.955078 0.015625)"/>
      <use xlink:href="#DejaVuSans-6f" transform="translate(817.431641 0.015625)"/>
      <use xlink:href="#DejaVuSans-72" transform="translate(878.613281 0.015625)"/>
      <use xlink:href="#DejaVuSans-74" transform="translate(919.726562 0.015625)"/>
      <use xlink:href="#DejaVuSans-61" transform="translate(958.935547 0.015625)"/>
      <use xlink:href="#DejaVuSans-6e" transform="translate(1020.214844 0.015625)"/>
      <use xlink:href="#DejaVuSans-7a" transform="translate(1083.59375 0.015625)"/>
      <use xlink:href="#DejaVuSans-61" transform="translate(1136.083984 0.015625)"/>
      <use xlink:href="#DejaVuSans-20" transform="translate(1197.363281 0.015625)"/>
      <use xlink:href="#DejaVuSans-Oblique-43" transform="translate(1229.150391 0.015625)"/>
      <use xlink:href="#DejaVuSans-Oblique-4c" transform="translate(1298.974609 -16.390625) scale(0.7)"/>
     </g>
    </g>
   </g>
   <g id="line2d_31">
    <path d="M 71.43761 277.725232 
L 266.699188 143.257249 
L 275.574714 146.731143 
L 280.646444 148.403677 
L 285.718173 149.830905 
L 290.789902 151.012829 
L 295.861632 151.949448 
L 300.933361 152.640762 
L 306.00509 153.086771 
L 311.076819 153.287475 
L 312.344752 153.299322 
L 313.612684 154.339035 
L 450.549375 308.651762 
L 450.549375 308.651762 
" clip-path="url(#p68aeca3aaa)" style="fill: none; stroke: #1976d2; stroke-width: 2.8; stroke-linecap: square"/>
   </g>
   <g id="line2d_32">
    <path d="M 71.43761 230.256605 
L 243.876406 111.577831 
L 256.55573 110.895543 
L 269.235053 110.432278 
L 281.914376 110.188035 
L 289.52197 110.14662 
L 290.789902 111.358928 
L 450.549375 291.390443 
L 450.549375 291.390443 
" clip-path="url(#p68aeca3aaa)" style="fill: none; stroke: #43a047; stroke-width: 2.6; stroke-linecap: square"/>
   </g>
   <g id="line2d_33">
    <path d="M 71.43761 230.256605 
L 335.167534 48.637511 
L 336.435466 48.436654 
L 344.04306 49.72331 
L 351.650654 50.773422 
L 359.258248 51.58699 
L 366.865842 52.164014 
L 374.473436 52.504494 
L 380.813097 52.607534 
L 382.08103 53.128436 
L 450.549375 130.2848 
L 450.549375 130.2848 
" clip-path="url(#p68aeca3aaa)" style="fill: none; stroke: #d32f2f; stroke-width: 2.6; stroke-linecap: square"/>
   </g>
   <g id="line2d_34">
    <path d="M 59.949375 253.990919 
L 450.549375 253.990919 
" clip-path="url(#p68aeca3aaa)" style="fill: none; stroke: #000000; stroke-width: 0.6; stroke-linecap: square"/>
   </g>
   <g id="line2d_35">
    <path d="M 128.878787 289.952 
L 128.878787 23.84 
" clip-path="url(#p68aeca3aaa)" style="fill: none; stroke: #000000; stroke-width: 0.6; stroke-linecap: square"/>
   </g>
   <g id="patch_3">
    <path d="M 59.949375 289.952 
L 59.949375 23.84 
" style="fill: none; stroke: #000000; stroke-width: 0.8; stroke-linejoin: miter; stroke-linecap: square"/>
   </g>
   <g id="patch_4">
    <path d="M 59.949375 289.952 
L 450.549375 289.952 
" style="fill: none; stroke: #000000; stroke-width: 0.8; stroke-linejoin: miter; stroke-linecap: square"/>
   </g>
   <g id="text_18">
    <!-- Effetto di flap e slat sulla curva $C_L$–α -->
    <g transform="translate(127.989375 17.84) scale(0.14 -0.14)">
     <defs>
      <path id="DejaVuSans-45" d="M 628 4666 
L 3578 4666 
L 3578 4134 
L 1259 4134 
L 1259 2753 
L 3481 2753 
L 3481 2222 
L 1259 2222 
L 1259 531 
L 3634 531 
L 3634 0 
L 628 0 
L 628 4666 
z
" transform="scale(0.015625)"/>
      <path id="DejaVuSans-73" d="M 2834 3397 
L 2834 2853 
Q 2591 2978 2328 3040 
Q 2066 3103 1784 3103 
Q 1356 3103 1142 2972 
Q 928 2841 928 2578 
Q 928 2378 1081 2264 
Q 1234 2150 1697 2047 
L 1894 2003 
Q 2506 1872 2764 1633 
Q 3022 1394 3022 966 
Q 3022 478 2636 193 
Q 2250 -91 1575 -91 
Q 1294 -91 989 -36 
Q 684 19 347 128 
L 347 722 
Q 666 556 975 473 
Q 1284 391 1588 391 
Q 1994 391 2212 530 
Q 2431 669 2431 922 
Q 2431 1156 2273 1281 
Q 2116 1406 1581 1522 
L 1381 1569 
Q 847 1681 609 1914 
Q 372 2147 372 2553 
Q 372 3047 722 3315 
Q 1072 3584 1716 3584 
Q 2034 3584 2315 3537 
Q 2597 3491 2834 3397 
z
" transform="scale(0.015625)"/>
      <path id="DejaVuSans-75" d="M 544 1381 
L 544 3500 
L 1119 3500 
L 1119 1403 
Q 1119 906 1312 657 
Q 1506 409 1894 409 
Q 2359 409 2629 706 
Q 2900 1003 2900 1516 
L 2900 3500 
L 3475 3500 
L 3475 0 
L 2900 0 
L 2900 538 
Q 2691 219 2414 64 
Q 2138 -91 1772 -91 
Q 1169 -91 856 284 
Q 544 659 544 1381 
z
M 1991 3584 
L 1991 3584 
z
" transform="scale(0.015625)"/>
      <path id="DejaVuSans-76" d="M 191 3500 
L 800 3500 
L 1894 563 
L 2988 3500 
L 3597 3500 
L 2284 0 
L 1503 0 
L 191 3500 
z
" transform="scale(0.015625)"/>
      <path id="DejaVuSansDisplay-2013" d="M 313 1978 
L 2888 1978 
L 2888 1528 
L 313 1528 
L 313 1978 
z
" transform="scale(0.015625)"/>
     </defs>
     <use xlink:href="#DejaVuSans-45" transform="translate(0 0.015625)"/>
     <use xlink:href="#DejaVuSans-66" transform="translate(63.183594 0.015625)"/>
     <use xlink:href="#DejaVuSans-66" transform="translate(98.388672 0.015625)"/>
     <use xlink:href="#DejaVuSans-65" transform="translate(133.59375 0.015625)"/>
     <use xlink:href="#DejaVuSans-74" transform="translate(195.117188 0.015625)"/>
     <use xlink:href="#DejaVuSans-74" transform="translate(234.326172 0.015625)"/>
     <use xlink:href="#DejaVuSans-6f" transform="translate(273.535156 0.015625)"/>
     <use xlink:href="#DejaVuSans-20" transform="translate(334.716797 0.015625)"/>
     <use xlink:href="#DejaVuSans-64" transform="translate(366.503906 0.015625)"/>
     <use xlink:href="#DejaVuSans-69" transform="translate(429.980469 0.015625)"/>
     <use xlink:href="#DejaVuSans-20" transform="translate(457.763672 0.015625)"/>
     <use xlink:href="#DejaVuSans-66" transform="translate(489.550781 0.015625)"/>
     <use xlink:href="#DejaVuSans-6c" transform="translate(524.755859 0.015625)"/>
     <use xlink:href="#DejaVuSans-61" transform="translate(552.539062 0.015625)"/>
     <use xlink:href="#DejaVuSans-70" transform="translate(613.818359 0.015625)"/>
     <use xlink:href="#DejaVuSans-20" transform="translate(677.294922 0.015625)"/>
     <use xlink:href="#DejaVuSans-65" transform="translate(709.082031 0.015625)"/>
     <use xlink:href="#DejaVuSans-20" transform="translate(770.605469 0.015625)"/>
     <use xlink:href="#DejaVuSans-73" transform="translate(802.392578 0.015625)"/>
     <use xlink:href="#DejaVuSans-6c" transform="translate(854.492188 0.015625)"/>
     <use xlink:href="#DejaVuSans-61" transform="translate(882.275391 0.015625)"/>
     <use xlink:href="#DejaVuSans-74" transform="translate(943.554688 0.015625)"/>
     <use xlink:href="#DejaVuSans-20" transform="translate(982.763672 0.015625)"/>
     <use xlink:href="#DejaVuSans-73" transform="translate(1014.550781 0.015625)"/>
     <use xlink:href="#DejaVuSans-75" transform="translate(1066.650391 0.015625)"/>
     <use xlink:href="#DejaVuSans-6c" transform="translate(1130.029297 0.015625)"/>
     <use xlink:href="#DejaVuSans-6c" transform="translate(1157.8125 0.015625)"/>
     <use xlink:href="#DejaVuSans-61" transform="translate(1185.595703 0.015625)"/>
     <use xlink:href="#DejaVuSans-20" transform="translate(1246.875 0.015625)"/>
     <use xlink:href="#DejaVuSans-63" transform="translate(1278.662109 0.015625)"/>
     <use xlink:href="#DejaVuSans-75" transform="translate(1333.642578 0.015625)"/>
     <use xlink:href="#DejaVuSans-72" transform="translate(1397.021484 0.015625)"/>
     <use xlink:href="#DejaVuSans-76" transform="translate(1438.134766 0.015625)"/>
     <use xlink:href="#DejaVuSans-61" transform="translate(1497.314453 0.015625)"/>
     <use xlink:href="#DejaVuSans-20" transform="translate(1558.59375 0.015625)"/>
     <use xlink:href="#DejaVuSans-Oblique-43" transform="translate(1590.380859 0.015625)"/>
     <use xlink:href="#DejaVuSans-Oblique-4c" transform="translate(1660.205078 -16.390625) scale(0.7)"/>
     <use xlink:href="#DejaVuSansDisplay-2013" transform="translate(1701.938477 0.015625)"/>
     <use xlink:href="#DejaVuSans-3b1" transform="translate(1751.938477 0.015625)"/>
    </g>
   </g>
   <g id="PathCollection_1">
    <defs>
     <path id="m07110a17cb" d="M 0 3.535534 
C 0.937635 3.535534 1.836992 3.163008 2.5 2.5 
C 3.163008 1.836992 3.535534 0.937635 3.535534 0 
C 3.535534 -0.937635 3.163008 -1.836992 2.5 -2.5 
C 1.836992 -3.163008 0.937635 -3.535534 0 -3.535534 
C -0.937635 -3.535534 -1.836992 -3.163008 -2.5 -2.5 
C -3.163008 -1.836992 -3.535534 -0.937635 -3.535534 0 
C -3.535534 0.937635 -3.163008 1.836992 -2.5 2.5 
C -1.836992 3.163008 -0.937635 3.535534 0 3.535534 
z
" style="stroke: #000000"/>
    </defs>
    <g clip-path="url(#p68aeca3aaa)">
     <use xlink:href="#m07110a17cb" x="312.690551" y="143.257249" style="stroke: #000000"/>
     <use xlink:href="#m07110a17cb" x="289.714081" y="110.14662" style="stroke: #000000"/>
     <use xlink:href="#m07110a17cb" x="381.619963" y="48.436654" style="stroke: #000000"/>
    </g>
   </g>
   <g id="legend_1">
    <g id="patch_5">
     <path d="M 66.949375 77.14 
L 237.049375 77.14 
Q 239.049375 77.14 239.049375 75.14 
L 239.049375 30.84 
Q 239.049375 28.84 237.049375 28.84 
L 66.949375 28.84 
Q 64.949375 28.84 64.949375 30.84 
L 64.949375 75.14 
Q 64.949375 77.14 66.949375 77.14 
z
" style="fill: #ffffff; opacity: 0.8; stroke: #cccccc; stroke-linejoin: miter"/>
    </g>
    <g id="line2d_36">
     <path d="M 68.949375 36.94 
L 78.949375 36.94 
L 88.949375 36.94 
" style="fill: none; stroke: #1976d2; stroke-width: 2.8; stroke-linecap: square"/>
    </g>
    <g id="text_19">
     <!-- Pulito ($C_{L,max}$ = 1,4) -->
     <g transform="translate(96.949375 40.44) scale(0.1 -0.1)">
      <defs>
       <path id="DejaVuSans-50" d="M 1259 4147 
L 1259 2394 
L 2053 2394 
Q 2494 2394 2734 2622 
Q 2975 2850 2975 3272 
Q 2975 3691 2734 3919 
Q 2494 4147 2053 4147 
L 1259 4147 
z
M 628 4666 
L 2053 4666 
Q 2838 4666 3239 4311 
Q 3641 3956 3641 3272 
Q 3641 2581 3239 2228 
Q 2838 1875 2053 1875 
L 1259 1875 
L 1259 0 
L 628 0 
L 628 4666 
z
" transform="scale(0.015625)"/>
       <path id="DejaVuSans-2c" d="M 750 794 
L 1409 794 
L 1409 256 
L 897 -744 
L 494 -744 
L 750 256 
L 750 794 
z
" transform="scale(0.015625)"/>
       <path id="DejaVuSans-Oblique-6d" d="M 5747 2113 
L 5338 0 
L 4763 0 
L 5166 2094 
Q 5191 2228 5203 2325 
Q 5216 2422 5216 2491 
Q 5216 2772 5059 2928 
Q 4903 3084 4622 3084 
Q 4203 3084 3875 2770 
Q 3547 2456 3450 1953 
L 3066 0 
L 2491 0 
L 2900 2094 
Q 2925 2209 2937 2307 
Q 2950 2406 2950 2484 
Q 2950 2769 2794 2926 
Q 2638 3084 2363 3084 
Q 1938 3084 1609 2770 
Q 1281 2456 1184 1953 
L 800 0 
L 225 0 
L 909 3500 
L 1484 3500 
L 1375 2956 
Q 1609 3263 1923 3423 
Q 2238 3584 2597 3584 
Q 2978 3584 3223 3384 
Q 3469 3184 3519 2828 
Q 3781 3197 4126 3390 
Q 4472 3584 4856 3584 
Q 5306 3584 5551 3325 
Q 5797 3066 5797 2591 
Q 5797 2488 5784 2364 
Q 5772 2241 5747 2113 
z
" transform="scale(0.015625)"/>
       <path id="DejaVuSans-Oblique-61" d="M 3438 1997 
L 3047 0 
L 2472 0 
L 2578 531 
Q 2325 219 2001 64 
Q 1678 -91 1281 -91 
Q 834 -91 548 182 
Q 263 456 263 884 
Q 263 1497 752 1853 
Q 1241 2209 2100 2209 
L 2900 2209 
L 2931 2363 
Q 2938 2388 2941 2417 
Q 2944 2447 2944 2509 
Q 2944 2788 2717 2942 
Q 2491 3097 2081 3097 
Q 1800 3097 1504 3025 
Q 1209 2953 897 2809 
L 997 3341 
Q 1322 3463 1633 3523 
Q 1944 3584 2234 3584 
Q 2853 3584 3176 3315 
Q 3500 3047 3500 2534 
Q 3500 2431 3484 2292 
Q 3469 2153 3438 1997 
z
M 2816 1759 
L 2241 1759 
Q 1534 1759 1195 1570 
Q 856 1381 856 984 
Q 856 709 1029 553 
Q 1203 397 1509 397 
Q 1978 397 2328 733 
Q 2678 1069 2791 1631 
L 2816 1759 
z
" transform="scale(0.015625)"/>
       <path id="DejaVuSans-Oblique-78" d="M 3841 3500 
L 2234 1784 
L 3219 0 
L 2559 0 
L 1819 1388 
L 531 0 
L -166 0 
L 1556 1844 
L 641 3500 
L 1300 3500 
L 1972 2234 
L 3144 3500 
L 3841 3500 
z
" transform="scale(0.015625)"/>
       <path id="DejaVuSans-3d" d="M 678 2906 
L 4684 2906 
L 4684 2381 
L 678 2381 
L 678 2906 
z
M 678 1631 
L 4684 1631 
L 4684 1100 
L 678 1100 
L 678 1631 
z
" transform="scale(0.015625)"/>
       <path id="DejaVuSans-34" d="M 2419 4116 
L 825 1625 
L 2419 1625 
L 2419 4116 
z
M 2253 4666 
L 3047 4666 
L 3047 1625 
L 3713 1625 
L 3713 1100 
L 3047 1100 
L 3047 0 
L 2419 0 
L 2419 1100 
L 313 1100 
L 313 1709 
L 2253 4666 
z
" transform="scale(0.015625)"/>
      </defs>
      <use xlink:href="#DejaVuSans-50" transform="translate(0 0.015625)"/>
      <use xlink:href="#DejaVuSans-75" transform="translate(60.302734 0.015625)"/>
      <use xlink:href="#DejaVuSans-6c" transform="translate(123.681641 0.015625)"/>
      <use xlink:href="#DejaVuSans-69" transform="translate(151.464844 0.015625)"/>
      <use xlink:href="#DejaVuSans-74" transform="translate(179.248047 0.015625)"/>
      <use xlink:href="#DejaVuSans-6f" transform="translate(218.457031 0.015625)"/>
      <use xlink:href="#DejaVuSans-20" transform="translate(279.638672 0.015625)"/>
      <use xlink:href="#DejaVuSans-28" transform="translate(311.425781 0.015625)"/>
      <use xlink:href="#DejaVuSans-Oblique-43" transform="translate(350.439453 0.015625)"/>
      <use xlink:href="#DejaVuSans-Oblique-4c" transform="translate(420.263672 -16.390625) scale(0.7)"/>
      <use xlink:href="#DejaVuSans-2c" transform="translate(459.262695 -16.390625) scale(0.7)"/>
      <use xlink:href="#DejaVuSans-Oblique-6d" transform="translate(495.151367 -16.390625) scale(0.7)"/>
      <use xlink:href="#DejaVuSans-Oblique-61" transform="translate(563.339844 -16.390625) scale(0.7)"/>
      <use xlink:href="#DejaVuSans-Oblique-78" transform="translate(606.235352 -16.390625) scale(0.7)"/>
      <use xlink:href="#DejaVuSans-20" transform="translate(650.395508 0.015625)"/>
      <use xlink:href="#DejaVuSans-3d" transform="translate(682.182617 0.015625)"/>
      <use xlink:href="#DejaVuSans-20" transform="translate(765.97168 0.015625)"/>
      <use xlink:href="#DejaVuSans-31" transform="translate(797.758789 0.015625)"/>
      <use xlink:href="#DejaVuSans-2c" transform="translate(861.381836 0.015625)"/>
      <use xlink:href="#DejaVuSans-34" transform="translate(893.168945 0.015625)"/>
      <use xlink:href="#DejaVuSans-29" transform="translate(956.791992 0.015625)"/>
     </g>
    </g>
    <g id="line2d_37">
     <path d="M 68.949375 52.04 
L 78.949375 52.04 
L 88.949375 52.04 
" style="fill: none; stroke: #43a047; stroke-width: 2.6; stroke-linecap: square"/>
    </g>
    <g id="text_20">
     <!-- + Flap ($C_{L,max}$ = 2,0) -->
     <g transform="translate(96.949375 55.54) scale(0.1 -0.1)">
      <defs>
       <path id="DejaVuSans-2b" d="M 2944 4013 
L 2944 2272 
L 4684 2272 
L 4684 1741 
L 2944 1741 
L 2944 0 
L 2419 0 
L 2419 1741 
L 678 1741 
L 678 2272 
L 2419 2272 
L 2419 4013 
L 2944 4013 
z
" transform="scale(0.015625)"/>
       <path id="DejaVuSans-46" d="M 628 4666 
L 3309 4666 
L 3309 4134 
L 1259 4134 
L 1259 2759 
L 3109 2759 
L 3109 2228 
L 1259 2228 
L 1259 0 
L 628 0 
L 628 4666 
z
" transform="scale(0.015625)"/>
      </defs>
      <use xlink:href="#DejaVuSans-2b" transform="translate(0 0.015625)"/>
      <use xlink:href="#DejaVuSans-20" transform="translate(83.789062 0.015625)"/>
      <use xlink:href="#DejaVuSans-46" transform="translate(115.576172 0.015625)"/>
      <use xlink:href="#DejaVuSans-6c" transform="translate(173.095703 0.015625)"/>
      <use xlink:href="#DejaVuSans-61" transform="translate(200.878906 0.015625)"/>
      <use xlink:href="#DejaVuSans-70" transform="translate(262.158203 0.015625)"/>
      <use xlink:href="#DejaVuSans-20" transform="translate(325.634766 0.015625)"/>
      <use xlink:href="#DejaVuSans-28" transform="translate(357.421875 0.015625)"/>
      <use xlink:href="#DejaVuSans-Oblique-43" transform="translate(396.435547 0.015625)"/>
      <use xlink:href="#DejaVuSans-Oblique-4c" transform="translate(466.259766 -16.390625) scale(0.7)"/>
      <use xlink:href="#DejaVuSans-2c" transform="translate(505.258789 -16.390625) scale(0.7)"/>
      <use xlink:href="#DejaVuSans-Oblique-6d" transform="translate(541.147461 -16.390625) scale(0.7)"/>
      <use xlink:href="#DejaVuSans-Oblique-61" transform="translate(609.335938 -16.390625) scale(0.7)"/>
      <use xlink:href="#DejaVuSans-Oblique-78" transform="translate(652.231445 -16.390625) scale(0.7)"/>
      <use xlink:href="#DejaVuSans-20" transform="translate(696.391602 0.015625)"/>
      <use xlink:href="#DejaVuSans-3d" transform="translate(728.178711 0.015625)"/>
      <use xlink:href="#DejaVuSans-20" transform="translate(811.967773 0.015625)"/>
      <use xlink:href="#DejaVuSans-32" transform="translate(843.754883 0.015625)"/>
      <use xlink:href="#DejaVuSans-2c" transform="translate(907.37793 0.015625)"/>
      <use xlink:href="#DejaVuSans-30" transform="translate(939.165039 0.015625)"/>
      <use xlink:href="#DejaVuSans-29" transform="translate(1002.788086 0.015625)"/>
     </g>
    </g>
    <g id="line2d_38">
     <path d="M 68.949375 67.14 
L 78.949375 67.14 
L 88.949375 67.14 
" style="fill: none; stroke: #d32f2f; stroke-width: 2.6; stroke-linecap: square"/>
    </g>
    <g id="text_21">
     <!-- + Flap + Slat ($C_{L,max}$ = 2,8) -->
     <g transform="translate(96.949375 70.64) scale(0.1 -0.1)">
      <defs>
       <path id="DejaVuSans-53" d="M 3425 4513 
L 3425 3897 
Q 3066 4069 2747 4153 
Q 2428 4238 2131 4238 
Q 1616 4238 1336 4038 
Q 1056 3838 1056 3469 
Q 1056 3159 1242 3001 
Q 1428 2844 1947 2747 
L 2328 2669 
Q 3034 2534 3370 2195 
Q 3706 1856 3706 1288 
Q 3706 609 3251 259 
Q 2797 -91 1919 -91 
Q 1588 -91 1214 -16 
Q 841 59 441 206 
L 441 856 
Q 825 641 1194 531 
Q 1563 422 1919 422 
Q 2459 422 2753 634 
Q 3047 847 3047 1241 
Q 3047 1584 2836 1778 
Q 2625 1972 2144 2069 
L 1759 2144 
Q 1053 2284 737 2584 
Q 422 2884 422 3419 
Q 422 4038 858 4394 
Q 1294 4750 2059 4750 
Q 2388 4750 2728 4690 
Q 3069 4631 3425 4513 
z
" transform="scale(0.015625)"/>
       <path id="DejaVuSans-38" d="M 2034 2216 
Q 1584 2216 1326 1975 
Q 1069 1734 1069 1313 
Q 1069 891 1326 650 
Q 1584 409 2034 409 
Q 2484 409 2743 651 
Q 3003 894 3003 1313 
Q 3003 1734 2745 1975 
Q 2488 2216 2034 2216 
z
M 1403 2484 
Q 997 2584 770 2862 
Q 544 3141 544 3541 
Q 544 4100 942 4425 
Q 1341 4750 2034 4750 
Q 2731 4750 3128 4425 
Q 3525 4100 3525 3541 
Q 3525 3141 3298 2862 
Q 3072 2584 2669 2484 
Q 3125 2378 3379 2068 
Q 3634 1759 3634 1313 
Q 3634 634 3220 271 
Q 2806 -91 2034 -91 
Q 1263 -91 848 271 
Q 434 634 434 1313 
Q 434 1759 690 2068 
Q 947 2378 1403 2484 
z
M 1172 3481 
Q 1172 3119 1398 2916 
Q 1625 2713 2034 2713 
Q 2441 2713 2670 2916 
Q 2900 3119 2900 3481 
Q 2900 3844 2670 4047 
Q 2441 4250 2034 4250 
Q 1625 4250 1398 4047 
Q 1172 3844 1172 3481 
z
" transform="scale(0.015625)"/>
      </defs>
      <use xlink:href="#DejaVuSans-2b" transform="translate(0 0.015625)"/>
      <use xlink:href="#DejaVuSans-20" transform="translate(83.789062 0.015625)"/>
      <use xlink:href="#DejaVuSans-46" transform="translate(115.576172 0.015625)"/>
      <use xlink:href="#DejaVuSans-6c" transform="translate(173.095703 0.015625)"/>
      <use xlink:href="#DejaVuSans-61" transform="translate(200.878906 0.015625)"/>
      <use xlink:href="#DejaVuSans-70" transform="translate(262.158203 0.015625)"/>
      <use xlink:href="#DejaVuSans-20" transform="translate(325.634766 0.015625)"/>
      <use xlink:href="#DejaVuSans-2b" transform="translate(357.421875 0.015625)"/>
      <use xlink:href="#DejaVuSans-20" transform="translate(441.210938 0.015625)"/>
      <use xlink:href="#DejaVuSans-53" transform="translate(472.998047 0.015625)"/>
      <use xlink:href="#DejaVuSans-6c" transform="translate(536.474609 0.015625)"/>
      <use xlink:href="#DejaVuSans-61" transform="translate(564.257812 0.015625)"/>
      <use xlink:href="#DejaVuSans-74" transform="translate(625.537109 0.015625)"/>
      <use xlink:href="#DejaVuSans-20" transform="translate(664.746094 0.015625)"/>
      <use xlink:href="#DejaVuSans-28" transform="translate(696.533203 0.015625)"/>
      <use xlink:href="#DejaVuSans-Oblique-43" transform="translate(735.546875 0.015625)"/>
      <use xlink:href="#DejaVuSans-Oblique-4c" transform="translate(805.371094 -16.390625) scale(0.7)"/>
      <use xlink:href="#DejaVuSans-2c" transform="translate(844.370117 -16.390625) scale(0.7)"/>
      <use xlink:href="#DejaVuSans-Oblique-6d" transform="translate(880.258789 -16.390625) scale(0.7)"/>
      <use xlink:href="#DejaVuSans-Oblique-61" transform="translate(948.447266 -16.390625) scale(0.7)"/>
      <use xlink:href="#DejaVuSans-Oblique-78" transform="translate(991.342773 -16.390625) scale(0.7)"/>
      <use xlink:href="#DejaVuSans-20" transform="translate(1035.50293 0.015625)"/>
      <use xlink:href="#DejaVuSans-3d" transform="translate(1067.290039 0.015625)"/>
      <use xlink:href="#DejaVuSans-20" transform="translate(1151.079102 0.015625)"/>
      <use xlink:href="#DejaVuSans-32" transform="translate(1182.866211 0.015625)"/>
      <use xlink:href="#DejaVuSans-2c" transform="translate(1246.489258 0.015625)"/>
      <use xlink:href="#DejaVuSans-38" transform="translate(1278.276367 0.015625)"/>
      <use xlink:href="#DejaVuSans-29" transform="translate(1341.899414 0.015625)"/>
     </g>
    </g>
   </g>
  </g>
 </g>
 <defs>
  <clipPath id="p68aeca3aaa">
   <rect x="59.949375" y="23.84" width="390.6" height="266.112"/>
  </clipPath>
 </defs>
</svg>
