<?xml version="1.0" encoding="utf-8" standalone="no"?>
<!DOCTYPE svg PUBLIC "-//W3C//DTD SVG 1.1//EN"
  "http://www.w3.org/Graphics/SVG/1.1/DTD/svg11.dtd">
<svg xmlns:xlink="http://www.w3.org/1999/xlink" width="811.44pt" height="496.5525pt" viewBox="0 0 811.44 496.5525" xmlns="http://www.w3.org/2000/svg" version="1.1">
 <metadata>
  <rdf:RDF xmlns:dc="http://purl.org/dc/elements/1.1/" xmlns:cc="http://creativecommons.org/ns#" xmlns:rdf="http://www.w3.org/1999/02/22-rdf-syntax-ns#">
   <cc:Work>
    <dc:type rdf:resource="http://purl.org/dc/dcmitype/StillImage"/>
    <dc:date>2026-04-27T15:16:01.385988</dc:date>
    <dc:format>image/svg+xml</dc:format>
    <dc:creator>
     <cc:Agent>
      <dc:title>Matplotlib v3.9.4, https://matplotlib.org/</dc:title>
     </cc:Agent>
    </dc:creator>
   </cc:Work>
  </rdf:RDF>
 </metadata>
 <defs>
  <style type="text/css">*{stroke-linejoin: round; stroke-linecap: butt}</style>
 </defs>
 <g id="figure_1">
  <g id="patch_1">
   <path d="M 0 496.5525 
L 811.44 496.5525 
L 811.44 0 
L 0 0 
z
" style="fill: #ffffff"/>
  </g>
  <g id="axes_1">
   <g id="PolyCollection_1">
    <defs>
     <path id="me4d9c5aab3" d="M 36.145385 -332.219507 
L 36.145385 -332.305878 
L 38.202308 -335.965778 
L 40.259231 -337.533011 
L 42.316154 -338.741693 
L 44.373077 -339.760725 
L 46.43 -340.655579 
L 48.486923 -341.459874 
L 50.543846 -342.193616 
L 52.600769 -342.869866 
L 54.657692 -343.497721 
L 56.714615 -344.083826 
L 58.771538 -344.633215 
L 60.828462 -345.149817 
L 62.885385 -345.636772 
L 64.942308 -346.096639 
L 66.999231 -346.531538 
L 69.056154 -346.943255 
L 71.113077 -347.33331 
L 73.17 -347.703013 
L 75.226923 -348.053502 
L 77.283846 -348.385777 
L 79.340769 -348.700721 
L 81.397692 -348.999122 
L 83.454615 -349.281685 
L 85.511538 -349.549046 
L 87.568462 -349.801782 
L 89.625385 -350.040418 
L 91.682308 -350.265435 
L 93.739231 -350.477273 
L 95.796154 -350.676341 
L 97.853077 -350.863015 
L 99.91 -351.037645 
L 101.966923 -351.200557 
L 104.023846 -351.352057 
L 106.080769 -351.492428 
L 108.137692 -351.62194 
L 110.194615 -351.740843 
L 112.251538 -351.849377 
L 114.308462 -351.947766 
L 116.365385 -352.036221 
L 118.422308 -352.114946 
L 120.479231 -352.184132 
L 122.536154 -352.243962 
L 124.593077 -352.294608 
L 126.65 -352.336237 
L 128.706923 -352.369008 
L 130.763846 -352.393071 
L 132.820769 -352.408572 
L 134.877692 -352.415649 
L 136.934615 -352.414436 
L 138.991538 -352.405061 
L 141.048462 -352.387646 
L 143.105385 -352.36231 
L 145.162308 -352.329167 
L 147.219231 -352.288326 
L 149.276154 -352.239892 
L 151.333077 -352.183966 
L 153.39 -352.120833 
L 155.446923 -352.052092 
L 157.503846 -351.978163 
L 159.560769 -351.899134 
L 161.617692 -351.81509 
L 163.674615 -351.726113 
L 165.731538 -351.632283 
L 167.788462 -351.533675 
L 169.845385 -351.430364 
L 171.902308 -351.322421 
L 173.959231 -351.209915 
L 176.016154 -351.092912 
L 178.073077 -350.971477 
L 180.13 -350.845672 
L 182.186923 -350.715557 
L 184.243846 -350.58119 
L 186.300769 -350.442627 
L 188.357692 -350.299921 
L 190.414615 -350.153125 
L 192.471538 -350.002288 
L 194.528462 -349.84746 
L 196.585385 -349.688686 
L 198.642308 -349.526012 
L 200.699231 -349.359481 
L 202.756154 -349.189134 
L 204.813077 -349.015011 
L 206.87 -348.83715 
L 208.926923 -348.655588 
L 210.983846 -348.47036 
L 213.040769 -348.2815 
L 215.097692 -348.089039 
L 217.154615 -347.893009 
L 219.211538 -347.693439 
L 221.268462 -347.490356 
L 223.325385 -347.283788 
L 225.382308 -347.073758 
L 227.439231 -346.860291 
L 229.496154 -346.643409 
L 231.553077 -346.423133 
L 233.61 -346.199482 
L 235.666923 -345.972476 
L 237.723846 -345.742131 
L 239.780769 -345.508463 
L 239.780769 -327.744152 
L 239.780769 -327.744152 
L 237.723846 -327.645997 
L 235.666923 -327.547932 
L 233.61 -327.449974 
L 231.553077 -327.35214 
L 229.496154 -327.254448 
L 227.439231 -327.156918 
L 225.382308 -327.059571 
L 223.325385 -326.96243 
L 221.268462 -326.865518 
L 219.211538 -326.768859 
L 217.154615 -326.672482 
L 215.097692 -326.576412 
L 213.040769 -326.48068 
L 210.983846 -326.385316 
L 208.926923 -326.290353 
L 206.87 -326.195824 
L 204.813077 -326.101763 
L 202.756154 -326.008209 
L 200.699231 -325.915198 
L 198.642308 -325.822772 
L 196.585385 -325.73097 
L 194.528462 -325.639837 
L 192.471538 -325.549418 
L 190.414615 -325.459758 
L 188.357692 -325.370907 
L 186.300769 -325.282914 
L 184.243846 -325.195831 
L 182.186923 -325.109712 
L 180.13 -325.024614 
L 178.073077 -324.940594 
L 176.016154 -324.857712 
L 173.959231 -324.77603 
L 171.902308 -324.695613 
L 169.845385 -324.616527 
L 167.788462 -324.538841 
L 165.731538 -324.462626 
L 163.674615 -324.387957 
L 161.617692 -324.314909 
L 159.560769 -324.243562 
L 157.503846 -324.173999 
L 155.446923 -324.106302 
L 153.39 -324.040562 
L 151.333077 -323.976539 
L 149.276154 -323.912822 
L 147.219231 -323.849325 
L 145.162308 -323.786148 
L 143.105385 -323.723397 
L 141.048462 -323.661182 
L 138.991538 -323.599617 
L 136.934615 -323.538819 
L 134.877692 -323.478911 
L 132.820769 -323.420021 
L 130.763846 -323.362283 
L 128.706923 -323.305835 
L 126.65 -323.250823 
L 124.593077 -323.197397 
L 122.536154 -323.145717 
L 120.479231 -323.095947 
L 118.422308 -323.048263 
L 116.365385 -323.002845 
L 114.308462 -322.959886 
L 112.251538 -322.919588 
L 110.194615 -322.882164 
L 108.137692 -322.847837 
L 106.080769 -322.816846 
L 104.023846 -322.789443 
L 101.966923 -322.765896 
L 99.91 -322.746491 
L 97.853077 -322.731531 
L 95.796154 -322.721342 
L 93.739231 -322.716276 
L 91.682308 -322.716709 
L 89.625385 -322.723047 
L 87.568462 -322.735733 
L 85.511538 -322.755247 
L 83.454615 -322.782115 
L 81.397692 -322.816912 
L 79.340769 -322.860275 
L 77.283846 -322.91291 
L 75.226923 -322.975603 
L 73.17 -323.049239 
L 71.113077 -323.134816 
L 69.056154 -323.233474 
L 66.999231 -323.346521 
L 64.942308 -323.47548 
L 62.885385 -323.622133 
L 60.828462 -323.788602 
L 58.771538 -323.977447 
L 56.714615 -324.191808 
L 54.657692 -324.435611 
L 52.600769 -324.713893 
L 50.543846 -325.033298 
L 48.486923 -325.402923 
L 46.43 -325.83583 
L 44.373077 -326.352023 
L 42.316154 -326.985121 
L 40.259231 -327.800599 
L 38.202308 -328.967356 
L 36.145385 -332.219507 
z
" style="stroke: #1976d2; stroke-width: 1.5"/>
    </defs>
    <g clip-path="url(#p8c110cfb86)">
     <use xlink:href="#me4d9c5aab3" x="0" y="496.5525" style="fill: #bbdefb; stroke: #1976d2; stroke-width: 1.5"/>
    </g>
   </g>
   <g id="patch_2">
    <path d="M 239.780769 151.044037 
L 308.582286 191.926038 
L 296.945978 200.653269 
L 239.780769 168.808348 
z
" clip-path="url(#p8c110cfb86)" style="fill: #fb8c00; stroke: #e65100; stroke-width: 1.5; stroke-linejoin: miter"/>
   </g>
   <g id="text_1">
    <g id="patch_3">
     <path d="M 155.525625 256.133834 
L 265.854375 256.133834 
Q 268.554375 256.133834 268.554375 253.433834 
L 268.554375 233.887522 
Q 268.554375 231.187522 265.854375 231.187522 
L 155.525625 231.187522 
Q 152.825625 231.187522 152.825625 233.887522 
L 152.825625 253.433834 
Q 152.825625 256.133834 155.525625 256.133834 
z
" style="fill: #ffffff; opacity: 0.92; stroke: #808080; stroke-linejoin: miter"/>
    </g>
    <!-- +0,3 in $C_{L,max}$ -->
    <g style="fill: #444444" transform="translate(179.28 241.105803) scale(0.09 -0.09)">
     <defs>
      <path id="DejaVuSans-Oblique-2b" d="M 2944 4013 
L 2944 2272 
L 4684 2272 
L 4684 1741 
L 2944 1741 
L 2944 0 
L 2419 0 
L 2419 1741 
L 678 1741 
L 678 2272 
L 2419 2272 
L 2419 4013 
L 2944 4013 
z
" transform="scale(0.015625)"/>
      <path id="DejaVuSans-Oblique-30" d="M 2444 4750 
Q 3078 4750 3414 4328 
Q 3750 3906 3750 3116 
Q 3750 2516 3592 1923 
Q 3434 1331 3150 863 
Q 2859 394 2467 151 
Q 2075 -91 1600 -91 
Q 988 -91 653 334 
Q 319 759 319 1544 
Q 319 2138 480 2733 
Q 641 3328 928 3794 
Q 1216 4263 1602 4506 
Q 1988 4750 2444 4750 
z
M 2406 4250 
Q 2169 4250 1955 4123 
Q 1741 3997 1569 3750 
Q 1281 3338 1111 2720 
Q 941 2103 941 1453 
Q 941 938 1123 673 
Q 1306 409 1663 409 
Q 1913 409 2125 536 
Q 2338 663 2509 909 
Q 2794 1319 2961 1936 
Q 3128 2553 3128 3206 
Q 3128 3722 2945 3986 
Q 2763 4250 2406 4250 
z
" transform="scale(0.015625)"/>
      <path id="DejaVuSans-Oblique-2c" d="M 575 794 
L 1234 794 
L 1131 256 
L 422 -744 
L 19 -744 
L 469 256 
L 575 794 
z
" transform="scale(0.015625)"/>
      <path id="DejaVuSans-Oblique-33" d="M 1013 4550 
Q 1356 4650 1679 4700 
Q 2003 4750 2316 4750 
Q 2934 4750 3296 4475 
Q 3659 4200 3659 3738 
Q 3659 3284 3373 2959 
Q 3088 2634 2584 2516 
Q 2978 2403 3162 2165 
Q 3347 1928 3347 1538 
Q 3347 1163 3167 834 
Q 2988 506 2650 269 
Q 2394 88 2037 -1 
Q 1681 -91 1216 -91 
Q 922 -91 622 -33 
Q 322 25 13 141 
L 128 738 
Q 422 575 720 495 
Q 1019 416 1331 416 
Q 1947 416 2330 733 
Q 2713 1050 2713 1556 
Q 2713 1881 2469 2057 
Q 2225 2234 1772 2234 
L 1228 2234 
L 1325 2747 
L 1900 2747 
Q 2419 2747 2717 2984 
Q 3016 3222 3016 3628 
Q 3016 3922 2797 4083 
Q 2578 4244 2181 4244 
Q 1881 4244 1567 4180 
Q 1253 4116 916 3988 
L 1013 4550 
z
" transform="scale(0.015625)"/>
      <path id="DejaVuSans-Oblique-20" transform="scale(0.015625)"/>
      <path id="DejaVuSans-Oblique-69" d="M 1172 4863 
L 1747 4863 
L 1606 4134 
L 1031 4134 
L 1172 4863 
z
M 909 3500 
L 1484 3500 
L 800 0 
L 225 0 
L 909 3500 
z
" transform="scale(0.015625)"/>
      <path id="DejaVuSans-Oblique-6e" d="M 3566 2113 
L 3156 0 
L 2578 0 
L 2988 2091 
Q 3016 2238 3031 2350 
Q 3047 2463 3047 2528 
Q 3047 2791 2881 2937 
Q 2716 3084 2419 3084 
Q 1956 3084 1622 2776 
Q 1288 2469 1184 1941 
L 800 0 
L 225 0 
L 903 3500 
L 1478 3500 
L 1363 2950 
Q 1603 3253 1940 3418 
Q 2278 3584 2650 3584 
Q 3113 3584 3367 3334 
Q 3622 3084 3622 2631 
Q 3622 2519 3608 2391 
Q 3594 2263 3566 2113 
z
" transform="scale(0.015625)"/>
      <path id="DejaVuSans-Oblique-43" d="M 4447 4306 
L 4319 3641 
Q 4019 3944 3683 4091 
Q 3347 4238 2956 4238 
Q 2422 4238 2017 3981 
Q 1613 3725 1319 3200 
Q 1131 2863 1032 2486 
Q 934 2109 934 1728 
Q 934 1091 1264 756 
Q 1594 422 2222 422 
Q 2656 422 3056 561 
Q 3456 700 3834 978 
L 3688 231 
Q 3316 72 2936 -9 
Q 2556 -91 2175 -91 
Q 1278 -91 773 396 
Q 269 884 269 1753 
Q 269 2309 461 2846 
Q 653 3384 1013 3828 
Q 1394 4300 1883 4525 
Q 2372 4750 3022 4750 
Q 3422 4750 3780 4639 
Q 4138 4528 4447 4306 
z
" transform="scale(0.015625)"/>
      <path id="DejaVuSans-Oblique-4c" d="M 1075 4666 
L 1709 4666 
L 909 525 
L 3181 525 
L 3078 0 
L 172 0 
L 1075 4666 
z
" transform="scale(0.015625)"/>
      <path id="DejaVuSans-2c" d="M 750 794 
L 1409 794 
L 1409 256 
L 897 -744 
L 494 -744 
L 750 256 
L 750 794 
z
" transform="scale(0.015625)"/>
      <path id="DejaVuSans-Oblique-6d" d="M 5747 2113 
L 5338 0 
L 4763 0 
L 5166 2094 
Q 5191 2228 5203 2325 
Q 5216 2422 5216 2491 
Q 5216 2772 5059 2928 
Q 4903 3084 4622 3084 
Q 4203 3084 3875 2770 
Q 3547 2456 3450 1953 
L 3066 0 
L 2491 0 
L 2900 2094 
Q 2925 2209 2937 2307 
Q 2950 2406 2950 2484 
Q 2950 2769 2794 2926 
Q 2638 3084 2363 3084 
Q 1938 3084 1609 2770 
Q 1281 2456 1184 1953 
L 800 0 
L 225 0 
L 909 3500 
L 1484 3500 
L 1375 2956 
Q 1609 3263 1923 3423 
Q 2238 3584 2597 3584 
Q 2978 3584 3223 3384 
Q 3469 3184 3519 2828 
Q 3781 3197 4126 3390 
Q 4472 3584 4856 3584 
Q 5306 3584 5551 3325 
Q 5797 3066 5797 2591 
Q 5797 2488 5784 2364 
Q 5772 2241 5747 2113 
z
" transform="scale(0.015625)"/>
      <path id="DejaVuSans-Oblique-61" d="M 3438 1997 
L 3047 0 
L 2472 0 
L 2578 531 
Q 2325 219 2001 64 
Q 1678 -91 1281 -91 
Q 834 -91 548 182 
Q 263 456 263 884 
Q 263 1497 752 1853 
Q 1241 2209 2100 2209 
L 2900 2209 
L 2931 2363 
Q 2938 2388 2941 2417 
Q 2944 2447 2944 2509 
Q 2944 2788 2717 2942 
Q 2491 3097 2081 3097 
Q 1800 3097 1504 3025 
Q 1209 2953 897 2809 
L 997 3341 
Q 1322 3463 1633 3523 
Q 1944 3584 2234 3584 
Q 2853 3584 3176 3315 
Q 3500 3047 3500 2534 
Q 3500 2431 3484 2292 
Q 3469 2153 3438 1997 
z
M 2816 1759 
L 2241 1759 
Q 1534 1759 1195 1570 
Q 856 1381 856 984 
Q 856 709 1029 553 
Q 1203 397 1509 397 
Q 1978 397 2328 733 
Q 2678 1069 2791 1631 
L 2816 1759 
z
" transform="scale(0.015625)"/>
      <path id="DejaVuSans-Oblique-78" d="M 3841 3500 
L 2234 1784 
L 3219 0 
L 2559 0 
L 1819 1388 
L 531 0 
L -166 0 
L 1556 1844 
L 641 3500 
L 1300 3500 
L 1972 2234 
L 3144 3500 
L 3841 3500 
z
" transform="scale(0.015625)"/>
     </defs>
     <use xlink:href="#DejaVuSans-Oblique-2b" transform="translate(0 0.015625)"/>
     <use xlink:href="#DejaVuSans-Oblique-30" transform="translate(83.789062 0.015625)"/>
     <use xlink:href="#DejaVuSans-Oblique-2c" transform="translate(147.412109 0.015625)"/>
     <use xlink:href="#DejaVuSans-Oblique-33" transform="translate(179.199219 0.015625)"/>
     <use xlink:href="#DejaVuSans-Oblique-20" transform="translate(242.822266 0.015625)"/>
     <use xlink:href="#DejaVuSans-Oblique-69" transform="translate(274.609375 0.015625)"/>
     <use xlink:href="#DejaVuSans-Oblique-6e" transform="translate(302.392578 0.015625)"/>
     <use xlink:href="#DejaVuSans-Oblique-20" transform="translate(365.771484 0.015625)"/>
     <use xlink:href="#DejaVuSans-Oblique-43" transform="translate(397.558594 0.015625)"/>
     <use xlink:href="#DejaVuSans-Oblique-4c" transform="translate(467.382812 -16.390625) scale(0.7)"/>
     <use xlink:href="#DejaVuSans-2c" transform="translate(506.381836 -16.390625) scale(0.7)"/>
     <use xlink:href="#DejaVuSans-Oblique-6d" transform="translate(542.270508 -16.390625) scale(0.7)"/>
     <use xlink:href="#DejaVuSans-Oblique-61" transform="translate(610.458984 -16.390625) scale(0.7)"/>
     <use xlink:href="#DejaVuSans-Oblique-78" transform="translate(653.354492 -16.390625) scale(0.7)"/>
    </g>
    <!-- Cessna 172, ultraleggeri -->
    <g style="fill: #444444" transform="translate(155.525625 251.562115) scale(0.09 -0.09)">
     <defs>
      <path id="DejaVuSans-Oblique-65" d="M 3078 2063 
Q 3088 2113 3092 2166 
Q 3097 2219 3097 2272 
Q 3097 2653 2873 2875 
Q 2650 3097 2266 3097 
Q 1838 3097 1509 2826 
Q 1181 2556 1013 2059 
L 3078 2063 
z
M 3578 1613 
L 903 1613 
Q 884 1494 878 1425 
Q 872 1356 872 1306 
Q 872 872 1139 634 
Q 1406 397 1894 397 
Q 2269 397 2603 481 
Q 2938 566 3225 728 
L 3116 159 
Q 2806 34 2476 -28 
Q 2147 -91 1806 -91 
Q 1078 -91 686 257 
Q 294 606 294 1247 
Q 294 1794 489 2264 
Q 684 2734 1063 3103 
Q 1306 3334 1642 3459 
Q 1978 3584 2356 3584 
Q 2950 3584 3301 3228 
Q 3653 2872 3653 2272 
Q 3653 2128 3634 1964 
Q 3616 1800 3578 1613 
z
" transform="scale(0.015625)"/>
      <path id="DejaVuSans-Oblique-73" d="M 3200 3397 
L 3091 2853 
Q 2863 2978 2609 3040 
Q 2356 3103 2088 3103 
Q 1634 3103 1373 2948 
Q 1113 2794 1113 2528 
Q 1113 2219 1719 2053 
Q 1766 2041 1788 2034 
L 1972 1978 
Q 2547 1819 2739 1644 
Q 2931 1469 2931 1166 
Q 2931 609 2489 259 
Q 2047 -91 1331 -91 
Q 1053 -91 747 -37 
Q 441 16 72 128 
L 184 722 
Q 500 559 806 475 
Q 1113 391 1394 391 
Q 1816 391 2080 572 
Q 2344 753 2344 1031 
Q 2344 1331 1650 1516 
L 1591 1531 
L 1394 1581 
Q 956 1697 753 1886 
Q 550 2075 550 2369 
Q 550 2928 970 3256 
Q 1391 3584 2113 3584 
Q 2397 3584 2667 3537 
Q 2938 3491 3200 3397 
z
" transform="scale(0.015625)"/>
      <path id="DejaVuSans-Oblique-31" d="M 416 531 
L 1447 531 
L 2144 4122 
L 978 3897 
L 1088 4441 
L 2247 4666 
L 2881 4666 
L 2075 531 
L 3103 531 
L 3003 0 
L 313 0 
L 416 531 
z
" transform="scale(0.015625)"/>
      <path id="DejaVuSans-Oblique-37" d="M 819 4666 
L 4013 4666 
L 3956 4397 
L 1288 0 
L 594 0 
L 3116 4134 
L 716 4134 
L 819 4666 
z
" transform="scale(0.015625)"/>
      <path id="DejaVuSans-Oblique-32" d="M 2950 2253 
L 934 525 
L 3163 525 
L 3053 0 
L 25 0 
L 128 531 
L 2234 2338 
Q 2656 2703 2832 2979 
Q 3009 3256 3009 3547 
Q 3009 3850 2796 4040 
Q 2584 4231 2241 4231 
Q 1944 4231 1581 4125 
Q 1219 4019 806 3816 
L 922 4441 
Q 1309 4594 1662 4672 
Q 2016 4750 2316 4750 
Q 2928 4750 3301 4425 
Q 3675 4100 3675 3572 
Q 3675 3216 3497 2892 
Q 3319 2569 2950 2253 
z
" transform="scale(0.015625)"/>
      <path id="DejaVuSans-Oblique-75" d="M 428 1388 
L 838 3500 
L 1416 3500 
L 1006 1409 
Q 975 1256 961 1147 
Q 947 1038 947 966 
Q 947 700 1109 554 
Q 1272 409 1569 409 
Q 2031 409 2368 721 
Q 2706 1034 2809 1563 
L 3194 3500 
L 3769 3500 
L 3091 0 
L 2516 0 
L 2631 550 
Q 2388 244 2052 76 
Q 1716 -91 1338 -91 
Q 878 -91 622 161 
Q 366 413 366 863 
Q 366 956 381 1097 
Q 397 1238 428 1388 
z
" transform="scale(0.015625)"/>
      <path id="DejaVuSans-Oblique-6c" d="M 1172 4863 
L 1747 4863 
L 800 0 
L 225 0 
L 1172 4863 
z
" transform="scale(0.015625)"/>
      <path id="DejaVuSans-Oblique-74" d="M 2706 3500 
L 2619 3053 
L 1472 3053 
L 1100 1153 
Q 1081 1047 1072 975 
Q 1063 903 1063 863 
Q 1063 663 1183 572 
Q 1303 481 1569 481 
L 2150 481 
L 2053 0 
L 1503 0 
Q 991 0 739 200 
Q 488 400 488 806 
Q 488 878 497 964 
Q 506 1050 525 1153 
L 897 3053 
L 409 3053 
L 500 3500 
L 978 3500 
L 1172 4494 
L 1747 4494 
L 1556 3500 
L 2706 3500 
z
" transform="scale(0.015625)"/>
      <path id="DejaVuSans-Oblique-72" d="M 2853 2969 
Q 2766 3016 2653 3041 
Q 2541 3066 2413 3066 
Q 1953 3066 1609 2717 
Q 1266 2369 1153 1784 
L 800 0 
L 225 0 
L 909 3500 
L 1484 3500 
L 1375 2956 
Q 1603 3259 1920 3421 
Q 2238 3584 2597 3584 
Q 2691 3584 2781 3573 
Q 2872 3563 2963 3538 
L 2853 2969 
z
" transform="scale(0.015625)"/>
      <path id="DejaVuSans-Oblique-67" d="M 3816 3500 
L 3219 434 
Q 3047 -456 2561 -893 
Q 2075 -1331 1253 -1331 
Q 950 -1331 690 -1286 
Q 431 -1241 206 -1147 
L 313 -588 
Q 525 -725 762 -790 
Q 1000 -856 1269 -856 
Q 1816 -856 2167 -557 
Q 2519 -259 2631 300 
L 2681 563 
Q 2441 288 2122 144 
Q 1803 0 1434 0 
Q 903 0 598 351 
Q 294 703 294 1319 
Q 294 1803 478 2267 
Q 663 2731 997 3091 
Q 1219 3328 1514 3456 
Q 1809 3584 2131 3584 
Q 2484 3584 2746 3420 
Q 3009 3256 3138 2956 
L 3238 3500 
L 3816 3500 
z
M 2950 2216 
Q 2950 2641 2750 2872 
Q 2550 3103 2181 3103 
Q 1953 3103 1747 3012 
Q 1541 2922 1394 2759 
Q 1156 2491 1023 2127 
Q 891 1763 891 1375 
Q 891 944 1092 712 
Q 1294 481 1672 481 
Q 2219 481 2584 976 
Q 2950 1472 2950 2216 
z
" transform="scale(0.015625)"/>
     </defs>
     <use xlink:href="#DejaVuSans-Oblique-43"/>
     <use xlink:href="#DejaVuSans-Oblique-65" x="69.824219"/>
     <use xlink:href="#DejaVuSans-Oblique-73" x="131.347656"/>
     <use xlink:href="#DejaVuSans-Oblique-73" x="183.447266"/>
     <use xlink:href="#DejaVuSans-Oblique-6e" x="235.546875"/>
     <use xlink:href="#DejaVuSans-Oblique-61" x="298.925781"/>
     <use xlink:href="#DejaVuSans-Oblique-20" x="360.205078"/>
     <use xlink:href="#DejaVuSans-Oblique-31" x="391.992188"/>
     <use xlink:href="#DejaVuSans-Oblique-37" x="455.615234"/>
     <use xlink:href="#DejaVuSans-Oblique-32" x="519.238281"/>
     <use xlink:href="#DejaVuSans-Oblique-2c" x="582.861328"/>
     <use xlink:href="#DejaVuSans-Oblique-20" x="614.648438"/>
     <use xlink:href="#DejaVuSans-Oblique-75" x="646.435547"/>
     <use xlink:href="#DejaVuSans-Oblique-6c" x="709.814453"/>
     <use xlink:href="#DejaVuSans-Oblique-74" x="737.597656"/>
     <use xlink:href="#DejaVuSans-Oblique-72" x="776.806641"/>
     <use xlink:href="#DejaVuSans-Oblique-61" x="817.919922"/>
     <use xlink:href="#DejaVuSans-Oblique-6c" x="879.199219"/>
     <use xlink:href="#DejaVuSans-Oblique-65" x="906.982422"/>
     <use xlink:href="#DejaVuSans-Oblique-67" x="968.505859"/>
     <use xlink:href="#DejaVuSans-Oblique-67" x="1031.982422"/>
     <use xlink:href="#DejaVuSans-Oblique-65" x="1095.458984"/>
     <use xlink:href="#DejaVuSans-Oblique-72" x="1156.982422"/>
     <use xlink:href="#DejaVuSans-Oblique-69" x="1198.095703"/>
    </g>
   </g>
   <g id="text_2">
    <!-- 1. Plain (semplice) -->
    <g style="fill: #0d47a1" transform="translate(153.054297 59.0175) scale(0.11 -0.11)">
     <defs>
      <path id="DejaVuSans-Bold-31" d="M 750 831 
L 1813 831 
L 1813 3847 
L 722 3622 
L 722 4441 
L 1806 4666 
L 2950 4666 
L 2950 831 
L 4013 831 
L 4013 0 
L 750 0 
L 750 831 
z
" transform="scale(0.015625)"/>
      <path id="DejaVuSans-Bold-2e" d="M 653 1209 
L 1778 1209 
L 1778 0 
L 653 0 
L 653 1209 
z
" transform="scale(0.015625)"/>
      <path id="DejaVuSans-Bold-20" transform="scale(0.015625)"/>
      <path id="DejaVuSans-Bold-50" d="M 588 4666 
L 2584 4666 
Q 3475 4666 3951 4270 
Q 4428 3875 4428 3144 
Q 4428 2409 3951 2014 
Q 3475 1619 2584 1619 
L 1791 1619 
L 1791 0 
L 588 0 
L 588 4666 
z
M 1791 3794 
L 1791 2491 
L 2456 2491 
Q 2806 2491 2997 2661 
Q 3188 2831 3188 3144 
Q 3188 3456 2997 3625 
Q 2806 3794 2456 3794 
L 1791 3794 
z
" transform="scale(0.015625)"/>
      <path id="DejaVuSans-Bold-6c" d="M 538 4863 
L 1656 4863 
L 1656 0 
L 538 0 
L 538 4863 
z
" transform="scale(0.015625)"/>
      <path id="DejaVuSans-Bold-61" d="M 2106 1575 
Q 1756 1575 1579 1456 
Q 1403 1338 1403 1106 
Q 1403 894 1545 773 
Q 1688 653 1941 653 
Q 2256 653 2472 879 
Q 2688 1106 2688 1447 
L 2688 1575 
L 2106 1575 
z
M 3816 1997 
L 3816 0 
L 2688 0 
L 2688 519 
Q 2463 200 2181 54 
Q 1900 -91 1497 -91 
Q 953 -91 614 226 
Q 275 544 275 1050 
Q 275 1666 698 1953 
Q 1122 2241 2028 2241 
L 2688 2241 
L 2688 2328 
Q 2688 2594 2478 2717 
Q 2269 2841 1825 2841 
Q 1466 2841 1156 2769 
Q 847 2697 581 2553 
L 581 3406 
Q 941 3494 1303 3539 
Q 1666 3584 2028 3584 
Q 2975 3584 3395 3211 
Q 3816 2838 3816 1997 
z
" transform="scale(0.015625)"/>
      <path id="DejaVuSans-Bold-69" d="M 538 3500 
L 1656 3500 
L 1656 0 
L 538 0 
L 538 3500 
z
M 538 4863 
L 1656 4863 
L 1656 3950 
L 538 3950 
L 538 4863 
z
" transform="scale(0.015625)"/>
      <path id="DejaVuSans-Bold-6e" d="M 4056 2131 
L 4056 0 
L 2931 0 
L 2931 347 
L 2931 1631 
Q 2931 2084 2911 2256 
Q 2891 2428 2841 2509 
Q 2775 2619 2662 2680 
Q 2550 2741 2406 2741 
Q 2056 2741 1856 2470 
Q 1656 2200 1656 1722 
L 1656 0 
L 538 0 
L 538 3500 
L 1656 3500 
L 1656 2988 
Q 1909 3294 2193 3439 
Q 2478 3584 2822 3584 
Q 3428 3584 3742 3212 
Q 4056 2841 4056 2131 
z
" transform="scale(0.015625)"/>
      <path id="DejaVuSans-Bold-28" d="M 2413 -844 
L 1484 -844 
Q 1006 -72 778 623 
Q 550 1319 550 2003 
Q 550 2688 779 3389 
Q 1009 4091 1484 4856 
L 2413 4856 
Q 2013 4116 1813 3408 
Q 1613 2700 1613 2009 
Q 1613 1319 1811 609 
Q 2009 -100 2413 -844 
z
" transform="scale(0.015625)"/>
      <path id="DejaVuSans-Bold-73" d="M 3272 3391 
L 3272 2541 
Q 2913 2691 2578 2766 
Q 2244 2841 1947 2841 
Q 1628 2841 1473 2761 
Q 1319 2681 1319 2516 
Q 1319 2381 1436 2309 
Q 1553 2238 1856 2203 
L 2053 2175 
Q 2913 2066 3209 1816 
Q 3506 1566 3506 1031 
Q 3506 472 3093 190 
Q 2681 -91 1863 -91 
Q 1516 -91 1145 -36 
Q 775 19 384 128 
L 384 978 
Q 719 816 1070 734 
Q 1422 653 1784 653 
Q 2113 653 2278 743 
Q 2444 834 2444 1013 
Q 2444 1163 2330 1236 
Q 2216 1309 1875 1350 
L 1678 1375 
Q 931 1469 631 1722 
Q 331 1975 331 2491 
Q 331 3047 712 3315 
Q 1094 3584 1881 3584 
Q 2191 3584 2531 3537 
Q 2872 3491 3272 3391 
z
" transform="scale(0.015625)"/>
      <path id="DejaVuSans-Bold-65" d="M 4031 1759 
L 4031 1441 
L 1416 1441 
Q 1456 1047 1700 850 
Q 1944 653 2381 653 
Q 2734 653 3104 758 
Q 3475 863 3866 1075 
L 3866 213 
Q 3469 63 3072 -14 
Q 2675 -91 2278 -91 
Q 1328 -91 801 392 
Q 275 875 275 1747 
Q 275 2603 792 3093 
Q 1309 3584 2216 3584 
Q 3041 3584 3536 3087 
Q 4031 2591 4031 1759 
z
M 2881 2131 
Q 2881 2450 2695 2645 
Q 2509 2841 2209 2841 
Q 1884 2841 1681 2658 
Q 1478 2475 1428 2131 
L 2881 2131 
z
" transform="scale(0.015625)"/>
      <path id="DejaVuSans-Bold-6d" d="M 3781 2919 
Q 3994 3244 4286 3414 
Q 4578 3584 4928 3584 
Q 5531 3584 5847 3212 
Q 6163 2841 6163 2131 
L 6163 0 
L 5038 0 
L 5038 1825 
Q 5041 1866 5042 1909 
Q 5044 1953 5044 2034 
Q 5044 2406 4934 2573 
Q 4825 2741 4581 2741 
Q 4263 2741 4089 2478 
Q 3916 2216 3909 1719 
L 3909 0 
L 2784 0 
L 2784 1825 
Q 2784 2406 2684 2573 
Q 2584 2741 2328 2741 
Q 2006 2741 1831 2477 
Q 1656 2213 1656 1722 
L 1656 0 
L 531 0 
L 531 3500 
L 1656 3500 
L 1656 2988 
Q 1863 3284 2130 3434 
Q 2397 3584 2719 3584 
Q 3081 3584 3359 3409 
Q 3638 3234 3781 2919 
z
" transform="scale(0.015625)"/>
      <path id="DejaVuSans-Bold-70" d="M 1656 506 
L 1656 -1331 
L 538 -1331 
L 538 3500 
L 1656 3500 
L 1656 2988 
Q 1888 3294 2169 3439 
Q 2450 3584 2816 3584 
Q 3463 3584 3878 3070 
Q 4294 2556 4294 1747 
Q 4294 938 3878 423 
Q 3463 -91 2816 -91 
Q 2450 -91 2169 54 
Q 1888 200 1656 506 
z
M 2400 2772 
Q 2041 2772 1848 2508 
Q 1656 2244 1656 1747 
Q 1656 1250 1848 986 
Q 2041 722 2400 722 
Q 2759 722 2948 984 
Q 3138 1247 3138 1747 
Q 3138 2247 2948 2509 
Q 2759 2772 2400 2772 
z
" transform="scale(0.015625)"/>
      <path id="DejaVuSans-Bold-63" d="M 3366 3391 
L 3366 2478 
Q 3138 2634 2908 2709 
Q 2678 2784 2431 2784 
Q 1963 2784 1702 2511 
Q 1441 2238 1441 1747 
Q 1441 1256 1702 982 
Q 1963 709 2431 709 
Q 2694 709 2930 787 
Q 3166 866 3366 1019 
L 3366 103 
Q 3103 6 2833 -42 
Q 2563 -91 2291 -91 
Q 1344 -91 809 395 
Q 275 881 275 1747 
Q 275 2613 809 3098 
Q 1344 3584 2291 3584 
Q 2566 3584 2833 3536 
Q 3100 3488 3366 3391 
z
" transform="scale(0.015625)"/>
      <path id="DejaVuSans-Bold-29" d="M 513 -844 
Q 913 -100 1113 609 
Q 1313 1319 1313 2009 
Q 1313 2700 1113 3408 
Q 913 4116 513 4856 
L 1441 4856 
Q 1916 4091 2145 3389 
Q 2375 2688 2375 2003 
Q 2375 1319 2147 623 
Q 1919 -72 1441 -844 
L 513 -844 
z
" transform="scale(0.015625)"/>
     </defs>
     <use xlink:href="#DejaVuSans-Bold-31"/>
     <use xlink:href="#DejaVuSans-Bold-2e" x="69.580078"/>
     <use xlink:href="#DejaVuSans-Bold-20" x="107.568359"/>
     <use xlink:href="#DejaVuSans-Bold-50" x="142.382812"/>
     <use xlink:href="#DejaVuSans-Bold-6c" x="215.673828"/>
     <use xlink:href="#DejaVuSans-Bold-61" x="249.951172"/>
     <use xlink:href="#DejaVuSans-Bold-69" x="317.431641"/>
     <use xlink:href="#DejaVuSans-Bold-6e" x="351.708984"/>
     <use xlink:href="#DejaVuSans-Bold-20" x="422.900391"/>
     <use xlink:href="#DejaVuSans-Bold-28" x="457.714844"/>
     <use xlink:href="#DejaVuSans-Bold-73" x="503.417969"/>
     <use xlink:href="#DejaVuSans-Bold-65" x="562.939453"/>
     <use xlink:href="#DejaVuSans-Bold-6d" x="630.761719"/>
     <use xlink:href="#DejaVuSans-Bold-70" x="734.960938"/>
     <use xlink:href="#DejaVuSans-Bold-6c" x="806.542969"/>
     <use xlink:href="#DejaVuSans-Bold-69" x="840.820312"/>
     <use xlink:href="#DejaVuSans-Bold-63" x="875.097656"/>
     <use xlink:href="#DejaVuSans-Bold-65" x="934.375"/>
     <use xlink:href="#DejaVuSans-Bold-29" x="1002.197266"/>
    </g>
   </g>
  </g>
  <g id="axes_2">
   <g id="PolyCollection_2">
    <defs>
     <path id="m4353f5a2b2" d="M 426.205385 -332.219507 
L 426.205385 -332.305878 
L 428.262308 -335.965778 
L 430.319231 -337.533011 
L 432.376154 -338.741693 
L 434.433077 -339.760725 
L 436.49 -340.655579 
L 438.546923 -341.459874 
L 440.603846 -342.193616 
L 442.660769 -342.869866 
L 444.717692 -343.497721 
L 446.774615 -344.083826 
L 448.831538 -344.633215 
L 450.888462 -345.149817 
L 452.945385 -345.636772 
L 455.002308 -346.096639 
L 457.059231 -346.531538 
L 459.116154 -346.943255 
L 461.173077 -347.33331 
L 463.23 -347.703013 
L 465.286923 -348.053502 
L 467.343846 -348.385777 
L 469.400769 -348.700721 
L 471.457692 -348.999122 
L 473.514615 -349.281685 
L 475.571538 -349.549046 
L 477.628462 -349.801782 
L 479.685385 -350.040418 
L 481.742308 -350.265435 
L 483.799231 -350.477273 
L 485.856154 -350.676341 
L 487.913077 -350.863015 
L 489.97 -351.037645 
L 492.026923 -351.200557 
L 494.083846 -351.352057 
L 496.140769 -351.492428 
L 498.197692 -351.62194 
L 500.254615 -351.740843 
L 502.311538 -351.849377 
L 504.368462 -351.947766 
L 506.425385 -352.036221 
L 508.482308 -352.114946 
L 510.539231 -352.184132 
L 512.596154 -352.243962 
L 514.653077 -352.294608 
L 516.71 -352.336237 
L 518.766923 -352.369008 
L 520.823846 -352.393071 
L 522.880769 -352.408572 
L 524.937692 -352.415649 
L 526.994615 -352.414436 
L 529.051538 -352.405061 
L 531.108462 -352.387646 
L 533.165385 -352.36231 
L 535.222308 -352.329167 
L 537.279231 -352.288326 
L 539.336154 -352.239892 
L 541.393077 -352.183966 
L 543.45 -352.120833 
L 545.506923 -352.052092 
L 547.563846 -351.978163 
L 549.620769 -351.899134 
L 551.677692 -351.81509 
L 553.734615 -351.726113 
L 555.791538 -351.632283 
L 557.848462 -351.533675 
L 559.905385 -351.430364 
L 561.962308 -351.322421 
L 564.019231 -351.209915 
L 566.076154 -351.092912 
L 568.133077 -350.971477 
L 570.19 -350.845672 
L 572.246923 -350.715557 
L 574.303846 -350.58119 
L 576.360769 -350.442627 
L 578.417692 -350.299921 
L 580.474615 -350.153125 
L 582.531538 -350.002288 
L 584.588462 -349.84746 
L 586.645385 -349.688686 
L 588.702308 -349.526012 
L 590.759231 -349.359481 
L 592.816154 -349.189134 
L 594.873077 -349.015011 
L 596.93 -348.83715 
L 598.986923 -348.655588 
L 601.043846 -348.47036 
L 603.100769 -348.2815 
L 605.157692 -348.089039 
L 607.214615 -347.893009 
L 609.271538 -347.693439 
L 611.328462 -347.490356 
L 613.385385 -347.283788 
L 615.442308 -347.073758 
L 617.499231 -346.860291 
L 619.556154 -346.643409 
L 621.613077 -346.423133 
L 623.67 -346.199482 
L 625.726923 -345.972476 
L 627.783846 -345.742131 
L 629.840769 -345.508463 
L 629.840769 -327.744152 
L 629.840769 -327.744152 
L 627.783846 -327.645997 
L 625.726923 -327.547932 
L 623.67 -327.449974 
L 621.613077 -327.35214 
L 619.556154 -327.254448 
L 617.499231 -327.156918 
L 615.442308 -327.059571 
L 613.385385 -326.96243 
L 611.328462 -326.865518 
L 609.271538 -326.768859 
L 607.214615 -326.672482 
L 605.157692 -326.576412 
L 603.100769 -326.48068 
L 601.043846 -326.385316 
L 598.986923 -326.290353 
L 596.93 -326.195824 
L 594.873077 -326.101763 
L 592.816154 -326.008209 
L 590.759231 -325.915198 
L 588.702308 -325.822772 
L 586.645385 -325.73097 
L 584.588462 -325.639837 
L 582.531538 -325.549418 
L 580.474615 -325.459758 
L 578.417692 -325.370907 
L 576.360769 -325.282914 
L 574.303846 -325.195831 
L 572.246923 -325.109712 
L 570.19 -325.024614 
L 568.133077 -324.940594 
L 566.076154 -324.857712 
L 564.019231 -324.77603 
L 561.962308 -324.695613 
L 559.905385 -324.616527 
L 557.848462 -324.538841 
L 555.791538 -324.462626 
L 553.734615 -324.387957 
L 551.677692 -324.314909 
L 549.620769 -324.243562 
L 547.563846 -324.173999 
L 545.506923 -324.106302 
L 543.45 -324.040562 
L 541.393077 -323.976539 
L 539.336154 -323.912822 
L 537.279231 -323.849325 
L 535.222308 -323.786148 
L 533.165385 -323.723397 
L 531.108462 -323.661182 
L 529.051538 -323.599617 
L 526.994615 -323.538819 
L 524.937692 -323.478911 
L 522.880769 -323.420021 
L 520.823846 -323.362283 
L 518.766923 -323.305835 
L 516.71 -323.250823 
L 514.653077 -323.197397 
L 512.596154 -323.145717 
L 510.539231 -323.095947 
L 508.482308 -323.048263 
L 506.425385 -323.002845 
L 504.368462 -322.959886 
L 502.311538 -322.919588 
L 500.254615 -322.882164 
L 498.197692 -322.847837 
L 496.140769 -322.816846 
L 494.083846 -322.789443 
L 492.026923 -322.765896 
L 489.97 -322.746491 
L 487.913077 -322.731531 
L 485.856154 -322.721342 
L 483.799231 -322.716276 
L 481.742308 -322.716709 
L 479.685385 -322.723047 
L 477.628462 -322.735733 
L 475.571538 -322.755247 
L 473.514615 -322.782115 
L 471.457692 -322.816912 
L 469.400769 -322.860275 
L 467.343846 -322.91291 
L 465.286923 -322.975603 
L 463.23 -323.049239 
L 461.173077 -323.134816 
L 459.116154 -323.233474 
L 457.059231 -323.346521 
L 455.002308 -323.47548 
L 452.945385 -323.622133 
L 450.888462 -323.788602 
L 448.831538 -323.977447 
L 446.774615 -324.191808 
L 444.717692 -324.435611 
L 442.660769 -324.713893 
L 440.603846 -325.033298 
L 438.546923 -325.402923 
L 436.49 -325.83583 
L 434.433077 -326.352023 
L 432.376154 -326.985121 
L 430.319231 -327.800599 
L 428.262308 -328.967356 
L 426.205385 -332.219507 
z
" style="stroke: #1976d2; stroke-width: 1.5"/>
    </defs>
    <g clip-path="url(#pd23aeb2dcb)">
     <use xlink:href="#m4353f5a2b2" x="0" y="496.5525" style="fill: #bbdefb; stroke: #1976d2; stroke-width: 1.5"/>
    </g>
   </g>
   <g id="patch_4">
    <path d="M 638.568 171.5625 
L 718.481246 206.211622 
L 709.754015 214.938853 
L 629.840769 183.198808 
z
" clip-path="url(#pd23aeb2dcb)" style="fill: #fb8c00; stroke: #e65100; stroke-width: 1.5; stroke-linejoin: miter"/>
   </g>
   <g id="patch_5">
    <path d="M 593.751432 105.803886 
Q 614.130945 134.952788 633.869829 163.185397 
" style="fill: none; stroke: #444444; stroke-linecap: round"/>
    <path d="M 633.282249 159.203594 
L 633.869829 163.185397 
L 630.331839 161.266379 
" style="fill: none; stroke: #444444; stroke-linecap: round"/>
   </g>
   <g id="text_3">
    <!-- fessura -->
    <g style="fill: #444444" transform="translate(571.659231 100.290115) scale(0.09 -0.09)">
     <defs>
      <path id="DejaVuSans-66" d="M 2375 4863 
L 2375 4384 
L 1825 4384 
Q 1516 4384 1395 4259 
Q 1275 4134 1275 3809 
L 1275 3500 
L 2222 3500 
L 2222 3053 
L 1275 3053 
L 1275 0 
L 697 0 
L 697 3053 
L 147 3053 
L 147 3500 
L 697 3500 
L 697 3744 
Q 697 4328 969 4595 
Q 1241 4863 1831 4863 
L 2375 4863 
z
" transform="scale(0.015625)"/>
      <path id="DejaVuSans-65" d="M 3597 1894 
L 3597 1613 
L 953 1613 
Q 991 1019 1311 708 
Q 1631 397 2203 397 
Q 2534 397 2845 478 
Q 3156 559 3463 722 
L 3463 178 
Q 3153 47 2828 -22 
Q 2503 -91 2169 -91 
Q 1331 -91 842 396 
Q 353 884 353 1716 
Q 353 2575 817 3079 
Q 1281 3584 2069 3584 
Q 2775 3584 3186 3129 
Q 3597 2675 3597 1894 
z
M 3022 2063 
Q 3016 2534 2758 2815 
Q 2500 3097 2075 3097 
Q 1594 3097 1305 2825 
Q 1016 2553 972 2059 
L 3022 2063 
z
" transform="scale(0.015625)"/>
      <path id="DejaVuSans-73" d="M 2834 3397 
L 2834 2853 
Q 2591 2978 2328 3040 
Q 2066 3103 1784 3103 
Q 1356 3103 1142 2972 
Q 928 2841 928 2578 
Q 928 2378 1081 2264 
Q 1234 2150 1697 2047 
L 1894 2003 
Q 2506 1872 2764 1633 
Q 3022 1394 3022 966 
Q 3022 478 2636 193 
Q 2250 -91 1575 -91 
Q 1294 -91 989 -36 
Q 684 19 347 128 
L 347 722 
Q 666 556 975 473 
Q 1284 391 1588 391 
Q 1994 391 2212 530 
Q 2431 669 2431 922 
Q 2431 1156 2273 1281 
Q 2116 1406 1581 1522 
L 1381 1569 
Q 847 1681 609 1914 
Q 372 2147 372 2553 
Q 372 3047 722 3315 
Q 1072 3584 1716 3584 
Q 2034 3584 2315 3537 
Q 2597 3491 2834 3397 
z
" transform="scale(0.015625)"/>
      <path id="DejaVuSans-75" d="M 544 1381 
L 544 3500 
L 1119 3500 
L 1119 1403 
Q 1119 906 1312 657 
Q 1506 409 1894 409 
Q 2359 409 2629 706 
Q 2900 1003 2900 1516 
L 2900 3500 
L 3475 3500 
L 3475 0 
L 2900 0 
L 2900 538 
Q 2691 219 2414 64 
Q 2138 -91 1772 -91 
Q 1169 -91 856 284 
Q 544 659 544 1381 
z
M 1991 3584 
L 1991 3584 
z
" transform="scale(0.015625)"/>
      <path id="DejaVuSans-72" d="M 2631 2963 
Q 2534 3019 2420 3045 
Q 2306 3072 2169 3072 
Q 1681 3072 1420 2755 
Q 1159 2438 1159 1844 
L 1159 0 
L 581 0 
L 581 3500 
L 1159 3500 
L 1159 2956 
Q 1341 3275 1631 3429 
Q 1922 3584 2338 3584 
Q 2397 3584 2469 3576 
Q 2541 3569 2628 3553 
L 2631 2963 
z
" transform="scale(0.015625)"/>
      <path id="DejaVuSans-61" d="M 2194 1759 
Q 1497 1759 1228 1600 
Q 959 1441 959 1056 
Q 959 750 1161 570 
Q 1363 391 1709 391 
Q 2188 391 2477 730 
Q 2766 1069 2766 1631 
L 2766 1759 
L 2194 1759 
z
M 3341 1997 
L 3341 0 
L 2766 0 
L 2766 531 
Q 2569 213 2275 61 
Q 1981 -91 1556 -91 
Q 1019 -91 701 211 
Q 384 513 384 1019 
Q 384 1609 779 1909 
Q 1175 2209 1959 2209 
L 2766 2209 
L 2766 2266 
Q 2766 2663 2505 2880 
Q 2244 3097 1772 3097 
Q 1472 3097 1187 3025 
Q 903 2953 641 2809 
L 641 3341 
Q 956 3463 1253 3523 
Q 1550 3584 1831 3584 
Q 2591 3584 2966 3190 
Q 3341 2797 3341 1997 
z
" transform="scale(0.015625)"/>
     </defs>
     <use xlink:href="#DejaVuSans-66"/>
     <use xlink:href="#DejaVuSans-65" x="35.205078"/>
     <use xlink:href="#DejaVuSans-73" x="96.728516"/>
     <use xlink:href="#DejaVuSans-73" x="148.828125"/>
     <use xlink:href="#DejaVuSans-75" x="200.927734"/>
     <use xlink:href="#DejaVuSans-72" x="264.306641"/>
     <use xlink:href="#DejaVuSans-61" x="305.419922"/>
    </g>
   </g>
   <g id="text_4">
    <g id="patch_6">
     <path d="M 550.083516 256.133834 
L 651.416484 256.133834 
Q 654.116484 256.133834 654.116484 253.433834 
L 654.116484 233.887522 
Q 654.116484 231.187522 651.416484 231.187522 
L 550.083516 231.187522 
Q 547.383516 231.187522 547.383516 233.887522 
L 547.383516 253.433834 
Q 547.383516 256.133834 550.083516 256.133834 
z
" style="fill: #ffffff; opacity: 0.92; stroke: #808080; stroke-linejoin: miter"/>
    </g>
    <!-- +0,5–0,7 in $C_{L,max}$ -->
    <g style="fill: #444444" transform="translate(559.935 241.105803) scale(0.09 -0.09)">
     <defs>
      <path id="DejaVuSans-Oblique-35" d="M 3719 4666 
L 3622 4141 
L 1691 4141 
L 1466 2988 
Q 1609 3034 1757 3056 
Q 1906 3078 2059 3078 
Q 2706 3078 3081 2731 
Q 3456 2384 3456 1791 
Q 3456 1375 3264 994 
Q 3072 613 2719 325 
Q 2469 125 2108 17 
Q 1747 -91 1319 -91 
Q 1038 -91 744 -41 
Q 450 9 128 109 
L 244 697 
Q 531 556 820 486 
Q 1109 416 1403 416 
Q 2013 416 2411 781 
Q 2809 1147 2809 1697 
Q 2809 2103 2548 2328 
Q 2288 2553 1819 2553 
Q 1572 2553 1305 2495 
Q 1038 2438 756 2322 
L 1209 4666 
L 3719 4666 
z
" transform="scale(0.015625)"/>
      <path id="DejaVuSansDisplay-2013" d="M 313 1978 
L 2888 1978 
L 2888 1528 
L 313 1528 
L 313 1978 
z
" transform="scale(0.015625)"/>
     </defs>
     <use xlink:href="#DejaVuSans-Oblique-2b" transform="translate(0 0.015625)"/>
     <use xlink:href="#DejaVuSans-Oblique-30" transform="translate(83.789062 0.015625)"/>
     <use xlink:href="#DejaVuSans-Oblique-2c" transform="translate(147.412109 0.015625)"/>
     <use xlink:href="#DejaVuSans-Oblique-35" transform="translate(179.199219 0.015625)"/>
     <use xlink:href="#DejaVuSansDisplay-2013" transform="translate(242.822266 0.015625)"/>
     <use xlink:href="#DejaVuSans-Oblique-30" transform="translate(292.822266 0.015625)"/>
     <use xlink:href="#DejaVuSans-Oblique-2c" transform="translate(356.445312 0.015625)"/>
     <use xlink:href="#DejaVuSans-Oblique-37" transform="translate(388.232422 0.015625)"/>
     <use xlink:href="#DejaVuSans-Oblique-20" transform="translate(451.855469 0.015625)"/>
     <use xlink:href="#DejaVuSans-Oblique-69" transform="translate(483.642578 0.015625)"/>
     <use xlink:href="#DejaVuSans-Oblique-6e" transform="translate(511.425781 0.015625)"/>
     <use xlink:href="#DejaVuSans-Oblique-20" transform="translate(574.804688 0.015625)"/>
     <use xlink:href="#DejaVuSans-Oblique-43" transform="translate(606.591797 0.015625)"/>
     <use xlink:href="#DejaVuSans-Oblique-4c" transform="translate(676.416016 -16.390625) scale(0.7)"/>
     <use xlink:href="#DejaVuSans-2c" transform="translate(715.415039 -16.390625) scale(0.7)"/>
     <use xlink:href="#DejaVuSans-Oblique-6d" transform="translate(751.303711 -16.390625) scale(0.7)"/>
     <use xlink:href="#DejaVuSans-Oblique-61" transform="translate(819.492188 -16.390625) scale(0.7)"/>
     <use xlink:href="#DejaVuSans-Oblique-78" transform="translate(862.387695 -16.390625) scale(0.7)"/>
    </g>
    <!-- GA moderna, regionali -->
    <g style="fill: #444444" transform="translate(550.083516 251.562115) scale(0.09 -0.09)">
     <defs>
      <path id="DejaVuSans-Oblique-47" d="M 3494 697 
L 3738 1919 
L 2700 1919 
L 2797 2438 
L 4453 2438 
L 4050 384 
Q 3634 156 3143 32 
Q 2653 -91 2156 -91 
Q 1278 -91 783 396 
Q 288 884 288 1753 
Q 288 2475 589 3126 
Q 891 3778 1422 4213 
Q 1756 4484 2153 4617 
Q 2550 4750 3034 4750 
Q 3472 4750 3873 4639 
Q 4275 4528 4641 4306 
L 4513 3634 
Q 4231 3928 3853 4083 
Q 3475 4238 3047 4238 
Q 2550 4238 2172 4048 
Q 1794 3859 1497 3463 
Q 1244 3125 1098 2667 
Q 953 2209 953 1734 
Q 953 1081 1287 751 
Q 1622 422 2284 422 
Q 2616 422 2925 492 
Q 3234 563 3494 697 
z
" transform="scale(0.015625)"/>
      <path id="DejaVuSans-Oblique-41" d="M 2356 4666 
L 3072 4666 
L 3938 0 
L 3278 0 
L 3084 1197 
L 984 1197 
L 325 0 
L -341 0 
L 2356 4666 
z
M 2584 4044 
L 1275 1722 
L 2988 1722 
L 2584 4044 
z
" transform="scale(0.015625)"/>
      <path id="DejaVuSans-Oblique-6f" d="M 1625 -91 
Q 1009 -91 651 289 
Q 294 669 294 1325 
Q 294 1706 417 2101 
Q 541 2497 738 2766 
Q 1047 3184 1428 3384 
Q 1809 3584 2291 3584 
Q 2888 3584 3255 3212 
Q 3622 2841 3622 2241 
Q 3622 1825 3500 1412 
Q 3378 1000 3181 728 
Q 2875 309 2494 109 
Q 2113 -91 1625 -91 
z
M 891 1344 
Q 891 869 1089 633 
Q 1288 397 1691 397 
Q 2269 397 2648 901 
Q 3028 1406 3028 2181 
Q 3028 2634 2825 2865 
Q 2622 3097 2228 3097 
Q 1903 3097 1650 2945 
Q 1397 2794 1197 2484 
Q 1050 2253 970 1956 
Q 891 1659 891 1344 
z
" transform="scale(0.015625)"/>
      <path id="DejaVuSans-Oblique-64" d="M 2675 525 
Q 2444 222 2128 65 
Q 1813 -91 1428 -91 
Q 903 -91 598 267 
Q 294 625 294 1247 
Q 294 1766 478 2236 
Q 663 2706 1013 3078 
Q 1244 3325 1534 3454 
Q 1825 3584 2144 3584 
Q 2481 3584 2739 3421 
Q 2997 3259 3138 2956 
L 3513 4863 
L 4091 4863 
L 3144 0 
L 2566 0 
L 2675 525 
z
M 891 1350 
Q 891 897 1095 644 
Q 1300 391 1663 391 
Q 1931 391 2161 520 
Q 2391 650 2566 903 
Q 2750 1166 2856 1509 
Q 2963 1853 2963 2188 
Q 2963 2622 2758 2865 
Q 2553 3109 2194 3109 
Q 1922 3109 1687 2981 
Q 1453 2853 1288 2613 
Q 1106 2353 998 2009 
Q 891 1666 891 1350 
z
" transform="scale(0.015625)"/>
     </defs>
     <use xlink:href="#DejaVuSans-Oblique-47"/>
     <use xlink:href="#DejaVuSans-Oblique-41" x="77.490234"/>
     <use xlink:href="#DejaVuSans-Oblique-20" x="145.898438"/>
     <use xlink:href="#DejaVuSans-Oblique-6d" x="177.685547"/>
     <use xlink:href="#DejaVuSans-Oblique-6f" x="275.097656"/>
     <use xlink:href="#DejaVuSans-Oblique-64" x="336.279297"/>
     <use xlink:href="#DejaVuSans-Oblique-65" x="399.755859"/>
     <use xlink:href="#DejaVuSans-Oblique-72" x="461.279297"/>
     <use xlink:href="#DejaVuSans-Oblique-6e" x="502.392578"/>
     <use xlink:href="#DejaVuSans-Oblique-61" x="565.771484"/>
     <use xlink:href="#DejaVuSans-Oblique-2c" x="627.050781"/>
     <use xlink:href="#DejaVuSans-Oblique-20" x="658.837891"/>
     <use xlink:href="#DejaVuSans-Oblique-72" x="690.625"/>
     <use xlink:href="#DejaVuSans-Oblique-65" x="731.738281"/>
     <use xlink:href="#DejaVuSans-Oblique-67" x="793.261719"/>
     <use xlink:href="#DejaVuSans-Oblique-69" x="856.738281"/>
     <use xlink:href="#DejaVuSans-Oblique-6f" x="884.521484"/>
     <use xlink:href="#DejaVuSans-Oblique-6e" x="945.703125"/>
     <use xlink:href="#DejaVuSans-Oblique-61" x="1009.082031"/>
     <use xlink:href="#DejaVuSans-Oblique-6c" x="1070.361328"/>
     <use xlink:href="#DejaVuSans-Oblique-69" x="1098.144531"/>
    </g>
   </g>
   <g id="text_5">
    <!-- 2. Slotted (a fessura) -->
    <g style="fill: #0d47a1" transform="translate(534.792109 59.0175) scale(0.11 -0.11)">
     <defs>
      <path id="DejaVuSans-Bold-32" d="M 1844 884 
L 3897 884 
L 3897 0 
L 506 0 
L 506 884 
L 2209 2388 
Q 2438 2594 2547 2791 
Q 2656 2988 2656 3200 
Q 2656 3528 2436 3728 
Q 2216 3928 1850 3928 
Q 1569 3928 1234 3808 
Q 900 3688 519 3450 
L 519 4475 
Q 925 4609 1322 4679 
Q 1719 4750 2100 4750 
Q 2938 4750 3402 4381 
Q 3866 4013 3866 3353 
Q 3866 2972 3669 2642 
Q 3472 2313 2841 1759 
L 1844 884 
z
" transform="scale(0.015625)"/>
      <path id="DejaVuSans-Bold-53" d="M 3834 4519 
L 3834 3531 
Q 3450 3703 3084 3790 
Q 2719 3878 2394 3878 
Q 1963 3878 1756 3759 
Q 1550 3641 1550 3391 
Q 1550 3203 1689 3098 
Q 1828 2994 2194 2919 
L 2706 2816 
Q 3484 2659 3812 2340 
Q 4141 2022 4141 1434 
Q 4141 663 3683 286 
Q 3225 -91 2284 -91 
Q 1841 -91 1394 -6 
Q 947 78 500 244 
L 500 1259 
Q 947 1022 1364 901 
Q 1781 781 2169 781 
Q 2563 781 2772 912 
Q 2981 1044 2981 1288 
Q 2981 1506 2839 1625 
Q 2697 1744 2272 1838 
L 1806 1941 
Q 1106 2091 782 2419 
Q 459 2747 459 3303 
Q 459 4000 909 4375 
Q 1359 4750 2203 4750 
Q 2588 4750 2994 4692 
Q 3400 4634 3834 4519 
z
" transform="scale(0.015625)"/>
      <path id="DejaVuSans-Bold-6f" d="M 2203 2784 
Q 1831 2784 1636 2517 
Q 1441 2250 1441 1747 
Q 1441 1244 1636 976 
Q 1831 709 2203 709 
Q 2569 709 2762 976 
Q 2956 1244 2956 1747 
Q 2956 2250 2762 2517 
Q 2569 2784 2203 2784 
z
M 2203 3584 
Q 3106 3584 3614 3096 
Q 4122 2609 4122 1747 
Q 4122 884 3614 396 
Q 3106 -91 2203 -91 
Q 1297 -91 786 396 
Q 275 884 275 1747 
Q 275 2609 786 3096 
Q 1297 3584 2203 3584 
z
" transform="scale(0.015625)"/>
      <path id="DejaVuSans-Bold-74" d="M 1759 4494 
L 1759 3500 
L 2913 3500 
L 2913 2700 
L 1759 2700 
L 1759 1216 
Q 1759 972 1856 886 
Q 1953 800 2241 800 
L 2816 800 
L 2816 0 
L 1856 0 
Q 1194 0 917 276 
Q 641 553 641 1216 
L 641 2700 
L 84 2700 
L 84 3500 
L 641 3500 
L 641 4494 
L 1759 4494 
z
" transform="scale(0.015625)"/>
      <path id="DejaVuSans-Bold-64" d="M 2919 2988 
L 2919 4863 
L 4044 4863 
L 4044 0 
L 2919 0 
L 2919 506 
Q 2688 197 2409 53 
Q 2131 -91 1766 -91 
Q 1119 -91 703 423 
Q 288 938 288 1747 
Q 288 2556 703 3070 
Q 1119 3584 1766 3584 
Q 2128 3584 2408 3439 
Q 2688 3294 2919 2988 
z
M 2181 722 
Q 2541 722 2730 984 
Q 2919 1247 2919 1747 
Q 2919 2247 2730 2509 
Q 2541 2772 2181 2772 
Q 1825 2772 1636 2509 
Q 1447 2247 1447 1747 
Q 1447 1247 1636 984 
Q 1825 722 2181 722 
z
" transform="scale(0.015625)"/>
      <path id="DejaVuSans-Bold-66" d="M 2841 4863 
L 2841 4128 
L 2222 4128 
Q 1984 4128 1890 4042 
Q 1797 3956 1797 3744 
L 1797 3500 
L 2753 3500 
L 2753 2700 
L 1797 2700 
L 1797 0 
L 678 0 
L 678 2700 
L 122 2700 
L 122 3500 
L 678 3500 
L 678 3744 
Q 678 4316 997 4589 
Q 1316 4863 1984 4863 
L 2841 4863 
z
" transform="scale(0.015625)"/>
      <path id="DejaVuSans-Bold-75" d="M 500 1363 
L 500 3500 
L 1625 3500 
L 1625 3150 
Q 1625 2866 1622 2436 
Q 1619 2006 1619 1863 
Q 1619 1441 1641 1255 
Q 1663 1069 1716 984 
Q 1784 875 1895 815 
Q 2006 756 2150 756 
Q 2500 756 2700 1025 
Q 2900 1294 2900 1772 
L 2900 3500 
L 4019 3500 
L 4019 0 
L 2900 0 
L 2900 506 
Q 2647 200 2364 54 
Q 2081 -91 1741 -91 
Q 1134 -91 817 281 
Q 500 653 500 1363 
z
" transform="scale(0.015625)"/>
      <path id="DejaVuSans-Bold-72" d="M 3138 2547 
Q 2991 2616 2845 2648 
Q 2700 2681 2553 2681 
Q 2122 2681 1889 2404 
Q 1656 2128 1656 1613 
L 1656 0 
L 538 0 
L 538 3500 
L 1656 3500 
L 1656 2925 
Q 1872 3269 2151 3426 
Q 2431 3584 2822 3584 
Q 2878 3584 2943 3579 
Q 3009 3575 3134 3559 
L 3138 2547 
z
" transform="scale(0.015625)"/>
     </defs>
     <use xlink:href="#DejaVuSans-Bold-32"/>
     <use xlink:href="#DejaVuSans-Bold-2e" x="69.580078"/>
     <use xlink:href="#DejaVuSans-Bold-20" x="107.568359"/>
     <use xlink:href="#DejaVuSans-Bold-53" x="142.382812"/>
     <use xlink:href="#DejaVuSans-Bold-6c" x="214.404297"/>
     <use xlink:href="#DejaVuSans-Bold-6f" x="248.681641"/>
     <use xlink:href="#DejaVuSans-Bold-74" x="317.382812"/>
     <use xlink:href="#DejaVuSans-Bold-74" x="365.185547"/>
     <use xlink:href="#DejaVuSans-Bold-65" x="412.988281"/>
     <use xlink:href="#DejaVuSans-Bold-64" x="480.810547"/>
     <use xlink:href="#DejaVuSans-Bold-20" x="552.392578"/>
     <use xlink:href="#DejaVuSans-Bold-28" x="587.207031"/>
     <use xlink:href="#DejaVuSans-Bold-61" x="632.910156"/>
     <use xlink:href="#DejaVuSans-Bold-20" x="700.390625"/>
     <use xlink:href="#DejaVuSans-Bold-66" x="735.205078"/>
     <use xlink:href="#DejaVuSans-Bold-65" x="778.710938"/>
     <use xlink:href="#DejaVuSans-Bold-73" x="846.533203"/>
     <use xlink:href="#DejaVuSans-Bold-73" x="906.054688"/>
     <use xlink:href="#DejaVuSans-Bold-75" x="965.576172"/>
     <use xlink:href="#DejaVuSans-Bold-72" x="1036.767578"/>
     <use xlink:href="#DejaVuSans-Bold-61" x="1086.083984"/>
     <use xlink:href="#DejaVuSans-Bold-29" x="1153.564453"/>
    </g>
   </g>
  </g>
  <g id="axes_3">
   <g id="PolyCollection_3">
    <defs>
     <path id="mbfbca2556c" d="M 36.145385 -123.374507 
L 36.145385 -123.460878 
L 38.202308 -127.120778 
L 40.259231 -128.688011 
L 42.316154 -129.896693 
L 44.373077 -130.915725 
L 46.43 -131.810579 
L 48.486923 -132.614874 
L 50.543846 -133.348616 
L 52.600769 -134.024866 
L 54.657692 -134.652721 
L 56.714615 -135.238826 
L 58.771538 -135.788215 
L 60.828462 -136.304817 
L 62.885385 -136.791772 
L 64.942308 -137.251639 
L 66.999231 -137.686538 
L 69.056154 -138.098255 
L 71.113077 -138.48831 
L 73.17 -138.858013 
L 75.226923 -139.208502 
L 77.283846 -139.540777 
L 79.340769 -139.855721 
L 81.397692 -140.154122 
L 83.454615 -140.436685 
L 85.511538 -140.704046 
L 87.568462 -140.956782 
L 89.625385 -141.195418 
L 91.682308 -141.420435 
L 93.739231 -141.632273 
L 95.796154 -141.831341 
L 97.853077 -142.018015 
L 99.91 -142.192645 
L 101.966923 -142.355557 
L 104.023846 -142.507057 
L 106.080769 -142.647428 
L 108.137692 -142.77694 
L 110.194615 -142.895843 
L 112.251538 -143.004377 
L 114.308462 -143.102766 
L 116.365385 -143.191221 
L 118.422308 -143.269946 
L 120.479231 -143.339132 
L 122.536154 -143.398962 
L 124.593077 -143.449608 
L 126.65 -143.491237 
L 128.706923 -143.524008 
L 130.763846 -143.548071 
L 132.820769 -143.563572 
L 134.877692 -143.570649 
L 136.934615 -143.569436 
L 138.991538 -143.560061 
L 141.048462 -143.542646 
L 143.105385 -143.51731 
L 145.162308 -143.484167 
L 147.219231 -143.443326 
L 149.276154 -143.394892 
L 151.333077 -143.338966 
L 153.39 -143.275833 
L 155.446923 -143.207092 
L 157.503846 -143.133163 
L 159.560769 -143.054134 
L 161.617692 -142.97009 
L 163.674615 -142.881113 
L 165.731538 -142.787283 
L 167.788462 -142.688675 
L 169.845385 -142.585364 
L 171.902308 -142.477421 
L 173.959231 -142.364915 
L 176.016154 -142.247912 
L 178.073077 -142.126477 
L 180.13 -142.000672 
L 182.186923 -141.870557 
L 184.243846 -141.73619 
L 186.300769 -141.597627 
L 188.357692 -141.454921 
L 190.414615 -141.308125 
L 192.471538 -141.157288 
L 194.528462 -141.00246 
L 196.585385 -140.843686 
L 198.642308 -140.681012 
L 200.699231 -140.514481 
L 202.756154 -140.344134 
L 204.813077 -140.170011 
L 206.87 -139.99215 
L 208.926923 -139.810588 
L 210.983846 -139.62536 
L 213.040769 -139.4365 
L 215.097692 -139.244039 
L 217.154615 -139.048009 
L 219.211538 -138.848439 
L 221.268462 -138.645356 
L 223.325385 -138.438788 
L 225.382308 -138.228758 
L 227.439231 -138.015291 
L 229.496154 -137.798409 
L 231.553077 -137.578133 
L 233.61 -137.354482 
L 235.666923 -137.127476 
L 237.723846 -136.897131 
L 239.780769 -136.663463 
L 239.780769 -118.899152 
L 239.780769 -118.899152 
L 237.723846 -118.800997 
L 235.666923 -118.702932 
L 233.61 -118.604974 
L 231.553077 -118.50714 
L 229.496154 -118.409448 
L 227.439231 -118.311918 
L 225.382308 -118.214571 
L 223.325385 -118.11743 
L 221.268462 -118.020518 
L 219.211538 -117.923859 
L 217.154615 -117.827482 
L 215.097692 -117.731412 
L 213.040769 -117.63568 
L 210.983846 -117.540316 
L 208.926923 -117.445353 
L 206.87 -117.350824 
L 204.813077 -117.256763 
L 202.756154 -117.163209 
L 200.699231 -117.070198 
L 198.642308 -116.977772 
L 196.585385 -116.88597 
L 194.528462 -116.794837 
L 192.471538 -116.704418 
L 190.414615 -116.614758 
L 188.357692 -116.525907 
L 186.300769 -116.437914 
L 184.243846 -116.350831 
L 182.186923 -116.264712 
L 180.13 -116.179614 
L 178.073077 -116.095594 
L 176.016154 -116.012712 
L 173.959231 -115.93103 
L 171.902308 -115.850613 
L 169.845385 -115.771527 
L 167.788462 -115.693841 
L 165.731538 -115.617626 
L 163.674615 -115.542957 
L 161.617692 -115.469909 
L 159.560769 -115.398562 
L 157.503846 -115.328999 
L 155.446923 -115.261302 
L 153.39 -115.195562 
L 151.333077 -115.131539 
L 149.276154 -115.067822 
L 147.219231 -115.004325 
L 145.162308 -114.941148 
L 143.105385 -114.878397 
L 141.048462 -114.816182 
L 138.991538 -114.754617 
L 136.934615 -114.693819 
L 134.877692 -114.633911 
L 132.820769 -114.575021 
L 130.763846 -114.517283 
L 128.706923 -114.460835 
L 126.65 -114.405823 
L 124.593077 -114.352397 
L 122.536154 -114.300717 
L 120.479231 -114.250947 
L 118.422308 -114.203263 
L 116.365385 -114.157845 
L 114.308462 -114.114886 
L 112.251538 -114.074588 
L 110.194615 -114.037164 
L 108.137692 -114.002837 
L 106.080769 -113.971846 
L 104.023846 -113.944443 
L 101.966923 -113.920896 
L 99.91 -113.901491 
L 97.853077 -113.886531 
L 95.796154 -113.876342 
L 93.739231 -113.871276 
L 91.682308 -113.871709 
L 89.625385 -113.878047 
L 87.568462 -113.890733 
L 85.511538 -113.910247 
L 83.454615 -113.937115 
L 81.397692 -113.971912 
L 79.340769 -114.015275 
L 77.283846 -114.06791 
L 75.226923 -114.130603 
L 73.17 -114.204239 
L 71.113077 -114.289816 
L 69.056154 -114.388474 
L 66.999231 -114.501521 
L 64.942308 -114.63048 
L 62.885385 -114.777133 
L 60.828462 -114.943602 
L 58.771538 -115.132447 
L 56.714615 -115.346808 
L 54.657692 -115.590611 
L 52.600769 -115.868893 
L 50.543846 -116.188298 
L 48.486923 -116.557923 
L 46.43 -116.99083 
L 44.373077 -117.507023 
L 42.316154 -118.140121 
L 40.259231 -118.955599 
L 38.202308 -120.122356 
L 36.145385 -123.374507 
z
" style="stroke: #1976d2; stroke-width: 1.5"/>
    </defs>
    <g clip-path="url(#p300b89375b)">
     <use xlink:href="#mbfbca2556c" x="0" y="496.5525" style="fill: #bbdefb; stroke: #1976d2; stroke-width: 1.5"/>
    </g>
   </g>
   <g id="patch_7">
    <path d="M 274.689692 378.952962 
L 368.330649 420.199448 
L 359.603418 428.926679 
L 265.962462 387.680192 
z
" clip-path="url(#p300b89375b)" style="fill: #fb8c00; stroke: #e65100; stroke-width: 1.5; stroke-linejoin: miter"/>
   </g>
   <g id="patch_8">
    <path d="M 226.485916 326.043789 
Q 249.871396 348.889429 272.457131 370.953784 
" style="fill: none; stroke: #444444; stroke-linecap: round"/>
    <path d="M 271.139841 367.150529 
L 272.457131 370.953784 
L 268.624153 369.725663 
" style="fill: none; stroke: #444444; stroke-linecap: round"/>
   </g>
   <g id="text_6">
    <!-- scivola -->
    <g style="fill: #444444" transform="translate(196.144615 310.693392) scale(0.09 -0.09)">
     <defs>
      <path id="DejaVuSans-63" d="M 3122 3366 
L 3122 2828 
Q 2878 2963 2633 3030 
Q 2388 3097 2138 3097 
Q 1578 3097 1268 2742 
Q 959 2388 959 1747 
Q 959 1106 1268 751 
Q 1578 397 2138 397 
Q 2388 397 2633 464 
Q 2878 531 3122 666 
L 3122 134 
Q 2881 22 2623 -34 
Q 2366 -91 2075 -91 
Q 1284 -91 818 406 
Q 353 903 353 1747 
Q 353 2603 823 3093 
Q 1294 3584 2113 3584 
Q 2378 3584 2631 3529 
Q 2884 3475 3122 3366 
z
" transform="scale(0.015625)"/>
      <path id="DejaVuSans-69" d="M 603 3500 
L 1178 3500 
L 1178 0 
L 603 0 
L 603 3500 
z
M 603 4863 
L 1178 4863 
L 1178 4134 
L 603 4134 
L 603 4863 
z
" transform="scale(0.015625)"/>
      <path id="DejaVuSans-76" d="M 191 3500 
L 800 3500 
L 1894 563 
L 2988 3500 
L 3597 3500 
L 2284 0 
L 1503 0 
L 191 3500 
z
" transform="scale(0.015625)"/>
      <path id="DejaVuSans-6f" d="M 1959 3097 
Q 1497 3097 1228 2736 
Q 959 2375 959 1747 
Q 959 1119 1226 758 
Q 1494 397 1959 397 
Q 2419 397 2687 759 
Q 2956 1122 2956 1747 
Q 2956 2369 2687 2733 
Q 2419 3097 1959 3097 
z
M 1959 3584 
Q 2709 3584 3137 3096 
Q 3566 2609 3566 1747 
Q 3566 888 3137 398 
Q 2709 -91 1959 -91 
Q 1206 -91 779 398 
Q 353 888 353 1747 
Q 353 2609 779 3096 
Q 1206 3584 1959 3584 
z
" transform="scale(0.015625)"/>
      <path id="DejaVuSans-6c" d="M 603 4863 
L 1178 4863 
L 1178 0 
L 603 0 
L 603 4863 
z
" transform="scale(0.015625)"/>
     </defs>
     <use xlink:href="#DejaVuSans-73"/>
     <use xlink:href="#DejaVuSans-63" x="52.099609"/>
     <use xlink:href="#DejaVuSans-69" x="107.080078"/>
     <use xlink:href="#DejaVuSans-76" x="134.863281"/>
     <use xlink:href="#DejaVuSans-6f" x="194.042969"/>
     <use xlink:href="#DejaVuSans-6c" x="255.224609"/>
     <use xlink:href="#DejaVuSans-61" x="283.007812"/>
    </g>
    <!-- indietro -->
    <g style="fill: #444444" transform="translate(196.144615 320.771423) scale(0.09 -0.09)">
     <defs>
      <path id="DejaVuSans-6e" d="M 3513 2113 
L 3513 0 
L 2938 0 
L 2938 2094 
Q 2938 2591 2744 2837 
Q 2550 3084 2163 3084 
Q 1697 3084 1428 2787 
Q 1159 2491 1159 1978 
L 1159 0 
L 581 0 
L 581 3500 
L 1159 3500 
L 1159 2956 
Q 1366 3272 1645 3428 
Q 1925 3584 2291 3584 
Q 2894 3584 3203 3211 
Q 3513 2838 3513 2113 
z
" transform="scale(0.015625)"/>
      <path id="DejaVuSans-64" d="M 2906 2969 
L 2906 4863 
L 3481 4863 
L 3481 0 
L 2906 0 
L 2906 525 
Q 2725 213 2448 61 
Q 2172 -91 1784 -91 
Q 1150 -91 751 415 
Q 353 922 353 1747 
Q 353 2572 751 3078 
Q 1150 3584 1784 3584 
Q 2172 3584 2448 3432 
Q 2725 3281 2906 2969 
z
M 947 1747 
Q 947 1113 1208 752 
Q 1469 391 1925 391 
Q 2381 391 2643 752 
Q 2906 1113 2906 1747 
Q 2906 2381 2643 2742 
Q 2381 3103 1925 3103 
Q 1469 3103 1208 2742 
Q 947 2381 947 1747 
z
" transform="scale(0.015625)"/>
      <path id="DejaVuSans-74" d="M 1172 4494 
L 1172 3500 
L 2356 3500 
L 2356 3053 
L 1172 3053 
L 1172 1153 
Q 1172 725 1289 603 
Q 1406 481 1766 481 
L 2356 481 
L 2356 0 
L 1766 0 
Q 1100 0 847 248 
Q 594 497 594 1153 
L 594 3053 
L 172 3053 
L 172 3500 
L 594 3500 
L 594 4494 
L 1172 4494 
z
" transform="scale(0.015625)"/>
     </defs>
     <use xlink:href="#DejaVuSans-69"/>
     <use xlink:href="#DejaVuSans-6e" x="27.783203"/>
     <use xlink:href="#DejaVuSans-64" x="91.162109"/>
     <use xlink:href="#DejaVuSans-69" x="154.638672"/>
     <use xlink:href="#DejaVuSans-65" x="182.421875"/>
     <use xlink:href="#DejaVuSans-74" x="243.945312"/>
     <use xlink:href="#DejaVuSans-72" x="283.154297"/>
     <use xlink:href="#DejaVuSans-6f" x="322.017578"/>
    </g>
   </g>
   <g id="text_7">
    <g id="patch_9">
     <path d="M 166.137891 464.978834 
L 255.242109 464.978834 
Q 257.942109 464.978834 257.942109 462.278834 
L 257.942109 432.65449 
Q 257.942109 429.95449 255.242109 429.95449 
L 166.137891 429.95449 
Q 163.437891 429.95449 163.437891 432.65449 
L 163.437891 462.278834 
Q 163.437891 464.978834 166.137891 464.978834 
z
" style="fill: #ffffff; opacity: 0.92; stroke: #808080; stroke-linejoin: miter"/>
    </g>
    <!-- +1,0–1,2 in $C_{L,max}$ -->
    <g style="fill: #444444" transform="translate(169.875 439.872772) scale(0.09 -0.09)">
     <use xlink:href="#DejaVuSans-Oblique-2b" transform="translate(0 0.015625)"/>
     <use xlink:href="#DejaVuSans-Oblique-31" transform="translate(83.789062 0.015625)"/>
     <use xlink:href="#DejaVuSans-Oblique-2c" transform="translate(147.412109 0.015625)"/>
     <use xlink:href="#DejaVuSans-Oblique-30" transform="translate(179.199219 0.015625)"/>
     <use xlink:href="#DejaVuSansDisplay-2013" transform="translate(242.822266 0.015625)"/>
     <use xlink:href="#DejaVuSans-Oblique-31" transform="translate(292.822266 0.015625)"/>
     <use xlink:href="#DejaVuSans-Oblique-2c" transform="translate(356.445312 0.015625)"/>
     <use xlink:href="#DejaVuSans-Oblique-32" transform="translate(388.232422 0.015625)"/>
     <use xlink:href="#DejaVuSans-Oblique-20" transform="translate(451.855469 0.015625)"/>
     <use xlink:href="#DejaVuSans-Oblique-69" transform="translate(483.642578 0.015625)"/>
     <use xlink:href="#DejaVuSans-Oblique-6e" transform="translate(511.425781 0.015625)"/>
     <use xlink:href="#DejaVuSans-Oblique-20" transform="translate(574.804688 0.015625)"/>
     <use xlink:href="#DejaVuSans-Oblique-43" transform="translate(606.591797 0.015625)"/>
     <use xlink:href="#DejaVuSans-Oblique-4c" transform="translate(676.416016 -16.390625) scale(0.7)"/>
     <use xlink:href="#DejaVuSans-2c" transform="translate(715.415039 -16.390625) scale(0.7)"/>
     <use xlink:href="#DejaVuSans-Oblique-6d" transform="translate(751.303711 -16.390625) scale(0.7)"/>
     <use xlink:href="#DejaVuSans-Oblique-61" transform="translate(819.492188 -16.390625) scale(0.7)"/>
     <use xlink:href="#DejaVuSans-Oblique-78" transform="translate(862.387695 -16.390625) scale(0.7)"/>
    </g>
    <!-- +15-25% superficie -->
    <g style="fill: #444444" transform="translate(166.137891 450.329084) scale(0.09 -0.09)">
     <defs>
      <path id="DejaVuSans-Oblique-2d" d="M 391 2009 
L 2075 2009 
L 1978 1497 
L 288 1497 
L 391 2009 
z
" transform="scale(0.015625)"/>
      <path id="DejaVuSans-Oblique-25" d="M 1503 2209 
Q 1078 2209 829 2486 
Q 581 2763 581 3238 
Q 581 3913 943 4331 
Q 1306 4750 1888 4750 
Q 2313 4750 2561 4470 
Q 2809 4191 2809 3713 
Q 2809 3044 2446 2626 
Q 2084 2209 1503 2209 
z
M 2309 3694 
Q 2309 4022 2187 4187 
Q 2066 4353 1825 4353 
Q 1475 4353 1278 4050 
Q 1081 3747 1081 3206 
Q 1081 2919 1207 2762 
Q 1334 2606 1569 2606 
Q 1903 2606 2106 2903 
Q 2309 3200 2309 3694 
z
M 4997 1394 
Q 4997 1728 4878 1893 
Q 4759 2059 4519 2059 
Q 4172 2059 3973 1754 
Q 3775 1450 3775 909 
Q 3775 619 3901 462 
Q 4028 306 4263 306 
Q 4597 306 4797 603 
Q 4997 900 4997 1394 
z
M 4197 -91 
Q 3772 -91 3525 187 
Q 3278 466 3278 941 
Q 3278 1616 3639 2033 
Q 4000 2450 4581 2450 
Q 5006 2450 5251 2175 
Q 5497 1900 5497 1422 
Q 5497 750 5136 329 
Q 4775 -91 4197 -91 
z
M 5259 4750 
L 1403 -91 
L 903 -91 
L 4763 4750 
L 5259 4750 
z
" transform="scale(0.015625)"/>
      <path id="DejaVuSans-Oblique-70" d="M 3175 2156 
Q 3175 2616 2975 2859 
Q 2775 3103 2400 3103 
Q 2144 3103 1911 2972 
Q 1678 2841 1497 2591 
Q 1319 2344 1212 1994 
Q 1106 1644 1106 1300 
Q 1106 863 1306 627 
Q 1506 391 1875 391 
Q 2147 391 2380 519 
Q 2613 647 2778 891 
Q 2956 1147 3065 1494 
Q 3175 1841 3175 2156 
z
M 1394 2969 
Q 1625 3272 1939 3428 
Q 2253 3584 2638 3584 
Q 3175 3584 3472 3232 
Q 3769 2881 3769 2247 
Q 3769 1728 3584 1258 
Q 3400 788 3053 416 
Q 2822 169 2531 39 
Q 2241 -91 1919 -91 
Q 1547 -91 1294 64 
Q 1041 219 916 525 
L 556 -1331 
L -19 -1331 
L 922 3500 
L 1497 3500 
L 1394 2969 
z
" transform="scale(0.015625)"/>
      <path id="DejaVuSans-Oblique-66" d="M 3059 4863 
L 2969 4384 
L 2419 4384 
Q 2106 4384 1964 4261 
Q 1822 4138 1753 3809 
L 1691 3500 
L 2638 3500 
L 2553 3053 
L 1606 3053 
L 1013 0 
L 434 0 
L 1031 3053 
L 481 3053 
L 563 3500 
L 1113 3500 
L 1159 3744 
Q 1278 4363 1576 4613 
Q 1875 4863 2516 4863 
L 3059 4863 
z
" transform="scale(0.015625)"/>
      <path id="DejaVuSans-Oblique-63" d="M 3431 3366 
L 3316 2797 
Q 3109 2947 2876 3022 
Q 2644 3097 2394 3097 
Q 2119 3097 1870 3000 
Q 1622 2903 1453 2725 
Q 1184 2453 1037 2087 
Q 891 1722 891 1331 
Q 891 859 1127 628 
Q 1363 397 1844 397 
Q 2081 397 2348 469 
Q 2616 541 2906 684 
L 2797 116 
Q 2547 13 2283 -39 
Q 2019 -91 1741 -91 
Q 1044 -91 669 257 
Q 294 606 294 1253 
Q 294 1797 489 2255 
Q 684 2713 1069 3078 
Q 1331 3328 1684 3456 
Q 2038 3584 2456 3584 
Q 2700 3584 2940 3529 
Q 3181 3475 3431 3366 
z
" transform="scale(0.015625)"/>
     </defs>
     <use xlink:href="#DejaVuSans-Oblique-2b"/>
     <use xlink:href="#DejaVuSans-Oblique-31" x="83.789062"/>
     <use xlink:href="#DejaVuSans-Oblique-35" x="147.412109"/>
     <use xlink:href="#DejaVuSans-Oblique-2d" x="211.035156"/>
     <use xlink:href="#DejaVuSans-Oblique-32" x="247.119141"/>
     <use xlink:href="#DejaVuSans-Oblique-35" x="310.742188"/>
     <use xlink:href="#DejaVuSans-Oblique-25" x="374.365234"/>
     <use xlink:href="#DejaVuSans-Oblique-20" x="469.384766"/>
     <use xlink:href="#DejaVuSans-Oblique-73" x="501.171875"/>
     <use xlink:href="#DejaVuSans-Oblique-75" x="553.271484"/>
     <use xlink:href="#DejaVuSans-Oblique-70" x="616.650391"/>
     <use xlink:href="#DejaVuSans-Oblique-65" x="680.126953"/>
     <use xlink:href="#DejaVuSans-Oblique-72" x="741.650391"/>
     <use xlink:href="#DejaVuSans-Oblique-66" x="782.763672"/>
     <use xlink:href="#DejaVuSans-Oblique-69" x="817.96875"/>
     <use xlink:href="#DejaVuSans-Oblique-63" x="845.751953"/>
     <use xlink:href="#DejaVuSans-Oblique-69" x="900.732422"/>
     <use xlink:href="#DejaVuSans-Oblique-65" x="928.515625"/>
    </g>
    <!-- Boeing 737, A320 -->
    <g style="fill: #444444" transform="translate(170.573906 460.407115) scale(0.09 -0.09)">
     <defs>
      <path id="DejaVuSans-Oblique-42" d="M 1081 4666 
L 2694 4666 
Q 3350 4666 3675 4422 
Q 4000 4178 4000 3688 
Q 4000 3238 3720 2911 
Q 3441 2584 2988 2516 
Q 3375 2428 3569 2181 
Q 3763 1934 3763 1522 
Q 3763 819 3242 409 
Q 2722 0 1819 0 
L 172 0 
L 1081 4666 
z
M 1234 2228 
L 903 519 
L 1919 519 
Q 2491 519 2800 781 
Q 3109 1044 3109 1522 
Q 3109 1891 2904 2059 
Q 2700 2228 2247 2228 
L 1234 2228 
z
M 1606 4147 
L 1331 2741 
L 2272 2741 
Q 2775 2741 3058 2959 
Q 3341 3178 3341 3566 
Q 3341 3869 3150 4008 
Q 2959 4147 2541 4147 
L 1606 4147 
z
" transform="scale(0.015625)"/>
     </defs>
     <use xlink:href="#DejaVuSans-Oblique-42"/>
     <use xlink:href="#DejaVuSans-Oblique-6f" x="68.603516"/>
     <use xlink:href="#DejaVuSans-Oblique-65" x="129.785156"/>
     <use xlink:href="#DejaVuSans-Oblique-69" x="191.308594"/>
     <use xlink:href="#DejaVuSans-Oblique-6e" x="219.091797"/>
     <use xlink:href="#DejaVuSans-Oblique-67" x="282.470703"/>
     <use xlink:href="#DejaVuSans-Oblique-20" x="345.947266"/>
     <use xlink:href="#DejaVuSans-Oblique-37" x="377.734375"/>
     <use xlink:href="#DejaVuSans-Oblique-33" x="441.357422"/>
     <use xlink:href="#DejaVuSans-Oblique-37" x="504.980469"/>
     <use xlink:href="#DejaVuSans-Oblique-2c" x="568.603516"/>
     <use xlink:href="#DejaVuSans-Oblique-20" x="600.390625"/>
     <use xlink:href="#DejaVuSans-Oblique-41" x="632.177734"/>
     <use xlink:href="#DejaVuSans-Oblique-33" x="700.585938"/>
     <use xlink:href="#DejaVuSans-Oblique-32" x="764.208984"/>
     <use xlink:href="#DejaVuSans-Oblique-30" x="827.832031"/>
    </g>
   </g>
   <g id="text_8">
    <!-- 3. Fowler (estensibile) -->
    <g style="fill: #0d47a1" transform="translate(141.316094 267.8625) scale(0.11 -0.11)">
     <defs>
      <path id="DejaVuSans-Bold-33" d="M 2981 2516 
Q 3453 2394 3698 2092 
Q 3944 1791 3944 1325 
Q 3944 631 3412 270 
Q 2881 -91 1863 -91 
Q 1503 -91 1142 -33 
Q 781 25 428 141 
L 428 1069 
Q 766 900 1098 814 
Q 1431 728 1753 728 
Q 2231 728 2486 893 
Q 2741 1059 2741 1369 
Q 2741 1688 2480 1852 
Q 2219 2016 1709 2016 
L 1228 2016 
L 1228 2791 
L 1734 2791 
Q 2188 2791 2409 2933 
Q 2631 3075 2631 3366 
Q 2631 3634 2415 3781 
Q 2200 3928 1806 3928 
Q 1516 3928 1219 3862 
Q 922 3797 628 3669 
L 628 4550 
Q 984 4650 1334 4700 
Q 1684 4750 2022 4750 
Q 2931 4750 3382 4451 
Q 3834 4153 3834 3553 
Q 3834 3144 3618 2883 
Q 3403 2622 2981 2516 
z
" transform="scale(0.015625)"/>
      <path id="DejaVuSans-Bold-46" d="M 588 4666 
L 3834 4666 
L 3834 3756 
L 1791 3756 
L 1791 2888 
L 3713 2888 
L 3713 1978 
L 1791 1978 
L 1791 0 
L 588 0 
L 588 4666 
z
" transform="scale(0.015625)"/>
      <path id="DejaVuSans-Bold-77" d="M 225 3500 
L 1313 3500 
L 1900 1088 
L 2491 3500 
L 3425 3500 
L 4013 1113 
L 4603 3500 
L 5691 3500 
L 4769 0 
L 3547 0 
L 2956 2406 
L 2369 0 
L 1147 0 
L 225 3500 
z
" transform="scale(0.015625)"/>
      <path id="DejaVuSans-Bold-62" d="M 2400 722 
Q 2759 722 2948 984 
Q 3138 1247 3138 1747 
Q 3138 2247 2948 2509 
Q 2759 2772 2400 2772 
Q 2041 2772 1848 2508 
Q 1656 2244 1656 1747 
Q 1656 1250 1848 986 
Q 2041 722 2400 722 
z
M 1656 2988 
Q 1888 3294 2169 3439 
Q 2450 3584 2816 3584 
Q 3463 3584 3878 3070 
Q 4294 2556 4294 1747 
Q 4294 938 3878 423 
Q 3463 -91 2816 -91 
Q 2450 -91 2169 54 
Q 1888 200 1656 506 
L 1656 0 
L 538 0 
L 538 4863 
L 1656 4863 
L 1656 2988 
z
" transform="scale(0.015625)"/>
     </defs>
     <use xlink:href="#DejaVuSans-Bold-33"/>
     <use xlink:href="#DejaVuSans-Bold-2e" x="69.580078"/>
     <use xlink:href="#DejaVuSans-Bold-20" x="107.568359"/>
     <use xlink:href="#DejaVuSans-Bold-46" x="142.382812"/>
     <use xlink:href="#DejaVuSans-Bold-6f" x="206.693359"/>
     <use xlink:href="#DejaVuSans-Bold-77" x="275.394531"/>
     <use xlink:href="#DejaVuSans-Bold-6c" x="367.777344"/>
     <use xlink:href="#DejaVuSans-Bold-65" x="402.054688"/>
     <use xlink:href="#DejaVuSans-Bold-72" x="469.876953"/>
     <use xlink:href="#DejaVuSans-Bold-20" x="519.193359"/>
     <use xlink:href="#DejaVuSans-Bold-28" x="554.007812"/>
     <use xlink:href="#DejaVuSans-Bold-65" x="599.710938"/>
     <use xlink:href="#DejaVuSans-Bold-73" x="667.533203"/>
     <use xlink:href="#DejaVuSans-Bold-74" x="727.054688"/>
     <use xlink:href="#DejaVuSans-Bold-65" x="774.857422"/>
     <use xlink:href="#DejaVuSans-Bold-6e" x="842.679688"/>
     <use xlink:href="#DejaVuSans-Bold-73" x="913.871094"/>
     <use xlink:href="#DejaVuSans-Bold-69" x="973.392578"/>
     <use xlink:href="#DejaVuSans-Bold-62" x="1007.669922"/>
     <use xlink:href="#DejaVuSans-Bold-69" x="1079.251953"/>
     <use xlink:href="#DejaVuSans-Bold-6c" x="1113.529297"/>
     <use xlink:href="#DejaVuSans-Bold-65" x="1147.806641"/>
     <use xlink:href="#DejaVuSans-Bold-29" x="1215.628906"/>
    </g>
   </g>
  </g>
  <g id="axes_4">
   <g id="PolyCollection_4">
    <defs>
     <path id="m652219bf60" d="M 426.205385 -123.374507 
L 426.205385 -123.460878 
L 428.262308 -127.120778 
L 430.319231 -128.688011 
L 432.376154 -129.896693 
L 434.433077 -130.915725 
L 436.49 -131.810579 
L 438.546923 -132.614874 
L 440.603846 -133.348616 
L 442.660769 -134.024866 
L 444.717692 -134.652721 
L 446.774615 -135.238826 
L 448.831538 -135.788215 
L 450.888462 -136.304817 
L 452.945385 -136.791772 
L 455.002308 -137.251639 
L 457.059231 -137.686538 
L 459.116154 -138.098255 
L 461.173077 -138.48831 
L 463.23 -138.858013 
L 465.286923 -139.208502 
L 467.343846 -139.540777 
L 469.400769 -139.855721 
L 471.457692 -140.154122 
L 473.514615 -140.436685 
L 475.571538 -140.704046 
L 477.628462 -140.956782 
L 479.685385 -141.195418 
L 481.742308 -141.420435 
L 483.799231 -141.632273 
L 485.856154 -141.831341 
L 487.913077 -142.018015 
L 489.97 -142.192645 
L 492.026923 -142.355557 
L 494.083846 -142.507057 
L 496.140769 -142.647428 
L 498.197692 -142.77694 
L 500.254615 -142.895843 
L 502.311538 -143.004377 
L 504.368462 -143.102766 
L 506.425385 -143.191221 
L 508.482308 -143.269946 
L 510.539231 -143.339132 
L 512.596154 -143.398962 
L 514.653077 -143.449608 
L 516.71 -143.491237 
L 518.766923 -143.524008 
L 520.823846 -143.548071 
L 522.880769 -143.563572 
L 524.937692 -143.570649 
L 526.994615 -143.569436 
L 529.051538 -143.560061 
L 531.108462 -143.542646 
L 533.165385 -143.51731 
L 535.222308 -143.484167 
L 537.279231 -143.443326 
L 539.336154 -143.394892 
L 541.393077 -143.338966 
L 543.45 -143.275833 
L 545.506923 -143.207092 
L 547.563846 -143.133163 
L 549.620769 -143.054134 
L 551.677692 -142.97009 
L 553.734615 -142.881113 
L 555.791538 -142.787283 
L 557.848462 -142.688675 
L 559.905385 -142.585364 
L 561.962308 -142.477421 
L 564.019231 -142.364915 
L 566.076154 -142.247912 
L 568.133077 -142.126477 
L 570.19 -142.000672 
L 572.246923 -141.870557 
L 574.303846 -141.73619 
L 576.360769 -141.597627 
L 578.417692 -141.454921 
L 580.474615 -141.308125 
L 582.531538 -141.157288 
L 584.588462 -141.00246 
L 586.645385 -140.843686 
L 588.702308 -140.681012 
L 590.759231 -140.514481 
L 592.816154 -140.344134 
L 594.873077 -140.170011 
L 596.93 -139.99215 
L 598.986923 -139.810588 
L 601.043846 -139.62536 
L 603.100769 -139.4365 
L 605.157692 -139.244039 
L 607.214615 -139.048009 
L 609.271538 -138.848439 
L 611.328462 -138.645356 
L 613.385385 -138.438788 
L 615.442308 -138.228758 
L 617.499231 -138.015291 
L 619.556154 -137.798409 
L 621.613077 -137.578133 
L 623.67 -137.354482 
L 625.726923 -137.127476 
L 627.783846 -136.897131 
L 629.840769 -136.663463 
L 629.840769 -118.899152 
L 629.840769 -118.899152 
L 627.783846 -118.800997 
L 625.726923 -118.702932 
L 623.67 -118.604974 
L 621.613077 -118.50714 
L 619.556154 -118.409448 
L 617.499231 -118.311918 
L 615.442308 -118.214571 
L 613.385385 -118.11743 
L 611.328462 -118.020518 
L 609.271538 -117.923859 
L 607.214615 -117.827482 
L 605.157692 -117.731412 
L 603.100769 -117.63568 
L 601.043846 -117.540316 
L 598.986923 -117.445353 
L 596.93 -117.350824 
L 594.873077 -117.256763 
L 592.816154 -117.163209 
L 590.759231 -117.070198 
L 588.702308 -116.977772 
L 586.645385 -116.88597 
L 584.588462 -116.794837 
L 582.531538 -116.704418 
L 580.474615 -116.614758 
L 578.417692 -116.525907 
L 576.360769 -116.437914 
L 574.303846 -116.350831 
L 572.246923 -116.264712 
L 570.19 -116.179614 
L 568.133077 -116.095594 
L 566.076154 -116.012712 
L 564.019231 -115.93103 
L 561.962308 -115.850613 
L 559.905385 -115.771527 
L 557.848462 -115.693841 
L 555.791538 -115.617626 
L 553.734615 -115.542957 
L 551.677692 -115.469909 
L 549.620769 -115.398562 
L 547.563846 -115.328999 
L 545.506923 -115.261302 
L 543.45 -115.195562 
L 541.393077 -115.131539 
L 539.336154 -115.067822 
L 537.279231 -115.004325 
L 535.222308 -114.941148 
L 533.165385 -114.878397 
L 531.108462 -114.816182 
L 529.051538 -114.754617 
L 526.994615 -114.693819 
L 524.937692 -114.633911 
L 522.880769 -114.575021 
L 520.823846 -114.517283 
L 518.766923 -114.460835 
L 516.71 -114.405823 
L 514.653077 -114.352397 
L 512.596154 -114.300717 
L 510.539231 -114.250947 
L 508.482308 -114.203263 
L 506.425385 -114.157845 
L 504.368462 -114.114886 
L 502.311538 -114.074588 
L 500.254615 -114.037164 
L 498.197692 -114.002837 
L 496.140769 -113.971846 
L 494.083846 -113.944443 
L 492.026923 -113.920896 
L 489.97 -113.901491 
L 487.913077 -113.886531 
L 485.856154 -113.876342 
L 483.799231 -113.871276 
L 481.742308 -113.871709 
L 479.685385 -113.878047 
L 477.628462 -113.890733 
L 475.571538 -113.910247 
L 473.514615 -113.937115 
L 471.457692 -113.971912 
L 469.400769 -114.015275 
L 467.343846 -114.06791 
L 465.286923 -114.130603 
L 463.23 -114.204239 
L 461.173077 -114.289816 
L 459.116154 -114.388474 
L 457.059231 -114.501521 
L 455.002308 -114.63048 
L 452.945385 -114.777133 
L 450.888462 -114.943602 
L 448.831538 -115.132447 
L 446.774615 -115.346808 
L 444.717692 -115.590611 
L 442.660769 -115.868893 
L 440.603846 -116.188298 
L 438.546923 -116.557923 
L 436.49 -116.99083 
L 434.433077 -117.507023 
L 432.376154 -118.140121 
L 430.319231 -118.955599 
L 428.262308 -120.122356 
L 426.205385 -123.374507 
z
" style="stroke: #1976d2; stroke-width: 1.5"/>
    </defs>
    <g clip-path="url(#p05554f390f)">
     <use xlink:href="#m652219bf60" x="0" y="496.5525" style="fill: #bbdefb; stroke: #1976d2; stroke-width: 1.5"/>
    </g>
   </g>
   <g id="patch_10">
    <path d="M 635.658923 376.043885 
L 696.419838 396.869218 
L 689.147146 404.14191 
L 629.840769 384.771115 
z
" clip-path="url(#p05554f390f)" style="fill: #fb8c00; stroke: #bf360c; stroke-width: 1.2; stroke-linejoin: miter"/>
   </g>
   <g id="patch_11">
    <path d="M 656.022462 384.771115 
L 715.409717 409.95314 
L 708.137025 417.225832 
L 650.204308 393.498346 
z
" clip-path="url(#p05554f390f)" style="fill: #f57c00; stroke: #bf360c; stroke-width: 1.2; stroke-linejoin: miter"/>
   </g>
   <g id="patch_12">
    <path d="M 676.386 393.498346 
L 734.025112 422.900761 
L 726.75242 430.173453 
L 670.567846 402.225577 
z
" clip-path="url(#p05554f390f)" style="fill: #e65100; stroke: #bf360c; stroke-width: 1.2; stroke-linejoin: miter"/>
   </g>
   <g id="text_9">
    <g id="patch_13">
     <path d="M 560.633906 464.978834 
L 640.866094 464.978834 
Q 643.566094 464.978834 643.566094 462.278834 
L 643.566094 432.65449 
Q 643.566094 429.95449 640.866094 429.95449 
L 560.633906 429.95449 
Q 557.933906 429.95449 557.933906 432.65449 
L 557.933906 462.278834 
Q 557.933906 464.978834 560.633906 464.978834 
z
" style="fill: #ffffff; opacity: 0.92; stroke: #808080; stroke-linejoin: miter"/>
    </g>
    <!-- +1,2+ in $C_{L,max}$ -->
    <g style="fill: #444444" transform="translate(565.56 439.872772) scale(0.09 -0.09)">
     <use xlink:href="#DejaVuSans-Oblique-2b" transform="translate(0 0.015625)"/>
     <use xlink:href="#DejaVuSans-Oblique-31" transform="translate(83.789062 0.015625)"/>
     <use xlink:href="#DejaVuSans-Oblique-2c" transform="translate(147.412109 0.015625)"/>
     <use xlink:href="#DejaVuSans-Oblique-32" transform="translate(179.199219 0.015625)"/>
     <use xlink:href="#DejaVuSans-Oblique-2b" transform="translate(242.822266 0.015625)"/>
     <use xlink:href="#DejaVuSans-Oblique-20" transform="translate(326.611328 0.015625)"/>
     <use xlink:href="#DejaVuSans-Oblique-69" transform="translate(358.398438 0.015625)"/>
     <use xlink:href="#DejaVuSans-Oblique-6e" transform="translate(386.181641 0.015625)"/>
     <use xlink:href="#DejaVuSans-Oblique-20" transform="translate(449.560547 0.015625)"/>
     <use xlink:href="#DejaVuSans-Oblique-43" transform="translate(481.347656 0.015625)"/>
     <use xlink:href="#DejaVuSans-Oblique-4c" transform="translate(551.171875 -16.390625) scale(0.7)"/>
     <use xlink:href="#DejaVuSans-2c" transform="translate(590.170898 -16.390625) scale(0.7)"/>
     <use xlink:href="#DejaVuSans-Oblique-6d" transform="translate(626.05957 -16.390625) scale(0.7)"/>
     <use xlink:href="#DejaVuSans-Oblique-61" transform="translate(694.248047 -16.390625) scale(0.7)"/>
     <use xlink:href="#DejaVuSans-Oblique-78" transform="translate(737.143555 -16.390625) scale(0.7)"/>
    </g>
    <!-- +30% superficie -->
    <g style="fill: #444444" transform="translate(563.547656 450.329084) scale(0.09 -0.09)">
     <use xlink:href="#DejaVuSans-Oblique-2b"/>
     <use xlink:href="#DejaVuSans-Oblique-33" x="83.789062"/>
     <use xlink:href="#DejaVuSans-Oblique-30" x="147.412109"/>
     <use xlink:href="#DejaVuSans-Oblique-25" x="211.035156"/>
     <use xlink:href="#DejaVuSans-Oblique-20" x="306.054688"/>
     <use xlink:href="#DejaVuSans-Oblique-73" x="337.841797"/>
     <use xlink:href="#DejaVuSans-Oblique-75" x="389.941406"/>
     <use xlink:href="#DejaVuSans-Oblique-70" x="453.320312"/>
     <use xlink:href="#DejaVuSans-Oblique-65" x="516.796875"/>
     <use xlink:href="#DejaVuSans-Oblique-72" x="578.320312"/>
     <use xlink:href="#DejaVuSans-Oblique-66" x="619.433594"/>
     <use xlink:href="#DejaVuSans-Oblique-69" x="654.638672"/>
     <use xlink:href="#DejaVuSans-Oblique-63" x="682.421875"/>
     <use xlink:href="#DejaVuSans-Oblique-69" x="737.402344"/>
     <use xlink:href="#DejaVuSans-Oblique-65" x="765.185547"/>
    </g>
    <!-- Boeing 747, A380 -->
    <g style="fill: #444444" transform="translate(560.633906 460.407115) scale(0.09 -0.09)">
     <defs>
      <path id="DejaVuSans-Oblique-34" d="M 2753 4666 
L 3547 4666 
L 2950 1625 
L 3616 1625 
L 3513 1100 
L 2847 1100 
L 2638 0 
L 2009 0 
L 2222 1100 
L 116 1100 
L 238 1709 
L 2753 4666 
z
M 2809 4116 
L 728 1625 
L 2322 1625 
L 2809 4116 
z
" transform="scale(0.015625)"/>
      <path id="DejaVuSans-Oblique-38" d="M 2847 1416 
Q 2847 1769 2600 1992 
Q 2353 2216 1953 2216 
Q 1466 2216 1148 1923 
Q 831 1631 831 1184 
Q 831 828 1073 618 
Q 1316 409 1728 409 
Q 2219 409 2533 693 
Q 2847 978 2847 1416 
z
M 3169 3591 
Q 3169 3888 2950 4069 
Q 2731 4250 2369 4250 
Q 1941 4250 1664 4009 
Q 1388 3769 1388 3406 
Q 1388 3094 1605 2903 
Q 1822 2713 2181 2713 
Q 2613 2713 2891 2961 
Q 3169 3209 3169 3591 
z
M 2741 2456 
Q 3094 2322 3281 2050 
Q 3469 1778 3469 1394 
Q 3469 747 2969 328 
Q 2469 -91 1678 -91 
Q 1006 -91 609 239 
Q 213 569 213 1119 
Q 213 1619 553 2008 
Q 894 2397 1441 2503 
Q 1113 2616 941 2852 
Q 769 3088 769 3425 
Q 769 3991 1239 4370 
Q 1709 4750 2431 4750 
Q 3034 4750 3414 4442 
Q 3794 4134 3794 3659 
Q 3794 3247 3511 2923 
Q 3228 2600 2741 2456 
z
" transform="scale(0.015625)"/>
     </defs>
     <use xlink:href="#DejaVuSans-Oblique-42"/>
     <use xlink:href="#DejaVuSans-Oblique-6f" x="68.603516"/>
     <use xlink:href="#DejaVuSans-Oblique-65" x="129.785156"/>
     <use xlink:href="#DejaVuSans-Oblique-69" x="191.308594"/>
     <use xlink:href="#DejaVuSans-Oblique-6e" x="219.091797"/>
     <use xlink:href="#DejaVuSans-Oblique-67" x="282.470703"/>
     <use xlink:href="#DejaVuSans-Oblique-20" x="345.947266"/>
     <use xlink:href="#DejaVuSans-Oblique-37" x="377.734375"/>
     <use xlink:href="#DejaVuSans-Oblique-34" x="441.357422"/>
     <use xlink:href="#DejaVuSans-Oblique-37" x="504.980469"/>
     <use xlink:href="#DejaVuSans-Oblique-2c" x="568.603516"/>
     <use xlink:href="#DejaVuSans-Oblique-20" x="600.390625"/>
     <use xlink:href="#DejaVuSans-Oblique-41" x="632.177734"/>
     <use xlink:href="#DejaVuSans-Oblique-33" x="700.585938"/>
     <use xlink:href="#DejaVuSans-Oblique-38" x="764.208984"/>
     <use xlink:href="#DejaVuSans-Oblique-30" x="827.832031"/>
    </g>
   </g>
   <g id="text_10">
    <!-- 4. Multi-flap -->
    <g style="fill: #0d47a1" transform="translate(562.922031 267.8625) scale(0.11 -0.11)">
     <defs>
      <path id="DejaVuSans-Bold-34" d="M 2356 3675 
L 1038 1722 
L 2356 1722 
L 2356 3675 
z
M 2156 4666 
L 3494 4666 
L 3494 1722 
L 4159 1722 
L 4159 850 
L 3494 850 
L 3494 0 
L 2356 0 
L 2356 850 
L 288 850 
L 288 1881 
L 2156 4666 
z
" transform="scale(0.015625)"/>
      <path id="DejaVuSans-Bold-4d" d="M 588 4666 
L 2119 4666 
L 3181 2169 
L 4250 4666 
L 5778 4666 
L 5778 0 
L 4641 0 
L 4641 3413 
L 3566 897 
L 2803 897 
L 1728 3413 
L 1728 0 
L 588 0 
L 588 4666 
z
" transform="scale(0.015625)"/>
      <path id="DejaVuSans-Bold-2d" d="M 347 2297 
L 2309 2297 
L 2309 1388 
L 347 1388 
L 347 2297 
z
" transform="scale(0.015625)"/>
     </defs>
     <use xlink:href="#DejaVuSans-Bold-34"/>
     <use xlink:href="#DejaVuSans-Bold-2e" x="69.580078"/>
     <use xlink:href="#DejaVuSans-Bold-20" x="107.568359"/>
     <use xlink:href="#DejaVuSans-Bold-4d" x="142.382812"/>
     <use xlink:href="#DejaVuSans-Bold-75" x="241.894531"/>
     <use xlink:href="#DejaVuSans-Bold-6c" x="313.085938"/>
     <use xlink:href="#DejaVuSans-Bold-74" x="347.363281"/>
     <use xlink:href="#DejaVuSans-Bold-69" x="395.166016"/>
     <use xlink:href="#DejaVuSans-Bold-2d" x="429.443359"/>
     <use xlink:href="#DejaVuSans-Bold-66" x="470.947266"/>
     <use xlink:href="#DejaVuSans-Bold-6c" x="514.453125"/>
     <use xlink:href="#DejaVuSans-Bold-61" x="548.730469"/>
     <use xlink:href="#DejaVuSans-Bold-70" x="616.210938"/>
    </g>
   </g>
  </g>
  <g id="text_11">
   <!-- I 4 tipi di flap — dal più semplice al più sofisticato -->
   <g transform="translate(208.374687 32.797813) scale(0.14 -0.14)">
    <defs>
     <path id="DejaVuSans-Bold-49" d="M 588 4666 
L 1791 4666 
L 1791 0 
L 588 0 
L 588 4666 
z
" transform="scale(0.015625)"/>
     <path id="DejaVuSans-Bold-2014" d="M 344 2156 
L 6056 2156 
L 6056 1350 
L 344 1350 
L 344 2156 
z
" transform="scale(0.015625)"/>
     <path id="DejaVuSans-Bold-f9" d="M 500 1363 
L 500 3500 
L 1625 3500 
L 1625 3150 
Q 1625 2866 1622 2436 
Q 1619 2006 1619 1863 
Q 1619 1441 1641 1255 
Q 1663 1069 1716 984 
Q 1784 875 1895 815 
Q 2006 756 2150 756 
Q 2500 756 2700 1025 
Q 2900 1294 2900 1772 
L 2900 3500 
L 4019 3500 
L 4019 0 
L 2900 0 
L 2900 506 
Q 2647 200 2364 54 
Q 2081 -91 1741 -91 
Q 1134 -91 817 281 
Q 500 653 500 1363 
z
M 1938 5119 
L 2819 3944 
L 2207 3944 
L 1054 5119 
L 1938 5119 
z
" transform="scale(0.015625)"/>
    </defs>
    <use xlink:href="#DejaVuSans-Bold-49"/>
    <use xlink:href="#DejaVuSans-Bold-20" x="37.207031"/>
    <use xlink:href="#DejaVuSans-Bold-34" x="72.021484"/>
    <use xlink:href="#DejaVuSans-Bold-20" x="141.601562"/>
    <use xlink:href="#DejaVuSans-Bold-74" x="176.416016"/>
    <use xlink:href="#DejaVuSans-Bold-69" x="224.21875"/>
    <use xlink:href="#DejaVuSans-Bold-70" x="258.496094"/>
    <use xlink:href="#DejaVuSans-Bold-69" x="330.078125"/>
    <use xlink:href="#DejaVuSans-Bold-20" x="364.355469"/>
    <use xlink:href="#DejaVuSans-Bold-64" x="399.169922"/>
    <use xlink:href="#DejaVuSans-Bold-69" x="470.751953"/>
    <use xlink:href="#DejaVuSans-Bold-20" x="505.029297"/>
    <use xlink:href="#DejaVuSans-Bold-66" x="539.84375"/>
    <use xlink:href="#DejaVuSans-Bold-6c" x="583.349609"/>
    <use xlink:href="#DejaVuSans-Bold-61" x="617.626953"/>
    <use xlink:href="#DejaVuSans-Bold-70" x="685.107422"/>
    <use xlink:href="#DejaVuSans-Bold-20" x="756.689453"/>
    <use xlink:href="#DejaVuSans-Bold-2014" x="791.503906"/>
    <use xlink:href="#DejaVuSans-Bold-20" x="891.503906"/>
    <use xlink:href="#DejaVuSans-Bold-64" x="926.318359"/>
    <use xlink:href="#DejaVuSans-Bold-61" x="997.900391"/>
    <use xlink:href="#DejaVuSans-Bold-6c" x="1065.380859"/>
    <use xlink:href="#DejaVuSans-Bold-20" x="1099.658203"/>
    <use xlink:href="#DejaVuSans-Bold-70" x="1134.472656"/>
    <use xlink:href="#DejaVuSans-Bold-69" x="1206.054688"/>
    <use xlink:href="#DejaVuSans-Bold-f9" x="1240.332031"/>
    <use xlink:href="#DejaVuSans-Bold-20" x="1311.523438"/>
    <use xlink:href="#DejaVuSans-Bold-73" x="1346.337891"/>
    <use xlink:href="#DejaVuSans-Bold-65" x="1405.859375"/>
    <use xlink:href="#DejaVuSans-Bold-6d" x="1473.681641"/>
    <use xlink:href="#DejaVuSans-Bold-70" x="1577.880859"/>
    <use xlink:href="#DejaVuSans-Bold-6c" x="1649.462891"/>
    <use xlink:href="#DejaVuSans-Bold-69" x="1683.740234"/>
    <use xlink:href="#DejaVuSans-Bold-63" x="1718.017578"/>
    <use xlink:href="#DejaVuSans-Bold-65" x="1777.294922"/>
    <use xlink:href="#DejaVuSans-Bold-20" x="1845.117188"/>
    <use xlink:href="#DejaVuSans-Bold-61" x="1879.931641"/>
    <use xlink:href="#DejaVuSans-Bold-6c" x="1947.412109"/>
    <use xlink:href="#DejaVuSans-Bold-20" x="1981.689453"/>
    <use xlink:href="#DejaVuSans-Bold-70" x="2016.503906"/>
    <use xlink:href="#DejaVuSans-Bold-69" x="2088.085938"/>
    <use xlink:href="#DejaVuSans-Bold-f9" x="2122.363281"/>
    <use xlink:href="#DejaVuSans-Bold-20" x="2193.554688"/>
    <use xlink:href="#DejaVuSans-Bold-73" x="2228.369141"/>
    <use xlink:href="#DejaVuSans-Bold-6f" x="2287.890625"/>
    <use xlink:href="#DejaVuSans-Bold-66" x="2356.591797"/>
    <use xlink:href="#DejaVuSans-Bold-69" x="2400.097656"/>
    <use xlink:href="#DejaVuSans-Bold-73" x="2434.375"/>
    <use xlink:href="#DejaVuSans-Bold-74" x="2493.896484"/>
    <use xlink:href="#DejaVuSans-Bold-69" x="2541.699219"/>
    <use xlink:href="#DejaVuSans-Bold-63" x="2575.976562"/>
    <use xlink:href="#DejaVuSans-Bold-61" x="2635.253906"/>
    <use xlink:href="#DejaVuSans-Bold-74" x="2702.734375"/>
    <use xlink:href="#DejaVuSans-Bold-6f" x="2750.537109"/>
   </g>
  </g>
 </g>
 <defs>
  <clipPath id="p8c110cfb86">
   <rect x="21.6" y="77.0175" width="378.18" height="189.09"/>
  </clipPath>
  <clipPath id="pd23aeb2dcb">
   <rect x="411.66" y="77.0175" width="378.18" height="189.09"/>
  </clipPath>
  <clipPath id="p300b89375b">
   <rect x="21.6" y="285.8625" width="378.18" height="189.09"/>
  </clipPath>
  <clipPath id="p05554f390f">
   <rect x="411.66" y="285.8625" width="378.18" height="189.09"/>
  </clipPath>
 </defs>
</svg>
