<?xml version="1.0" encoding="utf-8" standalone="no"?>
<!DOCTYPE svg PUBLIC "-//W3C//DTD SVG 1.1//EN"
  "http://www.w3.org/Graphics/SVG/1.1/DTD/svg11.dtd">
<svg xmlns:xlink="http://www.w3.org/1999/xlink" width="375.84pt" height="403.717969pt" viewBox="0 0 375.84 403.717969" xmlns="http://www.w3.org/2000/svg" version="1.1">
 <metadata>
  <rdf:RDF xmlns:dc="http://purl.org/dc/elements/1.1/" xmlns:cc="http://creativecommons.org/ns#" xmlns:rdf="http://www.w3.org/1999/02/22-rdf-syntax-ns#">
   <cc:Work>
    <dc:type rdf:resource="http://purl.org/dc/dcmitype/StillImage"/>
    <dc:date>2026-04-27T15:02:52.753205</dc:date>
    <dc:format>image/svg+xml</dc:format>
    <dc:creator>
     <cc:Agent>
      <dc:title>Matplotlib v3.9.4, https://matplotlib.org/</dc:title>
     </cc:Agent>
    </dc:creator>
   </cc:Work>
  </rdf:RDF>
 </metadata>
 <defs>
  <style type="text/css">*{stroke-linejoin: round; stroke-linecap: butt}</style>
 </defs>
 <g id="figure_1">
  <g id="patch_1">
   <path d="M 0 403.717969 
L 375.84 403.717969 
L 375.84 0 
L 0 0 
z
" style="fill: #ffffff"/>
  </g>
  <g id="axes_1">
   <g id="patch_2">
    <path d="M 141.72 190.849969 
L 234.12 190.849969 
Q 238.74 190.849969 238.74 186.229969 
L 238.74 152.965969 
Q 238.74 148.345969 234.12 148.345969 
L 141.72 148.345969 
Q 137.1 148.345969 137.1 152.965969 
L 137.1 186.229969 
Q 137.1 190.849969 141.72 190.849969 
z
" clip-path="url(#pb38fd26f76)" style="fill: #e3f2fd; stroke: #1976d2; stroke-width: 2; stroke-linejoin: miter"/>
   </g>
   <g id="patch_3">
    <path d="M 187.92 72.577969 
L 191.616 81.817969 
L 187.9662 81.817969 
L 187.9662 151.117969 
L 187.8738 151.117969 
L 187.8738 81.817969 
L 184.224 81.817969 
z
" clip-path="url(#pb38fd26f76)" style="fill: #d32f2f; stroke: #d32f2f; stroke-width: 3; stroke-linejoin: miter"/>
   </g>
   <g id="patch_4">
    <path d="M 187.92 266.617969 
L 184.224 257.377969 
L 187.8738 257.377969 
L 187.8738 188.077969 
L 187.9662 188.077969 
L 187.9662 257.377969 
L 191.616 257.377969 
z
" clip-path="url(#pb38fd26f76)" style="fill: #388e3c; stroke: #388e3c; stroke-width: 3; stroke-linejoin: miter"/>
   </g>
   <g id="patch_5">
    <path d="M 312.66 169.597969 
L 303.42 173.293969 
L 303.42 169.644169 
L 234.12 169.644169 
L 234.12 169.551769 
L 303.42 169.551769 
L 303.42 165.901969 
z
" clip-path="url(#pb38fd26f76)" style="fill: #fb8c00; stroke: #fb8c00; stroke-width: 3; stroke-linejoin: miter"/>
   </g>
   <g id="patch_6">
    <path d="M 63.18 169.597969 
L 72.42 165.901969 
L 72.42 169.551769 
L 141.72 169.551769 
L 141.72 169.644169 
L 72.42 169.644169 
L 72.42 173.293969 
z
" clip-path="url(#pb38fd26f76)" style="fill: #7b1fa2; stroke: #7b1fa2; stroke-width: 3; stroke-linejoin: miter"/>
   </g>
   <g id="text_1">
    <!-- Velivolo -->
    <g style="fill: #0d47a1" transform="translate(161.210625 172.909219) scale(0.12 -0.12)">
     <defs>
      <path id="DejaVuSans-Bold-56" d="M 31 4666 
L 1241 4666 
L 2478 1222 
L 3713 4666 
L 4922 4666 
L 3194 0 
L 1759 0 
L 31 4666 
z
" transform="scale(0.015625)"/>
      <path id="DejaVuSans-Bold-65" d="M 4031 1759 
L 4031 1441 
L 1416 1441 
Q 1456 1047 1700 850 
Q 1944 653 2381 653 
Q 2734 653 3104 758 
Q 3475 863 3866 1075 
L 3866 213 
Q 3469 63 3072 -14 
Q 2675 -91 2278 -91 
Q 1328 -91 801 392 
Q 275 875 275 1747 
Q 275 2603 792 3093 
Q 1309 3584 2216 3584 
Q 3041 3584 3536 3087 
Q 4031 2591 4031 1759 
z
M 2881 2131 
Q 2881 2450 2695 2645 
Q 2509 2841 2209 2841 
Q 1884 2841 1681 2658 
Q 1478 2475 1428 2131 
L 2881 2131 
z
" transform="scale(0.015625)"/>
      <path id="DejaVuSans-Bold-6c" d="M 538 4863 
L 1656 4863 
L 1656 0 
L 538 0 
L 538 4863 
z
" transform="scale(0.015625)"/>
      <path id="DejaVuSans-Bold-69" d="M 538 3500 
L 1656 3500 
L 1656 0 
L 538 0 
L 538 3500 
z
M 538 4863 
L 1656 4863 
L 1656 3950 
L 538 3950 
L 538 4863 
z
" transform="scale(0.015625)"/>
      <path id="DejaVuSans-Bold-76" d="M 97 3500 
L 1216 3500 
L 2088 1081 
L 2956 3500 
L 4078 3500 
L 2700 0 
L 1472 0 
L 97 3500 
z
" transform="scale(0.015625)"/>
      <path id="DejaVuSans-Bold-6f" d="M 2203 2784 
Q 1831 2784 1636 2517 
Q 1441 2250 1441 1747 
Q 1441 1244 1636 976 
Q 1831 709 2203 709 
Q 2569 709 2762 976 
Q 2956 1244 2956 1747 
Q 2956 2250 2762 2517 
Q 2569 2784 2203 2784 
z
M 2203 3584 
Q 3106 3584 3614 3096 
Q 4122 2609 4122 1747 
Q 4122 884 3614 396 
Q 3106 -91 2203 -91 
Q 1297 -91 786 396 
Q 275 884 275 1747 
Q 275 2609 786 3096 
Q 1297 3584 2203 3584 
z
" transform="scale(0.015625)"/>
     </defs>
     <use xlink:href="#DejaVuSans-Bold-56"/>
     <use xlink:href="#DejaVuSans-Bold-65" x="71.892578"/>
     <use xlink:href="#DejaVuSans-Bold-6c" x="139.714844"/>
     <use xlink:href="#DejaVuSans-Bold-69" x="173.992188"/>
     <use xlink:href="#DejaVuSans-Bold-76" x="208.269531"/>
     <use xlink:href="#DejaVuSans-Bold-6f" x="273.455078"/>
     <use xlink:href="#DejaVuSans-Bold-6c" x="342.15625"/>
     <use xlink:href="#DejaVuSans-Bold-6f" x="376.433594"/>
    </g>
   </g>
   <g id="text_2">
    <!-- L (portanza) -->
    <g style="fill: #b71c1c" transform="translate(195.312 104.917969) scale(0.13 -0.13)">
     <defs>
      <path id="DejaVuSans-Bold-4c" d="M 588 4666 
L 1791 4666 
L 1791 909 
L 3903 909 
L 3903 0 
L 588 0 
L 588 4666 
z
" transform="scale(0.015625)"/>
      <path id="DejaVuSans-Bold-20" transform="scale(0.015625)"/>
      <path id="DejaVuSans-Bold-28" d="M 2413 -844 
L 1484 -844 
Q 1006 -72 778 623 
Q 550 1319 550 2003 
Q 550 2688 779 3389 
Q 1009 4091 1484 4856 
L 2413 4856 
Q 2013 4116 1813 3408 
Q 1613 2700 1613 2009 
Q 1613 1319 1811 609 
Q 2009 -100 2413 -844 
z
" transform="scale(0.015625)"/>
      <path id="DejaVuSans-Bold-70" d="M 1656 506 
L 1656 -1331 
L 538 -1331 
L 538 3500 
L 1656 3500 
L 1656 2988 
Q 1888 3294 2169 3439 
Q 2450 3584 2816 3584 
Q 3463 3584 3878 3070 
Q 4294 2556 4294 1747 
Q 4294 938 3878 423 
Q 3463 -91 2816 -91 
Q 2450 -91 2169 54 
Q 1888 200 1656 506 
z
M 2400 2772 
Q 2041 2772 1848 2508 
Q 1656 2244 1656 1747 
Q 1656 1250 1848 986 
Q 2041 722 2400 722 
Q 2759 722 2948 984 
Q 3138 1247 3138 1747 
Q 3138 2247 2948 2509 
Q 2759 2772 2400 2772 
z
" transform="scale(0.015625)"/>
      <path id="DejaVuSans-Bold-72" d="M 3138 2547 
Q 2991 2616 2845 2648 
Q 2700 2681 2553 2681 
Q 2122 2681 1889 2404 
Q 1656 2128 1656 1613 
L 1656 0 
L 538 0 
L 538 3500 
L 1656 3500 
L 1656 2925 
Q 1872 3269 2151 3426 
Q 2431 3584 2822 3584 
Q 2878 3584 2943 3579 
Q 3009 3575 3134 3559 
L 3138 2547 
z
" transform="scale(0.015625)"/>
      <path id="DejaVuSans-Bold-74" d="M 1759 4494 
L 1759 3500 
L 2913 3500 
L 2913 2700 
L 1759 2700 
L 1759 1216 
Q 1759 972 1856 886 
Q 1953 800 2241 800 
L 2816 800 
L 2816 0 
L 1856 0 
Q 1194 0 917 276 
Q 641 553 641 1216 
L 641 2700 
L 84 2700 
L 84 3500 
L 641 3500 
L 641 4494 
L 1759 4494 
z
" transform="scale(0.015625)"/>
      <path id="DejaVuSans-Bold-61" d="M 2106 1575 
Q 1756 1575 1579 1456 
Q 1403 1338 1403 1106 
Q 1403 894 1545 773 
Q 1688 653 1941 653 
Q 2256 653 2472 879 
Q 2688 1106 2688 1447 
L 2688 1575 
L 2106 1575 
z
M 3816 1997 
L 3816 0 
L 2688 0 
L 2688 519 
Q 2463 200 2181 54 
Q 1900 -91 1497 -91 
Q 953 -91 614 226 
Q 275 544 275 1050 
Q 275 1666 698 1953 
Q 1122 2241 2028 2241 
L 2688 2241 
L 2688 2328 
Q 2688 2594 2478 2717 
Q 2269 2841 1825 2841 
Q 1466 2841 1156 2769 
Q 847 2697 581 2553 
L 581 3406 
Q 941 3494 1303 3539 
Q 1666 3584 2028 3584 
Q 2975 3584 3395 3211 
Q 3816 2838 3816 1997 
z
" transform="scale(0.015625)"/>
      <path id="DejaVuSans-Bold-6e" d="M 4056 2131 
L 4056 0 
L 2931 0 
L 2931 347 
L 2931 1631 
Q 2931 2084 2911 2256 
Q 2891 2428 2841 2509 
Q 2775 2619 2662 2680 
Q 2550 2741 2406 2741 
Q 2056 2741 1856 2470 
Q 1656 2200 1656 1722 
L 1656 0 
L 538 0 
L 538 3500 
L 1656 3500 
L 1656 2988 
Q 1909 3294 2193 3439 
Q 2478 3584 2822 3584 
Q 3428 3584 3742 3212 
Q 4056 2841 4056 2131 
z
" transform="scale(0.015625)"/>
      <path id="DejaVuSans-Bold-7a" d="M 366 3500 
L 3419 3500 
L 3419 2719 
L 1575 800 
L 3419 800 
L 3419 0 
L 288 0 
L 288 781 
L 2131 2700 
L 366 2700 
L 366 3500 
z
" transform="scale(0.015625)"/>
      <path id="DejaVuSans-Bold-29" d="M 513 -844 
Q 913 -100 1113 609 
Q 1313 1319 1313 2009 
Q 1313 2700 1113 3408 
Q 913 4116 513 4856 
L 1441 4856 
Q 1916 4091 2145 3389 
Q 2375 2688 2375 2003 
Q 2375 1319 2147 623 
Q 1919 -72 1441 -844 
L 513 -844 
z
" transform="scale(0.015625)"/>
     </defs>
     <use xlink:href="#DejaVuSans-Bold-4c"/>
     <use xlink:href="#DejaVuSans-Bold-20" x="63.720703"/>
     <use xlink:href="#DejaVuSans-Bold-28" x="98.535156"/>
     <use xlink:href="#DejaVuSans-Bold-70" x="144.238281"/>
     <use xlink:href="#DejaVuSans-Bold-6f" x="215.820312"/>
     <use xlink:href="#DejaVuSans-Bold-72" x="284.521484"/>
     <use xlink:href="#DejaVuSans-Bold-74" x="333.837891"/>
     <use xlink:href="#DejaVuSans-Bold-61" x="381.640625"/>
     <use xlink:href="#DejaVuSans-Bold-6e" x="449.121094"/>
     <use xlink:href="#DejaVuSans-Bold-7a" x="520.3125"/>
     <use xlink:href="#DejaVuSans-Bold-61" x="578.515625"/>
     <use xlink:href="#DejaVuSans-Bold-29" x="645.996094"/>
    </g>
   </g>
   <g id="text_3">
    <!-- W = m·g (peso) -->
    <g style="fill: #1b5e20" transform="translate(195.312 234.277969) scale(0.13 -0.13)">
     <defs>
      <path id="DejaVuSans-Bold-57" d="M 191 4666 
L 1344 4666 
L 2150 1275 
L 2950 4666 
L 4109 4666 
L 4909 1275 
L 5716 4666 
L 6859 4666 
L 5759 0 
L 4372 0 
L 3525 3547 
L 2688 0 
L 1300 0 
L 191 4666 
z
" transform="scale(0.015625)"/>
      <path id="DejaVuSans-Bold-3d" d="M 678 3084 
L 4684 3084 
L 4684 2350 
L 678 2350 
L 678 3084 
z
M 678 1663 
L 4684 1663 
L 4684 922 
L 678 922 
L 678 1663 
z
" transform="scale(0.015625)"/>
      <path id="DejaVuSans-Bold-6d" d="M 3781 2919 
Q 3994 3244 4286 3414 
Q 4578 3584 4928 3584 
Q 5531 3584 5847 3212 
Q 6163 2841 6163 2131 
L 6163 0 
L 5038 0 
L 5038 1825 
Q 5041 1866 5042 1909 
Q 5044 1953 5044 2034 
Q 5044 2406 4934 2573 
Q 4825 2741 4581 2741 
Q 4263 2741 4089 2478 
Q 3916 2216 3909 1719 
L 3909 0 
L 2784 0 
L 2784 1825 
Q 2784 2406 2684 2573 
Q 2584 2741 2328 2741 
Q 2006 2741 1831 2477 
Q 1656 2213 1656 1722 
L 1656 0 
L 531 0 
L 531 3500 
L 1656 3500 
L 1656 2988 
Q 1863 3284 2130 3434 
Q 2397 3584 2719 3584 
Q 3081 3584 3359 3409 
Q 3638 3234 3781 2919 
z
" transform="scale(0.015625)"/>
      <path id="DejaVuSans-Bold-b7" d="M 653 2828 
L 1778 2828 
L 1778 1619 
L 653 1619 
L 653 2828 
z
" transform="scale(0.015625)"/>
      <path id="DejaVuSans-Bold-67" d="M 2919 594 
Q 2688 288 2409 144 
Q 2131 0 1766 0 
Q 1125 0 706 504 
Q 288 1009 288 1791 
Q 288 2575 706 3076 
Q 1125 3578 1766 3578 
Q 2131 3578 2409 3434 
Q 2688 3291 2919 2981 
L 2919 3500 
L 4044 3500 
L 4044 353 
Q 4044 -491 3511 -936 
Q 2978 -1381 1966 -1381 
Q 1638 -1381 1331 -1331 
Q 1025 -1281 716 -1178 
L 716 -306 
Q 1009 -475 1290 -558 
Q 1572 -641 1856 -641 
Q 2406 -641 2662 -400 
Q 2919 -159 2919 353 
L 2919 594 
z
M 2181 2772 
Q 1834 2772 1640 2515 
Q 1447 2259 1447 1791 
Q 1447 1309 1634 1061 
Q 1822 813 2181 813 
Q 2531 813 2725 1069 
Q 2919 1325 2919 1791 
Q 2919 2259 2725 2515 
Q 2531 2772 2181 2772 
z
" transform="scale(0.015625)"/>
      <path id="DejaVuSans-Bold-73" d="M 3272 3391 
L 3272 2541 
Q 2913 2691 2578 2766 
Q 2244 2841 1947 2841 
Q 1628 2841 1473 2761 
Q 1319 2681 1319 2516 
Q 1319 2381 1436 2309 
Q 1553 2238 1856 2203 
L 2053 2175 
Q 2913 2066 3209 1816 
Q 3506 1566 3506 1031 
Q 3506 472 3093 190 
Q 2681 -91 1863 -91 
Q 1516 -91 1145 -36 
Q 775 19 384 128 
L 384 978 
Q 719 816 1070 734 
Q 1422 653 1784 653 
Q 2113 653 2278 743 
Q 2444 834 2444 1013 
Q 2444 1163 2330 1236 
Q 2216 1309 1875 1350 
L 1678 1375 
Q 931 1469 631 1722 
Q 331 1975 331 2491 
Q 331 3047 712 3315 
Q 1094 3584 1881 3584 
Q 2191 3584 2531 3537 
Q 2872 3491 3272 3391 
z
" transform="scale(0.015625)"/>
     </defs>
     <use xlink:href="#DejaVuSans-Bold-57"/>
     <use xlink:href="#DejaVuSans-Bold-20" x="110.302734"/>
     <use xlink:href="#DejaVuSans-Bold-3d" x="145.117188"/>
     <use xlink:href="#DejaVuSans-Bold-20" x="228.90625"/>
     <use xlink:href="#DejaVuSans-Bold-6d" x="263.720703"/>
     <use xlink:href="#DejaVuSans-Bold-b7" x="367.919922"/>
     <use xlink:href="#DejaVuSans-Bold-67" x="405.908203"/>
     <use xlink:href="#DejaVuSans-Bold-20" x="477.490234"/>
     <use xlink:href="#DejaVuSans-Bold-28" x="512.304688"/>
     <use xlink:href="#DejaVuSans-Bold-70" x="558.007812"/>
     <use xlink:href="#DejaVuSans-Bold-65" x="629.589844"/>
     <use xlink:href="#DejaVuSans-Bold-73" x="697.412109"/>
     <use xlink:href="#DejaVuSans-Bold-6f" x="756.933594"/>
     <use xlink:href="#DejaVuSans-Bold-29" x="825.634766"/>
    </g>
   </g>
   <g id="text_4">
    <!-- T (spinta) -->
    <g style="fill: #e65100" transform="translate(252.6 160.357969) scale(0.13 -0.13)">
     <defs>
      <path id="DejaVuSans-Bold-54" d="M 31 4666 
L 4331 4666 
L 4331 3756 
L 2784 3756 
L 2784 0 
L 1581 0 
L 1581 3756 
L 31 3756 
L 31 4666 
z
" transform="scale(0.015625)"/>
     </defs>
     <use xlink:href="#DejaVuSans-Bold-54"/>
     <use xlink:href="#DejaVuSans-Bold-20" x="68.212891"/>
     <use xlink:href="#DejaVuSans-Bold-28" x="103.027344"/>
     <use xlink:href="#DejaVuSans-Bold-73" x="148.730469"/>
     <use xlink:href="#DejaVuSans-Bold-70" x="208.251953"/>
     <use xlink:href="#DejaVuSans-Bold-69" x="279.833984"/>
     <use xlink:href="#DejaVuSans-Bold-6e" x="314.111328"/>
     <use xlink:href="#DejaVuSans-Bold-74" x="385.302734"/>
     <use xlink:href="#DejaVuSans-Bold-61" x="433.105469"/>
     <use xlink:href="#DejaVuSans-Bold-29" x="500.585938"/>
    </g>
   </g>
   <g id="text_5">
    <!-- D (resistenza) -->
    <g style="fill: #4a148c" transform="translate(58.56 160.357969) scale(0.13 -0.13)">
     <defs>
      <path id="DejaVuSans-Bold-44" d="M 1791 3756 
L 1791 909 
L 2222 909 
Q 2959 909 3348 1275 
Q 3738 1641 3738 2338 
Q 3738 3031 3350 3393 
Q 2963 3756 2222 3756 
L 1791 3756 
z
M 588 4666 
L 1856 4666 
Q 2919 4666 3439 4514 
Q 3959 4363 4331 4000 
Q 4659 3684 4818 3271 
Q 4978 2859 4978 2338 
Q 4978 1809 4818 1395 
Q 4659 981 4331 666 
Q 3956 303 3431 151 
Q 2906 0 1856 0 
L 588 0 
L 588 4666 
z
" transform="scale(0.015625)"/>
     </defs>
     <use xlink:href="#DejaVuSans-Bold-44"/>
     <use xlink:href="#DejaVuSans-Bold-20" x="83.007812"/>
     <use xlink:href="#DejaVuSans-Bold-28" x="117.822266"/>
     <use xlink:href="#DejaVuSans-Bold-72" x="163.525391"/>
     <use xlink:href="#DejaVuSans-Bold-65" x="212.841797"/>
     <use xlink:href="#DejaVuSans-Bold-73" x="280.664062"/>
     <use xlink:href="#DejaVuSans-Bold-69" x="340.185547"/>
     <use xlink:href="#DejaVuSans-Bold-73" x="374.462891"/>
     <use xlink:href="#DejaVuSans-Bold-74" x="433.984375"/>
     <use xlink:href="#DejaVuSans-Bold-65" x="481.787109"/>
     <use xlink:href="#DejaVuSans-Bold-6e" x="549.609375"/>
     <use xlink:href="#DejaVuSans-Bold-7a" x="620.800781"/>
     <use xlink:href="#DejaVuSans-Bold-61" x="679.003906"/>
     <use xlink:href="#DejaVuSans-Bold-29" x="746.484375"/>
    </g>
   </g>
   <g id="text_6">
    <!-- Volo livellato a velocità costante: -->
    <g transform="translate(75.188438 317.437969) scale(0.12 -0.12)">
     <defs>
      <path id="DejaVuSans-Bold-63" d="M 3366 3391 
L 3366 2478 
Q 3138 2634 2908 2709 
Q 2678 2784 2431 2784 
Q 1963 2784 1702 2511 
Q 1441 2238 1441 1747 
Q 1441 1256 1702 982 
Q 1963 709 2431 709 
Q 2694 709 2930 787 
Q 3166 866 3366 1019 
L 3366 103 
Q 3103 6 2833 -42 
Q 2563 -91 2291 -91 
Q 1344 -91 809 395 
Q 275 881 275 1747 
Q 275 2613 809 3098 
Q 1344 3584 2291 3584 
Q 2566 3584 2833 3536 
Q 3100 3488 3366 3391 
z
" transform="scale(0.015625)"/>
      <path id="DejaVuSans-Bold-e0" d="M 2106 1575 
Q 1756 1575 1579 1456 
Q 1403 1338 1403 1106 
Q 1403 894 1545 773 
Q 1688 653 1941 653 
Q 2256 653 2472 879 
Q 2688 1106 2688 1447 
L 2688 1575 
L 2106 1575 
z
M 3816 1997 
L 3816 0 
L 2688 0 
L 2688 519 
Q 2463 200 2181 54 
Q 1900 -91 1497 -91 
Q 953 -91 614 226 
Q 275 544 275 1050 
Q 275 1666 698 1953 
Q 1122 2241 2028 2241 
L 2688 2241 
L 2688 2328 
Q 2688 2594 2478 2717 
Q 2269 2841 1825 2841 
Q 1466 2841 1156 2769 
Q 847 2697 581 2553 
L 581 3406 
Q 941 3494 1303 3539 
Q 1666 3584 2028 3584 
Q 2975 3584 3395 3211 
Q 3816 2838 3816 1997 
z
M 1762 5119 
L 2643 3944 
L 2031 3944 
L 878 5119 
L 1762 5119 
z
" transform="scale(0.015625)"/>
      <path id="DejaVuSans-Bold-3a" d="M 716 3500 
L 1844 3500 
L 1844 2291 
L 716 2291 
L 716 3500 
z
M 716 1209 
L 1844 1209 
L 1844 0 
L 716 0 
L 716 1209 
z
" transform="scale(0.015625)"/>
     </defs>
     <use xlink:href="#DejaVuSans-Bold-56"/>
     <use xlink:href="#DejaVuSans-Bold-6f" x="71.892578"/>
     <use xlink:href="#DejaVuSans-Bold-6c" x="140.59375"/>
     <use xlink:href="#DejaVuSans-Bold-6f" x="174.871094"/>
     <use xlink:href="#DejaVuSans-Bold-20" x="243.572266"/>
     <use xlink:href="#DejaVuSans-Bold-6c" x="278.386719"/>
     <use xlink:href="#DejaVuSans-Bold-69" x="312.664062"/>
     <use xlink:href="#DejaVuSans-Bold-76" x="346.941406"/>
     <use xlink:href="#DejaVuSans-Bold-65" x="412.126953"/>
     <use xlink:href="#DejaVuSans-Bold-6c" x="479.949219"/>
     <use xlink:href="#DejaVuSans-Bold-6c" x="514.226562"/>
     <use xlink:href="#DejaVuSans-Bold-61" x="548.503906"/>
     <use xlink:href="#DejaVuSans-Bold-74" x="615.984375"/>
     <use xlink:href="#DejaVuSans-Bold-6f" x="663.787109"/>
     <use xlink:href="#DejaVuSans-Bold-20" x="732.488281"/>
     <use xlink:href="#DejaVuSans-Bold-61" x="767.302734"/>
     <use xlink:href="#DejaVuSans-Bold-20" x="834.783203"/>
     <use xlink:href="#DejaVuSans-Bold-76" x="869.597656"/>
     <use xlink:href="#DejaVuSans-Bold-65" x="934.783203"/>
     <use xlink:href="#DejaVuSans-Bold-6c" x="1002.605469"/>
     <use xlink:href="#DejaVuSans-Bold-6f" x="1036.882812"/>
     <use xlink:href="#DejaVuSans-Bold-63" x="1105.583984"/>
     <use xlink:href="#DejaVuSans-Bold-69" x="1164.861328"/>
     <use xlink:href="#DejaVuSans-Bold-74" x="1199.138672"/>
     <use xlink:href="#DejaVuSans-Bold-e0" x="1246.941406"/>
     <use xlink:href="#DejaVuSans-Bold-20" x="1314.421875"/>
     <use xlink:href="#DejaVuSans-Bold-63" x="1349.236328"/>
     <use xlink:href="#DejaVuSans-Bold-6f" x="1408.513672"/>
     <use xlink:href="#DejaVuSans-Bold-73" x="1477.214844"/>
     <use xlink:href="#DejaVuSans-Bold-74" x="1536.736328"/>
     <use xlink:href="#DejaVuSans-Bold-61" x="1584.539062"/>
     <use xlink:href="#DejaVuSans-Bold-6e" x="1652.019531"/>
     <use xlink:href="#DejaVuSans-Bold-74" x="1723.210938"/>
     <use xlink:href="#DejaVuSans-Bold-65" x="1771.013672"/>
     <use xlink:href="#DejaVuSans-Bold-3a" x="1838.835938"/>
    </g>
   </g>
   <g id="text_7">
    <!-- L = W   (equilibrio verticale) -->
    <g transform="translate(110.546172 340.537969) scale(0.11 -0.11)">
     <defs>
      <path id="DejaVuSans-4c" d="M 628 4666 
L 1259 4666 
L 1259 531 
L 3531 531 
L 3531 0 
L 628 0 
L 628 4666 
z
" transform="scale(0.015625)"/>
      <path id="DejaVuSans-20" transform="scale(0.015625)"/>
      <path id="DejaVuSans-3d" d="M 678 2906 
L 4684 2906 
L 4684 2381 
L 678 2381 
L 678 2906 
z
M 678 1631 
L 4684 1631 
L 4684 1100 
L 678 1100 
L 678 1631 
z
" transform="scale(0.015625)"/>
      <path id="DejaVuSans-57" d="M 213 4666 
L 850 4666 
L 1831 722 
L 2809 4666 
L 3519 4666 
L 4500 722 
L 5478 4666 
L 6119 4666 
L 4947 0 
L 4153 0 
L 3169 4050 
L 2175 0 
L 1381 0 
L 213 4666 
z
" transform="scale(0.015625)"/>
      <path id="DejaVuSans-28" d="M 1984 4856 
Q 1566 4138 1362 3434 
Q 1159 2731 1159 2009 
Q 1159 1288 1364 580 
Q 1569 -128 1984 -844 
L 1484 -844 
Q 1016 -109 783 600 
Q 550 1309 550 2009 
Q 550 2706 781 3412 
Q 1013 4119 1484 4856 
L 1984 4856 
z
" transform="scale(0.015625)"/>
      <path id="DejaVuSans-65" d="M 3597 1894 
L 3597 1613 
L 953 1613 
Q 991 1019 1311 708 
Q 1631 397 2203 397 
Q 2534 397 2845 478 
Q 3156 559 3463 722 
L 3463 178 
Q 3153 47 2828 -22 
Q 2503 -91 2169 -91 
Q 1331 -91 842 396 
Q 353 884 353 1716 
Q 353 2575 817 3079 
Q 1281 3584 2069 3584 
Q 2775 3584 3186 3129 
Q 3597 2675 3597 1894 
z
M 3022 2063 
Q 3016 2534 2758 2815 
Q 2500 3097 2075 3097 
Q 1594 3097 1305 2825 
Q 1016 2553 972 2059 
L 3022 2063 
z
" transform="scale(0.015625)"/>
      <path id="DejaVuSans-71" d="M 947 1747 
Q 947 1113 1208 752 
Q 1469 391 1925 391 
Q 2381 391 2643 752 
Q 2906 1113 2906 1747 
Q 2906 2381 2643 2742 
Q 2381 3103 1925 3103 
Q 1469 3103 1208 2742 
Q 947 2381 947 1747 
z
M 2906 525 
Q 2725 213 2448 61 
Q 2172 -91 1784 -91 
Q 1150 -91 751 415 
Q 353 922 353 1747 
Q 353 2572 751 3078 
Q 1150 3584 1784 3584 
Q 2172 3584 2448 3432 
Q 2725 3281 2906 2969 
L 2906 3500 
L 3481 3500 
L 3481 -1331 
L 2906 -1331 
L 2906 525 
z
" transform="scale(0.015625)"/>
      <path id="DejaVuSans-75" d="M 544 1381 
L 544 3500 
L 1119 3500 
L 1119 1403 
Q 1119 906 1312 657 
Q 1506 409 1894 409 
Q 2359 409 2629 706 
Q 2900 1003 2900 1516 
L 2900 3500 
L 3475 3500 
L 3475 0 
L 2900 0 
L 2900 538 
Q 2691 219 2414 64 
Q 2138 -91 1772 -91 
Q 1169 -91 856 284 
Q 544 659 544 1381 
z
M 1991 3584 
L 1991 3584 
z
" transform="scale(0.015625)"/>
      <path id="DejaVuSans-69" d="M 603 3500 
L 1178 3500 
L 1178 0 
L 603 0 
L 603 3500 
z
M 603 4863 
L 1178 4863 
L 1178 4134 
L 603 4134 
L 603 4863 
z
" transform="scale(0.015625)"/>
      <path id="DejaVuSans-6c" d="M 603 4863 
L 1178 4863 
L 1178 0 
L 603 0 
L 603 4863 
z
" transform="scale(0.015625)"/>
      <path id="DejaVuSans-62" d="M 3116 1747 
Q 3116 2381 2855 2742 
Q 2594 3103 2138 3103 
Q 1681 3103 1420 2742 
Q 1159 2381 1159 1747 
Q 1159 1113 1420 752 
Q 1681 391 2138 391 
Q 2594 391 2855 752 
Q 3116 1113 3116 1747 
z
M 1159 2969 
Q 1341 3281 1617 3432 
Q 1894 3584 2278 3584 
Q 2916 3584 3314 3078 
Q 3713 2572 3713 1747 
Q 3713 922 3314 415 
Q 2916 -91 2278 -91 
Q 1894 -91 1617 61 
Q 1341 213 1159 525 
L 1159 0 
L 581 0 
L 581 4863 
L 1159 4863 
L 1159 2969 
z
" transform="scale(0.015625)"/>
      <path id="DejaVuSans-72" d="M 2631 2963 
Q 2534 3019 2420 3045 
Q 2306 3072 2169 3072 
Q 1681 3072 1420 2755 
Q 1159 2438 1159 1844 
L 1159 0 
L 581 0 
L 581 3500 
L 1159 3500 
L 1159 2956 
Q 1341 3275 1631 3429 
Q 1922 3584 2338 3584 
Q 2397 3584 2469 3576 
Q 2541 3569 2628 3553 
L 2631 2963 
z
" transform="scale(0.015625)"/>
      <path id="DejaVuSans-6f" d="M 1959 3097 
Q 1497 3097 1228 2736 
Q 959 2375 959 1747 
Q 959 1119 1226 758 
Q 1494 397 1959 397 
Q 2419 397 2687 759 
Q 2956 1122 2956 1747 
Q 2956 2369 2687 2733 
Q 2419 3097 1959 3097 
z
M 1959 3584 
Q 2709 3584 3137 3096 
Q 3566 2609 3566 1747 
Q 3566 888 3137 398 
Q 2709 -91 1959 -91 
Q 1206 -91 779 398 
Q 353 888 353 1747 
Q 353 2609 779 3096 
Q 1206 3584 1959 3584 
z
" transform="scale(0.015625)"/>
      <path id="DejaVuSans-76" d="M 191 3500 
L 800 3500 
L 1894 563 
L 2988 3500 
L 3597 3500 
L 2284 0 
L 1503 0 
L 191 3500 
z
" transform="scale(0.015625)"/>
      <path id="DejaVuSans-74" d="M 1172 4494 
L 1172 3500 
L 2356 3500 
L 2356 3053 
L 1172 3053 
L 1172 1153 
Q 1172 725 1289 603 
Q 1406 481 1766 481 
L 2356 481 
L 2356 0 
L 1766 0 
Q 1100 0 847 248 
Q 594 497 594 1153 
L 594 3053 
L 172 3053 
L 172 3500 
L 594 3500 
L 594 4494 
L 1172 4494 
z
" transform="scale(0.015625)"/>
      <path id="DejaVuSans-63" d="M 3122 3366 
L 3122 2828 
Q 2878 2963 2633 3030 
Q 2388 3097 2138 3097 
Q 1578 3097 1268 2742 
Q 959 2388 959 1747 
Q 959 1106 1268 751 
Q 1578 397 2138 397 
Q 2388 397 2633 464 
Q 2878 531 3122 666 
L 3122 134 
Q 2881 22 2623 -34 
Q 2366 -91 2075 -91 
Q 1284 -91 818 406 
Q 353 903 353 1747 
Q 353 2603 823 3093 
Q 1294 3584 2113 3584 
Q 2378 3584 2631 3529 
Q 2884 3475 3122 3366 
z
" transform="scale(0.015625)"/>
      <path id="DejaVuSans-61" d="M 2194 1759 
Q 1497 1759 1228 1600 
Q 959 1441 959 1056 
Q 959 750 1161 570 
Q 1363 391 1709 391 
Q 2188 391 2477 730 
Q 2766 1069 2766 1631 
L 2766 1759 
L 2194 1759 
z
M 3341 1997 
L 3341 0 
L 2766 0 
L 2766 531 
Q 2569 213 2275 61 
Q 1981 -91 1556 -91 
Q 1019 -91 701 211 
Q 384 513 384 1019 
Q 384 1609 779 1909 
Q 1175 2209 1959 2209 
L 2766 2209 
L 2766 2266 
Q 2766 2663 2505 2880 
Q 2244 3097 1772 3097 
Q 1472 3097 1187 3025 
Q 903 2953 641 2809 
L 641 3341 
Q 956 3463 1253 3523 
Q 1550 3584 1831 3584 
Q 2591 3584 2966 3190 
Q 3341 2797 3341 1997 
z
" transform="scale(0.015625)"/>
      <path id="DejaVuSans-29" d="M 513 4856 
L 1013 4856 
Q 1481 4119 1714 3412 
Q 1947 2706 1947 2009 
Q 1947 1309 1714 600 
Q 1481 -109 1013 -844 
L 513 -844 
Q 928 -128 1133 580 
Q 1338 1288 1338 2009 
Q 1338 2731 1133 3434 
Q 928 4138 513 4856 
z
" transform="scale(0.015625)"/>
     </defs>
     <use xlink:href="#DejaVuSans-4c"/>
     <use xlink:href="#DejaVuSans-20" x="55.712891"/>
     <use xlink:href="#DejaVuSans-3d" x="87.5"/>
     <use xlink:href="#DejaVuSans-20" x="171.289062"/>
     <use xlink:href="#DejaVuSans-57" x="203.076172"/>
     <use xlink:href="#DejaVuSans-20" x="301.953125"/>
     <use xlink:href="#DejaVuSans-20" x="333.740234"/>
     <use xlink:href="#DejaVuSans-20" x="365.527344"/>
     <use xlink:href="#DejaVuSans-28" x="397.314453"/>
     <use xlink:href="#DejaVuSans-65" x="436.328125"/>
     <use xlink:href="#DejaVuSans-71" x="497.851562"/>
     <use xlink:href="#DejaVuSans-75" x="561.328125"/>
     <use xlink:href="#DejaVuSans-69" x="624.707031"/>
     <use xlink:href="#DejaVuSans-6c" x="652.490234"/>
     <use xlink:href="#DejaVuSans-69" x="680.273438"/>
     <use xlink:href="#DejaVuSans-62" x="708.056641"/>
     <use xlink:href="#DejaVuSans-72" x="771.533203"/>
     <use xlink:href="#DejaVuSans-69" x="812.646484"/>
     <use xlink:href="#DejaVuSans-6f" x="840.429688"/>
     <use xlink:href="#DejaVuSans-20" x="901.611328"/>
     <use xlink:href="#DejaVuSans-76" x="933.398438"/>
     <use xlink:href="#DejaVuSans-65" x="992.578125"/>
     <use xlink:href="#DejaVuSans-72" x="1054.101562"/>
     <use xlink:href="#DejaVuSans-74" x="1095.214844"/>
     <use xlink:href="#DejaVuSans-69" x="1134.423828"/>
     <use xlink:href="#DejaVuSans-63" x="1162.207031"/>
     <use xlink:href="#DejaVuSans-61" x="1217.1875"/>
     <use xlink:href="#DejaVuSans-6c" x="1278.466797"/>
     <use xlink:href="#DejaVuSans-65" x="1306.25"/>
     <use xlink:href="#DejaVuSans-29" x="1367.773438"/>
    </g>
   </g>
   <g id="text_8">
    <!-- T = D   (equilibrio orizzontale) -->
    <g transform="translate(105.128672 359.017969) scale(0.11 -0.11)">
     <defs>
      <path id="DejaVuSans-54" d="M -19 4666 
L 3928 4666 
L 3928 4134 
L 2272 4134 
L 2272 0 
L 1638 0 
L 1638 4134 
L -19 4134 
L -19 4666 
z
" transform="scale(0.015625)"/>
      <path id="DejaVuSans-44" d="M 1259 4147 
L 1259 519 
L 2022 519 
Q 2988 519 3436 956 
Q 3884 1394 3884 2338 
Q 3884 3275 3436 3711 
Q 2988 4147 2022 4147 
L 1259 4147 
z
M 628 4666 
L 1925 4666 
Q 3281 4666 3915 4102 
Q 4550 3538 4550 2338 
Q 4550 1131 3912 565 
Q 3275 0 1925 0 
L 628 0 
L 628 4666 
z
" transform="scale(0.015625)"/>
      <path id="DejaVuSans-7a" d="M 353 3500 
L 3084 3500 
L 3084 2975 
L 922 459 
L 3084 459 
L 3084 0 
L 275 0 
L 275 525 
L 2438 3041 
L 353 3041 
L 353 3500 
z
" transform="scale(0.015625)"/>
      <path id="DejaVuSans-6e" d="M 3513 2113 
L 3513 0 
L 2938 0 
L 2938 2094 
Q 2938 2591 2744 2837 
Q 2550 3084 2163 3084 
Q 1697 3084 1428 2787 
Q 1159 2491 1159 1978 
L 1159 0 
L 581 0 
L 581 3500 
L 1159 3500 
L 1159 2956 
Q 1366 3272 1645 3428 
Q 1925 3584 2291 3584 
Q 2894 3584 3203 3211 
Q 3513 2838 3513 2113 
z
" transform="scale(0.015625)"/>
     </defs>
     <use xlink:href="#DejaVuSans-54"/>
     <use xlink:href="#DejaVuSans-20" x="61.083984"/>
     <use xlink:href="#DejaVuSans-3d" x="92.871094"/>
     <use xlink:href="#DejaVuSans-20" x="176.660156"/>
     <use xlink:href="#DejaVuSans-44" x="208.447266"/>
     <use xlink:href="#DejaVuSans-20" x="285.449219"/>
     <use xlink:href="#DejaVuSans-20" x="317.236328"/>
     <use xlink:href="#DejaVuSans-20" x="349.023438"/>
     <use xlink:href="#DejaVuSans-28" x="380.810547"/>
     <use xlink:href="#DejaVuSans-65" x="419.824219"/>
     <use xlink:href="#DejaVuSans-71" x="481.347656"/>
     <use xlink:href="#DejaVuSans-75" x="544.824219"/>
     <use xlink:href="#DejaVuSans-69" x="608.203125"/>
     <use xlink:href="#DejaVuSans-6c" x="635.986328"/>
     <use xlink:href="#DejaVuSans-69" x="663.769531"/>
     <use xlink:href="#DejaVuSans-62" x="691.552734"/>
     <use xlink:href="#DejaVuSans-72" x="755.029297"/>
     <use xlink:href="#DejaVuSans-69" x="796.142578"/>
     <use xlink:href="#DejaVuSans-6f" x="823.925781"/>
     <use xlink:href="#DejaVuSans-20" x="885.107422"/>
     <use xlink:href="#DejaVuSans-6f" x="916.894531"/>
     <use xlink:href="#DejaVuSans-72" x="978.076172"/>
     <use xlink:href="#DejaVuSans-69" x="1019.189453"/>
     <use xlink:href="#DejaVuSans-7a" x="1046.972656"/>
     <use xlink:href="#DejaVuSans-7a" x="1099.462891"/>
     <use xlink:href="#DejaVuSans-6f" x="1151.953125"/>
     <use xlink:href="#DejaVuSans-6e" x="1213.134766"/>
     <use xlink:href="#DejaVuSans-74" x="1276.513672"/>
     <use xlink:href="#DejaVuSans-61" x="1315.722656"/>
     <use xlink:href="#DejaVuSans-6c" x="1377.001953"/>
     <use xlink:href="#DejaVuSans-65" x="1404.785156"/>
     <use xlink:href="#DejaVuSans-29" x="1466.308594"/>
    </g>
   </g>
   <g id="text_9">
    <!-- Sistema delle 4 forze sul velivolo -->
    <g transform="translate(80.812188 31.477969) scale(0.13 -0.13)">
     <defs>
      <path id="DejaVuSans-53" d="M 3425 4513 
L 3425 3897 
Q 3066 4069 2747 4153 
Q 2428 4238 2131 4238 
Q 1616 4238 1336 4038 
Q 1056 3838 1056 3469 
Q 1056 3159 1242 3001 
Q 1428 2844 1947 2747 
L 2328 2669 
Q 3034 2534 3370 2195 
Q 3706 1856 3706 1288 
Q 3706 609 3251 259 
Q 2797 -91 1919 -91 
Q 1588 -91 1214 -16 
Q 841 59 441 206 
L 441 856 
Q 825 641 1194 531 
Q 1563 422 1919 422 
Q 2459 422 2753 634 
Q 3047 847 3047 1241 
Q 3047 1584 2836 1778 
Q 2625 1972 2144 2069 
L 1759 2144 
Q 1053 2284 737 2584 
Q 422 2884 422 3419 
Q 422 4038 858 4394 
Q 1294 4750 2059 4750 
Q 2388 4750 2728 4690 
Q 3069 4631 3425 4513 
z
" transform="scale(0.015625)"/>
      <path id="DejaVuSans-73" d="M 2834 3397 
L 2834 2853 
Q 2591 2978 2328 3040 
Q 2066 3103 1784 3103 
Q 1356 3103 1142 2972 
Q 928 2841 928 2578 
Q 928 2378 1081 2264 
Q 1234 2150 1697 2047 
L 1894 2003 
Q 2506 1872 2764 1633 
Q 3022 1394 3022 966 
Q 3022 478 2636 193 
Q 2250 -91 1575 -91 
Q 1294 -91 989 -36 
Q 684 19 347 128 
L 347 722 
Q 666 556 975 473 
Q 1284 391 1588 391 
Q 1994 391 2212 530 
Q 2431 669 2431 922 
Q 2431 1156 2273 1281 
Q 2116 1406 1581 1522 
L 1381 1569 
Q 847 1681 609 1914 
Q 372 2147 372 2553 
Q 372 3047 722 3315 
Q 1072 3584 1716 3584 
Q 2034 3584 2315 3537 
Q 2597 3491 2834 3397 
z
" transform="scale(0.015625)"/>
      <path id="DejaVuSans-6d" d="M 3328 2828 
Q 3544 3216 3844 3400 
Q 4144 3584 4550 3584 
Q 5097 3584 5394 3201 
Q 5691 2819 5691 2113 
L 5691 0 
L 5113 0 
L 5113 2094 
Q 5113 2597 4934 2840 
Q 4756 3084 4391 3084 
Q 3944 3084 3684 2787 
Q 3425 2491 3425 1978 
L 3425 0 
L 2847 0 
L 2847 2094 
Q 2847 2600 2669 2842 
Q 2491 3084 2119 3084 
Q 1678 3084 1418 2786 
Q 1159 2488 1159 1978 
L 1159 0 
L 581 0 
L 581 3500 
L 1159 3500 
L 1159 2956 
Q 1356 3278 1631 3431 
Q 1906 3584 2284 3584 
Q 2666 3584 2933 3390 
Q 3200 3197 3328 2828 
z
" transform="scale(0.015625)"/>
      <path id="DejaVuSans-64" d="M 2906 2969 
L 2906 4863 
L 3481 4863 
L 3481 0 
L 2906 0 
L 2906 525 
Q 2725 213 2448 61 
Q 2172 -91 1784 -91 
Q 1150 -91 751 415 
Q 353 922 353 1747 
Q 353 2572 751 3078 
Q 1150 3584 1784 3584 
Q 2172 3584 2448 3432 
Q 2725 3281 2906 2969 
z
M 947 1747 
Q 947 1113 1208 752 
Q 1469 391 1925 391 
Q 2381 391 2643 752 
Q 2906 1113 2906 1747 
Q 2906 2381 2643 2742 
Q 2381 3103 1925 3103 
Q 1469 3103 1208 2742 
Q 947 2381 947 1747 
z
" transform="scale(0.015625)"/>
      <path id="DejaVuSans-34" d="M 2419 4116 
L 825 1625 
L 2419 1625 
L 2419 4116 
z
M 2253 4666 
L 3047 4666 
L 3047 1625 
L 3713 1625 
L 3713 1100 
L 3047 1100 
L 3047 0 
L 2419 0 
L 2419 1100 
L 313 1100 
L 313 1709 
L 2253 4666 
z
" transform="scale(0.015625)"/>
      <path id="DejaVuSans-66" d="M 2375 4863 
L 2375 4384 
L 1825 4384 
Q 1516 4384 1395 4259 
Q 1275 4134 1275 3809 
L 1275 3500 
L 2222 3500 
L 2222 3053 
L 1275 3053 
L 1275 0 
L 697 0 
L 697 3053 
L 147 3053 
L 147 3500 
L 697 3500 
L 697 3744 
Q 697 4328 969 4595 
Q 1241 4863 1831 4863 
L 2375 4863 
z
" transform="scale(0.015625)"/>
     </defs>
     <use xlink:href="#DejaVuSans-53"/>
     <use xlink:href="#DejaVuSans-69" x="63.476562"/>
     <use xlink:href="#DejaVuSans-73" x="91.259766"/>
     <use xlink:href="#DejaVuSans-74" x="143.359375"/>
     <use xlink:href="#DejaVuSans-65" x="182.568359"/>
     <use xlink:href="#DejaVuSans-6d" x="244.091797"/>
     <use xlink:href="#DejaVuSans-61" x="341.503906"/>
     <use xlink:href="#DejaVuSans-20" x="402.783203"/>
     <use xlink:href="#DejaVuSans-64" x="434.570312"/>
     <use xlink:href="#DejaVuSans-65" x="498.046875"/>
     <use xlink:href="#DejaVuSans-6c" x="559.570312"/>
     <use xlink:href="#DejaVuSans-6c" x="587.353516"/>
     <use xlink:href="#DejaVuSans-65" x="615.136719"/>
     <use xlink:href="#DejaVuSans-20" x="676.660156"/>
     <use xlink:href="#DejaVuSans-34" x="708.447266"/>
     <use xlink:href="#DejaVuSans-20" x="772.070312"/>
     <use xlink:href="#DejaVuSans-66" x="803.857422"/>
     <use xlink:href="#DejaVuSans-6f" x="839.0625"/>
     <use xlink:href="#DejaVuSans-72" x="900.244141"/>
     <use xlink:href="#DejaVuSans-7a" x="941.357422"/>
     <use xlink:href="#DejaVuSans-65" x="993.847656"/>
     <use xlink:href="#DejaVuSans-20" x="1055.371094"/>
     <use xlink:href="#DejaVuSans-73" x="1087.158203"/>
     <use xlink:href="#DejaVuSans-75" x="1139.257812"/>
     <use xlink:href="#DejaVuSans-6c" x="1202.636719"/>
     <use xlink:href="#DejaVuSans-20" x="1230.419922"/>
     <use xlink:href="#DejaVuSans-76" x="1262.207031"/>
     <use xlink:href="#DejaVuSans-65" x="1321.386719"/>
     <use xlink:href="#DejaVuSans-6c" x="1382.910156"/>
     <use xlink:href="#DejaVuSans-69" x="1410.693359"/>
     <use xlink:href="#DejaVuSans-76" x="1438.476562"/>
     <use xlink:href="#DejaVuSans-6f" x="1497.65625"/>
     <use xlink:href="#DejaVuSans-6c" x="1558.837891"/>
     <use xlink:href="#DejaVuSans-6f" x="1586.621094"/>
    </g>
   </g>
  </g>
 </g>
 <defs>
  <clipPath id="pb38fd26f76">
   <rect x="21.6" y="49.477969" width="332.64" height="332.64"/>
  </clipPath>
 </defs>
</svg>
