<?xml version="1.0" encoding="utf-8" standalone="no"?>
<!DOCTYPE svg PUBLIC "-//W3C//DTD SVG 1.1//EN"
  "http://www.w3.org/Graphics/SVG/1.1/DTD/svg11.dtd">
<svg xmlns:xlink="http://www.w3.org/1999/xlink" width="973.260183pt" height="391.32pt" viewBox="0 0 973.260183 391.32" xmlns="http://www.w3.org/2000/svg" version="1.1">
 <metadata>
  <rdf:RDF xmlns:dc="http://purl.org/dc/elements/1.1/" xmlns:cc="http://creativecommons.org/ns#" xmlns:rdf="http://www.w3.org/1999/02/22-rdf-syntax-ns#">
   <cc:Work>
    <dc:type rdf:resource="http://purl.org/dc/dcmitype/StillImage"/>
    <dc:date>2026-04-27T15:08:21.589202</dc:date>
    <dc:format>image/svg+xml</dc:format>
    <dc:creator>
     <cc:Agent>
      <dc:title>Matplotlib v3.9.4, https://matplotlib.org/</dc:title>
     </cc:Agent>
    </dc:creator>
   </cc:Work>
  </rdf:RDF>
 </metadata>
 <defs>
  <style type="text/css">*{stroke-linejoin: round; stroke-linecap: butt}</style>
 </defs>
 <g id="figure_1">
  <g id="patch_1">
   <path d="M 0 391.32 
L 973.260183 391.32 
L 973.260183 0 
L 0 0 
z
" style="fill: #ffffff"/>
  </g>
  <g id="axes_1">
   <g id="patch_2">
    <path d="M 63.347727 230.025682 
L 47.290909 225.208636 
L 63.347727 220.391591 
z
" clip-path="url(#p19a25aaa7c)" style="fill: #444444; stroke: #444444; stroke-linejoin: miter"/>
   </g>
   <g id="line2d_1">
    <path d="M 63.347727 230.025682 
L 47.290909 225.208636 
L 63.347727 220.391591 
" clip-path="url(#p19a25aaa7c)" style="fill: none; stroke: #444444; stroke-linecap: square"/>
   </g>
   <g id="patch_3">
    <path d="M 95.461364 220.391591 
L 127.575 220.391591 
L 127.575 112.810909 
L 95.461364 112.810909 
z
" clip-path="url(#p19a25aaa7c)" style="fill: #bbdefb; stroke: #1976d2; stroke-width: 2.5; stroke-linejoin: miter"/>
   </g>
   <g id="patch_4">
    <path d="M 95.461364 337.606364 
L 127.575 337.606364 
L 127.575 230.025682 
L 95.461364 230.025682 
z
" clip-path="url(#p19a25aaa7c)" style="fill: #bbdefb; stroke: #1976d2; stroke-width: 2.5; stroke-linejoin: miter"/>
   </g>
   <g id="patch_5">
    <path d="M 63.347727 230.025682 
L 159.688636 230.025682 
L 159.688636 220.391591 
L 63.347727 220.391591 
z
" clip-path="url(#p19a25aaa7c)" style="fill: #444444; stroke: #000000; stroke-linejoin: miter"/>
   </g>
   <g id="text_1">
    <g id="patch_6">
     <path d="M 76.182401 359.250838 
L 146.853963 359.250838 
Q 150.153963 359.250838 150.153963 355.950838 
L 150.153963 332.987307 
Q 150.153963 329.687307 146.853963 329.687307 
L 76.182401 329.687307 
Q 72.882401 329.687307 72.882401 332.987307 
L 72.882401 355.950838 
Q 72.882401 359.250838 76.182401 359.250838 
z
" style="fill: #ffffff; opacity: 0.92; stroke: #808080; stroke-linejoin: miter"/>
    </g>
    <!-- Cessna 172 -->
    <g transform="translate(76.182401 341.345588) scale(0.11 -0.11)">
     <defs>
      <path id="DejaVuSans-Bold-43" d="M 4288 256 
Q 3956 84 3597 -3 
Q 3238 -91 2847 -91 
Q 1681 -91 1000 561 
Q 319 1213 319 2328 
Q 319 3447 1000 4098 
Q 1681 4750 2847 4750 
Q 3238 4750 3597 4662 
Q 3956 4575 4288 4403 
L 4288 3438 
Q 3953 3666 3628 3772 
Q 3303 3878 2944 3878 
Q 2300 3878 1931 3465 
Q 1563 3053 1563 2328 
Q 1563 1606 1931 1193 
Q 2300 781 2944 781 
Q 3303 781 3628 887 
Q 3953 994 4288 1222 
L 4288 256 
z
" transform="scale(0.015625)"/>
      <path id="DejaVuSans-Bold-65" d="M 4031 1759 
L 4031 1441 
L 1416 1441 
Q 1456 1047 1700 850 
Q 1944 653 2381 653 
Q 2734 653 3104 758 
Q 3475 863 3866 1075 
L 3866 213 
Q 3469 63 3072 -14 
Q 2675 -91 2278 -91 
Q 1328 -91 801 392 
Q 275 875 275 1747 
Q 275 2603 792 3093 
Q 1309 3584 2216 3584 
Q 3041 3584 3536 3087 
Q 4031 2591 4031 1759 
z
M 2881 2131 
Q 2881 2450 2695 2645 
Q 2509 2841 2209 2841 
Q 1884 2841 1681 2658 
Q 1478 2475 1428 2131 
L 2881 2131 
z
" transform="scale(0.015625)"/>
      <path id="DejaVuSans-Bold-73" d="M 3272 3391 
L 3272 2541 
Q 2913 2691 2578 2766 
Q 2244 2841 1947 2841 
Q 1628 2841 1473 2761 
Q 1319 2681 1319 2516 
Q 1319 2381 1436 2309 
Q 1553 2238 1856 2203 
L 2053 2175 
Q 2913 2066 3209 1816 
Q 3506 1566 3506 1031 
Q 3506 472 3093 190 
Q 2681 -91 1863 -91 
Q 1516 -91 1145 -36 
Q 775 19 384 128 
L 384 978 
Q 719 816 1070 734 
Q 1422 653 1784 653 
Q 2113 653 2278 743 
Q 2444 834 2444 1013 
Q 2444 1163 2330 1236 
Q 2216 1309 1875 1350 
L 1678 1375 
Q 931 1469 631 1722 
Q 331 1975 331 2491 
Q 331 3047 712 3315 
Q 1094 3584 1881 3584 
Q 2191 3584 2531 3537 
Q 2872 3491 3272 3391 
z
" transform="scale(0.015625)"/>
      <path id="DejaVuSans-Bold-6e" d="M 4056 2131 
L 4056 0 
L 2931 0 
L 2931 347 
L 2931 1631 
Q 2931 2084 2911 2256 
Q 2891 2428 2841 2509 
Q 2775 2619 2662 2680 
Q 2550 2741 2406 2741 
Q 2056 2741 1856 2470 
Q 1656 2200 1656 1722 
L 1656 0 
L 538 0 
L 538 3500 
L 1656 3500 
L 1656 2988 
Q 1909 3294 2193 3439 
Q 2478 3584 2822 3584 
Q 3428 3584 3742 3212 
Q 4056 2841 4056 2131 
z
" transform="scale(0.015625)"/>
      <path id="DejaVuSans-Bold-61" d="M 2106 1575 
Q 1756 1575 1579 1456 
Q 1403 1338 1403 1106 
Q 1403 894 1545 773 
Q 1688 653 1941 653 
Q 2256 653 2472 879 
Q 2688 1106 2688 1447 
L 2688 1575 
L 2106 1575 
z
M 3816 1997 
L 3816 0 
L 2688 0 
L 2688 519 
Q 2463 200 2181 54 
Q 1900 -91 1497 -91 
Q 953 -91 614 226 
Q 275 544 275 1050 
Q 275 1666 698 1953 
Q 1122 2241 2028 2241 
L 2688 2241 
L 2688 2328 
Q 2688 2594 2478 2717 
Q 2269 2841 1825 2841 
Q 1466 2841 1156 2769 
Q 847 2697 581 2553 
L 581 3406 
Q 941 3494 1303 3539 
Q 1666 3584 2028 3584 
Q 2975 3584 3395 3211 
Q 3816 2838 3816 1997 
z
" transform="scale(0.015625)"/>
      <path id="DejaVuSans-Bold-20" transform="scale(0.015625)"/>
      <path id="DejaVuSans-Bold-31" d="M 750 831 
L 1813 831 
L 1813 3847 
L 722 3622 
L 722 4441 
L 1806 4666 
L 2950 4666 
L 2950 831 
L 4013 831 
L 4013 0 
L 750 0 
L 750 831 
z
" transform="scale(0.015625)"/>
      <path id="DejaVuSans-Bold-37" d="M 428 4666 
L 3944 4666 
L 3944 3988 
L 2125 0 
L 953 0 
L 2675 3781 
L 428 3781 
L 428 4666 
z
" transform="scale(0.015625)"/>
      <path id="DejaVuSans-Bold-32" d="M 1844 884 
L 3897 884 
L 3897 0 
L 506 0 
L 506 884 
L 2209 2388 
Q 2438 2594 2547 2791 
Q 2656 2988 2656 3200 
Q 2656 3528 2436 3728 
Q 2216 3928 1850 3928 
Q 1569 3928 1234 3808 
Q 900 3688 519 3450 
L 519 4475 
Q 925 4609 1322 4679 
Q 1719 4750 2100 4750 
Q 2938 4750 3402 4381 
Q 3866 4013 3866 3353 
Q 3866 2972 3669 2642 
Q 3472 2313 2841 1759 
L 1844 884 
z
" transform="scale(0.015625)"/>
     </defs>
     <use xlink:href="#DejaVuSans-Bold-43"/>
     <use xlink:href="#DejaVuSans-Bold-65" x="73.388672"/>
     <use xlink:href="#DejaVuSans-Bold-73" x="141.210938"/>
     <use xlink:href="#DejaVuSans-Bold-73" x="200.732422"/>
     <use xlink:href="#DejaVuSans-Bold-6e" x="260.253906"/>
     <use xlink:href="#DejaVuSans-Bold-61" x="331.445312"/>
     <use xlink:href="#DejaVuSans-Bold-20" x="398.925781"/>
     <use xlink:href="#DejaVuSans-Bold-31" x="433.740234"/>
     <use xlink:href="#DejaVuSans-Bold-37" x="503.320312"/>
     <use xlink:href="#DejaVuSans-Bold-32" x="572.900391"/>
    </g>
    <!-- λ ≈ 7,5 -->
    <g transform="translate(89.856776 353.663182) scale(0.11 -0.11)">
     <defs>
      <path id="DejaVuSans-Bold-3bb" d="M 1544 3188 
L 1350 3713 
Q 1263 3953 1145 4040 
Q 1028 4128 734 4128 
L 384 4128 
L 384 4863 
L 1031 4863 
Q 1600 4863 1908 4622 
Q 2216 4381 2428 3813 
L 3859 0 
L 2741 0 
L 2044 1838 
L 1309 0 
L 191 0 
L 1544 3188 
z
" transform="scale(0.015625)"/>
      <path id="DejaVuSans-Bold-2248" d="M 4684 3309 
L 4684 2547 
Q 4353 2297 4073 2189 
Q 3794 2081 3494 2081 
Q 3159 2081 2713 2263 
Q 2669 2281 2644 2291 
Q 2622 2300 2575 2319 
Q 2091 2509 1797 2509 
Q 1522 2509 1253 2389 
Q 984 2269 678 2009 
L 678 2772 
Q 1006 3016 1286 3123 
Q 1566 3231 1869 3231 
Q 2213 3231 2672 3047 
Q 2703 3034 2719 3028 
Q 2744 3019 2788 3000 
Q 3272 2809 3566 2809 
Q 3834 2809 4098 2926 
Q 4363 3044 4684 3309 
z
M 4684 2003 
L 4684 1241 
Q 4353 991 4073 883 
Q 3794 775 3494 775 
Q 3159 775 2713 956 
Q 2669 975 2641 988 
Q 2622 994 2575 1013 
Q 2091 1203 1797 1203 
Q 1522 1203 1253 1084 
Q 984 966 678 703 
L 678 1466 
Q 1013 1716 1291 1823 
Q 1569 1931 1869 1931 
Q 2203 1931 2650 1750 
Q 2697 1731 2719 1722 
Q 2744 1713 2788 1697 
Q 3272 1503 3566 1503 
Q 3834 1503 4098 1620 
Q 4363 1738 4684 2003 
z
" transform="scale(0.015625)"/>
      <path id="DejaVuSans-Bold-2c" d="M 653 1209 
L 1778 1209 
L 1778 256 
L 1006 -909 
L 341 -909 
L 653 256 
L 653 1209 
z
" transform="scale(0.015625)"/>
      <path id="DejaVuSans-Bold-35" d="M 678 4666 
L 3669 4666 
L 3669 3781 
L 1638 3781 
L 1638 3059 
Q 1775 3097 1914 3117 
Q 2053 3138 2203 3138 
Q 3056 3138 3531 2711 
Q 4006 2284 4006 1522 
Q 4006 766 3489 337 
Q 2972 -91 2053 -91 
Q 1656 -91 1267 -14 
Q 878 63 494 219 
L 494 1166 
Q 875 947 1217 837 
Q 1559 728 1863 728 
Q 2300 728 2551 942 
Q 2803 1156 2803 1522 
Q 2803 1891 2551 2103 
Q 2300 2316 1863 2316 
Q 1603 2316 1309 2248 
Q 1016 2181 678 2041 
L 678 4666 
z
" transform="scale(0.015625)"/>
     </defs>
     <use xlink:href="#DejaVuSans-Bold-3bb"/>
     <use xlink:href="#DejaVuSans-Bold-20" x="63.28125"/>
     <use xlink:href="#DejaVuSans-Bold-2248" x="98.095703"/>
     <use xlink:href="#DejaVuSans-Bold-20" x="181.884766"/>
     <use xlink:href="#DejaVuSans-Bold-37" x="216.699219"/>
     <use xlink:href="#DejaVuSans-Bold-2c" x="286.279297"/>
     <use xlink:href="#DejaVuSans-Bold-35" x="324.267578"/>
    </g>
   </g>
   <g id="text_2">
    <!-- ↑ apertura $b$ -->
    <g style="fill: #666666" transform="translate(56.925 103.176818) scale(0.09 -0.09)">
     <defs>
      <path id="DejaVuSans-2191" d="M 2541 4688 
L 2822 4688 
L 4047 3456 
L 3672 3081 
L 2947 3813 
L 2947 0 
L 2416 0 
L 2416 3813 
L 1684 3081 
L 1309 3456 
L 2541 4688 
z
" transform="scale(0.015625)"/>
      <path id="DejaVuSans-20" transform="scale(0.015625)"/>
      <path id="DejaVuSans-61" d="M 2194 1759 
Q 1497 1759 1228 1600 
Q 959 1441 959 1056 
Q 959 750 1161 570 
Q 1363 391 1709 391 
Q 2188 391 2477 730 
Q 2766 1069 2766 1631 
L 2766 1759 
L 2194 1759 
z
M 3341 1997 
L 3341 0 
L 2766 0 
L 2766 531 
Q 2569 213 2275 61 
Q 1981 -91 1556 -91 
Q 1019 -91 701 211 
Q 384 513 384 1019 
Q 384 1609 779 1909 
Q 1175 2209 1959 2209 
L 2766 2209 
L 2766 2266 
Q 2766 2663 2505 2880 
Q 2244 3097 1772 3097 
Q 1472 3097 1187 3025 
Q 903 2953 641 2809 
L 641 3341 
Q 956 3463 1253 3523 
Q 1550 3584 1831 3584 
Q 2591 3584 2966 3190 
Q 3341 2797 3341 1997 
z
" transform="scale(0.015625)"/>
      <path id="DejaVuSans-70" d="M 1159 525 
L 1159 -1331 
L 581 -1331 
L 581 3500 
L 1159 3500 
L 1159 2969 
Q 1341 3281 1617 3432 
Q 1894 3584 2278 3584 
Q 2916 3584 3314 3078 
Q 3713 2572 3713 1747 
Q 3713 922 3314 415 
Q 2916 -91 2278 -91 
Q 1894 -91 1617 61 
Q 1341 213 1159 525 
z
M 3116 1747 
Q 3116 2381 2855 2742 
Q 2594 3103 2138 3103 
Q 1681 3103 1420 2742 
Q 1159 2381 1159 1747 
Q 1159 1113 1420 752 
Q 1681 391 2138 391 
Q 2594 391 2855 752 
Q 3116 1113 3116 1747 
z
" transform="scale(0.015625)"/>
      <path id="DejaVuSans-65" d="M 3597 1894 
L 3597 1613 
L 953 1613 
Q 991 1019 1311 708 
Q 1631 397 2203 397 
Q 2534 397 2845 478 
Q 3156 559 3463 722 
L 3463 178 
Q 3153 47 2828 -22 
Q 2503 -91 2169 -91 
Q 1331 -91 842 396 
Q 353 884 353 1716 
Q 353 2575 817 3079 
Q 1281 3584 2069 3584 
Q 2775 3584 3186 3129 
Q 3597 2675 3597 1894 
z
M 3022 2063 
Q 3016 2534 2758 2815 
Q 2500 3097 2075 3097 
Q 1594 3097 1305 2825 
Q 1016 2553 972 2059 
L 3022 2063 
z
" transform="scale(0.015625)"/>
      <path id="DejaVuSans-72" d="M 2631 2963 
Q 2534 3019 2420 3045 
Q 2306 3072 2169 3072 
Q 1681 3072 1420 2755 
Q 1159 2438 1159 1844 
L 1159 0 
L 581 0 
L 581 3500 
L 1159 3500 
L 1159 2956 
Q 1341 3275 1631 3429 
Q 1922 3584 2338 3584 
Q 2397 3584 2469 3576 
Q 2541 3569 2628 3553 
L 2631 2963 
z
" transform="scale(0.015625)"/>
      <path id="DejaVuSans-74" d="M 1172 4494 
L 1172 3500 
L 2356 3500 
L 2356 3053 
L 1172 3053 
L 1172 1153 
Q 1172 725 1289 603 
Q 1406 481 1766 481 
L 2356 481 
L 2356 0 
L 1766 0 
Q 1100 0 847 248 
Q 594 497 594 1153 
L 594 3053 
L 172 3053 
L 172 3500 
L 594 3500 
L 594 4494 
L 1172 4494 
z
" transform="scale(0.015625)"/>
      <path id="DejaVuSans-75" d="M 544 1381 
L 544 3500 
L 1119 3500 
L 1119 1403 
Q 1119 906 1312 657 
Q 1506 409 1894 409 
Q 2359 409 2629 706 
Q 2900 1003 2900 1516 
L 2900 3500 
L 3475 3500 
L 3475 0 
L 2900 0 
L 2900 538 
Q 2691 219 2414 64 
Q 2138 -91 1772 -91 
Q 1169 -91 856 284 
Q 544 659 544 1381 
z
M 1991 3584 
L 1991 3584 
z
" transform="scale(0.015625)"/>
      <path id="DejaVuSans-Oblique-62" d="M 3169 2138 
Q 3169 2591 2961 2847 
Q 2753 3103 2388 3103 
Q 2122 3103 1889 2973 
Q 1656 2844 1484 2597 
Q 1303 2338 1198 1995 
Q 1094 1653 1094 1313 
Q 1094 881 1298 636 
Q 1503 391 1863 391 
Q 2134 391 2365 517 
Q 2597 644 2772 891 
Q 2950 1147 3059 1487 
Q 3169 1828 3169 2138 
z
M 1381 2969 
Q 1594 3256 1914 3420 
Q 2234 3584 2584 3584 
Q 3122 3584 3439 3221 
Q 3756 2859 3756 2241 
Q 3756 1734 3570 1259 
Q 3384 784 3041 416 
Q 2816 172 2522 40 
Q 2228 -91 1906 -91 
Q 1566 -91 1316 65 
Q 1066 222 909 531 
L 806 0 
L 231 0 
L 1178 4863 
L 1753 4863 
L 1381 2969 
z
" transform="scale(0.015625)"/>
     </defs>
     <use xlink:href="#DejaVuSans-2191" transform="translate(0 0.015625)"/>
     <use xlink:href="#DejaVuSans-20" transform="translate(83.789062 0.015625)"/>
     <use xlink:href="#DejaVuSans-61" transform="translate(115.576172 0.015625)"/>
     <use xlink:href="#DejaVuSans-70" transform="translate(176.855469 0.015625)"/>
     <use xlink:href="#DejaVuSans-65" transform="translate(240.332031 0.015625)"/>
     <use xlink:href="#DejaVuSans-72" transform="translate(301.855469 0.015625)"/>
     <use xlink:href="#DejaVuSans-74" transform="translate(342.96875 0.015625)"/>
     <use xlink:href="#DejaVuSans-75" transform="translate(382.177734 0.015625)"/>
     <use xlink:href="#DejaVuSans-72" transform="translate(445.556641 0.015625)"/>
     <use xlink:href="#DejaVuSans-61" transform="translate(486.669922 0.015625)"/>
     <use xlink:href="#DejaVuSans-20" transform="translate(547.949219 0.015625)"/>
     <use xlink:href="#DejaVuSans-Oblique-62" transform="translate(579.736328 0.015625)"/>
    </g>
   </g>
   <g id="text_3">
    <!-- ← corda $c$ → -->
    <g style="fill: #666666" transform="translate(133.997727 210.7575) scale(0.09 -0.09)">
     <defs>
      <path id="DejaVuSans-2190" d="M 313 1866 
L 313 2147 
L 1541 3375 
L 1916 3000 
L 1188 2272 
L 4997 2272 
L 4997 1741 
L 1188 1741 
L 1916 1013 
L 1541 638 
L 313 1866 
z
" transform="scale(0.015625)"/>
      <path id="DejaVuSans-63" d="M 3122 3366 
L 3122 2828 
Q 2878 2963 2633 3030 
Q 2388 3097 2138 3097 
Q 1578 3097 1268 2742 
Q 959 2388 959 1747 
Q 959 1106 1268 751 
Q 1578 397 2138 397 
Q 2388 397 2633 464 
Q 2878 531 3122 666 
L 3122 134 
Q 2881 22 2623 -34 
Q 2366 -91 2075 -91 
Q 1284 -91 818 406 
Q 353 903 353 1747 
Q 353 2603 823 3093 
Q 1294 3584 2113 3584 
Q 2378 3584 2631 3529 
Q 2884 3475 3122 3366 
z
" transform="scale(0.015625)"/>
      <path id="DejaVuSans-6f" d="M 1959 3097 
Q 1497 3097 1228 2736 
Q 959 2375 959 1747 
Q 959 1119 1226 758 
Q 1494 397 1959 397 
Q 2419 397 2687 759 
Q 2956 1122 2956 1747 
Q 2956 2369 2687 2733 
Q 2419 3097 1959 3097 
z
M 1959 3584 
Q 2709 3584 3137 3096 
Q 3566 2609 3566 1747 
Q 3566 888 3137 398 
Q 2709 -91 1959 -91 
Q 1206 -91 779 398 
Q 353 888 353 1747 
Q 353 2609 779 3096 
Q 1206 3584 1959 3584 
z
" transform="scale(0.015625)"/>
      <path id="DejaVuSans-64" d="M 2906 2969 
L 2906 4863 
L 3481 4863 
L 3481 0 
L 2906 0 
L 2906 525 
Q 2725 213 2448 61 
Q 2172 -91 1784 -91 
Q 1150 -91 751 415 
Q 353 922 353 1747 
Q 353 2572 751 3078 
Q 1150 3584 1784 3584 
Q 2172 3584 2448 3432 
Q 2725 3281 2906 2969 
z
M 947 1747 
Q 947 1113 1208 752 
Q 1469 391 1925 391 
Q 2381 391 2643 752 
Q 2906 1113 2906 1747 
Q 2906 2381 2643 2742 
Q 2381 3103 1925 3103 
Q 1469 3103 1208 2742 
Q 947 2381 947 1747 
z
" transform="scale(0.015625)"/>
      <path id="DejaVuSans-Oblique-63" d="M 3431 3366 
L 3316 2797 
Q 3109 2947 2876 3022 
Q 2644 3097 2394 3097 
Q 2119 3097 1870 3000 
Q 1622 2903 1453 2725 
Q 1184 2453 1037 2087 
Q 891 1722 891 1331 
Q 891 859 1127 628 
Q 1363 397 1844 397 
Q 2081 397 2348 469 
Q 2616 541 2906 684 
L 2797 116 
Q 2547 13 2283 -39 
Q 2019 -91 1741 -91 
Q 1044 -91 669 257 
Q 294 606 294 1253 
Q 294 1797 489 2255 
Q 684 2713 1069 3078 
Q 1331 3328 1684 3456 
Q 2038 3584 2456 3584 
Q 2700 3584 2940 3529 
Q 3181 3475 3431 3366 
z
" transform="scale(0.015625)"/>
      <path id="DejaVuSans-2192" d="M 5050 2147 
L 5050 1866 
L 3822 638 
L 3447 1013 
L 4175 1741 
L 366 1741 
L 366 2272 
L 4175 2272 
L 3447 3000 
L 3822 3375 
L 5050 2147 
z
" transform="scale(0.015625)"/>
     </defs>
     <use xlink:href="#DejaVuSans-2190" transform="translate(0 0.015625)"/>
     <use xlink:href="#DejaVuSans-20" transform="translate(83.789062 0.015625)"/>
     <use xlink:href="#DejaVuSans-63" transform="translate(115.576172 0.015625)"/>
     <use xlink:href="#DejaVuSans-6f" transform="translate(170.556641 0.015625)"/>
     <use xlink:href="#DejaVuSans-72" transform="translate(231.738281 0.015625)"/>
     <use xlink:href="#DejaVuSans-64" transform="translate(272.851562 0.015625)"/>
     <use xlink:href="#DejaVuSans-61" transform="translate(336.328125 0.015625)"/>
     <use xlink:href="#DejaVuSans-20" transform="translate(397.607422 0.015625)"/>
     <use xlink:href="#DejaVuSans-Oblique-63" transform="translate(429.394531 0.015625)"/>
     <use xlink:href="#DejaVuSans-20" transform="translate(484.375 0.015625)"/>
     <use xlink:href="#DejaVuSans-2192" transform="translate(516.162109 0.015625)"/>
    </g>
   </g>
   <g id="text_4">
    <!-- Rettangolare (τ = 1) -->
    <g transform="translate(36.682869 69.12) scale(0.13 -0.13)">
     <defs>
      <path id="DejaVuSans-Bold-52" d="M 2297 2597 
Q 2675 2597 2839 2737 
Q 3003 2878 3003 3200 
Q 3003 3519 2839 3656 
Q 2675 3794 2297 3794 
L 1791 3794 
L 1791 2597 
L 2297 2597 
z
M 1791 1766 
L 1791 0 
L 588 0 
L 588 4666 
L 2425 4666 
Q 3347 4666 3776 4356 
Q 4206 4047 4206 3378 
Q 4206 2916 3982 2619 
Q 3759 2322 3309 2181 
Q 3556 2125 3751 1926 
Q 3947 1728 4147 1325 
L 4800 0 
L 3519 0 
L 2950 1159 
Q 2778 1509 2601 1637 
Q 2425 1766 2131 1766 
L 1791 1766 
z
" transform="scale(0.015625)"/>
      <path id="DejaVuSans-Bold-74" d="M 1759 4494 
L 1759 3500 
L 2913 3500 
L 2913 2700 
L 1759 2700 
L 1759 1216 
Q 1759 972 1856 886 
Q 1953 800 2241 800 
L 2816 800 
L 2816 0 
L 1856 0 
Q 1194 0 917 276 
Q 641 553 641 1216 
L 641 2700 
L 84 2700 
L 84 3500 
L 641 3500 
L 641 4494 
L 1759 4494 
z
" transform="scale(0.015625)"/>
      <path id="DejaVuSans-Bold-67" d="M 2919 594 
Q 2688 288 2409 144 
Q 2131 0 1766 0 
Q 1125 0 706 504 
Q 288 1009 288 1791 
Q 288 2575 706 3076 
Q 1125 3578 1766 3578 
Q 2131 3578 2409 3434 
Q 2688 3291 2919 2981 
L 2919 3500 
L 4044 3500 
L 4044 353 
Q 4044 -491 3511 -936 
Q 2978 -1381 1966 -1381 
Q 1638 -1381 1331 -1331 
Q 1025 -1281 716 -1178 
L 716 -306 
Q 1009 -475 1290 -558 
Q 1572 -641 1856 -641 
Q 2406 -641 2662 -400 
Q 2919 -159 2919 353 
L 2919 594 
z
M 2181 2772 
Q 1834 2772 1640 2515 
Q 1447 2259 1447 1791 
Q 1447 1309 1634 1061 
Q 1822 813 2181 813 
Q 2531 813 2725 1069 
Q 2919 1325 2919 1791 
Q 2919 2259 2725 2515 
Q 2531 2772 2181 2772 
z
" transform="scale(0.015625)"/>
      <path id="DejaVuSans-Bold-6f" d="M 2203 2784 
Q 1831 2784 1636 2517 
Q 1441 2250 1441 1747 
Q 1441 1244 1636 976 
Q 1831 709 2203 709 
Q 2569 709 2762 976 
Q 2956 1244 2956 1747 
Q 2956 2250 2762 2517 
Q 2569 2784 2203 2784 
z
M 2203 3584 
Q 3106 3584 3614 3096 
Q 4122 2609 4122 1747 
Q 4122 884 3614 396 
Q 3106 -91 2203 -91 
Q 1297 -91 786 396 
Q 275 884 275 1747 
Q 275 2609 786 3096 
Q 1297 3584 2203 3584 
z
" transform="scale(0.015625)"/>
      <path id="DejaVuSans-Bold-6c" d="M 538 4863 
L 1656 4863 
L 1656 0 
L 538 0 
L 538 4863 
z
" transform="scale(0.015625)"/>
      <path id="DejaVuSans-Bold-72" d="M 3138 2547 
Q 2991 2616 2845 2648 
Q 2700 2681 2553 2681 
Q 2122 2681 1889 2404 
Q 1656 2128 1656 1613 
L 1656 0 
L 538 0 
L 538 3500 
L 1656 3500 
L 1656 2925 
Q 1872 3269 2151 3426 
Q 2431 3584 2822 3584 
Q 2878 3584 2943 3579 
Q 3009 3575 3134 3559 
L 3138 2547 
z
" transform="scale(0.015625)"/>
      <path id="DejaVuSans-Bold-28" d="M 2413 -844 
L 1484 -844 
Q 1006 -72 778 623 
Q 550 1319 550 2003 
Q 550 2688 779 3389 
Q 1009 4091 1484 4856 
L 2413 4856 
Q 2013 4116 1813 3408 
Q 1613 2700 1613 2009 
Q 1613 1319 1811 609 
Q 2009 -100 2413 -844 
z
" transform="scale(0.015625)"/>
      <path id="DejaVuSans-Bold-3c4" d="M 134 2700 
L 134 3500 
L 3916 3500 
L 3916 2700 
L 2584 2700 
L 2584 1131 
Q 2584 731 2661 631 
Q 2738 531 2913 531 
Q 3091 531 3191 544 
L 3191 -44 
Q 2997 -122 2334 -122 
Q 2125 -122 1922 -63 
Q 1597 34 1506 319 
Q 1466 459 1466 728 
L 1466 2700 
L 134 2700 
z
" transform="scale(0.015625)"/>
      <path id="DejaVuSans-Bold-3d" d="M 678 3084 
L 4684 3084 
L 4684 2350 
L 678 2350 
L 678 3084 
z
M 678 1663 
L 4684 1663 
L 4684 922 
L 678 922 
L 678 1663 
z
" transform="scale(0.015625)"/>
      <path id="DejaVuSans-Bold-29" d="M 513 -844 
Q 913 -100 1113 609 
Q 1313 1319 1313 2009 
Q 1313 2700 1113 3408 
Q 913 4116 513 4856 
L 1441 4856 
Q 1916 4091 2145 3389 
Q 2375 2688 2375 2003 
Q 2375 1319 2147 623 
Q 1919 -72 1441 -844 
L 513 -844 
z
" transform="scale(0.015625)"/>
     </defs>
     <use xlink:href="#DejaVuSans-Bold-52"/>
     <use xlink:href="#DejaVuSans-Bold-65" x="77.001953"/>
     <use xlink:href="#DejaVuSans-Bold-74" x="144.824219"/>
     <use xlink:href="#DejaVuSans-Bold-74" x="192.626953"/>
     <use xlink:href="#DejaVuSans-Bold-61" x="240.429688"/>
     <use xlink:href="#DejaVuSans-Bold-6e" x="307.910156"/>
     <use xlink:href="#DejaVuSans-Bold-67" x="379.101562"/>
     <use xlink:href="#DejaVuSans-Bold-6f" x="450.683594"/>
     <use xlink:href="#DejaVuSans-Bold-6c" x="519.384766"/>
     <use xlink:href="#DejaVuSans-Bold-61" x="553.662109"/>
     <use xlink:href="#DejaVuSans-Bold-72" x="621.142578"/>
     <use xlink:href="#DejaVuSans-Bold-65" x="670.458984"/>
     <use xlink:href="#DejaVuSans-Bold-20" x="738.28125"/>
     <use xlink:href="#DejaVuSans-Bold-28" x="773.095703"/>
     <use xlink:href="#DejaVuSans-Bold-3c4" x="818.798828"/>
     <use xlink:href="#DejaVuSans-Bold-20" x="882.617188"/>
     <use xlink:href="#DejaVuSans-Bold-3d" x="917.431641"/>
     <use xlink:href="#DejaVuSans-Bold-20" x="1001.220703"/>
     <use xlink:href="#DejaVuSans-Bold-31" x="1036.035156"/>
     <use xlink:href="#DejaVuSans-Bold-29" x="1105.615234"/>
    </g>
   </g>
  </g>
  <g id="axes_2">
   <g id="patch_7">
    <path d="M 407.994449 230.814915 
L 392.028347 226.025085 
L 407.994449 221.235254 
z
" clip-path="url(#p676d96922d)" style="fill: #444444; stroke: #444444; stroke-linejoin: miter"/>
   </g>
   <g id="line2d_2">
    <path d="M 407.994449 230.814915 
L 392.028347 226.025085 
L 407.994449 221.235254 
" clip-path="url(#p676d96922d)" style="fill: none; stroke: #444444; stroke-linecap: square"/>
   </g>
   <g id="patch_8">
    <path d="M 431.943601 221.235254 
L 479.841906 221.235254 
L 463.875805 114.262373 
L 447.909703 114.262373 
z
" clip-path="url(#p676d96922d)" style="fill: #c8e6c9; stroke: #43a047; stroke-width: 2.5; stroke-linejoin: miter"/>
   </g>
   <g id="patch_9">
    <path d="M 431.943601 230.814915 
L 479.841906 230.814915 
L 463.875805 337.787797 
L 447.909703 337.787797 
z
" clip-path="url(#p676d96922d)" style="fill: #c8e6c9; stroke: #43a047; stroke-width: 2.5; stroke-linejoin: miter"/>
   </g>
   <g id="patch_10">
    <path d="M 407.994449 230.814915 
L 503.791059 230.814915 
L 503.791059 221.235254 
L 407.994449 221.235254 
z
" clip-path="url(#p676d96922d)" style="fill: #444444; stroke: #000000; stroke-linejoin: miter"/>
   </g>
   <g id="patch_11">
    <path d="M 476.162271 109.472542 
Q 455.890108 109.472542 435.617945 109.472542 
" style="fill: none; stroke: #7b1fa2; stroke-width: 1.5; stroke-linecap: round"/>
    <path d="M 471.762271 107.272542 
L 476.162271 109.472542 
L 471.762271 111.672542 
" style="fill: none; stroke: #7b1fa2; stroke-width: 1.5; stroke-linecap: round"/>
    <path d="M 440.017945 111.672542 
L 435.617945 109.472542 
L 440.017945 107.272542 
" style="fill: none; stroke: #7b1fa2; stroke-width: 1.5; stroke-linecap: round"/>
   </g>
   <g id="text_5">
    <g id="patch_12">
     <path d="M 487.824957 132.114942 
L 544.124957 132.114942 
Q 547.124957 132.114942 547.124957 129.114942 
L 547.124957 119.436817 
Q 547.124957 116.436817 544.124957 116.436817 
L 487.824957 116.436817 
Q 484.824957 116.436817 484.824957 119.436817 
L 484.824957 129.114942 
Q 484.824957 132.114942 487.824957 132.114942 
z
" style="fill: #ffffff; opacity: 0.92; stroke: #808080; stroke-linejoin: miter"/>
    </g>
    <!-- $c_r$ (radice) -->
    <g style="fill: #6a1b9a" transform="translate(487.824957 127.035254) scale(0.1 -0.1)">
     <defs>
      <path id="DejaVuSans-Oblique-72" d="M 2853 2969 
Q 2766 3016 2653 3041 
Q 2541 3066 2413 3066 
Q 1953 3066 1609 2717 
Q 1266 2369 1153 1784 
L 800 0 
L 225 0 
L 909 3500 
L 1484 3500 
L 1375 2956 
Q 1603 3259 1920 3421 
Q 2238 3584 2597 3584 
Q 2691 3584 2781 3573 
Q 2872 3563 2963 3538 
L 2853 2969 
z
" transform="scale(0.015625)"/>
      <path id="DejaVuSans-Bold-64" d="M 2919 2988 
L 2919 4863 
L 4044 4863 
L 4044 0 
L 2919 0 
L 2919 506 
Q 2688 197 2409 53 
Q 2131 -91 1766 -91 
Q 1119 -91 703 423 
Q 288 938 288 1747 
Q 288 2556 703 3070 
Q 1119 3584 1766 3584 
Q 2128 3584 2408 3439 
Q 2688 3294 2919 2988 
z
M 2181 722 
Q 2541 722 2730 984 
Q 2919 1247 2919 1747 
Q 2919 2247 2730 2509 
Q 2541 2772 2181 2772 
Q 1825 2772 1636 2509 
Q 1447 2247 1447 1747 
Q 1447 1247 1636 984 
Q 1825 722 2181 722 
z
" transform="scale(0.015625)"/>
      <path id="DejaVuSans-Bold-69" d="M 538 3500 
L 1656 3500 
L 1656 0 
L 538 0 
L 538 3500 
z
M 538 4863 
L 1656 4863 
L 1656 3950 
L 538 3950 
L 538 4863 
z
" transform="scale(0.015625)"/>
      <path id="DejaVuSans-Bold-63" d="M 3366 3391 
L 3366 2478 
Q 3138 2634 2908 2709 
Q 2678 2784 2431 2784 
Q 1963 2784 1702 2511 
Q 1441 2238 1441 1747 
Q 1441 1256 1702 982 
Q 1963 709 2431 709 
Q 2694 709 2930 787 
Q 3166 866 3366 1019 
L 3366 103 
Q 3103 6 2833 -42 
Q 2563 -91 2291 -91 
Q 1344 -91 809 395 
Q 275 881 275 1747 
Q 275 2613 809 3098 
Q 1344 3584 2291 3584 
Q 2566 3584 2833 3536 
Q 3100 3488 3366 3391 
z
" transform="scale(0.015625)"/>
     </defs>
     <use xlink:href="#DejaVuSans-Oblique-63" transform="translate(0 0.015625)"/>
     <use xlink:href="#DejaVuSans-Oblique-72" transform="translate(54.980469 -16.390625) scale(0.7)"/>
     <use xlink:href="#DejaVuSans-Bold-20" transform="translate(86.494141 0.015625)"/>
     <use xlink:href="#DejaVuSans-Bold-28" transform="translate(121.308594 0.015625)"/>
     <use xlink:href="#DejaVuSans-Bold-72" transform="translate(167.011719 0.015625)"/>
     <use xlink:href="#DejaVuSans-Bold-61" transform="translate(216.328125 0.015625)"/>
     <use xlink:href="#DejaVuSans-Bold-64" transform="translate(283.808594 0.015625)"/>
     <use xlink:href="#DejaVuSans-Bold-69" transform="translate(355.390625 0.015625)"/>
     <use xlink:href="#DejaVuSans-Bold-63" transform="translate(389.667969 0.015625)"/>
     <use xlink:href="#DejaVuSans-Bold-65" transform="translate(448.945312 0.015625)"/>
     <use xlink:href="#DejaVuSans-Bold-29" transform="translate(516.767578 0.015625)"/>
    </g>
   </g>
   <g id="patch_13">
    <path d="M 460.199093 99.892881 
Q 455.893692 99.892881 451.588292 99.892881 
" style="fill: none; stroke: #7b1fa2; stroke-width: 1.5; stroke-linecap: round"/>
    <path d="M 455.799093 97.692881 
L 460.199093 99.892881 
L 455.799093 102.092881 
" style="fill: none; stroke: #7b1fa2; stroke-width: 1.5; stroke-linecap: round"/>
    <path d="M 455.988292 102.092881 
L 451.588292 99.892881 
L 455.988292 97.692881 
" style="fill: none; stroke: #7b1fa2; stroke-width: 1.5; stroke-linecap: round"/>
   </g>
   <g id="text_6">
    <!-- $c_t$ (tip) -->
    <g style="fill: #6a1b9a" transform="translate(437.592754 93.506441) scale(0.1 -0.1)">
     <defs>
      <path id="DejaVuSans-Oblique-74" d="M 2706 3500 
L 2619 3053 
L 1472 3053 
L 1100 1153 
Q 1081 1047 1072 975 
Q 1063 903 1063 863 
Q 1063 663 1183 572 
Q 1303 481 1569 481 
L 2150 481 
L 2053 0 
L 1503 0 
Q 991 0 739 200 
Q 488 400 488 806 
Q 488 878 497 964 
Q 506 1050 525 1153 
L 897 3053 
L 409 3053 
L 500 3500 
L 978 3500 
L 1172 4494 
L 1747 4494 
L 1556 3500 
L 2706 3500 
z
" transform="scale(0.015625)"/>
      <path id="DejaVuSans-Bold-70" d="M 1656 506 
L 1656 -1331 
L 538 -1331 
L 538 3500 
L 1656 3500 
L 1656 2988 
Q 1888 3294 2169 3439 
Q 2450 3584 2816 3584 
Q 3463 3584 3878 3070 
Q 4294 2556 4294 1747 
Q 4294 938 3878 423 
Q 3463 -91 2816 -91 
Q 2450 -91 2169 54 
Q 1888 200 1656 506 
z
M 2400 2772 
Q 2041 2772 1848 2508 
Q 1656 2244 1656 1747 
Q 1656 1250 1848 986 
Q 2041 722 2400 722 
Q 2759 722 2948 984 
Q 3138 1247 3138 1747 
Q 3138 2247 2948 2509 
Q 2759 2772 2400 2772 
z
" transform="scale(0.015625)"/>
     </defs>
     <use xlink:href="#DejaVuSans-Oblique-63" transform="translate(0 0.015625)"/>
     <use xlink:href="#DejaVuSans-Oblique-74" transform="translate(54.980469 -16.390625) scale(0.7)"/>
     <use xlink:href="#DejaVuSans-Bold-20" transform="translate(85.161133 0.015625)"/>
     <use xlink:href="#DejaVuSans-Bold-28" transform="translate(119.975586 0.015625)"/>
     <use xlink:href="#DejaVuSans-Bold-74" transform="translate(165.678711 0.015625)"/>
     <use xlink:href="#DejaVuSans-Bold-69" transform="translate(213.481445 0.015625)"/>
     <use xlink:href="#DejaVuSans-Bold-70" transform="translate(247.758789 0.015625)"/>
     <use xlink:href="#DejaVuSans-Bold-29" transform="translate(319.34082 0.015625)"/>
    </g>
   </g>
   <g id="text_7">
    <g id="patch_14">
     <path d="M 421.058847 359.341555 
L 490.72666 359.341555 
Q 494.02666 359.341555 494.02666 356.041555 
L 494.02666 332.906148 
Q 494.02666 329.606148 490.72666 329.606148 
L 421.058847 329.606148 
Q 417.758847 329.606148 417.758847 332.906148 
L 417.758847 356.041555 
Q 417.758847 359.341555 421.058847 359.341555 
z
" style="fill: #ffffff; opacity: 0.92; stroke: #808080; stroke-linejoin: miter"/>
    </g>
    <!-- Boeing 737 -->
    <g transform="translate(421.058847 341.350367) scale(0.11 -0.11)">
     <defs>
      <path id="DejaVuSans-Bold-42" d="M 2456 2859 
Q 2741 2859 2887 2984 
Q 3034 3109 3034 3353 
Q 3034 3594 2887 3720 
Q 2741 3847 2456 3847 
L 1791 3847 
L 1791 2859 
L 2456 2859 
z
M 2497 819 
Q 2859 819 3042 972 
Q 3225 1125 3225 1434 
Q 3225 1738 3044 1889 
Q 2863 2041 2497 2041 
L 1791 2041 
L 1791 819 
L 2497 819 
z
M 3616 2497 
Q 4003 2384 4215 2081 
Q 4428 1778 4428 1338 
Q 4428 663 3972 331 
Q 3516 0 2584 0 
L 588 0 
L 588 4666 
L 2394 4666 
Q 3366 4666 3802 4372 
Q 4238 4078 4238 3431 
Q 4238 3091 4078 2852 
Q 3919 2613 3616 2497 
z
" transform="scale(0.015625)"/>
      <path id="DejaVuSans-Bold-33" d="M 2981 2516 
Q 3453 2394 3698 2092 
Q 3944 1791 3944 1325 
Q 3944 631 3412 270 
Q 2881 -91 1863 -91 
Q 1503 -91 1142 -33 
Q 781 25 428 141 
L 428 1069 
Q 766 900 1098 814 
Q 1431 728 1753 728 
Q 2231 728 2486 893 
Q 2741 1059 2741 1369 
Q 2741 1688 2480 1852 
Q 2219 2016 1709 2016 
L 1228 2016 
L 1228 2791 
L 1734 2791 
Q 2188 2791 2409 2933 
Q 2631 3075 2631 3366 
Q 2631 3634 2415 3781 
Q 2200 3928 1806 3928 
Q 1516 3928 1219 3862 
Q 922 3797 628 3669 
L 628 4550 
Q 984 4650 1334 4700 
Q 1684 4750 2022 4750 
Q 2931 4750 3382 4451 
Q 3834 4153 3834 3553 
Q 3834 3144 3618 2883 
Q 3403 2622 2981 2516 
z
" transform="scale(0.015625)"/>
     </defs>
     <use xlink:href="#DejaVuSans-Bold-42"/>
     <use xlink:href="#DejaVuSans-Bold-6f" x="76.220703"/>
     <use xlink:href="#DejaVuSans-Bold-65" x="144.921875"/>
     <use xlink:href="#DejaVuSans-Bold-69" x="212.744141"/>
     <use xlink:href="#DejaVuSans-Bold-6e" x="247.021484"/>
     <use xlink:href="#DejaVuSans-Bold-67" x="318.212891"/>
     <use xlink:href="#DejaVuSans-Bold-20" x="389.794922"/>
     <use xlink:href="#DejaVuSans-Bold-37" x="424.609375"/>
     <use xlink:href="#DejaVuSans-Bold-33" x="494.189453"/>
     <use xlink:href="#DejaVuSans-Bold-37" x="563.769531"/>
    </g>
    <!-- λ ≈ 10 -->
    <g transform="translate(436.320488 353.753898) scale(0.11 -0.11)">
     <defs>
      <path id="DejaVuSans-Bold-30" d="M 2944 2338 
Q 2944 3213 2780 3570 
Q 2616 3928 2228 3928 
Q 1841 3928 1675 3570 
Q 1509 3213 1509 2338 
Q 1509 1453 1675 1090 
Q 1841 728 2228 728 
Q 2613 728 2778 1090 
Q 2944 1453 2944 2338 
z
M 4147 2328 
Q 4147 1169 3647 539 
Q 3147 -91 2228 -91 
Q 1306 -91 806 539 
Q 306 1169 306 2328 
Q 306 3491 806 4120 
Q 1306 4750 2228 4750 
Q 3147 4750 3647 4120 
Q 4147 3491 4147 2328 
z
" transform="scale(0.015625)"/>
     </defs>
     <use xlink:href="#DejaVuSans-Bold-3bb"/>
     <use xlink:href="#DejaVuSans-Bold-20" x="63.28125"/>
     <use xlink:href="#DejaVuSans-Bold-2248" x="98.095703"/>
     <use xlink:href="#DejaVuSans-Bold-20" x="181.884766"/>
     <use xlink:href="#DejaVuSans-Bold-31" x="216.699219"/>
     <use xlink:href="#DejaVuSans-Bold-30" x="286.279297"/>
    </g>
   </g>
   <g id="text_8">
    <!-- Trapezoidale (τ ≈ 0,33) -->
    <g transform="translate(371.005801 69.12) scale(0.13 -0.13)">
     <defs>
      <path id="DejaVuSans-Bold-54" d="M 31 4666 
L 4331 4666 
L 4331 3756 
L 2784 3756 
L 2784 0 
L 1581 0 
L 1581 3756 
L 31 3756 
L 31 4666 
z
" transform="scale(0.015625)"/>
      <path id="DejaVuSans-Bold-7a" d="M 366 3500 
L 3419 3500 
L 3419 2719 
L 1575 800 
L 3419 800 
L 3419 0 
L 288 0 
L 288 781 
L 2131 2700 
L 366 2700 
L 366 3500 
z
" transform="scale(0.015625)"/>
     </defs>
     <use xlink:href="#DejaVuSans-Bold-54"/>
     <use xlink:href="#DejaVuSans-Bold-72" x="57.212891"/>
     <use xlink:href="#DejaVuSans-Bold-61" x="106.529297"/>
     <use xlink:href="#DejaVuSans-Bold-70" x="174.009766"/>
     <use xlink:href="#DejaVuSans-Bold-65" x="245.591797"/>
     <use xlink:href="#DejaVuSans-Bold-7a" x="313.414062"/>
     <use xlink:href="#DejaVuSans-Bold-6f" x="371.617188"/>
     <use xlink:href="#DejaVuSans-Bold-69" x="440.318359"/>
     <use xlink:href="#DejaVuSans-Bold-64" x="474.595703"/>
     <use xlink:href="#DejaVuSans-Bold-61" x="546.177734"/>
     <use xlink:href="#DejaVuSans-Bold-6c" x="613.658203"/>
     <use xlink:href="#DejaVuSans-Bold-65" x="647.935547"/>
     <use xlink:href="#DejaVuSans-Bold-20" x="715.757812"/>
     <use xlink:href="#DejaVuSans-Bold-28" x="750.572266"/>
     <use xlink:href="#DejaVuSans-Bold-3c4" x="796.275391"/>
     <use xlink:href="#DejaVuSans-Bold-20" x="860.09375"/>
     <use xlink:href="#DejaVuSans-Bold-2248" x="894.908203"/>
     <use xlink:href="#DejaVuSans-Bold-20" x="978.697266"/>
     <use xlink:href="#DejaVuSans-Bold-30" x="1013.511719"/>
     <use xlink:href="#DejaVuSans-Bold-2c" x="1083.091797"/>
     <use xlink:href="#DejaVuSans-Bold-33" x="1121.080078"/>
     <use xlink:href="#DejaVuSans-Bold-33" x="1190.660156"/>
     <use xlink:href="#DejaVuSans-Bold-29" x="1260.240234"/>
    </g>
   </g>
  </g>
  <g id="axes_3">
   <g id="patch_15">
    <path d="M 699.338754 225.896786 
L 674.106611 218.327143 
L 699.338754 210.7575 
z
" clip-path="url(#p799c029c83)" style="fill: #444444; stroke: #444444; stroke-linejoin: miter"/>
   </g>
   <g id="patch_16">
    <path d="M 737.186968 210.7575 
C 737.186968 206.675121 736.526469 202.619502 735.231111 198.748085 
C 733.935753 194.876669 732.022519 191.240209 729.565682 187.979876 
" clip-path="url(#p799c029c83)" style="fill: none; stroke: #7b1fa2; stroke-width: 2; stroke-linejoin: miter"/>
   </g>
   <g id="patch_17">
    <path d="M 699.338754 210.7575 
L 901.195897 210.7575 
L 833.275492 117.398571 
z
" clip-path="url(#p799c029c83)" style="fill: #ffcdd2; stroke: #d32f2f; stroke-width: 2.5; stroke-linejoin: miter"/>
   </g>
   <g id="patch_18">
    <path d="M 699.338754 225.896786 
L 901.195897 225.896786 
L 833.275492 319.255714 
z
" clip-path="url(#p799c029c83)" style="fill: #ffcdd2; stroke: #d32f2f; stroke-width: 2.5; stroke-linejoin: miter"/>
   </g>
   <g id="line2d_3">
    <path d="M 699.338754 225.896786 
L 674.106611 218.327143 
L 699.338754 210.7575 
" clip-path="url(#p799c029c83)" style="fill: none; stroke: #444444; stroke-width: 2.2; stroke-linecap: square"/>
   </g>
   <g id="patch_19">
    <path d="M 699.338754 225.896786 
L 901.195897 225.896786 
L 901.195897 210.7575 
L 699.338754 210.7575 
z
" clip-path="url(#p799c029c83)" style="fill: #444444; stroke: #000000; stroke-linejoin: miter"/>
   </g>
   <g id="text_9">
    <g id="patch_20">
     <path d="M 742.233397 195.651473 
L 784.230272 195.651473 
Q 787.230272 195.651473 787.230272 192.651473 
L 787.230272 182.973348 
Q 787.230272 179.973348 784.230272 179.973348 
L 742.233397 179.973348 
Q 739.233397 179.973348 739.233397 182.973348 
L 739.233397 192.651473 
Q 739.233397 195.651473 742.233397 195.651473 
z
" style="fill: #ffffff; opacity: 0.92; stroke: #808080; stroke-linejoin: miter"/>
    </g>
    <!-- Λ = 53° -->
    <g style="fill: #6a1b9a" transform="translate(742.233397 190.571786) scale(0.1 -0.1)">
     <defs>
      <path id="DejaVuSans-Bold-39b" d="M 3713 0 
L 2478 3572 
L 1241 0 
L 31 0 
L 1759 4666 
L 3194 4666 
L 4922 0 
L 3713 0 
z
" transform="scale(0.015625)"/>
      <path id="DejaVuSans-Bold-b0" d="M 1600 4288 
Q 1375 4288 1219 4131 
Q 1063 3975 1063 3750 
Q 1063 3525 1217 3372 
Q 1372 3219 1600 3219 
Q 1825 3219 1981 3373 
Q 2138 3528 2138 3750 
Q 2138 3975 1980 4131 
Q 1822 4288 1600 4288 
z
M 1600 4794 
Q 1806 4794 1997 4714 
Q 2188 4634 2338 4488 
Q 2484 4338 2561 4150 
Q 2638 3963 2638 3750 
Q 2638 3541 2561 3352 
Q 2484 3163 2344 3022 
Q 2194 2872 2000 2792 
Q 1806 2713 1594 2713 
Q 1153 2713 854 3011 
Q 556 3309 556 3750 
Q 556 4191 857 4492 
Q 1159 4794 1600 4794 
z
" transform="scale(0.015625)"/>
     </defs>
     <use xlink:href="#DejaVuSans-Bold-39b"/>
     <use xlink:href="#DejaVuSans-Bold-20" x="77.392578"/>
     <use xlink:href="#DejaVuSans-Bold-3d" x="112.207031"/>
     <use xlink:href="#DejaVuSans-Bold-20" x="195.996094"/>
     <use xlink:href="#DejaVuSans-Bold-35" x="230.810547"/>
     <use xlink:href="#DejaVuSans-Bold-33" x="300.390625"/>
     <use xlink:href="#DejaVuSans-Bold-b0" x="369.970703"/>
    </g>
   </g>
   <g id="text_10">
    <g id="patch_21">
     <path d="M 764.902326 350.075513 
L 835.632326 350.075513 
Q 838.932326 350.075513 838.932326 346.775513 
L 838.932326 323.640107 
Q 838.932326 320.340107 835.632326 320.340107 
L 764.902326 320.340107 
Q 761.602326 320.340107 761.602326 323.640107 
L 761.602326 346.775513 
Q 761.602326 350.075513 764.902326 350.075513 
z
" style="fill: #ffffff; opacity: 0.92; stroke: #808080; stroke-linejoin: miter"/>
    </g>
    <!-- Eurofighter -->
    <g transform="translate(764.902326 332.084326) scale(0.11 -0.11)">
     <defs>
      <path id="DejaVuSans-Bold-45" d="M 588 4666 
L 3834 4666 
L 3834 3756 
L 1791 3756 
L 1791 2888 
L 3713 2888 
L 3713 1978 
L 1791 1978 
L 1791 909 
L 3903 909 
L 3903 0 
L 588 0 
L 588 4666 
z
" transform="scale(0.015625)"/>
      <path id="DejaVuSans-Bold-75" d="M 500 1363 
L 500 3500 
L 1625 3500 
L 1625 3150 
Q 1625 2866 1622 2436 
Q 1619 2006 1619 1863 
Q 1619 1441 1641 1255 
Q 1663 1069 1716 984 
Q 1784 875 1895 815 
Q 2006 756 2150 756 
Q 2500 756 2700 1025 
Q 2900 1294 2900 1772 
L 2900 3500 
L 4019 3500 
L 4019 0 
L 2900 0 
L 2900 506 
Q 2647 200 2364 54 
Q 2081 -91 1741 -91 
Q 1134 -91 817 281 
Q 500 653 500 1363 
z
" transform="scale(0.015625)"/>
      <path id="DejaVuSans-Bold-66" d="M 2841 4863 
L 2841 4128 
L 2222 4128 
Q 1984 4128 1890 4042 
Q 1797 3956 1797 3744 
L 1797 3500 
L 2753 3500 
L 2753 2700 
L 1797 2700 
L 1797 0 
L 678 0 
L 678 2700 
L 122 2700 
L 122 3500 
L 678 3500 
L 678 3744 
Q 678 4316 997 4589 
Q 1316 4863 1984 4863 
L 2841 4863 
z
" transform="scale(0.015625)"/>
      <path id="DejaVuSans-Bold-68" d="M 4056 2131 
L 4056 0 
L 2931 0 
L 2931 347 
L 2931 1625 
Q 2931 2084 2911 2256 
Q 2891 2428 2841 2509 
Q 2775 2619 2662 2680 
Q 2550 2741 2406 2741 
Q 2056 2741 1856 2470 
Q 1656 2200 1656 1722 
L 1656 0 
L 538 0 
L 538 4863 
L 1656 4863 
L 1656 2988 
Q 1909 3294 2193 3439 
Q 2478 3584 2822 3584 
Q 3428 3584 3742 3212 
Q 4056 2841 4056 2131 
z
" transform="scale(0.015625)"/>
     </defs>
     <use xlink:href="#DejaVuSans-Bold-45"/>
     <use xlink:href="#DejaVuSans-Bold-75" x="68.310547"/>
     <use xlink:href="#DejaVuSans-Bold-72" x="139.501953"/>
     <use xlink:href="#DejaVuSans-Bold-6f" x="188.818359"/>
     <use xlink:href="#DejaVuSans-Bold-66" x="257.519531"/>
     <use xlink:href="#DejaVuSans-Bold-69" x="301.025391"/>
     <use xlink:href="#DejaVuSans-Bold-67" x="335.302734"/>
     <use xlink:href="#DejaVuSans-Bold-68" x="406.884766"/>
     <use xlink:href="#DejaVuSans-Bold-74" x="478.076172"/>
     <use xlink:href="#DejaVuSans-Bold-65" x="525.878906"/>
     <use xlink:href="#DejaVuSans-Bold-72" x="593.701172"/>
    </g>
    <!-- λ ≈ 2,4 -->
    <g transform="translate(778.605919 344.487857) scale(0.11 -0.11)">
     <defs>
      <path id="DejaVuSans-Bold-34" d="M 2356 3675 
L 1038 1722 
L 2356 1722 
L 2356 3675 
z
M 2156 4666 
L 3494 4666 
L 3494 1722 
L 4159 1722 
L 4159 850 
L 3494 850 
L 3494 0 
L 2356 0 
L 2356 850 
L 288 850 
L 288 1881 
L 2156 4666 
z
" transform="scale(0.015625)"/>
     </defs>
     <use xlink:href="#DejaVuSans-Bold-3bb"/>
     <use xlink:href="#DejaVuSans-Bold-20" x="63.28125"/>
     <use xlink:href="#DejaVuSans-Bold-2248" x="98.095703"/>
     <use xlink:href="#DejaVuSans-Bold-20" x="181.884766"/>
     <use xlink:href="#DejaVuSans-Bold-32" x="216.699219"/>
     <use xlink:href="#DejaVuSans-Bold-2c" x="286.279297"/>
     <use xlink:href="#DejaVuSans-Bold-34" x="324.267578"/>
    </g>
   </g>
   <g id="text_11">
    <!-- Delta a freccia (Λ ≈ 53°) -->
    <g transform="translate(711.563654 69.12) scale(0.13 -0.13)">
     <defs>
      <path id="DejaVuSans-Bold-44" d="M 1791 3756 
L 1791 909 
L 2222 909 
Q 2959 909 3348 1275 
Q 3738 1641 3738 2338 
Q 3738 3031 3350 3393 
Q 2963 3756 2222 3756 
L 1791 3756 
z
M 588 4666 
L 1856 4666 
Q 2919 4666 3439 4514 
Q 3959 4363 4331 4000 
Q 4659 3684 4818 3271 
Q 4978 2859 4978 2338 
Q 4978 1809 4818 1395 
Q 4659 981 4331 666 
Q 3956 303 3431 151 
Q 2906 0 1856 0 
L 588 0 
L 588 4666 
z
" transform="scale(0.015625)"/>
     </defs>
     <use xlink:href="#DejaVuSans-Bold-44"/>
     <use xlink:href="#DejaVuSans-Bold-65" x="83.007812"/>
     <use xlink:href="#DejaVuSans-Bold-6c" x="150.830078"/>
     <use xlink:href="#DejaVuSans-Bold-74" x="185.107422"/>
     <use xlink:href="#DejaVuSans-Bold-61" x="232.910156"/>
     <use xlink:href="#DejaVuSans-Bold-20" x="300.390625"/>
     <use xlink:href="#DejaVuSans-Bold-61" x="335.205078"/>
     <use xlink:href="#DejaVuSans-Bold-20" x="402.685547"/>
     <use xlink:href="#DejaVuSans-Bold-66" x="437.5"/>
     <use xlink:href="#DejaVuSans-Bold-72" x="481.005859"/>
     <use xlink:href="#DejaVuSans-Bold-65" x="530.322266"/>
     <use xlink:href="#DejaVuSans-Bold-63" x="598.144531"/>
     <use xlink:href="#DejaVuSans-Bold-63" x="657.421875"/>
     <use xlink:href="#DejaVuSans-Bold-69" x="716.699219"/>
     <use xlink:href="#DejaVuSans-Bold-61" x="750.976562"/>
     <use xlink:href="#DejaVuSans-Bold-20" x="818.457031"/>
     <use xlink:href="#DejaVuSans-Bold-28" x="853.271484"/>
     <use xlink:href="#DejaVuSans-Bold-39b" x="898.974609"/>
     <use xlink:href="#DejaVuSans-Bold-20" x="976.367188"/>
     <use xlink:href="#DejaVuSans-Bold-2248" x="1011.181641"/>
     <use xlink:href="#DejaVuSans-Bold-20" x="1094.970703"/>
     <use xlink:href="#DejaVuSans-Bold-35" x="1129.785156"/>
     <use xlink:href="#DejaVuSans-Bold-33" x="1199.365234"/>
     <use xlink:href="#DejaVuSans-Bold-b0" x="1268.945312"/>
     <use xlink:href="#DejaVuSans-Bold-29" x="1318.945312"/>
    </g>
   </g>
  </g>
  <g id="text_12">
   <!-- Geometrie alari (vista dall'alto, muso a sinistra) -->
   <g transform="translate(266.458535 32.237813) scale(0.14 -0.14)">
    <defs>
     <path id="DejaVuSans-Bold-47" d="M 4781 347 
Q 4331 128 3847 18 
Q 3363 -91 2847 -91 
Q 1681 -91 1000 561 
Q 319 1213 319 2328 
Q 319 3456 1012 4103 
Q 1706 4750 2913 4750 
Q 3378 4750 3804 4662 
Q 4231 4575 4609 4403 
L 4609 3438 
Q 4219 3659 3833 3768 
Q 3447 3878 3059 3878 
Q 2341 3878 1952 3476 
Q 1563 3075 1563 2328 
Q 1563 1588 1938 1184 
Q 2313 781 3003 781 
Q 3191 781 3352 804 
Q 3513 828 3641 878 
L 3641 1784 
L 2906 1784 
L 2906 2591 
L 4781 2591 
L 4781 347 
z
" transform="scale(0.015625)"/>
     <path id="DejaVuSans-Bold-6d" d="M 3781 2919 
Q 3994 3244 4286 3414 
Q 4578 3584 4928 3584 
Q 5531 3584 5847 3212 
Q 6163 2841 6163 2131 
L 6163 0 
L 5038 0 
L 5038 1825 
Q 5041 1866 5042 1909 
Q 5044 1953 5044 2034 
Q 5044 2406 4934 2573 
Q 4825 2741 4581 2741 
Q 4263 2741 4089 2478 
Q 3916 2216 3909 1719 
L 3909 0 
L 2784 0 
L 2784 1825 
Q 2784 2406 2684 2573 
Q 2584 2741 2328 2741 
Q 2006 2741 1831 2477 
Q 1656 2213 1656 1722 
L 1656 0 
L 531 0 
L 531 3500 
L 1656 3500 
L 1656 2988 
Q 1863 3284 2130 3434 
Q 2397 3584 2719 3584 
Q 3081 3584 3359 3409 
Q 3638 3234 3781 2919 
z
" transform="scale(0.015625)"/>
     <path id="DejaVuSans-Bold-76" d="M 97 3500 
L 1216 3500 
L 2088 1081 
L 2956 3500 
L 4078 3500 
L 2700 0 
L 1472 0 
L 97 3500 
z
" transform="scale(0.015625)"/>
     <path id="DejaVuSans-Bold-27" d="M 1350 4666 
L 1350 2931 
L 609 2931 
L 609 4666 
L 1350 4666 
z
" transform="scale(0.015625)"/>
    </defs>
    <use xlink:href="#DejaVuSans-Bold-47"/>
    <use xlink:href="#DejaVuSans-Bold-65" x="82.080078"/>
    <use xlink:href="#DejaVuSans-Bold-6f" x="149.902344"/>
    <use xlink:href="#DejaVuSans-Bold-6d" x="218.603516"/>
    <use xlink:href="#DejaVuSans-Bold-65" x="322.802734"/>
    <use xlink:href="#DejaVuSans-Bold-74" x="390.625"/>
    <use xlink:href="#DejaVuSans-Bold-72" x="438.427734"/>
    <use xlink:href="#DejaVuSans-Bold-69" x="487.744141"/>
    <use xlink:href="#DejaVuSans-Bold-65" x="522.021484"/>
    <use xlink:href="#DejaVuSans-Bold-20" x="589.84375"/>
    <use xlink:href="#DejaVuSans-Bold-61" x="624.658203"/>
    <use xlink:href="#DejaVuSans-Bold-6c" x="692.138672"/>
    <use xlink:href="#DejaVuSans-Bold-61" x="726.416016"/>
    <use xlink:href="#DejaVuSans-Bold-72" x="793.896484"/>
    <use xlink:href="#DejaVuSans-Bold-69" x="843.212891"/>
    <use xlink:href="#DejaVuSans-Bold-20" x="877.490234"/>
    <use xlink:href="#DejaVuSans-Bold-28" x="912.304688"/>
    <use xlink:href="#DejaVuSans-Bold-76" x="958.007812"/>
    <use xlink:href="#DejaVuSans-Bold-69" x="1023.193359"/>
    <use xlink:href="#DejaVuSans-Bold-73" x="1057.470703"/>
    <use xlink:href="#DejaVuSans-Bold-74" x="1116.992188"/>
    <use xlink:href="#DejaVuSans-Bold-61" x="1164.794922"/>
    <use xlink:href="#DejaVuSans-Bold-20" x="1232.275391"/>
    <use xlink:href="#DejaVuSans-Bold-64" x="1267.089844"/>
    <use xlink:href="#DejaVuSans-Bold-61" x="1338.671875"/>
    <use xlink:href="#DejaVuSans-Bold-6c" x="1406.152344"/>
    <use xlink:href="#DejaVuSans-Bold-6c" x="1440.429688"/>
    <use xlink:href="#DejaVuSans-Bold-27" x="1474.707031"/>
    <use xlink:href="#DejaVuSans-Bold-61" x="1505.322266"/>
    <use xlink:href="#DejaVuSans-Bold-6c" x="1572.802734"/>
    <use xlink:href="#DejaVuSans-Bold-74" x="1607.080078"/>
    <use xlink:href="#DejaVuSans-Bold-6f" x="1654.882812"/>
    <use xlink:href="#DejaVuSans-Bold-2c" x="1723.583984"/>
    <use xlink:href="#DejaVuSans-Bold-20" x="1761.572266"/>
    <use xlink:href="#DejaVuSans-Bold-6d" x="1796.386719"/>
    <use xlink:href="#DejaVuSans-Bold-75" x="1900.585938"/>
    <use xlink:href="#DejaVuSans-Bold-73" x="1971.777344"/>
    <use xlink:href="#DejaVuSans-Bold-6f" x="2031.298828"/>
    <use xlink:href="#DejaVuSans-Bold-20" x="2100"/>
    <use xlink:href="#DejaVuSans-Bold-61" x="2134.814453"/>
    <use xlink:href="#DejaVuSans-Bold-20" x="2202.294922"/>
    <use xlink:href="#DejaVuSans-Bold-73" x="2237.109375"/>
    <use xlink:href="#DejaVuSans-Bold-69" x="2296.630859"/>
    <use xlink:href="#DejaVuSans-Bold-6e" x="2330.908203"/>
    <use xlink:href="#DejaVuSans-Bold-69" x="2402.099609"/>
    <use xlink:href="#DejaVuSans-Bold-73" x="2436.376953"/>
    <use xlink:href="#DejaVuSans-Bold-74" x="2495.898438"/>
    <use xlink:href="#DejaVuSans-Bold-72" x="2543.701172"/>
    <use xlink:href="#DejaVuSans-Bold-61" x="2593.017578"/>
    <use xlink:href="#DejaVuSans-Bold-29" x="2660.498047"/>
   </g>
  </g>
 </g>
 <defs>
  <clipPath id="p19a25aaa7c">
   <rect x="21.6" y="87.12" width="179.836364" height="282.6"/>
  </clipPath>
  <clipPath id="p676d96922d">
   <rect x="366.482584" y="87.12" width="178.820339" height="282.6"/>
  </clipPath>
  <clipPath id="p799c029c83">
   <rect x="648.874468" y="87.12" width="302.785714" height="282.6"/>
  </clipPath>
 </defs>
</svg>
