<?xml version="1.0" encoding="utf-8" standalone="no"?>
<!DOCTYPE svg PUBLIC "-//W3C//DTD SVG 1.1//EN"
  "http://www.w3.org/Graphics/SVG/1.1/DTD/svg11.dtd">
<svg xmlns:xlink="http://www.w3.org/1999/xlink" width="549.811975pt" height="292.837969pt" viewBox="0 0 549.811975 292.837969" xmlns="http://www.w3.org/2000/svg" version="1.1">
 <metadata>
  <rdf:RDF xmlns:dc="http://purl.org/dc/elements/1.1/" xmlns:cc="http://creativecommons.org/ns#" xmlns:rdf="http://www.w3.org/1999/02/22-rdf-syntax-ns#">
   <cc:Work>
    <dc:type rdf:resource="http://purl.org/dc/dcmitype/StillImage"/>
    <dc:date>2026-04-27T21:32:04.486665</dc:date>
    <dc:format>image/svg+xml</dc:format>
    <dc:creator>
     <cc:Agent>
      <dc:title>Matplotlib v3.9.4, https://matplotlib.org/</dc:title>
     </cc:Agent>
    </dc:creator>
   </cc:Work>
  </rdf:RDF>
 </metadata>
 <defs>
  <style type="text/css">*{stroke-linejoin: round; stroke-linecap: butt}</style>
 </defs>
 <g id="figure_1">
  <g id="patch_1">
   <path d="M 0 292.837969 
L 549.811975 292.837969 
L 549.811975 0 
L 0 0 
z
" style="fill: #ffffff"/>
  </g>
  <g id="axes_1">
   <g id="text_1">
    <!-- NACA   2 -->
    <g style="fill: #1976d2" transform="translate(61.087333 116.005969) scale(0.42 -0.42)">
     <defs>
      <path id="DejaVuSans-Bold-4e" d="M 588 4666 
L 1931 4666 
L 3628 1466 
L 3628 4666 
L 4769 4666 
L 4769 0 
L 3425 0 
L 1728 3200 
L 1728 0 
L 588 0 
L 588 4666 
z
" transform="scale(0.015625)"/>
      <path id="DejaVuSans-Bold-41" d="M 3419 850 
L 1538 850 
L 1241 0 
L 31 0 
L 1759 4666 
L 3194 4666 
L 4922 0 
L 3713 0 
L 3419 850 
z
M 1838 1716 
L 3116 1716 
L 2478 3572 
L 1838 1716 
z
" transform="scale(0.015625)"/>
      <path id="DejaVuSans-Bold-43" d="M 4288 256 
Q 3956 84 3597 -3 
Q 3238 -91 2847 -91 
Q 1681 -91 1000 561 
Q 319 1213 319 2328 
Q 319 3447 1000 4098 
Q 1681 4750 2847 4750 
Q 3238 4750 3597 4662 
Q 3956 4575 4288 4403 
L 4288 3438 
Q 3953 3666 3628 3772 
Q 3303 3878 2944 3878 
Q 2300 3878 1931 3465 
Q 1563 3053 1563 2328 
Q 1563 1606 1931 1193 
Q 2300 781 2944 781 
Q 3303 781 3628 887 
Q 3953 994 4288 1222 
L 4288 256 
z
" transform="scale(0.015625)"/>
      <path id="DejaVuSans-Bold-20" transform="scale(0.015625)"/>
      <path id="DejaVuSans-Bold-32" d="M 1844 884 
L 3897 884 
L 3897 0 
L 506 0 
L 506 884 
L 2209 2388 
Q 2438 2594 2547 2791 
Q 2656 2988 2656 3200 
Q 2656 3528 2436 3728 
Q 2216 3928 1850 3928 
Q 1569 3928 1234 3808 
Q 900 3688 519 3450 
L 519 4475 
Q 925 4609 1322 4679 
Q 1719 4750 2100 4750 
Q 2938 4750 3402 4381 
Q 3866 4013 3866 3353 
Q 3866 2972 3669 2642 
Q 3472 2313 2841 1759 
L 1844 884 
z
" transform="scale(0.015625)"/>
     </defs>
     <use xlink:href="#DejaVuSans-Bold-4e"/>
     <use xlink:href="#DejaVuSans-Bold-41" x="83.691406"/>
     <use xlink:href="#DejaVuSans-Bold-43" x="161.083984"/>
     <use xlink:href="#DejaVuSans-Bold-41" x="234.472656"/>
     <use xlink:href="#DejaVuSans-Bold-20" x="311.865234"/>
     <use xlink:href="#DejaVuSans-Bold-20" x="346.679688"/>
     <use xlink:href="#DejaVuSans-Bold-20" x="381.494141"/>
     <use xlink:href="#DejaVuSans-Bold-32" x="416.308594"/>
    </g>
   </g>
   <g id="text_2">
    <!-- 4 -->
    <g style="fill: #43a047" transform="translate(312.983404 116.005969) scale(0.42 -0.42)">
     <defs>
      <path id="DejaVuSans-Bold-34" d="M 2356 3675 
L 1038 1722 
L 2356 1722 
L 2356 3675 
z
M 2156 4666 
L 3494 4666 
L 3494 1722 
L 4159 1722 
L 4159 850 
L 3494 850 
L 3494 0 
L 2356 0 
L 2356 850 
L 288 850 
L 288 1881 
L 2156 4666 
z
" transform="scale(0.015625)"/>
     </defs>
     <use xlink:href="#DejaVuSans-Bold-34"/>
    </g>
   </g>
   <g id="text_3">
    <!-- 12 -->
    <g style="fill: #d32f2f" transform="translate(432.554833 116.005969) scale(0.42 -0.42)">
     <defs>
      <path id="DejaVuSans-Bold-31" d="M 750 831 
L 1813 831 
L 1813 3847 
L 722 3622 
L 722 4441 
L 1806 4666 
L 2950 4666 
L 2950 831 
L 4013 831 
L 4013 0 
L 750 0 
L 750 831 
z
" transform="scale(0.015625)"/>
     </defs>
     <use xlink:href="#DejaVuSans-Bold-31"/>
     <use xlink:href="#DejaVuSans-Bold-32" x="69.580078"/>
    </g>
   </g>
   <g id="patch_2">
    <path d="M 107.920532 201.553102 
Q 185.634382 164.751298 261.832541 128.667257 
" style="fill: none; stroke: #0d47a1; stroke-width: 1.5; stroke-linecap: round"/>
    <path d="M 256.914316 128.562096 
L 261.832541 128.667257 
L 258.797477 132.538741 
" style="fill: none; stroke: #0d47a1; stroke-width: 1.5; stroke-linecap: round"/>
   </g>
   <g id="text_4">
    <g id="patch_3">
     <path d="M 21.6 232.473625 
L 126.081094 232.473625 
Q 129.381094 232.473625 129.381094 229.173625 
L 129.381094 206.210094 
Q 129.381094 202.910094 126.081094 202.910094 
L 21.6 202.910094 
Q 18.3 202.910094 18.3 206.210094 
L 18.3 229.173625 
Q 18.3 232.473625 21.6 232.473625 
z
" style="fill: #ffffff; opacity: 0.92; stroke: #808080; stroke-linejoin: miter"/>
    </g>
    <!-- Curvatura max -->
    <g style="fill: #0d47a1" transform="translate(28.006641 214.568375) scale(0.11 -0.11)">
     <defs>
      <path id="DejaVuSans-Bold-75" d="M 500 1363 
L 500 3500 
L 1625 3500 
L 1625 3150 
Q 1625 2866 1622 2436 
Q 1619 2006 1619 1863 
Q 1619 1441 1641 1255 
Q 1663 1069 1716 984 
Q 1784 875 1895 815 
Q 2006 756 2150 756 
Q 2500 756 2700 1025 
Q 2900 1294 2900 1772 
L 2900 3500 
L 4019 3500 
L 4019 0 
L 2900 0 
L 2900 506 
Q 2647 200 2364 54 
Q 2081 -91 1741 -91 
Q 1134 -91 817 281 
Q 500 653 500 1363 
z
" transform="scale(0.015625)"/>
      <path id="DejaVuSans-Bold-72" d="M 3138 2547 
Q 2991 2616 2845 2648 
Q 2700 2681 2553 2681 
Q 2122 2681 1889 2404 
Q 1656 2128 1656 1613 
L 1656 0 
L 538 0 
L 538 3500 
L 1656 3500 
L 1656 2925 
Q 1872 3269 2151 3426 
Q 2431 3584 2822 3584 
Q 2878 3584 2943 3579 
Q 3009 3575 3134 3559 
L 3138 2547 
z
" transform="scale(0.015625)"/>
      <path id="DejaVuSans-Bold-76" d="M 97 3500 
L 1216 3500 
L 2088 1081 
L 2956 3500 
L 4078 3500 
L 2700 0 
L 1472 0 
L 97 3500 
z
" transform="scale(0.015625)"/>
      <path id="DejaVuSans-Bold-61" d="M 2106 1575 
Q 1756 1575 1579 1456 
Q 1403 1338 1403 1106 
Q 1403 894 1545 773 
Q 1688 653 1941 653 
Q 2256 653 2472 879 
Q 2688 1106 2688 1447 
L 2688 1575 
L 2106 1575 
z
M 3816 1997 
L 3816 0 
L 2688 0 
L 2688 519 
Q 2463 200 2181 54 
Q 1900 -91 1497 -91 
Q 953 -91 614 226 
Q 275 544 275 1050 
Q 275 1666 698 1953 
Q 1122 2241 2028 2241 
L 2688 2241 
L 2688 2328 
Q 2688 2594 2478 2717 
Q 2269 2841 1825 2841 
Q 1466 2841 1156 2769 
Q 847 2697 581 2553 
L 581 3406 
Q 941 3494 1303 3539 
Q 1666 3584 2028 3584 
Q 2975 3584 3395 3211 
Q 3816 2838 3816 1997 
z
" transform="scale(0.015625)"/>
      <path id="DejaVuSans-Bold-74" d="M 1759 4494 
L 1759 3500 
L 2913 3500 
L 2913 2700 
L 1759 2700 
L 1759 1216 
Q 1759 972 1856 886 
Q 1953 800 2241 800 
L 2816 800 
L 2816 0 
L 1856 0 
Q 1194 0 917 276 
Q 641 553 641 1216 
L 641 2700 
L 84 2700 
L 84 3500 
L 641 3500 
L 641 4494 
L 1759 4494 
z
" transform="scale(0.015625)"/>
      <path id="DejaVuSans-Bold-6d" d="M 3781 2919 
Q 3994 3244 4286 3414 
Q 4578 3584 4928 3584 
Q 5531 3584 5847 3212 
Q 6163 2841 6163 2131 
L 6163 0 
L 5038 0 
L 5038 1825 
Q 5041 1866 5042 1909 
Q 5044 1953 5044 2034 
Q 5044 2406 4934 2573 
Q 4825 2741 4581 2741 
Q 4263 2741 4089 2478 
Q 3916 2216 3909 1719 
L 3909 0 
L 2784 0 
L 2784 1825 
Q 2784 2406 2684 2573 
Q 2584 2741 2328 2741 
Q 2006 2741 1831 2477 
Q 1656 2213 1656 1722 
L 1656 0 
L 531 0 
L 531 3500 
L 1656 3500 
L 1656 2988 
Q 1863 3284 2130 3434 
Q 2397 3584 2719 3584 
Q 3081 3584 3359 3409 
Q 3638 3234 3781 2919 
z
" transform="scale(0.015625)"/>
      <path id="DejaVuSans-Bold-78" d="M 1422 1791 
L 159 3500 
L 1344 3500 
L 2059 2463 
L 2784 3500 
L 3969 3500 
L 2706 1797 
L 4031 0 
L 2847 0 
L 2059 1106 
L 1281 0 
L 97 0 
L 1422 1791 
z
" transform="scale(0.015625)"/>
     </defs>
     <use xlink:href="#DejaVuSans-Bold-43"/>
     <use xlink:href="#DejaVuSans-Bold-75" x="73.388672"/>
     <use xlink:href="#DejaVuSans-Bold-72" x="144.580078"/>
     <use xlink:href="#DejaVuSans-Bold-76" x="193.896484"/>
     <use xlink:href="#DejaVuSans-Bold-61" x="259.082031"/>
     <use xlink:href="#DejaVuSans-Bold-74" x="326.5625"/>
     <use xlink:href="#DejaVuSans-Bold-75" x="374.365234"/>
     <use xlink:href="#DejaVuSans-Bold-72" x="445.556641"/>
     <use xlink:href="#DejaVuSans-Bold-61" x="494.873047"/>
     <use xlink:href="#DejaVuSans-Bold-20" x="562.353516"/>
     <use xlink:href="#DejaVuSans-Bold-6d" x="597.167969"/>
     <use xlink:href="#DejaVuSans-Bold-61" x="701.367188"/>
     <use xlink:href="#DejaVuSans-Bold-78" x="768.847656"/>
    </g>
    <!-- = 2% della corda -->
    <g style="fill: #0d47a1" transform="translate(21.6 226.885969) scale(0.11 -0.11)">
     <defs>
      <path id="DejaVuSans-Bold-3d" d="M 678 3084 
L 4684 3084 
L 4684 2350 
L 678 2350 
L 678 3084 
z
M 678 1663 
L 4684 1663 
L 4684 922 
L 678 922 
L 678 1663 
z
" transform="scale(0.015625)"/>
      <path id="DejaVuSans-Bold-25" d="M 4959 1925 
Q 4738 1925 4616 1733 
Q 4494 1541 4494 1184 
Q 4494 825 4614 633 
Q 4734 441 4959 441 
Q 5184 441 5303 633 
Q 5422 825 5422 1184 
Q 5422 1541 5301 1733 
Q 5181 1925 4959 1925 
z
M 4959 2450 
Q 5541 2450 5875 2112 
Q 6209 1775 6209 1184 
Q 6209 594 5875 251 
Q 5541 -91 4959 -91 
Q 4378 -91 4042 251 
Q 3706 594 3706 1184 
Q 3706 1772 4042 2111 
Q 4378 2450 4959 2450 
z
M 2094 -91 
L 1403 -91 
L 4319 4750 
L 5013 4750 
L 2094 -91 
z
M 1453 4750 
Q 2034 4750 2367 4411 
Q 2700 4072 2700 3481 
Q 2700 2891 2367 2550 
Q 2034 2209 1453 2209 
Q 872 2209 539 2550 
Q 206 2891 206 3481 
Q 206 4072 539 4411 
Q 872 4750 1453 4750 
z
M 1453 4225 
Q 1228 4225 1106 4031 
Q 984 3838 984 3481 
Q 984 3122 1106 2926 
Q 1228 2731 1453 2731 
Q 1678 2731 1798 2926 
Q 1919 3122 1919 3481 
Q 1919 3838 1797 4031 
Q 1675 4225 1453 4225 
z
" transform="scale(0.015625)"/>
      <path id="DejaVuSans-Bold-64" d="M 2919 2988 
L 2919 4863 
L 4044 4863 
L 4044 0 
L 2919 0 
L 2919 506 
Q 2688 197 2409 53 
Q 2131 -91 1766 -91 
Q 1119 -91 703 423 
Q 288 938 288 1747 
Q 288 2556 703 3070 
Q 1119 3584 1766 3584 
Q 2128 3584 2408 3439 
Q 2688 3294 2919 2988 
z
M 2181 722 
Q 2541 722 2730 984 
Q 2919 1247 2919 1747 
Q 2919 2247 2730 2509 
Q 2541 2772 2181 2772 
Q 1825 2772 1636 2509 
Q 1447 2247 1447 1747 
Q 1447 1247 1636 984 
Q 1825 722 2181 722 
z
" transform="scale(0.015625)"/>
      <path id="DejaVuSans-Bold-65" d="M 4031 1759 
L 4031 1441 
L 1416 1441 
Q 1456 1047 1700 850 
Q 1944 653 2381 653 
Q 2734 653 3104 758 
Q 3475 863 3866 1075 
L 3866 213 
Q 3469 63 3072 -14 
Q 2675 -91 2278 -91 
Q 1328 -91 801 392 
Q 275 875 275 1747 
Q 275 2603 792 3093 
Q 1309 3584 2216 3584 
Q 3041 3584 3536 3087 
Q 4031 2591 4031 1759 
z
M 2881 2131 
Q 2881 2450 2695 2645 
Q 2509 2841 2209 2841 
Q 1884 2841 1681 2658 
Q 1478 2475 1428 2131 
L 2881 2131 
z
" transform="scale(0.015625)"/>
      <path id="DejaVuSans-Bold-6c" d="M 538 4863 
L 1656 4863 
L 1656 0 
L 538 0 
L 538 4863 
z
" transform="scale(0.015625)"/>
      <path id="DejaVuSans-Bold-63" d="M 3366 3391 
L 3366 2478 
Q 3138 2634 2908 2709 
Q 2678 2784 2431 2784 
Q 1963 2784 1702 2511 
Q 1441 2238 1441 1747 
Q 1441 1256 1702 982 
Q 1963 709 2431 709 
Q 2694 709 2930 787 
Q 3166 866 3366 1019 
L 3366 103 
Q 3103 6 2833 -42 
Q 2563 -91 2291 -91 
Q 1344 -91 809 395 
Q 275 881 275 1747 
Q 275 2613 809 3098 
Q 1344 3584 2291 3584 
Q 2566 3584 2833 3536 
Q 3100 3488 3366 3391 
z
" transform="scale(0.015625)"/>
      <path id="DejaVuSans-Bold-6f" d="M 2203 2784 
Q 1831 2784 1636 2517 
Q 1441 2250 1441 1747 
Q 1441 1244 1636 976 
Q 1831 709 2203 709 
Q 2569 709 2762 976 
Q 2956 1244 2956 1747 
Q 2956 2250 2762 2517 
Q 2569 2784 2203 2784 
z
M 2203 3584 
Q 3106 3584 3614 3096 
Q 4122 2609 4122 1747 
Q 4122 884 3614 396 
Q 3106 -91 2203 -91 
Q 1297 -91 786 396 
Q 275 884 275 1747 
Q 275 2609 786 3096 
Q 1297 3584 2203 3584 
z
" transform="scale(0.015625)"/>
     </defs>
     <use xlink:href="#DejaVuSans-Bold-3d"/>
     <use xlink:href="#DejaVuSans-Bold-20" x="83.789062"/>
     <use xlink:href="#DejaVuSans-Bold-32" x="118.603516"/>
     <use xlink:href="#DejaVuSans-Bold-25" x="188.183594"/>
     <use xlink:href="#DejaVuSans-Bold-20" x="288.378906"/>
     <use xlink:href="#DejaVuSans-Bold-64" x="323.193359"/>
     <use xlink:href="#DejaVuSans-Bold-65" x="394.775391"/>
     <use xlink:href="#DejaVuSans-Bold-6c" x="462.597656"/>
     <use xlink:href="#DejaVuSans-Bold-6c" x="496.875"/>
     <use xlink:href="#DejaVuSans-Bold-61" x="531.152344"/>
     <use xlink:href="#DejaVuSans-Bold-20" x="598.632812"/>
     <use xlink:href="#DejaVuSans-Bold-63" x="633.447266"/>
     <use xlink:href="#DejaVuSans-Bold-6f" x="692.724609"/>
     <use xlink:href="#DejaVuSans-Bold-72" x="761.425781"/>
     <use xlink:href="#DejaVuSans-Bold-64" x="810.742188"/>
     <use xlink:href="#DejaVuSans-Bold-61" x="882.324219"/>
    </g>
   </g>
   <g id="patch_4">
    <path d="M 278.498894 200.84079 
Q 307.077199 164.751705 334.614379 129.977366 
" style="fill: none; stroke: #1b5e20; stroke-width: 1.5; stroke-linecap: round"/>
    <path d="M 330.158109 132.061031 
L 334.614379 129.977366 
L 333.607549 134.792581 
" style="fill: none; stroke: #1b5e20; stroke-width: 1.5; stroke-linecap: round"/>
   </g>
   <g id="text_5">
    <g id="patch_5">
     <path d="M 174.477879 232.473625 
L 355.831786 232.473625 
Q 359.131786 232.473625 359.131786 229.173625 
L 359.131786 206.210094 
Q 359.131786 202.910094 355.831786 202.910094 
L 174.477879 202.910094 
Q 171.177879 202.910094 171.177879 206.210094 
L 171.177879 229.173625 
Q 171.177879 232.473625 174.477879 232.473625 
z
" style="fill: #ffffff; opacity: 0.92; stroke: #808080; stroke-linejoin: miter"/>
    </g>
    <!-- Posizione curvatura max -->
    <g style="fill: #1b5e20" transform="translate(188.702254 214.568375) scale(0.11 -0.11)">
     <defs>
      <path id="DejaVuSans-Bold-50" d="M 588 4666 
L 2584 4666 
Q 3475 4666 3951 4270 
Q 4428 3875 4428 3144 
Q 4428 2409 3951 2014 
Q 3475 1619 2584 1619 
L 1791 1619 
L 1791 0 
L 588 0 
L 588 4666 
z
M 1791 3794 
L 1791 2491 
L 2456 2491 
Q 2806 2491 2997 2661 
Q 3188 2831 3188 3144 
Q 3188 3456 2997 3625 
Q 2806 3794 2456 3794 
L 1791 3794 
z
" transform="scale(0.015625)"/>
      <path id="DejaVuSans-Bold-73" d="M 3272 3391 
L 3272 2541 
Q 2913 2691 2578 2766 
Q 2244 2841 1947 2841 
Q 1628 2841 1473 2761 
Q 1319 2681 1319 2516 
Q 1319 2381 1436 2309 
Q 1553 2238 1856 2203 
L 2053 2175 
Q 2913 2066 3209 1816 
Q 3506 1566 3506 1031 
Q 3506 472 3093 190 
Q 2681 -91 1863 -91 
Q 1516 -91 1145 -36 
Q 775 19 384 128 
L 384 978 
Q 719 816 1070 734 
Q 1422 653 1784 653 
Q 2113 653 2278 743 
Q 2444 834 2444 1013 
Q 2444 1163 2330 1236 
Q 2216 1309 1875 1350 
L 1678 1375 
Q 931 1469 631 1722 
Q 331 1975 331 2491 
Q 331 3047 712 3315 
Q 1094 3584 1881 3584 
Q 2191 3584 2531 3537 
Q 2872 3491 3272 3391 
z
" transform="scale(0.015625)"/>
      <path id="DejaVuSans-Bold-69" d="M 538 3500 
L 1656 3500 
L 1656 0 
L 538 0 
L 538 3500 
z
M 538 4863 
L 1656 4863 
L 1656 3950 
L 538 3950 
L 538 4863 
z
" transform="scale(0.015625)"/>
      <path id="DejaVuSans-Bold-7a" d="M 366 3500 
L 3419 3500 
L 3419 2719 
L 1575 800 
L 3419 800 
L 3419 0 
L 288 0 
L 288 781 
L 2131 2700 
L 366 2700 
L 366 3500 
z
" transform="scale(0.015625)"/>
      <path id="DejaVuSans-Bold-6e" d="M 4056 2131 
L 4056 0 
L 2931 0 
L 2931 347 
L 2931 1631 
Q 2931 2084 2911 2256 
Q 2891 2428 2841 2509 
Q 2775 2619 2662 2680 
Q 2550 2741 2406 2741 
Q 2056 2741 1856 2470 
Q 1656 2200 1656 1722 
L 1656 0 
L 538 0 
L 538 3500 
L 1656 3500 
L 1656 2988 
Q 1909 3294 2193 3439 
Q 2478 3584 2822 3584 
Q 3428 3584 3742 3212 
Q 4056 2841 4056 2131 
z
" transform="scale(0.015625)"/>
     </defs>
     <use xlink:href="#DejaVuSans-Bold-50"/>
     <use xlink:href="#DejaVuSans-Bold-6f" x="73.291016"/>
     <use xlink:href="#DejaVuSans-Bold-73" x="141.992188"/>
     <use xlink:href="#DejaVuSans-Bold-69" x="201.513672"/>
     <use xlink:href="#DejaVuSans-Bold-7a" x="235.791016"/>
     <use xlink:href="#DejaVuSans-Bold-69" x="293.994141"/>
     <use xlink:href="#DejaVuSans-Bold-6f" x="328.271484"/>
     <use xlink:href="#DejaVuSans-Bold-6e" x="396.972656"/>
     <use xlink:href="#DejaVuSans-Bold-65" x="468.164062"/>
     <use xlink:href="#DejaVuSans-Bold-20" x="535.986328"/>
     <use xlink:href="#DejaVuSans-Bold-63" x="570.800781"/>
     <use xlink:href="#DejaVuSans-Bold-75" x="630.078125"/>
     <use xlink:href="#DejaVuSans-Bold-72" x="701.269531"/>
     <use xlink:href="#DejaVuSans-Bold-76" x="750.585938"/>
     <use xlink:href="#DejaVuSans-Bold-61" x="815.771484"/>
     <use xlink:href="#DejaVuSans-Bold-74" x="883.251953"/>
     <use xlink:href="#DejaVuSans-Bold-75" x="931.054688"/>
     <use xlink:href="#DejaVuSans-Bold-72" x="1002.246094"/>
     <use xlink:href="#DejaVuSans-Bold-61" x="1051.5625"/>
     <use xlink:href="#DejaVuSans-Bold-20" x="1119.042969"/>
     <use xlink:href="#DejaVuSans-Bold-6d" x="1153.857422"/>
     <use xlink:href="#DejaVuSans-Bold-61" x="1258.056641"/>
     <use xlink:href="#DejaVuSans-Bold-78" x="1325.537109"/>
    </g>
    <!-- = 4 decimi = 40% della corda -->
    <g style="fill: #1b5e20" transform="translate(174.477879 226.885969) scale(0.11 -0.11)">
     <defs>
      <path id="DejaVuSans-Bold-30" d="M 2944 2338 
Q 2944 3213 2780 3570 
Q 2616 3928 2228 3928 
Q 1841 3928 1675 3570 
Q 1509 3213 1509 2338 
Q 1509 1453 1675 1090 
Q 1841 728 2228 728 
Q 2613 728 2778 1090 
Q 2944 1453 2944 2338 
z
M 4147 2328 
Q 4147 1169 3647 539 
Q 3147 -91 2228 -91 
Q 1306 -91 806 539 
Q 306 1169 306 2328 
Q 306 3491 806 4120 
Q 1306 4750 2228 4750 
Q 3147 4750 3647 4120 
Q 4147 3491 4147 2328 
z
" transform="scale(0.015625)"/>
     </defs>
     <use xlink:href="#DejaVuSans-Bold-3d"/>
     <use xlink:href="#DejaVuSans-Bold-20" x="83.789062"/>
     <use xlink:href="#DejaVuSans-Bold-34" x="118.603516"/>
     <use xlink:href="#DejaVuSans-Bold-20" x="188.183594"/>
     <use xlink:href="#DejaVuSans-Bold-64" x="222.998047"/>
     <use xlink:href="#DejaVuSans-Bold-65" x="294.580078"/>
     <use xlink:href="#DejaVuSans-Bold-63" x="362.402344"/>
     <use xlink:href="#DejaVuSans-Bold-69" x="421.679688"/>
     <use xlink:href="#DejaVuSans-Bold-6d" x="455.957031"/>
     <use xlink:href="#DejaVuSans-Bold-69" x="560.15625"/>
     <use xlink:href="#DejaVuSans-Bold-20" x="594.433594"/>
     <use xlink:href="#DejaVuSans-Bold-3d" x="629.248047"/>
     <use xlink:href="#DejaVuSans-Bold-20" x="713.037109"/>
     <use xlink:href="#DejaVuSans-Bold-34" x="747.851562"/>
     <use xlink:href="#DejaVuSans-Bold-30" x="817.431641"/>
     <use xlink:href="#DejaVuSans-Bold-25" x="887.011719"/>
     <use xlink:href="#DejaVuSans-Bold-20" x="987.207031"/>
     <use xlink:href="#DejaVuSans-Bold-64" x="1022.021484"/>
     <use xlink:href="#DejaVuSans-Bold-65" x="1093.603516"/>
     <use xlink:href="#DejaVuSans-Bold-6c" x="1161.425781"/>
     <use xlink:href="#DejaVuSans-Bold-6c" x="1195.703125"/>
     <use xlink:href="#DejaVuSans-Bold-61" x="1229.980469"/>
     <use xlink:href="#DejaVuSans-Bold-20" x="1297.460938"/>
     <use xlink:href="#DejaVuSans-Bold-63" x="1332.275391"/>
     <use xlink:href="#DejaVuSans-Bold-6f" x="1391.552734"/>
     <use xlink:href="#DejaVuSans-Bold-72" x="1460.253906"/>
     <use xlink:href="#DejaVuSans-Bold-64" x="1509.570312"/>
     <use xlink:href="#DejaVuSans-Bold-61" x="1581.152344"/>
    </g>
   </g>
   <g id="patch_6">
    <path d="M 466.947128 200.410974 
Q 468.829609 164.752615 470.623678 130.768975 
" style="fill: none; stroke: #b71c1c; stroke-width: 1.5; stroke-linecap: round"/>
    <path d="M 468.194775 135.046875 
L 470.623678 130.768975 
L 472.588657 135.278837 
" style="fill: none; stroke: #b71c1c; stroke-width: 1.5; stroke-linecap: round"/>
   </g>
   <g id="text_6">
    <g id="patch_7">
     <path d="M 409.967489 232.473625 
L 522.102176 232.473625 
Q 525.402176 232.473625 525.402176 229.173625 
L 525.402176 206.210094 
Q 525.402176 202.910094 522.102176 202.910094 
L 409.967489 202.910094 
Q 406.667489 202.910094 406.667489 206.210094 
L 406.667489 229.173625 
Q 406.667489 232.473625 409.967489 232.473625 
z
" style="fill: #ffffff; opacity: 0.92; stroke: #808080; stroke-linejoin: miter"/>
    </g>
    <!-- Spessore max -->
    <g style="fill: #b71c1c" transform="translate(422.733504 214.568375) scale(0.11 -0.11)">
     <defs>
      <path id="DejaVuSans-Bold-53" d="M 3834 4519 
L 3834 3531 
Q 3450 3703 3084 3790 
Q 2719 3878 2394 3878 
Q 1963 3878 1756 3759 
Q 1550 3641 1550 3391 
Q 1550 3203 1689 3098 
Q 1828 2994 2194 2919 
L 2706 2816 
Q 3484 2659 3812 2340 
Q 4141 2022 4141 1434 
Q 4141 663 3683 286 
Q 3225 -91 2284 -91 
Q 1841 -91 1394 -6 
Q 947 78 500 244 
L 500 1259 
Q 947 1022 1364 901 
Q 1781 781 2169 781 
Q 2563 781 2772 912 
Q 2981 1044 2981 1288 
Q 2981 1506 2839 1625 
Q 2697 1744 2272 1838 
L 1806 1941 
Q 1106 2091 782 2419 
Q 459 2747 459 3303 
Q 459 4000 909 4375 
Q 1359 4750 2203 4750 
Q 2588 4750 2994 4692 
Q 3400 4634 3834 4519 
z
" transform="scale(0.015625)"/>
      <path id="DejaVuSans-Bold-70" d="M 1656 506 
L 1656 -1331 
L 538 -1331 
L 538 3500 
L 1656 3500 
L 1656 2988 
Q 1888 3294 2169 3439 
Q 2450 3584 2816 3584 
Q 3463 3584 3878 3070 
Q 4294 2556 4294 1747 
Q 4294 938 3878 423 
Q 3463 -91 2816 -91 
Q 2450 -91 2169 54 
Q 1888 200 1656 506 
z
M 2400 2772 
Q 2041 2772 1848 2508 
Q 1656 2244 1656 1747 
Q 1656 1250 1848 986 
Q 2041 722 2400 722 
Q 2759 722 2948 984 
Q 3138 1247 3138 1747 
Q 3138 2247 2948 2509 
Q 2759 2772 2400 2772 
z
" transform="scale(0.015625)"/>
     </defs>
     <use xlink:href="#DejaVuSans-Bold-53"/>
     <use xlink:href="#DejaVuSans-Bold-70" x="72.021484"/>
     <use xlink:href="#DejaVuSans-Bold-65" x="143.603516"/>
     <use xlink:href="#DejaVuSans-Bold-73" x="211.425781"/>
     <use xlink:href="#DejaVuSans-Bold-73" x="270.947266"/>
     <use xlink:href="#DejaVuSans-Bold-6f" x="330.46875"/>
     <use xlink:href="#DejaVuSans-Bold-72" x="399.169922"/>
     <use xlink:href="#DejaVuSans-Bold-65" x="448.486328"/>
     <use xlink:href="#DejaVuSans-Bold-20" x="516.308594"/>
     <use xlink:href="#DejaVuSans-Bold-6d" x="551.123047"/>
     <use xlink:href="#DejaVuSans-Bold-61" x="655.322266"/>
     <use xlink:href="#DejaVuSans-Bold-78" x="722.802734"/>
    </g>
    <!-- = 12% della corda -->
    <g style="fill: #b71c1c" transform="translate(409.967489 226.885969) scale(0.11 -0.11)">
     <use xlink:href="#DejaVuSans-Bold-3d"/>
     <use xlink:href="#DejaVuSans-Bold-20" x="83.789062"/>
     <use xlink:href="#DejaVuSans-Bold-31" x="118.603516"/>
     <use xlink:href="#DejaVuSans-Bold-32" x="188.183594"/>
     <use xlink:href="#DejaVuSans-Bold-25" x="257.763672"/>
     <use xlink:href="#DejaVuSans-Bold-20" x="357.958984"/>
     <use xlink:href="#DejaVuSans-Bold-64" x="392.773438"/>
     <use xlink:href="#DejaVuSans-Bold-65" x="464.355469"/>
     <use xlink:href="#DejaVuSans-Bold-6c" x="532.177734"/>
     <use xlink:href="#DejaVuSans-Bold-6c" x="566.455078"/>
     <use xlink:href="#DejaVuSans-Bold-61" x="600.732422"/>
     <use xlink:href="#DejaVuSans-Bold-20" x="668.212891"/>
     <use xlink:href="#DejaVuSans-Bold-63" x="703.027344"/>
     <use xlink:href="#DejaVuSans-Bold-6f" x="762.304688"/>
     <use xlink:href="#DejaVuSans-Bold-72" x="831.005859"/>
     <use xlink:href="#DejaVuSans-Bold-64" x="880.322266"/>
     <use xlink:href="#DejaVuSans-Bold-61" x="951.904297"/>
    </g>
   </g>
   <g id="text_7">
    <!-- Codice NACA 4-cifre — esempio: NACA 2412 (Cessna 172) -->
    <g transform="translate(66.911116 31.477969) scale(0.13 -0.13)">
     <defs>
      <path id="DejaVuSans-Bold-2d" d="M 347 2297 
L 2309 2297 
L 2309 1388 
L 347 1388 
L 347 2297 
z
" transform="scale(0.015625)"/>
      <path id="DejaVuSans-Bold-66" d="M 2841 4863 
L 2841 4128 
L 2222 4128 
Q 1984 4128 1890 4042 
Q 1797 3956 1797 3744 
L 1797 3500 
L 2753 3500 
L 2753 2700 
L 1797 2700 
L 1797 0 
L 678 0 
L 678 2700 
L 122 2700 
L 122 3500 
L 678 3500 
L 678 3744 
Q 678 4316 997 4589 
Q 1316 4863 1984 4863 
L 2841 4863 
z
" transform="scale(0.015625)"/>
      <path id="DejaVuSans-Bold-2014" d="M 344 2156 
L 6056 2156 
L 6056 1350 
L 344 1350 
L 344 2156 
z
" transform="scale(0.015625)"/>
      <path id="DejaVuSans-Bold-3a" d="M 716 3500 
L 1844 3500 
L 1844 2291 
L 716 2291 
L 716 3500 
z
M 716 1209 
L 1844 1209 
L 1844 0 
L 716 0 
L 716 1209 
z
" transform="scale(0.015625)"/>
      <path id="DejaVuSans-Bold-28" d="M 2413 -844 
L 1484 -844 
Q 1006 -72 778 623 
Q 550 1319 550 2003 
Q 550 2688 779 3389 
Q 1009 4091 1484 4856 
L 2413 4856 
Q 2013 4116 1813 3408 
Q 1613 2700 1613 2009 
Q 1613 1319 1811 609 
Q 2009 -100 2413 -844 
z
" transform="scale(0.015625)"/>
      <path id="DejaVuSans-Bold-37" d="M 428 4666 
L 3944 4666 
L 3944 3988 
L 2125 0 
L 953 0 
L 2675 3781 
L 428 3781 
L 428 4666 
z
" transform="scale(0.015625)"/>
      <path id="DejaVuSans-Bold-29" d="M 513 -844 
Q 913 -100 1113 609 
Q 1313 1319 1313 2009 
Q 1313 2700 1113 3408 
Q 913 4116 513 4856 
L 1441 4856 
Q 1916 4091 2145 3389 
Q 2375 2688 2375 2003 
Q 2375 1319 2147 623 
Q 1919 -72 1441 -844 
L 513 -844 
z
" transform="scale(0.015625)"/>
     </defs>
     <use xlink:href="#DejaVuSans-Bold-43"/>
     <use xlink:href="#DejaVuSans-Bold-6f" x="73.388672"/>
     <use xlink:href="#DejaVuSans-Bold-64" x="142.089844"/>
     <use xlink:href="#DejaVuSans-Bold-69" x="213.671875"/>
     <use xlink:href="#DejaVuSans-Bold-63" x="247.949219"/>
     <use xlink:href="#DejaVuSans-Bold-65" x="307.226562"/>
     <use xlink:href="#DejaVuSans-Bold-20" x="375.048828"/>
     <use xlink:href="#DejaVuSans-Bold-4e" x="409.863281"/>
     <use xlink:href="#DejaVuSans-Bold-41" x="493.554688"/>
     <use xlink:href="#DejaVuSans-Bold-43" x="570.947266"/>
     <use xlink:href="#DejaVuSans-Bold-41" x="644.335938"/>
     <use xlink:href="#DejaVuSans-Bold-20" x="721.728516"/>
     <use xlink:href="#DejaVuSans-Bold-34" x="756.542969"/>
     <use xlink:href="#DejaVuSans-Bold-2d" x="826.123047"/>
     <use xlink:href="#DejaVuSans-Bold-63" x="867.626953"/>
     <use xlink:href="#DejaVuSans-Bold-69" x="926.904297"/>
     <use xlink:href="#DejaVuSans-Bold-66" x="961.181641"/>
     <use xlink:href="#DejaVuSans-Bold-72" x="1004.6875"/>
     <use xlink:href="#DejaVuSans-Bold-65" x="1054.003906"/>
     <use xlink:href="#DejaVuSans-Bold-20" x="1121.826172"/>
     <use xlink:href="#DejaVuSans-Bold-2014" x="1156.640625"/>
     <use xlink:href="#DejaVuSans-Bold-20" x="1256.640625"/>
     <use xlink:href="#DejaVuSans-Bold-65" x="1291.455078"/>
     <use xlink:href="#DejaVuSans-Bold-73" x="1359.277344"/>
     <use xlink:href="#DejaVuSans-Bold-65" x="1418.798828"/>
     <use xlink:href="#DejaVuSans-Bold-6d" x="1486.621094"/>
     <use xlink:href="#DejaVuSans-Bold-70" x="1590.820312"/>
     <use xlink:href="#DejaVuSans-Bold-69" x="1662.402344"/>
     <use xlink:href="#DejaVuSans-Bold-6f" x="1696.679688"/>
     <use xlink:href="#DejaVuSans-Bold-3a" x="1765.380859"/>
     <use xlink:href="#DejaVuSans-Bold-20" x="1805.371094"/>
     <use xlink:href="#DejaVuSans-Bold-4e" x="1840.185547"/>
     <use xlink:href="#DejaVuSans-Bold-41" x="1923.876953"/>
     <use xlink:href="#DejaVuSans-Bold-43" x="2001.269531"/>
     <use xlink:href="#DejaVuSans-Bold-41" x="2074.658203"/>
     <use xlink:href="#DejaVuSans-Bold-20" x="2152.050781"/>
     <use xlink:href="#DejaVuSans-Bold-32" x="2186.865234"/>
     <use xlink:href="#DejaVuSans-Bold-34" x="2256.445312"/>
     <use xlink:href="#DejaVuSans-Bold-31" x="2326.025391"/>
     <use xlink:href="#DejaVuSans-Bold-32" x="2395.605469"/>
     <use xlink:href="#DejaVuSans-Bold-20" x="2465.185547"/>
     <use xlink:href="#DejaVuSans-Bold-28" x="2500"/>
     <use xlink:href="#DejaVuSans-Bold-43" x="2545.703125"/>
     <use xlink:href="#DejaVuSans-Bold-65" x="2619.091797"/>
     <use xlink:href="#DejaVuSans-Bold-73" x="2686.914062"/>
     <use xlink:href="#DejaVuSans-Bold-73" x="2746.435547"/>
     <use xlink:href="#DejaVuSans-Bold-6e" x="2805.957031"/>
     <use xlink:href="#DejaVuSans-Bold-61" x="2877.148438"/>
     <use xlink:href="#DejaVuSans-Bold-20" x="2944.628906"/>
     <use xlink:href="#DejaVuSans-Bold-31" x="2979.443359"/>
     <use xlink:href="#DejaVuSans-Bold-37" x="3049.023438"/>
     <use xlink:href="#DejaVuSans-Bold-32" x="3118.603516"/>
     <use xlink:href="#DejaVuSans-Bold-29" x="3188.183594"/>
    </g>
   </g>
  </g>
 </g>
</svg>
