<?xml version="1.0" encoding="utf-8" standalone="no"?>
<!DOCTYPE svg PUBLIC "-//W3C//DTD SVG 1.1//EN"
  "http://www.w3.org/Graphics/SVG/1.1/DTD/svg11.dtd">
<svg xmlns:xlink="http://www.w3.org/1999/xlink" width="545.4pt" height="209.364925pt" viewBox="0 0 545.4 209.364925" xmlns="http://www.w3.org/2000/svg" version="1.1">
 <metadata>
  <rdf:RDF xmlns:dc="http://purl.org/dc/elements/1.1/" xmlns:cc="http://creativecommons.org/ns#" xmlns:rdf="http://www.w3.org/1999/02/22-rdf-syntax-ns#">
   <cc:Work>
    <dc:type rdf:resource="http://purl.org/dc/dcmitype/StillImage"/>
    <dc:date>2026-04-27T21:32:04.137841</dc:date>
    <dc:format>image/svg+xml</dc:format>
    <dc:creator>
     <cc:Agent>
      <dc:title>Matplotlib v3.9.4, https://matplotlib.org/</dc:title>
     </cc:Agent>
    </dc:creator>
   </cc:Work>
  </rdf:RDF>
 </metadata>
 <defs>
  <style type="text/css">*{stroke-linejoin: round; stroke-linecap: butt}</style>
 </defs>
 <g id="figure_1">
  <g id="patch_1">
   <path d="M 0 209.364925 
L 545.4 209.364925 
L 545.4 0 
L 0 0 
z
" style="fill: #ffffff"/>
  </g>
  <g id="axes_1">
   <g id="patch_2">
    <path d="M 21.6 187.764925 
L 523.8 187.764925 
L 523.8 49.477969 
L 21.6 49.477969 
z
" style="fill: #ffffff"/>
   </g>
   <g id="patch_3">
    <path d="M 108.93913 96.786664 
C 109.687521 96.786664 110.435548 96.763107 111.181034 96.716061 
C 111.92652 96.669015 112.668742 96.598527 113.405539 96.5048 
" clip-path="url(#pd1054ec620)" style="fill: none; stroke: #7b1fa2; stroke-width: 2; stroke-linejoin: miter"/>
   </g>
   <g id="matplotlib.axis_1"/>
   <g id="matplotlib.axis_2"/>
   <g id="line2d_1">
    <path d="M 108.93913 78.591012 
L 436.46087 151.373621 
" clip-path="url(#pd1054ec620)" style="fill: none; stroke: #1976d2; stroke-width: 3; stroke-linecap: square"/>
   </g>
   <g id="line2d_2">
    <path d="M 108.93913 151.373621 
L 108.93913 78.591012 
" clip-path="url(#pd1054ec620)" style="fill: none; stroke-dasharray: 5.55,2.4; stroke-dashoffset: 0; stroke: #666666; stroke-width: 1.5"/>
   </g>
   <g id="line2d_3">
    <path d="M 108.93913 151.373621 
L 436.46087 151.373621 
" clip-path="url(#pd1054ec620)" style="fill: none; stroke: #888888; stroke-width: 2; stroke-linecap: square"/>
   </g>
   <g id="patch_4">
    <path d="M 21.6 187.764925 
L 21.6 49.477969 
" style="fill: none; stroke: #000000; stroke-width: 0.8; stroke-linejoin: miter; stroke-linecap: square"/>
   </g>
   <g id="patch_5">
    <path d="M 21.6 187.764925 
L 523.8 187.764925 
" style="fill: none; stroke: #000000; stroke-width: 0.8; stroke-linejoin: miter; stroke-linecap: square"/>
   </g>
   <g id="text_1">
    <g id="patch_6">
     <path d="M 40.364552 78.35606 
L 98.021739 78.35606 
Q 101.321739 78.35606 101.321739 75.05606 
L 101.321739 52.092529 
Q 101.321739 48.792529 98.021739 48.792529 
L 40.364552 48.792529 
Q 37.064552 48.792529 37.064552 52.092529 
L 37.064552 75.05606 
Q 37.064552 78.35606 40.364552 78.35606 
z
" style="fill: #ffffff; opacity: 0.92; stroke: #808080; stroke-linejoin: miter"/>
    </g>
    <!-- Aliante -->
    <g style="fill: #b71c1c" transform="translate(53.994239 60.45081) scale(0.11 -0.11)">
     <defs>
      <path id="DejaVuSans-Bold-41" d="M 3419 850 
L 1538 850 
L 1241 0 
L 31 0 
L 1759 4666 
L 3194 4666 
L 4922 0 
L 3713 0 
L 3419 850 
z
M 1838 1716 
L 3116 1716 
L 2478 3572 
L 1838 1716 
z
" transform="scale(0.015625)"/>
      <path id="DejaVuSans-Bold-6c" d="M 538 4863 
L 1656 4863 
L 1656 0 
L 538 0 
L 538 4863 
z
" transform="scale(0.015625)"/>
      <path id="DejaVuSans-Bold-69" d="M 538 3500 
L 1656 3500 
L 1656 0 
L 538 0 
L 538 3500 
z
M 538 4863 
L 1656 4863 
L 1656 3950 
L 538 3950 
L 538 4863 
z
" transform="scale(0.015625)"/>
      <path id="DejaVuSans-Bold-61" d="M 2106 1575 
Q 1756 1575 1579 1456 
Q 1403 1338 1403 1106 
Q 1403 894 1545 773 
Q 1688 653 1941 653 
Q 2256 653 2472 879 
Q 2688 1106 2688 1447 
L 2688 1575 
L 2106 1575 
z
M 3816 1997 
L 3816 0 
L 2688 0 
L 2688 519 
Q 2463 200 2181 54 
Q 1900 -91 1497 -91 
Q 953 -91 614 226 
Q 275 544 275 1050 
Q 275 1666 698 1953 
Q 1122 2241 2028 2241 
L 2688 2241 
L 2688 2328 
Q 2688 2594 2478 2717 
Q 2269 2841 1825 2841 
Q 1466 2841 1156 2769 
Q 847 2697 581 2553 
L 581 3406 
Q 941 3494 1303 3539 
Q 1666 3584 2028 3584 
Q 2975 3584 3395 3211 
Q 3816 2838 3816 1997 
z
" transform="scale(0.015625)"/>
      <path id="DejaVuSans-Bold-6e" d="M 4056 2131 
L 4056 0 
L 2931 0 
L 2931 347 
L 2931 1631 
Q 2931 2084 2911 2256 
Q 2891 2428 2841 2509 
Q 2775 2619 2662 2680 
Q 2550 2741 2406 2741 
Q 2056 2741 1856 2470 
Q 1656 2200 1656 1722 
L 1656 0 
L 538 0 
L 538 3500 
L 1656 3500 
L 1656 2988 
Q 1909 3294 2193 3439 
Q 2478 3584 2822 3584 
Q 3428 3584 3742 3212 
Q 4056 2841 4056 2131 
z
" transform="scale(0.015625)"/>
      <path id="DejaVuSans-Bold-74" d="M 1759 4494 
L 1759 3500 
L 2913 3500 
L 2913 2700 
L 1759 2700 
L 1759 1216 
Q 1759 972 1856 886 
Q 1953 800 2241 800 
L 2816 800 
L 2816 0 
L 1856 0 
Q 1194 0 917 276 
Q 641 553 641 1216 
L 641 2700 
L 84 2700 
L 84 3500 
L 641 3500 
L 641 4494 
L 1759 4494 
z
" transform="scale(0.015625)"/>
      <path id="DejaVuSans-Bold-65" d="M 4031 1759 
L 4031 1441 
L 1416 1441 
Q 1456 1047 1700 850 
Q 1944 653 2381 653 
Q 2734 653 3104 758 
Q 3475 863 3866 1075 
L 3866 213 
Q 3469 63 3072 -14 
Q 2675 -91 2278 -91 
Q 1328 -91 801 392 
Q 275 875 275 1747 
Q 275 2603 792 3093 
Q 1309 3584 2216 3584 
Q 3041 3584 3536 3087 
Q 4031 2591 4031 1759 
z
M 2881 2131 
Q 2881 2450 2695 2645 
Q 2509 2841 2209 2841 
Q 1884 2841 1681 2658 
Q 1478 2475 1428 2131 
L 2881 2131 
z
" transform="scale(0.015625)"/>
     </defs>
     <use xlink:href="#DejaVuSans-Bold-41"/>
     <use xlink:href="#DejaVuSans-Bold-6c" x="77.392578"/>
     <use xlink:href="#DejaVuSans-Bold-69" x="111.669922"/>
     <use xlink:href="#DejaVuSans-Bold-61" x="145.947266"/>
     <use xlink:href="#DejaVuSans-Bold-6e" x="213.427734"/>
     <use xlink:href="#DejaVuSans-Bold-74" x="284.619141"/>
     <use xlink:href="#DejaVuSans-Bold-65" x="332.421875"/>
    </g>
    <!-- (quota h) -->
    <g style="fill: #b71c1c" transform="translate(40.364552 72.768404) scale(0.11 -0.11)">
     <defs>
      <path id="DejaVuSans-Bold-28" d="M 2413 -844 
L 1484 -844 
Q 1006 -72 778 623 
Q 550 1319 550 2003 
Q 550 2688 779 3389 
Q 1009 4091 1484 4856 
L 2413 4856 
Q 2013 4116 1813 3408 
Q 1613 2700 1613 2009 
Q 1613 1319 1811 609 
Q 2009 -100 2413 -844 
z
" transform="scale(0.015625)"/>
      <path id="DejaVuSans-Bold-71" d="M 2181 2772 
Q 1825 2772 1636 2509 
Q 1447 2247 1447 1747 
Q 1447 1247 1636 984 
Q 1825 722 2181 722 
Q 2541 722 2730 984 
Q 2919 1247 2919 1747 
Q 2919 2247 2730 2509 
Q 2541 2772 2181 2772 
z
M 2919 506 
Q 2688 197 2409 53 
Q 2131 -91 1766 -91 
Q 1119 -91 703 423 
Q 288 938 288 1747 
Q 288 2556 703 3067 
Q 1119 3578 1766 3578 
Q 2131 3578 2409 3434 
Q 2688 3291 2919 2981 
L 2919 3500 
L 4044 3500 
L 4044 -1331 
L 2919 -1331 
L 2919 506 
z
" transform="scale(0.015625)"/>
      <path id="DejaVuSans-Bold-75" d="M 500 1363 
L 500 3500 
L 1625 3500 
L 1625 3150 
Q 1625 2866 1622 2436 
Q 1619 2006 1619 1863 
Q 1619 1441 1641 1255 
Q 1663 1069 1716 984 
Q 1784 875 1895 815 
Q 2006 756 2150 756 
Q 2500 756 2700 1025 
Q 2900 1294 2900 1772 
L 2900 3500 
L 4019 3500 
L 4019 0 
L 2900 0 
L 2900 506 
Q 2647 200 2364 54 
Q 2081 -91 1741 -91 
Q 1134 -91 817 281 
Q 500 653 500 1363 
z
" transform="scale(0.015625)"/>
      <path id="DejaVuSans-Bold-6f" d="M 2203 2784 
Q 1831 2784 1636 2517 
Q 1441 2250 1441 1747 
Q 1441 1244 1636 976 
Q 1831 709 2203 709 
Q 2569 709 2762 976 
Q 2956 1244 2956 1747 
Q 2956 2250 2762 2517 
Q 2569 2784 2203 2784 
z
M 2203 3584 
Q 3106 3584 3614 3096 
Q 4122 2609 4122 1747 
Q 4122 884 3614 396 
Q 3106 -91 2203 -91 
Q 1297 -91 786 396 
Q 275 884 275 1747 
Q 275 2609 786 3096 
Q 1297 3584 2203 3584 
z
" transform="scale(0.015625)"/>
      <path id="DejaVuSans-Bold-20" transform="scale(0.015625)"/>
      <path id="DejaVuSans-Bold-68" d="M 4056 2131 
L 4056 0 
L 2931 0 
L 2931 347 
L 2931 1625 
Q 2931 2084 2911 2256 
Q 2891 2428 2841 2509 
Q 2775 2619 2662 2680 
Q 2550 2741 2406 2741 
Q 2056 2741 1856 2470 
Q 1656 2200 1656 1722 
L 1656 0 
L 538 0 
L 538 4863 
L 1656 4863 
L 1656 2988 
Q 1909 3294 2193 3439 
Q 2478 3584 2822 3584 
Q 3428 3584 3742 3212 
Q 4056 2841 4056 2131 
z
" transform="scale(0.015625)"/>
      <path id="DejaVuSans-Bold-29" d="M 513 -844 
Q 913 -100 1113 609 
Q 1313 1319 1313 2009 
Q 1313 2700 1113 3408 
Q 913 4116 513 4856 
L 1441 4856 
Q 1916 4091 2145 3389 
Q 2375 2688 2375 2003 
Q 2375 1319 2147 623 
Q 1919 -72 1441 -844 
L 513 -844 
z
" transform="scale(0.015625)"/>
     </defs>
     <use xlink:href="#DejaVuSans-Bold-28"/>
     <use xlink:href="#DejaVuSans-Bold-71" x="45.703125"/>
     <use xlink:href="#DejaVuSans-Bold-75" x="117.285156"/>
     <use xlink:href="#DejaVuSans-Bold-6f" x="188.476562"/>
     <use xlink:href="#DejaVuSans-Bold-74" x="257.177734"/>
     <use xlink:href="#DejaVuSans-Bold-61" x="304.980469"/>
     <use xlink:href="#DejaVuSans-Bold-20" x="372.460938"/>
     <use xlink:href="#DejaVuSans-Bold-68" x="407.275391"/>
     <use xlink:href="#DejaVuSans-Bold-29" x="478.466797"/>
    </g>
   </g>
   <g id="text_2">
    <g id="patch_7">
     <path d="M 443.73913 160.686345 
L 515.576005 160.686345 
Q 518.876005 160.686345 518.876005 157.386345 
L 518.876005 146.65447 
Q 518.876005 143.35447 515.576005 143.35447 
L 443.73913 143.35447 
Q 440.43913 143.35447 440.43913 146.65447 
L 440.43913 157.386345 
Q 440.43913 160.686345 443.73913 160.686345 
z
" style="fill: #ffffff; opacity: 0.92; stroke: #808080; stroke-linejoin: miter"/>
    </g>
    <!-- Atterraggio -->
    <g style="fill: #1b5e20" transform="translate(443.73913 155.012751) scale(0.11 -0.11)">
     <defs>
      <path id="DejaVuSans-Bold-72" d="M 3138 2547 
Q 2991 2616 2845 2648 
Q 2700 2681 2553 2681 
Q 2122 2681 1889 2404 
Q 1656 2128 1656 1613 
L 1656 0 
L 538 0 
L 538 3500 
L 1656 3500 
L 1656 2925 
Q 1872 3269 2151 3426 
Q 2431 3584 2822 3584 
Q 2878 3584 2943 3579 
Q 3009 3575 3134 3559 
L 3138 2547 
z
" transform="scale(0.015625)"/>
      <path id="DejaVuSans-Bold-67" d="M 2919 594 
Q 2688 288 2409 144 
Q 2131 0 1766 0 
Q 1125 0 706 504 
Q 288 1009 288 1791 
Q 288 2575 706 3076 
Q 1125 3578 1766 3578 
Q 2131 3578 2409 3434 
Q 2688 3291 2919 2981 
L 2919 3500 
L 4044 3500 
L 4044 353 
Q 4044 -491 3511 -936 
Q 2978 -1381 1966 -1381 
Q 1638 -1381 1331 -1331 
Q 1025 -1281 716 -1178 
L 716 -306 
Q 1009 -475 1290 -558 
Q 1572 -641 1856 -641 
Q 2406 -641 2662 -400 
Q 2919 -159 2919 353 
L 2919 594 
z
M 2181 2772 
Q 1834 2772 1640 2515 
Q 1447 2259 1447 1791 
Q 1447 1309 1634 1061 
Q 1822 813 2181 813 
Q 2531 813 2725 1069 
Q 2919 1325 2919 1791 
Q 2919 2259 2725 2515 
Q 2531 2772 2181 2772 
z
" transform="scale(0.015625)"/>
     </defs>
     <use xlink:href="#DejaVuSans-Bold-41"/>
     <use xlink:href="#DejaVuSans-Bold-74" x="77.392578"/>
     <use xlink:href="#DejaVuSans-Bold-74" x="125.195312"/>
     <use xlink:href="#DejaVuSans-Bold-65" x="172.998047"/>
     <use xlink:href="#DejaVuSans-Bold-72" x="240.820312"/>
     <use xlink:href="#DejaVuSans-Bold-72" x="290.136719"/>
     <use xlink:href="#DejaVuSans-Bold-61" x="339.453125"/>
     <use xlink:href="#DejaVuSans-Bold-67" x="406.933594"/>
     <use xlink:href="#DejaVuSans-Bold-67" x="478.515625"/>
     <use xlink:href="#DejaVuSans-Bold-69" x="550.097656"/>
     <use xlink:href="#DejaVuSans-Bold-6f" x="584.375"/>
    </g>
   </g>
   <g id="text_3">
    <g id="patch_8">
     <path d="M 215.625938 176.172867 
L 329.774063 176.172867 
Q 333.674063 176.172867 333.674063 172.272867 
L 333.674063 159.691304 
Q 333.674063 155.791304 329.774063 155.791304 
L 215.625938 155.791304 
Q 211.725938 155.791304 211.725938 159.691304 
L 211.725938 172.272867 
Q 211.725938 176.172867 215.625938 176.172867 
z
" style="fill: #ffffff; opacity: 0.92; stroke: #808080; stroke-linejoin: miter"/>
    </g>
    <!-- distanza = E · h -->
    <g style="fill: #0d47a1" transform="translate(215.625938 169.569273) scale(0.13 -0.13)">
     <defs>
      <path id="DejaVuSans-Bold-64" d="M 2919 2988 
L 2919 4863 
L 4044 4863 
L 4044 0 
L 2919 0 
L 2919 506 
Q 2688 197 2409 53 
Q 2131 -91 1766 -91 
Q 1119 -91 703 423 
Q 288 938 288 1747 
Q 288 2556 703 3070 
Q 1119 3584 1766 3584 
Q 2128 3584 2408 3439 
Q 2688 3294 2919 2988 
z
M 2181 722 
Q 2541 722 2730 984 
Q 2919 1247 2919 1747 
Q 2919 2247 2730 2509 
Q 2541 2772 2181 2772 
Q 1825 2772 1636 2509 
Q 1447 2247 1447 1747 
Q 1447 1247 1636 984 
Q 1825 722 2181 722 
z
" transform="scale(0.015625)"/>
      <path id="DejaVuSans-Bold-73" d="M 3272 3391 
L 3272 2541 
Q 2913 2691 2578 2766 
Q 2244 2841 1947 2841 
Q 1628 2841 1473 2761 
Q 1319 2681 1319 2516 
Q 1319 2381 1436 2309 
Q 1553 2238 1856 2203 
L 2053 2175 
Q 2913 2066 3209 1816 
Q 3506 1566 3506 1031 
Q 3506 472 3093 190 
Q 2681 -91 1863 -91 
Q 1516 -91 1145 -36 
Q 775 19 384 128 
L 384 978 
Q 719 816 1070 734 
Q 1422 653 1784 653 
Q 2113 653 2278 743 
Q 2444 834 2444 1013 
Q 2444 1163 2330 1236 
Q 2216 1309 1875 1350 
L 1678 1375 
Q 931 1469 631 1722 
Q 331 1975 331 2491 
Q 331 3047 712 3315 
Q 1094 3584 1881 3584 
Q 2191 3584 2531 3537 
Q 2872 3491 3272 3391 
z
" transform="scale(0.015625)"/>
      <path id="DejaVuSans-Bold-7a" d="M 366 3500 
L 3419 3500 
L 3419 2719 
L 1575 800 
L 3419 800 
L 3419 0 
L 288 0 
L 288 781 
L 2131 2700 
L 366 2700 
L 366 3500 
z
" transform="scale(0.015625)"/>
      <path id="DejaVuSans-Bold-3d" d="M 678 3084 
L 4684 3084 
L 4684 2350 
L 678 2350 
L 678 3084 
z
M 678 1663 
L 4684 1663 
L 4684 922 
L 678 922 
L 678 1663 
z
" transform="scale(0.015625)"/>
      <path id="DejaVuSans-Bold-45" d="M 588 4666 
L 3834 4666 
L 3834 3756 
L 1791 3756 
L 1791 2888 
L 3713 2888 
L 3713 1978 
L 1791 1978 
L 1791 909 
L 3903 909 
L 3903 0 
L 588 0 
L 588 4666 
z
" transform="scale(0.015625)"/>
      <path id="DejaVuSans-Bold-b7" d="M 653 2828 
L 1778 2828 
L 1778 1619 
L 653 1619 
L 653 2828 
z
" transform="scale(0.015625)"/>
     </defs>
     <use xlink:href="#DejaVuSans-Bold-64"/>
     <use xlink:href="#DejaVuSans-Bold-69" x="71.582031"/>
     <use xlink:href="#DejaVuSans-Bold-73" x="105.859375"/>
     <use xlink:href="#DejaVuSans-Bold-74" x="165.380859"/>
     <use xlink:href="#DejaVuSans-Bold-61" x="213.183594"/>
     <use xlink:href="#DejaVuSans-Bold-6e" x="280.664062"/>
     <use xlink:href="#DejaVuSans-Bold-7a" x="351.855469"/>
     <use xlink:href="#DejaVuSans-Bold-61" x="410.058594"/>
     <use xlink:href="#DejaVuSans-Bold-20" x="477.539062"/>
     <use xlink:href="#DejaVuSans-Bold-3d" x="512.353516"/>
     <use xlink:href="#DejaVuSans-Bold-20" x="596.142578"/>
     <use xlink:href="#DejaVuSans-Bold-45" x="630.957031"/>
     <use xlink:href="#DejaVuSans-Bold-20" x="699.267578"/>
     <use xlink:href="#DejaVuSans-Bold-b7" x="734.082031"/>
     <use xlink:href="#DejaVuSans-Bold-20" x="772.070312"/>
     <use xlink:href="#DejaVuSans-Bold-68" x="806.884766"/>
    </g>
   </g>
   <g id="text_4">
    <!-- h -->
    <g style="fill: #666666" transform="translate(88.055489 114.982317) scale(0.14 -0.14)">
     <use xlink:href="#DejaVuSans-Bold-68"/>
    </g>
   </g>
   <g id="text_5">
    <g id="patch_9">
     <path d="M 139.507826 106.961135 
L 222.087514 106.961135 
Q 225.087514 106.961135 225.087514 103.961135 
L 225.087514 71.887385 
Q 225.087514 68.887385 222.087514 68.887385 
L 139.507826 68.887385 
Q 136.507826 68.887385 136.507826 71.887385 
L 136.507826 103.961135 
Q 136.507826 106.961135 139.507826 106.961135 
z
" style="fill: #ffffff; opacity: 0.92; stroke: #808080; stroke-linejoin: miter"/>
    </g>
    <!-- γ -->
    <g style="fill: #6a1b9a" transform="translate(139.507826 79.485822) scale(0.1 -0.1)">
     <defs>
      <path id="DejaVuSans-3b3" d="M 1128 2950 
L 1894 788 
L 2988 3500 
L 3597 3500 
L 2181 0 
L 2181 -1331 
L 1606 -1331 
L 1606 0 
L 688 2613 
Q 550 3006 253 3006 
L 100 3006 
L 100 3500 
L 319 3500 
Q 934 3500 1128 2950 
z
" transform="scale(0.015625)"/>
     </defs>
     <use xlink:href="#DejaVuSans-3b3"/>
    </g>
    <!-- (angolo planata) -->
    <g style="fill: #6a1b9a" transform="translate(139.507826 90.683635) scale(0.1 -0.1)">
     <defs>
      <path id="DejaVuSans-28" d="M 1984 4856 
Q 1566 4138 1362 3434 
Q 1159 2731 1159 2009 
Q 1159 1288 1364 580 
Q 1569 -128 1984 -844 
L 1484 -844 
Q 1016 -109 783 600 
Q 550 1309 550 2009 
Q 550 2706 781 3412 
Q 1013 4119 1484 4856 
L 1984 4856 
z
" transform="scale(0.015625)"/>
      <path id="DejaVuSans-61" d="M 2194 1759 
Q 1497 1759 1228 1600 
Q 959 1441 959 1056 
Q 959 750 1161 570 
Q 1363 391 1709 391 
Q 2188 391 2477 730 
Q 2766 1069 2766 1631 
L 2766 1759 
L 2194 1759 
z
M 3341 1997 
L 3341 0 
L 2766 0 
L 2766 531 
Q 2569 213 2275 61 
Q 1981 -91 1556 -91 
Q 1019 -91 701 211 
Q 384 513 384 1019 
Q 384 1609 779 1909 
Q 1175 2209 1959 2209 
L 2766 2209 
L 2766 2266 
Q 2766 2663 2505 2880 
Q 2244 3097 1772 3097 
Q 1472 3097 1187 3025 
Q 903 2953 641 2809 
L 641 3341 
Q 956 3463 1253 3523 
Q 1550 3584 1831 3584 
Q 2591 3584 2966 3190 
Q 3341 2797 3341 1997 
z
" transform="scale(0.015625)"/>
      <path id="DejaVuSans-6e" d="M 3513 2113 
L 3513 0 
L 2938 0 
L 2938 2094 
Q 2938 2591 2744 2837 
Q 2550 3084 2163 3084 
Q 1697 3084 1428 2787 
Q 1159 2491 1159 1978 
L 1159 0 
L 581 0 
L 581 3500 
L 1159 3500 
L 1159 2956 
Q 1366 3272 1645 3428 
Q 1925 3584 2291 3584 
Q 2894 3584 3203 3211 
Q 3513 2838 3513 2113 
z
" transform="scale(0.015625)"/>
      <path id="DejaVuSans-67" d="M 2906 1791 
Q 2906 2416 2648 2759 
Q 2391 3103 1925 3103 
Q 1463 3103 1205 2759 
Q 947 2416 947 1791 
Q 947 1169 1205 825 
Q 1463 481 1925 481 
Q 2391 481 2648 825 
Q 2906 1169 2906 1791 
z
M 3481 434 
Q 3481 -459 3084 -895 
Q 2688 -1331 1869 -1331 
Q 1566 -1331 1297 -1286 
Q 1028 -1241 775 -1147 
L 775 -588 
Q 1028 -725 1275 -790 
Q 1522 -856 1778 -856 
Q 2344 -856 2625 -561 
Q 2906 -266 2906 331 
L 2906 616 
Q 2728 306 2450 153 
Q 2172 0 1784 0 
Q 1141 0 747 490 
Q 353 981 353 1791 
Q 353 2603 747 3093 
Q 1141 3584 1784 3584 
Q 2172 3584 2450 3431 
Q 2728 3278 2906 2969 
L 2906 3500 
L 3481 3500 
L 3481 434 
z
" transform="scale(0.015625)"/>
      <path id="DejaVuSans-6f" d="M 1959 3097 
Q 1497 3097 1228 2736 
Q 959 2375 959 1747 
Q 959 1119 1226 758 
Q 1494 397 1959 397 
Q 2419 397 2687 759 
Q 2956 1122 2956 1747 
Q 2956 2369 2687 2733 
Q 2419 3097 1959 3097 
z
M 1959 3584 
Q 2709 3584 3137 3096 
Q 3566 2609 3566 1747 
Q 3566 888 3137 398 
Q 2709 -91 1959 -91 
Q 1206 -91 779 398 
Q 353 888 353 1747 
Q 353 2609 779 3096 
Q 1206 3584 1959 3584 
z
" transform="scale(0.015625)"/>
      <path id="DejaVuSans-6c" d="M 603 4863 
L 1178 4863 
L 1178 0 
L 603 0 
L 603 4863 
z
" transform="scale(0.015625)"/>
      <path id="DejaVuSans-20" transform="scale(0.015625)"/>
      <path id="DejaVuSans-70" d="M 1159 525 
L 1159 -1331 
L 581 -1331 
L 581 3500 
L 1159 3500 
L 1159 2969 
Q 1341 3281 1617 3432 
Q 1894 3584 2278 3584 
Q 2916 3584 3314 3078 
Q 3713 2572 3713 1747 
Q 3713 922 3314 415 
Q 2916 -91 2278 -91 
Q 1894 -91 1617 61 
Q 1341 213 1159 525 
z
M 3116 1747 
Q 3116 2381 2855 2742 
Q 2594 3103 2138 3103 
Q 1681 3103 1420 2742 
Q 1159 2381 1159 1747 
Q 1159 1113 1420 752 
Q 1681 391 2138 391 
Q 2594 391 2855 752 
Q 3116 1113 3116 1747 
z
" transform="scale(0.015625)"/>
      <path id="DejaVuSans-74" d="M 1172 4494 
L 1172 3500 
L 2356 3500 
L 2356 3053 
L 1172 3053 
L 1172 1153 
Q 1172 725 1289 603 
Q 1406 481 1766 481 
L 2356 481 
L 2356 0 
L 1766 0 
Q 1100 0 847 248 
Q 594 497 594 1153 
L 594 3053 
L 172 3053 
L 172 3500 
L 594 3500 
L 594 4494 
L 1172 4494 
z
" transform="scale(0.015625)"/>
      <path id="DejaVuSans-29" d="M 513 4856 
L 1013 4856 
Q 1481 4119 1714 3412 
Q 1947 2706 1947 2009 
Q 1947 1309 1714 600 
Q 1481 -109 1013 -844 
L 513 -844 
Q 928 -128 1133 580 
Q 1338 1288 1338 2009 
Q 1338 2731 1133 3434 
Q 928 4138 513 4856 
z
" transform="scale(0.015625)"/>
     </defs>
     <use xlink:href="#DejaVuSans-28"/>
     <use xlink:href="#DejaVuSans-61" x="39.013672"/>
     <use xlink:href="#DejaVuSans-6e" x="100.292969"/>
     <use xlink:href="#DejaVuSans-67" x="163.671875"/>
     <use xlink:href="#DejaVuSans-6f" x="227.148438"/>
     <use xlink:href="#DejaVuSans-6c" x="288.330078"/>
     <use xlink:href="#DejaVuSans-6f" x="316.113281"/>
     <use xlink:href="#DejaVuSans-20" x="377.294922"/>
     <use xlink:href="#DejaVuSans-70" x="409.082031"/>
     <use xlink:href="#DejaVuSans-6c" x="472.558594"/>
     <use xlink:href="#DejaVuSans-61" x="500.341797"/>
     <use xlink:href="#DejaVuSans-6e" x="561.621094"/>
     <use xlink:href="#DejaVuSans-61" x="625"/>
     <use xlink:href="#DejaVuSans-74" x="686.279297"/>
     <use xlink:href="#DejaVuSans-61" x="725.488281"/>
     <use xlink:href="#DejaVuSans-29" x="786.767578"/>
    </g>
    <!-- tan γ = 1/E -->
    <g style="fill: #6a1b9a" transform="translate(139.507826 101.881447) scale(0.1 -0.1)">
     <defs>
      <path id="DejaVuSans-3d" d="M 678 2906 
L 4684 2906 
L 4684 2381 
L 678 2381 
L 678 2906 
z
M 678 1631 
L 4684 1631 
L 4684 1100 
L 678 1100 
L 678 1631 
z
" transform="scale(0.015625)"/>
      <path id="DejaVuSans-31" d="M 794 531 
L 1825 531 
L 1825 4091 
L 703 3866 
L 703 4441 
L 1819 4666 
L 2450 4666 
L 2450 531 
L 3481 531 
L 3481 0 
L 794 0 
L 794 531 
z
" transform="scale(0.015625)"/>
      <path id="DejaVuSans-2f" d="M 1625 4666 
L 2156 4666 
L 531 -594 
L 0 -594 
L 1625 4666 
z
" transform="scale(0.015625)"/>
      <path id="DejaVuSans-45" d="M 628 4666 
L 3578 4666 
L 3578 4134 
L 1259 4134 
L 1259 2753 
L 3481 2753 
L 3481 2222 
L 1259 2222 
L 1259 531 
L 3634 531 
L 3634 0 
L 628 0 
L 628 4666 
z
" transform="scale(0.015625)"/>
     </defs>
     <use xlink:href="#DejaVuSans-74"/>
     <use xlink:href="#DejaVuSans-61" x="39.208984"/>
     <use xlink:href="#DejaVuSans-6e" x="100.488281"/>
     <use xlink:href="#DejaVuSans-20" x="163.867188"/>
     <use xlink:href="#DejaVuSans-3b3" x="195.654297"/>
     <use xlink:href="#DejaVuSans-20" x="254.833984"/>
     <use xlink:href="#DejaVuSans-3d" x="286.621094"/>
     <use xlink:href="#DejaVuSans-20" x="370.410156"/>
     <use xlink:href="#DejaVuSans-31" x="402.197266"/>
     <use xlink:href="#DejaVuSans-2f" x="465.820312"/>
     <use xlink:href="#DejaVuSans-45" x="499.511719"/>
    </g>
   </g>
   <g id="text_6">
    <!-- Planata stabilizzata di un aliante: distanza al suolo = E × quota persa -->
    <g transform="translate(45.821563 31.477969) scale(0.13 -0.13)">
     <defs>
      <path id="DejaVuSans-50" d="M 1259 4147 
L 1259 2394 
L 2053 2394 
Q 2494 2394 2734 2622 
Q 2975 2850 2975 3272 
Q 2975 3691 2734 3919 
Q 2494 4147 2053 4147 
L 1259 4147 
z
M 628 4666 
L 2053 4666 
Q 2838 4666 3239 4311 
Q 3641 3956 3641 3272 
Q 3641 2581 3239 2228 
Q 2838 1875 2053 1875 
L 1259 1875 
L 1259 0 
L 628 0 
L 628 4666 
z
" transform="scale(0.015625)"/>
      <path id="DejaVuSans-73" d="M 2834 3397 
L 2834 2853 
Q 2591 2978 2328 3040 
Q 2066 3103 1784 3103 
Q 1356 3103 1142 2972 
Q 928 2841 928 2578 
Q 928 2378 1081 2264 
Q 1234 2150 1697 2047 
L 1894 2003 
Q 2506 1872 2764 1633 
Q 3022 1394 3022 966 
Q 3022 478 2636 193 
Q 2250 -91 1575 -91 
Q 1294 -91 989 -36 
Q 684 19 347 128 
L 347 722 
Q 666 556 975 473 
Q 1284 391 1588 391 
Q 1994 391 2212 530 
Q 2431 669 2431 922 
Q 2431 1156 2273 1281 
Q 2116 1406 1581 1522 
L 1381 1569 
Q 847 1681 609 1914 
Q 372 2147 372 2553 
Q 372 3047 722 3315 
Q 1072 3584 1716 3584 
Q 2034 3584 2315 3537 
Q 2597 3491 2834 3397 
z
" transform="scale(0.015625)"/>
      <path id="DejaVuSans-62" d="M 3116 1747 
Q 3116 2381 2855 2742 
Q 2594 3103 2138 3103 
Q 1681 3103 1420 2742 
Q 1159 2381 1159 1747 
Q 1159 1113 1420 752 
Q 1681 391 2138 391 
Q 2594 391 2855 752 
Q 3116 1113 3116 1747 
z
M 1159 2969 
Q 1341 3281 1617 3432 
Q 1894 3584 2278 3584 
Q 2916 3584 3314 3078 
Q 3713 2572 3713 1747 
Q 3713 922 3314 415 
Q 2916 -91 2278 -91 
Q 1894 -91 1617 61 
Q 1341 213 1159 525 
L 1159 0 
L 581 0 
L 581 4863 
L 1159 4863 
L 1159 2969 
z
" transform="scale(0.015625)"/>
      <path id="DejaVuSans-69" d="M 603 3500 
L 1178 3500 
L 1178 0 
L 603 0 
L 603 3500 
z
M 603 4863 
L 1178 4863 
L 1178 4134 
L 603 4134 
L 603 4863 
z
" transform="scale(0.015625)"/>
      <path id="DejaVuSans-7a" d="M 353 3500 
L 3084 3500 
L 3084 2975 
L 922 459 
L 3084 459 
L 3084 0 
L 275 0 
L 275 525 
L 2438 3041 
L 353 3041 
L 353 3500 
z
" transform="scale(0.015625)"/>
      <path id="DejaVuSans-64" d="M 2906 2969 
L 2906 4863 
L 3481 4863 
L 3481 0 
L 2906 0 
L 2906 525 
Q 2725 213 2448 61 
Q 2172 -91 1784 -91 
Q 1150 -91 751 415 
Q 353 922 353 1747 
Q 353 2572 751 3078 
Q 1150 3584 1784 3584 
Q 2172 3584 2448 3432 
Q 2725 3281 2906 2969 
z
M 947 1747 
Q 947 1113 1208 752 
Q 1469 391 1925 391 
Q 2381 391 2643 752 
Q 2906 1113 2906 1747 
Q 2906 2381 2643 2742 
Q 2381 3103 1925 3103 
Q 1469 3103 1208 2742 
Q 947 2381 947 1747 
z
" transform="scale(0.015625)"/>
      <path id="DejaVuSans-75" d="M 544 1381 
L 544 3500 
L 1119 3500 
L 1119 1403 
Q 1119 906 1312 657 
Q 1506 409 1894 409 
Q 2359 409 2629 706 
Q 2900 1003 2900 1516 
L 2900 3500 
L 3475 3500 
L 3475 0 
L 2900 0 
L 2900 538 
Q 2691 219 2414 64 
Q 2138 -91 1772 -91 
Q 1169 -91 856 284 
Q 544 659 544 1381 
z
M 1991 3584 
L 1991 3584 
z
" transform="scale(0.015625)"/>
      <path id="DejaVuSans-65" d="M 3597 1894 
L 3597 1613 
L 953 1613 
Q 991 1019 1311 708 
Q 1631 397 2203 397 
Q 2534 397 2845 478 
Q 3156 559 3463 722 
L 3463 178 
Q 3153 47 2828 -22 
Q 2503 -91 2169 -91 
Q 1331 -91 842 396 
Q 353 884 353 1716 
Q 353 2575 817 3079 
Q 1281 3584 2069 3584 
Q 2775 3584 3186 3129 
Q 3597 2675 3597 1894 
z
M 3022 2063 
Q 3016 2534 2758 2815 
Q 2500 3097 2075 3097 
Q 1594 3097 1305 2825 
Q 1016 2553 972 2059 
L 3022 2063 
z
" transform="scale(0.015625)"/>
      <path id="DejaVuSans-3a" d="M 750 794 
L 1409 794 
L 1409 0 
L 750 0 
L 750 794 
z
M 750 3309 
L 1409 3309 
L 1409 2516 
L 750 2516 
L 750 3309 
z
" transform="scale(0.015625)"/>
      <path id="DejaVuSans-d7" d="M 4488 3438 
L 3059 2003 
L 4488 575 
L 4116 197 
L 2681 1631 
L 1247 197 
L 878 575 
L 2303 2003 
L 878 3438 
L 1247 3816 
L 2681 2381 
L 4116 3816 
L 4488 3438 
z
" transform="scale(0.015625)"/>
      <path id="DejaVuSans-71" d="M 947 1747 
Q 947 1113 1208 752 
Q 1469 391 1925 391 
Q 2381 391 2643 752 
Q 2906 1113 2906 1747 
Q 2906 2381 2643 2742 
Q 2381 3103 1925 3103 
Q 1469 3103 1208 2742 
Q 947 2381 947 1747 
z
M 2906 525 
Q 2725 213 2448 61 
Q 2172 -91 1784 -91 
Q 1150 -91 751 415 
Q 353 922 353 1747 
Q 353 2572 751 3078 
Q 1150 3584 1784 3584 
Q 2172 3584 2448 3432 
Q 2725 3281 2906 2969 
L 2906 3500 
L 3481 3500 
L 3481 -1331 
L 2906 -1331 
L 2906 525 
z
" transform="scale(0.015625)"/>
      <path id="DejaVuSans-72" d="M 2631 2963 
Q 2534 3019 2420 3045 
Q 2306 3072 2169 3072 
Q 1681 3072 1420 2755 
Q 1159 2438 1159 1844 
L 1159 0 
L 581 0 
L 581 3500 
L 1159 3500 
L 1159 2956 
Q 1341 3275 1631 3429 
Q 1922 3584 2338 3584 
Q 2397 3584 2469 3576 
Q 2541 3569 2628 3553 
L 2631 2963 
z
" transform="scale(0.015625)"/>
     </defs>
     <use xlink:href="#DejaVuSans-50"/>
     <use xlink:href="#DejaVuSans-6c" x="60.302734"/>
     <use xlink:href="#DejaVuSans-61" x="88.085938"/>
     <use xlink:href="#DejaVuSans-6e" x="149.365234"/>
     <use xlink:href="#DejaVuSans-61" x="212.744141"/>
     <use xlink:href="#DejaVuSans-74" x="274.023438"/>
     <use xlink:href="#DejaVuSans-61" x="313.232422"/>
     <use xlink:href="#DejaVuSans-20" x="374.511719"/>
     <use xlink:href="#DejaVuSans-73" x="406.298828"/>
     <use xlink:href="#DejaVuSans-74" x="458.398438"/>
     <use xlink:href="#DejaVuSans-61" x="497.607422"/>
     <use xlink:href="#DejaVuSans-62" x="558.886719"/>
     <use xlink:href="#DejaVuSans-69" x="622.363281"/>
     <use xlink:href="#DejaVuSans-6c" x="650.146484"/>
     <use xlink:href="#DejaVuSans-69" x="677.929688"/>
     <use xlink:href="#DejaVuSans-7a" x="705.712891"/>
     <use xlink:href="#DejaVuSans-7a" x="758.203125"/>
     <use xlink:href="#DejaVuSans-61" x="810.693359"/>
     <use xlink:href="#DejaVuSans-74" x="871.972656"/>
     <use xlink:href="#DejaVuSans-61" x="911.181641"/>
     <use xlink:href="#DejaVuSans-20" x="972.460938"/>
     <use xlink:href="#DejaVuSans-64" x="1004.248047"/>
     <use xlink:href="#DejaVuSans-69" x="1067.724609"/>
     <use xlink:href="#DejaVuSans-20" x="1095.507812"/>
     <use xlink:href="#DejaVuSans-75" x="1127.294922"/>
     <use xlink:href="#DejaVuSans-6e" x="1190.673828"/>
     <use xlink:href="#DejaVuSans-20" x="1254.052734"/>
     <use xlink:href="#DejaVuSans-61" x="1285.839844"/>
     <use xlink:href="#DejaVuSans-6c" x="1347.119141"/>
     <use xlink:href="#DejaVuSans-69" x="1374.902344"/>
     <use xlink:href="#DejaVuSans-61" x="1402.685547"/>
     <use xlink:href="#DejaVuSans-6e" x="1463.964844"/>
     <use xlink:href="#DejaVuSans-74" x="1527.34375"/>
     <use xlink:href="#DejaVuSans-65" x="1566.552734"/>
     <use xlink:href="#DejaVuSans-3a" x="1628.076172"/>
     <use xlink:href="#DejaVuSans-20" x="1661.767578"/>
     <use xlink:href="#DejaVuSans-64" x="1693.554688"/>
     <use xlink:href="#DejaVuSans-69" x="1757.03125"/>
     <use xlink:href="#DejaVuSans-73" x="1784.814453"/>
     <use xlink:href="#DejaVuSans-74" x="1836.914062"/>
     <use xlink:href="#DejaVuSans-61" x="1876.123047"/>
     <use xlink:href="#DejaVuSans-6e" x="1937.402344"/>
     <use xlink:href="#DejaVuSans-7a" x="2000.78125"/>
     <use xlink:href="#DejaVuSans-61" x="2053.271484"/>
     <use xlink:href="#DejaVuSans-20" x="2114.550781"/>
     <use xlink:href="#DejaVuSans-61" x="2146.337891"/>
     <use xlink:href="#DejaVuSans-6c" x="2207.617188"/>
     <use xlink:href="#DejaVuSans-20" x="2235.400391"/>
     <use xlink:href="#DejaVuSans-73" x="2267.1875"/>
     <use xlink:href="#DejaVuSans-75" x="2319.287109"/>
     <use xlink:href="#DejaVuSans-6f" x="2382.666016"/>
     <use xlink:href="#DejaVuSans-6c" x="2443.847656"/>
     <use xlink:href="#DejaVuSans-6f" x="2471.630859"/>
     <use xlink:href="#DejaVuSans-20" x="2532.8125"/>
     <use xlink:href="#DejaVuSans-3d" x="2564.599609"/>
     <use xlink:href="#DejaVuSans-20" x="2648.388672"/>
     <use xlink:href="#DejaVuSans-45" x="2680.175781"/>
     <use xlink:href="#DejaVuSans-20" x="2743.359375"/>
     <use xlink:href="#DejaVuSans-d7" x="2775.146484"/>
     <use xlink:href="#DejaVuSans-20" x="2858.935547"/>
     <use xlink:href="#DejaVuSans-71" x="2890.722656"/>
     <use xlink:href="#DejaVuSans-75" x="2954.199219"/>
     <use xlink:href="#DejaVuSans-6f" x="3017.578125"/>
     <use xlink:href="#DejaVuSans-74" x="3078.759766"/>
     <use xlink:href="#DejaVuSans-61" x="3117.96875"/>
     <use xlink:href="#DejaVuSans-20" x="3179.248047"/>
     <use xlink:href="#DejaVuSans-70" x="3211.035156"/>
     <use xlink:href="#DejaVuSans-65" x="3274.511719"/>
     <use xlink:href="#DejaVuSans-72" x="3336.035156"/>
     <use xlink:href="#DejaVuSans-73" x="3377.148438"/>
     <use xlink:href="#DejaVuSans-61" x="3429.248047"/>
    </g>
   </g>
   <g id="PathCollection_1">
    <defs>
     <path id="ma9f693186c" d="M 0 -7.905694 
L -7.905694 7.905694 
L 7.905694 7.905694 
z
" style="stroke: #000000; stroke-width: 1.5"/>
    </defs>
    <g clip-path="url(#pd1054ec620)">
     <use xlink:href="#ma9f693186c" x="108.93913" y="78.591012" style="fill: #d32f2f; stroke: #000000; stroke-width: 1.5"/>
    </g>
   </g>
   <g id="PathCollection_2">
    <defs>
     <path id="m1a4bc15ffa" d="M -0 6.123724 
L 6.123724 -6.123724 
L -6.123724 -6.123724 
z
" style="stroke: #000000; stroke-width: 1.5"/>
    </defs>
    <g clip-path="url(#pd1054ec620)">
     <use xlink:href="#m1a4bc15ffa" x="436.46087" y="151.373621" style="fill: #43a047; stroke: #000000; stroke-width: 1.5"/>
    </g>
   </g>
  </g>
 </g>
 <defs>
  <clipPath id="pd1054ec620">
   <rect x="21.6" y="49.477969" width="502.2" height="138.286957"/>
  </clipPath>
 </defs>
</svg>
