<?xml version="1.0" encoding="utf-8" standalone="no"?>
<!DOCTYPE svg PUBLIC "-//W3C//DTD SVG 1.1//EN"
  "http://www.w3.org/Graphics/SVG/1.1/DTD/svg11.dtd">
<svg xmlns:xlink="http://www.w3.org/1999/xlink" width="586.733438pt" height="436.977656pt" viewBox="0 0 586.733438 436.977656" xmlns="http://www.w3.org/2000/svg" version="1.1">
 <metadata>
  <rdf:RDF xmlns:dc="http://purl.org/dc/elements/1.1/" xmlns:cc="http://creativecommons.org/ns#" xmlns:rdf="http://www.w3.org/1999/02/22-rdf-syntax-ns#">
   <cc:Work>
    <dc:type rdf:resource="http://purl.org/dc/dcmitype/StillImage"/>
    <dc:date>2026-04-27T21:32:02.916300</dc:date>
    <dc:format>image/svg+xml</dc:format>
    <dc:creator>
     <cc:Agent>
      <dc:title>Matplotlib v3.9.4, https://matplotlib.org/</dc:title>
     </cc:Agent>
    </dc:creator>
   </cc:Work>
  </rdf:RDF>
 </metadata>
 <defs>
  <style type="text/css">*{stroke-linejoin: round; stroke-linecap: butt}</style>
 </defs>
 <g id="figure_1">
  <g id="patch_1">
   <path d="M 0 436.977656 
L 586.733438 436.977656 
L 586.733438 0 
L 0 0 
z
" style="fill: #ffffff"/>
  </g>
  <g id="axes_1">
   <g id="patch_2">
    <path d="M 62.933437 382.117969 
L 565.133438 382.117969 
L 565.133438 49.477969 
L 62.933437 49.477969 
z
" style="fill: #ffffff"/>
   </g>
   <g id="matplotlib.axis_1">
    <g id="xtick_1">
     <g id="line2d_1">
      <path d="M 62.933437 382.117969 
L 62.933437 49.477969 
" clip-path="url(#pe918b37d9c)" style="fill: none; stroke: #b0b0b0; stroke-opacity: 0.3; stroke-width: 0.8; stroke-linecap: square"/>
     </g>
     <g id="line2d_2">
      <defs>
       <path id="m193b7e3cc7" d="M 0 0 
L 0 3.5 
" style="stroke: #000000; stroke-width: 0.8"/>
      </defs>
      <g>
       <use xlink:href="#m193b7e3cc7" x="62.933437" y="382.117969" style="stroke: #000000; stroke-width: 0.8"/>
      </g>
     </g>
     <g id="text_1">
      <!-- 0.00 -->
      <g transform="translate(50.687344 397.47625) scale(0.11 -0.11)">
       <defs>
        <path id="DejaVuSans-30" d="M 2034 4250 
Q 1547 4250 1301 3770 
Q 1056 3291 1056 2328 
Q 1056 1369 1301 889 
Q 1547 409 2034 409 
Q 2525 409 2770 889 
Q 3016 1369 3016 2328 
Q 3016 3291 2770 3770 
Q 2525 4250 2034 4250 
z
M 2034 4750 
Q 2819 4750 3233 4129 
Q 3647 3509 3647 2328 
Q 3647 1150 3233 529 
Q 2819 -91 2034 -91 
Q 1250 -91 836 529 
Q 422 1150 422 2328 
Q 422 3509 836 4129 
Q 1250 4750 2034 4750 
z
" transform="scale(0.015625)"/>
        <path id="DejaVuSans-2e" d="M 684 794 
L 1344 794 
L 1344 0 
L 684 0 
L 684 794 
z
" transform="scale(0.015625)"/>
       </defs>
       <use xlink:href="#DejaVuSans-30"/>
       <use xlink:href="#DejaVuSans-2e" x="63.623047"/>
       <use xlink:href="#DejaVuSans-30" x="95.410156"/>
       <use xlink:href="#DejaVuSans-30" x="159.033203"/>
      </g>
     </g>
    </g>
    <g id="xtick_2">
     <g id="line2d_3">
      <path d="M 122.01579 382.117969 
L 122.01579 49.477969 
" clip-path="url(#pe918b37d9c)" style="fill: none; stroke: #b0b0b0; stroke-opacity: 0.3; stroke-width: 0.8; stroke-linecap: square"/>
     </g>
     <g id="line2d_4">
      <g>
       <use xlink:href="#m193b7e3cc7" x="122.01579" y="382.117969" style="stroke: #000000; stroke-width: 0.8"/>
      </g>
     </g>
     <g id="text_2">
      <!-- 0.02 -->
      <g transform="translate(109.769697 397.47625) scale(0.11 -0.11)">
       <defs>
        <path id="DejaVuSans-32" d="M 1228 531 
L 3431 531 
L 3431 0 
L 469 0 
L 469 531 
Q 828 903 1448 1529 
Q 2069 2156 2228 2338 
Q 2531 2678 2651 2914 
Q 2772 3150 2772 3378 
Q 2772 3750 2511 3984 
Q 2250 4219 1831 4219 
Q 1534 4219 1204 4116 
Q 875 4013 500 3803 
L 500 4441 
Q 881 4594 1212 4672 
Q 1544 4750 1819 4750 
Q 2544 4750 2975 4387 
Q 3406 4025 3406 3419 
Q 3406 3131 3298 2873 
Q 3191 2616 2906 2266 
Q 2828 2175 2409 1742 
Q 1991 1309 1228 531 
z
" transform="scale(0.015625)"/>
       </defs>
       <use xlink:href="#DejaVuSans-30"/>
       <use xlink:href="#DejaVuSans-2e" x="63.623047"/>
       <use xlink:href="#DejaVuSans-30" x="95.410156"/>
       <use xlink:href="#DejaVuSans-32" x="159.033203"/>
      </g>
     </g>
    </g>
    <g id="xtick_3">
     <g id="line2d_5">
      <path d="M 181.098143 382.117969 
L 181.098143 49.477969 
" clip-path="url(#pe918b37d9c)" style="fill: none; stroke: #b0b0b0; stroke-opacity: 0.3; stroke-width: 0.8; stroke-linecap: square"/>
     </g>
     <g id="line2d_6">
      <g>
       <use xlink:href="#m193b7e3cc7" x="181.098143" y="382.117969" style="stroke: #000000; stroke-width: 0.8"/>
      </g>
     </g>
     <g id="text_3">
      <!-- 0.04 -->
      <g transform="translate(168.85205 397.47625) scale(0.11 -0.11)">
       <defs>
        <path id="DejaVuSans-34" d="M 2419 4116 
L 825 1625 
L 2419 1625 
L 2419 4116 
z
M 2253 4666 
L 3047 4666 
L 3047 1625 
L 3713 1625 
L 3713 1100 
L 3047 1100 
L 3047 0 
L 2419 0 
L 2419 1100 
L 313 1100 
L 313 1709 
L 2253 4666 
z
" transform="scale(0.015625)"/>
       </defs>
       <use xlink:href="#DejaVuSans-30"/>
       <use xlink:href="#DejaVuSans-2e" x="63.623047"/>
       <use xlink:href="#DejaVuSans-30" x="95.410156"/>
       <use xlink:href="#DejaVuSans-34" x="159.033203"/>
      </g>
     </g>
    </g>
    <g id="xtick_4">
     <g id="line2d_7">
      <path d="M 240.180496 382.117969 
L 240.180496 49.477969 
" clip-path="url(#pe918b37d9c)" style="fill: none; stroke: #b0b0b0; stroke-opacity: 0.3; stroke-width: 0.8; stroke-linecap: square"/>
     </g>
     <g id="line2d_8">
      <g>
       <use xlink:href="#m193b7e3cc7" x="240.180496" y="382.117969" style="stroke: #000000; stroke-width: 0.8"/>
      </g>
     </g>
     <g id="text_4">
      <!-- 0.06 -->
      <g transform="translate(227.934403 397.47625) scale(0.11 -0.11)">
       <defs>
        <path id="DejaVuSans-36" d="M 2113 2584 
Q 1688 2584 1439 2293 
Q 1191 2003 1191 1497 
Q 1191 994 1439 701 
Q 1688 409 2113 409 
Q 2538 409 2786 701 
Q 3034 994 3034 1497 
Q 3034 2003 2786 2293 
Q 2538 2584 2113 2584 
z
M 3366 4563 
L 3366 3988 
Q 3128 4100 2886 4159 
Q 2644 4219 2406 4219 
Q 1781 4219 1451 3797 
Q 1122 3375 1075 2522 
Q 1259 2794 1537 2939 
Q 1816 3084 2150 3084 
Q 2853 3084 3261 2657 
Q 3669 2231 3669 1497 
Q 3669 778 3244 343 
Q 2819 -91 2113 -91 
Q 1303 -91 875 529 
Q 447 1150 447 2328 
Q 447 3434 972 4092 
Q 1497 4750 2381 4750 
Q 2619 4750 2861 4703 
Q 3103 4656 3366 4563 
z
" transform="scale(0.015625)"/>
       </defs>
       <use xlink:href="#DejaVuSans-30"/>
       <use xlink:href="#DejaVuSans-2e" x="63.623047"/>
       <use xlink:href="#DejaVuSans-30" x="95.410156"/>
       <use xlink:href="#DejaVuSans-36" x="159.033203"/>
      </g>
     </g>
    </g>
    <g id="xtick_5">
     <g id="line2d_9">
      <path d="M 299.262849 382.117969 
L 299.262849 49.477969 
" clip-path="url(#pe918b37d9c)" style="fill: none; stroke: #b0b0b0; stroke-opacity: 0.3; stroke-width: 0.8; stroke-linecap: square"/>
     </g>
     <g id="line2d_10">
      <g>
       <use xlink:href="#m193b7e3cc7" x="299.262849" y="382.117969" style="stroke: #000000; stroke-width: 0.8"/>
      </g>
     </g>
     <g id="text_5">
      <!-- 0.08 -->
      <g transform="translate(287.016756 397.47625) scale(0.11 -0.11)">
       <defs>
        <path id="DejaVuSans-38" d="M 2034 2216 
Q 1584 2216 1326 1975 
Q 1069 1734 1069 1313 
Q 1069 891 1326 650 
Q 1584 409 2034 409 
Q 2484 409 2743 651 
Q 3003 894 3003 1313 
Q 3003 1734 2745 1975 
Q 2488 2216 2034 2216 
z
M 1403 2484 
Q 997 2584 770 2862 
Q 544 3141 544 3541 
Q 544 4100 942 4425 
Q 1341 4750 2034 4750 
Q 2731 4750 3128 4425 
Q 3525 4100 3525 3541 
Q 3525 3141 3298 2862 
Q 3072 2584 2669 2484 
Q 3125 2378 3379 2068 
Q 3634 1759 3634 1313 
Q 3634 634 3220 271 
Q 2806 -91 2034 -91 
Q 1263 -91 848 271 
Q 434 634 434 1313 
Q 434 1759 690 2068 
Q 947 2378 1403 2484 
z
M 1172 3481 
Q 1172 3119 1398 2916 
Q 1625 2713 2034 2713 
Q 2441 2713 2670 2916 
Q 2900 3119 2900 3481 
Q 2900 3844 2670 4047 
Q 2441 4250 2034 4250 
Q 1625 4250 1398 4047 
Q 1172 3844 1172 3481 
z
" transform="scale(0.015625)"/>
       </defs>
       <use xlink:href="#DejaVuSans-30"/>
       <use xlink:href="#DejaVuSans-2e" x="63.623047"/>
       <use xlink:href="#DejaVuSans-30" x="95.410156"/>
       <use xlink:href="#DejaVuSans-38" x="159.033203"/>
      </g>
     </g>
    </g>
    <g id="xtick_6">
     <g id="line2d_11">
      <path d="M 358.345202 382.117969 
L 358.345202 49.477969 
" clip-path="url(#pe918b37d9c)" style="fill: none; stroke: #b0b0b0; stroke-opacity: 0.3; stroke-width: 0.8; stroke-linecap: square"/>
     </g>
     <g id="line2d_12">
      <g>
       <use xlink:href="#m193b7e3cc7" x="358.345202" y="382.117969" style="stroke: #000000; stroke-width: 0.8"/>
      </g>
     </g>
     <g id="text_6">
      <!-- 0.10 -->
      <g transform="translate(346.099108 397.47625) scale(0.11 -0.11)">
       <defs>
        <path id="DejaVuSans-31" d="M 794 531 
L 1825 531 
L 1825 4091 
L 703 3866 
L 703 4441 
L 1819 4666 
L 2450 4666 
L 2450 531 
L 3481 531 
L 3481 0 
L 794 0 
L 794 531 
z
" transform="scale(0.015625)"/>
       </defs>
       <use xlink:href="#DejaVuSans-30"/>
       <use xlink:href="#DejaVuSans-2e" x="63.623047"/>
       <use xlink:href="#DejaVuSans-31" x="95.410156"/>
       <use xlink:href="#DejaVuSans-30" x="159.033203"/>
      </g>
     </g>
    </g>
    <g id="xtick_7">
     <g id="line2d_13">
      <path d="M 417.427555 382.117969 
L 417.427555 49.477969 
" clip-path="url(#pe918b37d9c)" style="fill: none; stroke: #b0b0b0; stroke-opacity: 0.3; stroke-width: 0.8; stroke-linecap: square"/>
     </g>
     <g id="line2d_14">
      <g>
       <use xlink:href="#m193b7e3cc7" x="417.427555" y="382.117969" style="stroke: #000000; stroke-width: 0.8"/>
      </g>
     </g>
     <g id="text_7">
      <!-- 0.12 -->
      <g transform="translate(405.181461 397.47625) scale(0.11 -0.11)">
       <use xlink:href="#DejaVuSans-30"/>
       <use xlink:href="#DejaVuSans-2e" x="63.623047"/>
       <use xlink:href="#DejaVuSans-31" x="95.410156"/>
       <use xlink:href="#DejaVuSans-32" x="159.033203"/>
      </g>
     </g>
    </g>
    <g id="xtick_8">
     <g id="line2d_15">
      <path d="M 476.509908 382.117969 
L 476.509908 49.477969 
" clip-path="url(#pe918b37d9c)" style="fill: none; stroke: #b0b0b0; stroke-opacity: 0.3; stroke-width: 0.8; stroke-linecap: square"/>
     </g>
     <g id="line2d_16">
      <g>
       <use xlink:href="#m193b7e3cc7" x="476.509908" y="382.117969" style="stroke: #000000; stroke-width: 0.8"/>
      </g>
     </g>
     <g id="text_8">
      <!-- 0.14 -->
      <g transform="translate(464.263814 397.47625) scale(0.11 -0.11)">
       <use xlink:href="#DejaVuSans-30"/>
       <use xlink:href="#DejaVuSans-2e" x="63.623047"/>
       <use xlink:href="#DejaVuSans-31" x="95.410156"/>
       <use xlink:href="#DejaVuSans-34" x="159.033203"/>
      </g>
     </g>
    </g>
    <g id="xtick_9">
     <g id="line2d_17">
      <path d="M 535.592261 382.117969 
L 535.592261 49.477969 
" clip-path="url(#pe918b37d9c)" style="fill: none; stroke: #b0b0b0; stroke-opacity: 0.3; stroke-width: 0.8; stroke-linecap: square"/>
     </g>
     <g id="line2d_18">
      <g>
       <use xlink:href="#m193b7e3cc7" x="535.592261" y="382.117969" style="stroke: #000000; stroke-width: 0.8"/>
      </g>
     </g>
     <g id="text_9">
      <!-- 0.16 -->
      <g transform="translate(523.346167 397.47625) scale(0.11 -0.11)">
       <use xlink:href="#DejaVuSans-30"/>
       <use xlink:href="#DejaVuSans-2e" x="63.623047"/>
       <use xlink:href="#DejaVuSans-31" x="95.410156"/>
       <use xlink:href="#DejaVuSans-36" x="159.033203"/>
      </g>
     </g>
    </g>
    <g id="text_10">
     <!-- Coefficiente di resistenza $C_R$ -->
     <g transform="translate(228.833438 412.882031) scale(0.12 -0.12)">
      <defs>
       <path id="DejaVuSans-43" d="M 4122 4306 
L 4122 3641 
Q 3803 3938 3442 4084 
Q 3081 4231 2675 4231 
Q 1875 4231 1450 3742 
Q 1025 3253 1025 2328 
Q 1025 1406 1450 917 
Q 1875 428 2675 428 
Q 3081 428 3442 575 
Q 3803 722 4122 1019 
L 4122 359 
Q 3791 134 3420 21 
Q 3050 -91 2638 -91 
Q 1578 -91 968 557 
Q 359 1206 359 2328 
Q 359 3453 968 4101 
Q 1578 4750 2638 4750 
Q 3056 4750 3426 4639 
Q 3797 4528 4122 4306 
z
" transform="scale(0.015625)"/>
       <path id="DejaVuSans-6f" d="M 1959 3097 
Q 1497 3097 1228 2736 
Q 959 2375 959 1747 
Q 959 1119 1226 758 
Q 1494 397 1959 397 
Q 2419 397 2687 759 
Q 2956 1122 2956 1747 
Q 2956 2369 2687 2733 
Q 2419 3097 1959 3097 
z
M 1959 3584 
Q 2709 3584 3137 3096 
Q 3566 2609 3566 1747 
Q 3566 888 3137 398 
Q 2709 -91 1959 -91 
Q 1206 -91 779 398 
Q 353 888 353 1747 
Q 353 2609 779 3096 
Q 1206 3584 1959 3584 
z
" transform="scale(0.015625)"/>
       <path id="DejaVuSans-65" d="M 3597 1894 
L 3597 1613 
L 953 1613 
Q 991 1019 1311 708 
Q 1631 397 2203 397 
Q 2534 397 2845 478 
Q 3156 559 3463 722 
L 3463 178 
Q 3153 47 2828 -22 
Q 2503 -91 2169 -91 
Q 1331 -91 842 396 
Q 353 884 353 1716 
Q 353 2575 817 3079 
Q 1281 3584 2069 3584 
Q 2775 3584 3186 3129 
Q 3597 2675 3597 1894 
z
M 3022 2063 
Q 3016 2534 2758 2815 
Q 2500 3097 2075 3097 
Q 1594 3097 1305 2825 
Q 1016 2553 972 2059 
L 3022 2063 
z
" transform="scale(0.015625)"/>
       <path id="DejaVuSans-66" d="M 2375 4863 
L 2375 4384 
L 1825 4384 
Q 1516 4384 1395 4259 
Q 1275 4134 1275 3809 
L 1275 3500 
L 2222 3500 
L 2222 3053 
L 1275 3053 
L 1275 0 
L 697 0 
L 697 3053 
L 147 3053 
L 147 3500 
L 697 3500 
L 697 3744 
Q 697 4328 969 4595 
Q 1241 4863 1831 4863 
L 2375 4863 
z
" transform="scale(0.015625)"/>
       <path id="DejaVuSans-69" d="M 603 3500 
L 1178 3500 
L 1178 0 
L 603 0 
L 603 3500 
z
M 603 4863 
L 1178 4863 
L 1178 4134 
L 603 4134 
L 603 4863 
z
" transform="scale(0.015625)"/>
       <path id="DejaVuSans-63" d="M 3122 3366 
L 3122 2828 
Q 2878 2963 2633 3030 
Q 2388 3097 2138 3097 
Q 1578 3097 1268 2742 
Q 959 2388 959 1747 
Q 959 1106 1268 751 
Q 1578 397 2138 397 
Q 2388 397 2633 464 
Q 2878 531 3122 666 
L 3122 134 
Q 2881 22 2623 -34 
Q 2366 -91 2075 -91 
Q 1284 -91 818 406 
Q 353 903 353 1747 
Q 353 2603 823 3093 
Q 1294 3584 2113 3584 
Q 2378 3584 2631 3529 
Q 2884 3475 3122 3366 
z
" transform="scale(0.015625)"/>
       <path id="DejaVuSans-6e" d="M 3513 2113 
L 3513 0 
L 2938 0 
L 2938 2094 
Q 2938 2591 2744 2837 
Q 2550 3084 2163 3084 
Q 1697 3084 1428 2787 
Q 1159 2491 1159 1978 
L 1159 0 
L 581 0 
L 581 3500 
L 1159 3500 
L 1159 2956 
Q 1366 3272 1645 3428 
Q 1925 3584 2291 3584 
Q 2894 3584 3203 3211 
Q 3513 2838 3513 2113 
z
" transform="scale(0.015625)"/>
       <path id="DejaVuSans-74" d="M 1172 4494 
L 1172 3500 
L 2356 3500 
L 2356 3053 
L 1172 3053 
L 1172 1153 
Q 1172 725 1289 603 
Q 1406 481 1766 481 
L 2356 481 
L 2356 0 
L 1766 0 
Q 1100 0 847 248 
Q 594 497 594 1153 
L 594 3053 
L 172 3053 
L 172 3500 
L 594 3500 
L 594 4494 
L 1172 4494 
z
" transform="scale(0.015625)"/>
       <path id="DejaVuSans-20" transform="scale(0.015625)"/>
       <path id="DejaVuSans-64" d="M 2906 2969 
L 2906 4863 
L 3481 4863 
L 3481 0 
L 2906 0 
L 2906 525 
Q 2725 213 2448 61 
Q 2172 -91 1784 -91 
Q 1150 -91 751 415 
Q 353 922 353 1747 
Q 353 2572 751 3078 
Q 1150 3584 1784 3584 
Q 2172 3584 2448 3432 
Q 2725 3281 2906 2969 
z
M 947 1747 
Q 947 1113 1208 752 
Q 1469 391 1925 391 
Q 2381 391 2643 752 
Q 2906 1113 2906 1747 
Q 2906 2381 2643 2742 
Q 2381 3103 1925 3103 
Q 1469 3103 1208 2742 
Q 947 2381 947 1747 
z
" transform="scale(0.015625)"/>
       <path id="DejaVuSans-72" d="M 2631 2963 
Q 2534 3019 2420 3045 
Q 2306 3072 2169 3072 
Q 1681 3072 1420 2755 
Q 1159 2438 1159 1844 
L 1159 0 
L 581 0 
L 581 3500 
L 1159 3500 
L 1159 2956 
Q 1341 3275 1631 3429 
Q 1922 3584 2338 3584 
Q 2397 3584 2469 3576 
Q 2541 3569 2628 3553 
L 2631 2963 
z
" transform="scale(0.015625)"/>
       <path id="DejaVuSans-73" d="M 2834 3397 
L 2834 2853 
Q 2591 2978 2328 3040 
Q 2066 3103 1784 3103 
Q 1356 3103 1142 2972 
Q 928 2841 928 2578 
Q 928 2378 1081 2264 
Q 1234 2150 1697 2047 
L 1894 2003 
Q 2506 1872 2764 1633 
Q 3022 1394 3022 966 
Q 3022 478 2636 193 
Q 2250 -91 1575 -91 
Q 1294 -91 989 -36 
Q 684 19 347 128 
L 347 722 
Q 666 556 975 473 
Q 1284 391 1588 391 
Q 1994 391 2212 530 
Q 2431 669 2431 922 
Q 2431 1156 2273 1281 
Q 2116 1406 1581 1522 
L 1381 1569 
Q 847 1681 609 1914 
Q 372 2147 372 2553 
Q 372 3047 722 3315 
Q 1072 3584 1716 3584 
Q 2034 3584 2315 3537 
Q 2597 3491 2834 3397 
z
" transform="scale(0.015625)"/>
       <path id="DejaVuSans-7a" d="M 353 3500 
L 3084 3500 
L 3084 2975 
L 922 459 
L 3084 459 
L 3084 0 
L 275 0 
L 275 525 
L 2438 3041 
L 353 3041 
L 353 3500 
z
" transform="scale(0.015625)"/>
       <path id="DejaVuSans-61" d="M 2194 1759 
Q 1497 1759 1228 1600 
Q 959 1441 959 1056 
Q 959 750 1161 570 
Q 1363 391 1709 391 
Q 2188 391 2477 730 
Q 2766 1069 2766 1631 
L 2766 1759 
L 2194 1759 
z
M 3341 1997 
L 3341 0 
L 2766 0 
L 2766 531 
Q 2569 213 2275 61 
Q 1981 -91 1556 -91 
Q 1019 -91 701 211 
Q 384 513 384 1019 
Q 384 1609 779 1909 
Q 1175 2209 1959 2209 
L 2766 2209 
L 2766 2266 
Q 2766 2663 2505 2880 
Q 2244 3097 1772 3097 
Q 1472 3097 1187 3025 
Q 903 2953 641 2809 
L 641 3341 
Q 956 3463 1253 3523 
Q 1550 3584 1831 3584 
Q 2591 3584 2966 3190 
Q 3341 2797 3341 1997 
z
" transform="scale(0.015625)"/>
       <path id="DejaVuSans-Oblique-43" d="M 4447 4306 
L 4319 3641 
Q 4019 3944 3683 4091 
Q 3347 4238 2956 4238 
Q 2422 4238 2017 3981 
Q 1613 3725 1319 3200 
Q 1131 2863 1032 2486 
Q 934 2109 934 1728 
Q 934 1091 1264 756 
Q 1594 422 2222 422 
Q 2656 422 3056 561 
Q 3456 700 3834 978 
L 3688 231 
Q 3316 72 2936 -9 
Q 2556 -91 2175 -91 
Q 1278 -91 773 396 
Q 269 884 269 1753 
Q 269 2309 461 2846 
Q 653 3384 1013 3828 
Q 1394 4300 1883 4525 
Q 2372 4750 3022 4750 
Q 3422 4750 3780 4639 
Q 4138 4528 4447 4306 
z
" transform="scale(0.015625)"/>
       <path id="DejaVuSans-Oblique-52" d="M 1613 4147 
L 1294 2491 
L 2106 2491 
Q 2584 2491 2879 2755 
Q 3175 3019 3175 3444 
Q 3175 3784 2976 3965 
Q 2778 4147 2406 4147 
L 1613 4147 
z
M 2772 2241 
Q 2972 2194 3105 2009 
Q 3238 1825 3413 1275 
L 3809 0 
L 3144 0 
L 2778 1197 
Q 2638 1659 2453 1815 
Q 2269 1972 1888 1972 
L 1191 1972 
L 806 0 
L 172 0 
L 1081 4666 
L 2503 4666 
Q 3150 4666 3495 4373 
Q 3841 4081 3841 3531 
Q 3841 3044 3547 2687 
Q 3253 2331 2772 2241 
z
" transform="scale(0.015625)"/>
      </defs>
      <use xlink:href="#DejaVuSans-43" transform="translate(0 0.015625)"/>
      <use xlink:href="#DejaVuSans-6f" transform="translate(69.824219 0.015625)"/>
      <use xlink:href="#DejaVuSans-65" transform="translate(131.005859 0.015625)"/>
      <use xlink:href="#DejaVuSans-66" transform="translate(192.529297 0.015625)"/>
      <use xlink:href="#DejaVuSans-66" transform="translate(227.734375 0.015625)"/>
      <use xlink:href="#DejaVuSans-69" transform="translate(262.939453 0.015625)"/>
      <use xlink:href="#DejaVuSans-63" transform="translate(290.722656 0.015625)"/>
      <use xlink:href="#DejaVuSans-69" transform="translate(345.703125 0.015625)"/>
      <use xlink:href="#DejaVuSans-65" transform="translate(373.486328 0.015625)"/>
      <use xlink:href="#DejaVuSans-6e" transform="translate(435.009766 0.015625)"/>
      <use xlink:href="#DejaVuSans-74" transform="translate(498.388672 0.015625)"/>
      <use xlink:href="#DejaVuSans-65" transform="translate(537.597656 0.015625)"/>
      <use xlink:href="#DejaVuSans-20" transform="translate(599.121094 0.015625)"/>
      <use xlink:href="#DejaVuSans-64" transform="translate(630.908203 0.015625)"/>
      <use xlink:href="#DejaVuSans-69" transform="translate(694.384766 0.015625)"/>
      <use xlink:href="#DejaVuSans-20" transform="translate(722.167969 0.015625)"/>
      <use xlink:href="#DejaVuSans-72" transform="translate(753.955078 0.015625)"/>
      <use xlink:href="#DejaVuSans-65" transform="translate(795.068359 0.015625)"/>
      <use xlink:href="#DejaVuSans-73" transform="translate(856.591797 0.015625)"/>
      <use xlink:href="#DejaVuSans-69" transform="translate(908.691406 0.015625)"/>
      <use xlink:href="#DejaVuSans-73" transform="translate(936.474609 0.015625)"/>
      <use xlink:href="#DejaVuSans-74" transform="translate(988.574219 0.015625)"/>
      <use xlink:href="#DejaVuSans-65" transform="translate(1027.783203 0.015625)"/>
      <use xlink:href="#DejaVuSans-6e" transform="translate(1089.306641 0.015625)"/>
      <use xlink:href="#DejaVuSans-7a" transform="translate(1152.685547 0.015625)"/>
      <use xlink:href="#DejaVuSans-61" transform="translate(1205.175781 0.015625)"/>
      <use xlink:href="#DejaVuSans-20" transform="translate(1266.455078 0.015625)"/>
      <use xlink:href="#DejaVuSans-Oblique-43" transform="translate(1298.242188 0.015625)"/>
      <use xlink:href="#DejaVuSans-Oblique-52" transform="translate(1368.066406 -16.390625) scale(0.7)"/>
     </g>
    </g>
   </g>
   <g id="matplotlib.axis_2">
    <g id="ytick_1">
     <g id="line2d_19">
      <path d="M 62.933437 382.117969 
L 565.133438 382.117969 
" clip-path="url(#pe918b37d9c)" style="fill: none; stroke: #b0b0b0; stroke-opacity: 0.3; stroke-width: 0.8; stroke-linecap: square"/>
     </g>
     <g id="line2d_20">
      <defs>
       <path id="m087531d499" d="M 0 0 
L -3.5 0 
" style="stroke: #000000; stroke-width: 0.8"/>
      </defs>
      <g>
       <use xlink:href="#m087531d499" x="62.933437" y="382.117969" style="stroke: #000000; stroke-width: 0.8"/>
      </g>
     </g>
     <g id="text_11">
      <!-- 0.0 -->
      <g transform="translate(38.44 386.297109) scale(0.11 -0.11)">
       <use xlink:href="#DejaVuSans-30"/>
       <use xlink:href="#DejaVuSans-2e" x="63.623047"/>
       <use xlink:href="#DejaVuSans-30" x="95.410156"/>
      </g>
     </g>
    </g>
    <g id="ytick_2">
     <g id="line2d_21">
      <path d="M 62.933437 342.983851 
L 565.133438 342.983851 
" clip-path="url(#pe918b37d9c)" style="fill: none; stroke: #b0b0b0; stroke-opacity: 0.3; stroke-width: 0.8; stroke-linecap: square"/>
     </g>
     <g id="line2d_22">
      <g>
       <use xlink:href="#m087531d499" x="62.933437" y="342.983851" style="stroke: #000000; stroke-width: 0.8"/>
      </g>
     </g>
     <g id="text_12">
      <!-- 0.2 -->
      <g transform="translate(38.44 347.162992) scale(0.11 -0.11)">
       <use xlink:href="#DejaVuSans-30"/>
       <use xlink:href="#DejaVuSans-2e" x="63.623047"/>
       <use xlink:href="#DejaVuSans-32" x="95.410156"/>
      </g>
     </g>
    </g>
    <g id="ytick_3">
     <g id="line2d_23">
      <path d="M 62.933437 303.849733 
L 565.133438 303.849733 
" clip-path="url(#pe918b37d9c)" style="fill: none; stroke: #b0b0b0; stroke-opacity: 0.3; stroke-width: 0.8; stroke-linecap: square"/>
     </g>
     <g id="line2d_24">
      <g>
       <use xlink:href="#m087531d499" x="62.933437" y="303.849733" style="stroke: #000000; stroke-width: 0.8"/>
      </g>
     </g>
     <g id="text_13">
      <!-- 0.4 -->
      <g transform="translate(38.44 308.028874) scale(0.11 -0.11)">
       <use xlink:href="#DejaVuSans-30"/>
       <use xlink:href="#DejaVuSans-2e" x="63.623047"/>
       <use xlink:href="#DejaVuSans-34" x="95.410156"/>
      </g>
     </g>
    </g>
    <g id="ytick_4">
     <g id="line2d_25">
      <path d="M 62.933437 264.715616 
L 565.133438 264.715616 
" clip-path="url(#pe918b37d9c)" style="fill: none; stroke: #b0b0b0; stroke-opacity: 0.3; stroke-width: 0.8; stroke-linecap: square"/>
     </g>
     <g id="line2d_26">
      <g>
       <use xlink:href="#m087531d499" x="62.933437" y="264.715616" style="stroke: #000000; stroke-width: 0.8"/>
      </g>
     </g>
     <g id="text_14">
      <!-- 0.6 -->
      <g transform="translate(38.44 268.894756) scale(0.11 -0.11)">
       <use xlink:href="#DejaVuSans-30"/>
       <use xlink:href="#DejaVuSans-2e" x="63.623047"/>
       <use xlink:href="#DejaVuSans-36" x="95.410156"/>
      </g>
     </g>
    </g>
    <g id="ytick_5">
     <g id="line2d_27">
      <path d="M 62.933437 225.581498 
L 565.133438 225.581498 
" clip-path="url(#pe918b37d9c)" style="fill: none; stroke: #b0b0b0; stroke-opacity: 0.3; stroke-width: 0.8; stroke-linecap: square"/>
     </g>
     <g id="line2d_28">
      <g>
       <use xlink:href="#m087531d499" x="62.933437" y="225.581498" style="stroke: #000000; stroke-width: 0.8"/>
      </g>
     </g>
     <g id="text_15">
      <!-- 0.8 -->
      <g transform="translate(38.44 229.760639) scale(0.11 -0.11)">
       <use xlink:href="#DejaVuSans-30"/>
       <use xlink:href="#DejaVuSans-2e" x="63.623047"/>
       <use xlink:href="#DejaVuSans-38" x="95.410156"/>
      </g>
     </g>
    </g>
    <g id="ytick_6">
     <g id="line2d_29">
      <path d="M 62.933437 186.447381 
L 565.133438 186.447381 
" clip-path="url(#pe918b37d9c)" style="fill: none; stroke: #b0b0b0; stroke-opacity: 0.3; stroke-width: 0.8; stroke-linecap: square"/>
     </g>
     <g id="line2d_30">
      <g>
       <use xlink:href="#m087531d499" x="62.933437" y="186.447381" style="stroke: #000000; stroke-width: 0.8"/>
      </g>
     </g>
     <g id="text_16">
      <!-- 1.0 -->
      <g transform="translate(38.44 190.626521) scale(0.11 -0.11)">
       <use xlink:href="#DejaVuSans-31"/>
       <use xlink:href="#DejaVuSans-2e" x="63.623047"/>
       <use xlink:href="#DejaVuSans-30" x="95.410156"/>
      </g>
     </g>
    </g>
    <g id="ytick_7">
     <g id="line2d_31">
      <path d="M 62.933437 147.313263 
L 565.133438 147.313263 
" clip-path="url(#pe918b37d9c)" style="fill: none; stroke: #b0b0b0; stroke-opacity: 0.3; stroke-width: 0.8; stroke-linecap: square"/>
     </g>
     <g id="line2d_32">
      <g>
       <use xlink:href="#m087531d499" x="62.933437" y="147.313263" style="stroke: #000000; stroke-width: 0.8"/>
      </g>
     </g>
     <g id="text_17">
      <!-- 1.2 -->
      <g transform="translate(38.44 151.492403) scale(0.11 -0.11)">
       <use xlink:href="#DejaVuSans-31"/>
       <use xlink:href="#DejaVuSans-2e" x="63.623047"/>
       <use xlink:href="#DejaVuSans-32" x="95.410156"/>
      </g>
     </g>
    </g>
    <g id="ytick_8">
     <g id="line2d_33">
      <path d="M 62.933437 108.179145 
L 565.133438 108.179145 
" clip-path="url(#pe918b37d9c)" style="fill: none; stroke: #b0b0b0; stroke-opacity: 0.3; stroke-width: 0.8; stroke-linecap: square"/>
     </g>
     <g id="line2d_34">
      <g>
       <use xlink:href="#m087531d499" x="62.933437" y="108.179145" style="stroke: #000000; stroke-width: 0.8"/>
      </g>
     </g>
     <g id="text_18">
      <!-- 1.4 -->
      <g transform="translate(38.44 112.358286) scale(0.11 -0.11)">
       <use xlink:href="#DejaVuSans-31"/>
       <use xlink:href="#DejaVuSans-2e" x="63.623047"/>
       <use xlink:href="#DejaVuSans-34" x="95.410156"/>
      </g>
     </g>
    </g>
    <g id="ytick_9">
     <g id="line2d_35">
      <path d="M 62.933437 69.045028 
L 565.133438 69.045028 
" clip-path="url(#pe918b37d9c)" style="fill: none; stroke: #b0b0b0; stroke-opacity: 0.3; stroke-width: 0.8; stroke-linecap: square"/>
     </g>
     <g id="line2d_36">
      <g>
       <use xlink:href="#m087531d499" x="62.933437" y="69.045028" style="stroke: #000000; stroke-width: 0.8"/>
      </g>
     </g>
     <g id="text_19">
      <!-- 1.6 -->
      <g transform="translate(38.44 73.224168) scale(0.11 -0.11)">
       <use xlink:href="#DejaVuSans-31"/>
       <use xlink:href="#DejaVuSans-2e" x="63.623047"/>
       <use xlink:href="#DejaVuSans-36" x="95.410156"/>
      </g>
     </g>
    </g>
    <g id="text_20">
     <!-- Coefficiente di portanza $C_p$ -->
     <g transform="translate(30.72 296.617969) rotate(-90) scale(0.12 -0.12)">
      <defs>
       <path id="DejaVuSans-70" d="M 1159 525 
L 1159 -1331 
L 581 -1331 
L 581 3500 
L 1159 3500 
L 1159 2969 
Q 1341 3281 1617 3432 
Q 1894 3584 2278 3584 
Q 2916 3584 3314 3078 
Q 3713 2572 3713 1747 
Q 3713 922 3314 415 
Q 2916 -91 2278 -91 
Q 1894 -91 1617 61 
Q 1341 213 1159 525 
z
M 3116 1747 
Q 3116 2381 2855 2742 
Q 2594 3103 2138 3103 
Q 1681 3103 1420 2742 
Q 1159 2381 1159 1747 
Q 1159 1113 1420 752 
Q 1681 391 2138 391 
Q 2594 391 2855 752 
Q 3116 1113 3116 1747 
z
" transform="scale(0.015625)"/>
       <path id="DejaVuSans-Oblique-70" d="M 3175 2156 
Q 3175 2616 2975 2859 
Q 2775 3103 2400 3103 
Q 2144 3103 1911 2972 
Q 1678 2841 1497 2591 
Q 1319 2344 1212 1994 
Q 1106 1644 1106 1300 
Q 1106 863 1306 627 
Q 1506 391 1875 391 
Q 2147 391 2380 519 
Q 2613 647 2778 891 
Q 2956 1147 3065 1494 
Q 3175 1841 3175 2156 
z
M 1394 2969 
Q 1625 3272 1939 3428 
Q 2253 3584 2638 3584 
Q 3175 3584 3472 3232 
Q 3769 2881 3769 2247 
Q 3769 1728 3584 1258 
Q 3400 788 3053 416 
Q 2822 169 2531 39 
Q 2241 -91 1919 -91 
Q 1547 -91 1294 64 
Q 1041 219 916 525 
L 556 -1331 
L -19 -1331 
L 922 3500 
L 1497 3500 
L 1394 2969 
z
" transform="scale(0.015625)"/>
      </defs>
      <use xlink:href="#DejaVuSans-43" transform="translate(0 0.015625)"/>
      <use xlink:href="#DejaVuSans-6f" transform="translate(69.824219 0.015625)"/>
      <use xlink:href="#DejaVuSans-65" transform="translate(131.005859 0.015625)"/>
      <use xlink:href="#DejaVuSans-66" transform="translate(192.529297 0.015625)"/>
      <use xlink:href="#DejaVuSans-66" transform="translate(227.734375 0.015625)"/>
      <use xlink:href="#DejaVuSans-69" transform="translate(262.939453 0.015625)"/>
      <use xlink:href="#DejaVuSans-63" transform="translate(290.722656 0.015625)"/>
      <use xlink:href="#DejaVuSans-69" transform="translate(345.703125 0.015625)"/>
      <use xlink:href="#DejaVuSans-65" transform="translate(373.486328 0.015625)"/>
      <use xlink:href="#DejaVuSans-6e" transform="translate(435.009766 0.015625)"/>
      <use xlink:href="#DejaVuSans-74" transform="translate(498.388672 0.015625)"/>
      <use xlink:href="#DejaVuSans-65" transform="translate(537.597656 0.015625)"/>
      <use xlink:href="#DejaVuSans-20" transform="translate(599.121094 0.015625)"/>
      <use xlink:href="#DejaVuSans-64" transform="translate(630.908203 0.015625)"/>
      <use xlink:href="#DejaVuSans-69" transform="translate(694.384766 0.015625)"/>
      <use xlink:href="#DejaVuSans-20" transform="translate(722.167969 0.015625)"/>
      <use xlink:href="#DejaVuSans-70" transform="translate(753.955078 0.015625)"/>
      <use xlink:href="#DejaVuSans-6f" transform="translate(817.431641 0.015625)"/>
      <use xlink:href="#DejaVuSans-72" transform="translate(878.613281 0.015625)"/>
      <use xlink:href="#DejaVuSans-74" transform="translate(919.726562 0.015625)"/>
      <use xlink:href="#DejaVuSans-61" transform="translate(958.935547 0.015625)"/>
      <use xlink:href="#DejaVuSans-6e" transform="translate(1020.214844 0.015625)"/>
      <use xlink:href="#DejaVuSans-7a" transform="translate(1083.59375 0.015625)"/>
      <use xlink:href="#DejaVuSans-61" transform="translate(1136.083984 0.015625)"/>
      <use xlink:href="#DejaVuSans-20" transform="translate(1197.363281 0.015625)"/>
      <use xlink:href="#DejaVuSans-Oblique-43" transform="translate(1229.150391 0.015625)"/>
      <use xlink:href="#DejaVuSans-Oblique-70" transform="translate(1298.974609 -16.390625) scale(0.7)"/>
     </g>
    </g>
   </g>
   <g id="line2d_37">
    <path d="M 136.786379 382.117969 
L 136.88661 376.228219 
L 137.187302 370.338468 
L 137.688457 364.448718 
L 138.390073 358.558968 
L 139.292151 352.669218 
L 140.394691 346.779468 
L 141.697693 340.889718 
L 143.201156 334.999968 
L 144.905082 329.110217 
L 146.809469 323.220467 
L 149.284615 316.349092 
L 152.032612 309.477717 
L 155.05346 302.606342 
L 158.347159 295.734967 
L 161.913709 288.863591 
L 165.753109 281.992216 
L 169.86536 275.120841 
L 174.250462 268.249466 
L 178.908414 261.378091 
L 183.839218 254.506716 
L 189.042872 247.63534 
L 194.519377 240.763965 
L 200.268733 233.89259 
L 206.29094 227.021215 
L 212.585997 220.14984 
L 219.153905 213.278465 
L 225.994664 206.407089 
L 234.146777 198.554089 
L 242.655267 190.701089 
L 251.520133 182.848089 
L 260.741376 174.995089 
L 270.318995 167.142088 
L 280.252991 159.289088 
L 290.543364 151.436088 
L 301.190113 143.583088 
L 312.193238 135.730088 
L 323.55274 127.877087 
L 335.268619 120.024087 
L 348.874963 111.189462 
L 362.932347 102.354837 
L 377.44077 93.520212 
L 385.695898 88.612086 
L 385.695898 88.612086 
" clip-path="url(#pe918b37d9c)" style="fill: none; stroke: #1976d2; stroke-width: 2.8; stroke-linecap: square"/>
   </g>
   <g id="line2d_38">
    <path d="M 62.933437 382.117969 
L 70.770892 373.634817 
L 78.608347 365.151666 
L 86.445802 356.668514 
L 94.283257 348.185363 
L 102.120712 339.702211 
L 109.958167 331.21906 
L 117.795622 322.735908 
L 125.633077 314.252757 
L 133.470532 305.769605 
L 141.307987 297.286454 
L 149.145442 288.803302 
L 156.982897 280.320151 
L 164.820352 271.837 
L 172.657807 263.353848 
L 180.495262 254.870697 
L 188.332717 246.387545 
L 196.170172 237.904394 
L 204.007627 229.421242 
L 211.845082 220.938091 
L 219.682537 212.454939 
L 227.519992 203.971788 
L 235.357447 195.488636 
L 243.194902 187.005485 
L 251.032357 178.522333 
L 258.869812 170.039182 
L 266.707267 161.55603 
L 274.544722 153.072879 
L 282.382177 144.589727 
L 290.219632 136.106576 
L 298.057087 127.623424 
L 305.894542 119.140273 
L 313.731997 110.657121 
L 321.569452 102.17397 
L 329.406907 93.690818 
L 337.244362 85.207667 
L 345.081817 76.724515 
L 352.919272 68.241364 
L 360.756727 59.758213 
L 368.594182 51.275061 
L 376.431637 42.79191 
L 384.269092 34.308758 
L 392.106547 25.825607 
L 399.944002 17.342455 
L 407.781457 8.859304 
L 415.618912 0.376152 
L 416.890318 -1 
" clip-path="url(#pe918b37d9c)" style="fill: none; stroke-dasharray: 7.4,3.2; stroke-dashoffset: 0; stroke: #d32f2f; stroke-width: 2"/>
   </g>
   <g id="patch_3">
    <path d="M 62.933437 382.117969 
L 62.933437 49.477969 
" style="fill: none; stroke: #000000; stroke-width: 0.8; stroke-linejoin: miter; stroke-linecap: square"/>
   </g>
   <g id="patch_4">
    <path d="M 62.933437 382.117969 
L 565.133438 382.117969 
" style="fill: none; stroke: #000000; stroke-width: 0.8; stroke-linejoin: miter; stroke-linecap: square"/>
   </g>
   <g id="patch_5">
    <path d="M 323.322908 137.372526 
Q 267.780642 179.205673 213.577971 220.029867 
" style="fill: none; stroke: #d32f2f; stroke-width: 1.5; stroke-linecap: round"/>
    <path d="M 218.416175 219.140043 
L 213.577971 220.029867 
L 215.769034 215.62541 
" style="fill: none; stroke: #d32f2f; stroke-width: 1.5; stroke-linecap: round"/>
   </g>
   <g id="text_21">
    <g id="patch_6">
     <path d="M 314.033437 135.666204 
L 382.123438 135.666204 
Q 385.423437 135.666204 385.423437 132.366204 
L 385.423437 107.42061 
Q 385.423437 104.12061 382.123438 104.12061 
L 314.033437 104.12061 
Q 310.733437 104.12061 310.733437 107.42061 
L 310.733437 132.366204 
Q 310.733437 135.666204 314.033437 135.666204 
z
" style="fill: #ffffff; opacity: 0.92; stroke: #808080; stroke-linejoin: miter"/>
    </g>
    <!-- $E_{max}$ = 16.3 -->
    <g style="fill: #d32f2f" transform="translate(314.033437 113.446548) scale(0.11 -0.11)">
     <defs>
      <path id="DejaVuSans-Oblique-45" d="M 1081 4666 
L 4031 4666 
L 3928 4134 
L 1606 4134 
L 1338 2753 
L 3566 2753 
L 3463 2222 
L 1234 2222 
L 909 531 
L 3284 531 
L 3181 0 
L 172 0 
L 1081 4666 
z
" transform="scale(0.015625)"/>
      <path id="DejaVuSans-Oblique-6d" d="M 5747 2113 
L 5338 0 
L 4763 0 
L 5166 2094 
Q 5191 2228 5203 2325 
Q 5216 2422 5216 2491 
Q 5216 2772 5059 2928 
Q 4903 3084 4622 3084 
Q 4203 3084 3875 2770 
Q 3547 2456 3450 1953 
L 3066 0 
L 2491 0 
L 2900 2094 
Q 2925 2209 2937 2307 
Q 2950 2406 2950 2484 
Q 2950 2769 2794 2926 
Q 2638 3084 2363 3084 
Q 1938 3084 1609 2770 
Q 1281 2456 1184 1953 
L 800 0 
L 225 0 
L 909 3500 
L 1484 3500 
L 1375 2956 
Q 1609 3263 1923 3423 
Q 2238 3584 2597 3584 
Q 2978 3584 3223 3384 
Q 3469 3184 3519 2828 
Q 3781 3197 4126 3390 
Q 4472 3584 4856 3584 
Q 5306 3584 5551 3325 
Q 5797 3066 5797 2591 
Q 5797 2488 5784 2364 
Q 5772 2241 5747 2113 
z
" transform="scale(0.015625)"/>
      <path id="DejaVuSans-Oblique-61" d="M 3438 1997 
L 3047 0 
L 2472 0 
L 2578 531 
Q 2325 219 2001 64 
Q 1678 -91 1281 -91 
Q 834 -91 548 182 
Q 263 456 263 884 
Q 263 1497 752 1853 
Q 1241 2209 2100 2209 
L 2900 2209 
L 2931 2363 
Q 2938 2388 2941 2417 
Q 2944 2447 2944 2509 
Q 2944 2788 2717 2942 
Q 2491 3097 2081 3097 
Q 1800 3097 1504 3025 
Q 1209 2953 897 2809 
L 997 3341 
Q 1322 3463 1633 3523 
Q 1944 3584 2234 3584 
Q 2853 3584 3176 3315 
Q 3500 3047 3500 2534 
Q 3500 2431 3484 2292 
Q 3469 2153 3438 1997 
z
M 2816 1759 
L 2241 1759 
Q 1534 1759 1195 1570 
Q 856 1381 856 984 
Q 856 709 1029 553 
Q 1203 397 1509 397 
Q 1978 397 2328 733 
Q 2678 1069 2791 1631 
L 2816 1759 
z
" transform="scale(0.015625)"/>
      <path id="DejaVuSans-Oblique-78" d="M 3841 3500 
L 2234 1784 
L 3219 0 
L 2559 0 
L 1819 1388 
L 531 0 
L -166 0 
L 1556 1844 
L 641 3500 
L 1300 3500 
L 1972 2234 
L 3144 3500 
L 3841 3500 
z
" transform="scale(0.015625)"/>
      <path id="DejaVuSans-Bold-20" transform="scale(0.015625)"/>
      <path id="DejaVuSans-Bold-3d" d="M 678 3084 
L 4684 3084 
L 4684 2350 
L 678 2350 
L 678 3084 
z
M 678 1663 
L 4684 1663 
L 4684 922 
L 678 922 
L 678 1663 
z
" transform="scale(0.015625)"/>
      <path id="DejaVuSans-Bold-31" d="M 750 831 
L 1813 831 
L 1813 3847 
L 722 3622 
L 722 4441 
L 1806 4666 
L 2950 4666 
L 2950 831 
L 4013 831 
L 4013 0 
L 750 0 
L 750 831 
z
" transform="scale(0.015625)"/>
      <path id="DejaVuSans-Bold-36" d="M 2316 2303 
Q 2000 2303 1842 2098 
Q 1684 1894 1684 1484 
Q 1684 1075 1842 870 
Q 2000 666 2316 666 
Q 2634 666 2792 870 
Q 2950 1075 2950 1484 
Q 2950 1894 2792 2098 
Q 2634 2303 2316 2303 
z
M 3803 4544 
L 3803 3681 
Q 3506 3822 3243 3889 
Q 2981 3956 2731 3956 
Q 2194 3956 1894 3657 
Q 1594 3359 1544 2772 
Q 1750 2925 1990 3001 
Q 2231 3078 2516 3078 
Q 3231 3078 3670 2659 
Q 4109 2241 4109 1563 
Q 4109 813 3618 361 
Q 3128 -91 2303 -91 
Q 1394 -91 895 523 
Q 397 1138 397 2266 
Q 397 3422 980 4083 
Q 1563 4744 2578 4744 
Q 2900 4744 3203 4694 
Q 3506 4644 3803 4544 
z
" transform="scale(0.015625)"/>
      <path id="DejaVuSans-Bold-2e" d="M 653 1209 
L 1778 1209 
L 1778 0 
L 653 0 
L 653 1209 
z
" transform="scale(0.015625)"/>
      <path id="DejaVuSans-Bold-33" d="M 2981 2516 
Q 3453 2394 3698 2092 
Q 3944 1791 3944 1325 
Q 3944 631 3412 270 
Q 2881 -91 1863 -91 
Q 1503 -91 1142 -33 
Q 781 25 428 141 
L 428 1069 
Q 766 900 1098 814 
Q 1431 728 1753 728 
Q 2231 728 2486 893 
Q 2741 1059 2741 1369 
Q 2741 1688 2480 1852 
Q 2219 2016 1709 2016 
L 1228 2016 
L 1228 2791 
L 1734 2791 
Q 2188 2791 2409 2933 
Q 2631 3075 2631 3366 
Q 2631 3634 2415 3781 
Q 2200 3928 1806 3928 
Q 1516 3928 1219 3862 
Q 922 3797 628 3669 
L 628 4550 
Q 984 4650 1334 4700 
Q 1684 4750 2022 4750 
Q 2931 4750 3382 4451 
Q 3834 4153 3834 3553 
Q 3834 3144 3618 2883 
Q 3403 2622 2981 2516 
z
" transform="scale(0.015625)"/>
     </defs>
     <use xlink:href="#DejaVuSans-Oblique-45" transform="translate(0 0.78125)"/>
     <use xlink:href="#DejaVuSans-Oblique-6d" transform="translate(63.183594 -15.625) scale(0.7)"/>
     <use xlink:href="#DejaVuSans-Oblique-61" transform="translate(131.37207 -15.625) scale(0.7)"/>
     <use xlink:href="#DejaVuSans-Oblique-78" transform="translate(174.267578 -15.625) scale(0.7)"/>
     <use xlink:href="#DejaVuSans-Bold-20" transform="translate(218.427734 0.78125)"/>
     <use xlink:href="#DejaVuSans-Bold-3d" transform="translate(253.242188 0.78125)"/>
     <use xlink:href="#DejaVuSans-Bold-20" transform="translate(337.03125 0.78125)"/>
     <use xlink:href="#DejaVuSans-Bold-31" transform="translate(371.845703 0.78125)"/>
     <use xlink:href="#DejaVuSans-Bold-36" transform="translate(441.425781 0.78125)"/>
     <use xlink:href="#DejaVuSans-Bold-2e" transform="translate(511.005859 0.78125)"/>
     <use xlink:href="#DejaVuSans-Bold-33" transform="translate(548.994141 0.78125)"/>
    </g>
    <!-- $C_p^*$ = 0.82 -->
    <g style="fill: #d32f2f" transform="translate(314.033437 127.746204) scale(0.11 -0.11)">
     <defs>
      <path id="DejaVuSans-2a" d="M 3009 3897 
L 1888 3291 
L 3009 2681 
L 2828 2375 
L 1778 3009 
L 1778 1831 
L 1422 1831 
L 1422 3009 
L 372 2375 
L 191 2681 
L 1313 3291 
L 191 3897 
L 372 4206 
L 1422 3572 
L 1422 4750 
L 1778 4750 
L 1778 3572 
L 2828 4206 
L 3009 3897 
z
" transform="scale(0.015625)"/>
      <path id="DejaVuSans-Bold-30" d="M 2944 2338 
Q 2944 3213 2780 3570 
Q 2616 3928 2228 3928 
Q 1841 3928 1675 3570 
Q 1509 3213 1509 2338 
Q 1509 1453 1675 1090 
Q 1841 728 2228 728 
Q 2613 728 2778 1090 
Q 2944 1453 2944 2338 
z
M 4147 2328 
Q 4147 1169 3647 539 
Q 3147 -91 2228 -91 
Q 1306 -91 806 539 
Q 306 1169 306 2328 
Q 306 3491 806 4120 
Q 1306 4750 2228 4750 
Q 3147 4750 3647 4120 
Q 4147 3491 4147 2328 
z
" transform="scale(0.015625)"/>
      <path id="DejaVuSans-Bold-38" d="M 2228 2088 
Q 1891 2088 1709 1903 
Q 1528 1719 1528 1375 
Q 1528 1031 1709 848 
Q 1891 666 2228 666 
Q 2563 666 2741 848 
Q 2919 1031 2919 1375 
Q 2919 1722 2741 1905 
Q 2563 2088 2228 2088 
z
M 1350 2484 
Q 925 2613 709 2878 
Q 494 3144 494 3541 
Q 494 4131 934 4440 
Q 1375 4750 2228 4750 
Q 3075 4750 3515 4442 
Q 3956 4134 3956 3541 
Q 3956 3144 3739 2878 
Q 3522 2613 3097 2484 
Q 3572 2353 3814 2058 
Q 4056 1763 4056 1313 
Q 4056 619 3595 264 
Q 3134 -91 2228 -91 
Q 1319 -91 855 264 
Q 391 619 391 1313 
Q 391 1763 633 2058 
Q 875 2353 1350 2484 
z
M 1631 3419 
Q 1631 3141 1786 2991 
Q 1941 2841 2228 2841 
Q 2509 2841 2662 2991 
Q 2816 3141 2816 3419 
Q 2816 3697 2662 3845 
Q 2509 3994 2228 3994 
Q 1941 3994 1786 3844 
Q 1631 3694 1631 3419 
z
" transform="scale(0.015625)"/>
      <path id="DejaVuSans-Bold-32" d="M 1844 884 
L 3897 884 
L 3897 0 
L 506 0 
L 506 884 
L 2209 2388 
Q 2438 2594 2547 2791 
Q 2656 2988 2656 3200 
Q 2656 3528 2436 3728 
Q 2216 3928 1850 3928 
Q 1569 3928 1234 3808 
Q 900 3688 519 3450 
L 519 4475 
Q 925 4609 1322 4679 
Q 1719 4750 2100 4750 
Q 2938 4750 3402 4381 
Q 3866 4013 3866 3353 
Q 3866 2972 3669 2642 
Q 3472 2313 2841 1759 
L 1844 884 
z
" transform="scale(0.015625)"/>
     </defs>
     <use xlink:href="#DejaVuSans-Oblique-43" transform="translate(0 0.765625)"/>
     <use xlink:href="#DejaVuSans-2a" transform="translate(90.662435 39.046875) scale(0.7)"/>
     <use xlink:href="#DejaVuSans-Oblique-70" transform="translate(69.824219 -26.578125) scale(0.7)"/>
     <use xlink:href="#DejaVuSans-Bold-20" transform="translate(142.034505 0.765625)"/>
     <use xlink:href="#DejaVuSans-Bold-3d" transform="translate(176.848958 0.765625)"/>
     <use xlink:href="#DejaVuSans-Bold-20" transform="translate(260.638021 0.765625)"/>
     <use xlink:href="#DejaVuSans-Bold-30" transform="translate(295.452474 0.765625)"/>
     <use xlink:href="#DejaVuSans-Bold-2e" transform="translate(365.032552 0.765625)"/>
     <use xlink:href="#DejaVuSans-Bold-38" transform="translate(401.270833 0.765625)"/>
     <use xlink:href="#DejaVuSans-Bold-32" transform="translate(470.850911 0.765625)"/>
    </g>
   </g>
   <g id="patch_7">
    <path d="M 293.799506 309.787996 
Q 230.10224 297.228758 167.721271 284.929055 
" style="fill: none; stroke: #2e7d32; stroke-width: 1.2; stroke-linecap: round"/>
    <path d="M 171.258822 287.665063 
L 167.721271 284.929055 
L 172.032607 283.740619 
" style="fill: none; stroke: #2e7d32; stroke-width: 1.2; stroke-linecap: round"/>
   </g>
   <g id="text_22">
    <g id="patch_8">
     <path d="M 299.262849 329.516792 
L 346.962849 329.516792 
Q 349.962849 329.516792 349.962849 326.516792 
L 349.962849 305.63898 
Q 349.962849 302.63898 346.962849 302.63898 
L 299.262849 302.63898 
Q 296.262849 302.63898 296.262849 305.63898 
L 296.262849 326.516792 
Q 296.262849 329.516792 299.262849 329.516792 
z
" style="fill: #ffffff; opacity: 0.92; stroke: #808080; stroke-linejoin: miter"/>
    </g>
    <!-- Crociera -->
    <g style="fill: #2e7d32" transform="translate(299.262849 312.217105) scale(0.1 -0.1)">
     <use xlink:href="#DejaVuSans-43"/>
     <use xlink:href="#DejaVuSans-72" x="69.824219"/>
     <use xlink:href="#DejaVuSans-6f" x="108.6875"/>
     <use xlink:href="#DejaVuSans-63" x="169.869141"/>
     <use xlink:href="#DejaVuSans-69" x="224.849609"/>
     <use xlink:href="#DejaVuSans-65" x="252.632812"/>
     <use xlink:href="#DejaVuSans-72" x="314.15625"/>
     <use xlink:href="#DejaVuSans-61" x="355.269531"/>
    </g>
    <!-- ($C_p \approx 0{,}5$) -->
    <g style="fill: #2e7d32" transform="translate(299.262849 323.416792) scale(0.1 -0.1)">
     <defs>
      <path id="DejaVuSans-28" d="M 1984 4856 
Q 1566 4138 1362 3434 
Q 1159 2731 1159 2009 
Q 1159 1288 1364 580 
Q 1569 -128 1984 -844 
L 1484 -844 
Q 1016 -109 783 600 
Q 550 1309 550 2009 
Q 550 2706 781 3412 
Q 1013 4119 1484 4856 
L 1984 4856 
z
" transform="scale(0.015625)"/>
      <path id="DejaVuSans-2248" d="M 4684 1947 
L 4684 1388 
Q 4356 1144 4076 1036 
Q 3797 928 3494 928 
Q 3150 928 2694 1113 
Q 2663 1125 2641 1134 
Q 2622 1141 2575 1159 
Q 2091 1350 1797 1350 
Q 1522 1350 1253 1231 
Q 984 1113 678 850 
L 678 1409 
Q 1006 1653 1286 1761 
Q 1566 1869 1869 1869 
Q 2213 1869 2672 1684 
Q 2706 1669 2722 1663 
Q 2741 1656 2788 1638 
Q 3272 1447 3566 1447 
Q 3834 1447 4098 1564 
Q 4363 1681 4684 1947 
z
M 4684 3163 
L 4684 2606 
Q 4356 2359 4076 2251 
Q 3797 2144 3494 2144 
Q 3150 2144 2694 2328 
Q 2663 2341 2641 2350 
Q 2622 2356 2575 2375 
Q 2091 2566 1797 2566 
Q 1522 2566 1253 2447 
Q 984 2328 678 2069 
L 678 2625 
Q 1006 2869 1286 2976 
Q 1566 3084 1869 3084 
Q 2213 3084 2672 2900 
Q 2703 2888 2719 2881 
Q 2741 2872 2788 2853 
Q 3272 2663 3566 2663 
Q 3834 2663 4098 2780 
Q 4363 2897 4684 3163 
z
" transform="scale(0.015625)"/>
      <path id="DejaVuSans-2c" d="M 750 794 
L 1409 794 
L 1409 256 
L 897 -744 
L 494 -744 
L 750 256 
L 750 794 
z
" transform="scale(0.015625)"/>
      <path id="DejaVuSans-35" d="M 691 4666 
L 3169 4666 
L 3169 4134 
L 1269 4134 
L 1269 2991 
Q 1406 3038 1543 3061 
Q 1681 3084 1819 3084 
Q 2600 3084 3056 2656 
Q 3513 2228 3513 1497 
Q 3513 744 3044 326 
Q 2575 -91 1722 -91 
Q 1428 -91 1123 -41 
Q 819 9 494 109 
L 494 744 
Q 775 591 1075 516 
Q 1375 441 1709 441 
Q 2250 441 2565 725 
Q 2881 1009 2881 1497 
Q 2881 1984 2565 2268 
Q 2250 2553 1709 2553 
Q 1456 2553 1204 2497 
Q 953 2441 691 2322 
L 691 4666 
z
" transform="scale(0.015625)"/>
      <path id="DejaVuSans-29" d="M 513 4856 
L 1013 4856 
Q 1481 4119 1714 3412 
Q 1947 2706 1947 2009 
Q 1947 1309 1714 600 
Q 1481 -109 1013 -844 
L 513 -844 
Q 928 -128 1133 580 
Q 1338 1288 1338 2009 
Q 1338 2731 1133 3434 
Q 928 4138 513 4856 
z
" transform="scale(0.015625)"/>
     </defs>
     <use xlink:href="#DejaVuSans-28" transform="translate(0 0.125)"/>
     <use xlink:href="#DejaVuSans-Oblique-43" transform="translate(39.013672 0.125)"/>
     <use xlink:href="#DejaVuSans-Oblique-70" transform="translate(108.837891 -16.28125) scale(0.7)"/>
     <use xlink:href="#DejaVuSans-2248" transform="translate(175.488281 0.125)"/>
     <use xlink:href="#DejaVuSans-30" transform="translate(278.759766 0.125)"/>
     <use xlink:href="#DejaVuSans-2c" transform="translate(342.382812 0.125)"/>
     <use xlink:href="#DejaVuSans-35" transform="translate(374.169922 0.125)"/>
     <use xlink:href="#DejaVuSans-29" transform="translate(437.792969 0.125)"/>
    </g>
   </g>
   <g id="patch_9">
    <path d="M 458.175918 144.434977 
Q 422.72888 117.134265 388.344768 90.652202 
" style="fill: none; stroke: #e65100; stroke-width: 1.2; stroke-linecap: round"/>
    <path d="M 390.293436 94.677459 
L 388.344768 90.652202 
L 392.734175 91.508422 
" style="fill: none; stroke: #e65100; stroke-width: 1.2; stroke-linecap: round"/>
   </g>
   <g id="text_23">
    <g id="patch_10">
     <path d="M 461.73932 172.380322 
L 491.73932 172.380322 
Q 494.73932 172.380322 494.73932 169.380322 
L 494.73932 148.504384 
Q 494.73932 145.504384 491.73932 145.504384 
L 461.73932 145.504384 
Q 458.73932 145.504384 458.73932 148.504384 
L 458.73932 169.380322 
Q 458.73932 172.380322 461.73932 172.380322 
z
" style="fill: #ffffff; opacity: 0.92; stroke: #808080; stroke-linejoin: miter"/>
    </g>
    <!-- Stallo -->
    <g style="fill: #e65100" transform="translate(461.73932 155.682509) scale(0.1 -0.1)">
     <defs>
      <path id="DejaVuSans-53" d="M 3425 4513 
L 3425 3897 
Q 3066 4069 2747 4153 
Q 2428 4238 2131 4238 
Q 1616 4238 1336 4038 
Q 1056 3838 1056 3469 
Q 1056 3159 1242 3001 
Q 1428 2844 1947 2747 
L 2328 2669 
Q 3034 2534 3370 2195 
Q 3706 1856 3706 1288 
Q 3706 609 3251 259 
Q 2797 -91 1919 -91 
Q 1588 -91 1214 -16 
Q 841 59 441 206 
L 441 856 
Q 825 641 1194 531 
Q 1563 422 1919 422 
Q 2459 422 2753 634 
Q 3047 847 3047 1241 
Q 3047 1584 2836 1778 
Q 2625 1972 2144 2069 
L 1759 2144 
Q 1053 2284 737 2584 
Q 422 2884 422 3419 
Q 422 4038 858 4394 
Q 1294 4750 2059 4750 
Q 2388 4750 2728 4690 
Q 3069 4631 3425 4513 
z
" transform="scale(0.015625)"/>
      <path id="DejaVuSans-6c" d="M 603 4863 
L 1178 4863 
L 1178 0 
L 603 0 
L 603 4863 
z
" transform="scale(0.015625)"/>
     </defs>
     <use xlink:href="#DejaVuSans-53"/>
     <use xlink:href="#DejaVuSans-74" x="63.476562"/>
     <use xlink:href="#DejaVuSans-61" x="102.685547"/>
     <use xlink:href="#DejaVuSans-6c" x="163.964844"/>
     <use xlink:href="#DejaVuSans-6c" x="191.748047"/>
     <use xlink:href="#DejaVuSans-6f" x="219.53125"/>
    </g>
    <!-- $C_{L,max}$ -->
    <g style="fill: #e65100" transform="translate(461.73932 166.880322) scale(0.1 -0.1)">
     <defs>
      <path id="DejaVuSans-Oblique-4c" d="M 1075 4666 
L 1709 4666 
L 909 525 
L 3181 525 
L 3078 0 
L 172 0 
L 1075 4666 
z
" transform="scale(0.015625)"/>
     </defs>
     <use xlink:href="#DejaVuSans-Oblique-43" transform="translate(0 0.78125)"/>
     <use xlink:href="#DejaVuSans-Oblique-4c" transform="translate(69.824219 -15.625) scale(0.7)"/>
     <use xlink:href="#DejaVuSans-2c" transform="translate(108.823242 -15.625) scale(0.7)"/>
     <use xlink:href="#DejaVuSans-Oblique-6d" transform="translate(144.711914 -15.625) scale(0.7)"/>
     <use xlink:href="#DejaVuSans-Oblique-61" transform="translate(212.900391 -15.625) scale(0.7)"/>
     <use xlink:href="#DejaVuSans-Oblique-78" transform="translate(255.795898 -15.625) scale(0.7)"/>
    </g>
   </g>
   <g id="text_24">
    <!-- Polare di velivolo con punto di massima efficienza -->
    <g transform="translate(151.623828 31.477969) scale(0.13 -0.13)">
     <defs>
      <path id="DejaVuSans-50" d="M 1259 4147 
L 1259 2394 
L 2053 2394 
Q 2494 2394 2734 2622 
Q 2975 2850 2975 3272 
Q 2975 3691 2734 3919 
Q 2494 4147 2053 4147 
L 1259 4147 
z
M 628 4666 
L 2053 4666 
Q 2838 4666 3239 4311 
Q 3641 3956 3641 3272 
Q 3641 2581 3239 2228 
Q 2838 1875 2053 1875 
L 1259 1875 
L 1259 0 
L 628 0 
L 628 4666 
z
" transform="scale(0.015625)"/>
      <path id="DejaVuSans-76" d="M 191 3500 
L 800 3500 
L 1894 563 
L 2988 3500 
L 3597 3500 
L 2284 0 
L 1503 0 
L 191 3500 
z
" transform="scale(0.015625)"/>
      <path id="DejaVuSans-75" d="M 544 1381 
L 544 3500 
L 1119 3500 
L 1119 1403 
Q 1119 906 1312 657 
Q 1506 409 1894 409 
Q 2359 409 2629 706 
Q 2900 1003 2900 1516 
L 2900 3500 
L 3475 3500 
L 3475 0 
L 2900 0 
L 2900 538 
Q 2691 219 2414 64 
Q 2138 -91 1772 -91 
Q 1169 -91 856 284 
Q 544 659 544 1381 
z
M 1991 3584 
L 1991 3584 
z
" transform="scale(0.015625)"/>
      <path id="DejaVuSans-6d" d="M 3328 2828 
Q 3544 3216 3844 3400 
Q 4144 3584 4550 3584 
Q 5097 3584 5394 3201 
Q 5691 2819 5691 2113 
L 5691 0 
L 5113 0 
L 5113 2094 
Q 5113 2597 4934 2840 
Q 4756 3084 4391 3084 
Q 3944 3084 3684 2787 
Q 3425 2491 3425 1978 
L 3425 0 
L 2847 0 
L 2847 2094 
Q 2847 2600 2669 2842 
Q 2491 3084 2119 3084 
Q 1678 3084 1418 2786 
Q 1159 2488 1159 1978 
L 1159 0 
L 581 0 
L 581 3500 
L 1159 3500 
L 1159 2956 
Q 1356 3278 1631 3431 
Q 1906 3584 2284 3584 
Q 2666 3584 2933 3390 
Q 3200 3197 3328 2828 
z
" transform="scale(0.015625)"/>
     </defs>
     <use xlink:href="#DejaVuSans-50"/>
     <use xlink:href="#DejaVuSans-6f" x="56.677734"/>
     <use xlink:href="#DejaVuSans-6c" x="117.859375"/>
     <use xlink:href="#DejaVuSans-61" x="145.642578"/>
     <use xlink:href="#DejaVuSans-72" x="206.921875"/>
     <use xlink:href="#DejaVuSans-65" x="245.785156"/>
     <use xlink:href="#DejaVuSans-20" x="307.308594"/>
     <use xlink:href="#DejaVuSans-64" x="339.095703"/>
     <use xlink:href="#DejaVuSans-69" x="402.572266"/>
     <use xlink:href="#DejaVuSans-20" x="430.355469"/>
     <use xlink:href="#DejaVuSans-76" x="462.142578"/>
     <use xlink:href="#DejaVuSans-65" x="521.322266"/>
     <use xlink:href="#DejaVuSans-6c" x="582.845703"/>
     <use xlink:href="#DejaVuSans-69" x="610.628906"/>
     <use xlink:href="#DejaVuSans-76" x="638.412109"/>
     <use xlink:href="#DejaVuSans-6f" x="697.591797"/>
     <use xlink:href="#DejaVuSans-6c" x="758.773438"/>
     <use xlink:href="#DejaVuSans-6f" x="786.556641"/>
     <use xlink:href="#DejaVuSans-20" x="847.738281"/>
     <use xlink:href="#DejaVuSans-63" x="879.525391"/>
     <use xlink:href="#DejaVuSans-6f" x="934.505859"/>
     <use xlink:href="#DejaVuSans-6e" x="995.6875"/>
     <use xlink:href="#DejaVuSans-20" x="1059.066406"/>
     <use xlink:href="#DejaVuSans-70" x="1090.853516"/>
     <use xlink:href="#DejaVuSans-75" x="1154.330078"/>
     <use xlink:href="#DejaVuSans-6e" x="1217.708984"/>
     <use xlink:href="#DejaVuSans-74" x="1281.087891"/>
     <use xlink:href="#DejaVuSans-6f" x="1320.296875"/>
     <use xlink:href="#DejaVuSans-20" x="1381.478516"/>
     <use xlink:href="#DejaVuSans-64" x="1413.265625"/>
     <use xlink:href="#DejaVuSans-69" x="1476.742188"/>
     <use xlink:href="#DejaVuSans-20" x="1504.525391"/>
     <use xlink:href="#DejaVuSans-6d" x="1536.3125"/>
     <use xlink:href="#DejaVuSans-61" x="1633.724609"/>
     <use xlink:href="#DejaVuSans-73" x="1695.003906"/>
     <use xlink:href="#DejaVuSans-73" x="1747.103516"/>
     <use xlink:href="#DejaVuSans-69" x="1799.203125"/>
     <use xlink:href="#DejaVuSans-6d" x="1826.986328"/>
     <use xlink:href="#DejaVuSans-61" x="1924.398438"/>
     <use xlink:href="#DejaVuSans-20" x="1985.677734"/>
     <use xlink:href="#DejaVuSans-65" x="2017.464844"/>
     <use xlink:href="#DejaVuSans-66" x="2078.988281"/>
     <use xlink:href="#DejaVuSans-66" x="2114.193359"/>
     <use xlink:href="#DejaVuSans-69" x="2149.398438"/>
     <use xlink:href="#DejaVuSans-63" x="2177.181641"/>
     <use xlink:href="#DejaVuSans-69" x="2232.162109"/>
     <use xlink:href="#DejaVuSans-65" x="2259.945312"/>
     <use xlink:href="#DejaVuSans-6e" x="2321.46875"/>
     <use xlink:href="#DejaVuSans-7a" x="2384.847656"/>
     <use xlink:href="#DejaVuSans-61" x="2437.337891"/>
    </g>
   </g>
   <g id="PathCollection_1">
    <defs>
     <path id="m89128b8148" d="M 0 5.477226 
C 1.452577 5.477226 2.845856 4.900111 3.872983 3.872983 
C 4.900111 2.845856 5.477226 1.452577 5.477226 0 
C 5.477226 -1.452577 4.900111 -2.845856 3.872983 -3.872983 
C 2.845856 -4.900111 1.452577 -5.477226 0 -5.477226 
C -1.452577 -5.477226 -2.845856 -4.900111 -3.872983 -3.872983 
C -4.900111 -2.845856 -5.477226 -1.452577 -5.477226 0 
C -5.477226 1.452577 -4.900111 2.845856 -3.872983 3.872983 
C -2.845856 4.900111 -1.452577 5.477226 0 5.477226 
z
" style="stroke: #000000; stroke-width: 1.2"/>
    </defs>
    <g clip-path="url(#pe918b37d9c)">
     <use xlink:href="#m89128b8148" x="210.63932" y="222.243191" style="fill: #d32f2f; stroke: #000000; stroke-width: 1.2"/>
    </g>
   </g>
   <g id="PathCollection_2">
    <defs>
     <path id="m9baacc26c0" d="M 0 5 
C 1.326016 5 2.597899 4.473168 3.535534 3.535534 
C 4.473168 2.597899 5 1.326016 5 0 
C 5 -1.326016 4.473168 -2.597899 3.535534 -3.535534 
C 2.597899 -4.473168 1.326016 -5 0 -5 
C -1.326016 -5 -2.597899 -4.473168 -3.535534 -3.535534 
C -4.473168 -2.597899 -5 -1.326016 -5 0 
C -5 1.326016 -4.473168 2.597899 -3.535534 3.535534 
C -2.597899 4.473168 -1.326016 5 0 5 
z
" style="stroke: #000000; stroke-width: 1.2"/>
    </defs>
    <g clip-path="url(#pe918b37d9c)">
     <use xlink:href="#m9baacc26c0" x="164.442992" y="284.282675" style="fill: #43a047; stroke: #000000; stroke-width: 1.2"/>
    </g>
   </g>
   <g id="PathCollection_3">
    <defs>
     <path id="m334d1f76ee" d="M 0 5 
C 1.326016 5 2.597899 4.473168 3.535534 3.535534 
C 4.473168 2.597899 5 1.326016 5 0 
C 5 -1.326016 4.473168 -2.597899 3.535534 -3.535534 
C 2.597899 -4.473168 1.326016 -5 0 -5 
C -1.326016 -5 -2.597899 -4.473168 -3.535534 -3.535534 
C -4.473168 -2.597899 -5 -1.326016 -5 0 
C -5 1.326016 -4.473168 2.597899 -3.535534 3.535534 
C -2.597899 4.473168 -1.326016 5 0 5 
z
" style="stroke: #000000; stroke-width: 1.2"/>
    </defs>
    <g clip-path="url(#pe918b37d9c)">
     <use xlink:href="#m334d1f76ee" x="385.695898" y="88.612086" style="fill: #fb8c00; stroke: #000000; stroke-width: 1.2"/>
    </g>
   </g>
   <g id="legend_1">
    <g id="patch_11">
     <path d="M 360.933437 377.117969 
L 558.133438 377.117969 
Q 560.133438 377.117969 560.133438 375.117969 
L 560.133438 345.717969 
Q 560.133438 343.717969 558.133438 343.717969 
L 360.933437 343.717969 
Q 358.933437 343.717969 358.933437 345.717969 
L 358.933437 375.117969 
Q 358.933437 377.117969 360.933437 377.117969 
z
" style="fill: #ffffff; opacity: 0.8; stroke: #cccccc; stroke-linejoin: miter"/>
    </g>
    <g id="line2d_39">
     <path d="M 362.933437 351.817969 
L 372.933437 351.817969 
L 382.933437 351.817969 
" style="fill: none; stroke: #1976d2; stroke-width: 2.8; stroke-linecap: square"/>
    </g>
    <g id="text_25">
     <!-- Polare $C_p(C_R)$ -->
     <g transform="translate(390.933437 355.317969) scale(0.1 -0.1)">
      <use xlink:href="#DejaVuSans-50" transform="translate(0 0.015625)"/>
      <use xlink:href="#DejaVuSans-6f" transform="translate(60.302734 0.015625)"/>
      <use xlink:href="#DejaVuSans-6c" transform="translate(121.484375 0.015625)"/>
      <use xlink:href="#DejaVuSans-61" transform="translate(149.267578 0.015625)"/>
      <use xlink:href="#DejaVuSans-72" transform="translate(210.546875 0.015625)"/>
      <use xlink:href="#DejaVuSans-65" transform="translate(251.660156 0.015625)"/>
      <use xlink:href="#DejaVuSans-20" transform="translate(313.183594 0.015625)"/>
      <use xlink:href="#DejaVuSans-Oblique-43" transform="translate(344.970703 0.015625)"/>
      <use xlink:href="#DejaVuSans-Oblique-70" transform="translate(414.794922 -16.390625) scale(0.7)"/>
      <use xlink:href="#DejaVuSans-28" transform="translate(461.962891 0.015625)"/>
      <use xlink:href="#DejaVuSans-Oblique-43" transform="translate(500.976562 0.015625)"/>
      <use xlink:href="#DejaVuSans-Oblique-52" transform="translate(570.800781 -16.390625) scale(0.7)"/>
      <use xlink:href="#DejaVuSans-29" transform="translate(622.172852 0.015625)"/>
     </g>
    </g>
    <g id="line2d_40">
     <path d="M 362.933437 367.517969 
L 372.933437 367.517969 
L 382.933437 367.517969 
" style="fill: none; stroke-dasharray: 7.4,3.2; stroke-dashoffset: 0; stroke: #d32f2f; stroke-width: 2"/>
    </g>
    <g id="text_26">
     <!-- Tangente all'origine: $E_{max}$ = 16.3 -->
     <g transform="translate(390.933437 371.017969) scale(0.1 -0.1)">
      <defs>
       <path id="DejaVuSans-54" d="M -19 4666 
L 3928 4666 
L 3928 4134 
L 2272 4134 
L 2272 0 
L 1638 0 
L 1638 4134 
L -19 4134 
L -19 4666 
z
" transform="scale(0.015625)"/>
       <path id="DejaVuSans-67" d="M 2906 1791 
Q 2906 2416 2648 2759 
Q 2391 3103 1925 3103 
Q 1463 3103 1205 2759 
Q 947 2416 947 1791 
Q 947 1169 1205 825 
Q 1463 481 1925 481 
Q 2391 481 2648 825 
Q 2906 1169 2906 1791 
z
M 3481 434 
Q 3481 -459 3084 -895 
Q 2688 -1331 1869 -1331 
Q 1566 -1331 1297 -1286 
Q 1028 -1241 775 -1147 
L 775 -588 
Q 1028 -725 1275 -790 
Q 1522 -856 1778 -856 
Q 2344 -856 2625 -561 
Q 2906 -266 2906 331 
L 2906 616 
Q 2728 306 2450 153 
Q 2172 0 1784 0 
Q 1141 0 747 490 
Q 353 981 353 1791 
Q 353 2603 747 3093 
Q 1141 3584 1784 3584 
Q 2172 3584 2450 3431 
Q 2728 3278 2906 2969 
L 2906 3500 
L 3481 3500 
L 3481 434 
z
" transform="scale(0.015625)"/>
       <path id="DejaVuSans-27" d="M 1147 4666 
L 1147 2931 
L 616 2931 
L 616 4666 
L 1147 4666 
z
" transform="scale(0.015625)"/>
       <path id="DejaVuSans-3a" d="M 750 794 
L 1409 794 
L 1409 0 
L 750 0 
L 750 794 
z
M 750 3309 
L 1409 3309 
L 1409 2516 
L 750 2516 
L 750 3309 
z
" transform="scale(0.015625)"/>
       <path id="DejaVuSans-3d" d="M 678 2906 
L 4684 2906 
L 4684 2381 
L 678 2381 
L 678 2906 
z
M 678 1631 
L 4684 1631 
L 4684 1100 
L 678 1100 
L 678 1631 
z
" transform="scale(0.015625)"/>
       <path id="DejaVuSans-33" d="M 2597 2516 
Q 3050 2419 3304 2112 
Q 3559 1806 3559 1356 
Q 3559 666 3084 287 
Q 2609 -91 1734 -91 
Q 1441 -91 1130 -33 
Q 819 25 488 141 
L 488 750 
Q 750 597 1062 519 
Q 1375 441 1716 441 
Q 2309 441 2620 675 
Q 2931 909 2931 1356 
Q 2931 1769 2642 2001 
Q 2353 2234 1838 2234 
L 1294 2234 
L 1294 2753 
L 1863 2753 
Q 2328 2753 2575 2939 
Q 2822 3125 2822 3475 
Q 2822 3834 2567 4026 
Q 2313 4219 1838 4219 
Q 1578 4219 1281 4162 
Q 984 4106 628 3988 
L 628 4550 
Q 988 4650 1302 4700 
Q 1616 4750 1894 4750 
Q 2613 4750 3031 4423 
Q 3450 4097 3450 3541 
Q 3450 3153 3228 2886 
Q 3006 2619 2597 2516 
z
" transform="scale(0.015625)"/>
      </defs>
      <use xlink:href="#DejaVuSans-54" transform="translate(0 0.015625)"/>
      <use xlink:href="#DejaVuSans-61" transform="translate(61.083984 0.015625)"/>
      <use xlink:href="#DejaVuSans-6e" transform="translate(122.363281 0.015625)"/>
      <use xlink:href="#DejaVuSans-67" transform="translate(185.742188 0.015625)"/>
      <use xlink:href="#DejaVuSans-65" transform="translate(249.21875 0.015625)"/>
      <use xlink:href="#DejaVuSans-6e" transform="translate(310.742188 0.015625)"/>
      <use xlink:href="#DejaVuSans-74" transform="translate(374.121094 0.015625)"/>
      <use xlink:href="#DejaVuSans-65" transform="translate(413.330078 0.015625)"/>
      <use xlink:href="#DejaVuSans-20" transform="translate(474.853516 0.015625)"/>
      <use xlink:href="#DejaVuSans-61" transform="translate(506.640625 0.015625)"/>
      <use xlink:href="#DejaVuSans-6c" transform="translate(567.919922 0.015625)"/>
      <use xlink:href="#DejaVuSans-6c" transform="translate(595.703125 0.015625)"/>
      <use xlink:href="#DejaVuSans-27" transform="translate(623.486328 0.015625)"/>
      <use xlink:href="#DejaVuSans-6f" transform="translate(650.976562 0.015625)"/>
      <use xlink:href="#DejaVuSans-72" transform="translate(712.158203 0.015625)"/>
      <use xlink:href="#DejaVuSans-69" transform="translate(753.271484 0.015625)"/>
      <use xlink:href="#DejaVuSans-67" transform="translate(781.054688 0.015625)"/>
      <use xlink:href="#DejaVuSans-69" transform="translate(844.53125 0.015625)"/>
      <use xlink:href="#DejaVuSans-6e" transform="translate(872.314453 0.015625)"/>
      <use xlink:href="#DejaVuSans-65" transform="translate(935.693359 0.015625)"/>
      <use xlink:href="#DejaVuSans-3a" transform="translate(997.216797 0.015625)"/>
      <use xlink:href="#DejaVuSans-20" transform="translate(1030.908203 0.015625)"/>
      <use xlink:href="#DejaVuSans-Oblique-45" transform="translate(1062.695312 0.015625)"/>
      <use xlink:href="#DejaVuSans-Oblique-6d" transform="translate(1125.878906 -16.390625) scale(0.7)"/>
      <use xlink:href="#DejaVuSans-Oblique-61" transform="translate(1194.067383 -16.390625) scale(0.7)"/>
      <use xlink:href="#DejaVuSans-Oblique-78" transform="translate(1236.962891 -16.390625) scale(0.7)"/>
      <use xlink:href="#DejaVuSans-20" transform="translate(1281.123047 0.015625)"/>
      <use xlink:href="#DejaVuSans-3d" transform="translate(1312.910156 0.015625)"/>
      <use xlink:href="#DejaVuSans-20" transform="translate(1396.699219 0.015625)"/>
      <use xlink:href="#DejaVuSans-31" transform="translate(1428.486328 0.015625)"/>
      <use xlink:href="#DejaVuSans-36" transform="translate(1492.109375 0.015625)"/>
      <use xlink:href="#DejaVuSans-2e" transform="translate(1555.732422 0.015625)"/>
      <use xlink:href="#DejaVuSans-33" transform="translate(1587.519531 0.015625)"/>
     </g>
    </g>
   </g>
  </g>
 </g>
 <defs>
  <clipPath id="pe918b37d9c">
   <rect x="62.933437" y="49.477969" width="502.2" height="332.64"/>
  </clipPath>
 </defs>
</svg>
