<?xml version="1.0" encoding="utf-8" standalone="no"?>
<!DOCTYPE svg PUBLIC "-//W3C//DTD SVG 1.1//EN"
  "http://www.w3.org/Graphics/SVG/1.1/DTD/svg11.dtd">
<svg xmlns:xlink="http://www.w3.org/1999/xlink" width="461.053125pt" height="343.433125pt" viewBox="0 0 461.053125 343.433125" xmlns="http://www.w3.org/2000/svg" version="1.1">
 <metadata>
  <rdf:RDF xmlns:dc="http://purl.org/dc/elements/1.1/" xmlns:cc="http://creativecommons.org/ns#" xmlns:rdf="http://www.w3.org/1999/02/22-rdf-syntax-ns#">
   <cc:Work>
    <dc:type rdf:resource="http://purl.org/dc/dcmitype/StillImage"/>
    <dc:date>2026-04-27T14:38:10.686201</dc:date>
    <dc:format>image/svg+xml</dc:format>
    <dc:creator>
     <cc:Agent>
      <dc:title>Matplotlib v3.9.4, https://matplotlib.org/</dc:title>
     </cc:Agent>
    </dc:creator>
   </cc:Work>
  </rdf:RDF>
 </metadata>
 <defs>
  <style type="text/css">*{stroke-linejoin: round; stroke-linecap: butt}</style>
 </defs>
 <g id="figure_1">
  <g id="patch_1">
   <path d="M 0 343.433125 
L 461.053125 343.433125 
L 461.053125 0 
L 0 0 
z
" style="fill: #ffffff"/>
  </g>
  <g id="axes_1">
   <g id="patch_2">
    <path d="M 49.89375 301.037813 
L 440.49375 301.037813 
L 440.49375 23.837812 
L 49.89375 23.837812 
z
" style="fill: #ffffff"/>
   </g>
   <g id="matplotlib.axis_1">
    <g id="xtick_1">
     <g id="line2d_1">
      <path d="M 49.89375 301.037813 
L 49.89375 23.837812 
" clip-path="url(#p2982ea3a82)" style="fill: none; stroke: #b0b0b0; stroke-opacity: 0.3; stroke-width: 0.8; stroke-linecap: square"/>
     </g>
     <g id="line2d_2">
      <defs>
       <path id="m21f9a2b156" d="M 0 0 
L 0 3.5 
" style="stroke: #000000; stroke-width: 0.8"/>
      </defs>
      <g>
       <use xlink:href="#m21f9a2b156" x="49.89375" y="301.037813" style="stroke: #000000; stroke-width: 0.8"/>
      </g>
     </g>
     <g id="text_1">
      <!-- 0.00 -->
      <g transform="translate(36.534375 317.155937) scale(0.12 -0.12)">
       <defs>
        <path id="DejaVuSans-30" d="M 2034 4250 
Q 1547 4250 1301 3770 
Q 1056 3291 1056 2328 
Q 1056 1369 1301 889 
Q 1547 409 2034 409 
Q 2525 409 2770 889 
Q 3016 1369 3016 2328 
Q 3016 3291 2770 3770 
Q 2525 4250 2034 4250 
z
M 2034 4750 
Q 2819 4750 3233 4129 
Q 3647 3509 3647 2328 
Q 3647 1150 3233 529 
Q 2819 -91 2034 -91 
Q 1250 -91 836 529 
Q 422 1150 422 2328 
Q 422 3509 836 4129 
Q 1250 4750 2034 4750 
z
" transform="scale(0.015625)"/>
        <path id="DejaVuSans-2e" d="M 684 794 
L 1344 794 
L 1344 0 
L 684 0 
L 684 794 
z
" transform="scale(0.015625)"/>
       </defs>
       <use xlink:href="#DejaVuSans-30"/>
       <use xlink:href="#DejaVuSans-2e" x="63.623047"/>
       <use xlink:href="#DejaVuSans-30" x="95.410156"/>
       <use xlink:href="#DejaVuSans-30" x="159.033203"/>
      </g>
     </g>
    </g>
    <g id="xtick_2">
     <g id="line2d_3">
      <path d="M 98.71875 301.037813 
L 98.71875 23.837812 
" clip-path="url(#p2982ea3a82)" style="fill: none; stroke: #b0b0b0; stroke-opacity: 0.3; stroke-width: 0.8; stroke-linecap: square"/>
     </g>
     <g id="line2d_4">
      <g>
       <use xlink:href="#m21f9a2b156" x="98.71875" y="301.037813" style="stroke: #000000; stroke-width: 0.8"/>
      </g>
     </g>
     <g id="text_2">
      <!-- 0.02 -->
      <g transform="translate(85.359375 317.155937) scale(0.12 -0.12)">
       <defs>
        <path id="DejaVuSans-32" d="M 1228 531 
L 3431 531 
L 3431 0 
L 469 0 
L 469 531 
Q 828 903 1448 1529 
Q 2069 2156 2228 2338 
Q 2531 2678 2651 2914 
Q 2772 3150 2772 3378 
Q 2772 3750 2511 3984 
Q 2250 4219 1831 4219 
Q 1534 4219 1204 4116 
Q 875 4013 500 3803 
L 500 4441 
Q 881 4594 1212 4672 
Q 1544 4750 1819 4750 
Q 2544 4750 2975 4387 
Q 3406 4025 3406 3419 
Q 3406 3131 3298 2873 
Q 3191 2616 2906 2266 
Q 2828 2175 2409 1742 
Q 1991 1309 1228 531 
z
" transform="scale(0.015625)"/>
       </defs>
       <use xlink:href="#DejaVuSans-30"/>
       <use xlink:href="#DejaVuSans-2e" x="63.623047"/>
       <use xlink:href="#DejaVuSans-30" x="95.410156"/>
       <use xlink:href="#DejaVuSans-32" x="159.033203"/>
      </g>
     </g>
    </g>
    <g id="xtick_3">
     <g id="line2d_5">
      <path d="M 147.54375 301.037813 
L 147.54375 23.837812 
" clip-path="url(#p2982ea3a82)" style="fill: none; stroke: #b0b0b0; stroke-opacity: 0.3; stroke-width: 0.8; stroke-linecap: square"/>
     </g>
     <g id="line2d_6">
      <g>
       <use xlink:href="#m21f9a2b156" x="147.54375" y="301.037813" style="stroke: #000000; stroke-width: 0.8"/>
      </g>
     </g>
     <g id="text_3">
      <!-- 0.04 -->
      <g transform="translate(134.184375 317.155937) scale(0.12 -0.12)">
       <defs>
        <path id="DejaVuSans-34" d="M 2419 4116 
L 825 1625 
L 2419 1625 
L 2419 4116 
z
M 2253 4666 
L 3047 4666 
L 3047 1625 
L 3713 1625 
L 3713 1100 
L 3047 1100 
L 3047 0 
L 2419 0 
L 2419 1100 
L 313 1100 
L 313 1709 
L 2253 4666 
z
" transform="scale(0.015625)"/>
       </defs>
       <use xlink:href="#DejaVuSans-30"/>
       <use xlink:href="#DejaVuSans-2e" x="63.623047"/>
       <use xlink:href="#DejaVuSans-30" x="95.410156"/>
       <use xlink:href="#DejaVuSans-34" x="159.033203"/>
      </g>
     </g>
    </g>
    <g id="xtick_4">
     <g id="line2d_7">
      <path d="M 196.36875 301.037813 
L 196.36875 23.837812 
" clip-path="url(#p2982ea3a82)" style="fill: none; stroke: #b0b0b0; stroke-opacity: 0.3; stroke-width: 0.8; stroke-linecap: square"/>
     </g>
     <g id="line2d_8">
      <g>
       <use xlink:href="#m21f9a2b156" x="196.36875" y="301.037813" style="stroke: #000000; stroke-width: 0.8"/>
      </g>
     </g>
     <g id="text_4">
      <!-- 0.06 -->
      <g transform="translate(183.009375 317.155937) scale(0.12 -0.12)">
       <defs>
        <path id="DejaVuSans-36" d="M 2113 2584 
Q 1688 2584 1439 2293 
Q 1191 2003 1191 1497 
Q 1191 994 1439 701 
Q 1688 409 2113 409 
Q 2538 409 2786 701 
Q 3034 994 3034 1497 
Q 3034 2003 2786 2293 
Q 2538 2584 2113 2584 
z
M 3366 4563 
L 3366 3988 
Q 3128 4100 2886 4159 
Q 2644 4219 2406 4219 
Q 1781 4219 1451 3797 
Q 1122 3375 1075 2522 
Q 1259 2794 1537 2939 
Q 1816 3084 2150 3084 
Q 2853 3084 3261 2657 
Q 3669 2231 3669 1497 
Q 3669 778 3244 343 
Q 2819 -91 2113 -91 
Q 1303 -91 875 529 
Q 447 1150 447 2328 
Q 447 3434 972 4092 
Q 1497 4750 2381 4750 
Q 2619 4750 2861 4703 
Q 3103 4656 3366 4563 
z
" transform="scale(0.015625)"/>
       </defs>
       <use xlink:href="#DejaVuSans-30"/>
       <use xlink:href="#DejaVuSans-2e" x="63.623047"/>
       <use xlink:href="#DejaVuSans-30" x="95.410156"/>
       <use xlink:href="#DejaVuSans-36" x="159.033203"/>
      </g>
     </g>
    </g>
    <g id="xtick_5">
     <g id="line2d_9">
      <path d="M 245.19375 301.037813 
L 245.19375 23.837812 
" clip-path="url(#p2982ea3a82)" style="fill: none; stroke: #b0b0b0; stroke-opacity: 0.3; stroke-width: 0.8; stroke-linecap: square"/>
     </g>
     <g id="line2d_10">
      <g>
       <use xlink:href="#m21f9a2b156" x="245.19375" y="301.037813" style="stroke: #000000; stroke-width: 0.8"/>
      </g>
     </g>
     <g id="text_5">
      <!-- 0.08 -->
      <g transform="translate(231.834375 317.155937) scale(0.12 -0.12)">
       <defs>
        <path id="DejaVuSans-38" d="M 2034 2216 
Q 1584 2216 1326 1975 
Q 1069 1734 1069 1313 
Q 1069 891 1326 650 
Q 1584 409 2034 409 
Q 2484 409 2743 651 
Q 3003 894 3003 1313 
Q 3003 1734 2745 1975 
Q 2488 2216 2034 2216 
z
M 1403 2484 
Q 997 2584 770 2862 
Q 544 3141 544 3541 
Q 544 4100 942 4425 
Q 1341 4750 2034 4750 
Q 2731 4750 3128 4425 
Q 3525 4100 3525 3541 
Q 3525 3141 3298 2862 
Q 3072 2584 2669 2484 
Q 3125 2378 3379 2068 
Q 3634 1759 3634 1313 
Q 3634 634 3220 271 
Q 2806 -91 2034 -91 
Q 1263 -91 848 271 
Q 434 634 434 1313 
Q 434 1759 690 2068 
Q 947 2378 1403 2484 
z
M 1172 3481 
Q 1172 3119 1398 2916 
Q 1625 2713 2034 2713 
Q 2441 2713 2670 2916 
Q 2900 3119 2900 3481 
Q 2900 3844 2670 4047 
Q 2441 4250 2034 4250 
Q 1625 4250 1398 4047 
Q 1172 3844 1172 3481 
z
" transform="scale(0.015625)"/>
       </defs>
       <use xlink:href="#DejaVuSans-30"/>
       <use xlink:href="#DejaVuSans-2e" x="63.623047"/>
       <use xlink:href="#DejaVuSans-30" x="95.410156"/>
       <use xlink:href="#DejaVuSans-38" x="159.033203"/>
      </g>
     </g>
    </g>
    <g id="xtick_6">
     <g id="line2d_11">
      <path d="M 294.01875 301.037813 
L 294.01875 23.837812 
" clip-path="url(#p2982ea3a82)" style="fill: none; stroke: #b0b0b0; stroke-opacity: 0.3; stroke-width: 0.8; stroke-linecap: square"/>
     </g>
     <g id="line2d_12">
      <g>
       <use xlink:href="#m21f9a2b156" x="294.01875" y="301.037813" style="stroke: #000000; stroke-width: 0.8"/>
      </g>
     </g>
     <g id="text_6">
      <!-- 0.10 -->
      <g transform="translate(280.659375 317.155937) scale(0.12 -0.12)">
       <defs>
        <path id="DejaVuSans-31" d="M 794 531 
L 1825 531 
L 1825 4091 
L 703 3866 
L 703 4441 
L 1819 4666 
L 2450 4666 
L 2450 531 
L 3481 531 
L 3481 0 
L 794 0 
L 794 531 
z
" transform="scale(0.015625)"/>
       </defs>
       <use xlink:href="#DejaVuSans-30"/>
       <use xlink:href="#DejaVuSans-2e" x="63.623047"/>
       <use xlink:href="#DejaVuSans-31" x="95.410156"/>
       <use xlink:href="#DejaVuSans-30" x="159.033203"/>
      </g>
     </g>
    </g>
    <g id="xtick_7">
     <g id="line2d_13">
      <path d="M 342.84375 301.037813 
L 342.84375 23.837812 
" clip-path="url(#p2982ea3a82)" style="fill: none; stroke: #b0b0b0; stroke-opacity: 0.3; stroke-width: 0.8; stroke-linecap: square"/>
     </g>
     <g id="line2d_14">
      <g>
       <use xlink:href="#m21f9a2b156" x="342.84375" y="301.037813" style="stroke: #000000; stroke-width: 0.8"/>
      </g>
     </g>
     <g id="text_7">
      <!-- 0.12 -->
      <g transform="translate(329.484375 317.155937) scale(0.12 -0.12)">
       <use xlink:href="#DejaVuSans-30"/>
       <use xlink:href="#DejaVuSans-2e" x="63.623047"/>
       <use xlink:href="#DejaVuSans-31" x="95.410156"/>
       <use xlink:href="#DejaVuSans-32" x="159.033203"/>
      </g>
     </g>
    </g>
    <g id="xtick_8">
     <g id="line2d_15">
      <path d="M 391.66875 301.037813 
L 391.66875 23.837812 
" clip-path="url(#p2982ea3a82)" style="fill: none; stroke: #b0b0b0; stroke-opacity: 0.3; stroke-width: 0.8; stroke-linecap: square"/>
     </g>
     <g id="line2d_16">
      <g>
       <use xlink:href="#m21f9a2b156" x="391.66875" y="301.037813" style="stroke: #000000; stroke-width: 0.8"/>
      </g>
     </g>
     <g id="text_8">
      <!-- 0.14 -->
      <g transform="translate(378.309375 317.155937) scale(0.12 -0.12)">
       <use xlink:href="#DejaVuSans-30"/>
       <use xlink:href="#DejaVuSans-2e" x="63.623047"/>
       <use xlink:href="#DejaVuSans-31" x="95.410156"/>
       <use xlink:href="#DejaVuSans-34" x="159.033203"/>
      </g>
     </g>
    </g>
    <g id="xtick_9">
     <g id="line2d_17">
      <path d="M 440.49375 301.037813 
L 440.49375 23.837812 
" clip-path="url(#p2982ea3a82)" style="fill: none; stroke: #b0b0b0; stroke-opacity: 0.3; stroke-width: 0.8; stroke-linecap: square"/>
     </g>
     <g id="line2d_18">
      <g>
       <use xlink:href="#m21f9a2b156" x="440.49375" y="301.037813" style="stroke: #000000; stroke-width: 0.8"/>
      </g>
     </g>
     <g id="text_9">
      <!-- 0.16 -->
      <g transform="translate(427.134375 317.155937) scale(0.12 -0.12)">
       <use xlink:href="#DejaVuSans-30"/>
       <use xlink:href="#DejaVuSans-2e" x="63.623047"/>
       <use xlink:href="#DejaVuSans-31" x="95.410156"/>
       <use xlink:href="#DejaVuSans-36" x="159.033203"/>
      </g>
     </g>
    </g>
    <g id="text_10">
     <!-- Coefficiente di resistenza $C_D$ -->
     <g transform="translate(152.56875 333.529531) scale(0.13 -0.13)">
      <defs>
       <path id="DejaVuSans-43" d="M 4122 4306 
L 4122 3641 
Q 3803 3938 3442 4084 
Q 3081 4231 2675 4231 
Q 1875 4231 1450 3742 
Q 1025 3253 1025 2328 
Q 1025 1406 1450 917 
Q 1875 428 2675 428 
Q 3081 428 3442 575 
Q 3803 722 4122 1019 
L 4122 359 
Q 3791 134 3420 21 
Q 3050 -91 2638 -91 
Q 1578 -91 968 557 
Q 359 1206 359 2328 
Q 359 3453 968 4101 
Q 1578 4750 2638 4750 
Q 3056 4750 3426 4639 
Q 3797 4528 4122 4306 
z
" transform="scale(0.015625)"/>
       <path id="DejaVuSans-6f" d="M 1959 3097 
Q 1497 3097 1228 2736 
Q 959 2375 959 1747 
Q 959 1119 1226 758 
Q 1494 397 1959 397 
Q 2419 397 2687 759 
Q 2956 1122 2956 1747 
Q 2956 2369 2687 2733 
Q 2419 3097 1959 3097 
z
M 1959 3584 
Q 2709 3584 3137 3096 
Q 3566 2609 3566 1747 
Q 3566 888 3137 398 
Q 2709 -91 1959 -91 
Q 1206 -91 779 398 
Q 353 888 353 1747 
Q 353 2609 779 3096 
Q 1206 3584 1959 3584 
z
" transform="scale(0.015625)"/>
       <path id="DejaVuSans-65" d="M 3597 1894 
L 3597 1613 
L 953 1613 
Q 991 1019 1311 708 
Q 1631 397 2203 397 
Q 2534 397 2845 478 
Q 3156 559 3463 722 
L 3463 178 
Q 3153 47 2828 -22 
Q 2503 -91 2169 -91 
Q 1331 -91 842 396 
Q 353 884 353 1716 
Q 353 2575 817 3079 
Q 1281 3584 2069 3584 
Q 2775 3584 3186 3129 
Q 3597 2675 3597 1894 
z
M 3022 2063 
Q 3016 2534 2758 2815 
Q 2500 3097 2075 3097 
Q 1594 3097 1305 2825 
Q 1016 2553 972 2059 
L 3022 2063 
z
" transform="scale(0.015625)"/>
       <path id="DejaVuSans-66" d="M 2375 4863 
L 2375 4384 
L 1825 4384 
Q 1516 4384 1395 4259 
Q 1275 4134 1275 3809 
L 1275 3500 
L 2222 3500 
L 2222 3053 
L 1275 3053 
L 1275 0 
L 697 0 
L 697 3053 
L 147 3053 
L 147 3500 
L 697 3500 
L 697 3744 
Q 697 4328 969 4595 
Q 1241 4863 1831 4863 
L 2375 4863 
z
" transform="scale(0.015625)"/>
       <path id="DejaVuSans-69" d="M 603 3500 
L 1178 3500 
L 1178 0 
L 603 0 
L 603 3500 
z
M 603 4863 
L 1178 4863 
L 1178 4134 
L 603 4134 
L 603 4863 
z
" transform="scale(0.015625)"/>
       <path id="DejaVuSans-63" d="M 3122 3366 
L 3122 2828 
Q 2878 2963 2633 3030 
Q 2388 3097 2138 3097 
Q 1578 3097 1268 2742 
Q 959 2388 959 1747 
Q 959 1106 1268 751 
Q 1578 397 2138 397 
Q 2388 397 2633 464 
Q 2878 531 3122 666 
L 3122 134 
Q 2881 22 2623 -34 
Q 2366 -91 2075 -91 
Q 1284 -91 818 406 
Q 353 903 353 1747 
Q 353 2603 823 3093 
Q 1294 3584 2113 3584 
Q 2378 3584 2631 3529 
Q 2884 3475 3122 3366 
z
" transform="scale(0.015625)"/>
       <path id="DejaVuSans-6e" d="M 3513 2113 
L 3513 0 
L 2938 0 
L 2938 2094 
Q 2938 2591 2744 2837 
Q 2550 3084 2163 3084 
Q 1697 3084 1428 2787 
Q 1159 2491 1159 1978 
L 1159 0 
L 581 0 
L 581 3500 
L 1159 3500 
L 1159 2956 
Q 1366 3272 1645 3428 
Q 1925 3584 2291 3584 
Q 2894 3584 3203 3211 
Q 3513 2838 3513 2113 
z
" transform="scale(0.015625)"/>
       <path id="DejaVuSans-74" d="M 1172 4494 
L 1172 3500 
L 2356 3500 
L 2356 3053 
L 1172 3053 
L 1172 1153 
Q 1172 725 1289 603 
Q 1406 481 1766 481 
L 2356 481 
L 2356 0 
L 1766 0 
Q 1100 0 847 248 
Q 594 497 594 1153 
L 594 3053 
L 172 3053 
L 172 3500 
L 594 3500 
L 594 4494 
L 1172 4494 
z
" transform="scale(0.015625)"/>
       <path id="DejaVuSans-20" transform="scale(0.015625)"/>
       <path id="DejaVuSans-64" d="M 2906 2969 
L 2906 4863 
L 3481 4863 
L 3481 0 
L 2906 0 
L 2906 525 
Q 2725 213 2448 61 
Q 2172 -91 1784 -91 
Q 1150 -91 751 415 
Q 353 922 353 1747 
Q 353 2572 751 3078 
Q 1150 3584 1784 3584 
Q 2172 3584 2448 3432 
Q 2725 3281 2906 2969 
z
M 947 1747 
Q 947 1113 1208 752 
Q 1469 391 1925 391 
Q 2381 391 2643 752 
Q 2906 1113 2906 1747 
Q 2906 2381 2643 2742 
Q 2381 3103 1925 3103 
Q 1469 3103 1208 2742 
Q 947 2381 947 1747 
z
" transform="scale(0.015625)"/>
       <path id="DejaVuSans-72" d="M 2631 2963 
Q 2534 3019 2420 3045 
Q 2306 3072 2169 3072 
Q 1681 3072 1420 2755 
Q 1159 2438 1159 1844 
L 1159 0 
L 581 0 
L 581 3500 
L 1159 3500 
L 1159 2956 
Q 1341 3275 1631 3429 
Q 1922 3584 2338 3584 
Q 2397 3584 2469 3576 
Q 2541 3569 2628 3553 
L 2631 2963 
z
" transform="scale(0.015625)"/>
       <path id="DejaVuSans-73" d="M 2834 3397 
L 2834 2853 
Q 2591 2978 2328 3040 
Q 2066 3103 1784 3103 
Q 1356 3103 1142 2972 
Q 928 2841 928 2578 
Q 928 2378 1081 2264 
Q 1234 2150 1697 2047 
L 1894 2003 
Q 2506 1872 2764 1633 
Q 3022 1394 3022 966 
Q 3022 478 2636 193 
Q 2250 -91 1575 -91 
Q 1294 -91 989 -36 
Q 684 19 347 128 
L 347 722 
Q 666 556 975 473 
Q 1284 391 1588 391 
Q 1994 391 2212 530 
Q 2431 669 2431 922 
Q 2431 1156 2273 1281 
Q 2116 1406 1581 1522 
L 1381 1569 
Q 847 1681 609 1914 
Q 372 2147 372 2553 
Q 372 3047 722 3315 
Q 1072 3584 1716 3584 
Q 2034 3584 2315 3537 
Q 2597 3491 2834 3397 
z
" transform="scale(0.015625)"/>
       <path id="DejaVuSans-7a" d="M 353 3500 
L 3084 3500 
L 3084 2975 
L 922 459 
L 3084 459 
L 3084 0 
L 275 0 
L 275 525 
L 2438 3041 
L 353 3041 
L 353 3500 
z
" transform="scale(0.015625)"/>
       <path id="DejaVuSans-61" d="M 2194 1759 
Q 1497 1759 1228 1600 
Q 959 1441 959 1056 
Q 959 750 1161 570 
Q 1363 391 1709 391 
Q 2188 391 2477 730 
Q 2766 1069 2766 1631 
L 2766 1759 
L 2194 1759 
z
M 3341 1997 
L 3341 0 
L 2766 0 
L 2766 531 
Q 2569 213 2275 61 
Q 1981 -91 1556 -91 
Q 1019 -91 701 211 
Q 384 513 384 1019 
Q 384 1609 779 1909 
Q 1175 2209 1959 2209 
L 2766 2209 
L 2766 2266 
Q 2766 2663 2505 2880 
Q 2244 3097 1772 3097 
Q 1472 3097 1187 3025 
Q 903 2953 641 2809 
L 641 3341 
Q 956 3463 1253 3523 
Q 1550 3584 1831 3584 
Q 2591 3584 2966 3190 
Q 3341 2797 3341 1997 
z
" transform="scale(0.015625)"/>
       <path id="DejaVuSans-Oblique-43" d="M 4447 4306 
L 4319 3641 
Q 4019 3944 3683 4091 
Q 3347 4238 2956 4238 
Q 2422 4238 2017 3981 
Q 1613 3725 1319 3200 
Q 1131 2863 1032 2486 
Q 934 2109 934 1728 
Q 934 1091 1264 756 
Q 1594 422 2222 422 
Q 2656 422 3056 561 
Q 3456 700 3834 978 
L 3688 231 
Q 3316 72 2936 -9 
Q 2556 -91 2175 -91 
Q 1278 -91 773 396 
Q 269 884 269 1753 
Q 269 2309 461 2846 
Q 653 3384 1013 3828 
Q 1394 4300 1883 4525 
Q 2372 4750 3022 4750 
Q 3422 4750 3780 4639 
Q 4138 4528 4447 4306 
z
" transform="scale(0.015625)"/>
       <path id="DejaVuSans-Oblique-44" d="M 1081 4666 
L 2438 4666 
Q 3519 4666 4070 4208 
Q 4622 3750 4622 2847 
Q 4622 2250 4412 1698 
Q 4203 1147 3834 769 
Q 3463 381 2891 190 
Q 2319 0 1538 0 
L 172 0 
L 1081 4666 
z
M 1613 4147 
L 909 519 
L 1734 519 
Q 2794 519 3375 1128 
Q 3956 1738 3956 2847 
Q 3956 3519 3581 3833 
Q 3206 4147 2406 4147 
L 1613 4147 
z
" transform="scale(0.015625)"/>
      </defs>
      <use xlink:href="#DejaVuSans-43" transform="translate(0 0.015625)"/>
      <use xlink:href="#DejaVuSans-6f" transform="translate(69.824219 0.015625)"/>
      <use xlink:href="#DejaVuSans-65" transform="translate(131.005859 0.015625)"/>
      <use xlink:href="#DejaVuSans-66" transform="translate(192.529297 0.015625)"/>
      <use xlink:href="#DejaVuSans-66" transform="translate(227.734375 0.015625)"/>
      <use xlink:href="#DejaVuSans-69" transform="translate(262.939453 0.015625)"/>
      <use xlink:href="#DejaVuSans-63" transform="translate(290.722656 0.015625)"/>
      <use xlink:href="#DejaVuSans-69" transform="translate(345.703125 0.015625)"/>
      <use xlink:href="#DejaVuSans-65" transform="translate(373.486328 0.015625)"/>
      <use xlink:href="#DejaVuSans-6e" transform="translate(435.009766 0.015625)"/>
      <use xlink:href="#DejaVuSans-74" transform="translate(498.388672 0.015625)"/>
      <use xlink:href="#DejaVuSans-65" transform="translate(537.597656 0.015625)"/>
      <use xlink:href="#DejaVuSans-20" transform="translate(599.121094 0.015625)"/>
      <use xlink:href="#DejaVuSans-64" transform="translate(630.908203 0.015625)"/>
      <use xlink:href="#DejaVuSans-69" transform="translate(694.384766 0.015625)"/>
      <use xlink:href="#DejaVuSans-20" transform="translate(722.167969 0.015625)"/>
      <use xlink:href="#DejaVuSans-72" transform="translate(753.955078 0.015625)"/>
      <use xlink:href="#DejaVuSans-65" transform="translate(795.068359 0.015625)"/>
      <use xlink:href="#DejaVuSans-73" transform="translate(856.591797 0.015625)"/>
      <use xlink:href="#DejaVuSans-69" transform="translate(908.691406 0.015625)"/>
      <use xlink:href="#DejaVuSans-73" transform="translate(936.474609 0.015625)"/>
      <use xlink:href="#DejaVuSans-74" transform="translate(988.574219 0.015625)"/>
      <use xlink:href="#DejaVuSans-65" transform="translate(1027.783203 0.015625)"/>
      <use xlink:href="#DejaVuSans-6e" transform="translate(1089.306641 0.015625)"/>
      <use xlink:href="#DejaVuSans-7a" transform="translate(1152.685547 0.015625)"/>
      <use xlink:href="#DejaVuSans-61" transform="translate(1205.175781 0.015625)"/>
      <use xlink:href="#DejaVuSans-20" transform="translate(1266.455078 0.015625)"/>
      <use xlink:href="#DejaVuSans-Oblique-43" transform="translate(1298.242188 0.015625)"/>
      <use xlink:href="#DejaVuSans-Oblique-44" transform="translate(1368.066406 -16.390625) scale(0.7)"/>
     </g>
    </g>
   </g>
   <g id="matplotlib.axis_2">
    <g id="ytick_1">
     <g id="line2d_19">
      <path d="M 49.89375 301.037813 
L 440.49375 301.037813 
" clip-path="url(#p2982ea3a82)" style="fill: none; stroke: #b0b0b0; stroke-opacity: 0.3; stroke-width: 0.8; stroke-linecap: square"/>
     </g>
     <g id="line2d_20">
      <defs>
       <path id="m9edced4004" d="M 0 0 
L -3.5 0 
" style="stroke: #000000; stroke-width: 0.8"/>
      </defs>
      <g>
       <use xlink:href="#m9edced4004" x="49.89375" y="301.037813" style="stroke: #000000; stroke-width: 0.8"/>
      </g>
     </g>
     <g id="text_11">
      <!-- 0.0 -->
      <g transform="translate(23.81 305.596875) scale(0.12 -0.12)">
       <use xlink:href="#DejaVuSans-30"/>
       <use xlink:href="#DejaVuSans-2e" x="63.623047"/>
       <use xlink:href="#DejaVuSans-30" x="95.410156"/>
      </g>
     </g>
    </g>
    <g id="ytick_2">
     <g id="line2d_21">
      <path d="M 49.89375 266.387812 
L 440.49375 266.387812 
" clip-path="url(#p2982ea3a82)" style="fill: none; stroke: #b0b0b0; stroke-opacity: 0.3; stroke-width: 0.8; stroke-linecap: square"/>
     </g>
     <g id="line2d_22">
      <g>
       <use xlink:href="#m9edced4004" x="49.89375" y="266.387812" style="stroke: #000000; stroke-width: 0.8"/>
      </g>
     </g>
     <g id="text_12">
      <!-- 0.2 -->
      <g transform="translate(23.81 270.946875) scale(0.12 -0.12)">
       <use xlink:href="#DejaVuSans-30"/>
       <use xlink:href="#DejaVuSans-2e" x="63.623047"/>
       <use xlink:href="#DejaVuSans-32" x="95.410156"/>
      </g>
     </g>
    </g>
    <g id="ytick_3">
     <g id="line2d_23">
      <path d="M 49.89375 231.737813 
L 440.49375 231.737813 
" clip-path="url(#p2982ea3a82)" style="fill: none; stroke: #b0b0b0; stroke-opacity: 0.3; stroke-width: 0.8; stroke-linecap: square"/>
     </g>
     <g id="line2d_24">
      <g>
       <use xlink:href="#m9edced4004" x="49.89375" y="231.737813" style="stroke: #000000; stroke-width: 0.8"/>
      </g>
     </g>
     <g id="text_13">
      <!-- 0.4 -->
      <g transform="translate(23.81 236.296875) scale(0.12 -0.12)">
       <use xlink:href="#DejaVuSans-30"/>
       <use xlink:href="#DejaVuSans-2e" x="63.623047"/>
       <use xlink:href="#DejaVuSans-34" x="95.410156"/>
      </g>
     </g>
    </g>
    <g id="ytick_4">
     <g id="line2d_25">
      <path d="M 49.89375 197.087812 
L 440.49375 197.087812 
" clip-path="url(#p2982ea3a82)" style="fill: none; stroke: #b0b0b0; stroke-opacity: 0.3; stroke-width: 0.8; stroke-linecap: square"/>
     </g>
     <g id="line2d_26">
      <g>
       <use xlink:href="#m9edced4004" x="49.89375" y="197.087812" style="stroke: #000000; stroke-width: 0.8"/>
      </g>
     </g>
     <g id="text_14">
      <!-- 0.6 -->
      <g transform="translate(23.81 201.646875) scale(0.12 -0.12)">
       <use xlink:href="#DejaVuSans-30"/>
       <use xlink:href="#DejaVuSans-2e" x="63.623047"/>
       <use xlink:href="#DejaVuSans-36" x="95.410156"/>
      </g>
     </g>
    </g>
    <g id="ytick_5">
     <g id="line2d_27">
      <path d="M 49.89375 162.437813 
L 440.49375 162.437813 
" clip-path="url(#p2982ea3a82)" style="fill: none; stroke: #b0b0b0; stroke-opacity: 0.3; stroke-width: 0.8; stroke-linecap: square"/>
     </g>
     <g id="line2d_28">
      <g>
       <use xlink:href="#m9edced4004" x="49.89375" y="162.437813" style="stroke: #000000; stroke-width: 0.8"/>
      </g>
     </g>
     <g id="text_15">
      <!-- 0.8 -->
      <g transform="translate(23.81 166.996875) scale(0.12 -0.12)">
       <use xlink:href="#DejaVuSans-30"/>
       <use xlink:href="#DejaVuSans-2e" x="63.623047"/>
       <use xlink:href="#DejaVuSans-38" x="95.410156"/>
      </g>
     </g>
    </g>
    <g id="ytick_6">
     <g id="line2d_29">
      <path d="M 49.89375 127.787813 
L 440.49375 127.787813 
" clip-path="url(#p2982ea3a82)" style="fill: none; stroke: #b0b0b0; stroke-opacity: 0.3; stroke-width: 0.8; stroke-linecap: square"/>
     </g>
     <g id="line2d_30">
      <g>
       <use xlink:href="#m9edced4004" x="49.89375" y="127.787813" style="stroke: #000000; stroke-width: 0.8"/>
      </g>
     </g>
     <g id="text_16">
      <!-- 1.0 -->
      <g transform="translate(23.81 132.346875) scale(0.12 -0.12)">
       <use xlink:href="#DejaVuSans-31"/>
       <use xlink:href="#DejaVuSans-2e" x="63.623047"/>
       <use xlink:href="#DejaVuSans-30" x="95.410156"/>
      </g>
     </g>
    </g>
    <g id="ytick_7">
     <g id="line2d_31">
      <path d="M 49.89375 93.137812 
L 440.49375 93.137812 
" clip-path="url(#p2982ea3a82)" style="fill: none; stroke: #b0b0b0; stroke-opacity: 0.3; stroke-width: 0.8; stroke-linecap: square"/>
     </g>
     <g id="line2d_32">
      <g>
       <use xlink:href="#m9edced4004" x="49.89375" y="93.137812" style="stroke: #000000; stroke-width: 0.8"/>
      </g>
     </g>
     <g id="text_17">
      <!-- 1.2 -->
      <g transform="translate(23.81 97.696875) scale(0.12 -0.12)">
       <use xlink:href="#DejaVuSans-31"/>
       <use xlink:href="#DejaVuSans-2e" x="63.623047"/>
       <use xlink:href="#DejaVuSans-32" x="95.410156"/>
      </g>
     </g>
    </g>
    <g id="ytick_8">
     <g id="line2d_33">
      <path d="M 49.89375 58.487812 
L 440.49375 58.487812 
" clip-path="url(#p2982ea3a82)" style="fill: none; stroke: #b0b0b0; stroke-opacity: 0.3; stroke-width: 0.8; stroke-linecap: square"/>
     </g>
     <g id="line2d_34">
      <g>
       <use xlink:href="#m9edced4004" x="49.89375" y="58.487812" style="stroke: #000000; stroke-width: 0.8"/>
      </g>
     </g>
     <g id="text_18">
      <!-- 1.4 -->
      <g transform="translate(23.81 63.046875) scale(0.12 -0.12)">
       <use xlink:href="#DejaVuSans-31"/>
       <use xlink:href="#DejaVuSans-2e" x="63.623047"/>
       <use xlink:href="#DejaVuSans-34" x="95.410156"/>
      </g>
     </g>
    </g>
    <g id="ytick_9">
     <g id="line2d_35">
      <path d="M 49.89375 23.837812 
L 440.49375 23.837812 
" clip-path="url(#p2982ea3a82)" style="fill: none; stroke: #b0b0b0; stroke-opacity: 0.3; stroke-width: 0.8; stroke-linecap: square"/>
     </g>
     <g id="line2d_36">
      <g>
       <use xlink:href="#m9edced4004" x="49.89375" y="23.837812" style="stroke: #000000; stroke-width: 0.8"/>
      </g>
     </g>
     <g id="text_19">
      <!-- 1.6 -->
      <g transform="translate(23.81 28.396875) scale(0.12 -0.12)">
       <use xlink:href="#DejaVuSans-31"/>
       <use xlink:href="#DejaVuSans-2e" x="63.623047"/>
       <use xlink:href="#DejaVuSans-36" x="95.410156"/>
      </g>
     </g>
    </g>
    <g id="text_20">
     <!-- Coefficiente di portanza $C_L$ -->
     <g transform="translate(17.08 249.602813) rotate(-90) scale(0.13 -0.13)">
      <defs>
       <path id="DejaVuSans-70" d="M 1159 525 
L 1159 -1331 
L 581 -1331 
L 581 3500 
L 1159 3500 
L 1159 2969 
Q 1341 3281 1617 3432 
Q 1894 3584 2278 3584 
Q 2916 3584 3314 3078 
Q 3713 2572 3713 1747 
Q 3713 922 3314 415 
Q 2916 -91 2278 -91 
Q 1894 -91 1617 61 
Q 1341 213 1159 525 
z
M 3116 1747 
Q 3116 2381 2855 2742 
Q 2594 3103 2138 3103 
Q 1681 3103 1420 2742 
Q 1159 2381 1159 1747 
Q 1159 1113 1420 752 
Q 1681 391 2138 391 
Q 2594 391 2855 752 
Q 3116 1113 3116 1747 
z
" transform="scale(0.015625)"/>
       <path id="DejaVuSans-Oblique-4c" d="M 1075 4666 
L 1709 4666 
L 909 525 
L 3181 525 
L 3078 0 
L 172 0 
L 1075 4666 
z
" transform="scale(0.015625)"/>
      </defs>
      <use xlink:href="#DejaVuSans-43" transform="translate(0 0.015625)"/>
      <use xlink:href="#DejaVuSans-6f" transform="translate(69.824219 0.015625)"/>
      <use xlink:href="#DejaVuSans-65" transform="translate(131.005859 0.015625)"/>
      <use xlink:href="#DejaVuSans-66" transform="translate(192.529297 0.015625)"/>
      <use xlink:href="#DejaVuSans-66" transform="translate(227.734375 0.015625)"/>
      <use xlink:href="#DejaVuSans-69" transform="translate(262.939453 0.015625)"/>
      <use xlink:href="#DejaVuSans-63" transform="translate(290.722656 0.015625)"/>
      <use xlink:href="#DejaVuSans-69" transform="translate(345.703125 0.015625)"/>
      <use xlink:href="#DejaVuSans-65" transform="translate(373.486328 0.015625)"/>
      <use xlink:href="#DejaVuSans-6e" transform="translate(435.009766 0.015625)"/>
      <use xlink:href="#DejaVuSans-74" transform="translate(498.388672 0.015625)"/>
      <use xlink:href="#DejaVuSans-65" transform="translate(537.597656 0.015625)"/>
      <use xlink:href="#DejaVuSans-20" transform="translate(599.121094 0.015625)"/>
      <use xlink:href="#DejaVuSans-64" transform="translate(630.908203 0.015625)"/>
      <use xlink:href="#DejaVuSans-69" transform="translate(694.384766 0.015625)"/>
      <use xlink:href="#DejaVuSans-20" transform="translate(722.167969 0.015625)"/>
      <use xlink:href="#DejaVuSans-70" transform="translate(753.955078 0.015625)"/>
      <use xlink:href="#DejaVuSans-6f" transform="translate(817.431641 0.015625)"/>
      <use xlink:href="#DejaVuSans-72" transform="translate(878.613281 0.015625)"/>
      <use xlink:href="#DejaVuSans-74" transform="translate(919.726562 0.015625)"/>
      <use xlink:href="#DejaVuSans-61" transform="translate(958.935547 0.015625)"/>
      <use xlink:href="#DejaVuSans-6e" transform="translate(1020.214844 0.015625)"/>
      <use xlink:href="#DejaVuSans-7a" transform="translate(1083.59375 0.015625)"/>
      <use xlink:href="#DejaVuSans-61" transform="translate(1136.083984 0.015625)"/>
      <use xlink:href="#DejaVuSans-20" transform="translate(1197.363281 0.015625)"/>
      <use xlink:href="#DejaVuSans-Oblique-43" transform="translate(1229.150391 0.015625)"/>
      <use xlink:href="#DejaVuSans-Oblique-4c" transform="translate(1298.974609 -16.390625) scale(0.7)"/>
     </g>
    </g>
   </g>
   <g id="line2d_37">
    <path d="M 110.925 301.037813 
L 111.023209 295.359384 
L 111.317838 289.680956 
L 111.808885 284.002528 
L 112.496351 278.3241 
L 113.380236 272.645672 
L 114.630903 266.15604 
L 116.138117 259.666408 
L 117.901879 253.176776 
L 119.922187 246.687144 
L 122.199043 240.197511 
L 124.732445 233.707879 
L 127.522395 227.218247 
L 130.568892 220.728615 
L 133.871936 214.238983 
L 137.431527 207.749351 
L 141.247666 201.259719 
L 145.320351 194.770087 
L 149.649583 188.280455 
L 154.235363 181.790823 
L 159.077689 175.30119 
L 164.176563 168.811558 
L 169.531984 162.321926 
L 175.863487 155.02109 
L 182.519681 147.720254 
L 189.500569 140.419418 
L 196.806148 133.118582 
L 204.436421 125.817746 
L 212.391385 118.516909 
L 220.671042 111.216073 
L 229.275392 103.915237 
L 238.204434 96.614401 
L 247.458168 89.313565 
L 258.120907 81.201525 
L 269.184501 73.089485 
L 280.64895 64.977445 
L 290.109125 58.487813 
L 290.109125 58.487813 
" clip-path="url(#p2982ea3a82)" style="fill: none; stroke: #1976d2; stroke-opacity: 0.7; stroke-width: 2.5; stroke-linecap: square"/>
   </g>
   <g id="line2d_38">
    <path d="M 49.89375 301.037813 
L 56.370536 293.49967 
L 62.847321 285.961527 
L 69.324107 278.423384 
L 75.800893 270.885241 
L 82.277679 263.347098 
L 88.754464 255.808955 
L 95.23125 248.270813 
L 101.708036 240.73267 
L 108.184821 233.194527 
L 114.661607 225.656384 
L 121.138393 218.118241 
L 127.615179 210.580098 
L 134.091964 203.041955 
L 140.56875 195.503813 
L 147.045536 187.96567 
L 153.522321 180.427527 
L 159.999107 172.889384 
L 166.475893 165.351241 
L 172.952679 157.813098 
L 179.429464 150.274955 
L 185.90625 142.736813 
L 192.383036 135.19867 
L 198.859821 127.660527 
L 205.336607 120.122384 
L 211.813393 112.584241 
L 218.290179 105.046098 
L 224.766964 97.507955 
L 231.24375 89.969813 
L 237.720536 82.43167 
L 244.197321 74.893527 
L 250.674107 67.355384 
L 257.150893 59.817241 
L 263.627679 52.279098 
L 270.104464 44.740955 
L 276.58125 37.202812 
L 283.058036 29.66467 
L 289.534821 22.126527 
L 296.011607 14.588384 
L 302.488393 7.050241 
L 308.965179 -0.487902 
L 309.405174 -1 
" clip-path="url(#p2982ea3a82)" style="fill: none; stroke-dasharray: 5.92,2.56; stroke-dashoffset: 0; stroke: #d32f2f; stroke-width: 1.6"/>
   </g>
   <g id="patch_3">
    <path d="M 49.89375 301.037813 
L 49.89375 23.837812 
" style="fill: none; stroke: #000000; stroke-width: 0.8; stroke-linejoin: miter; stroke-linecap: square"/>
   </g>
   <g id="patch_4">
    <path d="M 49.89375 301.037813 
L 440.49375 301.037813 
" style="fill: none; stroke: #000000; stroke-width: 0.8; stroke-linejoin: miter; stroke-linecap: square"/>
   </g>
   <g id="text_21">
    <!-- E=14.6 -->
    <g transform="translate(141.780118 209.412813) scale(0.1 -0.1)">
     <defs>
      <path id="DejaVuSans-45" d="M 628 4666 
L 3578 4666 
L 3578 4134 
L 1259 4134 
L 1259 2753 
L 3481 2753 
L 3481 2222 
L 1259 2222 
L 1259 531 
L 3634 531 
L 3634 0 
L 628 0 
L 628 4666 
z
" transform="scale(0.015625)"/>
      <path id="DejaVuSans-3d" d="M 678 2906 
L 4684 2906 
L 4684 2381 
L 678 2381 
L 678 2906 
z
M 678 1631 
L 4684 1631 
L 4684 1100 
L 678 1100 
L 678 1631 
z
" transform="scale(0.015625)"/>
     </defs>
     <use xlink:href="#DejaVuSans-45"/>
     <use xlink:href="#DejaVuSans-3d" x="63.183594"/>
     <use xlink:href="#DejaVuSans-31" x="146.972656"/>
     <use xlink:href="#DejaVuSans-34" x="210.595703"/>
     <use xlink:href="#DejaVuSans-2e" x="274.21875"/>
     <use xlink:href="#DejaVuSans-36" x="306.005859"/>
    </g>
   </g>
   <g id="text_22">
    <!-- E=16.3 -->
    <g transform="translate(180.396125 153.972812) scale(0.1 -0.1)">
     <defs>
      <path id="DejaVuSans-33" d="M 2597 2516 
Q 3050 2419 3304 2112 
Q 3559 1806 3559 1356 
Q 3559 666 3084 287 
Q 2609 -91 1734 -91 
Q 1441 -91 1130 -33 
Q 819 25 488 141 
L 488 750 
Q 750 597 1062 519 
Q 1375 441 1716 441 
Q 2309 441 2620 675 
Q 2931 909 2931 1356 
Q 2931 1769 2642 2001 
Q 2353 2234 1838 2234 
L 1294 2234 
L 1294 2753 
L 1863 2753 
Q 2328 2753 2575 2939 
Q 2822 3125 2822 3475 
Q 2822 3834 2567 4026 
Q 2313 4219 1838 4219 
Q 1578 4219 1281 4162 
Q 984 4106 628 3988 
L 628 4550 
Q 988 4650 1302 4700 
Q 1616 4750 1894 4750 
Q 2613 4750 3031 4423 
Q 3450 4097 3450 3541 
Q 3450 3153 3228 2886 
Q 3006 2619 2597 2516 
z
" transform="scale(0.015625)"/>
     </defs>
     <use xlink:href="#DejaVuSans-45"/>
     <use xlink:href="#DejaVuSans-3d" x="63.183594"/>
     <use xlink:href="#DejaVuSans-31" x="146.972656"/>
     <use xlink:href="#DejaVuSans-36" x="210.595703"/>
     <use xlink:href="#DejaVuSans-2e" x="274.21875"/>
     <use xlink:href="#DejaVuSans-33" x="306.005859"/>
    </g>
   </g>
   <g id="text_23">
    <!-- E=14.2 -->
    <g transform="translate(298.109125 53.487813) scale(0.1 -0.1)">
     <use xlink:href="#DejaVuSans-45"/>
     <use xlink:href="#DejaVuSans-3d" x="63.183594"/>
     <use xlink:href="#DejaVuSans-31" x="146.972656"/>
     <use xlink:href="#DejaVuSans-34" x="210.595703"/>
     <use xlink:href="#DejaVuSans-2e" x="274.21875"/>
     <use xlink:href="#DejaVuSans-32" x="306.005859"/>
    </g>
   </g>
   <g id="patch_5">
    <path d="M 216.832913 232.762065 
Q 176.328819 223.803309 136.916374 215.086006 
" style="fill: none; stroke: #e65100; stroke-linecap: round"/>
    <path d="M 140.390058 217.902657 
L 136.916374 215.086006 
L 141.253905 213.99705 
" style="fill: none; stroke: #e65100; stroke-linecap: round"/>
   </g>
   <g id="text_24">
    <!-- Crociera 737 -->
    <g style="fill: #e65100" transform="translate(220.78125 237.865) scale(0.1 -0.1)">
     <defs>
      <path id="DejaVuSans-37" d="M 525 4666 
L 3525 4666 
L 3525 4397 
L 1831 0 
L 1172 0 
L 2766 4134 
L 525 4134 
L 525 4666 
z
" transform="scale(0.015625)"/>
     </defs>
     <use xlink:href="#DejaVuSans-43"/>
     <use xlink:href="#DejaVuSans-72" x="69.824219"/>
     <use xlink:href="#DejaVuSans-6f" x="108.6875"/>
     <use xlink:href="#DejaVuSans-63" x="169.869141"/>
     <use xlink:href="#DejaVuSans-69" x="224.849609"/>
     <use xlink:href="#DejaVuSans-65" x="252.632812"/>
     <use xlink:href="#DejaVuSans-72" x="314.15625"/>
     <use xlink:href="#DejaVuSans-61" x="355.269531"/>
     <use xlink:href="#DejaVuSans-20" x="416.548828"/>
     <use xlink:href="#DejaVuSans-37" x="448.335938"/>
     <use xlink:href="#DejaVuSans-33" x="511.958984"/>
     <use xlink:href="#DejaVuSans-37" x="575.582031"/>
    </g>
    <!-- (M=0,78) -->
    <g style="fill: #e65100" transform="translate(220.78125 249.062813) scale(0.1 -0.1)">
     <defs>
      <path id="DejaVuSans-28" d="M 1984 4856 
Q 1566 4138 1362 3434 
Q 1159 2731 1159 2009 
Q 1159 1288 1364 580 
Q 1569 -128 1984 -844 
L 1484 -844 
Q 1016 -109 783 600 
Q 550 1309 550 2009 
Q 550 2706 781 3412 
Q 1013 4119 1484 4856 
L 1984 4856 
z
" transform="scale(0.015625)"/>
      <path id="DejaVuSans-4d" d="M 628 4666 
L 1569 4666 
L 2759 1491 
L 3956 4666 
L 4897 4666 
L 4897 0 
L 4281 0 
L 4281 4097 
L 3078 897 
L 2444 897 
L 1241 4097 
L 1241 0 
L 628 0 
L 628 4666 
z
" transform="scale(0.015625)"/>
      <path id="DejaVuSans-2c" d="M 750 794 
L 1409 794 
L 1409 256 
L 897 -744 
L 494 -744 
L 750 256 
L 750 794 
z
" transform="scale(0.015625)"/>
      <path id="DejaVuSans-29" d="M 513 4856 
L 1013 4856 
Q 1481 4119 1714 3412 
Q 1947 2706 1947 2009 
Q 1947 1309 1714 600 
Q 1481 -109 1013 -844 
L 513 -844 
Q 928 -128 1133 580 
Q 1338 1288 1338 2009 
Q 1338 2731 1133 3434 
Q 928 4138 513 4856 
z
" transform="scale(0.015625)"/>
     </defs>
     <use xlink:href="#DejaVuSans-28"/>
     <use xlink:href="#DejaVuSans-4d" x="39.013672"/>
     <use xlink:href="#DejaVuSans-3d" x="125.292969"/>
     <use xlink:href="#DejaVuSans-30" x="209.082031"/>
     <use xlink:href="#DejaVuSans-2c" x="272.705078"/>
     <use xlink:href="#DejaVuSans-37" x="304.492188"/>
     <use xlink:href="#DejaVuSans-38" x="368.115234"/>
     <use xlink:href="#DejaVuSans-29" x="431.738281"/>
    </g>
   </g>
   <g id="text_25">
    <!-- Polare del Boeing 737-800 (modello del liceo) -->
    <g transform="translate(85.660469 17.837812) scale(0.14 -0.14)">
     <defs>
      <path id="DejaVuSans-50" d="M 1259 4147 
L 1259 2394 
L 2053 2394 
Q 2494 2394 2734 2622 
Q 2975 2850 2975 3272 
Q 2975 3691 2734 3919 
Q 2494 4147 2053 4147 
L 1259 4147 
z
M 628 4666 
L 2053 4666 
Q 2838 4666 3239 4311 
Q 3641 3956 3641 3272 
Q 3641 2581 3239 2228 
Q 2838 1875 2053 1875 
L 1259 1875 
L 1259 0 
L 628 0 
L 628 4666 
z
" transform="scale(0.015625)"/>
      <path id="DejaVuSans-6c" d="M 603 4863 
L 1178 4863 
L 1178 0 
L 603 0 
L 603 4863 
z
" transform="scale(0.015625)"/>
      <path id="DejaVuSans-42" d="M 1259 2228 
L 1259 519 
L 2272 519 
Q 2781 519 3026 730 
Q 3272 941 3272 1375 
Q 3272 1813 3026 2020 
Q 2781 2228 2272 2228 
L 1259 2228 
z
M 1259 4147 
L 1259 2741 
L 2194 2741 
Q 2656 2741 2882 2914 
Q 3109 3088 3109 3444 
Q 3109 3797 2882 3972 
Q 2656 4147 2194 4147 
L 1259 4147 
z
M 628 4666 
L 2241 4666 
Q 2963 4666 3353 4366 
Q 3744 4066 3744 3513 
Q 3744 3084 3544 2831 
Q 3344 2578 2956 2516 
Q 3422 2416 3680 2098 
Q 3938 1781 3938 1306 
Q 3938 681 3513 340 
Q 3088 0 2303 0 
L 628 0 
L 628 4666 
z
" transform="scale(0.015625)"/>
      <path id="DejaVuSans-67" d="M 2906 1791 
Q 2906 2416 2648 2759 
Q 2391 3103 1925 3103 
Q 1463 3103 1205 2759 
Q 947 2416 947 1791 
Q 947 1169 1205 825 
Q 1463 481 1925 481 
Q 2391 481 2648 825 
Q 2906 1169 2906 1791 
z
M 3481 434 
Q 3481 -459 3084 -895 
Q 2688 -1331 1869 -1331 
Q 1566 -1331 1297 -1286 
Q 1028 -1241 775 -1147 
L 775 -588 
Q 1028 -725 1275 -790 
Q 1522 -856 1778 -856 
Q 2344 -856 2625 -561 
Q 2906 -266 2906 331 
L 2906 616 
Q 2728 306 2450 153 
Q 2172 0 1784 0 
Q 1141 0 747 490 
Q 353 981 353 1791 
Q 353 2603 747 3093 
Q 1141 3584 1784 3584 
Q 2172 3584 2450 3431 
Q 2728 3278 2906 2969 
L 2906 3500 
L 3481 3500 
L 3481 434 
z
" transform="scale(0.015625)"/>
      <path id="DejaVuSans-2d" d="M 313 2009 
L 1997 2009 
L 1997 1497 
L 313 1497 
L 313 2009 
z
" transform="scale(0.015625)"/>
      <path id="DejaVuSans-6d" d="M 3328 2828 
Q 3544 3216 3844 3400 
Q 4144 3584 4550 3584 
Q 5097 3584 5394 3201 
Q 5691 2819 5691 2113 
L 5691 0 
L 5113 0 
L 5113 2094 
Q 5113 2597 4934 2840 
Q 4756 3084 4391 3084 
Q 3944 3084 3684 2787 
Q 3425 2491 3425 1978 
L 3425 0 
L 2847 0 
L 2847 2094 
Q 2847 2600 2669 2842 
Q 2491 3084 2119 3084 
Q 1678 3084 1418 2786 
Q 1159 2488 1159 1978 
L 1159 0 
L 581 0 
L 581 3500 
L 1159 3500 
L 1159 2956 
Q 1356 3278 1631 3431 
Q 1906 3584 2284 3584 
Q 2666 3584 2933 3390 
Q 3200 3197 3328 2828 
z
" transform="scale(0.015625)"/>
     </defs>
     <use xlink:href="#DejaVuSans-50"/>
     <use xlink:href="#DejaVuSans-6f" x="56.677734"/>
     <use xlink:href="#DejaVuSans-6c" x="117.859375"/>
     <use xlink:href="#DejaVuSans-61" x="145.642578"/>
     <use xlink:href="#DejaVuSans-72" x="206.921875"/>
     <use xlink:href="#DejaVuSans-65" x="245.785156"/>
     <use xlink:href="#DejaVuSans-20" x="307.308594"/>
     <use xlink:href="#DejaVuSans-64" x="339.095703"/>
     <use xlink:href="#DejaVuSans-65" x="402.572266"/>
     <use xlink:href="#DejaVuSans-6c" x="464.095703"/>
     <use xlink:href="#DejaVuSans-20" x="491.878906"/>
     <use xlink:href="#DejaVuSans-42" x="523.666016"/>
     <use xlink:href="#DejaVuSans-6f" x="592.269531"/>
     <use xlink:href="#DejaVuSans-65" x="653.451172"/>
     <use xlink:href="#DejaVuSans-69" x="714.974609"/>
     <use xlink:href="#DejaVuSans-6e" x="742.757812"/>
     <use xlink:href="#DejaVuSans-67" x="806.136719"/>
     <use xlink:href="#DejaVuSans-20" x="869.613281"/>
     <use xlink:href="#DejaVuSans-37" x="901.400391"/>
     <use xlink:href="#DejaVuSans-33" x="965.023438"/>
     <use xlink:href="#DejaVuSans-37" x="1028.646484"/>
     <use xlink:href="#DejaVuSans-2d" x="1092.269531"/>
     <use xlink:href="#DejaVuSans-38" x="1128.353516"/>
     <use xlink:href="#DejaVuSans-30" x="1191.976562"/>
     <use xlink:href="#DejaVuSans-30" x="1255.599609"/>
     <use xlink:href="#DejaVuSans-20" x="1319.222656"/>
     <use xlink:href="#DejaVuSans-28" x="1351.009766"/>
     <use xlink:href="#DejaVuSans-6d" x="1390.023438"/>
     <use xlink:href="#DejaVuSans-6f" x="1487.435547"/>
     <use xlink:href="#DejaVuSans-64" x="1548.617188"/>
     <use xlink:href="#DejaVuSans-65" x="1612.09375"/>
     <use xlink:href="#DejaVuSans-6c" x="1673.617188"/>
     <use xlink:href="#DejaVuSans-6c" x="1701.400391"/>
     <use xlink:href="#DejaVuSans-6f" x="1729.183594"/>
     <use xlink:href="#DejaVuSans-20" x="1790.365234"/>
     <use xlink:href="#DejaVuSans-64" x="1822.152344"/>
     <use xlink:href="#DejaVuSans-65" x="1885.628906"/>
     <use xlink:href="#DejaVuSans-6c" x="1947.152344"/>
     <use xlink:href="#DejaVuSans-20" x="1974.935547"/>
     <use xlink:href="#DejaVuSans-6c" x="2006.722656"/>
     <use xlink:href="#DejaVuSans-69" x="2034.505859"/>
     <use xlink:href="#DejaVuSans-63" x="2062.289062"/>
     <use xlink:href="#DejaVuSans-65" x="2117.269531"/>
     <use xlink:href="#DejaVuSans-6f" x="2178.792969"/>
     <use xlink:href="#DejaVuSans-29" x="2239.974609"/>
    </g>
   </g>
   <g id="PathCollection_1">
    <defs>
     <path id="m4f298b3de2" d="M 0 4.1833 
C 1.109424 4.1833 2.173559 3.742521 2.95804 2.95804 
C 3.742521 2.173559 4.1833 1.109424 4.1833 0 
C 4.1833 -1.109424 3.742521 -2.173559 2.95804 -2.95804 
C 2.173559 -3.742521 1.109424 -4.1833 0 -4.1833 
C -1.109424 -4.1833 -2.173559 -3.742521 -2.95804 -2.95804 
C -3.742521 -2.173559 -4.1833 -1.109424 -4.1833 0 
C -4.1833 1.109424 -3.742521 2.173559 -2.95804 2.95804 
C -2.173559 3.742521 -1.109424 4.1833 0 4.1833 
z
" style="stroke: #000000; stroke-width: 1.2"/>
    </defs>
    <g clip-path="url(#p2982ea3a82)">
     <use xlink:href="#m4f298b3de2" x="111.839205" y="283.712813" style="fill: #1976d2; stroke: #000000; stroke-width: 1.2"/>
     <use xlink:href="#m4f298b3de2" x="114.581819" y="266.387812" style="fill: #1976d2; stroke: #000000; stroke-width: 1.2"/>
     <use xlink:href="#m4f298b3de2" x="119.152842" y="249.062813" style="fill: #1976d2; stroke: #000000; stroke-width: 1.2"/>
     <use xlink:href="#m4f298b3de2" x="125.552275" y="231.737813" style="fill: #1976d2; stroke: #000000; stroke-width: 1.2"/>
     <use xlink:href="#m4f298b3de2" x="133.780118" y="214.412813" style="fill: #1976d2; stroke: #000000; stroke-width: 1.2"/>
     <use xlink:href="#m4f298b3de2" x="143.83637" y="197.087813" style="fill: #1976d2; stroke: #000000; stroke-width: 1.2"/>
     <use xlink:href="#m4f298b3de2" x="172.396125" y="158.972813" style="fill: #1976d2; stroke: #000000; stroke-width: 1.2"/>
     <use xlink:href="#m4f298b3de2" x="202.345472" y="127.787813" style="fill: #1976d2; stroke: #000000; stroke-width: 1.2"/>
     <use xlink:href="#m4f298b3de2" x="242.570479" y="93.137812" style="fill: #1976d2; stroke: #000000; stroke-width: 1.2"/>
     <use xlink:href="#m4f298b3de2" x="290.109125" y="58.487813" style="fill: #1976d2; stroke: #000000; stroke-width: 1.2"/>
    </g>
   </g>
   <g id="legend_1">
    <g id="patch_6">
     <path d="M 56.19375 61.457812 
L 205.68375 61.457812 
Q 207.48375 61.457812 207.48375 59.657812 
L 207.48375 30.137812 
Q 207.48375 28.337812 205.68375 28.337812 
L 56.19375 28.337812 
Q 54.39375 28.337812 54.39375 30.137812 
L 54.39375 59.657812 
Q 54.39375 61.457812 56.19375 61.457812 
z
" style="fill: #ffffff; opacity: 0.8; stroke: #cccccc; stroke-linejoin: miter"/>
    </g>
    <g id="line2d_39">
     <path d="M 57.99375 36.977813 
L 66.99375 36.977813 
L 75.99375 36.977813 
" style="fill: none; stroke: #1976d2; stroke-opacity: 0.7; stroke-width: 2.5; stroke-linecap: square"/>
    </g>
    <g id="text_26">
     <!-- Polare $C_D = C_{D,0} + C_L^2/(πλe)$ -->
     <g transform="translate(83.19375 40.127813) scale(0.09 -0.09)">
      <defs>
       <path id="DejaVuSans-2b" d="M 2944 4013 
L 2944 2272 
L 4684 2272 
L 4684 1741 
L 2944 1741 
L 2944 0 
L 2419 0 
L 2419 1741 
L 678 1741 
L 678 2272 
L 2419 2272 
L 2419 4013 
L 2944 4013 
z
" transform="scale(0.015625)"/>
       <path id="DejaVuSans-2f" d="M 1625 4666 
L 2156 4666 
L 531 -594 
L 0 -594 
L 1625 4666 
z
" transform="scale(0.015625)"/>
       <path id="DejaVuSans-Oblique-3c0" d="M 584 3500 
L 3938 3500 
L 3825 2925 
L 3384 2925 
L 2966 775 
Q 2922 550 2981 450 
Q 3038 353 3209 353 
Q 3256 353 3325 363 
Q 3397 369 3419 372 
L 3338 -44 
Q 3222 -84 3103 -103 
Q 2981 -122 2866 -122 
Q 2491 -122 2388 81 
Q 2284 288 2391 838 
L 2797 2925 
L 1506 2925 
L 938 0 
L 350 0 
L 919 2925 
L 472 2925 
L 584 3500 
z
" transform="scale(0.015625)"/>
       <path id="DejaVuSans-Oblique-3bb" d="M 2350 4316 
L 3125 0 
L 2516 0 
L 2038 2588 
L 328 0 
L -281 0 
L 1903 3356 
L 1794 3975 
Q 1725 4369 1391 4369 
L 1091 4369 
L 1184 4863 
L 1550 4856 
Q 2253 4847 2350 4316 
z
" transform="scale(0.015625)"/>
       <path id="DejaVuSans-Oblique-65" d="M 3078 2063 
Q 3088 2113 3092 2166 
Q 3097 2219 3097 2272 
Q 3097 2653 2873 2875 
Q 2650 3097 2266 3097 
Q 1838 3097 1509 2826 
Q 1181 2556 1013 2059 
L 3078 2063 
z
M 3578 1613 
L 903 1613 
Q 884 1494 878 1425 
Q 872 1356 872 1306 
Q 872 872 1139 634 
Q 1406 397 1894 397 
Q 2269 397 2603 481 
Q 2938 566 3225 728 
L 3116 159 
Q 2806 34 2476 -28 
Q 2147 -91 1806 -91 
Q 1078 -91 686 257 
Q 294 606 294 1247 
Q 294 1794 489 2264 
Q 684 2734 1063 3103 
Q 1306 3334 1642 3459 
Q 1978 3584 2356 3584 
Q 2950 3584 3301 3228 
Q 3653 2872 3653 2272 
Q 3653 2128 3634 1964 
Q 3616 1800 3578 1613 
z
" transform="scale(0.015625)"/>
      </defs>
      <use xlink:href="#DejaVuSans-50" transform="translate(0 0.765625)"/>
      <use xlink:href="#DejaVuSans-6f" transform="translate(60.302734 0.765625)"/>
      <use xlink:href="#DejaVuSans-6c" transform="translate(121.484375 0.765625)"/>
      <use xlink:href="#DejaVuSans-61" transform="translate(149.267578 0.765625)"/>
      <use xlink:href="#DejaVuSans-72" transform="translate(210.546875 0.765625)"/>
      <use xlink:href="#DejaVuSans-65" transform="translate(251.660156 0.765625)"/>
      <use xlink:href="#DejaVuSans-20" transform="translate(313.183594 0.765625)"/>
      <use xlink:href="#DejaVuSans-Oblique-43" transform="translate(344.970703 0.765625)"/>
      <use xlink:href="#DejaVuSans-Oblique-44" transform="translate(414.794922 -15.640625) scale(0.7)"/>
      <use xlink:href="#DejaVuSans-3d" transform="translate(490.913086 0.765625)"/>
      <use xlink:href="#DejaVuSans-Oblique-43" transform="translate(594.18457 0.765625)"/>
      <use xlink:href="#DejaVuSans-Oblique-44" transform="translate(664.008789 -15.640625) scale(0.7)"/>
      <use xlink:href="#DejaVuSans-2c" transform="translate(717.910156 -15.640625) scale(0.7)"/>
      <use xlink:href="#DejaVuSans-30" transform="translate(753.798828 -15.640625) scale(0.7)"/>
      <use xlink:href="#DejaVuSans-2b" transform="translate(820.551758 0.765625)"/>
      <use xlink:href="#DejaVuSans-Oblique-43" transform="translate(923.823242 0.765625)"/>
      <use xlink:href="#DejaVuSans-32" transform="translate(1000.847982 39.046875) scale(0.7)"/>
      <use xlink:href="#DejaVuSans-Oblique-4c" transform="translate(993.647461 -26.578125) scale(0.7)"/>
      <use xlink:href="#DejaVuSans-2f" transform="translate(1048.11849 0.765625)"/>
      <use xlink:href="#DejaVuSans-28" transform="translate(1081.809896 0.765625)"/>
      <use xlink:href="#DejaVuSans-Oblique-3c0" transform="translate(1120.823568 0.765625)"/>
      <use xlink:href="#DejaVuSans-Oblique-3bb" transform="translate(1181.028646 0.765625)"/>
      <use xlink:href="#DejaVuSans-Oblique-65" transform="translate(1240.208333 0.765625)"/>
      <use xlink:href="#DejaVuSans-29" transform="translate(1301.731771 0.765625)"/>
     </g>
    </g>
    <g id="line2d_40">
     <path d="M 57.99375 52.187812 
L 66.99375 52.187812 
L 75.99375 52.187812 
" style="fill: none; stroke-dasharray: 5.92,2.56; stroke-dashoffset: 0; stroke: #d32f2f; stroke-width: 1.6"/>
    </g>
    <g id="text_27">
     <!-- $E_{max}$ = 16.4 (a $C_L^*$ = 0.82) -->
     <g transform="translate(83.19375 55.337812) scale(0.09 -0.09)">
      <defs>
       <path id="DejaVuSans-Oblique-45" d="M 1081 4666 
L 4031 4666 
L 3928 4134 
L 1606 4134 
L 1338 2753 
L 3566 2753 
L 3463 2222 
L 1234 2222 
L 909 531 
L 3284 531 
L 3181 0 
L 172 0 
L 1081 4666 
z
" transform="scale(0.015625)"/>
       <path id="DejaVuSans-Oblique-6d" d="M 5747 2113 
L 5338 0 
L 4763 0 
L 5166 2094 
Q 5191 2228 5203 2325 
Q 5216 2422 5216 2491 
Q 5216 2772 5059 2928 
Q 4903 3084 4622 3084 
Q 4203 3084 3875 2770 
Q 3547 2456 3450 1953 
L 3066 0 
L 2491 0 
L 2900 2094 
Q 2925 2209 2937 2307 
Q 2950 2406 2950 2484 
Q 2950 2769 2794 2926 
Q 2638 3084 2363 3084 
Q 1938 3084 1609 2770 
Q 1281 2456 1184 1953 
L 800 0 
L 225 0 
L 909 3500 
L 1484 3500 
L 1375 2956 
Q 1609 3263 1923 3423 
Q 2238 3584 2597 3584 
Q 2978 3584 3223 3384 
Q 3469 3184 3519 2828 
Q 3781 3197 4126 3390 
Q 4472 3584 4856 3584 
Q 5306 3584 5551 3325 
Q 5797 3066 5797 2591 
Q 5797 2488 5784 2364 
Q 5772 2241 5747 2113 
z
" transform="scale(0.015625)"/>
       <path id="DejaVuSans-Oblique-61" d="M 3438 1997 
L 3047 0 
L 2472 0 
L 2578 531 
Q 2325 219 2001 64 
Q 1678 -91 1281 -91 
Q 834 -91 548 182 
Q 263 456 263 884 
Q 263 1497 752 1853 
Q 1241 2209 2100 2209 
L 2900 2209 
L 2931 2363 
Q 2938 2388 2941 2417 
Q 2944 2447 2944 2509 
Q 2944 2788 2717 2942 
Q 2491 3097 2081 3097 
Q 1800 3097 1504 3025 
Q 1209 2953 897 2809 
L 997 3341 
Q 1322 3463 1633 3523 
Q 1944 3584 2234 3584 
Q 2853 3584 3176 3315 
Q 3500 3047 3500 2534 
Q 3500 2431 3484 2292 
Q 3469 2153 3438 1997 
z
M 2816 1759 
L 2241 1759 
Q 1534 1759 1195 1570 
Q 856 1381 856 984 
Q 856 709 1029 553 
Q 1203 397 1509 397 
Q 1978 397 2328 733 
Q 2678 1069 2791 1631 
L 2816 1759 
z
" transform="scale(0.015625)"/>
       <path id="DejaVuSans-Oblique-78" d="M 3841 3500 
L 2234 1784 
L 3219 0 
L 2559 0 
L 1819 1388 
L 531 0 
L -166 0 
L 1556 1844 
L 641 3500 
L 1300 3500 
L 1972 2234 
L 3144 3500 
L 3841 3500 
z
" transform="scale(0.015625)"/>
       <path id="DejaVuSans-2a" d="M 3009 3897 
L 1888 3291 
L 3009 2681 
L 2828 2375 
L 1778 3009 
L 1778 1831 
L 1422 1831 
L 1422 3009 
L 372 2375 
L 191 2681 
L 1313 3291 
L 191 3897 
L 372 4206 
L 1422 3572 
L 1422 4750 
L 1778 4750 
L 1778 3572 
L 2828 4206 
L 3009 3897 
z
" transform="scale(0.015625)"/>
      </defs>
      <use xlink:href="#DejaVuSans-Oblique-45" transform="translate(0 0.765625)"/>
      <use xlink:href="#DejaVuSans-Oblique-6d" transform="translate(63.183594 -15.640625) scale(0.7)"/>
      <use xlink:href="#DejaVuSans-Oblique-61" transform="translate(131.37207 -15.640625) scale(0.7)"/>
      <use xlink:href="#DejaVuSans-Oblique-78" transform="translate(174.267578 -15.640625) scale(0.7)"/>
      <use xlink:href="#DejaVuSans-20" transform="translate(218.427734 0.765625)"/>
      <use xlink:href="#DejaVuSans-3d" transform="translate(250.214844 0.765625)"/>
      <use xlink:href="#DejaVuSans-20" transform="translate(334.003906 0.765625)"/>
      <use xlink:href="#DejaVuSans-31" transform="translate(365.791016 0.765625)"/>
      <use xlink:href="#DejaVuSans-36" transform="translate(429.414062 0.765625)"/>
      <use xlink:href="#DejaVuSans-2e" transform="translate(493.037109 0.765625)"/>
      <use xlink:href="#DejaVuSans-34" transform="translate(524.824219 0.765625)"/>
      <use xlink:href="#DejaVuSans-20" transform="translate(588.447266 0.765625)"/>
      <use xlink:href="#DejaVuSans-28" transform="translate(620.234375 0.765625)"/>
      <use xlink:href="#DejaVuSans-61" transform="translate(659.248047 0.765625)"/>
      <use xlink:href="#DejaVuSans-20" transform="translate(720.527344 0.765625)"/>
      <use xlink:href="#DejaVuSans-Oblique-43" transform="translate(752.314453 0.765625)"/>
      <use xlink:href="#DejaVuSans-2a" transform="translate(842.976888 39.046875) scale(0.7)"/>
      <use xlink:href="#DejaVuSans-Oblique-4c" transform="translate(822.138672 -26.578125) scale(0.7)"/>
      <use xlink:href="#DejaVuSans-20" transform="translate(894.348958 0.765625)"/>
      <use xlink:href="#DejaVuSans-3d" transform="translate(926.136068 0.765625)"/>
      <use xlink:href="#DejaVuSans-20" transform="translate(1009.92513 0.765625)"/>
      <use xlink:href="#DejaVuSans-30" transform="translate(1041.71224 0.765625)"/>
      <use xlink:href="#DejaVuSans-2e" transform="translate(1105.335286 0.765625)"/>
      <use xlink:href="#DejaVuSans-38" transform="translate(1134.497396 0.765625)"/>
      <use xlink:href="#DejaVuSans-32" transform="translate(1198.120443 0.765625)"/>
      <use xlink:href="#DejaVuSans-29" transform="translate(1261.74349 0.765625)"/>
     </g>
    </g>
   </g>
   <g id="PathCollection_2">
    <defs>
     <path id="m8ee520fedf" d="M 0 -5.477226 
L -1.229714 -1.692556 
L -5.209151 -1.692556 
L -1.989719 0.646499 
L -3.219432 4.431169 
L -0 2.092114 
L 3.219432 4.431169 
L 1.989719 0.646499 
L 5.209151 -1.692556 
L 1.229714 -1.692556 
z
" style="stroke: #000000"/>
    </defs>
    <g clip-path="url(#p2982ea3a82)">
     <use xlink:href="#m8ee520fedf" x="133.87275" y="214.412813" style="fill: #fb8c00; stroke: #000000"/>
    </g>
   </g>
  </g>
 </g>
 <defs>
  <clipPath id="p2982ea3a82">
   <rect x="49.89375" y="23.837812" width="390.6" height="277.2"/>
  </clipPath>
 </defs>
</svg>
