<?xml version="1.0" encoding="utf-8" standalone="no"?>
<!DOCTYPE svg PUBLIC "-//W3C//DTD SVG 1.1//EN"
  "http://www.w3.org/Graphics/SVG/1.1/DTD/svg11.dtd">
<svg xmlns:xlink="http://www.w3.org/1999/xlink" width="586.733438pt" height="436.977656pt" viewBox="0 0 586.733438 436.977656" xmlns="http://www.w3.org/2000/svg" version="1.1">
 <metadata>
  <rdf:RDF xmlns:dc="http://purl.org/dc/elements/1.1/" xmlns:cc="http://creativecommons.org/ns#" xmlns:rdf="http://www.w3.org/1999/02/22-rdf-syntax-ns#">
   <cc:Work>
    <dc:type rdf:resource="http://purl.org/dc/dcmitype/StillImage"/>
    <dc:date>2026-04-27T21:32:03.248005</dc:date>
    <dc:format>image/svg+xml</dc:format>
    <dc:creator>
     <cc:Agent>
      <dc:title>Matplotlib v3.9.4, https://matplotlib.org/</dc:title>
     </cc:Agent>
    </dc:creator>
   </cc:Work>
  </rdf:RDF>
 </metadata>
 <defs>
  <style type="text/css">*{stroke-linejoin: round; stroke-linecap: butt}</style>
 </defs>
 <g id="figure_1">
  <g id="patch_1">
   <path d="M 0 436.977656 
L 586.733438 436.977656 
L 586.733438 0 
L 0 0 
z
" style="fill: #ffffff"/>
  </g>
  <g id="axes_1">
   <g id="patch_2">
    <path d="M 62.933437 382.117969 
L 565.133438 382.117969 
L 565.133438 49.477969 
L 62.933437 49.477969 
z
" style="fill: #ffffff"/>
   </g>
   <g id="matplotlib.axis_1">
    <g id="xtick_1">
     <g id="line2d_1">
      <path d="M 62.933437 382.117969 
L 62.933437 49.477969 
" clip-path="url(#p0ee686a813)" style="fill: none; stroke: #b0b0b0; stroke-opacity: 0.3; stroke-width: 0.8; stroke-linecap: square"/>
     </g>
     <g id="line2d_2">
      <defs>
       <path id="me71e8d9936" d="M 0 0 
L 0 3.5 
" style="stroke: #000000; stroke-width: 0.8"/>
      </defs>
      <g>
       <use xlink:href="#me71e8d9936" x="62.933437" y="382.117969" style="stroke: #000000; stroke-width: 0.8"/>
      </g>
     </g>
     <g id="text_1">
      <!-- 0.00 -->
      <g transform="translate(50.687344 397.47625) scale(0.11 -0.11)">
       <defs>
        <path id="DejaVuSans-30" d="M 2034 4250 
Q 1547 4250 1301 3770 
Q 1056 3291 1056 2328 
Q 1056 1369 1301 889 
Q 1547 409 2034 409 
Q 2525 409 2770 889 
Q 3016 1369 3016 2328 
Q 3016 3291 2770 3770 
Q 2525 4250 2034 4250 
z
M 2034 4750 
Q 2819 4750 3233 4129 
Q 3647 3509 3647 2328 
Q 3647 1150 3233 529 
Q 2819 -91 2034 -91 
Q 1250 -91 836 529 
Q 422 1150 422 2328 
Q 422 3509 836 4129 
Q 1250 4750 2034 4750 
z
" transform="scale(0.015625)"/>
        <path id="DejaVuSans-2e" d="M 684 794 
L 1344 794 
L 1344 0 
L 684 0 
L 684 794 
z
" transform="scale(0.015625)"/>
       </defs>
       <use xlink:href="#DejaVuSans-30"/>
       <use xlink:href="#DejaVuSans-2e" x="63.623047"/>
       <use xlink:href="#DejaVuSans-30" x="95.410156"/>
       <use xlink:href="#DejaVuSans-30" x="159.033203"/>
      </g>
     </g>
    </g>
    <g id="xtick_2">
     <g id="line2d_3">
      <path d="M 122.01579 382.117969 
L 122.01579 49.477969 
" clip-path="url(#p0ee686a813)" style="fill: none; stroke: #b0b0b0; stroke-opacity: 0.3; stroke-width: 0.8; stroke-linecap: square"/>
     </g>
     <g id="line2d_4">
      <g>
       <use xlink:href="#me71e8d9936" x="122.01579" y="382.117969" style="stroke: #000000; stroke-width: 0.8"/>
      </g>
     </g>
     <g id="text_2">
      <!-- 0.02 -->
      <g transform="translate(109.769697 397.47625) scale(0.11 -0.11)">
       <defs>
        <path id="DejaVuSans-32" d="M 1228 531 
L 3431 531 
L 3431 0 
L 469 0 
L 469 531 
Q 828 903 1448 1529 
Q 2069 2156 2228 2338 
Q 2531 2678 2651 2914 
Q 2772 3150 2772 3378 
Q 2772 3750 2511 3984 
Q 2250 4219 1831 4219 
Q 1534 4219 1204 4116 
Q 875 4013 500 3803 
L 500 4441 
Q 881 4594 1212 4672 
Q 1544 4750 1819 4750 
Q 2544 4750 2975 4387 
Q 3406 4025 3406 3419 
Q 3406 3131 3298 2873 
Q 3191 2616 2906 2266 
Q 2828 2175 2409 1742 
Q 1991 1309 1228 531 
z
" transform="scale(0.015625)"/>
       </defs>
       <use xlink:href="#DejaVuSans-30"/>
       <use xlink:href="#DejaVuSans-2e" x="63.623047"/>
       <use xlink:href="#DejaVuSans-30" x="95.410156"/>
       <use xlink:href="#DejaVuSans-32" x="159.033203"/>
      </g>
     </g>
    </g>
    <g id="xtick_3">
     <g id="line2d_5">
      <path d="M 181.098143 382.117969 
L 181.098143 49.477969 
" clip-path="url(#p0ee686a813)" style="fill: none; stroke: #b0b0b0; stroke-opacity: 0.3; stroke-width: 0.8; stroke-linecap: square"/>
     </g>
     <g id="line2d_6">
      <g>
       <use xlink:href="#me71e8d9936" x="181.098143" y="382.117969" style="stroke: #000000; stroke-width: 0.8"/>
      </g>
     </g>
     <g id="text_3">
      <!-- 0.04 -->
      <g transform="translate(168.85205 397.47625) scale(0.11 -0.11)">
       <defs>
        <path id="DejaVuSans-34" d="M 2419 4116 
L 825 1625 
L 2419 1625 
L 2419 4116 
z
M 2253 4666 
L 3047 4666 
L 3047 1625 
L 3713 1625 
L 3713 1100 
L 3047 1100 
L 3047 0 
L 2419 0 
L 2419 1100 
L 313 1100 
L 313 1709 
L 2253 4666 
z
" transform="scale(0.015625)"/>
       </defs>
       <use xlink:href="#DejaVuSans-30"/>
       <use xlink:href="#DejaVuSans-2e" x="63.623047"/>
       <use xlink:href="#DejaVuSans-30" x="95.410156"/>
       <use xlink:href="#DejaVuSans-34" x="159.033203"/>
      </g>
     </g>
    </g>
    <g id="xtick_4">
     <g id="line2d_7">
      <path d="M 240.180496 382.117969 
L 240.180496 49.477969 
" clip-path="url(#p0ee686a813)" style="fill: none; stroke: #b0b0b0; stroke-opacity: 0.3; stroke-width: 0.8; stroke-linecap: square"/>
     </g>
     <g id="line2d_8">
      <g>
       <use xlink:href="#me71e8d9936" x="240.180496" y="382.117969" style="stroke: #000000; stroke-width: 0.8"/>
      </g>
     </g>
     <g id="text_4">
      <!-- 0.06 -->
      <g transform="translate(227.934403 397.47625) scale(0.11 -0.11)">
       <defs>
        <path id="DejaVuSans-36" d="M 2113 2584 
Q 1688 2584 1439 2293 
Q 1191 2003 1191 1497 
Q 1191 994 1439 701 
Q 1688 409 2113 409 
Q 2538 409 2786 701 
Q 3034 994 3034 1497 
Q 3034 2003 2786 2293 
Q 2538 2584 2113 2584 
z
M 3366 4563 
L 3366 3988 
Q 3128 4100 2886 4159 
Q 2644 4219 2406 4219 
Q 1781 4219 1451 3797 
Q 1122 3375 1075 2522 
Q 1259 2794 1537 2939 
Q 1816 3084 2150 3084 
Q 2853 3084 3261 2657 
Q 3669 2231 3669 1497 
Q 3669 778 3244 343 
Q 2819 -91 2113 -91 
Q 1303 -91 875 529 
Q 447 1150 447 2328 
Q 447 3434 972 4092 
Q 1497 4750 2381 4750 
Q 2619 4750 2861 4703 
Q 3103 4656 3366 4563 
z
" transform="scale(0.015625)"/>
       </defs>
       <use xlink:href="#DejaVuSans-30"/>
       <use xlink:href="#DejaVuSans-2e" x="63.623047"/>
       <use xlink:href="#DejaVuSans-30" x="95.410156"/>
       <use xlink:href="#DejaVuSans-36" x="159.033203"/>
      </g>
     </g>
    </g>
    <g id="xtick_5">
     <g id="line2d_9">
      <path d="M 299.262849 382.117969 
L 299.262849 49.477969 
" clip-path="url(#p0ee686a813)" style="fill: none; stroke: #b0b0b0; stroke-opacity: 0.3; stroke-width: 0.8; stroke-linecap: square"/>
     </g>
     <g id="line2d_10">
      <g>
       <use xlink:href="#me71e8d9936" x="299.262849" y="382.117969" style="stroke: #000000; stroke-width: 0.8"/>
      </g>
     </g>
     <g id="text_5">
      <!-- 0.08 -->
      <g transform="translate(287.016756 397.47625) scale(0.11 -0.11)">
       <defs>
        <path id="DejaVuSans-38" d="M 2034 2216 
Q 1584 2216 1326 1975 
Q 1069 1734 1069 1313 
Q 1069 891 1326 650 
Q 1584 409 2034 409 
Q 2484 409 2743 651 
Q 3003 894 3003 1313 
Q 3003 1734 2745 1975 
Q 2488 2216 2034 2216 
z
M 1403 2484 
Q 997 2584 770 2862 
Q 544 3141 544 3541 
Q 544 4100 942 4425 
Q 1341 4750 2034 4750 
Q 2731 4750 3128 4425 
Q 3525 4100 3525 3541 
Q 3525 3141 3298 2862 
Q 3072 2584 2669 2484 
Q 3125 2378 3379 2068 
Q 3634 1759 3634 1313 
Q 3634 634 3220 271 
Q 2806 -91 2034 -91 
Q 1263 -91 848 271 
Q 434 634 434 1313 
Q 434 1759 690 2068 
Q 947 2378 1403 2484 
z
M 1172 3481 
Q 1172 3119 1398 2916 
Q 1625 2713 2034 2713 
Q 2441 2713 2670 2916 
Q 2900 3119 2900 3481 
Q 2900 3844 2670 4047 
Q 2441 4250 2034 4250 
Q 1625 4250 1398 4047 
Q 1172 3844 1172 3481 
z
" transform="scale(0.015625)"/>
       </defs>
       <use xlink:href="#DejaVuSans-30"/>
       <use xlink:href="#DejaVuSans-2e" x="63.623047"/>
       <use xlink:href="#DejaVuSans-30" x="95.410156"/>
       <use xlink:href="#DejaVuSans-38" x="159.033203"/>
      </g>
     </g>
    </g>
    <g id="xtick_6">
     <g id="line2d_11">
      <path d="M 358.345202 382.117969 
L 358.345202 49.477969 
" clip-path="url(#p0ee686a813)" style="fill: none; stroke: #b0b0b0; stroke-opacity: 0.3; stroke-width: 0.8; stroke-linecap: square"/>
     </g>
     <g id="line2d_12">
      <g>
       <use xlink:href="#me71e8d9936" x="358.345202" y="382.117969" style="stroke: #000000; stroke-width: 0.8"/>
      </g>
     </g>
     <g id="text_6">
      <!-- 0.10 -->
      <g transform="translate(346.099108 397.47625) scale(0.11 -0.11)">
       <defs>
        <path id="DejaVuSans-31" d="M 794 531 
L 1825 531 
L 1825 4091 
L 703 3866 
L 703 4441 
L 1819 4666 
L 2450 4666 
L 2450 531 
L 3481 531 
L 3481 0 
L 794 0 
L 794 531 
z
" transform="scale(0.015625)"/>
       </defs>
       <use xlink:href="#DejaVuSans-30"/>
       <use xlink:href="#DejaVuSans-2e" x="63.623047"/>
       <use xlink:href="#DejaVuSans-31" x="95.410156"/>
       <use xlink:href="#DejaVuSans-30" x="159.033203"/>
      </g>
     </g>
    </g>
    <g id="xtick_7">
     <g id="line2d_13">
      <path d="M 417.427555 382.117969 
L 417.427555 49.477969 
" clip-path="url(#p0ee686a813)" style="fill: none; stroke: #b0b0b0; stroke-opacity: 0.3; stroke-width: 0.8; stroke-linecap: square"/>
     </g>
     <g id="line2d_14">
      <g>
       <use xlink:href="#me71e8d9936" x="417.427555" y="382.117969" style="stroke: #000000; stroke-width: 0.8"/>
      </g>
     </g>
     <g id="text_7">
      <!-- 0.12 -->
      <g transform="translate(405.181461 397.47625) scale(0.11 -0.11)">
       <use xlink:href="#DejaVuSans-30"/>
       <use xlink:href="#DejaVuSans-2e" x="63.623047"/>
       <use xlink:href="#DejaVuSans-31" x="95.410156"/>
       <use xlink:href="#DejaVuSans-32" x="159.033203"/>
      </g>
     </g>
    </g>
    <g id="xtick_8">
     <g id="line2d_15">
      <path d="M 476.509908 382.117969 
L 476.509908 49.477969 
" clip-path="url(#p0ee686a813)" style="fill: none; stroke: #b0b0b0; stroke-opacity: 0.3; stroke-width: 0.8; stroke-linecap: square"/>
     </g>
     <g id="line2d_16">
      <g>
       <use xlink:href="#me71e8d9936" x="476.509908" y="382.117969" style="stroke: #000000; stroke-width: 0.8"/>
      </g>
     </g>
     <g id="text_8">
      <!-- 0.14 -->
      <g transform="translate(464.263814 397.47625) scale(0.11 -0.11)">
       <use xlink:href="#DejaVuSans-30"/>
       <use xlink:href="#DejaVuSans-2e" x="63.623047"/>
       <use xlink:href="#DejaVuSans-31" x="95.410156"/>
       <use xlink:href="#DejaVuSans-34" x="159.033203"/>
      </g>
     </g>
    </g>
    <g id="xtick_9">
     <g id="line2d_17">
      <path d="M 535.592261 382.117969 
L 535.592261 49.477969 
" clip-path="url(#p0ee686a813)" style="fill: none; stroke: #b0b0b0; stroke-opacity: 0.3; stroke-width: 0.8; stroke-linecap: square"/>
     </g>
     <g id="line2d_18">
      <g>
       <use xlink:href="#me71e8d9936" x="535.592261" y="382.117969" style="stroke: #000000; stroke-width: 0.8"/>
      </g>
     </g>
     <g id="text_9">
      <!-- 0.16 -->
      <g transform="translate(523.346167 397.47625) scale(0.11 -0.11)">
       <use xlink:href="#DejaVuSans-30"/>
       <use xlink:href="#DejaVuSans-2e" x="63.623047"/>
       <use xlink:href="#DejaVuSans-31" x="95.410156"/>
       <use xlink:href="#DejaVuSans-36" x="159.033203"/>
      </g>
     </g>
    </g>
    <g id="text_10">
     <!-- Coefficiente di resistenza $C_R$ -->
     <g transform="translate(228.833438 412.882031) scale(0.12 -0.12)">
      <defs>
       <path id="DejaVuSans-43" d="M 4122 4306 
L 4122 3641 
Q 3803 3938 3442 4084 
Q 3081 4231 2675 4231 
Q 1875 4231 1450 3742 
Q 1025 3253 1025 2328 
Q 1025 1406 1450 917 
Q 1875 428 2675 428 
Q 3081 428 3442 575 
Q 3803 722 4122 1019 
L 4122 359 
Q 3791 134 3420 21 
Q 3050 -91 2638 -91 
Q 1578 -91 968 557 
Q 359 1206 359 2328 
Q 359 3453 968 4101 
Q 1578 4750 2638 4750 
Q 3056 4750 3426 4639 
Q 3797 4528 4122 4306 
z
" transform="scale(0.015625)"/>
       <path id="DejaVuSans-6f" d="M 1959 3097 
Q 1497 3097 1228 2736 
Q 959 2375 959 1747 
Q 959 1119 1226 758 
Q 1494 397 1959 397 
Q 2419 397 2687 759 
Q 2956 1122 2956 1747 
Q 2956 2369 2687 2733 
Q 2419 3097 1959 3097 
z
M 1959 3584 
Q 2709 3584 3137 3096 
Q 3566 2609 3566 1747 
Q 3566 888 3137 398 
Q 2709 -91 1959 -91 
Q 1206 -91 779 398 
Q 353 888 353 1747 
Q 353 2609 779 3096 
Q 1206 3584 1959 3584 
z
" transform="scale(0.015625)"/>
       <path id="DejaVuSans-65" d="M 3597 1894 
L 3597 1613 
L 953 1613 
Q 991 1019 1311 708 
Q 1631 397 2203 397 
Q 2534 397 2845 478 
Q 3156 559 3463 722 
L 3463 178 
Q 3153 47 2828 -22 
Q 2503 -91 2169 -91 
Q 1331 -91 842 396 
Q 353 884 353 1716 
Q 353 2575 817 3079 
Q 1281 3584 2069 3584 
Q 2775 3584 3186 3129 
Q 3597 2675 3597 1894 
z
M 3022 2063 
Q 3016 2534 2758 2815 
Q 2500 3097 2075 3097 
Q 1594 3097 1305 2825 
Q 1016 2553 972 2059 
L 3022 2063 
z
" transform="scale(0.015625)"/>
       <path id="DejaVuSans-66" d="M 2375 4863 
L 2375 4384 
L 1825 4384 
Q 1516 4384 1395 4259 
Q 1275 4134 1275 3809 
L 1275 3500 
L 2222 3500 
L 2222 3053 
L 1275 3053 
L 1275 0 
L 697 0 
L 697 3053 
L 147 3053 
L 147 3500 
L 697 3500 
L 697 3744 
Q 697 4328 969 4595 
Q 1241 4863 1831 4863 
L 2375 4863 
z
" transform="scale(0.015625)"/>
       <path id="DejaVuSans-69" d="M 603 3500 
L 1178 3500 
L 1178 0 
L 603 0 
L 603 3500 
z
M 603 4863 
L 1178 4863 
L 1178 4134 
L 603 4134 
L 603 4863 
z
" transform="scale(0.015625)"/>
       <path id="DejaVuSans-63" d="M 3122 3366 
L 3122 2828 
Q 2878 2963 2633 3030 
Q 2388 3097 2138 3097 
Q 1578 3097 1268 2742 
Q 959 2388 959 1747 
Q 959 1106 1268 751 
Q 1578 397 2138 397 
Q 2388 397 2633 464 
Q 2878 531 3122 666 
L 3122 134 
Q 2881 22 2623 -34 
Q 2366 -91 2075 -91 
Q 1284 -91 818 406 
Q 353 903 353 1747 
Q 353 2603 823 3093 
Q 1294 3584 2113 3584 
Q 2378 3584 2631 3529 
Q 2884 3475 3122 3366 
z
" transform="scale(0.015625)"/>
       <path id="DejaVuSans-6e" d="M 3513 2113 
L 3513 0 
L 2938 0 
L 2938 2094 
Q 2938 2591 2744 2837 
Q 2550 3084 2163 3084 
Q 1697 3084 1428 2787 
Q 1159 2491 1159 1978 
L 1159 0 
L 581 0 
L 581 3500 
L 1159 3500 
L 1159 2956 
Q 1366 3272 1645 3428 
Q 1925 3584 2291 3584 
Q 2894 3584 3203 3211 
Q 3513 2838 3513 2113 
z
" transform="scale(0.015625)"/>
       <path id="DejaVuSans-74" d="M 1172 4494 
L 1172 3500 
L 2356 3500 
L 2356 3053 
L 1172 3053 
L 1172 1153 
Q 1172 725 1289 603 
Q 1406 481 1766 481 
L 2356 481 
L 2356 0 
L 1766 0 
Q 1100 0 847 248 
Q 594 497 594 1153 
L 594 3053 
L 172 3053 
L 172 3500 
L 594 3500 
L 594 4494 
L 1172 4494 
z
" transform="scale(0.015625)"/>
       <path id="DejaVuSans-20" transform="scale(0.015625)"/>
       <path id="DejaVuSans-64" d="M 2906 2969 
L 2906 4863 
L 3481 4863 
L 3481 0 
L 2906 0 
L 2906 525 
Q 2725 213 2448 61 
Q 2172 -91 1784 -91 
Q 1150 -91 751 415 
Q 353 922 353 1747 
Q 353 2572 751 3078 
Q 1150 3584 1784 3584 
Q 2172 3584 2448 3432 
Q 2725 3281 2906 2969 
z
M 947 1747 
Q 947 1113 1208 752 
Q 1469 391 1925 391 
Q 2381 391 2643 752 
Q 2906 1113 2906 1747 
Q 2906 2381 2643 2742 
Q 2381 3103 1925 3103 
Q 1469 3103 1208 2742 
Q 947 2381 947 1747 
z
" transform="scale(0.015625)"/>
       <path id="DejaVuSans-72" d="M 2631 2963 
Q 2534 3019 2420 3045 
Q 2306 3072 2169 3072 
Q 1681 3072 1420 2755 
Q 1159 2438 1159 1844 
L 1159 0 
L 581 0 
L 581 3500 
L 1159 3500 
L 1159 2956 
Q 1341 3275 1631 3429 
Q 1922 3584 2338 3584 
Q 2397 3584 2469 3576 
Q 2541 3569 2628 3553 
L 2631 2963 
z
" transform="scale(0.015625)"/>
       <path id="DejaVuSans-73" d="M 2834 3397 
L 2834 2853 
Q 2591 2978 2328 3040 
Q 2066 3103 1784 3103 
Q 1356 3103 1142 2972 
Q 928 2841 928 2578 
Q 928 2378 1081 2264 
Q 1234 2150 1697 2047 
L 1894 2003 
Q 2506 1872 2764 1633 
Q 3022 1394 3022 966 
Q 3022 478 2636 193 
Q 2250 -91 1575 -91 
Q 1294 -91 989 -36 
Q 684 19 347 128 
L 347 722 
Q 666 556 975 473 
Q 1284 391 1588 391 
Q 1994 391 2212 530 
Q 2431 669 2431 922 
Q 2431 1156 2273 1281 
Q 2116 1406 1581 1522 
L 1381 1569 
Q 847 1681 609 1914 
Q 372 2147 372 2553 
Q 372 3047 722 3315 
Q 1072 3584 1716 3584 
Q 2034 3584 2315 3537 
Q 2597 3491 2834 3397 
z
" transform="scale(0.015625)"/>
       <path id="DejaVuSans-7a" d="M 353 3500 
L 3084 3500 
L 3084 2975 
L 922 459 
L 3084 459 
L 3084 0 
L 275 0 
L 275 525 
L 2438 3041 
L 353 3041 
L 353 3500 
z
" transform="scale(0.015625)"/>
       <path id="DejaVuSans-61" d="M 2194 1759 
Q 1497 1759 1228 1600 
Q 959 1441 959 1056 
Q 959 750 1161 570 
Q 1363 391 1709 391 
Q 2188 391 2477 730 
Q 2766 1069 2766 1631 
L 2766 1759 
L 2194 1759 
z
M 3341 1997 
L 3341 0 
L 2766 0 
L 2766 531 
Q 2569 213 2275 61 
Q 1981 -91 1556 -91 
Q 1019 -91 701 211 
Q 384 513 384 1019 
Q 384 1609 779 1909 
Q 1175 2209 1959 2209 
L 2766 2209 
L 2766 2266 
Q 2766 2663 2505 2880 
Q 2244 3097 1772 3097 
Q 1472 3097 1187 3025 
Q 903 2953 641 2809 
L 641 3341 
Q 956 3463 1253 3523 
Q 1550 3584 1831 3584 
Q 2591 3584 2966 3190 
Q 3341 2797 3341 1997 
z
" transform="scale(0.015625)"/>
       <path id="DejaVuSans-Oblique-43" d="M 4447 4306 
L 4319 3641 
Q 4019 3944 3683 4091 
Q 3347 4238 2956 4238 
Q 2422 4238 2017 3981 
Q 1613 3725 1319 3200 
Q 1131 2863 1032 2486 
Q 934 2109 934 1728 
Q 934 1091 1264 756 
Q 1594 422 2222 422 
Q 2656 422 3056 561 
Q 3456 700 3834 978 
L 3688 231 
Q 3316 72 2936 -9 
Q 2556 -91 2175 -91 
Q 1278 -91 773 396 
Q 269 884 269 1753 
Q 269 2309 461 2846 
Q 653 3384 1013 3828 
Q 1394 4300 1883 4525 
Q 2372 4750 3022 4750 
Q 3422 4750 3780 4639 
Q 4138 4528 4447 4306 
z
" transform="scale(0.015625)"/>
       <path id="DejaVuSans-Oblique-52" d="M 1613 4147 
L 1294 2491 
L 2106 2491 
Q 2584 2491 2879 2755 
Q 3175 3019 3175 3444 
Q 3175 3784 2976 3965 
Q 2778 4147 2406 4147 
L 1613 4147 
z
M 2772 2241 
Q 2972 2194 3105 2009 
Q 3238 1825 3413 1275 
L 3809 0 
L 3144 0 
L 2778 1197 
Q 2638 1659 2453 1815 
Q 2269 1972 1888 1972 
L 1191 1972 
L 806 0 
L 172 0 
L 1081 4666 
L 2503 4666 
Q 3150 4666 3495 4373 
Q 3841 4081 3841 3531 
Q 3841 3044 3547 2687 
Q 3253 2331 2772 2241 
z
" transform="scale(0.015625)"/>
      </defs>
      <use xlink:href="#DejaVuSans-43" transform="translate(0 0.015625)"/>
      <use xlink:href="#DejaVuSans-6f" transform="translate(69.824219 0.015625)"/>
      <use xlink:href="#DejaVuSans-65" transform="translate(131.005859 0.015625)"/>
      <use xlink:href="#DejaVuSans-66" transform="translate(192.529297 0.015625)"/>
      <use xlink:href="#DejaVuSans-66" transform="translate(227.734375 0.015625)"/>
      <use xlink:href="#DejaVuSans-69" transform="translate(262.939453 0.015625)"/>
      <use xlink:href="#DejaVuSans-63" transform="translate(290.722656 0.015625)"/>
      <use xlink:href="#DejaVuSans-69" transform="translate(345.703125 0.015625)"/>
      <use xlink:href="#DejaVuSans-65" transform="translate(373.486328 0.015625)"/>
      <use xlink:href="#DejaVuSans-6e" transform="translate(435.009766 0.015625)"/>
      <use xlink:href="#DejaVuSans-74" transform="translate(498.388672 0.015625)"/>
      <use xlink:href="#DejaVuSans-65" transform="translate(537.597656 0.015625)"/>
      <use xlink:href="#DejaVuSans-20" transform="translate(599.121094 0.015625)"/>
      <use xlink:href="#DejaVuSans-64" transform="translate(630.908203 0.015625)"/>
      <use xlink:href="#DejaVuSans-69" transform="translate(694.384766 0.015625)"/>
      <use xlink:href="#DejaVuSans-20" transform="translate(722.167969 0.015625)"/>
      <use xlink:href="#DejaVuSans-72" transform="translate(753.955078 0.015625)"/>
      <use xlink:href="#DejaVuSans-65" transform="translate(795.068359 0.015625)"/>
      <use xlink:href="#DejaVuSans-73" transform="translate(856.591797 0.015625)"/>
      <use xlink:href="#DejaVuSans-69" transform="translate(908.691406 0.015625)"/>
      <use xlink:href="#DejaVuSans-73" transform="translate(936.474609 0.015625)"/>
      <use xlink:href="#DejaVuSans-74" transform="translate(988.574219 0.015625)"/>
      <use xlink:href="#DejaVuSans-65" transform="translate(1027.783203 0.015625)"/>
      <use xlink:href="#DejaVuSans-6e" transform="translate(1089.306641 0.015625)"/>
      <use xlink:href="#DejaVuSans-7a" transform="translate(1152.685547 0.015625)"/>
      <use xlink:href="#DejaVuSans-61" transform="translate(1205.175781 0.015625)"/>
      <use xlink:href="#DejaVuSans-20" transform="translate(1266.455078 0.015625)"/>
      <use xlink:href="#DejaVuSans-Oblique-43" transform="translate(1298.242188 0.015625)"/>
      <use xlink:href="#DejaVuSans-Oblique-52" transform="translate(1368.066406 -16.390625) scale(0.7)"/>
     </g>
    </g>
   </g>
   <g id="matplotlib.axis_2">
    <g id="ytick_1">
     <g id="line2d_19">
      <path d="M 62.933437 382.117969 
L 565.133438 382.117969 
" clip-path="url(#p0ee686a813)" style="fill: none; stroke: #b0b0b0; stroke-opacity: 0.3; stroke-width: 0.8; stroke-linecap: square"/>
     </g>
     <g id="line2d_20">
      <defs>
       <path id="m2e1bf217b7" d="M 0 0 
L -3.5 0 
" style="stroke: #000000; stroke-width: 0.8"/>
      </defs>
      <g>
       <use xlink:href="#m2e1bf217b7" x="62.933437" y="382.117969" style="stroke: #000000; stroke-width: 0.8"/>
      </g>
     </g>
     <g id="text_11">
      <!-- 0.0 -->
      <g transform="translate(38.44 386.297109) scale(0.11 -0.11)">
       <use xlink:href="#DejaVuSans-30"/>
       <use xlink:href="#DejaVuSans-2e" x="63.623047"/>
       <use xlink:href="#DejaVuSans-30" x="95.410156"/>
      </g>
     </g>
    </g>
    <g id="ytick_2">
     <g id="line2d_21">
      <path d="M 62.933437 344.101969 
L 565.133438 344.101969 
" clip-path="url(#p0ee686a813)" style="fill: none; stroke: #b0b0b0; stroke-opacity: 0.3; stroke-width: 0.8; stroke-linecap: square"/>
     </g>
     <g id="line2d_22">
      <g>
       <use xlink:href="#m2e1bf217b7" x="62.933437" y="344.101969" style="stroke: #000000; stroke-width: 0.8"/>
      </g>
     </g>
     <g id="text_12">
      <!-- 0.2 -->
      <g transform="translate(38.44 348.281109) scale(0.11 -0.11)">
       <use xlink:href="#DejaVuSans-30"/>
       <use xlink:href="#DejaVuSans-2e" x="63.623047"/>
       <use xlink:href="#DejaVuSans-32" x="95.410156"/>
      </g>
     </g>
    </g>
    <g id="ytick_3">
     <g id="line2d_23">
      <path d="M 62.933437 306.085969 
L 565.133438 306.085969 
" clip-path="url(#p0ee686a813)" style="fill: none; stroke: #b0b0b0; stroke-opacity: 0.3; stroke-width: 0.8; stroke-linecap: square"/>
     </g>
     <g id="line2d_24">
      <g>
       <use xlink:href="#m2e1bf217b7" x="62.933437" y="306.085969" style="stroke: #000000; stroke-width: 0.8"/>
      </g>
     </g>
     <g id="text_13">
      <!-- 0.4 -->
      <g transform="translate(38.44 310.265109) scale(0.11 -0.11)">
       <use xlink:href="#DejaVuSans-30"/>
       <use xlink:href="#DejaVuSans-2e" x="63.623047"/>
       <use xlink:href="#DejaVuSans-34" x="95.410156"/>
      </g>
     </g>
    </g>
    <g id="ytick_4">
     <g id="line2d_25">
      <path d="M 62.933437 268.069969 
L 565.133438 268.069969 
" clip-path="url(#p0ee686a813)" style="fill: none; stroke: #b0b0b0; stroke-opacity: 0.3; stroke-width: 0.8; stroke-linecap: square"/>
     </g>
     <g id="line2d_26">
      <g>
       <use xlink:href="#m2e1bf217b7" x="62.933437" y="268.069969" style="stroke: #000000; stroke-width: 0.8"/>
      </g>
     </g>
     <g id="text_14">
      <!-- 0.6 -->
      <g transform="translate(38.44 272.249109) scale(0.11 -0.11)">
       <use xlink:href="#DejaVuSans-30"/>
       <use xlink:href="#DejaVuSans-2e" x="63.623047"/>
       <use xlink:href="#DejaVuSans-36" x="95.410156"/>
      </g>
     </g>
    </g>
    <g id="ytick_5">
     <g id="line2d_27">
      <path d="M 62.933437 230.053969 
L 565.133438 230.053969 
" clip-path="url(#p0ee686a813)" style="fill: none; stroke: #b0b0b0; stroke-opacity: 0.3; stroke-width: 0.8; stroke-linecap: square"/>
     </g>
     <g id="line2d_28">
      <g>
       <use xlink:href="#m2e1bf217b7" x="62.933437" y="230.053969" style="stroke: #000000; stroke-width: 0.8"/>
      </g>
     </g>
     <g id="text_15">
      <!-- 0.8 -->
      <g transform="translate(38.44 234.233109) scale(0.11 -0.11)">
       <use xlink:href="#DejaVuSans-30"/>
       <use xlink:href="#DejaVuSans-2e" x="63.623047"/>
       <use xlink:href="#DejaVuSans-38" x="95.410156"/>
      </g>
     </g>
    </g>
    <g id="ytick_6">
     <g id="line2d_29">
      <path d="M 62.933437 192.037969 
L 565.133438 192.037969 
" clip-path="url(#p0ee686a813)" style="fill: none; stroke: #b0b0b0; stroke-opacity: 0.3; stroke-width: 0.8; stroke-linecap: square"/>
     </g>
     <g id="line2d_30">
      <g>
       <use xlink:href="#m2e1bf217b7" x="62.933437" y="192.037969" style="stroke: #000000; stroke-width: 0.8"/>
      </g>
     </g>
     <g id="text_16">
      <!-- 1.0 -->
      <g transform="translate(38.44 196.217109) scale(0.11 -0.11)">
       <use xlink:href="#DejaVuSans-31"/>
       <use xlink:href="#DejaVuSans-2e" x="63.623047"/>
       <use xlink:href="#DejaVuSans-30" x="95.410156"/>
      </g>
     </g>
    </g>
    <g id="ytick_7">
     <g id="line2d_31">
      <path d="M 62.933437 154.021969 
L 565.133438 154.021969 
" clip-path="url(#p0ee686a813)" style="fill: none; stroke: #b0b0b0; stroke-opacity: 0.3; stroke-width: 0.8; stroke-linecap: square"/>
     </g>
     <g id="line2d_32">
      <g>
       <use xlink:href="#m2e1bf217b7" x="62.933437" y="154.021969" style="stroke: #000000; stroke-width: 0.8"/>
      </g>
     </g>
     <g id="text_17">
      <!-- 1.2 -->
      <g transform="translate(38.44 158.201109) scale(0.11 -0.11)">
       <use xlink:href="#DejaVuSans-31"/>
       <use xlink:href="#DejaVuSans-2e" x="63.623047"/>
       <use xlink:href="#DejaVuSans-32" x="95.410156"/>
      </g>
     </g>
    </g>
    <g id="ytick_8">
     <g id="line2d_33">
      <path d="M 62.933437 116.005969 
L 565.133438 116.005969 
" clip-path="url(#p0ee686a813)" style="fill: none; stroke: #b0b0b0; stroke-opacity: 0.3; stroke-width: 0.8; stroke-linecap: square"/>
     </g>
     <g id="line2d_34">
      <g>
       <use xlink:href="#m2e1bf217b7" x="62.933437" y="116.005969" style="stroke: #000000; stroke-width: 0.8"/>
      </g>
     </g>
     <g id="text_18">
      <!-- 1.4 -->
      <g transform="translate(38.44 120.185109) scale(0.11 -0.11)">
       <use xlink:href="#DejaVuSans-31"/>
       <use xlink:href="#DejaVuSans-2e" x="63.623047"/>
       <use xlink:href="#DejaVuSans-34" x="95.410156"/>
      </g>
     </g>
    </g>
    <g id="ytick_9">
     <g id="line2d_35">
      <path d="M 62.933437 77.989969 
L 565.133438 77.989969 
" clip-path="url(#p0ee686a813)" style="fill: none; stroke: #b0b0b0; stroke-opacity: 0.3; stroke-width: 0.8; stroke-linecap: square"/>
     </g>
     <g id="line2d_36">
      <g>
       <use xlink:href="#m2e1bf217b7" x="62.933437" y="77.989969" style="stroke: #000000; stroke-width: 0.8"/>
      </g>
     </g>
     <g id="text_19">
      <!-- 1.6 -->
      <g transform="translate(38.44 82.169109) scale(0.11 -0.11)">
       <use xlink:href="#DejaVuSans-31"/>
       <use xlink:href="#DejaVuSans-2e" x="63.623047"/>
       <use xlink:href="#DejaVuSans-36" x="95.410156"/>
      </g>
     </g>
    </g>
    <g id="text_20">
     <!-- Coefficiente di portanza $C_p$ -->
     <g transform="translate(30.72 296.617969) rotate(-90) scale(0.12 -0.12)">
      <defs>
       <path id="DejaVuSans-70" d="M 1159 525 
L 1159 -1331 
L 581 -1331 
L 581 3500 
L 1159 3500 
L 1159 2969 
Q 1341 3281 1617 3432 
Q 1894 3584 2278 3584 
Q 2916 3584 3314 3078 
Q 3713 2572 3713 1747 
Q 3713 922 3314 415 
Q 2916 -91 2278 -91 
Q 1894 -91 1617 61 
Q 1341 213 1159 525 
z
M 3116 1747 
Q 3116 2381 2855 2742 
Q 2594 3103 2138 3103 
Q 1681 3103 1420 2742 
Q 1159 2381 1159 1747 
Q 1159 1113 1420 752 
Q 1681 391 2138 391 
Q 2594 391 2855 752 
Q 3116 1113 3116 1747 
z
" transform="scale(0.015625)"/>
       <path id="DejaVuSans-Oblique-70" d="M 3175 2156 
Q 3175 2616 2975 2859 
Q 2775 3103 2400 3103 
Q 2144 3103 1911 2972 
Q 1678 2841 1497 2591 
Q 1319 2344 1212 1994 
Q 1106 1644 1106 1300 
Q 1106 863 1306 627 
Q 1506 391 1875 391 
Q 2147 391 2380 519 
Q 2613 647 2778 891 
Q 2956 1147 3065 1494 
Q 3175 1841 3175 2156 
z
M 1394 2969 
Q 1625 3272 1939 3428 
Q 2253 3584 2638 3584 
Q 3175 3584 3472 3232 
Q 3769 2881 3769 2247 
Q 3769 1728 3584 1258 
Q 3400 788 3053 416 
Q 2822 169 2531 39 
Q 2241 -91 1919 -91 
Q 1547 -91 1294 64 
Q 1041 219 916 525 
L 556 -1331 
L -19 -1331 
L 922 3500 
L 1497 3500 
L 1394 2969 
z
" transform="scale(0.015625)"/>
      </defs>
      <use xlink:href="#DejaVuSans-43" transform="translate(0 0.015625)"/>
      <use xlink:href="#DejaVuSans-6f" transform="translate(69.824219 0.015625)"/>
      <use xlink:href="#DejaVuSans-65" transform="translate(131.005859 0.015625)"/>
      <use xlink:href="#DejaVuSans-66" transform="translate(192.529297 0.015625)"/>
      <use xlink:href="#DejaVuSans-66" transform="translate(227.734375 0.015625)"/>
      <use xlink:href="#DejaVuSans-69" transform="translate(262.939453 0.015625)"/>
      <use xlink:href="#DejaVuSans-63" transform="translate(290.722656 0.015625)"/>
      <use xlink:href="#DejaVuSans-69" transform="translate(345.703125 0.015625)"/>
      <use xlink:href="#DejaVuSans-65" transform="translate(373.486328 0.015625)"/>
      <use xlink:href="#DejaVuSans-6e" transform="translate(435.009766 0.015625)"/>
      <use xlink:href="#DejaVuSans-74" transform="translate(498.388672 0.015625)"/>
      <use xlink:href="#DejaVuSans-65" transform="translate(537.597656 0.015625)"/>
      <use xlink:href="#DejaVuSans-20" transform="translate(599.121094 0.015625)"/>
      <use xlink:href="#DejaVuSans-64" transform="translate(630.908203 0.015625)"/>
      <use xlink:href="#DejaVuSans-69" transform="translate(694.384766 0.015625)"/>
      <use xlink:href="#DejaVuSans-20" transform="translate(722.167969 0.015625)"/>
      <use xlink:href="#DejaVuSans-70" transform="translate(753.955078 0.015625)"/>
      <use xlink:href="#DejaVuSans-6f" transform="translate(817.431641 0.015625)"/>
      <use xlink:href="#DejaVuSans-72" transform="translate(878.613281 0.015625)"/>
      <use xlink:href="#DejaVuSans-74" transform="translate(919.726562 0.015625)"/>
      <use xlink:href="#DejaVuSans-61" transform="translate(958.935547 0.015625)"/>
      <use xlink:href="#DejaVuSans-6e" transform="translate(1020.214844 0.015625)"/>
      <use xlink:href="#DejaVuSans-7a" transform="translate(1083.59375 0.015625)"/>
      <use xlink:href="#DejaVuSans-61" transform="translate(1136.083984 0.015625)"/>
      <use xlink:href="#DejaVuSans-20" transform="translate(1197.363281 0.015625)"/>
      <use xlink:href="#DejaVuSans-Oblique-43" transform="translate(1229.150391 0.015625)"/>
      <use xlink:href="#DejaVuSans-Oblique-70" transform="translate(1298.974609 -16.390625) scale(0.7)"/>
     </g>
    </g>
   </g>
   <g id="line2d_37">
    <path d="M 136.786379 382.117969 
L 136.90522 375.887922 
L 137.261745 369.657875 
L 137.855954 363.427828 
L 138.687845 357.197781 
L 139.757421 350.967735 
L 141.064679 344.737688 
L 142.609621 338.507641 
L 144.392246 332.277594 
L 146.412554 326.047547 
L 148.670546 319.817501 
L 151.166221 313.587454 
L 153.89958 307.357407 
L 156.870622 301.12736 
L 160.079347 294.897313 
L 163.525755 288.667266 
L 167.209847 282.43722 
L 171.131623 276.207173 
L 175.291081 269.977126 
L 179.688223 263.747079 
L 185.004569 256.627026 
L 190.631359 249.506972 
L 196.568592 242.386919 
L 202.816268 235.266865 
L 209.374389 228.146812 
L 216.242952 221.026758 
L 223.42196 213.906705 
L 230.91141 206.786651 
L 238.711305 199.666598 
L 246.821643 192.546544 
L 255.242424 185.42649 
L 263.973649 178.306437 
L 274.167355 170.296377 
L 284.753965 162.286317 
L 295.733481 154.276256 
L 307.105901 146.266196 
L 318.871227 138.256136 
L 331.029458 130.246076 
L 343.580594 122.236016 
L 353.614227 116.005969 
L 353.614227 116.005969 
" clip-path="url(#p0ee686a813)" style="fill: none; stroke: #1976d2; stroke-width: 2.5; stroke-linecap: square"/>
   </g>
   <g id="line2d_38">
    <path d="M 62.933437 382.117969 
L 70.770892 373.847549 
L 78.608347 365.57713 
L 86.445802 357.30671 
L 94.283257 349.03629 
L 102.120712 340.765871 
L 109.958167 332.495451 
L 117.795622 324.225032 
L 125.633077 315.954612 
L 133.470532 307.684192 
L 141.307987 299.413773 
L 149.145442 291.143353 
L 156.982897 282.872934 
L 164.820352 274.602514 
L 172.657807 266.332094 
L 180.495262 258.061675 
L 188.332717 249.791255 
L 196.170172 241.520836 
L 204.007627 233.250416 
L 211.845082 224.979997 
L 219.682537 216.709577 
L 227.519992 208.439157 
L 235.357447 200.168738 
L 243.194902 191.898318 
L 251.032357 183.627899 
L 258.869812 175.357479 
L 266.707267 167.087059 
L 274.544722 158.81664 
L 282.382177 150.54622 
L 290.219632 142.275801 
L 298.057087 134.005381 
L 305.894542 125.734961 
L 313.731997 117.464542 
L 321.569452 109.194122 
L 329.406907 100.923703 
L 337.244362 92.653283 
L 345.081817 84.382863 
L 352.919272 76.112444 
L 360.756727 67.842024 
L 368.594182 59.571605 
L 376.431637 51.301185 
L 384.269092 43.030765 
L 392.106547 34.760346 
L 399.944002 26.489926 
L 407.781457 18.219507 
L 415.618912 9.949087 
L 423.456367 1.678668 
L 425.994803 -1 
" clip-path="url(#p0ee686a813)" style="fill: none; stroke-dasharray: 6.66,2.88; stroke-dashoffset: 0; stroke: #d32f2f; stroke-width: 1.8"/>
   </g>
   <g id="line2d_39">
    <path d="M 136.786379 382.117969 
L 136.786379 49.477969 
" clip-path="url(#p0ee686a813)" style="fill: none; stroke-dasharray: 2.2,3.63; stroke-dashoffset: 0; stroke: #888888; stroke-opacity: 0.6; stroke-width: 2.2"/>
   </g>
   <g id="patch_3">
    <path d="M 62.933437 382.117969 
L 62.933437 49.477969 
" style="fill: none; stroke: #000000; stroke-width: 0.8; stroke-linejoin: miter; stroke-linecap: square"/>
   </g>
   <g id="patch_4">
    <path d="M 62.933437 382.117969 
L 565.133438 382.117969 
" style="fill: none; stroke: #000000; stroke-width: 0.8; stroke-linejoin: miter; stroke-linecap: square"/>
   </g>
   <g id="patch_5">
    <path d="M 279.329598 309.345826 
Q 222.869745 298.402514 167.72702 287.714494 
" style="fill: none; stroke: #fb8c00; stroke-width: 1.2; stroke-linecap: round"/>
    <path d="M 170.918735 290.166627 
L 167.72702 287.714494 
L 171.603755 286.632402 
" style="fill: none; stroke: #fb8c00; stroke-width: 1.2; stroke-linecap: round"/>
   </g>
   <g id="text_21">
    <g id="patch_6">
     <path d="M 284.492261 330.583969 
L 363.782261 330.583969 
Q 366.482261 330.583969 366.482261 327.883969 
L 366.482261 309.095625 
Q 366.482261 306.395625 363.782261 306.395625 
L 284.492261 306.395625 
Q 281.792261 306.395625 281.792261 309.095625 
L 281.792261 327.883969 
Q 281.792261 330.583969 284.492261 330.583969 
z
" style="fill: #ffffff; opacity: 0.92; stroke: #808080; stroke-linejoin: miter"/>
    </g>
    <!-- Crociera reale -->
    <g style="fill: #fb8c00" transform="translate(284.492261 315.015937) scale(0.09 -0.09)">
     <defs>
      <path id="DejaVuSans-Bold-43" d="M 4288 256 
Q 3956 84 3597 -3 
Q 3238 -91 2847 -91 
Q 1681 -91 1000 561 
Q 319 1213 319 2328 
Q 319 3447 1000 4098 
Q 1681 4750 2847 4750 
Q 3238 4750 3597 4662 
Q 3956 4575 4288 4403 
L 4288 3438 
Q 3953 3666 3628 3772 
Q 3303 3878 2944 3878 
Q 2300 3878 1931 3465 
Q 1563 3053 1563 2328 
Q 1563 1606 1931 1193 
Q 2300 781 2944 781 
Q 3303 781 3628 887 
Q 3953 994 4288 1222 
L 4288 256 
z
" transform="scale(0.015625)"/>
      <path id="DejaVuSans-Bold-72" d="M 3138 2547 
Q 2991 2616 2845 2648 
Q 2700 2681 2553 2681 
Q 2122 2681 1889 2404 
Q 1656 2128 1656 1613 
L 1656 0 
L 538 0 
L 538 3500 
L 1656 3500 
L 1656 2925 
Q 1872 3269 2151 3426 
Q 2431 3584 2822 3584 
Q 2878 3584 2943 3579 
Q 3009 3575 3134 3559 
L 3138 2547 
z
" transform="scale(0.015625)"/>
      <path id="DejaVuSans-Bold-6f" d="M 2203 2784 
Q 1831 2784 1636 2517 
Q 1441 2250 1441 1747 
Q 1441 1244 1636 976 
Q 1831 709 2203 709 
Q 2569 709 2762 976 
Q 2956 1244 2956 1747 
Q 2956 2250 2762 2517 
Q 2569 2784 2203 2784 
z
M 2203 3584 
Q 3106 3584 3614 3096 
Q 4122 2609 4122 1747 
Q 4122 884 3614 396 
Q 3106 -91 2203 -91 
Q 1297 -91 786 396 
Q 275 884 275 1747 
Q 275 2609 786 3096 
Q 1297 3584 2203 3584 
z
" transform="scale(0.015625)"/>
      <path id="DejaVuSans-Bold-63" d="M 3366 3391 
L 3366 2478 
Q 3138 2634 2908 2709 
Q 2678 2784 2431 2784 
Q 1963 2784 1702 2511 
Q 1441 2238 1441 1747 
Q 1441 1256 1702 982 
Q 1963 709 2431 709 
Q 2694 709 2930 787 
Q 3166 866 3366 1019 
L 3366 103 
Q 3103 6 2833 -42 
Q 2563 -91 2291 -91 
Q 1344 -91 809 395 
Q 275 881 275 1747 
Q 275 2613 809 3098 
Q 1344 3584 2291 3584 
Q 2566 3584 2833 3536 
Q 3100 3488 3366 3391 
z
" transform="scale(0.015625)"/>
      <path id="DejaVuSans-Bold-69" d="M 538 3500 
L 1656 3500 
L 1656 0 
L 538 0 
L 538 3500 
z
M 538 4863 
L 1656 4863 
L 1656 3950 
L 538 3950 
L 538 4863 
z
" transform="scale(0.015625)"/>
      <path id="DejaVuSans-Bold-65" d="M 4031 1759 
L 4031 1441 
L 1416 1441 
Q 1456 1047 1700 850 
Q 1944 653 2381 653 
Q 2734 653 3104 758 
Q 3475 863 3866 1075 
L 3866 213 
Q 3469 63 3072 -14 
Q 2675 -91 2278 -91 
Q 1328 -91 801 392 
Q 275 875 275 1747 
Q 275 2603 792 3093 
Q 1309 3584 2216 3584 
Q 3041 3584 3536 3087 
Q 4031 2591 4031 1759 
z
M 2881 2131 
Q 2881 2450 2695 2645 
Q 2509 2841 2209 2841 
Q 1884 2841 1681 2658 
Q 1478 2475 1428 2131 
L 2881 2131 
z
" transform="scale(0.015625)"/>
      <path id="DejaVuSans-Bold-61" d="M 2106 1575 
Q 1756 1575 1579 1456 
Q 1403 1338 1403 1106 
Q 1403 894 1545 773 
Q 1688 653 1941 653 
Q 2256 653 2472 879 
Q 2688 1106 2688 1447 
L 2688 1575 
L 2106 1575 
z
M 3816 1997 
L 3816 0 
L 2688 0 
L 2688 519 
Q 2463 200 2181 54 
Q 1900 -91 1497 -91 
Q 953 -91 614 226 
Q 275 544 275 1050 
Q 275 1666 698 1953 
Q 1122 2241 2028 2241 
L 2688 2241 
L 2688 2328 
Q 2688 2594 2478 2717 
Q 2269 2841 1825 2841 
Q 1466 2841 1156 2769 
Q 847 2697 581 2553 
L 581 3406 
Q 941 3494 1303 3539 
Q 1666 3584 2028 3584 
Q 2975 3584 3395 3211 
Q 3816 2838 3816 1997 
z
" transform="scale(0.015625)"/>
      <path id="DejaVuSans-Bold-20" transform="scale(0.015625)"/>
      <path id="DejaVuSans-Bold-6c" d="M 538 4863 
L 1656 4863 
L 1656 0 
L 538 0 
L 538 4863 
z
" transform="scale(0.015625)"/>
     </defs>
     <use xlink:href="#DejaVuSans-Bold-43"/>
     <use xlink:href="#DejaVuSans-Bold-72" x="73.388672"/>
     <use xlink:href="#DejaVuSans-Bold-6f" x="122.705078"/>
     <use xlink:href="#DejaVuSans-Bold-63" x="191.40625"/>
     <use xlink:href="#DejaVuSans-Bold-69" x="250.683594"/>
     <use xlink:href="#DejaVuSans-Bold-65" x="284.960938"/>
     <use xlink:href="#DejaVuSans-Bold-72" x="352.783203"/>
     <use xlink:href="#DejaVuSans-Bold-61" x="402.099609"/>
     <use xlink:href="#DejaVuSans-Bold-20" x="469.580078"/>
     <use xlink:href="#DejaVuSans-Bold-72" x="504.394531"/>
     <use xlink:href="#DejaVuSans-Bold-65" x="553.710938"/>
     <use xlink:href="#DejaVuSans-Bold-61" x="621.533203"/>
     <use xlink:href="#DejaVuSans-Bold-6c" x="689.013672"/>
     <use xlink:href="#DejaVuSans-Bold-65" x="723.291016"/>
    </g>
    <!-- $C_p = 0{,}5$, $E = 14{,}5$ -->
    <g style="fill: #fb8c00" transform="translate(284.492261 325.093969) scale(0.09 -0.09)">
     <defs>
      <path id="DejaVuSans-3d" d="M 678 2906 
L 4684 2906 
L 4684 2381 
L 678 2381 
L 678 2906 
z
M 678 1631 
L 4684 1631 
L 4684 1100 
L 678 1100 
L 678 1631 
z
" transform="scale(0.015625)"/>
      <path id="DejaVuSans-2c" d="M 750 794 
L 1409 794 
L 1409 256 
L 897 -744 
L 494 -744 
L 750 256 
L 750 794 
z
" transform="scale(0.015625)"/>
      <path id="DejaVuSans-35" d="M 691 4666 
L 3169 4666 
L 3169 4134 
L 1269 4134 
L 1269 2991 
Q 1406 3038 1543 3061 
Q 1681 3084 1819 3084 
Q 2600 3084 3056 2656 
Q 3513 2228 3513 1497 
Q 3513 744 3044 326 
Q 2575 -91 1722 -91 
Q 1428 -91 1123 -41 
Q 819 9 494 109 
L 494 744 
Q 775 591 1075 516 
Q 1375 441 1709 441 
Q 2250 441 2565 725 
Q 2881 1009 2881 1497 
Q 2881 1984 2565 2268 
Q 2250 2553 1709 2553 
Q 1456 2553 1204 2497 
Q 953 2441 691 2322 
L 691 4666 
z
" transform="scale(0.015625)"/>
      <path id="DejaVuSans-Bold-2c" d="M 653 1209 
L 1778 1209 
L 1778 256 
L 1006 -909 
L 341 -909 
L 653 256 
L 653 1209 
z
" transform="scale(0.015625)"/>
      <path id="DejaVuSans-Oblique-45" d="M 1081 4666 
L 4031 4666 
L 3928 4134 
L 1606 4134 
L 1338 2753 
L 3566 2753 
L 3463 2222 
L 1234 2222 
L 909 531 
L 3284 531 
L 3181 0 
L 172 0 
L 1081 4666 
z
" transform="scale(0.015625)"/>
     </defs>
     <use xlink:href="#DejaVuSans-Oblique-43" transform="translate(0 0.78125)"/>
     <use xlink:href="#DejaVuSans-Oblique-70" transform="translate(69.824219 -15.625) scale(0.7)"/>
     <use xlink:href="#DejaVuSans-3d" transform="translate(136.474609 0.78125)"/>
     <use xlink:href="#DejaVuSans-30" transform="translate(239.746094 0.78125)"/>
     <use xlink:href="#DejaVuSans-2c" transform="translate(303.369141 0.78125)"/>
     <use xlink:href="#DejaVuSans-35" transform="translate(335.15625 0.78125)"/>
     <use xlink:href="#DejaVuSans-Bold-2c" transform="translate(398.779297 0.78125)"/>
     <use xlink:href="#DejaVuSans-Bold-20" transform="translate(436.767578 0.78125)"/>
     <use xlink:href="#DejaVuSans-Oblique-45" transform="translate(471.582031 0.78125)"/>
     <use xlink:href="#DejaVuSans-3d" transform="translate(554.248047 0.78125)"/>
     <use xlink:href="#DejaVuSans-31" transform="translate(657.519531 0.78125)"/>
     <use xlink:href="#DejaVuSans-34" transform="translate(721.142578 0.78125)"/>
     <use xlink:href="#DejaVuSans-2c" transform="translate(784.765625 0.78125)"/>
     <use xlink:href="#DejaVuSans-35" transform="translate(816.552734 0.78125)"/>
    </g>
   </g>
   <g id="patch_7">
    <path d="M 308.889352 202.263728 
Q 261.001155 214.019758 214.415913 225.455927 
" style="fill: none; stroke: #d32f2f; stroke-width: 1.2; stroke-linecap: round"/>
    <path d="M 218.341243 226.345746 
L 214.415913 225.455927 
L 217.482966 222.849554 
" style="fill: none; stroke: #d32f2f; stroke-width: 1.2; stroke-linecap: round"/>
   </g>
   <g id="text_22">
    <g id="patch_8">
     <path d="M 314.033437 208.021969 
L 369.743437 208.021969 
Q 372.443437 208.021969 372.443437 205.321969 
L 372.443437 184.911937 
Q 372.443437 182.211937 369.743437 182.211937 
L 314.033437 182.211937 
Q 311.333438 182.211937 311.333438 184.911937 
L 311.333438 205.321969 
Q 311.333438 208.021969 314.033437 208.021969 
z
" style="fill: #ffffff; opacity: 0.92; stroke: #808080; stroke-linejoin: miter"/>
    </g>
    <!-- $E_{max}$ = 16.4 -->
    <g style="fill: #d32f2f" transform="translate(314.033437 189.84225) scale(0.09 -0.09)">
     <defs>
      <path id="DejaVuSans-Oblique-6d" d="M 5747 2113 
L 5338 0 
L 4763 0 
L 5166 2094 
Q 5191 2228 5203 2325 
Q 5216 2422 5216 2491 
Q 5216 2772 5059 2928 
Q 4903 3084 4622 3084 
Q 4203 3084 3875 2770 
Q 3547 2456 3450 1953 
L 3066 0 
L 2491 0 
L 2900 2094 
Q 2925 2209 2937 2307 
Q 2950 2406 2950 2484 
Q 2950 2769 2794 2926 
Q 2638 3084 2363 3084 
Q 1938 3084 1609 2770 
Q 1281 2456 1184 1953 
L 800 0 
L 225 0 
L 909 3500 
L 1484 3500 
L 1375 2956 
Q 1609 3263 1923 3423 
Q 2238 3584 2597 3584 
Q 2978 3584 3223 3384 
Q 3469 3184 3519 2828 
Q 3781 3197 4126 3390 
Q 4472 3584 4856 3584 
Q 5306 3584 5551 3325 
Q 5797 3066 5797 2591 
Q 5797 2488 5784 2364 
Q 5772 2241 5747 2113 
z
" transform="scale(0.015625)"/>
      <path id="DejaVuSans-Oblique-61" d="M 3438 1997 
L 3047 0 
L 2472 0 
L 2578 531 
Q 2325 219 2001 64 
Q 1678 -91 1281 -91 
Q 834 -91 548 182 
Q 263 456 263 884 
Q 263 1497 752 1853 
Q 1241 2209 2100 2209 
L 2900 2209 
L 2931 2363 
Q 2938 2388 2941 2417 
Q 2944 2447 2944 2509 
Q 2944 2788 2717 2942 
Q 2491 3097 2081 3097 
Q 1800 3097 1504 3025 
Q 1209 2953 897 2809 
L 997 3341 
Q 1322 3463 1633 3523 
Q 1944 3584 2234 3584 
Q 2853 3584 3176 3315 
Q 3500 3047 3500 2534 
Q 3500 2431 3484 2292 
Q 3469 2153 3438 1997 
z
M 2816 1759 
L 2241 1759 
Q 1534 1759 1195 1570 
Q 856 1381 856 984 
Q 856 709 1029 553 
Q 1203 397 1509 397 
Q 1978 397 2328 733 
Q 2678 1069 2791 1631 
L 2816 1759 
z
" transform="scale(0.015625)"/>
      <path id="DejaVuSans-Oblique-78" d="M 3841 3500 
L 2234 1784 
L 3219 0 
L 2559 0 
L 1819 1388 
L 531 0 
L -166 0 
L 1556 1844 
L 641 3500 
L 1300 3500 
L 1972 2234 
L 3144 3500 
L 3841 3500 
z
" transform="scale(0.015625)"/>
      <path id="DejaVuSans-Bold-3d" d="M 678 3084 
L 4684 3084 
L 4684 2350 
L 678 2350 
L 678 3084 
z
M 678 1663 
L 4684 1663 
L 4684 922 
L 678 922 
L 678 1663 
z
" transform="scale(0.015625)"/>
      <path id="DejaVuSans-Bold-31" d="M 750 831 
L 1813 831 
L 1813 3847 
L 722 3622 
L 722 4441 
L 1806 4666 
L 2950 4666 
L 2950 831 
L 4013 831 
L 4013 0 
L 750 0 
L 750 831 
z
" transform="scale(0.015625)"/>
      <path id="DejaVuSans-Bold-36" d="M 2316 2303 
Q 2000 2303 1842 2098 
Q 1684 1894 1684 1484 
Q 1684 1075 1842 870 
Q 2000 666 2316 666 
Q 2634 666 2792 870 
Q 2950 1075 2950 1484 
Q 2950 1894 2792 2098 
Q 2634 2303 2316 2303 
z
M 3803 4544 
L 3803 3681 
Q 3506 3822 3243 3889 
Q 2981 3956 2731 3956 
Q 2194 3956 1894 3657 
Q 1594 3359 1544 2772 
Q 1750 2925 1990 3001 
Q 2231 3078 2516 3078 
Q 3231 3078 3670 2659 
Q 4109 2241 4109 1563 
Q 4109 813 3618 361 
Q 3128 -91 2303 -91 
Q 1394 -91 895 523 
Q 397 1138 397 2266 
Q 397 3422 980 4083 
Q 1563 4744 2578 4744 
Q 2900 4744 3203 4694 
Q 3506 4644 3803 4544 
z
" transform="scale(0.015625)"/>
      <path id="DejaVuSans-Bold-2e" d="M 653 1209 
L 1778 1209 
L 1778 0 
L 653 0 
L 653 1209 
z
" transform="scale(0.015625)"/>
      <path id="DejaVuSans-Bold-34" d="M 2356 3675 
L 1038 1722 
L 2356 1722 
L 2356 3675 
z
M 2156 4666 
L 3494 4666 
L 3494 1722 
L 4159 1722 
L 4159 850 
L 3494 850 
L 3494 0 
L 2356 0 
L 2356 850 
L 288 850 
L 288 1881 
L 2156 4666 
z
" transform="scale(0.015625)"/>
     </defs>
     <use xlink:href="#DejaVuSans-Oblique-45" transform="translate(0 0.875)"/>
     <use xlink:href="#DejaVuSans-Oblique-6d" transform="translate(63.183594 -15.53125) scale(0.7)"/>
     <use xlink:href="#DejaVuSans-Oblique-61" transform="translate(131.37207 -15.53125) scale(0.7)"/>
     <use xlink:href="#DejaVuSans-Oblique-78" transform="translate(174.267578 -15.53125) scale(0.7)"/>
     <use xlink:href="#DejaVuSans-Bold-20" transform="translate(218.427734 0.875)"/>
     <use xlink:href="#DejaVuSans-Bold-3d" transform="translate(253.242188 0.875)"/>
     <use xlink:href="#DejaVuSans-Bold-20" transform="translate(337.03125 0.875)"/>
     <use xlink:href="#DejaVuSans-Bold-31" transform="translate(371.845703 0.875)"/>
     <use xlink:href="#DejaVuSans-Bold-36" transform="translate(441.425781 0.875)"/>
     <use xlink:href="#DejaVuSans-Bold-2e" transform="translate(511.005859 0.875)"/>
     <use xlink:href="#DejaVuSans-Bold-34" transform="translate(548.994141 0.875)"/>
    </g>
    <!-- $C_p^*$ = 0,82 -->
    <g style="fill: #d32f2f" transform="translate(314.033437 201.541969) scale(0.09 -0.09)">
     <defs>
      <path id="DejaVuSans-2a" d="M 3009 3897 
L 1888 3291 
L 3009 2681 
L 2828 2375 
L 1778 3009 
L 1778 1831 
L 1422 1831 
L 1422 3009 
L 372 2375 
L 191 2681 
L 1313 3291 
L 191 3897 
L 372 4206 
L 1422 3572 
L 1422 4750 
L 1778 4750 
L 1778 3572 
L 2828 4206 
L 3009 3897 
z
" transform="scale(0.015625)"/>
      <path id="DejaVuSans-Bold-30" d="M 2944 2338 
Q 2944 3213 2780 3570 
Q 2616 3928 2228 3928 
Q 1841 3928 1675 3570 
Q 1509 3213 1509 2338 
Q 1509 1453 1675 1090 
Q 1841 728 2228 728 
Q 2613 728 2778 1090 
Q 2944 1453 2944 2338 
z
M 4147 2328 
Q 4147 1169 3647 539 
Q 3147 -91 2228 -91 
Q 1306 -91 806 539 
Q 306 1169 306 2328 
Q 306 3491 806 4120 
Q 1306 4750 2228 4750 
Q 3147 4750 3647 4120 
Q 4147 3491 4147 2328 
z
" transform="scale(0.015625)"/>
      <path id="DejaVuSans-Bold-38" d="M 2228 2088 
Q 1891 2088 1709 1903 
Q 1528 1719 1528 1375 
Q 1528 1031 1709 848 
Q 1891 666 2228 666 
Q 2563 666 2741 848 
Q 2919 1031 2919 1375 
Q 2919 1722 2741 1905 
Q 2563 2088 2228 2088 
z
M 1350 2484 
Q 925 2613 709 2878 
Q 494 3144 494 3541 
Q 494 4131 934 4440 
Q 1375 4750 2228 4750 
Q 3075 4750 3515 4442 
Q 3956 4134 3956 3541 
Q 3956 3144 3739 2878 
Q 3522 2613 3097 2484 
Q 3572 2353 3814 2058 
Q 4056 1763 4056 1313 
Q 4056 619 3595 264 
Q 3134 -91 2228 -91 
Q 1319 -91 855 264 
Q 391 619 391 1313 
Q 391 1763 633 2058 
Q 875 2353 1350 2484 
z
M 1631 3419 
Q 1631 3141 1786 2991 
Q 1941 2841 2228 2841 
Q 2509 2841 2662 2991 
Q 2816 3141 2816 3419 
Q 2816 3697 2662 3845 
Q 2509 3994 2228 3994 
Q 1941 3994 1786 3844 
Q 1631 3694 1631 3419 
z
" transform="scale(0.015625)"/>
      <path id="DejaVuSans-Bold-32" d="M 1844 884 
L 3897 884 
L 3897 0 
L 506 0 
L 506 884 
L 2209 2388 
Q 2438 2594 2547 2791 
Q 2656 2988 2656 3200 
Q 2656 3528 2436 3728 
Q 2216 3928 1850 3928 
Q 1569 3928 1234 3808 
Q 900 3688 519 3450 
L 519 4475 
Q 925 4609 1322 4679 
Q 1719 4750 2100 4750 
Q 2938 4750 3402 4381 
Q 3866 4013 3866 3353 
Q 3866 2972 3669 2642 
Q 3472 2313 2841 1759 
L 1844 884 
z
" transform="scale(0.015625)"/>
     </defs>
     <use xlink:href="#DejaVuSans-Oblique-43" transform="translate(0 0.765625)"/>
     <use xlink:href="#DejaVuSans-2a" transform="translate(90.662435 39.046875) scale(0.7)"/>
     <use xlink:href="#DejaVuSans-Oblique-70" transform="translate(69.824219 -26.578125) scale(0.7)"/>
     <use xlink:href="#DejaVuSans-Bold-20" transform="translate(142.034505 0.765625)"/>
     <use xlink:href="#DejaVuSans-Bold-3d" transform="translate(176.848958 0.765625)"/>
     <use xlink:href="#DejaVuSans-Bold-20" transform="translate(260.638021 0.765625)"/>
     <use xlink:href="#DejaVuSans-Bold-30" transform="translate(295.452474 0.765625)"/>
     <use xlink:href="#DejaVuSans-Bold-2c" transform="translate(365.032552 0.765625)"/>
     <use xlink:href="#DejaVuSans-Bold-38" transform="translate(403.020833 0.765625)"/>
     <use xlink:href="#DejaVuSans-Bold-32" transform="translate(472.600911 0.765625)"/>
    </g>
   </g>
   <g id="patch_9">
    <path d="M 441.853136 90.026797 
Q 398.693678 102.733742 356.821239 115.061765 
" style="fill: none; stroke: #7b1fa2; stroke-width: 1.2; stroke-linecap: round"/>
    <path d="M 360.783051 115.771727 
L 356.821239 115.061765 
L 359.766296 112.318292 
" style="fill: none; stroke: #7b1fa2; stroke-width: 1.2; stroke-linecap: round"/>
   </g>
   <g id="text_23">
    <g id="patch_10">
     <path d="M 446.968732 92.443969 
L 503.758732 92.443969 
Q 506.458732 92.443969 506.458732 89.743969 
L 506.458732 70.955625 
Q 506.458732 68.255625 503.758732 68.255625 
L 446.968732 68.255625 
Q 444.268732 68.255625 444.268732 70.955625 
L 444.268732 89.743969 
Q 444.268732 92.443969 446.968732 92.443969 
z
" style="fill: #ffffff; opacity: 0.92; stroke: #808080; stroke-linejoin: miter"/>
    </g>
    <!-- Stallo -->
    <g style="fill: #7b1fa2" transform="translate(446.968732 77.415937) scale(0.09 -0.09)">
     <defs>
      <path id="DejaVuSans-Bold-53" d="M 3834 4519 
L 3834 3531 
Q 3450 3703 3084 3790 
Q 2719 3878 2394 3878 
Q 1963 3878 1756 3759 
Q 1550 3641 1550 3391 
Q 1550 3203 1689 3098 
Q 1828 2994 2194 2919 
L 2706 2816 
Q 3484 2659 3812 2340 
Q 4141 2022 4141 1434 
Q 4141 663 3683 286 
Q 3225 -91 2284 -91 
Q 1841 -91 1394 -6 
Q 947 78 500 244 
L 500 1259 
Q 947 1022 1364 901 
Q 1781 781 2169 781 
Q 2563 781 2772 912 
Q 2981 1044 2981 1288 
Q 2981 1506 2839 1625 
Q 2697 1744 2272 1838 
L 1806 1941 
Q 1106 2091 782 2419 
Q 459 2747 459 3303 
Q 459 4000 909 4375 
Q 1359 4750 2203 4750 
Q 2588 4750 2994 4692 
Q 3400 4634 3834 4519 
z
" transform="scale(0.015625)"/>
      <path id="DejaVuSans-Bold-74" d="M 1759 4494 
L 1759 3500 
L 2913 3500 
L 2913 2700 
L 1759 2700 
L 1759 1216 
Q 1759 972 1856 886 
Q 1953 800 2241 800 
L 2816 800 
L 2816 0 
L 1856 0 
Q 1194 0 917 276 
Q 641 553 641 1216 
L 641 2700 
L 84 2700 
L 84 3500 
L 641 3500 
L 641 4494 
L 1759 4494 
z
" transform="scale(0.015625)"/>
     </defs>
     <use xlink:href="#DejaVuSans-Bold-53"/>
     <use xlink:href="#DejaVuSans-Bold-74" x="72.021484"/>
     <use xlink:href="#DejaVuSans-Bold-61" x="119.824219"/>
     <use xlink:href="#DejaVuSans-Bold-6c" x="187.304688"/>
     <use xlink:href="#DejaVuSans-Bold-6c" x="221.582031"/>
     <use xlink:href="#DejaVuSans-Bold-6f" x="255.859375"/>
    </g>
    <!-- $C_{L,max}$ = 1,4 -->
    <g style="fill: #7b1fa2" transform="translate(446.968732 87.493969) scale(0.09 -0.09)">
     <defs>
      <path id="DejaVuSans-Oblique-4c" d="M 1075 4666 
L 1709 4666 
L 909 525 
L 3181 525 
L 3078 0 
L 172 0 
L 1075 4666 
z
" transform="scale(0.015625)"/>
     </defs>
     <use xlink:href="#DejaVuSans-Oblique-43" transform="translate(0 0.78125)"/>
     <use xlink:href="#DejaVuSans-Oblique-4c" transform="translate(69.824219 -15.625) scale(0.7)"/>
     <use xlink:href="#DejaVuSans-2c" transform="translate(108.823242 -15.625) scale(0.7)"/>
     <use xlink:href="#DejaVuSans-Oblique-6d" transform="translate(144.711914 -15.625) scale(0.7)"/>
     <use xlink:href="#DejaVuSans-Oblique-61" transform="translate(212.900391 -15.625) scale(0.7)"/>
     <use xlink:href="#DejaVuSans-Oblique-78" transform="translate(255.795898 -15.625) scale(0.7)"/>
     <use xlink:href="#DejaVuSans-Bold-20" transform="translate(299.956055 0.78125)"/>
     <use xlink:href="#DejaVuSans-Bold-3d" transform="translate(334.770508 0.78125)"/>
     <use xlink:href="#DejaVuSans-Bold-20" transform="translate(418.55957 0.78125)"/>
     <use xlink:href="#DejaVuSans-Bold-31" transform="translate(453.374023 0.78125)"/>
     <use xlink:href="#DejaVuSans-Bold-2c" transform="translate(522.954102 0.78125)"/>
     <use xlink:href="#DejaVuSans-Bold-34" transform="translate(560.942383 0.78125)"/>
    </g>
   </g>
   <g id="text_24">
    <!-- $C_{D,0}$ = 0,025 -->
    <g style="fill: #666666" transform="translate(139.740496 362.157656) scale(0.09 -0.09)">
     <defs>
      <path id="DejaVuSans-Oblique-44" d="M 1081 4666 
L 2438 4666 
Q 3519 4666 4070 4208 
Q 4622 3750 4622 2847 
Q 4622 2250 4412 1698 
Q 4203 1147 3834 769 
Q 3463 381 2891 190 
Q 2319 0 1538 0 
L 172 0 
L 1081 4666 
z
M 1613 4147 
L 909 519 
L 1734 519 
Q 2794 519 3375 1128 
Q 3956 1738 3956 2847 
Q 3956 3519 3581 3833 
Q 3206 4147 2406 4147 
L 1613 4147 
z
" transform="scale(0.015625)"/>
      <path id="DejaVuSans-Oblique-20" transform="scale(0.015625)"/>
      <path id="DejaVuSans-Oblique-3d" d="M 678 2906 
L 4684 2906 
L 4684 2381 
L 678 2381 
L 678 2906 
z
M 678 1631 
L 4684 1631 
L 4684 1100 
L 678 1100 
L 678 1631 
z
" transform="scale(0.015625)"/>
      <path id="DejaVuSans-Oblique-30" d="M 2444 4750 
Q 3078 4750 3414 4328 
Q 3750 3906 3750 3116 
Q 3750 2516 3592 1923 
Q 3434 1331 3150 863 
Q 2859 394 2467 151 
Q 2075 -91 1600 -91 
Q 988 -91 653 334 
Q 319 759 319 1544 
Q 319 2138 480 2733 
Q 641 3328 928 3794 
Q 1216 4263 1602 4506 
Q 1988 4750 2444 4750 
z
M 2406 4250 
Q 2169 4250 1955 4123 
Q 1741 3997 1569 3750 
Q 1281 3338 1111 2720 
Q 941 2103 941 1453 
Q 941 938 1123 673 
Q 1306 409 1663 409 
Q 1913 409 2125 536 
Q 2338 663 2509 909 
Q 2794 1319 2961 1936 
Q 3128 2553 3128 3206 
Q 3128 3722 2945 3986 
Q 2763 4250 2406 4250 
z
" transform="scale(0.015625)"/>
      <path id="DejaVuSans-Oblique-2c" d="M 575 794 
L 1234 794 
L 1131 256 
L 422 -744 
L 19 -744 
L 469 256 
L 575 794 
z
" transform="scale(0.015625)"/>
      <path id="DejaVuSans-Oblique-32" d="M 2950 2253 
L 934 525 
L 3163 525 
L 3053 0 
L 25 0 
L 128 531 
L 2234 2338 
Q 2656 2703 2832 2979 
Q 3009 3256 3009 3547 
Q 3009 3850 2796 4040 
Q 2584 4231 2241 4231 
Q 1944 4231 1581 4125 
Q 1219 4019 806 3816 
L 922 4441 
Q 1309 4594 1662 4672 
Q 2016 4750 2316 4750 
Q 2928 4750 3301 4425 
Q 3675 4100 3675 3572 
Q 3675 3216 3497 2892 
Q 3319 2569 2950 2253 
z
" transform="scale(0.015625)"/>
      <path id="DejaVuSans-Oblique-35" d="M 3719 4666 
L 3622 4141 
L 1691 4141 
L 1466 2988 
Q 1609 3034 1757 3056 
Q 1906 3078 2059 3078 
Q 2706 3078 3081 2731 
Q 3456 2384 3456 1791 
Q 3456 1375 3264 994 
Q 3072 613 2719 325 
Q 2469 125 2108 17 
Q 1747 -91 1319 -91 
Q 1038 -91 744 -41 
Q 450 9 128 109 
L 244 697 
Q 531 556 820 486 
Q 1109 416 1403 416 
Q 2013 416 2411 781 
Q 2809 1147 2809 1697 
Q 2809 2103 2548 2328 
Q 2288 2553 1819 2553 
Q 1572 2553 1305 2495 
Q 1038 2438 756 2322 
L 1209 4666 
L 3719 4666 
z
" transform="scale(0.015625)"/>
     </defs>
     <use xlink:href="#DejaVuSans-Oblique-43" transform="translate(0 0.78125)"/>
     <use xlink:href="#DejaVuSans-Oblique-44" transform="translate(69.824219 -15.625) scale(0.7)"/>
     <use xlink:href="#DejaVuSans-2c" transform="translate(123.725586 -15.625) scale(0.7)"/>
     <use xlink:href="#DejaVuSans-30" transform="translate(159.614258 -15.625) scale(0.7)"/>
     <use xlink:href="#DejaVuSans-Oblique-20" transform="translate(206.884766 0.78125)"/>
     <use xlink:href="#DejaVuSans-Oblique-3d" transform="translate(238.671875 0.78125)"/>
     <use xlink:href="#DejaVuSans-Oblique-20" transform="translate(322.460938 0.78125)"/>
     <use xlink:href="#DejaVuSans-Oblique-30" transform="translate(354.248047 0.78125)"/>
     <use xlink:href="#DejaVuSans-Oblique-2c" transform="translate(417.871094 0.78125)"/>
     <use xlink:href="#DejaVuSans-Oblique-30" transform="translate(449.658203 0.78125)"/>
     <use xlink:href="#DejaVuSans-Oblique-32" transform="translate(513.28125 0.78125)"/>
     <use xlink:href="#DejaVuSans-Oblique-35" transform="translate(576.904297 0.78125)"/>
    </g>
    <!-- (asintoto) -->
    <g style="fill: #666666" transform="translate(139.740496 372.613969) scale(0.09 -0.09)">
     <defs>
      <path id="DejaVuSans-Oblique-28" d="M 2731 4856 
Q 1903 3822 1495 2892 
Q 1088 1963 1088 1100 
Q 1088 606 1206 120 
Q 1325 -366 1563 -844 
L 1063 -844 
Q 775 -306 634 201 
Q 494 709 494 1197 
Q 494 2125 923 3036 
Q 1353 3947 2222 4856 
L 2731 4856 
z
" transform="scale(0.015625)"/>
      <path id="DejaVuSans-Oblique-73" d="M 3200 3397 
L 3091 2853 
Q 2863 2978 2609 3040 
Q 2356 3103 2088 3103 
Q 1634 3103 1373 2948 
Q 1113 2794 1113 2528 
Q 1113 2219 1719 2053 
Q 1766 2041 1788 2034 
L 1972 1978 
Q 2547 1819 2739 1644 
Q 2931 1469 2931 1166 
Q 2931 609 2489 259 
Q 2047 -91 1331 -91 
Q 1053 -91 747 -37 
Q 441 16 72 128 
L 184 722 
Q 500 559 806 475 
Q 1113 391 1394 391 
Q 1816 391 2080 572 
Q 2344 753 2344 1031 
Q 2344 1331 1650 1516 
L 1591 1531 
L 1394 1581 
Q 956 1697 753 1886 
Q 550 2075 550 2369 
Q 550 2928 970 3256 
Q 1391 3584 2113 3584 
Q 2397 3584 2667 3537 
Q 2938 3491 3200 3397 
z
" transform="scale(0.015625)"/>
      <path id="DejaVuSans-Oblique-69" d="M 1172 4863 
L 1747 4863 
L 1606 4134 
L 1031 4134 
L 1172 4863 
z
M 909 3500 
L 1484 3500 
L 800 0 
L 225 0 
L 909 3500 
z
" transform="scale(0.015625)"/>
      <path id="DejaVuSans-Oblique-6e" d="M 3566 2113 
L 3156 0 
L 2578 0 
L 2988 2091 
Q 3016 2238 3031 2350 
Q 3047 2463 3047 2528 
Q 3047 2791 2881 2937 
Q 2716 3084 2419 3084 
Q 1956 3084 1622 2776 
Q 1288 2469 1184 1941 
L 800 0 
L 225 0 
L 903 3500 
L 1478 3500 
L 1363 2950 
Q 1603 3253 1940 3418 
Q 2278 3584 2650 3584 
Q 3113 3584 3367 3334 
Q 3622 3084 3622 2631 
Q 3622 2519 3608 2391 
Q 3594 2263 3566 2113 
z
" transform="scale(0.015625)"/>
      <path id="DejaVuSans-Oblique-74" d="M 2706 3500 
L 2619 3053 
L 1472 3053 
L 1100 1153 
Q 1081 1047 1072 975 
Q 1063 903 1063 863 
Q 1063 663 1183 572 
Q 1303 481 1569 481 
L 2150 481 
L 2053 0 
L 1503 0 
Q 991 0 739 200 
Q 488 400 488 806 
Q 488 878 497 964 
Q 506 1050 525 1153 
L 897 3053 
L 409 3053 
L 500 3500 
L 978 3500 
L 1172 4494 
L 1747 4494 
L 1556 3500 
L 2706 3500 
z
" transform="scale(0.015625)"/>
      <path id="DejaVuSans-Oblique-6f" d="M 1625 -91 
Q 1009 -91 651 289 
Q 294 669 294 1325 
Q 294 1706 417 2101 
Q 541 2497 738 2766 
Q 1047 3184 1428 3384 
Q 1809 3584 2291 3584 
Q 2888 3584 3255 3212 
Q 3622 2841 3622 2241 
Q 3622 1825 3500 1412 
Q 3378 1000 3181 728 
Q 2875 309 2494 109 
Q 2113 -91 1625 -91 
z
M 891 1344 
Q 891 869 1089 633 
Q 1288 397 1691 397 
Q 2269 397 2648 901 
Q 3028 1406 3028 2181 
Q 3028 2634 2825 2865 
Q 2622 3097 2228 3097 
Q 1903 3097 1650 2945 
Q 1397 2794 1197 2484 
Q 1050 2253 970 1956 
Q 891 1659 891 1344 
z
" transform="scale(0.015625)"/>
      <path id="DejaVuSans-Oblique-29" d="M -397 -844 
Q 434 191 840 1120 
Q 1247 2050 1247 2913 
Q 1247 3406 1130 3892 
Q 1013 4378 775 4856 
L 1275 4856 
Q 1563 4316 1703 3812 
Q 1844 3309 1844 2822 
Q 1844 1891 1411 973 
Q 978 56 116 -844 
L -397 -844 
z
" transform="scale(0.015625)"/>
     </defs>
     <use xlink:href="#DejaVuSans-Oblique-28"/>
     <use xlink:href="#DejaVuSans-Oblique-61" x="39.013672"/>
     <use xlink:href="#DejaVuSans-Oblique-73" x="100.292969"/>
     <use xlink:href="#DejaVuSans-Oblique-69" x="152.392578"/>
     <use xlink:href="#DejaVuSans-Oblique-6e" x="180.175781"/>
     <use xlink:href="#DejaVuSans-Oblique-74" x="243.554688"/>
     <use xlink:href="#DejaVuSans-Oblique-6f" x="282.763672"/>
     <use xlink:href="#DejaVuSans-Oblique-74" x="343.945312"/>
     <use xlink:href="#DejaVuSans-Oblique-6f" x="383.154297"/>
     <use xlink:href="#DejaVuSans-Oblique-29" x="444.335938"/>
    </g>
   </g>
   <g id="text_25">
    <!-- Polare del Boeing 737-800 (modello del liceo) -->
    <g transform="translate(165.895391 31.477969) scale(0.13 -0.13)">
     <defs>
      <path id="DejaVuSans-50" d="M 1259 4147 
L 1259 2394 
L 2053 2394 
Q 2494 2394 2734 2622 
Q 2975 2850 2975 3272 
Q 2975 3691 2734 3919 
Q 2494 4147 2053 4147 
L 1259 4147 
z
M 628 4666 
L 2053 4666 
Q 2838 4666 3239 4311 
Q 3641 3956 3641 3272 
Q 3641 2581 3239 2228 
Q 2838 1875 2053 1875 
L 1259 1875 
L 1259 0 
L 628 0 
L 628 4666 
z
" transform="scale(0.015625)"/>
      <path id="DejaVuSans-6c" d="M 603 4863 
L 1178 4863 
L 1178 0 
L 603 0 
L 603 4863 
z
" transform="scale(0.015625)"/>
      <path id="DejaVuSans-42" d="M 1259 2228 
L 1259 519 
L 2272 519 
Q 2781 519 3026 730 
Q 3272 941 3272 1375 
Q 3272 1813 3026 2020 
Q 2781 2228 2272 2228 
L 1259 2228 
z
M 1259 4147 
L 1259 2741 
L 2194 2741 
Q 2656 2741 2882 2914 
Q 3109 3088 3109 3444 
Q 3109 3797 2882 3972 
Q 2656 4147 2194 4147 
L 1259 4147 
z
M 628 4666 
L 2241 4666 
Q 2963 4666 3353 4366 
Q 3744 4066 3744 3513 
Q 3744 3084 3544 2831 
Q 3344 2578 2956 2516 
Q 3422 2416 3680 2098 
Q 3938 1781 3938 1306 
Q 3938 681 3513 340 
Q 3088 0 2303 0 
L 628 0 
L 628 4666 
z
" transform="scale(0.015625)"/>
      <path id="DejaVuSans-67" d="M 2906 1791 
Q 2906 2416 2648 2759 
Q 2391 3103 1925 3103 
Q 1463 3103 1205 2759 
Q 947 2416 947 1791 
Q 947 1169 1205 825 
Q 1463 481 1925 481 
Q 2391 481 2648 825 
Q 2906 1169 2906 1791 
z
M 3481 434 
Q 3481 -459 3084 -895 
Q 2688 -1331 1869 -1331 
Q 1566 -1331 1297 -1286 
Q 1028 -1241 775 -1147 
L 775 -588 
Q 1028 -725 1275 -790 
Q 1522 -856 1778 -856 
Q 2344 -856 2625 -561 
Q 2906 -266 2906 331 
L 2906 616 
Q 2728 306 2450 153 
Q 2172 0 1784 0 
Q 1141 0 747 490 
Q 353 981 353 1791 
Q 353 2603 747 3093 
Q 1141 3584 1784 3584 
Q 2172 3584 2450 3431 
Q 2728 3278 2906 2969 
L 2906 3500 
L 3481 3500 
L 3481 434 
z
" transform="scale(0.015625)"/>
      <path id="DejaVuSans-37" d="M 525 4666 
L 3525 4666 
L 3525 4397 
L 1831 0 
L 1172 0 
L 2766 4134 
L 525 4134 
L 525 4666 
z
" transform="scale(0.015625)"/>
      <path id="DejaVuSans-33" d="M 2597 2516 
Q 3050 2419 3304 2112 
Q 3559 1806 3559 1356 
Q 3559 666 3084 287 
Q 2609 -91 1734 -91 
Q 1441 -91 1130 -33 
Q 819 25 488 141 
L 488 750 
Q 750 597 1062 519 
Q 1375 441 1716 441 
Q 2309 441 2620 675 
Q 2931 909 2931 1356 
Q 2931 1769 2642 2001 
Q 2353 2234 1838 2234 
L 1294 2234 
L 1294 2753 
L 1863 2753 
Q 2328 2753 2575 2939 
Q 2822 3125 2822 3475 
Q 2822 3834 2567 4026 
Q 2313 4219 1838 4219 
Q 1578 4219 1281 4162 
Q 984 4106 628 3988 
L 628 4550 
Q 988 4650 1302 4700 
Q 1616 4750 1894 4750 
Q 2613 4750 3031 4423 
Q 3450 4097 3450 3541 
Q 3450 3153 3228 2886 
Q 3006 2619 2597 2516 
z
" transform="scale(0.015625)"/>
      <path id="DejaVuSans-2d" d="M 313 2009 
L 1997 2009 
L 1997 1497 
L 313 1497 
L 313 2009 
z
" transform="scale(0.015625)"/>
      <path id="DejaVuSans-28" d="M 1984 4856 
Q 1566 4138 1362 3434 
Q 1159 2731 1159 2009 
Q 1159 1288 1364 580 
Q 1569 -128 1984 -844 
L 1484 -844 
Q 1016 -109 783 600 
Q 550 1309 550 2009 
Q 550 2706 781 3412 
Q 1013 4119 1484 4856 
L 1984 4856 
z
" transform="scale(0.015625)"/>
      <path id="DejaVuSans-6d" d="M 3328 2828 
Q 3544 3216 3844 3400 
Q 4144 3584 4550 3584 
Q 5097 3584 5394 3201 
Q 5691 2819 5691 2113 
L 5691 0 
L 5113 0 
L 5113 2094 
Q 5113 2597 4934 2840 
Q 4756 3084 4391 3084 
Q 3944 3084 3684 2787 
Q 3425 2491 3425 1978 
L 3425 0 
L 2847 0 
L 2847 2094 
Q 2847 2600 2669 2842 
Q 2491 3084 2119 3084 
Q 1678 3084 1418 2786 
Q 1159 2488 1159 1978 
L 1159 0 
L 581 0 
L 581 3500 
L 1159 3500 
L 1159 2956 
Q 1356 3278 1631 3431 
Q 1906 3584 2284 3584 
Q 2666 3584 2933 3390 
Q 3200 3197 3328 2828 
z
" transform="scale(0.015625)"/>
      <path id="DejaVuSans-29" d="M 513 4856 
L 1013 4856 
Q 1481 4119 1714 3412 
Q 1947 2706 1947 2009 
Q 1947 1309 1714 600 
Q 1481 -109 1013 -844 
L 513 -844 
Q 928 -128 1133 580 
Q 1338 1288 1338 2009 
Q 1338 2731 1133 3434 
Q 928 4138 513 4856 
z
" transform="scale(0.015625)"/>
     </defs>
     <use xlink:href="#DejaVuSans-50"/>
     <use xlink:href="#DejaVuSans-6f" x="56.677734"/>
     <use xlink:href="#DejaVuSans-6c" x="117.859375"/>
     <use xlink:href="#DejaVuSans-61" x="145.642578"/>
     <use xlink:href="#DejaVuSans-72" x="206.921875"/>
     <use xlink:href="#DejaVuSans-65" x="245.785156"/>
     <use xlink:href="#DejaVuSans-20" x="307.308594"/>
     <use xlink:href="#DejaVuSans-64" x="339.095703"/>
     <use xlink:href="#DejaVuSans-65" x="402.572266"/>
     <use xlink:href="#DejaVuSans-6c" x="464.095703"/>
     <use xlink:href="#DejaVuSans-20" x="491.878906"/>
     <use xlink:href="#DejaVuSans-42" x="523.666016"/>
     <use xlink:href="#DejaVuSans-6f" x="592.269531"/>
     <use xlink:href="#DejaVuSans-65" x="653.451172"/>
     <use xlink:href="#DejaVuSans-69" x="714.974609"/>
     <use xlink:href="#DejaVuSans-6e" x="742.757812"/>
     <use xlink:href="#DejaVuSans-67" x="806.136719"/>
     <use xlink:href="#DejaVuSans-20" x="869.613281"/>
     <use xlink:href="#DejaVuSans-37" x="901.400391"/>
     <use xlink:href="#DejaVuSans-33" x="965.023438"/>
     <use xlink:href="#DejaVuSans-37" x="1028.646484"/>
     <use xlink:href="#DejaVuSans-2d" x="1092.269531"/>
     <use xlink:href="#DejaVuSans-38" x="1128.353516"/>
     <use xlink:href="#DejaVuSans-30" x="1191.976562"/>
     <use xlink:href="#DejaVuSans-30" x="1255.599609"/>
     <use xlink:href="#DejaVuSans-20" x="1319.222656"/>
     <use xlink:href="#DejaVuSans-28" x="1351.009766"/>
     <use xlink:href="#DejaVuSans-6d" x="1390.023438"/>
     <use xlink:href="#DejaVuSans-6f" x="1487.435547"/>
     <use xlink:href="#DejaVuSans-64" x="1548.617188"/>
     <use xlink:href="#DejaVuSans-65" x="1612.09375"/>
     <use xlink:href="#DejaVuSans-6c" x="1673.617188"/>
     <use xlink:href="#DejaVuSans-6c" x="1701.400391"/>
     <use xlink:href="#DejaVuSans-6f" x="1729.183594"/>
     <use xlink:href="#DejaVuSans-20" x="1790.365234"/>
     <use xlink:href="#DejaVuSans-64" x="1822.152344"/>
     <use xlink:href="#DejaVuSans-65" x="1885.628906"/>
     <use xlink:href="#DejaVuSans-6c" x="1947.152344"/>
     <use xlink:href="#DejaVuSans-20" x="1974.935547"/>
     <use xlink:href="#DejaVuSans-6c" x="2006.722656"/>
     <use xlink:href="#DejaVuSans-69" x="2034.505859"/>
     <use xlink:href="#DejaVuSans-63" x="2062.289062"/>
     <use xlink:href="#DejaVuSans-65" x="2117.269531"/>
     <use xlink:href="#DejaVuSans-6f" x="2178.792969"/>
     <use xlink:href="#DejaVuSans-29" x="2239.974609"/>
    </g>
   </g>
   <g id="PathCollection_1">
    <defs>
     <path id="m2c70f89247" d="M 0 4.1833 
C 1.109424 4.1833 2.173559 3.742521 2.95804 2.95804 
C 3.742521 2.173559 4.1833 1.109424 4.1833 0 
C 4.1833 -1.109424 3.742521 -2.173559 2.95804 -2.95804 
C 2.173559 -3.742521 1.109424 -4.1833 0 -4.1833 
C -1.109424 -4.1833 -2.173559 -3.742521 -2.95804 -2.95804 
C -3.742521 -2.173559 -4.1833 -1.109424 -4.1833 0 
C -4.1833 1.109424 -3.742521 2.173559 -2.95804 2.95804 
C -2.173559 3.742521 -1.109424 4.1833 0 4.1833 
z
" style="stroke: #000000; stroke-width: 1.2"/>
    </defs>
    <g clip-path="url(#p0ee686a813)">
     <use xlink:href="#m2c70f89247" x="137.892643" y="363.109969" style="fill: #1976d2; stroke: #000000; stroke-width: 1.2"/>
     <use xlink:href="#m2c70f89247" x="141.211437" y="344.101969" style="fill: #1976d2; stroke: #000000; stroke-width: 1.2"/>
     <use xlink:href="#m2c70f89247" x="146.742759" y="325.093969" style="fill: #1976d2; stroke: #000000; stroke-width: 1.2"/>
     <use xlink:href="#m2c70f89247" x="154.486611" y="306.085969" style="fill: #1976d2; stroke: #000000; stroke-width: 1.2"/>
     <use xlink:href="#m2c70f89247" x="164.442992" y="287.077969" style="fill: #1976d2; stroke: #000000; stroke-width: 1.2"/>
     <use xlink:href="#m2c70f89247" x="176.611902" y="268.069969" style="fill: #1976d2; stroke: #000000; stroke-width: 1.2"/>
     <use xlink:href="#m2c70f89247" x="211.171606" y="226.252369" style="fill: #1976d2; stroke: #000000; stroke-width: 1.2"/>
     <use xlink:href="#m2c70f89247" x="247.412832" y="192.037969" style="fill: #1976d2; stroke: #000000; stroke-width: 1.2"/>
     <use xlink:href="#m2c70f89247" x="296.088471" y="154.021969" style="fill: #1976d2; stroke: #000000; stroke-width: 1.2"/>
     <use xlink:href="#m2c70f89247" x="353.614227" y="116.005969" style="fill: #1976d2; stroke: #000000; stroke-width: 1.2"/>
    </g>
   </g>
   <g id="legend_1">
    <g id="patch_11">
     <path d="M 379.373438 377.617969 
L 558.833438 377.617969 
Q 560.633438 377.617969 560.633438 375.817969 
L 560.633438 347.017969 
Q 560.633438 345.217969 558.833438 345.217969 
L 379.373438 345.217969 
Q 377.573438 345.217969 377.573438 347.017969 
L 377.573438 375.817969 
Q 377.573438 377.617969 379.373438 377.617969 
z
" style="fill: #ffffff; opacity: 0.8; stroke: #cccccc; stroke-linejoin: miter"/>
    </g>
    <g id="line2d_40">
     <path d="M 381.173438 353.857969 
L 390.173438 353.857969 
L 399.173438 353.857969 
" style="fill: none; stroke: #1976d2; stroke-width: 2.5; stroke-linecap: square"/>
    </g>
    <g id="text_26">
     <!-- Polare $C_R = C_{D,0} + C_p^2/(πλe)$ -->
     <g transform="translate(406.373438 357.007969) scale(0.09 -0.09)">
      <defs>
       <path id="DejaVuSans-2b" d="M 2944 4013 
L 2944 2272 
L 4684 2272 
L 4684 1741 
L 2944 1741 
L 2944 0 
L 2419 0 
L 2419 1741 
L 678 1741 
L 678 2272 
L 2419 2272 
L 2419 4013 
L 2944 4013 
z
" transform="scale(0.015625)"/>
       <path id="DejaVuSans-2f" d="M 1625 4666 
L 2156 4666 
L 531 -594 
L 0 -594 
L 1625 4666 
z
" transform="scale(0.015625)"/>
       <path id="DejaVuSans-Oblique-3c0" d="M 584 3500 
L 3938 3500 
L 3825 2925 
L 3384 2925 
L 2966 775 
Q 2922 550 2981 450 
Q 3038 353 3209 353 
Q 3256 353 3325 363 
Q 3397 369 3419 372 
L 3338 -44 
Q 3222 -84 3103 -103 
Q 2981 -122 2866 -122 
Q 2491 -122 2388 81 
Q 2284 288 2391 838 
L 2797 2925 
L 1506 2925 
L 938 0 
L 350 0 
L 919 2925 
L 472 2925 
L 584 3500 
z
" transform="scale(0.015625)"/>
       <path id="DejaVuSans-Oblique-3bb" d="M 2350 4316 
L 3125 0 
L 2516 0 
L 2038 2588 
L 328 0 
L -281 0 
L 1903 3356 
L 1794 3975 
Q 1725 4369 1391 4369 
L 1091 4369 
L 1184 4863 
L 1550 4856 
Q 2253 4847 2350 4316 
z
" transform="scale(0.015625)"/>
       <path id="DejaVuSans-Oblique-65" d="M 3078 2063 
Q 3088 2113 3092 2166 
Q 3097 2219 3097 2272 
Q 3097 2653 2873 2875 
Q 2650 3097 2266 3097 
Q 1838 3097 1509 2826 
Q 1181 2556 1013 2059 
L 3078 2063 
z
M 3578 1613 
L 903 1613 
Q 884 1494 878 1425 
Q 872 1356 872 1306 
Q 872 872 1139 634 
Q 1406 397 1894 397 
Q 2269 397 2603 481 
Q 2938 566 3225 728 
L 3116 159 
Q 2806 34 2476 -28 
Q 2147 -91 1806 -91 
Q 1078 -91 686 257 
Q 294 606 294 1247 
Q 294 1794 489 2264 
Q 684 2734 1063 3103 
Q 1306 3334 1642 3459 
Q 1978 3584 2356 3584 
Q 2950 3584 3301 3228 
Q 3653 2872 3653 2272 
Q 3653 2128 3634 1964 
Q 3616 1800 3578 1613 
z
" transform="scale(0.015625)"/>
      </defs>
      <use xlink:href="#DejaVuSans-50" transform="translate(0 0.765625)"/>
      <use xlink:href="#DejaVuSans-6f" transform="translate(60.302734 0.765625)"/>
      <use xlink:href="#DejaVuSans-6c" transform="translate(121.484375 0.765625)"/>
      <use xlink:href="#DejaVuSans-61" transform="translate(149.267578 0.765625)"/>
      <use xlink:href="#DejaVuSans-72" transform="translate(210.546875 0.765625)"/>
      <use xlink:href="#DejaVuSans-65" transform="translate(251.660156 0.765625)"/>
      <use xlink:href="#DejaVuSans-20" transform="translate(313.183594 0.765625)"/>
      <use xlink:href="#DejaVuSans-Oblique-43" transform="translate(344.970703 0.765625)"/>
      <use xlink:href="#DejaVuSans-Oblique-52" transform="translate(414.794922 -15.640625) scale(0.7)"/>
      <use xlink:href="#DejaVuSans-3d" transform="translate(485.649414 0.765625)"/>
      <use xlink:href="#DejaVuSans-Oblique-43" transform="translate(588.920898 0.765625)"/>
      <use xlink:href="#DejaVuSans-Oblique-44" transform="translate(658.745117 -15.640625) scale(0.7)"/>
      <use xlink:href="#DejaVuSans-2c" transform="translate(712.646484 -15.640625) scale(0.7)"/>
      <use xlink:href="#DejaVuSans-30" transform="translate(748.535156 -15.640625) scale(0.7)"/>
      <use xlink:href="#DejaVuSans-2b" transform="translate(815.288086 0.765625)"/>
      <use xlink:href="#DejaVuSans-Oblique-43" transform="translate(918.55957 0.765625)"/>
      <use xlink:href="#DejaVuSans-32" transform="translate(995.58431 39.046875) scale(0.7)"/>
      <use xlink:href="#DejaVuSans-Oblique-70" transform="translate(988.383789 -26.578125) scale(0.7)"/>
      <use xlink:href="#DejaVuSans-2f" transform="translate(1042.854818 0.765625)"/>
      <use xlink:href="#DejaVuSans-28" transform="translate(1076.546224 0.765625)"/>
      <use xlink:href="#DejaVuSans-Oblique-3c0" transform="translate(1115.559896 0.765625)"/>
      <use xlink:href="#DejaVuSans-Oblique-3bb" transform="translate(1175.764974 0.765625)"/>
      <use xlink:href="#DejaVuSans-Oblique-65" transform="translate(1234.944661 0.765625)"/>
      <use xlink:href="#DejaVuSans-29" transform="translate(1296.468099 0.765625)"/>
     </g>
    </g>
    <g id="line2d_41">
     <path d="M 381.173438 368.977969 
L 390.173438 368.977969 
L 399.173438 368.977969 
" style="fill: none; stroke-dasharray: 6.66,2.88; stroke-dashoffset: 0; stroke: #d32f2f; stroke-width: 1.8"/>
    </g>
    <g id="text_27">
     <!-- $E_{max}$ = 16.4 (tangente all'origine) -->
     <g transform="translate(406.373438 372.127969) scale(0.09 -0.09)">
      <defs>
       <path id="DejaVuSans-27" d="M 1147 4666 
L 1147 2931 
L 616 2931 
L 616 4666 
L 1147 4666 
z
" transform="scale(0.015625)"/>
      </defs>
      <use xlink:href="#DejaVuSans-Oblique-45" transform="translate(0 0.015625)"/>
      <use xlink:href="#DejaVuSans-Oblique-6d" transform="translate(63.183594 -16.390625) scale(0.7)"/>
      <use xlink:href="#DejaVuSans-Oblique-61" transform="translate(131.37207 -16.390625) scale(0.7)"/>
      <use xlink:href="#DejaVuSans-Oblique-78" transform="translate(174.267578 -16.390625) scale(0.7)"/>
      <use xlink:href="#DejaVuSans-20" transform="translate(218.427734 0.015625)"/>
      <use xlink:href="#DejaVuSans-3d" transform="translate(250.214844 0.015625)"/>
      <use xlink:href="#DejaVuSans-20" transform="translate(334.003906 0.015625)"/>
      <use xlink:href="#DejaVuSans-31" transform="translate(365.791016 0.015625)"/>
      <use xlink:href="#DejaVuSans-36" transform="translate(429.414062 0.015625)"/>
      <use xlink:href="#DejaVuSans-2e" transform="translate(493.037109 0.015625)"/>
      <use xlink:href="#DejaVuSans-34" transform="translate(524.824219 0.015625)"/>
      <use xlink:href="#DejaVuSans-20" transform="translate(588.447266 0.015625)"/>
      <use xlink:href="#DejaVuSans-28" transform="translate(620.234375 0.015625)"/>
      <use xlink:href="#DejaVuSans-74" transform="translate(659.248047 0.015625)"/>
      <use xlink:href="#DejaVuSans-61" transform="translate(698.457031 0.015625)"/>
      <use xlink:href="#DejaVuSans-6e" transform="translate(759.736328 0.015625)"/>
      <use xlink:href="#DejaVuSans-67" transform="translate(823.115234 0.015625)"/>
      <use xlink:href="#DejaVuSans-65" transform="translate(886.591797 0.015625)"/>
      <use xlink:href="#DejaVuSans-6e" transform="translate(948.115234 0.015625)"/>
      <use xlink:href="#DejaVuSans-74" transform="translate(1011.494141 0.015625)"/>
      <use xlink:href="#DejaVuSans-65" transform="translate(1050.703125 0.015625)"/>
      <use xlink:href="#DejaVuSans-20" transform="translate(1112.226562 0.015625)"/>
      <use xlink:href="#DejaVuSans-61" transform="translate(1144.013672 0.015625)"/>
      <use xlink:href="#DejaVuSans-6c" transform="translate(1205.292969 0.015625)"/>
      <use xlink:href="#DejaVuSans-6c" transform="translate(1233.076172 0.015625)"/>
      <use xlink:href="#DejaVuSans-27" transform="translate(1260.859375 0.015625)"/>
      <use xlink:href="#DejaVuSans-6f" transform="translate(1288.349609 0.015625)"/>
      <use xlink:href="#DejaVuSans-72" transform="translate(1349.53125 0.015625)"/>
      <use xlink:href="#DejaVuSans-69" transform="translate(1390.644531 0.015625)"/>
      <use xlink:href="#DejaVuSans-67" transform="translate(1418.427734 0.015625)"/>
      <use xlink:href="#DejaVuSans-69" transform="translate(1481.904297 0.015625)"/>
      <use xlink:href="#DejaVuSans-6e" transform="translate(1509.6875 0.015625)"/>
      <use xlink:href="#DejaVuSans-65" transform="translate(1573.066406 0.015625)"/>
      <use xlink:href="#DejaVuSans-29" transform="translate(1634.589844 0.015625)"/>
     </g>
    </g>
   </g>
   <g id="PathCollection_2">
    <defs>
     <path id="m86038e19ae" d="M 0 -7.071068 
L -1.587554 -2.18508 
L -6.724985 -2.18508 
L -2.568716 0.834626 
L -4.156269 5.720614 
L -0 2.700907 
L 4.156269 5.720614 
L 2.568716 0.834626 
L 6.724985 -2.18508 
L 1.587554 -2.18508 
z
" style="stroke: #000000; stroke-width: 1.2"/>
    </defs>
    <g clip-path="url(#p0ee686a813)">
     <use xlink:href="#m86038e19ae" x="164.442992" y="287.077969" style="fill: #fb8c00; stroke: #000000; stroke-width: 1.2"/>
    </g>
   </g>
   <g id="PathCollection_3">
    <defs>
     <path id="md6d9caccfc" d="M 0 5 
C 1.326016 5 2.597899 4.473168 3.535534 3.535534 
C 4.473168 2.597899 5 1.326016 5 0 
C 5 -1.326016 4.473168 -2.597899 3.535534 -3.535534 
C 2.597899 -4.473168 1.326016 -5 0 -5 
C -1.326016 -5 -2.597899 -4.473168 -3.535534 -3.535534 
C -4.473168 -2.597899 -5 -1.326016 -5 0 
C -5 1.326016 -4.473168 2.597899 -3.535534 3.535534 
C -2.597899 4.473168 -1.326016 5 0 5 
z
" style="stroke: #000000; stroke-width: 1.2"/>
    </defs>
    <g clip-path="url(#p0ee686a813)">
     <use xlink:href="#md6d9caccfc" x="211.171606" y="226.252369" style="fill: #d32f2f; stroke: #000000; stroke-width: 1.2"/>
    </g>
   </g>
   <g id="PathCollection_4">
    <defs>
     <path id="m0c283da765" d="M 0 5 
C 1.326016 5 2.597899 4.473168 3.535534 3.535534 
C 4.473168 2.597899 5 1.326016 5 0 
C 5 -1.326016 4.473168 -2.597899 3.535534 -3.535534 
C 2.597899 -4.473168 1.326016 -5 0 -5 
C -1.326016 -5 -2.597899 -4.473168 -3.535534 -3.535534 
C -4.473168 -2.597899 -5 -1.326016 -5 0 
C -5 1.326016 -4.473168 2.597899 -3.535534 3.535534 
C -2.597899 4.473168 -1.326016 5 0 5 
z
" style="stroke: #000000; stroke-width: 1.2"/>
    </defs>
    <g clip-path="url(#p0ee686a813)">
     <use xlink:href="#m0c283da765" x="353.614227" y="116.005969" style="fill: #7b1fa2; stroke: #000000; stroke-width: 1.2"/>
    </g>
   </g>
  </g>
 </g>
 <defs>
  <clipPath id="p0ee686a813">
   <rect x="62.933437" y="49.477969" width="502.2" height="332.64"/>
  </clipPath>
 </defs>
</svg>
