<?xml version="1.0" encoding="utf-8" standalone="no"?>
<!DOCTYPE svg PUBLIC "-//W3C//DTD SVG 1.1//EN"
  "http://www.w3.org/Graphics/SVG/1.1/DTD/svg11.dtd">
<svg xmlns:xlink="http://www.w3.org/1999/xlink" width="545.4pt" height="180.127112pt" viewBox="0 0 545.4 180.127112" xmlns="http://www.w3.org/2000/svg" version="1.1">
 <metadata>
  <rdf:RDF xmlns:dc="http://purl.org/dc/elements/1.1/" xmlns:cc="http://creativecommons.org/ns#" xmlns:rdf="http://www.w3.org/1999/02/22-rdf-syntax-ns#">
   <cc:Work>
    <dc:type rdf:resource="http://purl.org/dc/dcmitype/StillImage"/>
    <dc:date>2026-04-27T15:07:14.804713</dc:date>
    <dc:format>image/svg+xml</dc:format>
    <dc:creator>
     <cc:Agent>
      <dc:title>Matplotlib v3.9.4, https://matplotlib.org/</dc:title>
     </cc:Agent>
    </dc:creator>
   </cc:Work>
  </rdf:RDF>
 </metadata>
 <defs>
  <style type="text/css">*{stroke-linejoin: round; stroke-linecap: butt}</style>
 </defs>
 <g id="figure_1">
  <g id="patch_1">
   <path d="M 0 180.127112 
L 545.4 180.127112 
L 545.4 0 
L 0 0 
z
" style="fill: #ffffff"/>
  </g>
  <g id="axes_1">
   <g id="PolyCollection_1">
    <defs>
     <path id="mad111beb89" d="M 107.691429 -73.254857 
L 107.691429 -73.254857 
L 109.133496 -76.911493 
L 110.575564 -78.440479 
L 112.017631 -79.615413 
L 113.459698 -80.604801 
L 114.901766 -81.473932 
L 116.343833 -82.256311 
L 117.785901 -82.971853 
L 119.227968 -83.633547 
L 120.670036 -84.250425 
L 122.112103 -84.829075 
L 123.554171 -85.374475 
L 124.996238 -85.890503 
L 126.438306 -86.380247 
L 127.880373 -86.846221 
L 129.322441 -87.290498 
L 130.764508 -87.714818 
L 132.206576 -88.120658 
L 133.648643 -88.509285 
L 135.090711 -88.881796 
L 136.532778 -89.239148 
L 137.974846 -89.582187 
L 139.416913 -89.911659 
L 140.858981 -90.228231 
L 142.301048 -90.532503 
L 143.743116 -90.825014 
L 145.185183 -91.106252 
L 146.627251 -91.376663 
L 148.069318 -91.636653 
L 149.511385 -91.886595 
L 150.953453 -92.126834 
L 152.39552 -92.357686 
L 153.837588 -92.579444 
L 155.279655 -92.792383 
L 156.721723 -92.996757 
L 158.16379 -93.192803 
L 159.605858 -93.380744 
L 161.047925 -93.560789 
L 162.489993 -93.733134 
L 163.93206 -93.897965 
L 165.374128 -94.055457 
L 166.816195 -94.205774 
L 168.258263 -94.349074 
L 169.70033 -94.485505 
L 171.142398 -94.615209 
L 172.584465 -94.73832 
L 174.026533 -94.854967 
L 175.4686 -94.965272 
L 176.910668 -95.069351 
L 178.352735 -95.167318 
L 179.794803 -95.259279 
L 181.23687 -95.345337 
L 182.678938 -95.425592 
L 184.121005 -95.500137 
L 185.563073 -95.569065 
L 187.00514 -95.632463 
L 188.447207 -95.690415 
L 189.889275 -95.743004 
L 191.331342 -95.790309 
L 192.77341 -95.832405 
L 194.215477 -95.869365 
L 195.657545 -95.901262 
L 197.099612 -95.928164 
L 198.54168 -95.950138 
L 199.983747 -95.967248 
L 201.425815 -95.979556 
L 202.867882 -95.987124 
L 204.30995 -95.990011 
L 205.752017 -95.988273 
L 207.194085 -95.981966 
L 208.636152 -95.971144 
L 210.07822 -95.955859 
L 211.520287 -95.936163 
L 212.962355 -95.912106 
L 214.404422 -95.883734 
L 215.84649 -95.851096 
L 217.288557 -95.814236 
L 218.730625 -95.7732 
L 220.172692 -95.728031 
L 221.61476 -95.678771 
L 223.056827 -95.625542 
L 224.498894 -95.569129 
L 225.940962 -95.509751 
L 227.383029 -95.447448 
L 228.825097 -95.382256 
L 230.267164 -95.314211 
L 231.709232 -95.24335 
L 233.151299 -95.169706 
L 234.593367 -95.093313 
L 236.035434 -95.014204 
L 237.477502 -94.932411 
L 238.919569 -94.847966 
L 240.361637 -94.760898 
L 241.803704 -94.671238 
L 243.245772 -94.579014 
L 244.687839 -94.484256 
L 246.129907 -94.38699 
L 247.571974 -94.287244 
L 249.014042 -94.185043 
L 250.456109 -94.080414 
L 251.898177 -93.973382 
L 253.340244 -93.863971 
L 254.782312 -93.752204 
L 256.224379 -93.638106 
L 257.666447 -93.521698 
L 259.108514 -93.403003 
L 260.550581 -93.282043 
L 261.992649 -93.158838 
L 263.434716 -93.033408 
L 264.876784 -92.905773 
L 266.318851 -92.775954 
L 267.760919 -92.643968 
L 269.202986 -92.509834 
L 270.645054 -92.37357 
L 272.087121 -92.235192 
L 273.529189 -92.094719 
L 274.971256 -91.952165 
L 276.413324 -91.807548 
L 277.855391 -91.660882 
L 279.297459 -91.512183 
L 280.739526 -91.361464 
L 282.181594 -91.20874 
L 283.623661 -91.054025 
L 285.065729 -90.897331 
L 286.507796 -90.738671 
L 287.949864 -90.578058 
L 289.391931 -90.415503 
L 290.833999 -90.251017 
L 292.276066 -90.084612 
L 293.718134 -89.916299 
L 295.160201 -89.746087 
L 296.602268 -89.573986 
L 298.044336 -89.400006 
L 299.486403 -89.224155 
L 300.928471 -89.046442 
L 302.370538 -88.866876 
L 303.812606 -88.685463 
L 305.254673 -88.502212 
L 306.696741 -88.317129 
L 308.138808 -88.130221 
L 309.580876 -87.941495 
L 311.022943 -87.750955 
L 312.465011 -87.558608 
L 313.907078 -87.364459 
L 315.349146 -87.168512 
L 316.791213 -86.970773 
L 318.233281 -86.771244 
L 319.675348 -86.56993 
L 321.117416 -86.366833 
L 322.559483 -86.161958 
L 324.001551 -85.955306 
L 325.443618 -85.74688 
L 326.885686 -85.536682 
L 328.327753 -85.324713 
L 329.769821 -85.110974 
L 331.211888 -84.895467 
L 332.653955 -84.678191 
L 334.096023 -84.459148 
L 335.53809 -84.238336 
L 336.980158 -84.015756 
L 338.422225 -83.791406 
L 339.864293 -83.565286 
L 341.30636 -83.337394 
L 342.748428 -83.107728 
L 344.190495 -82.876286 
L 345.632563 -82.643065 
L 347.07463 -82.408063 
L 348.516698 -82.171276 
L 349.958765 -81.932702 
L 351.400833 -81.692335 
L 352.8429 -81.450173 
L 354.284968 -81.206211 
L 355.727035 -80.960443 
L 357.169103 -80.712866 
L 358.61117 -80.463473 
L 360.053238 -80.212259 
L 361.495305 -79.959217 
L 362.937373 -79.704342 
L 364.37944 -79.447627 
L 365.821508 -79.189064 
L 367.263575 -78.928648 
L 368.705642 -78.666369 
L 370.14771 -78.40222 
L 371.589777 -78.136193 
L 373.031845 -77.868279 
L 374.473912 -77.59847 
L 375.91598 -77.326756 
L 377.358047 -77.053128 
L 378.800115 -76.777577 
L 380.242182 -76.500091 
L 381.68425 -76.220661 
L 383.126317 -75.939276 
L 384.568385 -75.655926 
L 386.010452 -75.370598 
L 387.45252 -75.083281 
L 388.894587 -74.793964 
L 390.336655 -74.502634 
L 391.778722 -74.209279 
L 393.22079 -73.913885 
L 394.662857 -73.616441 
L 394.662857 -72.893273 
L 394.662857 -72.893273 
L 393.22079 -72.787299 
L 391.778722 -72.681766 
L 390.336655 -72.576661 
L 388.894587 -72.47197 
L 387.45252 -72.367682 
L 386.010452 -72.263784 
L 384.568385 -72.160265 
L 383.126317 -72.057112 
L 381.68425 -71.954315 
L 380.242182 -71.851863 
L 378.800115 -71.749744 
L 377.358047 -71.647949 
L 375.91598 -71.546467 
L 374.473912 -71.445289 
L 373.031845 -71.344406 
L 371.589777 -71.243807 
L 370.14771 -71.143485 
L 368.705642 -71.043431 
L 367.263575 -70.943636 
L 365.821508 -70.844093 
L 364.37944 -70.744794 
L 362.937373 -70.645732 
L 361.495305 -70.5469 
L 360.053238 -70.448291 
L 358.61117 -70.349899 
L 357.169103 -70.251718 
L 355.727035 -70.153742 
L 354.284968 -70.055965 
L 352.8429 -69.958384 
L 351.400833 -69.860992 
L 349.958765 -69.763786 
L 348.516698 -69.666761 
L 347.07463 -69.569913 
L 345.632563 -69.47324 
L 344.190495 -69.376738 
L 342.748428 -69.280404 
L 341.30636 -69.184236 
L 339.864293 -69.088231 
L 338.422225 -68.992388 
L 336.980158 -68.896706 
L 335.53809 -68.801182 
L 334.096023 -68.705817 
L 332.653955 -68.610609 
L 331.211888 -68.515559 
L 329.769821 -68.420667 
L 328.327753 -68.325933 
L 326.885686 -68.231358 
L 325.443618 -68.136944 
L 324.001551 -68.042692 
L 322.559483 -67.948603 
L 321.117416 -67.854681 
L 319.675348 -67.760927 
L 318.233281 -67.667345 
L 316.791213 -67.573939 
L 315.349146 -67.480711 
L 313.907078 -67.387665 
L 312.465011 -67.294807 
L 311.022943 -67.202141 
L 309.580876 -67.109671 
L 308.138808 -67.017405 
L 306.696741 -66.925346 
L 305.254673 -66.833503 
L 303.812606 -66.74188 
L 302.370538 -66.650486 
L 300.928471 -66.559328 
L 299.486403 -66.468413 
L 298.044336 -66.37775 
L 296.602268 -66.287346 
L 295.160201 -66.197212 
L 293.718134 -66.107357 
L 292.276066 -66.017789 
L 290.833999 -65.92852 
L 289.391931 -65.83956 
L 287.949864 -65.75092 
L 286.507796 -65.662612 
L 285.065729 -65.574646 
L 283.623661 -65.487036 
L 282.181594 -65.399794 
L 280.739526 -65.312934 
L 279.297459 -65.226468 
L 277.855391 -65.140411 
L 276.413324 -65.054777 
L 274.971256 -64.969582 
L 273.529189 -64.88484 
L 272.087121 -64.800568 
L 270.645054 -64.716781 
L 269.202986 -64.633498 
L 267.760919 -64.550734 
L 266.318851 -64.468508 
L 264.876784 -64.386837 
L 263.434716 -64.305742 
L 261.992649 -64.225241 
L 260.550581 -64.145354 
L 259.108514 -64.066102 
L 257.666447 -63.987504 
L 256.224379 -63.909584 
L 254.782312 -63.832363 
L 253.340244 -63.755863 
L 251.898177 -63.680108 
L 250.456109 -63.605122 
L 249.014042 -63.530929 
L 247.571974 -63.457553 
L 246.129907 -63.385022 
L 244.687839 -63.31336 
L 243.245772 -63.242596 
L 241.803704 -63.172756 
L 240.361637 -63.10387 
L 238.919569 -63.035965 
L 237.477502 -62.969072 
L 236.035434 -62.903222 
L 234.593367 -62.838445 
L 233.151299 -62.774774 
L 231.709232 -62.712241 
L 230.267164 -62.650881 
L 228.825097 -62.590727 
L 227.383029 -62.531816 
L 225.940962 -62.474182 
L 224.498894 -62.417865 
L 223.056827 -62.3629 
L 221.61476 -62.309148 
L 220.172692 -62.255902 
L 218.730625 -62.203124 
L 217.288557 -62.150856 
L 215.84649 -62.099142 
L 214.404422 -62.048024 
L 212.962355 -61.997551 
L 211.520287 -61.947767 
L 210.07822 -61.898723 
L 208.636152 -61.850467 
L 207.194085 -61.803049 
L 205.752017 -61.756524 
L 204.30995 -61.710944 
L 202.867882 -61.666366 
L 201.425815 -61.622845 
L 199.983747 -61.580442 
L 198.54168 -61.539217 
L 197.099612 -61.499233 
L 195.657545 -61.460553 
L 194.215477 -61.423245 
L 192.77341 -61.387378 
L 191.331342 -61.353023 
L 189.889275 -61.320253 
L 188.447207 -61.289144 
L 187.00514 -61.259775 
L 185.563073 -61.232229 
L 184.121005 -61.206588 
L 182.678938 -61.182943 
L 181.23687 -61.161383 
L 179.794803 -61.142004 
L 178.352735 -61.124904 
L 176.910668 -61.110186 
L 175.4686 -61.097959 
L 174.026533 -61.088333 
L 172.584465 -61.081425 
L 171.142398 -61.077359 
L 169.70033 -61.076262 
L 168.258263 -61.07827 
L 166.816195 -61.083522 
L 165.374128 -61.092169 
L 163.93206 -61.104367 
L 162.489993 -61.120281 
L 161.047925 -61.140086 
L 159.605858 -61.163968 
L 158.16379 -61.192122 
L 156.721723 -61.224758 
L 155.279655 -61.262098 
L 153.837588 -61.30438 
L 152.39552 -61.351859 
L 150.953453 -61.404807 
L 149.511385 -61.463519 
L 148.069318 -61.528311 
L 146.627251 -61.599529 
L 145.185183 -61.677543 
L 143.743116 -61.762761 
L 142.301048 -61.855629 
L 140.858981 -61.956634 
L 139.416913 -62.066317 
L 137.974846 -62.185277 
L 136.532778 -62.314179 
L 135.090711 -62.453772 
L 133.648643 -62.6049 
L 132.206576 -62.768521 
L 130.764508 -62.945732 
L 129.322441 -63.137799 
L 127.880373 -63.346201 
L 126.438306 -63.572675 
L 124.996238 -63.819297 
L 123.554171 -64.088579 
L 122.112103 -64.38361 
L 120.670036 -64.708268 
L 119.227968 -65.067531 
L 117.785901 -65.467985 
L 116.343833 -65.918665 
L 114.901766 -66.432558 
L 113.459698 -67.029581 
L 112.017631 -67.743237 
L 110.575564 -68.638816 
L 109.133496 -69.884823 
L 107.691429 -73.254857 
z
" style="stroke: #1976d2; stroke-opacity: 0.7; stroke-width: 2"/>
    </defs>
    <g clip-path="url(#p434afb9ebd)">
     <use xlink:href="#mad111beb89" x="0" y="180.127112" style="fill: #bbdefb; fill-opacity: 0.7; stroke: #1976d2; stroke-opacity: 0.7; stroke-width: 2"/>
    </g>
   </g>
   <g id="line2d_1">
    <path d="M 107.691429 106.872254 
L 123.554171 105.395585 
L 139.416913 104.138124 
L 155.279655 103.099871 
L 171.142398 102.280828 
L 187.00514 101.680993 
L 202.867882 101.300367 
L 218.730625 101.138949 
L 238.919569 101.185146 
L 263.434716 101.457537 
L 287.949864 101.962623 
L 312.465011 102.700404 
L 336.980158 103.670881 
L 361.495305 104.874053 
L 386.010452 106.309921 
L 394.662857 106.872254 
L 394.662857 106.872254 
" clip-path="url(#p434afb9ebd)" style="fill: none; stroke-dasharray: 5.55,2.4; stroke-dashoffset: 0; stroke: #d32f2f; stroke-width: 1.5"/>
   </g>
   <g id="line2d_2">
    <path d="M 107.691429 106.872254 
L 394.662857 106.872254 
" clip-path="url(#p434afb9ebd)" style="fill: none; stroke: #000000; stroke-linecap: square"/>
   </g>
   <g id="patch_2">
    <path d="M 108.501532 85.754218 
Q 108.1348 95.314306 107.819496 103.533739 
" style="fill: none; stroke: #1565c0; stroke-width: 1.2; stroke-linecap: round"/>
    <path d="M 109.971357 99.613344 
L 107.819496 103.533739 
L 105.974297 99.460013 
" style="fill: none; stroke: #1565c0; stroke-width: 1.2; stroke-linecap: round"/>
   </g>
   <g id="text_1">
    <g id="patch_3">
     <path d="M 64.645714 83.254799 
L 153.580089 83.254799 
Q 156.580089 83.254799 156.580089 80.254799 
L 156.580089 59.378862 
Q 156.580089 56.378862 153.580089 56.378862 
L 64.645714 56.378862 
Q 61.645714 56.378862 61.645714 59.378862 
L 61.645714 80.254799 
Q 61.645714 83.254799 64.645714 83.254799 
z
" style="fill: #ffffff; opacity: 0.92; stroke: #808080; stroke-linejoin: miter"/>
    </g>
    <!-- Bordo d'attacco -->
    <g style="fill: #1565c0" transform="translate(64.645714 66.977299) scale(0.1 -0.1)">
     <defs>
      <path id="DejaVuSans-Bold-42" d="M 2456 2859 
Q 2741 2859 2887 2984 
Q 3034 3109 3034 3353 
Q 3034 3594 2887 3720 
Q 2741 3847 2456 3847 
L 1791 3847 
L 1791 2859 
L 2456 2859 
z
M 2497 819 
Q 2859 819 3042 972 
Q 3225 1125 3225 1434 
Q 3225 1738 3044 1889 
Q 2863 2041 2497 2041 
L 1791 2041 
L 1791 819 
L 2497 819 
z
M 3616 2497 
Q 4003 2384 4215 2081 
Q 4428 1778 4428 1338 
Q 4428 663 3972 331 
Q 3516 0 2584 0 
L 588 0 
L 588 4666 
L 2394 4666 
Q 3366 4666 3802 4372 
Q 4238 4078 4238 3431 
Q 4238 3091 4078 2852 
Q 3919 2613 3616 2497 
z
" transform="scale(0.015625)"/>
      <path id="DejaVuSans-Bold-6f" d="M 2203 2784 
Q 1831 2784 1636 2517 
Q 1441 2250 1441 1747 
Q 1441 1244 1636 976 
Q 1831 709 2203 709 
Q 2569 709 2762 976 
Q 2956 1244 2956 1747 
Q 2956 2250 2762 2517 
Q 2569 2784 2203 2784 
z
M 2203 3584 
Q 3106 3584 3614 3096 
Q 4122 2609 4122 1747 
Q 4122 884 3614 396 
Q 3106 -91 2203 -91 
Q 1297 -91 786 396 
Q 275 884 275 1747 
Q 275 2609 786 3096 
Q 1297 3584 2203 3584 
z
" transform="scale(0.015625)"/>
      <path id="DejaVuSans-Bold-72" d="M 3138 2547 
Q 2991 2616 2845 2648 
Q 2700 2681 2553 2681 
Q 2122 2681 1889 2404 
Q 1656 2128 1656 1613 
L 1656 0 
L 538 0 
L 538 3500 
L 1656 3500 
L 1656 2925 
Q 1872 3269 2151 3426 
Q 2431 3584 2822 3584 
Q 2878 3584 2943 3579 
Q 3009 3575 3134 3559 
L 3138 2547 
z
" transform="scale(0.015625)"/>
      <path id="DejaVuSans-Bold-64" d="M 2919 2988 
L 2919 4863 
L 4044 4863 
L 4044 0 
L 2919 0 
L 2919 506 
Q 2688 197 2409 53 
Q 2131 -91 1766 -91 
Q 1119 -91 703 423 
Q 288 938 288 1747 
Q 288 2556 703 3070 
Q 1119 3584 1766 3584 
Q 2128 3584 2408 3439 
Q 2688 3294 2919 2988 
z
M 2181 722 
Q 2541 722 2730 984 
Q 2919 1247 2919 1747 
Q 2919 2247 2730 2509 
Q 2541 2772 2181 2772 
Q 1825 2772 1636 2509 
Q 1447 2247 1447 1747 
Q 1447 1247 1636 984 
Q 1825 722 2181 722 
z
" transform="scale(0.015625)"/>
      <path id="DejaVuSans-Bold-20" transform="scale(0.015625)"/>
      <path id="DejaVuSans-Bold-27" d="M 1350 4666 
L 1350 2931 
L 609 2931 
L 609 4666 
L 1350 4666 
z
" transform="scale(0.015625)"/>
      <path id="DejaVuSans-Bold-61" d="M 2106 1575 
Q 1756 1575 1579 1456 
Q 1403 1338 1403 1106 
Q 1403 894 1545 773 
Q 1688 653 1941 653 
Q 2256 653 2472 879 
Q 2688 1106 2688 1447 
L 2688 1575 
L 2106 1575 
z
M 3816 1997 
L 3816 0 
L 2688 0 
L 2688 519 
Q 2463 200 2181 54 
Q 1900 -91 1497 -91 
Q 953 -91 614 226 
Q 275 544 275 1050 
Q 275 1666 698 1953 
Q 1122 2241 2028 2241 
L 2688 2241 
L 2688 2328 
Q 2688 2594 2478 2717 
Q 2269 2841 1825 2841 
Q 1466 2841 1156 2769 
Q 847 2697 581 2553 
L 581 3406 
Q 941 3494 1303 3539 
Q 1666 3584 2028 3584 
Q 2975 3584 3395 3211 
Q 3816 2838 3816 1997 
z
" transform="scale(0.015625)"/>
      <path id="DejaVuSans-Bold-74" d="M 1759 4494 
L 1759 3500 
L 2913 3500 
L 2913 2700 
L 1759 2700 
L 1759 1216 
Q 1759 972 1856 886 
Q 1953 800 2241 800 
L 2816 800 
L 2816 0 
L 1856 0 
Q 1194 0 917 276 
Q 641 553 641 1216 
L 641 2700 
L 84 2700 
L 84 3500 
L 641 3500 
L 641 4494 
L 1759 4494 
z
" transform="scale(0.015625)"/>
      <path id="DejaVuSans-Bold-63" d="M 3366 3391 
L 3366 2478 
Q 3138 2634 2908 2709 
Q 2678 2784 2431 2784 
Q 1963 2784 1702 2511 
Q 1441 2238 1441 1747 
Q 1441 1256 1702 982 
Q 1963 709 2431 709 
Q 2694 709 2930 787 
Q 3166 866 3366 1019 
L 3366 103 
Q 3103 6 2833 -42 
Q 2563 -91 2291 -91 
Q 1344 -91 809 395 
Q 275 881 275 1747 
Q 275 2613 809 3098 
Q 1344 3584 2291 3584 
Q 2566 3584 2833 3536 
Q 3100 3488 3366 3391 
z
" transform="scale(0.015625)"/>
     </defs>
     <use xlink:href="#DejaVuSans-Bold-42"/>
     <use xlink:href="#DejaVuSans-Bold-6f" x="76.220703"/>
     <use xlink:href="#DejaVuSans-Bold-72" x="144.921875"/>
     <use xlink:href="#DejaVuSans-Bold-64" x="194.238281"/>
     <use xlink:href="#DejaVuSans-Bold-6f" x="265.820312"/>
     <use xlink:href="#DejaVuSans-Bold-20" x="334.521484"/>
     <use xlink:href="#DejaVuSans-Bold-64" x="369.335938"/>
     <use xlink:href="#DejaVuSans-Bold-27" x="440.917969"/>
     <use xlink:href="#DejaVuSans-Bold-61" x="471.533203"/>
     <use xlink:href="#DejaVuSans-Bold-74" x="539.013672"/>
     <use xlink:href="#DejaVuSans-Bold-74" x="586.816406"/>
     <use xlink:href="#DejaVuSans-Bold-61" x="634.619141"/>
     <use xlink:href="#DejaVuSans-Bold-63" x="702.099609"/>
     <use xlink:href="#DejaVuSans-Bold-63" x="761.376953"/>
     <use xlink:href="#DejaVuSans-Bold-6f" x="820.654297"/>
    </g>
    <!-- (arrotondato) -->
    <g style="fill: #1565c0" transform="translate(64.645714 78.175112) scale(0.1 -0.1)">
     <defs>
      <path id="DejaVuSans-Bold-28" d="M 2413 -844 
L 1484 -844 
Q 1006 -72 778 623 
Q 550 1319 550 2003 
Q 550 2688 779 3389 
Q 1009 4091 1484 4856 
L 2413 4856 
Q 2013 4116 1813 3408 
Q 1613 2700 1613 2009 
Q 1613 1319 1811 609 
Q 2009 -100 2413 -844 
z
" transform="scale(0.015625)"/>
      <path id="DejaVuSans-Bold-6e" d="M 4056 2131 
L 4056 0 
L 2931 0 
L 2931 347 
L 2931 1631 
Q 2931 2084 2911 2256 
Q 2891 2428 2841 2509 
Q 2775 2619 2662 2680 
Q 2550 2741 2406 2741 
Q 2056 2741 1856 2470 
Q 1656 2200 1656 1722 
L 1656 0 
L 538 0 
L 538 3500 
L 1656 3500 
L 1656 2988 
Q 1909 3294 2193 3439 
Q 2478 3584 2822 3584 
Q 3428 3584 3742 3212 
Q 4056 2841 4056 2131 
z
" transform="scale(0.015625)"/>
      <path id="DejaVuSans-Bold-29" d="M 513 -844 
Q 913 -100 1113 609 
Q 1313 1319 1313 2009 
Q 1313 2700 1113 3408 
Q 913 4116 513 4856 
L 1441 4856 
Q 1916 4091 2145 3389 
Q 2375 2688 2375 2003 
Q 2375 1319 2147 623 
Q 1919 -72 1441 -844 
L 513 -844 
z
" transform="scale(0.015625)"/>
     </defs>
     <use xlink:href="#DejaVuSans-Bold-28"/>
     <use xlink:href="#DejaVuSans-Bold-61" x="45.703125"/>
     <use xlink:href="#DejaVuSans-Bold-72" x="113.183594"/>
     <use xlink:href="#DejaVuSans-Bold-72" x="162.5"/>
     <use xlink:href="#DejaVuSans-Bold-6f" x="211.816406"/>
     <use xlink:href="#DejaVuSans-Bold-74" x="280.517578"/>
     <use xlink:href="#DejaVuSans-Bold-6f" x="328.320312"/>
     <use xlink:href="#DejaVuSans-Bold-6e" x="397.021484"/>
     <use xlink:href="#DejaVuSans-Bold-64" x="468.212891"/>
     <use xlink:href="#DejaVuSans-Bold-61" x="539.794922"/>
     <use xlink:href="#DejaVuSans-Bold-74" x="607.275391"/>
     <use xlink:href="#DejaVuSans-Bold-6f" x="655.078125"/>
     <use xlink:href="#DejaVuSans-Bold-29" x="723.779297"/>
    </g>
   </g>
   <g id="patch_4">
    <path d="M 412.137767 109.320819 
Q 404.392235 108.235524 397.975364 107.336399 
" style="fill: none; stroke: #1565c0; stroke-width: 1.2; stroke-linecap: round"/>
    <path d="M 401.65914 109.872104 
L 397.975364 107.336399 
L 402.214193 105.910801 
" style="fill: none; stroke: #1565c0; stroke-width: 1.2; stroke-linecap: round"/>
   </g>
   <g id="text_2">
    <g id="patch_5">
     <path d="M 417.620571 129.248353 
L 498.726821 129.248353 
Q 501.726821 129.248353 501.726821 126.248353 
L 501.726821 105.372415 
Q 501.726821 102.372415 498.726821 102.372415 
L 417.620571 102.372415 
Q 414.620571 102.372415 414.620571 105.372415 
L 414.620571 126.248353 
Q 414.620571 129.248353 417.620571 129.248353 
z
" style="fill: #ffffff; opacity: 0.92; stroke: #808080; stroke-linejoin: miter"/>
    </g>
    <!-- Bordo d'uscita -->
    <g style="fill: #1565c0" transform="translate(417.620571 112.892728) scale(0.1 -0.1)">
     <defs>
      <path id="DejaVuSans-Bold-75" d="M 500 1363 
L 500 3500 
L 1625 3500 
L 1625 3150 
Q 1625 2866 1622 2436 
Q 1619 2006 1619 1863 
Q 1619 1441 1641 1255 
Q 1663 1069 1716 984 
Q 1784 875 1895 815 
Q 2006 756 2150 756 
Q 2500 756 2700 1025 
Q 2900 1294 2900 1772 
L 2900 3500 
L 4019 3500 
L 4019 0 
L 2900 0 
L 2900 506 
Q 2647 200 2364 54 
Q 2081 -91 1741 -91 
Q 1134 -91 817 281 
Q 500 653 500 1363 
z
" transform="scale(0.015625)"/>
      <path id="DejaVuSans-Bold-73" d="M 3272 3391 
L 3272 2541 
Q 2913 2691 2578 2766 
Q 2244 2841 1947 2841 
Q 1628 2841 1473 2761 
Q 1319 2681 1319 2516 
Q 1319 2381 1436 2309 
Q 1553 2238 1856 2203 
L 2053 2175 
Q 2913 2066 3209 1816 
Q 3506 1566 3506 1031 
Q 3506 472 3093 190 
Q 2681 -91 1863 -91 
Q 1516 -91 1145 -36 
Q 775 19 384 128 
L 384 978 
Q 719 816 1070 734 
Q 1422 653 1784 653 
Q 2113 653 2278 743 
Q 2444 834 2444 1013 
Q 2444 1163 2330 1236 
Q 2216 1309 1875 1350 
L 1678 1375 
Q 931 1469 631 1722 
Q 331 1975 331 2491 
Q 331 3047 712 3315 
Q 1094 3584 1881 3584 
Q 2191 3584 2531 3537 
Q 2872 3491 3272 3391 
z
" transform="scale(0.015625)"/>
      <path id="DejaVuSans-Bold-69" d="M 538 3500 
L 1656 3500 
L 1656 0 
L 538 0 
L 538 3500 
z
M 538 4863 
L 1656 4863 
L 1656 3950 
L 538 3950 
L 538 4863 
z
" transform="scale(0.015625)"/>
     </defs>
     <use xlink:href="#DejaVuSans-Bold-42"/>
     <use xlink:href="#DejaVuSans-Bold-6f" x="76.220703"/>
     <use xlink:href="#DejaVuSans-Bold-72" x="144.921875"/>
     <use xlink:href="#DejaVuSans-Bold-64" x="194.238281"/>
     <use xlink:href="#DejaVuSans-Bold-6f" x="265.820312"/>
     <use xlink:href="#DejaVuSans-Bold-20" x="334.521484"/>
     <use xlink:href="#DejaVuSans-Bold-64" x="369.335938"/>
     <use xlink:href="#DejaVuSans-Bold-27" x="440.917969"/>
     <use xlink:href="#DejaVuSans-Bold-75" x="471.533203"/>
     <use xlink:href="#DejaVuSans-Bold-73" x="542.724609"/>
     <use xlink:href="#DejaVuSans-Bold-63" x="602.246094"/>
     <use xlink:href="#DejaVuSans-Bold-69" x="661.523438"/>
     <use xlink:href="#DejaVuSans-Bold-74" x="695.800781"/>
     <use xlink:href="#DejaVuSans-Bold-61" x="743.603516"/>
    </g>
    <!-- (tagliente) -->
    <g style="fill: #1565c0" transform="translate(417.620571 124.09054) scale(0.1 -0.1)">
     <defs>
      <path id="DejaVuSans-Bold-67" d="M 2919 594 
Q 2688 288 2409 144 
Q 2131 0 1766 0 
Q 1125 0 706 504 
Q 288 1009 288 1791 
Q 288 2575 706 3076 
Q 1125 3578 1766 3578 
Q 2131 3578 2409 3434 
Q 2688 3291 2919 2981 
L 2919 3500 
L 4044 3500 
L 4044 353 
Q 4044 -491 3511 -936 
Q 2978 -1381 1966 -1381 
Q 1638 -1381 1331 -1331 
Q 1025 -1281 716 -1178 
L 716 -306 
Q 1009 -475 1290 -558 
Q 1572 -641 1856 -641 
Q 2406 -641 2662 -400 
Q 2919 -159 2919 353 
L 2919 594 
z
M 2181 2772 
Q 1834 2772 1640 2515 
Q 1447 2259 1447 1791 
Q 1447 1309 1634 1061 
Q 1822 813 2181 813 
Q 2531 813 2725 1069 
Q 2919 1325 2919 1791 
Q 2919 2259 2725 2515 
Q 2531 2772 2181 2772 
z
" transform="scale(0.015625)"/>
      <path id="DejaVuSans-Bold-6c" d="M 538 4863 
L 1656 4863 
L 1656 0 
L 538 0 
L 538 4863 
z
" transform="scale(0.015625)"/>
      <path id="DejaVuSans-Bold-65" d="M 4031 1759 
L 4031 1441 
L 1416 1441 
Q 1456 1047 1700 850 
Q 1944 653 2381 653 
Q 2734 653 3104 758 
Q 3475 863 3866 1075 
L 3866 213 
Q 3469 63 3072 -14 
Q 2675 -91 2278 -91 
Q 1328 -91 801 392 
Q 275 875 275 1747 
Q 275 2603 792 3093 
Q 1309 3584 2216 3584 
Q 3041 3584 3536 3087 
Q 4031 2591 4031 1759 
z
M 2881 2131 
Q 2881 2450 2695 2645 
Q 2509 2841 2209 2841 
Q 1884 2841 1681 2658 
Q 1478 2475 1428 2131 
L 2881 2131 
z
" transform="scale(0.015625)"/>
     </defs>
     <use xlink:href="#DejaVuSans-Bold-28"/>
     <use xlink:href="#DejaVuSans-Bold-74" x="45.703125"/>
     <use xlink:href="#DejaVuSans-Bold-61" x="93.505859"/>
     <use xlink:href="#DejaVuSans-Bold-67" x="160.986328"/>
     <use xlink:href="#DejaVuSans-Bold-6c" x="232.568359"/>
     <use xlink:href="#DejaVuSans-Bold-69" x="266.845703"/>
     <use xlink:href="#DejaVuSans-Bold-65" x="301.123047"/>
     <use xlink:href="#DejaVuSans-Bold-6e" x="368.945312"/>
     <use xlink:href="#DejaVuSans-Bold-74" x="440.136719"/>
     <use xlink:href="#DejaVuSans-Bold-65" x="487.939453"/>
     <use xlink:href="#DejaVuSans-Bold-29" x="555.761719"/>
    </g>
   </g>
   <g id="patch_6">
    <path d="M 193.782857 114.481389 
Q 193.782857 101.493051 193.782857 88.504712 
" style="fill: none; stroke: #7b1fa2; stroke-width: 2; stroke-linecap: round"/>
    <path d="M 195.982857 110.081389 
L 193.782857 114.481389 
L 191.582857 110.081389 
" style="fill: none; stroke: #7b1fa2; stroke-width: 2; stroke-linecap: round"/>
    <path d="M 191.582857 92.904712 
L 193.782857 88.504712 
L 195.982857 92.904712 
" style="fill: none; stroke: #7b1fa2; stroke-width: 2; stroke-linecap: round"/>
   </g>
   <g id="text_3">
    <g id="patch_7">
     <path d="M 200.957143 107.498116 
L 263.284955 107.498116 
Q 265.984955 107.498116 265.984955 104.798116 
L 265.984955 86.009772 
Q 265.984955 83.309772 263.284955 83.309772 
L 200.957143 83.309772 
Q 198.257143 83.309772 198.257143 86.009772 
L 198.257143 104.798116 
Q 198.257143 107.498116 200.957143 107.498116 
z
" style="fill: #ffffff; opacity: 0.92; stroke: #808080; stroke-linejoin: miter"/>
    </g>
    <!-- spessore max -->
    <g style="fill: #6a1b9a" transform="translate(200.957143 92.848366) scale(0.09 -0.09)">
     <defs>
      <path id="DejaVuSans-73" d="M 2834 3397 
L 2834 2853 
Q 2591 2978 2328 3040 
Q 2066 3103 1784 3103 
Q 1356 3103 1142 2972 
Q 928 2841 928 2578 
Q 928 2378 1081 2264 
Q 1234 2150 1697 2047 
L 1894 2003 
Q 2506 1872 2764 1633 
Q 3022 1394 3022 966 
Q 3022 478 2636 193 
Q 2250 -91 1575 -91 
Q 1294 -91 989 -36 
Q 684 19 347 128 
L 347 722 
Q 666 556 975 473 
Q 1284 391 1588 391 
Q 1994 391 2212 530 
Q 2431 669 2431 922 
Q 2431 1156 2273 1281 
Q 2116 1406 1581 1522 
L 1381 1569 
Q 847 1681 609 1914 
Q 372 2147 372 2553 
Q 372 3047 722 3315 
Q 1072 3584 1716 3584 
Q 2034 3584 2315 3537 
Q 2597 3491 2834 3397 
z
" transform="scale(0.015625)"/>
      <path id="DejaVuSans-70" d="M 1159 525 
L 1159 -1331 
L 581 -1331 
L 581 3500 
L 1159 3500 
L 1159 2969 
Q 1341 3281 1617 3432 
Q 1894 3584 2278 3584 
Q 2916 3584 3314 3078 
Q 3713 2572 3713 1747 
Q 3713 922 3314 415 
Q 2916 -91 2278 -91 
Q 1894 -91 1617 61 
Q 1341 213 1159 525 
z
M 3116 1747 
Q 3116 2381 2855 2742 
Q 2594 3103 2138 3103 
Q 1681 3103 1420 2742 
Q 1159 2381 1159 1747 
Q 1159 1113 1420 752 
Q 1681 391 2138 391 
Q 2594 391 2855 752 
Q 3116 1113 3116 1747 
z
" transform="scale(0.015625)"/>
      <path id="DejaVuSans-65" d="M 3597 1894 
L 3597 1613 
L 953 1613 
Q 991 1019 1311 708 
Q 1631 397 2203 397 
Q 2534 397 2845 478 
Q 3156 559 3463 722 
L 3463 178 
Q 3153 47 2828 -22 
Q 2503 -91 2169 -91 
Q 1331 -91 842 396 
Q 353 884 353 1716 
Q 353 2575 817 3079 
Q 1281 3584 2069 3584 
Q 2775 3584 3186 3129 
Q 3597 2675 3597 1894 
z
M 3022 2063 
Q 3016 2534 2758 2815 
Q 2500 3097 2075 3097 
Q 1594 3097 1305 2825 
Q 1016 2553 972 2059 
L 3022 2063 
z
" transform="scale(0.015625)"/>
      <path id="DejaVuSans-6f" d="M 1959 3097 
Q 1497 3097 1228 2736 
Q 959 2375 959 1747 
Q 959 1119 1226 758 
Q 1494 397 1959 397 
Q 2419 397 2687 759 
Q 2956 1122 2956 1747 
Q 2956 2369 2687 2733 
Q 2419 3097 1959 3097 
z
M 1959 3584 
Q 2709 3584 3137 3096 
Q 3566 2609 3566 1747 
Q 3566 888 3137 398 
Q 2709 -91 1959 -91 
Q 1206 -91 779 398 
Q 353 888 353 1747 
Q 353 2609 779 3096 
Q 1206 3584 1959 3584 
z
" transform="scale(0.015625)"/>
      <path id="DejaVuSans-72" d="M 2631 2963 
Q 2534 3019 2420 3045 
Q 2306 3072 2169 3072 
Q 1681 3072 1420 2755 
Q 1159 2438 1159 1844 
L 1159 0 
L 581 0 
L 581 3500 
L 1159 3500 
L 1159 2956 
Q 1341 3275 1631 3429 
Q 1922 3584 2338 3584 
Q 2397 3584 2469 3576 
Q 2541 3569 2628 3553 
L 2631 2963 
z
" transform="scale(0.015625)"/>
      <path id="DejaVuSans-20" transform="scale(0.015625)"/>
      <path id="DejaVuSans-6d" d="M 3328 2828 
Q 3544 3216 3844 3400 
Q 4144 3584 4550 3584 
Q 5097 3584 5394 3201 
Q 5691 2819 5691 2113 
L 5691 0 
L 5113 0 
L 5113 2094 
Q 5113 2597 4934 2840 
Q 4756 3084 4391 3084 
Q 3944 3084 3684 2787 
Q 3425 2491 3425 1978 
L 3425 0 
L 2847 0 
L 2847 2094 
Q 2847 2600 2669 2842 
Q 2491 3084 2119 3084 
Q 1678 3084 1418 2786 
Q 1159 2488 1159 1978 
L 1159 0 
L 581 0 
L 581 3500 
L 1159 3500 
L 1159 2956 
Q 1356 3278 1631 3431 
Q 1906 3584 2284 3584 
Q 2666 3584 2933 3390 
Q 3200 3197 3328 2828 
z
" transform="scale(0.015625)"/>
      <path id="DejaVuSans-61" d="M 2194 1759 
Q 1497 1759 1228 1600 
Q 959 1441 959 1056 
Q 959 750 1161 570 
Q 1363 391 1709 391 
Q 2188 391 2477 730 
Q 2766 1069 2766 1631 
L 2766 1759 
L 2194 1759 
z
M 3341 1997 
L 3341 0 
L 2766 0 
L 2766 531 
Q 2569 213 2275 61 
Q 1981 -91 1556 -91 
Q 1019 -91 701 211 
Q 384 513 384 1019 
Q 384 1609 779 1909 
Q 1175 2209 1959 2209 
L 2766 2209 
L 2766 2266 
Q 2766 2663 2505 2880 
Q 2244 3097 1772 3097 
Q 1472 3097 1187 3025 
Q 903 2953 641 2809 
L 641 3341 
Q 956 3463 1253 3523 
Q 1550 3584 1831 3584 
Q 2591 3584 2966 3190 
Q 3341 2797 3341 1997 
z
" transform="scale(0.015625)"/>
      <path id="DejaVuSans-78" d="M 3513 3500 
L 2247 1797 
L 3578 0 
L 2900 0 
L 1881 1375 
L 863 0 
L 184 0 
L 1544 1831 
L 300 3500 
L 978 3500 
L 1906 2253 
L 2834 3500 
L 3513 3500 
z
" transform="scale(0.015625)"/>
     </defs>
     <use xlink:href="#DejaVuSans-73"/>
     <use xlink:href="#DejaVuSans-70" x="52.099609"/>
     <use xlink:href="#DejaVuSans-65" x="115.576172"/>
     <use xlink:href="#DejaVuSans-73" x="177.099609"/>
     <use xlink:href="#DejaVuSans-73" x="229.199219"/>
     <use xlink:href="#DejaVuSans-6f" x="281.298828"/>
     <use xlink:href="#DejaVuSans-72" x="342.480469"/>
     <use xlink:href="#DejaVuSans-65" x="381.34375"/>
     <use xlink:href="#DejaVuSans-20" x="442.867188"/>
     <use xlink:href="#DejaVuSans-6d" x="474.654297"/>
     <use xlink:href="#DejaVuSans-61" x="572.066406"/>
     <use xlink:href="#DejaVuSans-78" x="633.345703"/>
    </g>
    <!-- 12% c -->
    <g style="fill: #6a1b9a" transform="translate(200.957143 102.926397) scale(0.09 -0.09)">
     <defs>
      <path id="DejaVuSans-31" d="M 794 531 
L 1825 531 
L 1825 4091 
L 703 3866 
L 703 4441 
L 1819 4666 
L 2450 4666 
L 2450 531 
L 3481 531 
L 3481 0 
L 794 0 
L 794 531 
z
" transform="scale(0.015625)"/>
      <path id="DejaVuSans-32" d="M 1228 531 
L 3431 531 
L 3431 0 
L 469 0 
L 469 531 
Q 828 903 1448 1529 
Q 2069 2156 2228 2338 
Q 2531 2678 2651 2914 
Q 2772 3150 2772 3378 
Q 2772 3750 2511 3984 
Q 2250 4219 1831 4219 
Q 1534 4219 1204 4116 
Q 875 4013 500 3803 
L 500 4441 
Q 881 4594 1212 4672 
Q 1544 4750 1819 4750 
Q 2544 4750 2975 4387 
Q 3406 4025 3406 3419 
Q 3406 3131 3298 2873 
Q 3191 2616 2906 2266 
Q 2828 2175 2409 1742 
Q 1991 1309 1228 531 
z
" transform="scale(0.015625)"/>
      <path id="DejaVuSans-25" d="M 4653 2053 
Q 4381 2053 4226 1822 
Q 4072 1591 4072 1178 
Q 4072 772 4226 539 
Q 4381 306 4653 306 
Q 4919 306 5073 539 
Q 5228 772 5228 1178 
Q 5228 1588 5073 1820 
Q 4919 2053 4653 2053 
z
M 4653 2450 
Q 5147 2450 5437 2106 
Q 5728 1763 5728 1178 
Q 5728 594 5436 251 
Q 5144 -91 4653 -91 
Q 4153 -91 3862 251 
Q 3572 594 3572 1178 
Q 3572 1766 3864 2108 
Q 4156 2450 4653 2450 
z
M 1428 4353 
Q 1159 4353 1004 4120 
Q 850 3888 850 3481 
Q 850 3069 1003 2837 
Q 1156 2606 1428 2606 
Q 1700 2606 1854 2837 
Q 2009 3069 2009 3481 
Q 2009 3884 1853 4118 
Q 1697 4353 1428 4353 
z
M 4250 4750 
L 4750 4750 
L 1831 -91 
L 1331 -91 
L 4250 4750 
z
M 1428 4750 
Q 1922 4750 2215 4408 
Q 2509 4066 2509 3481 
Q 2509 2891 2217 2550 
Q 1925 2209 1428 2209 
Q 931 2209 642 2551 
Q 353 2894 353 3481 
Q 353 4063 643 4406 
Q 934 4750 1428 4750 
z
" transform="scale(0.015625)"/>
      <path id="DejaVuSans-63" d="M 3122 3366 
L 3122 2828 
Q 2878 2963 2633 3030 
Q 2388 3097 2138 3097 
Q 1578 3097 1268 2742 
Q 959 2388 959 1747 
Q 959 1106 1268 751 
Q 1578 397 2138 397 
Q 2388 397 2633 464 
Q 2878 531 3122 666 
L 3122 134 
Q 2881 22 2623 -34 
Q 2366 -91 2075 -91 
Q 1284 -91 818 406 
Q 353 903 353 1747 
Q 353 2603 823 3093 
Q 1294 3584 2113 3584 
Q 2378 3584 2631 3529 
Q 2884 3475 3122 3366 
z
" transform="scale(0.015625)"/>
     </defs>
     <use xlink:href="#DejaVuSans-31"/>
     <use xlink:href="#DejaVuSans-32" x="63.623047"/>
     <use xlink:href="#DejaVuSans-25" x="127.246094"/>
     <use xlink:href="#DejaVuSans-20" x="222.265625"/>
     <use xlink:href="#DejaVuSans-63" x="254.052734"/>
    </g>
   </g>
   <g id="patch_8">
    <path d="M 222.48 103.197053 
Q 222.48 104.002722 222.48 104.808392 
" style="fill: none; stroke: #388e3c; stroke-width: 1.5; stroke-linecap: round"/>
    <path d="M 224.68 98.797053 
L 222.48 103.197053 
L 220.28 98.797053 
" style="fill: none; stroke: #388e3c; stroke-width: 1.5; stroke-linecap: round"/>
    <path d="M 220.28 109.208392 
L 222.48 104.808392 
L 224.68 109.208392 
" style="fill: none; stroke: #388e3c; stroke-width: 1.5; stroke-linecap: round"/>
   </g>
   <g id="text_4">
    <g id="patch_9">
     <path d="M 144.997714 128.662259 
L 216.727714 128.662259 
Q 219.427714 128.662259 219.427714 125.962259 
L 219.427714 117.251946 
Q 219.427714 114.551946 216.727714 114.551946 
L 144.997714 114.551946 
Q 142.297714 114.551946 142.297714 117.251946 
L 142.297714 125.962259 
Q 142.297714 128.662259 144.997714 128.662259 
z
" style="fill: #ffffff; opacity: 0.92; stroke: #808080; stroke-linejoin: miter"/>
    </g>
    <!-- freccia $f$ = 2% c -->
    <g style="fill: #1b5e20" transform="translate(144.997714 124.09054) scale(0.09 -0.09)">
     <defs>
      <path id="DejaVuSans-66" d="M 2375 4863 
L 2375 4384 
L 1825 4384 
Q 1516 4384 1395 4259 
Q 1275 4134 1275 3809 
L 1275 3500 
L 2222 3500 
L 2222 3053 
L 1275 3053 
L 1275 0 
L 697 0 
L 697 3053 
L 147 3053 
L 147 3500 
L 697 3500 
L 697 3744 
Q 697 4328 969 4595 
Q 1241 4863 1831 4863 
L 2375 4863 
z
" transform="scale(0.015625)"/>
      <path id="DejaVuSans-69" d="M 603 3500 
L 1178 3500 
L 1178 0 
L 603 0 
L 603 3500 
z
M 603 4863 
L 1178 4863 
L 1178 4134 
L 603 4134 
L 603 4863 
z
" transform="scale(0.015625)"/>
      <path id="DejaVuSans-Oblique-66" d="M 3059 4863 
L 2969 4384 
L 2419 4384 
Q 2106 4384 1964 4261 
Q 1822 4138 1753 3809 
L 1691 3500 
L 2638 3500 
L 2553 3053 
L 1606 3053 
L 1013 0 
L 434 0 
L 1031 3053 
L 481 3053 
L 563 3500 
L 1113 3500 
L 1159 3744 
Q 1278 4363 1576 4613 
Q 1875 4863 2516 4863 
L 3059 4863 
z
" transform="scale(0.015625)"/>
      <path id="DejaVuSans-3d" d="M 678 2906 
L 4684 2906 
L 4684 2381 
L 678 2381 
L 678 2906 
z
M 678 1631 
L 4684 1631 
L 4684 1100 
L 678 1100 
L 678 1631 
z
" transform="scale(0.015625)"/>
     </defs>
     <use xlink:href="#DejaVuSans-66" transform="translate(0 0.015625)"/>
     <use xlink:href="#DejaVuSans-72" transform="translate(35.205078 0.015625)"/>
     <use xlink:href="#DejaVuSans-65" transform="translate(76.318359 0.015625)"/>
     <use xlink:href="#DejaVuSans-63" transform="translate(137.841797 0.015625)"/>
     <use xlink:href="#DejaVuSans-63" transform="translate(192.822266 0.015625)"/>
     <use xlink:href="#DejaVuSans-69" transform="translate(247.802734 0.015625)"/>
     <use xlink:href="#DejaVuSans-61" transform="translate(275.585938 0.015625)"/>
     <use xlink:href="#DejaVuSans-20" transform="translate(336.865234 0.015625)"/>
     <use xlink:href="#DejaVuSans-Oblique-66" transform="translate(368.652344 0.015625)"/>
     <use xlink:href="#DejaVuSans-20" transform="translate(403.857422 0.015625)"/>
     <use xlink:href="#DejaVuSans-3d" transform="translate(435.644531 0.015625)"/>
     <use xlink:href="#DejaVuSans-20" transform="translate(519.433594 0.015625)"/>
     <use xlink:href="#DejaVuSans-32" transform="translate(551.220703 0.015625)"/>
     <use xlink:href="#DejaVuSans-25" transform="translate(614.84375 0.015625)"/>
     <use xlink:href="#DejaVuSans-20" transform="translate(709.863281 0.015625)"/>
     <use xlink:href="#DejaVuSans-63" transform="translate(741.650391 0.015625)"/>
    </g>
   </g>
   <g id="text_5">
    <!-- Profilo alare NACA 2412 (Cessna 172) -->
    <g transform="translate(150.2725 31.477969) scale(0.13 -0.13)">
     <defs>
      <path id="DejaVuSans-50" d="M 1259 4147 
L 1259 2394 
L 2053 2394 
Q 2494 2394 2734 2622 
Q 2975 2850 2975 3272 
Q 2975 3691 2734 3919 
Q 2494 4147 2053 4147 
L 1259 4147 
z
M 628 4666 
L 2053 4666 
Q 2838 4666 3239 4311 
Q 3641 3956 3641 3272 
Q 3641 2581 3239 2228 
Q 2838 1875 2053 1875 
L 1259 1875 
L 1259 0 
L 628 0 
L 628 4666 
z
" transform="scale(0.015625)"/>
      <path id="DejaVuSans-6c" d="M 603 4863 
L 1178 4863 
L 1178 0 
L 603 0 
L 603 4863 
z
" transform="scale(0.015625)"/>
      <path id="DejaVuSans-4e" d="M 628 4666 
L 1478 4666 
L 3547 763 
L 3547 4666 
L 4159 4666 
L 4159 0 
L 3309 0 
L 1241 3903 
L 1241 0 
L 628 0 
L 628 4666 
z
" transform="scale(0.015625)"/>
      <path id="DejaVuSans-41" d="M 2188 4044 
L 1331 1722 
L 3047 1722 
L 2188 4044 
z
M 1831 4666 
L 2547 4666 
L 4325 0 
L 3669 0 
L 3244 1197 
L 1141 1197 
L 716 0 
L 50 0 
L 1831 4666 
z
" transform="scale(0.015625)"/>
      <path id="DejaVuSans-43" d="M 4122 4306 
L 4122 3641 
Q 3803 3938 3442 4084 
Q 3081 4231 2675 4231 
Q 1875 4231 1450 3742 
Q 1025 3253 1025 2328 
Q 1025 1406 1450 917 
Q 1875 428 2675 428 
Q 3081 428 3442 575 
Q 3803 722 4122 1019 
L 4122 359 
Q 3791 134 3420 21 
Q 3050 -91 2638 -91 
Q 1578 -91 968 557 
Q 359 1206 359 2328 
Q 359 3453 968 4101 
Q 1578 4750 2638 4750 
Q 3056 4750 3426 4639 
Q 3797 4528 4122 4306 
z
" transform="scale(0.015625)"/>
      <path id="DejaVuSans-34" d="M 2419 4116 
L 825 1625 
L 2419 1625 
L 2419 4116 
z
M 2253 4666 
L 3047 4666 
L 3047 1625 
L 3713 1625 
L 3713 1100 
L 3047 1100 
L 3047 0 
L 2419 0 
L 2419 1100 
L 313 1100 
L 313 1709 
L 2253 4666 
z
" transform="scale(0.015625)"/>
      <path id="DejaVuSans-28" d="M 1984 4856 
Q 1566 4138 1362 3434 
Q 1159 2731 1159 2009 
Q 1159 1288 1364 580 
Q 1569 -128 1984 -844 
L 1484 -844 
Q 1016 -109 783 600 
Q 550 1309 550 2009 
Q 550 2706 781 3412 
Q 1013 4119 1484 4856 
L 1984 4856 
z
" transform="scale(0.015625)"/>
      <path id="DejaVuSans-6e" d="M 3513 2113 
L 3513 0 
L 2938 0 
L 2938 2094 
Q 2938 2591 2744 2837 
Q 2550 3084 2163 3084 
Q 1697 3084 1428 2787 
Q 1159 2491 1159 1978 
L 1159 0 
L 581 0 
L 581 3500 
L 1159 3500 
L 1159 2956 
Q 1366 3272 1645 3428 
Q 1925 3584 2291 3584 
Q 2894 3584 3203 3211 
Q 3513 2838 3513 2113 
z
" transform="scale(0.015625)"/>
      <path id="DejaVuSans-37" d="M 525 4666 
L 3525 4666 
L 3525 4397 
L 1831 0 
L 1172 0 
L 2766 4134 
L 525 4134 
L 525 4666 
z
" transform="scale(0.015625)"/>
      <path id="DejaVuSans-29" d="M 513 4856 
L 1013 4856 
Q 1481 4119 1714 3412 
Q 1947 2706 1947 2009 
Q 1947 1309 1714 600 
Q 1481 -109 1013 -844 
L 513 -844 
Q 928 -128 1133 580 
Q 1338 1288 1338 2009 
Q 1338 2731 1133 3434 
Q 928 4138 513 4856 
z
" transform="scale(0.015625)"/>
     </defs>
     <use xlink:href="#DejaVuSans-50"/>
     <use xlink:href="#DejaVuSans-72" x="58.552734"/>
     <use xlink:href="#DejaVuSans-6f" x="97.416016"/>
     <use xlink:href="#DejaVuSans-66" x="158.597656"/>
     <use xlink:href="#DejaVuSans-69" x="193.802734"/>
     <use xlink:href="#DejaVuSans-6c" x="221.585938"/>
     <use xlink:href="#DejaVuSans-6f" x="249.369141"/>
     <use xlink:href="#DejaVuSans-20" x="310.550781"/>
     <use xlink:href="#DejaVuSans-61" x="342.337891"/>
     <use xlink:href="#DejaVuSans-6c" x="403.617188"/>
     <use xlink:href="#DejaVuSans-61" x="431.400391"/>
     <use xlink:href="#DejaVuSans-72" x="492.679688"/>
     <use xlink:href="#DejaVuSans-65" x="531.542969"/>
     <use xlink:href="#DejaVuSans-20" x="593.066406"/>
     <use xlink:href="#DejaVuSans-4e" x="624.853516"/>
     <use xlink:href="#DejaVuSans-41" x="699.658203"/>
     <use xlink:href="#DejaVuSans-43" x="766.316406"/>
     <use xlink:href="#DejaVuSans-41" x="836.140625"/>
     <use xlink:href="#DejaVuSans-20" x="904.548828"/>
     <use xlink:href="#DejaVuSans-32" x="936.335938"/>
     <use xlink:href="#DejaVuSans-34" x="999.958984"/>
     <use xlink:href="#DejaVuSans-31" x="1063.582031"/>
     <use xlink:href="#DejaVuSans-32" x="1127.205078"/>
     <use xlink:href="#DejaVuSans-20" x="1190.828125"/>
     <use xlink:href="#DejaVuSans-28" x="1222.615234"/>
     <use xlink:href="#DejaVuSans-43" x="1261.628906"/>
     <use xlink:href="#DejaVuSans-65" x="1331.453125"/>
     <use xlink:href="#DejaVuSans-73" x="1392.976562"/>
     <use xlink:href="#DejaVuSans-73" x="1445.076172"/>
     <use xlink:href="#DejaVuSans-6e" x="1497.175781"/>
     <use xlink:href="#DejaVuSans-61" x="1560.554688"/>
     <use xlink:href="#DejaVuSans-20" x="1621.833984"/>
     <use xlink:href="#DejaVuSans-31" x="1653.621094"/>
     <use xlink:href="#DejaVuSans-37" x="1717.244141"/>
     <use xlink:href="#DejaVuSans-32" x="1780.867188"/>
     <use xlink:href="#DejaVuSans-29" x="1844.490234"/>
    </g>
   </g>
   <g id="legend_1">
    <g id="patch_10">
     <path d="M 433.534219 154.027112 
L 517.5 154.027112 
Q 519.3 154.027112 519.3 152.227112 
L 519.3 126.706487 
Q 519.3 124.906487 517.5 124.906487 
L 433.534219 124.906487 
Q 431.734219 124.906487 431.734219 126.706487 
L 431.734219 152.227112 
Q 431.734219 154.027112 433.534219 154.027112 
z
" style="fill: #ffffff; opacity: 0.95; stroke: #cccccc; stroke-linejoin: miter"/>
    </g>
    <g id="line2d_3">
     <path d="M 435.334219 132.19508 
L 444.334219 132.19508 
L 453.334219 132.19508 
" style="fill: none; stroke-dasharray: 5.55,2.4; stroke-dashoffset: 0; stroke: #d32f2f; stroke-width: 1.5"/>
    </g>
    <g id="text_6">
     <!-- Linea media -->
     <g transform="translate(460.534219 135.34508) scale(0.09 -0.09)">
      <defs>
       <path id="DejaVuSans-4c" d="M 628 4666 
L 1259 4666 
L 1259 531 
L 3531 531 
L 3531 0 
L 628 0 
L 628 4666 
z
" transform="scale(0.015625)"/>
       <path id="DejaVuSans-64" d="M 2906 2969 
L 2906 4863 
L 3481 4863 
L 3481 0 
L 2906 0 
L 2906 525 
Q 2725 213 2448 61 
Q 2172 -91 1784 -91 
Q 1150 -91 751 415 
Q 353 922 353 1747 
Q 353 2572 751 3078 
Q 1150 3584 1784 3584 
Q 2172 3584 2448 3432 
Q 2725 3281 2906 2969 
z
M 947 1747 
Q 947 1113 1208 752 
Q 1469 391 1925 391 
Q 2381 391 2643 752 
Q 2906 1113 2906 1747 
Q 2906 2381 2643 2742 
Q 2381 3103 1925 3103 
Q 1469 3103 1208 2742 
Q 947 2381 947 1747 
z
" transform="scale(0.015625)"/>
      </defs>
      <use xlink:href="#DejaVuSans-4c"/>
      <use xlink:href="#DejaVuSans-69" x="55.712891"/>
      <use xlink:href="#DejaVuSans-6e" x="83.496094"/>
      <use xlink:href="#DejaVuSans-65" x="146.875"/>
      <use xlink:href="#DejaVuSans-61" x="208.398438"/>
      <use xlink:href="#DejaVuSans-20" x="269.677734"/>
      <use xlink:href="#DejaVuSans-6d" x="301.464844"/>
      <use xlink:href="#DejaVuSans-65" x="398.876953"/>
      <use xlink:href="#DejaVuSans-64" x="460.400391"/>
      <use xlink:href="#DejaVuSans-69" x="523.876953"/>
      <use xlink:href="#DejaVuSans-61" x="551.660156"/>
     </g>
    </g>
    <g id="line2d_4">
     <path d="M 435.334219 145.405393 
L 444.334219 145.405393 
L 453.334219 145.405393 
" style="fill: none; stroke: #000000; stroke-linecap: square"/>
    </g>
    <g id="text_7">
     <!-- Corda (c) -->
     <g transform="translate(460.534219 148.555393) scale(0.09 -0.09)">
      <use xlink:href="#DejaVuSans-43"/>
      <use xlink:href="#DejaVuSans-6f" x="69.824219"/>
      <use xlink:href="#DejaVuSans-72" x="131.005859"/>
      <use xlink:href="#DejaVuSans-64" x="170.369141"/>
      <use xlink:href="#DejaVuSans-61" x="233.845703"/>
      <use xlink:href="#DejaVuSans-20" x="295.125"/>
      <use xlink:href="#DejaVuSans-28" x="326.912109"/>
      <use xlink:href="#DejaVuSans-63" x="365.925781"/>
      <use xlink:href="#DejaVuSans-29" x="420.90625"/>
     </g>
    </g>
   </g>
  </g>
 </g>
 <defs>
  <clipPath id="p434afb9ebd">
   <rect x="21.6" y="49.477969" width="502.2" height="109.049143"/>
  </clipPath>
 </defs>
</svg>
