<?xml version="1.0" encoding="utf-8" standalone="no"?>
<!DOCTYPE svg PUBLIC "-//W3C//DTD SVG 1.1//EN"
  "http://www.w3.org/Graphics/SVG/1.1/DTD/svg11.dtd">
<svg xmlns:xlink="http://www.w3.org/1999/xlink" width="460.8pt" height="138.173812pt" viewBox="0 0 460.8 138.173812" xmlns="http://www.w3.org/2000/svg" version="1.1">
 <metadata>
  <rdf:RDF xmlns:dc="http://purl.org/dc/elements/1.1/" xmlns:cc="http://creativecommons.org/ns#" xmlns:rdf="http://www.w3.org/1999/02/22-rdf-syntax-ns#">
   <cc:Work>
    <dc:type rdf:resource="http://purl.org/dc/dcmitype/StillImage"/>
    <dc:date>2026-04-27T14:38:10.779372</dc:date>
    <dc:format>image/svg+xml</dc:format>
    <dc:creator>
     <cc:Agent>
      <dc:title>Matplotlib v3.9.4, https://matplotlib.org/</dc:title>
     </cc:Agent>
    </dc:creator>
   </cc:Work>
  </rdf:RDF>
 </metadata>
 <defs>
  <style type="text/css">*{stroke-linejoin: round; stroke-linecap: butt}</style>
 </defs>
 <g id="figure_1">
  <g id="patch_1">
   <path d="M 0 138.173812 
L 460.8 138.173812 
L 460.8 0 
L 0 0 
z
" style="fill: #ffffff"/>
  </g>
  <g id="axes_1">
   <g id="PolyCollection_1">
    <defs>
     <path id="m814e67e8c4" d="M 60.768 -50.0544 
L 60.768 -50.0544 
L 62.562573 -54.60488 
L 64.357146 -56.507618 
L 66.151719 -57.969759 
L 67.946291 -59.200996 
L 69.740864 -60.282583 
L 71.535437 -61.256209 
L 73.33001 -62.146661 
L 75.124583 -62.970102 
L 76.919156 -63.737774 
L 78.713729 -64.457871 
L 80.508302 -65.136591 
L 82.302874 -65.778759 
L 84.097447 -66.388219 
L 85.89202 -66.968097 
L 87.686593 -67.520975 
L 89.481166 -68.049018 
L 91.275739 -68.554064 
L 93.070312 -69.037688 
L 94.864884 -69.501257 
L 96.659457 -69.945962 
L 98.45403 -70.372855 
L 100.248603 -70.782864 
L 102.043176 -71.176821 
L 103.837749 -71.555471 
L 105.632322 -71.919484 
L 107.426894 -72.269469 
L 109.221467 -72.60598 
L 111.01604 -72.929524 
L 112.810613 -73.240563 
L 114.605186 -73.539527 
L 116.399759 -73.826809 
L 118.194332 -74.102775 
L 119.988905 -74.367766 
L 121.783477 -74.622097 
L 123.57805 -74.866066 
L 125.372623 -75.099948 
L 127.167196 -75.324004 
L 128.961769 -75.538478 
L 130.756342 -75.743601 
L 132.550915 -75.939591 
L 134.345487 -76.126652 
L 136.14006 -76.304981 
L 137.934633 -76.474762 
L 139.729206 -76.636171 
L 141.523779 -76.789376 
L 143.318352 -76.934537 
L 145.112925 -77.071805 
L 146.907497 -77.201326 
L 148.70207 -77.32324 
L 150.496643 -77.437681 
L 152.291216 -77.544776 
L 154.085789 -77.644648 
L 155.880362 -77.737415 
L 157.674935 -77.823192 
L 159.469508 -77.902087 
L 161.26408 -77.974206 
L 163.058653 -78.03965 
L 164.853226 -78.098518 
L 166.647799 -78.150904 
L 168.442372 -78.196899 
L 170.236945 -78.236593 
L 172.031518 -78.270071 
L 173.82609 -78.297416 
L 175.620663 -78.318708 
L 177.415236 -78.334026 
L 179.209809 -78.343444 
L 181.004382 -78.347036 
L 182.798955 -78.344873 
L 184.593528 -78.337024 
L 186.388101 -78.323557 
L 188.182673 -78.304536 
L 189.977246 -78.280026 
L 191.771819 -78.250087 
L 193.566392 -78.21478 
L 195.360965 -78.174163 
L 197.155538 -78.128294 
L 198.950111 -78.077227 
L 200.744683 -78.021017 
L 202.539256 -77.959715 
L 204.333829 -77.893475 
L 206.128402 -77.823271 
L 207.922975 -77.749379 
L 209.717548 -77.671846 
L 211.512121 -77.590718 
L 213.306693 -77.506041 
L 215.101266 -77.417858 
L 216.895839 -77.326212 
L 218.690412 -77.231145 
L 220.484985 -77.132699 
L 222.279558 -77.030912 
L 224.074131 -76.925824 
L 225.868704 -76.817473 
L 227.663276 -76.705896 
L 229.457849 -76.591129 
L 231.252422 -76.473207 
L 233.046995 -76.352165 
L 234.841568 -76.228036 
L 236.636141 -76.100854 
L 238.430714 -75.970649 
L 240.225286 -75.837453 
L 242.019859 -75.701297 
L 243.814432 -75.56221 
L 245.609005 -75.420221 
L 247.403578 -75.275358 
L 249.198151 -75.127649 
L 250.992724 -74.97712 
L 252.787296 -74.823798 
L 254.581869 -74.667707 
L 256.376442 -74.508874 
L 258.171015 -74.34732 
L 259.965588 -74.183071 
L 261.760161 -74.016149 
L 263.554734 -73.846575 
L 265.349307 -73.674373 
L 267.143879 -73.499561 
L 268.938452 -73.322161 
L 270.733025 -73.142193 
L 272.527598 -72.959676 
L 274.322171 -72.774627 
L 276.116744 -72.587066 
L 277.911317 -72.39701 
L 279.705889 -72.204475 
L 281.500462 -72.009478 
L 283.295035 -71.812035 
L 285.089608 -71.612161 
L 286.884181 -71.40987 
L 288.678754 -71.205177 
L 290.473327 -70.998096 
L 292.267899 -70.788639 
L 294.062472 -70.57682 
L 295.857045 -70.36265 
L 297.651618 -70.146141 
L 299.446191 -69.927304 
L 301.240764 -69.706151 
L 303.035337 -69.48269 
L 304.82991 -69.256932 
L 306.624482 -69.028886 
L 308.419055 -68.798561 
L 310.213628 -68.565964 
L 312.008201 -68.331104 
L 313.802774 -68.093989 
L 315.597347 -67.854624 
L 317.39192 -67.613016 
L 319.186492 -67.369171 
L 320.981065 -67.123095 
L 322.775638 -66.874792 
L 324.570211 -66.624268 
L 326.364784 -66.371526 
L 328.159357 -66.11657 
L 329.95393 -65.859403 
L 331.748503 -65.600029 
L 333.543075 -65.338449 
L 335.337648 -65.074665 
L 337.132221 -64.808679 
L 338.926794 -64.540492 
L 340.721367 -64.270105 
L 342.51594 -63.997517 
L 344.310513 -63.72273 
L 346.105085 -63.445741 
L 347.899658 -63.16655 
L 349.694231 -62.885156 
L 351.488804 -62.601557 
L 353.283377 -62.31575 
L 355.07795 -62.027733 
L 356.872523 -61.737503 
L 358.667095 -61.445056 
L 360.461668 -61.150388 
L 362.256241 -60.853495 
L 364.050814 -60.554373 
L 365.845387 -60.253016 
L 367.63996 -59.949418 
L 369.434533 -59.643574 
L 371.229106 -59.335477 
L 373.023678 -59.025122 
L 374.818251 -58.7125 
L 376.612824 -58.397603 
L 378.407397 -58.080426 
L 380.20197 -57.760958 
L 381.996543 -57.439191 
L 383.791116 -57.115117 
L 385.585688 -56.788726 
L 387.380261 -56.460007 
L 389.174834 -56.128951 
L 390.969407 -55.795547 
L 392.76398 -55.459785 
L 394.558553 -55.121652 
L 396.353126 -54.781137 
L 398.147698 -54.438229 
L 399.942271 -54.092913 
L 401.736844 -53.745178 
L 403.531417 -53.39501 
L 405.32599 -53.042396 
L 407.120563 -52.687322 
L 408.915136 -52.329772 
L 410.709709 -51.969733 
L 412.504281 -51.607189 
L 414.298854 -51.242125 
L 416.093427 -50.874524 
L 417.888 -50.504371 
L 417.888 -49.604429 
L 417.888 -49.604429 
L 416.093427 -49.47255 
L 414.298854 -49.34122 
L 412.504281 -49.210422 
L 410.709709 -49.080141 
L 408.915136 -48.95036 
L 407.120563 -48.821065 
L 405.32599 -48.692241 
L 403.531417 -48.563873 
L 401.736844 -48.435948 
L 399.942271 -48.308451 
L 398.147698 -48.18137 
L 396.353126 -48.054692 
L 394.558553 -47.928404 
L 392.76398 -47.802493 
L 390.969407 -47.676949 
L 389.174834 -47.55176 
L 387.380261 -47.426915 
L 385.585688 -47.302403 
L 383.791116 -47.178214 
L 381.996543 -47.054338 
L 380.20197 -46.930766 
L 378.407397 -46.807489 
L 376.612824 -46.684498 
L 374.818251 -46.561785 
L 373.023678 -46.439341 
L 371.229106 -46.31716 
L 369.434533 -46.195234 
L 367.63996 -46.073557 
L 365.845387 -45.952122 
L 364.050814 -45.830923 
L 362.256241 -45.709955 
L 360.461668 -45.589213 
L 358.667095 -45.468692 
L 356.872523 -45.348388 
L 355.07795 -45.228296 
L 353.283377 -45.108414 
L 351.488804 -44.988738 
L 349.694231 -44.869266 
L 347.899658 -44.749994 
L 346.105085 -44.630923 
L 344.310513 -44.512049 
L 342.51594 -44.393372 
L 340.721367 -44.274891 
L 338.926794 -44.156607 
L 337.132221 -44.038519 
L 335.337648 -43.920628 
L 333.543075 -43.802935 
L 331.748503 -43.685441 
L 329.95393 -43.56815 
L 328.159357 -43.451062 
L 326.364784 -43.334181 
L 324.570211 -43.21751 
L 322.775638 -43.101052 
L 320.981065 -42.984813 
L 319.186492 -42.868795 
L 317.39192 -42.753006 
L 315.597347 -42.637449 
L 313.802774 -42.522131 
L 312.008201 -42.407058 
L 310.213628 -42.292237 
L 308.419055 -42.177676 
L 306.624482 -42.063381 
L 304.82991 -41.949362 
L 303.035337 -41.835627 
L 301.240764 -41.722186 
L 299.446191 -41.609047 
L 297.651618 -41.496222 
L 295.857045 -41.38372 
L 294.062472 -41.271553 
L 292.267899 -41.159733 
L 290.473327 -41.048271 
L 288.678754 -40.937181 
L 286.884181 -40.826475 
L 285.089608 -40.716168 
L 283.295035 -40.606272 
L 281.500462 -40.496804 
L 279.705889 -40.387778 
L 277.911317 -40.279211 
L 276.116744 -40.171118 
L 274.322171 -40.063516 
L 272.527598 -39.956423 
L 270.733025 -39.849856 
L 268.938452 -39.743835 
L 267.143879 -39.638379 
L 265.349307 -39.533507 
L 263.554734 -39.429239 
L 261.760161 -39.325597 
L 259.965588 -39.222602 
L 258.171015 -39.120276 
L 256.376442 -39.018642 
L 254.581869 -38.917724 
L 252.787296 -38.817545 
L 250.992724 -38.71813 
L 249.198151 -38.619504 
L 247.403578 -38.521694 
L 245.609005 -38.424727 
L 243.814432 -38.328629 
L 242.019859 -38.23343 
L 240.225286 -38.139157 
L 238.430714 -38.04584 
L 236.636141 -37.953511 
L 234.841568 -37.8622 
L 233.046995 -37.771938 
L 231.252422 -37.68276 
L 229.457849 -37.594697 
L 227.663276 -37.507786 
L 225.868704 -37.42206 
L 224.074131 -37.337557 
L 222.279558 -37.254312 
L 220.484985 -37.172365 
L 218.690412 -37.091754 
L 216.895839 -37.012519 
L 215.101266 -36.934701 
L 213.306693 -36.858341 
L 211.512121 -36.783483 
L 209.717548 -36.710171 
L 207.922975 -36.638449 
L 206.128402 -36.568365 
L 204.333829 -36.499965 
L 202.539256 -36.433073 
L 200.744683 -36.366812 
L 198.950111 -36.301133 
L 197.155538 -36.236088 
L 195.360965 -36.171732 
L 193.566392 -36.108119 
L 191.771819 -36.045308 
L 189.977246 -35.983355 
L 188.182673 -35.922322 
L 186.388101 -35.86227 
L 184.593528 -35.803262 
L 182.798955 -35.745363 
L 181.004382 -35.688642 
L 179.209809 -35.633166 
L 177.415236 -35.579008 
L 175.620663 -35.526239 
L 173.82609 -35.474937 
L 172.031518 -35.425178 
L 170.236945 -35.377044 
L 168.442372 -35.330616 
L 166.647799 -35.285982 
L 164.853226 -35.243228 
L 163.058653 -35.202448 
L 161.26408 -35.163735 
L 159.469508 -35.127187 
L 157.674935 -35.092907 
L 155.880362 -35.060999 
L 154.085789 -35.031573 
L 152.291216 -35.004743 
L 150.496643 -34.980627 
L 148.70207 -34.959347 
L 146.907497 -34.941032 
L 145.112925 -34.925815 
L 143.318352 -34.913836 
L 141.523779 -34.90524 
L 139.729206 -34.90018 
L 137.934633 -34.898815 
L 136.14006 -34.901313 
L 134.345487 -34.90785 
L 132.550915 -34.918611 
L 130.756342 -34.93379 
L 128.961769 -34.953594 
L 127.167196 -34.978241 
L 125.372623 -35.00796 
L 123.57805 -35.042996 
L 121.783477 -35.08361 
L 119.988905 -35.130077 
L 118.194332 -35.182695 
L 116.399759 -35.24178 
L 114.605186 -35.307671 
L 112.810613 -35.380734 
L 111.01604 -35.461365 
L 109.221467 -35.549991 
L 107.426894 -35.647076 
L 105.632322 -35.753125 
L 103.837749 -35.868694 
L 102.043176 -35.994389 
L 100.248603 -36.130884 
L 98.45403 -36.278922 
L 96.659457 -36.439334 
L 94.864884 -36.61305 
L 93.070312 -36.80112 
L 91.275739 -37.004737 
L 89.481166 -37.225266 
L 87.686593 -37.464284 
L 85.89202 -37.723627 
L 84.097447 -38.005462 
L 82.302874 -38.31237 
L 80.508302 -38.647476 
L 78.713729 -39.014626 
L 76.919156 -39.418644 
L 75.124583 -39.865727 
L 73.33001 -40.364071 
L 71.535437 -40.924917 
L 69.740864 -41.564428 
L 67.946291 -42.30739 
L 66.151719 -43.195495 
L 64.357146 -44.309993 
L 62.562573 -45.86058 
L 60.768 -50.0544 
z
" style="stroke: #1976d2; stroke-opacity: 0.7; stroke-width: 2"/>
    </defs>
    <g clip-path="url(#p45d8da3381)">
     <use xlink:href="#m814e67e8c4" x="0" y="138.173812" style="fill: #bbdefb; fill-opacity: 0.7; stroke: #1976d2; stroke-opacity: 0.7; stroke-width: 2"/>
    </g>
   </g>
   <g id="line2d_1">
    <path d="M 60.768 88.119412 
L 78.713729 86.437564 
L 96.659457 84.981164 
L 114.605186 83.750214 
L 132.550915 82.744712 
L 150.496643 81.964659 
L 168.442372 81.410055 
L 186.388101 81.080899 
L 204.333829 80.977093 
L 231.252422 81.095829 
L 258.171015 81.440014 
L 285.089608 82.009648 
L 312.008201 82.804731 
L 338.926794 83.825263 
L 365.845387 85.071244 
L 392.76398 86.542673 
L 417.888 88.119412 
L 417.888 88.119412 
" clip-path="url(#p45d8da3381)" style="fill: none; stroke-dasharray: 5.55,2.4; stroke-dashoffset: 0; stroke: #d32f2f; stroke-width: 1.5"/>
   </g>
   <g id="line2d_2">
    <path d="M 60.768 88.119412 
L 417.888 88.119412 
" clip-path="url(#p45d8da3381)" style="fill: none; stroke: #000000; stroke-linecap: square"/>
   </g>
   <g id="patch_2">
    <path d="M 77.205476 72.364716 
Q 69.708085 79.550681 63.017849 85.963018 
" style="fill: none; stroke: #1565c0; stroke-linecap: round"/>
    <path d="M 67.716691 84.506693 
L 63.017849 85.963018 
L 64.672094 81.330149 
" style="fill: none; stroke: #1565c0; stroke-linecap: round"/>
   </g>
   <g id="text_1">
    <!-- Bordo d'attacco -->
    <g style="fill: #1565c0" transform="translate(42.912 66.692212) scale(0.11 -0.11)">
     <defs>
      <path id="DejaVuSans-42" d="M 1259 2228 
L 1259 519 
L 2272 519 
Q 2781 519 3026 730 
Q 3272 941 3272 1375 
Q 3272 1813 3026 2020 
Q 2781 2228 2272 2228 
L 1259 2228 
z
M 1259 4147 
L 1259 2741 
L 2194 2741 
Q 2656 2741 2882 2914 
Q 3109 3088 3109 3444 
Q 3109 3797 2882 3972 
Q 2656 4147 2194 4147 
L 1259 4147 
z
M 628 4666 
L 2241 4666 
Q 2963 4666 3353 4366 
Q 3744 4066 3744 3513 
Q 3744 3084 3544 2831 
Q 3344 2578 2956 2516 
Q 3422 2416 3680 2098 
Q 3938 1781 3938 1306 
Q 3938 681 3513 340 
Q 3088 0 2303 0 
L 628 0 
L 628 4666 
z
" transform="scale(0.015625)"/>
      <path id="DejaVuSans-6f" d="M 1959 3097 
Q 1497 3097 1228 2736 
Q 959 2375 959 1747 
Q 959 1119 1226 758 
Q 1494 397 1959 397 
Q 2419 397 2687 759 
Q 2956 1122 2956 1747 
Q 2956 2369 2687 2733 
Q 2419 3097 1959 3097 
z
M 1959 3584 
Q 2709 3584 3137 3096 
Q 3566 2609 3566 1747 
Q 3566 888 3137 398 
Q 2709 -91 1959 -91 
Q 1206 -91 779 398 
Q 353 888 353 1747 
Q 353 2609 779 3096 
Q 1206 3584 1959 3584 
z
" transform="scale(0.015625)"/>
      <path id="DejaVuSans-72" d="M 2631 2963 
Q 2534 3019 2420 3045 
Q 2306 3072 2169 3072 
Q 1681 3072 1420 2755 
Q 1159 2438 1159 1844 
L 1159 0 
L 581 0 
L 581 3500 
L 1159 3500 
L 1159 2956 
Q 1341 3275 1631 3429 
Q 1922 3584 2338 3584 
Q 2397 3584 2469 3576 
Q 2541 3569 2628 3553 
L 2631 2963 
z
" transform="scale(0.015625)"/>
      <path id="DejaVuSans-64" d="M 2906 2969 
L 2906 4863 
L 3481 4863 
L 3481 0 
L 2906 0 
L 2906 525 
Q 2725 213 2448 61 
Q 2172 -91 1784 -91 
Q 1150 -91 751 415 
Q 353 922 353 1747 
Q 353 2572 751 3078 
Q 1150 3584 1784 3584 
Q 2172 3584 2448 3432 
Q 2725 3281 2906 2969 
z
M 947 1747 
Q 947 1113 1208 752 
Q 1469 391 1925 391 
Q 2381 391 2643 752 
Q 2906 1113 2906 1747 
Q 2906 2381 2643 2742 
Q 2381 3103 1925 3103 
Q 1469 3103 1208 2742 
Q 947 2381 947 1747 
z
" transform="scale(0.015625)"/>
      <path id="DejaVuSans-20" transform="scale(0.015625)"/>
      <path id="DejaVuSans-27" d="M 1147 4666 
L 1147 2931 
L 616 2931 
L 616 4666 
L 1147 4666 
z
" transform="scale(0.015625)"/>
      <path id="DejaVuSans-61" d="M 2194 1759 
Q 1497 1759 1228 1600 
Q 959 1441 959 1056 
Q 959 750 1161 570 
Q 1363 391 1709 391 
Q 2188 391 2477 730 
Q 2766 1069 2766 1631 
L 2766 1759 
L 2194 1759 
z
M 3341 1997 
L 3341 0 
L 2766 0 
L 2766 531 
Q 2569 213 2275 61 
Q 1981 -91 1556 -91 
Q 1019 -91 701 211 
Q 384 513 384 1019 
Q 384 1609 779 1909 
Q 1175 2209 1959 2209 
L 2766 2209 
L 2766 2266 
Q 2766 2663 2505 2880 
Q 2244 3097 1772 3097 
Q 1472 3097 1187 3025 
Q 903 2953 641 2809 
L 641 3341 
Q 956 3463 1253 3523 
Q 1550 3584 1831 3584 
Q 2591 3584 2966 3190 
Q 3341 2797 3341 1997 
z
" transform="scale(0.015625)"/>
      <path id="DejaVuSans-74" d="M 1172 4494 
L 1172 3500 
L 2356 3500 
L 2356 3053 
L 1172 3053 
L 1172 1153 
Q 1172 725 1289 603 
Q 1406 481 1766 481 
L 2356 481 
L 2356 0 
L 1766 0 
Q 1100 0 847 248 
Q 594 497 594 1153 
L 594 3053 
L 172 3053 
L 172 3500 
L 594 3500 
L 594 4494 
L 1172 4494 
z
" transform="scale(0.015625)"/>
      <path id="DejaVuSans-63" d="M 3122 3366 
L 3122 2828 
Q 2878 2963 2633 3030 
Q 2388 3097 2138 3097 
Q 1578 3097 1268 2742 
Q 959 2388 959 1747 
Q 959 1106 1268 751 
Q 1578 397 2138 397 
Q 2388 397 2633 464 
Q 2878 531 3122 666 
L 3122 134 
Q 2881 22 2623 -34 
Q 2366 -91 2075 -91 
Q 1284 -91 818 406 
Q 353 903 353 1747 
Q 353 2603 823 3093 
Q 1294 3584 2113 3584 
Q 2378 3584 2631 3529 
Q 2884 3475 3122 3366 
z
" transform="scale(0.015625)"/>
     </defs>
     <use xlink:href="#DejaVuSans-42"/>
     <use xlink:href="#DejaVuSans-6f" x="68.603516"/>
     <use xlink:href="#DejaVuSans-72" x="129.785156"/>
     <use xlink:href="#DejaVuSans-64" x="169.148438"/>
     <use xlink:href="#DejaVuSans-6f" x="232.625"/>
     <use xlink:href="#DejaVuSans-20" x="293.806641"/>
     <use xlink:href="#DejaVuSans-64" x="325.59375"/>
     <use xlink:href="#DejaVuSans-27" x="389.070312"/>
     <use xlink:href="#DejaVuSans-61" x="416.560547"/>
     <use xlink:href="#DejaVuSans-74" x="477.839844"/>
     <use xlink:href="#DejaVuSans-74" x="517.048828"/>
     <use xlink:href="#DejaVuSans-61" x="556.257812"/>
     <use xlink:href="#DejaVuSans-63" x="617.537109"/>
     <use xlink:href="#DejaVuSans-63" x="672.517578"/>
     <use xlink:href="#DejaVuSans-6f" x="727.498047"/>
    </g>
   </g>
   <g id="patch_3">
    <path d="M 392.10017 72.036966 
Q 404.145718 79.54911 415.242598 86.469621 
" style="fill: none; stroke: #1565c0; stroke-linecap: round"/>
    <path d="M 412.673311 82.274533 
L 415.242598 86.469621 
L 410.344956 86.007998 
" style="fill: none; stroke: #1565c0; stroke-linecap: round"/>
   </g>
   <g id="text_2">
    <!-- Bordo d'uscita -->
    <g style="fill: #1565c0" transform="translate(339.3216 66.692212) scale(0.11 -0.11)">
     <defs>
      <path id="DejaVuSans-75" d="M 544 1381 
L 544 3500 
L 1119 3500 
L 1119 1403 
Q 1119 906 1312 657 
Q 1506 409 1894 409 
Q 2359 409 2629 706 
Q 2900 1003 2900 1516 
L 2900 3500 
L 3475 3500 
L 3475 0 
L 2900 0 
L 2900 538 
Q 2691 219 2414 64 
Q 2138 -91 1772 -91 
Q 1169 -91 856 284 
Q 544 659 544 1381 
z
M 1991 3584 
L 1991 3584 
z
" transform="scale(0.015625)"/>
      <path id="DejaVuSans-73" d="M 2834 3397 
L 2834 2853 
Q 2591 2978 2328 3040 
Q 2066 3103 1784 3103 
Q 1356 3103 1142 2972 
Q 928 2841 928 2578 
Q 928 2378 1081 2264 
Q 1234 2150 1697 2047 
L 1894 2003 
Q 2506 1872 2764 1633 
Q 3022 1394 3022 966 
Q 3022 478 2636 193 
Q 2250 -91 1575 -91 
Q 1294 -91 989 -36 
Q 684 19 347 128 
L 347 722 
Q 666 556 975 473 
Q 1284 391 1588 391 
Q 1994 391 2212 530 
Q 2431 669 2431 922 
Q 2431 1156 2273 1281 
Q 2116 1406 1581 1522 
L 1381 1569 
Q 847 1681 609 1914 
Q 372 2147 372 2553 
Q 372 3047 722 3315 
Q 1072 3584 1716 3584 
Q 2034 3584 2315 3537 
Q 2597 3491 2834 3397 
z
" transform="scale(0.015625)"/>
      <path id="DejaVuSans-69" d="M 603 3500 
L 1178 3500 
L 1178 0 
L 603 0 
L 603 3500 
z
M 603 4863 
L 1178 4863 
L 1178 4134 
L 603 4134 
L 603 4863 
z
" transform="scale(0.015625)"/>
     </defs>
     <use xlink:href="#DejaVuSans-42"/>
     <use xlink:href="#DejaVuSans-6f" x="68.603516"/>
     <use xlink:href="#DejaVuSans-72" x="129.785156"/>
     <use xlink:href="#DejaVuSans-64" x="169.148438"/>
     <use xlink:href="#DejaVuSans-6f" x="232.625"/>
     <use xlink:href="#DejaVuSans-20" x="293.806641"/>
     <use xlink:href="#DejaVuSans-64" x="325.59375"/>
     <use xlink:href="#DejaVuSans-27" x="389.070312"/>
     <use xlink:href="#DejaVuSans-75" x="416.560547"/>
     <use xlink:href="#DejaVuSans-73" x="479.939453"/>
     <use xlink:href="#DejaVuSans-63" x="532.039062"/>
     <use xlink:href="#DejaVuSans-69" x="587.019531"/>
     <use xlink:href="#DejaVuSans-74" x="614.802734"/>
     <use xlink:href="#DejaVuSans-61" x="654.011719"/>
    </g>
   </g>
   <g id="patch_4">
    <path d="M 167.904 99.178199 
Q 167.904 81.422828 167.904 63.667457 
" style="fill: none; stroke: #7b1fa2; stroke-width: 1.5; stroke-linecap: round"/>
    <path d="M 170.304 94.378199 
L 167.904 99.178199 
L 165.504 94.378199 
" style="fill: none; stroke: #7b1fa2; stroke-width: 1.5; stroke-linecap: round"/>
    <path d="M 165.504 68.467457 
L 167.904 63.667457 
L 170.304 68.467457 
" style="fill: none; stroke: #7b1fa2; stroke-width: 1.5; stroke-linecap: round"/>
   </g>
   <g id="text_3">
    <!-- spessore -->
    <g style="fill: #6a1b9a" transform="translate(175.0464 70.898981) scale(0.09 -0.09)">
     <defs>
      <path id="DejaVuSans-70" d="M 1159 525 
L 1159 -1331 
L 581 -1331 
L 581 3500 
L 1159 3500 
L 1159 2969 
Q 1341 3281 1617 3432 
Q 1894 3584 2278 3584 
Q 2916 3584 3314 3078 
Q 3713 2572 3713 1747 
Q 3713 922 3314 415 
Q 2916 -91 2278 -91 
Q 1894 -91 1617 61 
Q 1341 213 1159 525 
z
M 3116 1747 
Q 3116 2381 2855 2742 
Q 2594 3103 2138 3103 
Q 1681 3103 1420 2742 
Q 1159 2381 1159 1747 
Q 1159 1113 1420 752 
Q 1681 391 2138 391 
Q 2594 391 2855 752 
Q 3116 1113 3116 1747 
z
" transform="scale(0.015625)"/>
      <path id="DejaVuSans-65" d="M 3597 1894 
L 3597 1613 
L 953 1613 
Q 991 1019 1311 708 
Q 1631 397 2203 397 
Q 2534 397 2845 478 
Q 3156 559 3463 722 
L 3463 178 
Q 3153 47 2828 -22 
Q 2503 -91 2169 -91 
Q 1331 -91 842 396 
Q 353 884 353 1716 
Q 353 2575 817 3079 
Q 1281 3584 2069 3584 
Q 2775 3584 3186 3129 
Q 3597 2675 3597 1894 
z
M 3022 2063 
Q 3016 2534 2758 2815 
Q 2500 3097 2075 3097 
Q 1594 3097 1305 2825 
Q 1016 2553 972 2059 
L 3022 2063 
z
" transform="scale(0.015625)"/>
     </defs>
     <use xlink:href="#DejaVuSans-73"/>
     <use xlink:href="#DejaVuSans-70" x="52.099609"/>
     <use xlink:href="#DejaVuSans-65" x="115.576172"/>
     <use xlink:href="#DejaVuSans-73" x="177.099609"/>
     <use xlink:href="#DejaVuSans-73" x="229.199219"/>
     <use xlink:href="#DejaVuSans-6f" x="281.298828"/>
     <use xlink:href="#DejaVuSans-72" x="342.480469"/>
     <use xlink:href="#DejaVuSans-65" x="381.34375"/>
    </g>
    <!-- max = 12%c -->
    <g style="fill: #6a1b9a" transform="translate(175.0464 80.977012) scale(0.09 -0.09)">
     <defs>
      <path id="DejaVuSans-6d" d="M 3328 2828 
Q 3544 3216 3844 3400 
Q 4144 3584 4550 3584 
Q 5097 3584 5394 3201 
Q 5691 2819 5691 2113 
L 5691 0 
L 5113 0 
L 5113 2094 
Q 5113 2597 4934 2840 
Q 4756 3084 4391 3084 
Q 3944 3084 3684 2787 
Q 3425 2491 3425 1978 
L 3425 0 
L 2847 0 
L 2847 2094 
Q 2847 2600 2669 2842 
Q 2491 3084 2119 3084 
Q 1678 3084 1418 2786 
Q 1159 2488 1159 1978 
L 1159 0 
L 581 0 
L 581 3500 
L 1159 3500 
L 1159 2956 
Q 1356 3278 1631 3431 
Q 1906 3584 2284 3584 
Q 2666 3584 2933 3390 
Q 3200 3197 3328 2828 
z
" transform="scale(0.015625)"/>
      <path id="DejaVuSans-78" d="M 3513 3500 
L 2247 1797 
L 3578 0 
L 2900 0 
L 1881 1375 
L 863 0 
L 184 0 
L 1544 1831 
L 300 3500 
L 978 3500 
L 1906 2253 
L 2834 3500 
L 3513 3500 
z
" transform="scale(0.015625)"/>
      <path id="DejaVuSans-3d" d="M 678 2906 
L 4684 2906 
L 4684 2381 
L 678 2381 
L 678 2906 
z
M 678 1631 
L 4684 1631 
L 4684 1100 
L 678 1100 
L 678 1631 
z
" transform="scale(0.015625)"/>
      <path id="DejaVuSans-31" d="M 794 531 
L 1825 531 
L 1825 4091 
L 703 3866 
L 703 4441 
L 1819 4666 
L 2450 4666 
L 2450 531 
L 3481 531 
L 3481 0 
L 794 0 
L 794 531 
z
" transform="scale(0.015625)"/>
      <path id="DejaVuSans-32" d="M 1228 531 
L 3431 531 
L 3431 0 
L 469 0 
L 469 531 
Q 828 903 1448 1529 
Q 2069 2156 2228 2338 
Q 2531 2678 2651 2914 
Q 2772 3150 2772 3378 
Q 2772 3750 2511 3984 
Q 2250 4219 1831 4219 
Q 1534 4219 1204 4116 
Q 875 4013 500 3803 
L 500 4441 
Q 881 4594 1212 4672 
Q 1544 4750 1819 4750 
Q 2544 4750 2975 4387 
Q 3406 4025 3406 3419 
Q 3406 3131 3298 2873 
Q 3191 2616 2906 2266 
Q 2828 2175 2409 1742 
Q 1991 1309 1228 531 
z
" transform="scale(0.015625)"/>
      <path id="DejaVuSans-25" d="M 4653 2053 
Q 4381 2053 4226 1822 
Q 4072 1591 4072 1178 
Q 4072 772 4226 539 
Q 4381 306 4653 306 
Q 4919 306 5073 539 
Q 5228 772 5228 1178 
Q 5228 1588 5073 1820 
Q 4919 2053 4653 2053 
z
M 4653 2450 
Q 5147 2450 5437 2106 
Q 5728 1763 5728 1178 
Q 5728 594 5436 251 
Q 5144 -91 4653 -91 
Q 4153 -91 3862 251 
Q 3572 594 3572 1178 
Q 3572 1766 3864 2108 
Q 4156 2450 4653 2450 
z
M 1428 4353 
Q 1159 4353 1004 4120 
Q 850 3888 850 3481 
Q 850 3069 1003 2837 
Q 1156 2606 1428 2606 
Q 1700 2606 1854 2837 
Q 2009 3069 2009 3481 
Q 2009 3884 1853 4118 
Q 1697 4353 1428 4353 
z
M 4250 4750 
L 4750 4750 
L 1831 -91 
L 1331 -91 
L 4250 4750 
z
M 1428 4750 
Q 1922 4750 2215 4408 
Q 2509 4066 2509 3481 
Q 2509 2891 2217 2550 
Q 1925 2209 1428 2209 
Q 931 2209 642 2551 
Q 353 2894 353 3481 
Q 353 4063 643 4406 
Q 934 4750 1428 4750 
z
" transform="scale(0.015625)"/>
     </defs>
     <use xlink:href="#DejaVuSans-6d"/>
     <use xlink:href="#DejaVuSans-61" x="97.412109"/>
     <use xlink:href="#DejaVuSans-78" x="158.691406"/>
     <use xlink:href="#DejaVuSans-20" x="217.871094"/>
     <use xlink:href="#DejaVuSans-3d" x="249.658203"/>
     <use xlink:href="#DejaVuSans-20" x="333.447266"/>
     <use xlink:href="#DejaVuSans-31" x="365.234375"/>
     <use xlink:href="#DejaVuSans-32" x="428.857422"/>
     <use xlink:href="#DejaVuSans-25" x="492.480469"/>
     <use xlink:href="#DejaVuSans-63" x="587.5"/>
    </g>
   </g>
   <g id="patch_5">
    <path d="M 203.616 84.779434 
Q 203.616 84.549976 203.616 84.320517 
" style="fill: none; stroke: #388e3c; stroke-width: 1.2; stroke-linecap: round"/>
    <path d="M 206.016 79.979434 
L 203.616 84.779434 
L 201.216 79.979434 
" style="fill: none; stroke: #388e3c; stroke-width: 1.2; stroke-linecap: round"/>
    <path d="M 201.216 89.120517 
L 203.616 84.320517 
L 206.016 89.120517 
" style="fill: none; stroke: #388e3c; stroke-width: 1.2; stroke-linecap: round"/>
   </g>
   <g id="text_4">
    <!-- freccia $f$ -->
    <g style="fill: #1b5e20" transform="translate(139.3344 88.754981) scale(0.09 -0.09)">
     <defs>
      <path id="DejaVuSans-66" d="M 2375 4863 
L 2375 4384 
L 1825 4384 
Q 1516 4384 1395 4259 
Q 1275 4134 1275 3809 
L 1275 3500 
L 2222 3500 
L 2222 3053 
L 1275 3053 
L 1275 0 
L 697 0 
L 697 3053 
L 147 3053 
L 147 3500 
L 697 3500 
L 697 3744 
Q 697 4328 969 4595 
Q 1241 4863 1831 4863 
L 2375 4863 
z
" transform="scale(0.015625)"/>
      <path id="DejaVuSans-Oblique-66" d="M 3059 4863 
L 2969 4384 
L 2419 4384 
Q 2106 4384 1964 4261 
Q 1822 4138 1753 3809 
L 1691 3500 
L 2638 3500 
L 2553 3053 
L 1606 3053 
L 1013 0 
L 434 0 
L 1031 3053 
L 481 3053 
L 563 3500 
L 1113 3500 
L 1159 3744 
Q 1278 4363 1576 4613 
Q 1875 4863 2516 4863 
L 3059 4863 
z
" transform="scale(0.015625)"/>
     </defs>
     <use xlink:href="#DejaVuSans-66" transform="translate(0 0.015625)"/>
     <use xlink:href="#DejaVuSans-72" transform="translate(35.205078 0.015625)"/>
     <use xlink:href="#DejaVuSans-65" transform="translate(76.318359 0.015625)"/>
     <use xlink:href="#DejaVuSans-63" transform="translate(137.841797 0.015625)"/>
     <use xlink:href="#DejaVuSans-63" transform="translate(192.822266 0.015625)"/>
     <use xlink:href="#DejaVuSans-69" transform="translate(247.802734 0.015625)"/>
     <use xlink:href="#DejaVuSans-61" transform="translate(275.585938 0.015625)"/>
     <use xlink:href="#DejaVuSans-20" transform="translate(336.865234 0.015625)"/>
     <use xlink:href="#DejaVuSans-Oblique-66" transform="translate(368.652344 0.015625)"/>
    </g>
    <!-- = 2%c -->
    <g style="fill: #1b5e20" transform="translate(139.3344 98.833012) scale(0.09 -0.09)">
     <use xlink:href="#DejaVuSans-3d"/>
     <use xlink:href="#DejaVuSans-20" x="83.789062"/>
     <use xlink:href="#DejaVuSans-32" x="115.576172"/>
     <use xlink:href="#DejaVuSans-25" x="179.199219"/>
     <use xlink:href="#DejaVuSans-63" x="274.21875"/>
    </g>
   </g>
   <g id="text_5">
    <!-- Profilo alare NACA 2412 (Cessna 172) -->
    <g transform="translate(98.555 17.837812) scale(0.14 -0.14)">
     <defs>
      <path id="DejaVuSans-50" d="M 1259 4147 
L 1259 2394 
L 2053 2394 
Q 2494 2394 2734 2622 
Q 2975 2850 2975 3272 
Q 2975 3691 2734 3919 
Q 2494 4147 2053 4147 
L 1259 4147 
z
M 628 4666 
L 2053 4666 
Q 2838 4666 3239 4311 
Q 3641 3956 3641 3272 
Q 3641 2581 3239 2228 
Q 2838 1875 2053 1875 
L 1259 1875 
L 1259 0 
L 628 0 
L 628 4666 
z
" transform="scale(0.015625)"/>
      <path id="DejaVuSans-6c" d="M 603 4863 
L 1178 4863 
L 1178 0 
L 603 0 
L 603 4863 
z
" transform="scale(0.015625)"/>
      <path id="DejaVuSans-4e" d="M 628 4666 
L 1478 4666 
L 3547 763 
L 3547 4666 
L 4159 4666 
L 4159 0 
L 3309 0 
L 1241 3903 
L 1241 0 
L 628 0 
L 628 4666 
z
" transform="scale(0.015625)"/>
      <path id="DejaVuSans-41" d="M 2188 4044 
L 1331 1722 
L 3047 1722 
L 2188 4044 
z
M 1831 4666 
L 2547 4666 
L 4325 0 
L 3669 0 
L 3244 1197 
L 1141 1197 
L 716 0 
L 50 0 
L 1831 4666 
z
" transform="scale(0.015625)"/>
      <path id="DejaVuSans-43" d="M 4122 4306 
L 4122 3641 
Q 3803 3938 3442 4084 
Q 3081 4231 2675 4231 
Q 1875 4231 1450 3742 
Q 1025 3253 1025 2328 
Q 1025 1406 1450 917 
Q 1875 428 2675 428 
Q 3081 428 3442 575 
Q 3803 722 4122 1019 
L 4122 359 
Q 3791 134 3420 21 
Q 3050 -91 2638 -91 
Q 1578 -91 968 557 
Q 359 1206 359 2328 
Q 359 3453 968 4101 
Q 1578 4750 2638 4750 
Q 3056 4750 3426 4639 
Q 3797 4528 4122 4306 
z
" transform="scale(0.015625)"/>
      <path id="DejaVuSans-34" d="M 2419 4116 
L 825 1625 
L 2419 1625 
L 2419 4116 
z
M 2253 4666 
L 3047 4666 
L 3047 1625 
L 3713 1625 
L 3713 1100 
L 3047 1100 
L 3047 0 
L 2419 0 
L 2419 1100 
L 313 1100 
L 313 1709 
L 2253 4666 
z
" transform="scale(0.015625)"/>
      <path id="DejaVuSans-28" d="M 1984 4856 
Q 1566 4138 1362 3434 
Q 1159 2731 1159 2009 
Q 1159 1288 1364 580 
Q 1569 -128 1984 -844 
L 1484 -844 
Q 1016 -109 783 600 
Q 550 1309 550 2009 
Q 550 2706 781 3412 
Q 1013 4119 1484 4856 
L 1984 4856 
z
" transform="scale(0.015625)"/>
      <path id="DejaVuSans-6e" d="M 3513 2113 
L 3513 0 
L 2938 0 
L 2938 2094 
Q 2938 2591 2744 2837 
Q 2550 3084 2163 3084 
Q 1697 3084 1428 2787 
Q 1159 2491 1159 1978 
L 1159 0 
L 581 0 
L 581 3500 
L 1159 3500 
L 1159 2956 
Q 1366 3272 1645 3428 
Q 1925 3584 2291 3584 
Q 2894 3584 3203 3211 
Q 3513 2838 3513 2113 
z
" transform="scale(0.015625)"/>
      <path id="DejaVuSans-37" d="M 525 4666 
L 3525 4666 
L 3525 4397 
L 1831 0 
L 1172 0 
L 2766 4134 
L 525 4134 
L 525 4666 
z
" transform="scale(0.015625)"/>
      <path id="DejaVuSans-29" d="M 513 4856 
L 1013 4856 
Q 1481 4119 1714 3412 
Q 1947 2706 1947 2009 
Q 1947 1309 1714 600 
Q 1481 -109 1013 -844 
L 513 -844 
Q 928 -128 1133 580 
Q 1338 1288 1338 2009 
Q 1338 2731 1133 3434 
Q 928 4138 513 4856 
z
" transform="scale(0.015625)"/>
     </defs>
     <use xlink:href="#DejaVuSans-50"/>
     <use xlink:href="#DejaVuSans-72" x="58.552734"/>
     <use xlink:href="#DejaVuSans-6f" x="97.416016"/>
     <use xlink:href="#DejaVuSans-66" x="158.597656"/>
     <use xlink:href="#DejaVuSans-69" x="193.802734"/>
     <use xlink:href="#DejaVuSans-6c" x="221.585938"/>
     <use xlink:href="#DejaVuSans-6f" x="249.369141"/>
     <use xlink:href="#DejaVuSans-20" x="310.550781"/>
     <use xlink:href="#DejaVuSans-61" x="342.337891"/>
     <use xlink:href="#DejaVuSans-6c" x="403.617188"/>
     <use xlink:href="#DejaVuSans-61" x="431.400391"/>
     <use xlink:href="#DejaVuSans-72" x="492.679688"/>
     <use xlink:href="#DejaVuSans-65" x="531.542969"/>
     <use xlink:href="#DejaVuSans-20" x="593.066406"/>
     <use xlink:href="#DejaVuSans-4e" x="624.853516"/>
     <use xlink:href="#DejaVuSans-41" x="699.658203"/>
     <use xlink:href="#DejaVuSans-43" x="766.316406"/>
     <use xlink:href="#DejaVuSans-41" x="836.140625"/>
     <use xlink:href="#DejaVuSans-20" x="904.548828"/>
     <use xlink:href="#DejaVuSans-32" x="936.335938"/>
     <use xlink:href="#DejaVuSans-34" x="999.958984"/>
     <use xlink:href="#DejaVuSans-31" x="1063.582031"/>
     <use xlink:href="#DejaVuSans-32" x="1127.205078"/>
     <use xlink:href="#DejaVuSans-20" x="1190.828125"/>
     <use xlink:href="#DejaVuSans-28" x="1222.615234"/>
     <use xlink:href="#DejaVuSans-43" x="1261.628906"/>
     <use xlink:href="#DejaVuSans-65" x="1331.453125"/>
     <use xlink:href="#DejaVuSans-73" x="1392.976562"/>
     <use xlink:href="#DejaVuSans-73" x="1445.076172"/>
     <use xlink:href="#DejaVuSans-6e" x="1497.175781"/>
     <use xlink:href="#DejaVuSans-61" x="1560.554688"/>
     <use xlink:href="#DejaVuSans-20" x="1621.833984"/>
     <use xlink:href="#DejaVuSans-31" x="1653.621094"/>
     <use xlink:href="#DejaVuSans-37" x="1717.244141"/>
     <use xlink:href="#DejaVuSans-32" x="1780.867188"/>
     <use xlink:href="#DejaVuSans-29" x="1844.490234"/>
    </g>
   </g>
   <g id="legend_1">
    <g id="patch_6">
     <path d="M 363.334219 57.458437 
L 447.3 57.458437 
Q 449.1 57.458437 449.1 55.658437 
L 449.1 30.137812 
Q 449.1 28.337812 447.3 28.337812 
L 363.334219 28.337812 
Q 361.534219 28.337812 361.534219 30.137812 
L 361.534219 55.658437 
Q 361.534219 57.458437 363.334219 57.458437 
z
" style="fill: #ffffff; opacity: 0.8; stroke: #cccccc; stroke-linejoin: miter"/>
    </g>
    <g id="line2d_3">
     <path d="M 365.134219 35.626406 
L 374.134219 35.626406 
L 383.134219 35.626406 
" style="fill: none; stroke-dasharray: 5.55,2.4; stroke-dashoffset: 0; stroke: #d32f2f; stroke-width: 1.5"/>
    </g>
    <g id="text_6">
     <!-- Linea media -->
     <g transform="translate(390.334219 38.776406) scale(0.09 -0.09)">
      <defs>
       <path id="DejaVuSans-4c" d="M 628 4666 
L 1259 4666 
L 1259 531 
L 3531 531 
L 3531 0 
L 628 0 
L 628 4666 
z
" transform="scale(0.015625)"/>
      </defs>
      <use xlink:href="#DejaVuSans-4c"/>
      <use xlink:href="#DejaVuSans-69" x="55.712891"/>
      <use xlink:href="#DejaVuSans-6e" x="83.496094"/>
      <use xlink:href="#DejaVuSans-65" x="146.875"/>
      <use xlink:href="#DejaVuSans-61" x="208.398438"/>
      <use xlink:href="#DejaVuSans-20" x="269.677734"/>
      <use xlink:href="#DejaVuSans-6d" x="301.464844"/>
      <use xlink:href="#DejaVuSans-65" x="398.876953"/>
      <use xlink:href="#DejaVuSans-64" x="460.400391"/>
      <use xlink:href="#DejaVuSans-69" x="523.876953"/>
      <use xlink:href="#DejaVuSans-61" x="551.660156"/>
     </g>
    </g>
    <g id="line2d_4">
     <path d="M 365.134219 48.836719 
L 374.134219 48.836719 
L 383.134219 48.836719 
" style="fill: none; stroke: #000000; stroke-linecap: square"/>
    </g>
    <g id="text_7">
     <!-- Corda (c) -->
     <g transform="translate(390.334219 51.986719) scale(0.09 -0.09)">
      <use xlink:href="#DejaVuSans-43"/>
      <use xlink:href="#DejaVuSans-6f" x="69.824219"/>
      <use xlink:href="#DejaVuSans-72" x="131.005859"/>
      <use xlink:href="#DejaVuSans-64" x="170.369141"/>
      <use xlink:href="#DejaVuSans-61" x="233.845703"/>
      <use xlink:href="#DejaVuSans-20" x="295.125"/>
      <use xlink:href="#DejaVuSans-28" x="326.912109"/>
      <use xlink:href="#DejaVuSans-63" x="365.925781"/>
      <use xlink:href="#DejaVuSans-29" x="420.90625"/>
     </g>
    </g>
   </g>
  </g>
 </g>
 <defs>
  <clipPath id="p45d8da3381">
   <rect x="7.2" y="23.837812" width="446.4" height="107.136"/>
  </clipPath>
 </defs>
</svg>
