<?xml version="1.0" encoding="utf-8" standalone="no"?>
<!DOCTYPE svg PUBLIC "-//W3C//DTD SVG 1.1//EN"
  "http://www.w3.org/Graphics/SVG/1.1/DTD/svg11.dtd">
<svg xmlns:xlink="http://www.w3.org/1999/xlink" width="559.60875pt" height="348.277969pt" viewBox="0 0 559.60875 348.277969" xmlns="http://www.w3.org/2000/svg" version="1.1">
 <metadata>
  <rdf:RDF xmlns:dc="http://purl.org/dc/elements/1.1/" xmlns:cc="http://creativecommons.org/ns#" xmlns:rdf="http://www.w3.org/1999/02/22-rdf-syntax-ns#">
   <cc:Work>
    <dc:type rdf:resource="http://purl.org/dc/dcmitype/StillImage"/>
    <dc:date>2026-04-27T15:17:15.164718</dc:date>
    <dc:format>image/svg+xml</dc:format>
    <dc:creator>
     <cc:Agent>
      <dc:title>Matplotlib v3.9.4, https://matplotlib.org/</dc:title>
     </cc:Agent>
    </dc:creator>
   </cc:Work>
  </rdf:RDF>
 </metadata>
 <defs>
  <style type="text/css">*{stroke-linejoin: round; stroke-linecap: butt}</style>
 </defs>
 <g id="figure_1">
  <g id="patch_1">
   <path d="M 0 348.277969 
L 559.60875 348.277969 
L 559.60875 0 
L 0 0 
z
" style="fill: #ffffff"/>
  </g>
  <g id="axes_1">
   <g id="PolyCollection_1">
    <defs>
     <path id="m7ac4ccfa1c" d="M 132.26244 -173.612903 
L 132.26244 -173.612903 
L 133.161126 -176.345914 
L 134.059813 -177.531056 
L 134.9585 -178.457841 
L 135.857187 -179.248782 
L 136.755874 -179.951348 
L 137.654561 -180.5899 
L 138.553248 -181.178916 
L 139.451935 -181.727841 
L 140.350622 -182.243241 
L 141.249309 -182.729906 
L 142.147996 -183.191456 
L 143.046683 -183.63071 
L 143.94537 -184.049913 
L 144.844057 -184.450893 
L 145.742744 -184.835157 
L 146.641431 -185.20397 
L 147.540118 -185.558407 
L 148.438805 -185.899388 
L 149.337492 -186.22771 
L 150.236179 -186.54407 
L 151.134866 -186.849083 
L 152.033553 -187.143291 
L 152.93224 -187.42718 
L 153.830927 -187.701184 
L 154.729614 -187.965697 
L 155.628301 -188.221073 
L 156.526988 -188.467636 
L 157.425675 -188.705682 
L 158.324362 -188.935482 
L 159.223049 -189.157285 
L 160.121736 -189.371323 
L 161.020423 -189.577809 
L 161.91911 -189.776941 
L 162.817797 -189.968905 
L 163.716484 -190.153874 
L 164.615171 -190.332009 
L 165.513858 -190.503463 
L 166.412545 -190.668377 
L 167.311232 -190.826888 
L 168.209919 -190.979121 
L 169.108606 -191.125197 
L 170.007293 -191.26523 
L 170.90598 -191.399329 
L 171.804667 -191.527595 
L 172.703354 -191.650128 
L 173.602041 -191.767019 
L 174.500728 -191.878359 
L 175.399415 -191.984232 
L 176.298102 -192.08472 
L 177.196789 -192.1799 
L 178.095476 -192.269848 
L 178.994163 -192.354635 
L 179.89285 -192.43433 
L 180.791537 -192.509001 
L 181.690224 -192.57871 
L 182.588911 -192.643519 
L 183.487598 -192.703487 
L 184.386285 -192.758673 
L 185.284972 -192.809131 
L 186.183659 -192.854914 
L 187.082345 -192.896075 
L 187.981032 -192.932664 
L 188.879719 -192.964728 
L 189.778406 -192.992316 
L 190.677093 -193.015471 
L 191.57578 -193.034239 
L 192.474467 -193.048663 
L 193.373154 -193.058783 
L 194.271841 -193.064641 
L 195.170528 -193.066275 
L 196.069215 -193.063724 
L 196.967902 -193.057025 
L 197.866589 -193.046213 
L 198.765276 -193.031325 
L 199.663963 -193.012393 
L 200.56265 -192.989451 
L 201.461337 -192.962532 
L 202.360024 -192.931668 
L 203.258711 -192.896888 
L 204.157398 -192.858323 
L 205.056085 -192.816931 
L 205.954772 -192.772965 
L 206.853459 -192.726454 
L 207.752146 -192.677425 
L 208.650833 -192.625904 
L 209.54952 -192.571916 
L 210.448207 -192.515488 
L 211.346894 -192.456642 
L 212.245581 -192.395404 
L 213.144268 -192.331796 
L 214.042955 -192.265841 
L 214.941642 -192.197562 
L 215.840329 -192.126979 
L 216.739016 -192.054115 
L 217.637703 -191.97899 
L 218.53639 -191.901623 
L 219.435077 -191.822035 
L 220.333764 -191.740244 
L 221.232451 -191.65627 
L 222.131138 -191.57013 
L 223.029825 -191.481842 
L 223.928512 -191.391424 
L 224.827199 -191.298892 
L 225.725886 -191.204263 
L 226.624573 -191.107553 
L 227.52326 -191.008777 
L 228.421947 -190.907952 
L 229.320634 -190.80509 
L 230.219321 -190.700208 
L 231.118008 -190.593319 
L 232.016695 -190.484437 
L 232.915382 -190.373574 
L 233.814069 -190.260745 
L 234.712756 -190.145961 
L 235.611443 -190.029235 
L 236.51013 -189.910579 
L 237.408817 -189.790004 
L 238.307504 -189.667521 
L 239.206191 -189.543142 
L 240.104878 -189.416877 
L 241.003564 -189.288735 
L 241.902251 -189.158727 
L 242.800938 -189.026863 
L 243.699625 -188.893151 
L 244.598312 -188.757601 
L 245.496999 -188.620221 
L 246.395686 -188.481019 
L 247.294373 -188.340003 
L 248.19306 -188.197182 
L 249.091747 -188.052562 
L 249.990434 -187.906151 
L 250.889121 -187.757955 
L 251.787808 -187.607981 
L 252.686495 -187.456235 
L 253.585182 -187.302723 
L 254.483869 -187.147451 
L 255.382556 -186.990424 
L 256.281243 -186.831647 
L 257.17993 -186.671125 
L 258.078617 -186.508862 
L 258.977304 -186.344863 
L 259.875991 -186.179132 
L 260.774678 -186.011673 
L 261.673365 -185.842488 
L 262.572052 -185.671582 
L 263.470739 -185.498957 
L 264.369426 -185.324615 
L 265.268113 -185.14856 
L 266.1668 -184.970793 
L 267.065487 -184.791316 
L 267.964174 -184.610131 
L 268.862861 -184.42724 
L 269.761548 -184.242643 
L 270.660235 -184.056341 
L 271.558922 -183.868335 
L 272.457609 -183.678625 
L 273.356296 -183.487212 
L 274.254983 -183.294095 
L 275.15367 -183.099274 
L 276.052357 -182.902749 
L 276.951044 -182.704518 
L 277.849731 -182.50458 
L 278.748418 -182.302935 
L 279.647105 -182.09958 
L 280.545792 -181.894514 
L 281.444479 -181.687734 
L 282.343166 -181.479239 
L 283.241853 -181.269026 
L 284.14054 -181.057092 
L 285.039227 -180.843434 
L 285.937914 -180.628049 
L 286.836601 -180.410934 
L 287.735288 -180.192084 
L 288.633975 -179.971497 
L 289.532662 -179.749167 
L 290.431349 -179.52509 
L 291.330036 -179.299262 
L 292.228723 -179.071678 
L 293.12741 -178.842333 
L 294.026097 -178.611222 
L 294.924783 -178.378338 
L 295.82347 -178.143677 
L 296.722157 -177.907232 
L 297.620844 -177.668997 
L 298.519531 -177.428966 
L 299.418218 -177.187132 
L 300.316905 -176.943488 
L 301.215592 -176.698028 
L 302.114279 -176.450743 
L 303.012966 -176.201626 
L 303.911653 -175.95067 
L 304.81034 -175.697866 
L 305.709027 -175.443207 
L 306.607714 -175.186684 
L 307.506401 -174.928288 
L 308.405088 -174.66801 
L 309.303775 -174.405842 
L 310.202462 -174.141774 
L 311.101149 -173.875796 
L 311.101149 -173.35001 
L 311.101149 -173.35001 
L 310.202462 -173.322679 
L 309.303775 -173.29525 
L 308.405088 -173.267714 
L 307.506401 -173.240061 
L 306.607714 -173.212283 
L 305.709027 -173.18437 
L 304.81034 -173.156315 
L 303.911653 -173.128108 
L 303.012966 -173.099741 
L 302.114279 -173.071206 
L 301.215592 -173.042497 
L 300.316905 -173.013604 
L 299.418218 -172.984521 
L 298.519531 -172.955241 
L 297.620844 -172.925756 
L 296.722157 -172.896061 
L 295.82347 -172.866149 
L 294.924783 -172.836013 
L 294.026097 -172.805647 
L 293.12741 -172.775047 
L 292.228723 -172.744206 
L 291.330036 -172.713119 
L 290.431349 -172.68178 
L 289.532662 -172.650186 
L 288.633975 -172.618332 
L 287.735288 -172.586213 
L 286.836601 -172.553824 
L 285.937914 -172.521163 
L 285.039227 -172.488225 
L 284.14054 -172.455007 
L 283.241853 -172.421506 
L 282.343166 -172.387719 
L 281.444479 -172.353642 
L 280.545792 -172.319274 
L 279.647105 -172.284612 
L 278.748418 -172.249655 
L 277.849731 -172.214399 
L 276.951044 -172.178845 
L 276.052357 -172.142989 
L 275.15367 -172.106832 
L 274.254983 -172.070373 
L 273.356296 -172.033611 
L 272.457609 -171.996545 
L 271.558922 -171.959175 
L 270.660235 -171.921503 
L 269.761548 -171.883527 
L 268.862861 -171.845248 
L 267.964174 -171.806669 
L 267.065487 -171.767788 
L 266.1668 -171.728609 
L 265.268113 -171.689133 
L 264.369426 -171.649361 
L 263.470739 -171.609295 
L 262.572052 -171.568939 
L 261.673365 -171.528295 
L 260.774678 -171.487365 
L 259.875991 -171.446153 
L 258.977304 -171.404663 
L 258.078617 -171.362898 
L 257.17993 -171.320861 
L 256.281243 -171.278559 
L 255.382556 -171.235994 
L 254.483869 -171.193172 
L 253.585182 -171.150097 
L 252.686495 -171.106776 
L 251.787808 -171.063214 
L 250.889121 -171.019416 
L 249.990434 -170.97539 
L 249.091747 -170.931141 
L 248.19306 -170.886676 
L 247.294373 -170.842003 
L 246.395686 -170.797129 
L 245.496999 -170.752061 
L 244.598312 -170.706807 
L 243.699625 -170.661376 
L 242.800938 -170.615777 
L 241.902251 -170.570018 
L 241.003564 -170.524108 
L 240.104878 -170.478058 
L 239.206191 -170.431876 
L 238.307504 -170.385574 
L 237.408817 -170.339161 
L 236.51013 -170.292649 
L 235.611443 -170.246048 
L 234.712756 -170.199371 
L 233.814069 -170.152628 
L 232.915382 -170.105833 
L 232.016695 -170.058998 
L 231.118008 -170.012135 
L 230.219321 -169.965259 
L 229.320634 -169.918382 
L 228.421947 -169.87152 
L 227.52326 -169.824685 
L 226.624573 -169.777894 
L 225.725886 -169.731161 
L 224.827199 -169.684503 
L 223.928512 -169.637934 
L 223.029825 -169.591471 
L 222.131138 -169.545132 
L 221.232451 -169.498934 
L 220.333764 -169.452894 
L 219.435077 -169.407031 
L 218.53639 -169.361363 
L 217.637703 -169.315909 
L 216.739016 -169.27069 
L 215.840329 -169.225725 
L 214.941642 -169.181034 
L 214.042955 -169.13664 
L 213.144268 -169.092562 
L 212.245581 -169.048825 
L 211.346894 -169.00545 
L 210.448207 -168.962461 
L 209.54952 -168.919881 
L 208.650833 -168.877735 
L 207.752146 -168.836049 
L 206.853459 -168.794848 
L 205.954772 -168.754157 
L 205.056085 -168.714006 
L 204.157398 -168.67442 
L 203.258711 -168.635203 
L 202.360024 -168.595455 
L 201.461337 -168.555107 
L 200.56265 -168.514188 
L 199.663963 -168.472731 
L 198.765276 -168.430767 
L 197.866589 -168.388331 
L 196.967902 -168.345456 
L 196.069215 -168.302177 
L 195.170528 -168.25853 
L 194.271841 -168.214552 
L 193.373154 -168.170282 
L 192.474467 -168.125759 
L 191.57578 -168.081023 
L 190.677093 -168.036115 
L 189.778406 -167.991079 
L 188.879719 -167.945958 
L 187.981032 -167.900799 
L 187.082345 -167.855648 
L 186.183659 -167.810553 
L 185.284972 -167.765564 
L 184.386285 -167.720734 
L 183.487598 -167.676116 
L 182.588911 -167.631765 
L 181.690224 -167.587738 
L 180.791537 -167.544095 
L 179.89285 -167.500897 
L 178.994163 -167.458209 
L 178.095476 -167.416096 
L 177.196789 -167.374627 
L 176.298102 -167.333876 
L 175.399415 -167.293915 
L 174.500728 -167.254824 
L 173.602041 -167.216684 
L 172.703354 -167.179579 
L 171.804667 -167.143599 
L 170.90598 -167.108838 
L 170.007293 -167.075392 
L 169.108606 -167.043365 
L 168.209919 -167.012866 
L 167.311232 -166.984006 
L 166.412545 -166.956909 
L 165.513858 -166.931699 
L 164.615171 -166.908512 
L 163.716484 -166.887491 
L 162.817797 -166.868787 
L 161.91911 -166.852563 
L 161.020423 -166.838992 
L 160.121736 -166.828257 
L 159.223049 -166.820559 
L 158.324362 -166.81611 
L 157.425675 -166.815141 
L 156.526988 -166.817902 
L 155.628301 -166.824665 
L 154.729614 -166.835725 
L 153.830927 -166.851405 
L 152.93224 -166.872061 
L 152.033553 -166.898085 
L 151.134866 -166.929913 
L 150.236179 -166.968029 
L 149.337492 -167.012977 
L 148.438805 -167.065371 
L 147.540118 -167.125907 
L 146.641431 -167.195383 
L 145.742744 -167.27472 
L 144.844057 -167.364991 
L 143.94537 -167.467462 
L 143.046683 -167.583641 
L 142.147996 -167.715354 
L 141.249309 -167.864847 
L 140.350622 -168.03494 
L 139.451935 -168.229252 
L 138.553248 -168.452572 
L 137.654561 -168.711467 
L 136.755874 -169.015382 
L 135.857187 -169.378796 
L 134.9585 -169.826068 
L 134.059813 -170.404668 
L 133.161126 -171.23711 
L 132.26244 -173.612903 
z
" style="stroke: #1976d2; stroke-opacity: 0.8; stroke-width: 2.2"/>
    </defs>
    <g clip-path="url(#p643de46e57)">
     <use xlink:href="#m7ac4ccfa1c" x="0" y="348.277969" style="fill: #bbdefb; fill-opacity: 0.8; stroke: #1976d2; stroke-opacity: 0.8; stroke-width: 2.2"/>
    </g>
   </g>
   <g id="patch_2">
    <path d="M 89.553018 142.474098 
Q 109.90803 142.474098 128.585991 142.474098 
" style="fill: none; stroke: #666666; stroke-width: 1.5; stroke-linecap: round"/>
    <path d="M 124.185991 140.274098 
L 128.585991 142.474098 
L 124.185991 144.674098 
" style="fill: none; stroke: #666666; stroke-width: 1.5; stroke-linecap: round"/>
   </g>
   <g id="patch_3">
    <path d="M 89.553018 156.781195 
Q 109.90803 156.781195 128.585991 156.781195 
" style="fill: none; stroke: #666666; stroke-width: 1.5; stroke-linecap: round"/>
    <path d="M 124.185991 154.581195 
L 128.585991 156.781195 
L 124.185991 158.981195 
" style="fill: none; stroke: #666666; stroke-width: 1.5; stroke-linecap: round"/>
   </g>
   <g id="patch_4">
    <path d="M 89.553018 192.548936 
Q 109.90803 192.548936 128.585991 192.548936 
" style="fill: none; stroke: #666666; stroke-width: 1.5; stroke-linecap: round"/>
    <path d="M 124.185991 190.348936 
L 128.585991 192.548936 
L 124.185991 194.748936 
" style="fill: none; stroke: #666666; stroke-width: 1.5; stroke-linecap: round"/>
   </g>
   <g id="patch_5">
    <path d="M 89.553018 206.856033 
Q 109.90803 206.856033 128.585991 206.856033 
" style="fill: none; stroke: #666666; stroke-width: 1.5; stroke-linecap: round"/>
    <path d="M 124.185991 204.656033 
L 128.585991 206.856033 
L 124.185991 209.056033 
" style="fill: none; stroke: #666666; stroke-width: 1.5; stroke-linecap: round"/>
   </g>
   <g id="text_1">
    <!-- flusso V -->
    <g style="fill: #444444" transform="translate(32.807913 162.347472) scale(0.11 -0.11)">
     <defs>
      <path id="DejaVuSans-Bold-66" d="M 2841 4863 
L 2841 4128 
L 2222 4128 
Q 1984 4128 1890 4042 
Q 1797 3956 1797 3744 
L 1797 3500 
L 2753 3500 
L 2753 2700 
L 1797 2700 
L 1797 0 
L 678 0 
L 678 2700 
L 122 2700 
L 122 3500 
L 678 3500 
L 678 3744 
Q 678 4316 997 4589 
Q 1316 4863 1984 4863 
L 2841 4863 
z
" transform="scale(0.015625)"/>
      <path id="DejaVuSans-Bold-6c" d="M 538 4863 
L 1656 4863 
L 1656 0 
L 538 0 
L 538 4863 
z
" transform="scale(0.015625)"/>
      <path id="DejaVuSans-Bold-75" d="M 500 1363 
L 500 3500 
L 1625 3500 
L 1625 3150 
Q 1625 2866 1622 2436 
Q 1619 2006 1619 1863 
Q 1619 1441 1641 1255 
Q 1663 1069 1716 984 
Q 1784 875 1895 815 
Q 2006 756 2150 756 
Q 2500 756 2700 1025 
Q 2900 1294 2900 1772 
L 2900 3500 
L 4019 3500 
L 4019 0 
L 2900 0 
L 2900 506 
Q 2647 200 2364 54 
Q 2081 -91 1741 -91 
Q 1134 -91 817 281 
Q 500 653 500 1363 
z
" transform="scale(0.015625)"/>
      <path id="DejaVuSans-Bold-73" d="M 3272 3391 
L 3272 2541 
Q 2913 2691 2578 2766 
Q 2244 2841 1947 2841 
Q 1628 2841 1473 2761 
Q 1319 2681 1319 2516 
Q 1319 2381 1436 2309 
Q 1553 2238 1856 2203 
L 2053 2175 
Q 2913 2066 3209 1816 
Q 3506 1566 3506 1031 
Q 3506 472 3093 190 
Q 2681 -91 1863 -91 
Q 1516 -91 1145 -36 
Q 775 19 384 128 
L 384 978 
Q 719 816 1070 734 
Q 1422 653 1784 653 
Q 2113 653 2278 743 
Q 2444 834 2444 1013 
Q 2444 1163 2330 1236 
Q 2216 1309 1875 1350 
L 1678 1375 
Q 931 1469 631 1722 
Q 331 1975 331 2491 
Q 331 3047 712 3315 
Q 1094 3584 1881 3584 
Q 2191 3584 2531 3537 
Q 2872 3491 3272 3391 
z
" transform="scale(0.015625)"/>
      <path id="DejaVuSans-Bold-6f" d="M 2203 2784 
Q 1831 2784 1636 2517 
Q 1441 2250 1441 1747 
Q 1441 1244 1636 976 
Q 1831 709 2203 709 
Q 2569 709 2762 976 
Q 2956 1244 2956 1747 
Q 2956 2250 2762 2517 
Q 2569 2784 2203 2784 
z
M 2203 3584 
Q 3106 3584 3614 3096 
Q 4122 2609 4122 1747 
Q 4122 884 3614 396 
Q 3106 -91 2203 -91 
Q 1297 -91 786 396 
Q 275 884 275 1747 
Q 275 2609 786 3096 
Q 1297 3584 2203 3584 
z
" transform="scale(0.015625)"/>
      <path id="DejaVuSans-Bold-20" transform="scale(0.015625)"/>
      <path id="DejaVuSans-Bold-56" d="M 31 4666 
L 1241 4666 
L 2478 1222 
L 3713 4666 
L 4922 4666 
L 3194 0 
L 1759 0 
L 31 4666 
z
" transform="scale(0.015625)"/>
     </defs>
     <use xlink:href="#DejaVuSans-Bold-66"/>
     <use xlink:href="#DejaVuSans-Bold-6c" x="43.505859"/>
     <use xlink:href="#DejaVuSans-Bold-75" x="77.783203"/>
     <use xlink:href="#DejaVuSans-Bold-73" x="148.974609"/>
     <use xlink:href="#DejaVuSans-Bold-73" x="208.496094"/>
     <use xlink:href="#DejaVuSans-Bold-6f" x="268.017578"/>
     <use xlink:href="#DejaVuSans-Bold-20" x="336.71875"/>
     <use xlink:href="#DejaVuSans-Bold-56" x="371.533203"/>
    </g>
    <!-- (aria) -->
    <g style="fill: #444444" transform="translate(48.091038 174.665066) scale(0.11 -0.11)">
     <defs>
      <path id="DejaVuSans-Bold-28" d="M 2413 -844 
L 1484 -844 
Q 1006 -72 778 623 
Q 550 1319 550 2003 
Q 550 2688 779 3389 
Q 1009 4091 1484 4856 
L 2413 4856 
Q 2013 4116 1813 3408 
Q 1613 2700 1613 2009 
Q 1613 1319 1811 609 
Q 2009 -100 2413 -844 
z
" transform="scale(0.015625)"/>
      <path id="DejaVuSans-Bold-61" d="M 2106 1575 
Q 1756 1575 1579 1456 
Q 1403 1338 1403 1106 
Q 1403 894 1545 773 
Q 1688 653 1941 653 
Q 2256 653 2472 879 
Q 2688 1106 2688 1447 
L 2688 1575 
L 2106 1575 
z
M 3816 1997 
L 3816 0 
L 2688 0 
L 2688 519 
Q 2463 200 2181 54 
Q 1900 -91 1497 -91 
Q 953 -91 614 226 
Q 275 544 275 1050 
Q 275 1666 698 1953 
Q 1122 2241 2028 2241 
L 2688 2241 
L 2688 2328 
Q 2688 2594 2478 2717 
Q 2269 2841 1825 2841 
Q 1466 2841 1156 2769 
Q 847 2697 581 2553 
L 581 3406 
Q 941 3494 1303 3539 
Q 1666 3584 2028 3584 
Q 2975 3584 3395 3211 
Q 3816 2838 3816 1997 
z
" transform="scale(0.015625)"/>
      <path id="DejaVuSans-Bold-72" d="M 3138 2547 
Q 2991 2616 2845 2648 
Q 2700 2681 2553 2681 
Q 2122 2681 1889 2404 
Q 1656 2128 1656 1613 
L 1656 0 
L 538 0 
L 538 3500 
L 1656 3500 
L 1656 2925 
Q 1872 3269 2151 3426 
Q 2431 3584 2822 3584 
Q 2878 3584 2943 3579 
Q 3009 3575 3134 3559 
L 3138 2547 
z
" transform="scale(0.015625)"/>
      <path id="DejaVuSans-Bold-69" d="M 538 3500 
L 1656 3500 
L 1656 0 
L 538 0 
L 538 3500 
z
M 538 4863 
L 1656 4863 
L 1656 3950 
L 538 3950 
L 538 4863 
z
" transform="scale(0.015625)"/>
      <path id="DejaVuSans-Bold-29" d="M 513 -844 
Q 913 -100 1113 609 
Q 1313 1319 1313 2009 
Q 1313 2700 1113 3408 
Q 913 4116 513 4856 
L 1441 4856 
Q 1916 4091 2145 3389 
Q 2375 2688 2375 2003 
Q 2375 1319 2147 623 
Q 1919 -72 1441 -844 
L 513 -844 
z
" transform="scale(0.015625)"/>
     </defs>
     <use xlink:href="#DejaVuSans-Bold-28"/>
     <use xlink:href="#DejaVuSans-Bold-61" x="45.703125"/>
     <use xlink:href="#DejaVuSans-Bold-72" x="113.183594"/>
     <use xlink:href="#DejaVuSans-Bold-69" x="162.5"/>
     <use xlink:href="#DejaVuSans-Bold-61" x="196.777344"/>
     <use xlink:href="#DejaVuSans-Bold-29" x="264.257812"/>
    </g>
   </g>
   <g id="patch_6">
    <path d="M 176.972117 150.521148 
Q 176.972117 136.426324 176.972117 124.567569 
" style="fill: none; stroke: #d32f2f; stroke-width: 2; stroke-linecap: round"/>
    <path d="M 174.772117 128.967569 
L 176.972117 124.567569 
L 179.172117 128.967569 
" style="fill: none; stroke: #d32f2f; stroke-width: 2; stroke-linecap: round"/>
   </g>
   <g id="patch_7">
    <path d="M 212.739859 150.369252 
Q 212.739859 136.274428 212.739859 124.415673 
" style="fill: none; stroke: #d32f2f; stroke-width: 2; stroke-linecap: round"/>
    <path d="M 210.539859 128.815673 
L 212.739859 124.415673 
L 214.939859 128.815673 
" style="fill: none; stroke: #d32f2f; stroke-width: 2; stroke-linecap: round"/>
   </g>
   <g id="patch_8">
    <path d="M 248.507601 154.648485 
Q 248.507601 140.553662 248.507601 128.694906 
" style="fill: none; stroke: #d32f2f; stroke-width: 2; stroke-linecap: round"/>
    <path d="M 246.307601 133.094906 
L 248.507601 128.694906 
L 250.707601 133.094906 
" style="fill: none; stroke: #d32f2f; stroke-width: 2; stroke-linecap: round"/>
   </g>
   <g id="text_2">
    <g id="patch_9">
     <path d="M 284.275343 126.09314 
L 432.326905 126.09314 
Q 435.326905 126.09314 435.326905 123.09314 
L 435.326905 102.217203 
Q 435.326905 99.217203 432.326905 99.217203 
L 284.275343 99.217203 
Q 281.275343 99.217203 281.275343 102.217203 
L 281.275343 123.09314 
Q 281.275343 126.09314 284.275343 126.09314 
z
" style="fill: #ffffff; opacity: 0.92; stroke: #808080; stroke-linejoin: miter"/>
    </g>
    <!-- PRESSIONE BASSA (sopra) -->
    <g style="fill: #b71c1c" transform="translate(284.275343 109.81564) scale(0.1 -0.1)">
     <defs>
      <path id="DejaVuSans-Bold-50" d="M 588 4666 
L 2584 4666 
Q 3475 4666 3951 4270 
Q 4428 3875 4428 3144 
Q 4428 2409 3951 2014 
Q 3475 1619 2584 1619 
L 1791 1619 
L 1791 0 
L 588 0 
L 588 4666 
z
M 1791 3794 
L 1791 2491 
L 2456 2491 
Q 2806 2491 2997 2661 
Q 3188 2831 3188 3144 
Q 3188 3456 2997 3625 
Q 2806 3794 2456 3794 
L 1791 3794 
z
" transform="scale(0.015625)"/>
      <path id="DejaVuSans-Bold-52" d="M 2297 2597 
Q 2675 2597 2839 2737 
Q 3003 2878 3003 3200 
Q 3003 3519 2839 3656 
Q 2675 3794 2297 3794 
L 1791 3794 
L 1791 2597 
L 2297 2597 
z
M 1791 1766 
L 1791 0 
L 588 0 
L 588 4666 
L 2425 4666 
Q 3347 4666 3776 4356 
Q 4206 4047 4206 3378 
Q 4206 2916 3982 2619 
Q 3759 2322 3309 2181 
Q 3556 2125 3751 1926 
Q 3947 1728 4147 1325 
L 4800 0 
L 3519 0 
L 2950 1159 
Q 2778 1509 2601 1637 
Q 2425 1766 2131 1766 
L 1791 1766 
z
" transform="scale(0.015625)"/>
      <path id="DejaVuSans-Bold-45" d="M 588 4666 
L 3834 4666 
L 3834 3756 
L 1791 3756 
L 1791 2888 
L 3713 2888 
L 3713 1978 
L 1791 1978 
L 1791 909 
L 3903 909 
L 3903 0 
L 588 0 
L 588 4666 
z
" transform="scale(0.015625)"/>
      <path id="DejaVuSans-Bold-53" d="M 3834 4519 
L 3834 3531 
Q 3450 3703 3084 3790 
Q 2719 3878 2394 3878 
Q 1963 3878 1756 3759 
Q 1550 3641 1550 3391 
Q 1550 3203 1689 3098 
Q 1828 2994 2194 2919 
L 2706 2816 
Q 3484 2659 3812 2340 
Q 4141 2022 4141 1434 
Q 4141 663 3683 286 
Q 3225 -91 2284 -91 
Q 1841 -91 1394 -6 
Q 947 78 500 244 
L 500 1259 
Q 947 1022 1364 901 
Q 1781 781 2169 781 
Q 2563 781 2772 912 
Q 2981 1044 2981 1288 
Q 2981 1506 2839 1625 
Q 2697 1744 2272 1838 
L 1806 1941 
Q 1106 2091 782 2419 
Q 459 2747 459 3303 
Q 459 4000 909 4375 
Q 1359 4750 2203 4750 
Q 2588 4750 2994 4692 
Q 3400 4634 3834 4519 
z
" transform="scale(0.015625)"/>
      <path id="DejaVuSans-Bold-49" d="M 588 4666 
L 1791 4666 
L 1791 0 
L 588 0 
L 588 4666 
z
" transform="scale(0.015625)"/>
      <path id="DejaVuSans-Bold-4f" d="M 2719 3878 
Q 2169 3878 1866 3472 
Q 1563 3066 1563 2328 
Q 1563 1594 1866 1187 
Q 2169 781 2719 781 
Q 3272 781 3575 1187 
Q 3878 1594 3878 2328 
Q 3878 3066 3575 3472 
Q 3272 3878 2719 3878 
z
M 2719 4750 
Q 3844 4750 4481 4106 
Q 5119 3463 5119 2328 
Q 5119 1197 4481 553 
Q 3844 -91 2719 -91 
Q 1597 -91 958 553 
Q 319 1197 319 2328 
Q 319 3463 958 4106 
Q 1597 4750 2719 4750 
z
" transform="scale(0.015625)"/>
      <path id="DejaVuSans-Bold-4e" d="M 588 4666 
L 1931 4666 
L 3628 1466 
L 3628 4666 
L 4769 4666 
L 4769 0 
L 3425 0 
L 1728 3200 
L 1728 0 
L 588 0 
L 588 4666 
z
" transform="scale(0.015625)"/>
      <path id="DejaVuSans-Bold-42" d="M 2456 2859 
Q 2741 2859 2887 2984 
Q 3034 3109 3034 3353 
Q 3034 3594 2887 3720 
Q 2741 3847 2456 3847 
L 1791 3847 
L 1791 2859 
L 2456 2859 
z
M 2497 819 
Q 2859 819 3042 972 
Q 3225 1125 3225 1434 
Q 3225 1738 3044 1889 
Q 2863 2041 2497 2041 
L 1791 2041 
L 1791 819 
L 2497 819 
z
M 3616 2497 
Q 4003 2384 4215 2081 
Q 4428 1778 4428 1338 
Q 4428 663 3972 331 
Q 3516 0 2584 0 
L 588 0 
L 588 4666 
L 2394 4666 
Q 3366 4666 3802 4372 
Q 4238 4078 4238 3431 
Q 4238 3091 4078 2852 
Q 3919 2613 3616 2497 
z
" transform="scale(0.015625)"/>
      <path id="DejaVuSans-Bold-41" d="M 3419 850 
L 1538 850 
L 1241 0 
L 31 0 
L 1759 4666 
L 3194 4666 
L 4922 0 
L 3713 0 
L 3419 850 
z
M 1838 1716 
L 3116 1716 
L 2478 3572 
L 1838 1716 
z
" transform="scale(0.015625)"/>
      <path id="DejaVuSans-Bold-70" d="M 1656 506 
L 1656 -1331 
L 538 -1331 
L 538 3500 
L 1656 3500 
L 1656 2988 
Q 1888 3294 2169 3439 
Q 2450 3584 2816 3584 
Q 3463 3584 3878 3070 
Q 4294 2556 4294 1747 
Q 4294 938 3878 423 
Q 3463 -91 2816 -91 
Q 2450 -91 2169 54 
Q 1888 200 1656 506 
z
M 2400 2772 
Q 2041 2772 1848 2508 
Q 1656 2244 1656 1747 
Q 1656 1250 1848 986 
Q 2041 722 2400 722 
Q 2759 722 2948 984 
Q 3138 1247 3138 1747 
Q 3138 2247 2948 2509 
Q 2759 2772 2400 2772 
z
" transform="scale(0.015625)"/>
     </defs>
     <use xlink:href="#DejaVuSans-Bold-50"/>
     <use xlink:href="#DejaVuSans-Bold-52" x="73.291016"/>
     <use xlink:href="#DejaVuSans-Bold-45" x="150.292969"/>
     <use xlink:href="#DejaVuSans-Bold-53" x="218.603516"/>
     <use xlink:href="#DejaVuSans-Bold-53" x="286.125"/>
     <use xlink:href="#DejaVuSans-Bold-49" x="358.146484"/>
     <use xlink:href="#DejaVuSans-Bold-4f" x="395.353516"/>
     <use xlink:href="#DejaVuSans-Bold-4e" x="480.363281"/>
     <use xlink:href="#DejaVuSans-Bold-45" x="564.054688"/>
     <use xlink:href="#DejaVuSans-Bold-20" x="632.365234"/>
     <use xlink:href="#DejaVuSans-Bold-42" x="667.179688"/>
     <use xlink:href="#DejaVuSans-Bold-41" x="743.400391"/>
     <use xlink:href="#DejaVuSans-Bold-53" x="820.792969"/>
     <use xlink:href="#DejaVuSans-Bold-53" x="888.314453"/>
     <use xlink:href="#DejaVuSans-Bold-41" x="960.335938"/>
     <use xlink:href="#DejaVuSans-Bold-20" x="1037.728516"/>
     <use xlink:href="#DejaVuSans-Bold-28" x="1072.542969"/>
     <use xlink:href="#DejaVuSans-Bold-73" x="1118.246094"/>
     <use xlink:href="#DejaVuSans-Bold-6f" x="1177.767578"/>
     <use xlink:href="#DejaVuSans-Bold-70" x="1246.46875"/>
     <use xlink:href="#DejaVuSans-Bold-72" x="1318.050781"/>
     <use xlink:href="#DejaVuSans-Bold-61" x="1367.367188"/>
     <use xlink:href="#DejaVuSans-Bold-29" x="1434.847656"/>
    </g>
    <!-- → aria 'tira su' l'ala -->
    <g style="fill: #b71c1c" transform="translate(284.275343 121.013453) scale(0.1 -0.1)">
     <defs>
      <path id="DejaVuSans-Bold-2192" d="M 5050 2225 
L 5050 1788 
L 3822 559 
L 3369 1013 
L 3988 1631 
L 366 1631 
L 366 2381 
L 3988 2381 
L 3369 3000 
L 3822 3453 
L 5050 2225 
z
" transform="scale(0.015625)"/>
      <path id="DejaVuSans-Bold-27" d="M 1350 4666 
L 1350 2931 
L 609 2931 
L 609 4666 
L 1350 4666 
z
" transform="scale(0.015625)"/>
      <path id="DejaVuSans-Bold-74" d="M 1759 4494 
L 1759 3500 
L 2913 3500 
L 2913 2700 
L 1759 2700 
L 1759 1216 
Q 1759 972 1856 886 
Q 1953 800 2241 800 
L 2816 800 
L 2816 0 
L 1856 0 
Q 1194 0 917 276 
Q 641 553 641 1216 
L 641 2700 
L 84 2700 
L 84 3500 
L 641 3500 
L 641 4494 
L 1759 4494 
z
" transform="scale(0.015625)"/>
     </defs>
     <use xlink:href="#DejaVuSans-Bold-2192"/>
     <use xlink:href="#DejaVuSans-Bold-20" x="83.789062"/>
     <use xlink:href="#DejaVuSans-Bold-61" x="118.603516"/>
     <use xlink:href="#DejaVuSans-Bold-72" x="186.083984"/>
     <use xlink:href="#DejaVuSans-Bold-69" x="235.400391"/>
     <use xlink:href="#DejaVuSans-Bold-61" x="269.677734"/>
     <use xlink:href="#DejaVuSans-Bold-20" x="337.158203"/>
     <use xlink:href="#DejaVuSans-Bold-27" x="371.972656"/>
     <use xlink:href="#DejaVuSans-Bold-74" x="402.587891"/>
     <use xlink:href="#DejaVuSans-Bold-69" x="450.390625"/>
     <use xlink:href="#DejaVuSans-Bold-72" x="484.667969"/>
     <use xlink:href="#DejaVuSans-Bold-61" x="533.984375"/>
     <use xlink:href="#DejaVuSans-Bold-20" x="601.464844"/>
     <use xlink:href="#DejaVuSans-Bold-73" x="636.279297"/>
     <use xlink:href="#DejaVuSans-Bold-75" x="695.800781"/>
     <use xlink:href="#DejaVuSans-Bold-27" x="766.992188"/>
     <use xlink:href="#DejaVuSans-Bold-20" x="797.607422"/>
     <use xlink:href="#DejaVuSans-Bold-6c" x="832.421875"/>
     <use xlink:href="#DejaVuSans-Bold-27" x="866.699219"/>
     <use xlink:href="#DejaVuSans-Bold-61" x="897.314453"/>
     <use xlink:href="#DejaVuSans-Bold-6c" x="964.794922"/>
     <use xlink:href="#DejaVuSans-Bold-61" x="999.072266"/>
    </g>
   </g>
   <g id="patch_10">
    <path d="M 185.914052 203.503379 
Q 185.914052 191.195963 185.914052 181.124614 
" style="fill: none; stroke: #43a047; stroke-width: 2; stroke-linecap: round"/>
    <path d="M 183.714052 185.524614 
L 185.914052 181.124614 
L 188.114052 185.524614 
" style="fill: none; stroke: #43a047; stroke-width: 2; stroke-linecap: round"/>
   </g>
   <g id="patch_11">
    <path d="M 230.62373 201.301796 
Q 230.62373 188.99438 230.62373 178.923032 
" style="fill: none; stroke: #43a047; stroke-width: 2; stroke-linecap: round"/>
    <path d="M 228.42373 183.323032 
L 230.62373 178.923032 
L 232.82373 183.323032 
" style="fill: none; stroke: #43a047; stroke-width: 2; stroke-linecap: round"/>
   </g>
   <g id="patch_12">
    <path d="M 266.391472 199.546143 
Q 266.391472 187.238727 266.391472 177.167378 
" style="fill: none; stroke: #43a047; stroke-width: 2; stroke-linecap: round"/>
    <path d="M 264.191472 181.567378 
L 266.391472 177.167378 
L 268.591472 181.567378 
" style="fill: none; stroke: #43a047; stroke-width: 2; stroke-linecap: round"/>
   </g>
   <g id="text_3">
    <g id="patch_13">
     <path d="M 284.275343 233.474491 
L 419.112843 233.474491 
Q 422.112843 233.474491 422.112843 230.474491 
L 422.112843 209.598553 
Q 422.112843 206.598553 419.112843 206.598553 
L 284.275343 206.598553 
Q 281.275343 206.598553 281.275343 209.598553 
L 281.275343 230.474491 
Q 281.275343 233.474491 284.275343 233.474491 
z
" style="fill: #ffffff; opacity: 0.92; stroke: #808080; stroke-linejoin: miter"/>
    </g>
    <!-- PRESSIONE ALTA (sotto) -->
    <g style="fill: #1b5e20" transform="translate(284.275343 217.118866) scale(0.1 -0.1)">
     <defs>
      <path id="DejaVuSans-Bold-4c" d="M 588 4666 
L 1791 4666 
L 1791 909 
L 3903 909 
L 3903 0 
L 588 0 
L 588 4666 
z
" transform="scale(0.015625)"/>
      <path id="DejaVuSans-Bold-54" d="M 31 4666 
L 4331 4666 
L 4331 3756 
L 2784 3756 
L 2784 0 
L 1581 0 
L 1581 3756 
L 31 3756 
L 31 4666 
z
" transform="scale(0.015625)"/>
     </defs>
     <use xlink:href="#DejaVuSans-Bold-50"/>
     <use xlink:href="#DejaVuSans-Bold-52" x="73.291016"/>
     <use xlink:href="#DejaVuSans-Bold-45" x="150.292969"/>
     <use xlink:href="#DejaVuSans-Bold-53" x="218.603516"/>
     <use xlink:href="#DejaVuSans-Bold-53" x="286.125"/>
     <use xlink:href="#DejaVuSans-Bold-49" x="358.146484"/>
     <use xlink:href="#DejaVuSans-Bold-4f" x="395.353516"/>
     <use xlink:href="#DejaVuSans-Bold-4e" x="480.363281"/>
     <use xlink:href="#DejaVuSans-Bold-45" x="564.054688"/>
     <use xlink:href="#DejaVuSans-Bold-20" x="632.365234"/>
     <use xlink:href="#DejaVuSans-Bold-41" x="667.179688"/>
     <use xlink:href="#DejaVuSans-Bold-4c" x="744.572266"/>
     <use xlink:href="#DejaVuSans-Bold-54" x="791.792969"/>
     <use xlink:href="#DejaVuSans-Bold-41" x="852.255859"/>
     <use xlink:href="#DejaVuSans-Bold-20" x="929.648438"/>
     <use xlink:href="#DejaVuSans-Bold-28" x="964.462891"/>
     <use xlink:href="#DejaVuSans-Bold-73" x="1010.166016"/>
     <use xlink:href="#DejaVuSans-Bold-6f" x="1069.6875"/>
     <use xlink:href="#DejaVuSans-Bold-74" x="1138.388672"/>
     <use xlink:href="#DejaVuSans-Bold-74" x="1186.191406"/>
     <use xlink:href="#DejaVuSans-Bold-6f" x="1233.994141"/>
     <use xlink:href="#DejaVuSans-Bold-29" x="1302.695312"/>
    </g>
    <!-- → aria 'spinge su' l'ala -->
    <g style="fill: #1b5e20" transform="translate(284.275343 228.316678) scale(0.1 -0.1)">
     <defs>
      <path id="DejaVuSans-Bold-6e" d="M 4056 2131 
L 4056 0 
L 2931 0 
L 2931 347 
L 2931 1631 
Q 2931 2084 2911 2256 
Q 2891 2428 2841 2509 
Q 2775 2619 2662 2680 
Q 2550 2741 2406 2741 
Q 2056 2741 1856 2470 
Q 1656 2200 1656 1722 
L 1656 0 
L 538 0 
L 538 3500 
L 1656 3500 
L 1656 2988 
Q 1909 3294 2193 3439 
Q 2478 3584 2822 3584 
Q 3428 3584 3742 3212 
Q 4056 2841 4056 2131 
z
" transform="scale(0.015625)"/>
      <path id="DejaVuSans-Bold-67" d="M 2919 594 
Q 2688 288 2409 144 
Q 2131 0 1766 0 
Q 1125 0 706 504 
Q 288 1009 288 1791 
Q 288 2575 706 3076 
Q 1125 3578 1766 3578 
Q 2131 3578 2409 3434 
Q 2688 3291 2919 2981 
L 2919 3500 
L 4044 3500 
L 4044 353 
Q 4044 -491 3511 -936 
Q 2978 -1381 1966 -1381 
Q 1638 -1381 1331 -1331 
Q 1025 -1281 716 -1178 
L 716 -306 
Q 1009 -475 1290 -558 
Q 1572 -641 1856 -641 
Q 2406 -641 2662 -400 
Q 2919 -159 2919 353 
L 2919 594 
z
M 2181 2772 
Q 1834 2772 1640 2515 
Q 1447 2259 1447 1791 
Q 1447 1309 1634 1061 
Q 1822 813 2181 813 
Q 2531 813 2725 1069 
Q 2919 1325 2919 1791 
Q 2919 2259 2725 2515 
Q 2531 2772 2181 2772 
z
" transform="scale(0.015625)"/>
      <path id="DejaVuSans-Bold-65" d="M 4031 1759 
L 4031 1441 
L 1416 1441 
Q 1456 1047 1700 850 
Q 1944 653 2381 653 
Q 2734 653 3104 758 
Q 3475 863 3866 1075 
L 3866 213 
Q 3469 63 3072 -14 
Q 2675 -91 2278 -91 
Q 1328 -91 801 392 
Q 275 875 275 1747 
Q 275 2603 792 3093 
Q 1309 3584 2216 3584 
Q 3041 3584 3536 3087 
Q 4031 2591 4031 1759 
z
M 2881 2131 
Q 2881 2450 2695 2645 
Q 2509 2841 2209 2841 
Q 1884 2841 1681 2658 
Q 1478 2475 1428 2131 
L 2881 2131 
z
" transform="scale(0.015625)"/>
     </defs>
     <use xlink:href="#DejaVuSans-Bold-2192"/>
     <use xlink:href="#DejaVuSans-Bold-20" x="83.789062"/>
     <use xlink:href="#DejaVuSans-Bold-61" x="118.603516"/>
     <use xlink:href="#DejaVuSans-Bold-72" x="186.083984"/>
     <use xlink:href="#DejaVuSans-Bold-69" x="235.400391"/>
     <use xlink:href="#DejaVuSans-Bold-61" x="269.677734"/>
     <use xlink:href="#DejaVuSans-Bold-20" x="337.158203"/>
     <use xlink:href="#DejaVuSans-Bold-27" x="371.972656"/>
     <use xlink:href="#DejaVuSans-Bold-73" x="402.587891"/>
     <use xlink:href="#DejaVuSans-Bold-70" x="462.109375"/>
     <use xlink:href="#DejaVuSans-Bold-69" x="533.691406"/>
     <use xlink:href="#DejaVuSans-Bold-6e" x="567.96875"/>
     <use xlink:href="#DejaVuSans-Bold-67" x="639.160156"/>
     <use xlink:href="#DejaVuSans-Bold-65" x="710.742188"/>
     <use xlink:href="#DejaVuSans-Bold-20" x="778.564453"/>
     <use xlink:href="#DejaVuSans-Bold-73" x="813.378906"/>
     <use xlink:href="#DejaVuSans-Bold-75" x="872.900391"/>
     <use xlink:href="#DejaVuSans-Bold-27" x="944.091797"/>
     <use xlink:href="#DejaVuSans-Bold-20" x="974.707031"/>
     <use xlink:href="#DejaVuSans-Bold-6c" x="1009.521484"/>
     <use xlink:href="#DejaVuSans-Bold-27" x="1043.798828"/>
     <use xlink:href="#DejaVuSans-Bold-61" x="1074.414062"/>
     <use xlink:href="#DejaVuSans-Bold-6c" x="1141.894531"/>
     <use xlink:href="#DejaVuSans-Bold-61" x="1176.171875"/>
    </g>
   </g>
   <g id="patch_14">
    <path d="M 321.151548 176.327761 
Q 346.869117 214.904115 371.036252 251.154817 
" style="fill: none; stroke: #fb8c00; stroke-width: 2.5; stroke-linecap: round"/>
    <path d="M 370.426082 246.273455 
L 371.036252 251.154817 
L 366.765061 248.714136 
" style="fill: none; stroke: #fb8c00; stroke-width: 2.5; stroke-linecap: round"/>
   </g>
   <g id="text_4">
    <g id="patch_15">
     <path d="M 391.578569 299.15817 
L 477.183256 299.15817 
Q 480.183256 299.15817 480.183256 296.15817 
L 480.183256 264.08442 
Q 480.183256 261.08442 477.183256 261.08442 
L 391.578569 261.08442 
Q 388.578569 261.08442 388.578569 264.08442 
L 388.578569 296.15817 
Q 388.578569 299.15817 391.578569 299.15817 
z
" style="fill: #ffffff; opacity: 0.92; stroke: #808080; stroke-linejoin: miter"/>
    </g>
    <!-- downwash -->
    <g style="fill: #e65100" transform="translate(391.578569 271.682858) scale(0.1 -0.1)">
     <defs>
      <path id="DejaVuSans-Bold-64" d="M 2919 2988 
L 2919 4863 
L 4044 4863 
L 4044 0 
L 2919 0 
L 2919 506 
Q 2688 197 2409 53 
Q 2131 -91 1766 -91 
Q 1119 -91 703 423 
Q 288 938 288 1747 
Q 288 2556 703 3070 
Q 1119 3584 1766 3584 
Q 2128 3584 2408 3439 
Q 2688 3294 2919 2988 
z
M 2181 722 
Q 2541 722 2730 984 
Q 2919 1247 2919 1747 
Q 2919 2247 2730 2509 
Q 2541 2772 2181 2772 
Q 1825 2772 1636 2509 
Q 1447 2247 1447 1747 
Q 1447 1247 1636 984 
Q 1825 722 2181 722 
z
" transform="scale(0.015625)"/>
      <path id="DejaVuSans-Bold-77" d="M 225 3500 
L 1313 3500 
L 1900 1088 
L 2491 3500 
L 3425 3500 
L 4013 1113 
L 4603 3500 
L 5691 3500 
L 4769 0 
L 3547 0 
L 2956 2406 
L 2369 0 
L 1147 0 
L 225 3500 
z
" transform="scale(0.015625)"/>
      <path id="DejaVuSans-Bold-68" d="M 4056 2131 
L 4056 0 
L 2931 0 
L 2931 347 
L 2931 1625 
Q 2931 2084 2911 2256 
Q 2891 2428 2841 2509 
Q 2775 2619 2662 2680 
Q 2550 2741 2406 2741 
Q 2056 2741 1856 2470 
Q 1656 2200 1656 1722 
L 1656 0 
L 538 0 
L 538 4863 
L 1656 4863 
L 1656 2988 
Q 1909 3294 2193 3439 
Q 2478 3584 2822 3584 
Q 3428 3584 3742 3212 
Q 4056 2841 4056 2131 
z
" transform="scale(0.015625)"/>
     </defs>
     <use xlink:href="#DejaVuSans-Bold-64"/>
     <use xlink:href="#DejaVuSans-Bold-6f" x="71.582031"/>
     <use xlink:href="#DejaVuSans-Bold-77" x="140.283203"/>
     <use xlink:href="#DejaVuSans-Bold-6e" x="232.666016"/>
     <use xlink:href="#DejaVuSans-Bold-77" x="303.857422"/>
     <use xlink:href="#DejaVuSans-Bold-61" x="396.240234"/>
     <use xlink:href="#DejaVuSans-Bold-73" x="463.720703"/>
     <use xlink:href="#DejaVuSans-Bold-68" x="523.242188"/>
    </g>
    <!-- (aria deviata -->
    <g style="fill: #e65100" transform="translate(391.578569 282.88067) scale(0.1 -0.1)">
     <defs>
      <path id="DejaVuSans-Bold-76" d="M 97 3500 
L 1216 3500 
L 2088 1081 
L 2956 3500 
L 4078 3500 
L 2700 0 
L 1472 0 
L 97 3500 
z
" transform="scale(0.015625)"/>
     </defs>
     <use xlink:href="#DejaVuSans-Bold-28"/>
     <use xlink:href="#DejaVuSans-Bold-61" x="45.703125"/>
     <use xlink:href="#DejaVuSans-Bold-72" x="113.183594"/>
     <use xlink:href="#DejaVuSans-Bold-69" x="162.5"/>
     <use xlink:href="#DejaVuSans-Bold-61" x="196.777344"/>
     <use xlink:href="#DejaVuSans-Bold-20" x="264.257812"/>
     <use xlink:href="#DejaVuSans-Bold-64" x="299.072266"/>
     <use xlink:href="#DejaVuSans-Bold-65" x="370.654297"/>
     <use xlink:href="#DejaVuSans-Bold-76" x="438.476562"/>
     <use xlink:href="#DejaVuSans-Bold-69" x="503.662109"/>
     <use xlink:href="#DejaVuSans-Bold-61" x="537.939453"/>
     <use xlink:href="#DejaVuSans-Bold-74" x="605.419922"/>
     <use xlink:href="#DejaVuSans-Bold-61" x="653.222656"/>
    </g>
    <!--  verso il basso) -->
    <g style="fill: #e65100" transform="translate(391.578569 294.078483) scale(0.1 -0.1)">
     <defs>
      <path id="DejaVuSans-Bold-62" d="M 2400 722 
Q 2759 722 2948 984 
Q 3138 1247 3138 1747 
Q 3138 2247 2948 2509 
Q 2759 2772 2400 2772 
Q 2041 2772 1848 2508 
Q 1656 2244 1656 1747 
Q 1656 1250 1848 986 
Q 2041 722 2400 722 
z
M 1656 2988 
Q 1888 3294 2169 3439 
Q 2450 3584 2816 3584 
Q 3463 3584 3878 3070 
Q 4294 2556 4294 1747 
Q 4294 938 3878 423 
Q 3463 -91 2816 -91 
Q 2450 -91 2169 54 
Q 1888 200 1656 506 
L 1656 0 
L 538 0 
L 538 4863 
L 1656 4863 
L 1656 2988 
z
" transform="scale(0.015625)"/>
     </defs>
     <use xlink:href="#DejaVuSans-Bold-20"/>
     <use xlink:href="#DejaVuSans-Bold-76" x="34.814453"/>
     <use xlink:href="#DejaVuSans-Bold-65" x="100"/>
     <use xlink:href="#DejaVuSans-Bold-72" x="167.822266"/>
     <use xlink:href="#DejaVuSans-Bold-73" x="217.138672"/>
     <use xlink:href="#DejaVuSans-Bold-6f" x="276.660156"/>
     <use xlink:href="#DejaVuSans-Bold-20" x="345.361328"/>
     <use xlink:href="#DejaVuSans-Bold-69" x="380.175781"/>
     <use xlink:href="#DejaVuSans-Bold-6c" x="414.453125"/>
     <use xlink:href="#DejaVuSans-Bold-20" x="448.730469"/>
     <use xlink:href="#DejaVuSans-Bold-62" x="483.544922"/>
     <use xlink:href="#DejaVuSans-Bold-61" x="555.126953"/>
     <use xlink:href="#DejaVuSans-Bold-73" x="622.607422"/>
     <use xlink:href="#DejaVuSans-Bold-73" x="682.128906"/>
     <use xlink:href="#DejaVuSans-Bold-6f" x="741.650391"/>
     <use xlink:href="#DejaVuSans-Bold-29" x="810.351562"/>
    </g>
   </g>
   <g id="patch_16">
    <path d="M 203.797923 145.835183 
Q 203.797923 112.068908 203.797923 82.774769 
" style="fill: none; stroke: #7b1fa2; stroke-width: 4; stroke-linecap: round"/>
    <path d="M 201.597923 87.174769 
L 203.797923 82.774769 
L 205.997923 87.174769 
" style="fill: none; stroke: #7b1fa2; stroke-width: 4; stroke-linecap: round"/>
   </g>
   <g id="text_5">
    <g id="patch_17">
     <path d="M 87.552762 90.833367 
L 167.637918 90.833367 
Q 170.937918 90.833367 170.937918 87.533367 
L 170.937918 52.252242 
Q 170.937918 48.952242 167.637918 48.952242 
L 87.552762 48.952242 
Q 84.252762 48.952242 84.252762 52.252242 
L 84.252762 87.533367 
Q 84.252762 90.833367 87.552762 90.833367 
z
" style="fill: #ffffff; opacity: 0.92; stroke: #808080; stroke-linejoin: miter"/>
    </g>
    <!-- PORTANZA L -->
    <g style="fill: #4a148c" transform="translate(87.552762 60.610523) scale(0.11 -0.11)">
     <defs>
      <path id="DejaVuSans-Bold-5a" d="M 359 4666 
L 4281 4666 
L 4281 3938 
L 1778 909 
L 4353 909 
L 4353 0 
L 288 0 
L 288 728 
L 2791 3756 
L 359 3756 
L 359 4666 
z
" transform="scale(0.015625)"/>
     </defs>
     <use xlink:href="#DejaVuSans-Bold-50"/>
     <use xlink:href="#DejaVuSans-Bold-4f" x="73.291016"/>
     <use xlink:href="#DejaVuSans-Bold-52" x="158.300781"/>
     <use xlink:href="#DejaVuSans-Bold-54" x="230.802734"/>
     <use xlink:href="#DejaVuSans-Bold-41" x="291.265625"/>
     <use xlink:href="#DejaVuSans-Bold-4e" x="368.658203"/>
     <use xlink:href="#DejaVuSans-Bold-5a" x="452.349609"/>
     <use xlink:href="#DejaVuSans-Bold-41" x="524.859375"/>
     <use xlink:href="#DejaVuSans-Bold-20" x="602.251953"/>
     <use xlink:href="#DejaVuSans-Bold-4c" x="637.066406"/>
    </g>
    <!-- (forza NETTA -->
    <g style="fill: #4a148c" transform="translate(87.552762 72.928117) scale(0.11 -0.11)">
     <defs>
      <path id="DejaVuSans-Bold-7a" d="M 366 3500 
L 3419 3500 
L 3419 2719 
L 1575 800 
L 3419 800 
L 3419 0 
L 288 0 
L 288 781 
L 2131 2700 
L 366 2700 
L 366 3500 
z
" transform="scale(0.015625)"/>
     </defs>
     <use xlink:href="#DejaVuSans-Bold-28"/>
     <use xlink:href="#DejaVuSans-Bold-66" x="45.703125"/>
     <use xlink:href="#DejaVuSans-Bold-6f" x="89.208984"/>
     <use xlink:href="#DejaVuSans-Bold-72" x="157.910156"/>
     <use xlink:href="#DejaVuSans-Bold-7a" x="207.226562"/>
     <use xlink:href="#DejaVuSans-Bold-61" x="265.429688"/>
     <use xlink:href="#DejaVuSans-Bold-20" x="332.910156"/>
     <use xlink:href="#DejaVuSans-Bold-4e" x="367.724609"/>
     <use xlink:href="#DejaVuSans-Bold-45" x="451.416016"/>
     <use xlink:href="#DejaVuSans-Bold-54" x="519.726562"/>
     <use xlink:href="#DejaVuSans-Bold-54" x="590.189453"/>
     <use xlink:href="#DejaVuSans-Bold-41" x="650.652344"/>
    </g>
    <!-- verso l'alto) -->
    <g style="fill: #4a148c" transform="translate(87.552762 85.245711) scale(0.11 -0.11)">
     <use xlink:href="#DejaVuSans-Bold-76"/>
     <use xlink:href="#DejaVuSans-Bold-65" x="65.185547"/>
     <use xlink:href="#DejaVuSans-Bold-72" x="133.007812"/>
     <use xlink:href="#DejaVuSans-Bold-73" x="182.324219"/>
     <use xlink:href="#DejaVuSans-Bold-6f" x="241.845703"/>
     <use xlink:href="#DejaVuSans-Bold-20" x="310.546875"/>
     <use xlink:href="#DejaVuSans-Bold-6c" x="345.361328"/>
     <use xlink:href="#DejaVuSans-Bold-27" x="379.638672"/>
     <use xlink:href="#DejaVuSans-Bold-61" x="410.253906"/>
     <use xlink:href="#DejaVuSans-Bold-6c" x="477.734375"/>
     <use xlink:href="#DejaVuSans-Bold-74" x="512.011719"/>
     <use xlink:href="#DejaVuSans-Bold-6f" x="559.814453"/>
     <use xlink:href="#DejaVuSans-Bold-29" x="628.515625"/>
    </g>
   </g>
   <g id="text_6">
    <!-- Come nasce la portanza — Bernoulli (pressioni) + Newton (downwash) -->
    <g transform="translate(21.6 31.477969) scale(0.13 -0.13)">
     <defs>
      <path id="DejaVuSans-Bold-43" d="M 4288 256 
Q 3956 84 3597 -3 
Q 3238 -91 2847 -91 
Q 1681 -91 1000 561 
Q 319 1213 319 2328 
Q 319 3447 1000 4098 
Q 1681 4750 2847 4750 
Q 3238 4750 3597 4662 
Q 3956 4575 4288 4403 
L 4288 3438 
Q 3953 3666 3628 3772 
Q 3303 3878 2944 3878 
Q 2300 3878 1931 3465 
Q 1563 3053 1563 2328 
Q 1563 1606 1931 1193 
Q 2300 781 2944 781 
Q 3303 781 3628 887 
Q 3953 994 4288 1222 
L 4288 256 
z
" transform="scale(0.015625)"/>
      <path id="DejaVuSans-Bold-6d" d="M 3781 2919 
Q 3994 3244 4286 3414 
Q 4578 3584 4928 3584 
Q 5531 3584 5847 3212 
Q 6163 2841 6163 2131 
L 6163 0 
L 5038 0 
L 5038 1825 
Q 5041 1866 5042 1909 
Q 5044 1953 5044 2034 
Q 5044 2406 4934 2573 
Q 4825 2741 4581 2741 
Q 4263 2741 4089 2478 
Q 3916 2216 3909 1719 
L 3909 0 
L 2784 0 
L 2784 1825 
Q 2784 2406 2684 2573 
Q 2584 2741 2328 2741 
Q 2006 2741 1831 2477 
Q 1656 2213 1656 1722 
L 1656 0 
L 531 0 
L 531 3500 
L 1656 3500 
L 1656 2988 
Q 1863 3284 2130 3434 
Q 2397 3584 2719 3584 
Q 3081 3584 3359 3409 
Q 3638 3234 3781 2919 
z
" transform="scale(0.015625)"/>
      <path id="DejaVuSans-Bold-63" d="M 3366 3391 
L 3366 2478 
Q 3138 2634 2908 2709 
Q 2678 2784 2431 2784 
Q 1963 2784 1702 2511 
Q 1441 2238 1441 1747 
Q 1441 1256 1702 982 
Q 1963 709 2431 709 
Q 2694 709 2930 787 
Q 3166 866 3366 1019 
L 3366 103 
Q 3103 6 2833 -42 
Q 2563 -91 2291 -91 
Q 1344 -91 809 395 
Q 275 881 275 1747 
Q 275 2613 809 3098 
Q 1344 3584 2291 3584 
Q 2566 3584 2833 3536 
Q 3100 3488 3366 3391 
z
" transform="scale(0.015625)"/>
      <path id="DejaVuSans-Bold-2014" d="M 344 2156 
L 6056 2156 
L 6056 1350 
L 344 1350 
L 344 2156 
z
" transform="scale(0.015625)"/>
      <path id="DejaVuSans-Bold-2b" d="M 3053 4013 
L 3053 2375 
L 4684 2375 
L 4684 1638 
L 3053 1638 
L 3053 0 
L 2309 0 
L 2309 1638 
L 678 1638 
L 678 2375 
L 2309 2375 
L 2309 4013 
L 3053 4013 
z
" transform="scale(0.015625)"/>
     </defs>
     <use xlink:href="#DejaVuSans-Bold-43"/>
     <use xlink:href="#DejaVuSans-Bold-6f" x="73.388672"/>
     <use xlink:href="#DejaVuSans-Bold-6d" x="142.089844"/>
     <use xlink:href="#DejaVuSans-Bold-65" x="246.289062"/>
     <use xlink:href="#DejaVuSans-Bold-20" x="314.111328"/>
     <use xlink:href="#DejaVuSans-Bold-6e" x="348.925781"/>
     <use xlink:href="#DejaVuSans-Bold-61" x="420.117188"/>
     <use xlink:href="#DejaVuSans-Bold-73" x="487.597656"/>
     <use xlink:href="#DejaVuSans-Bold-63" x="547.119141"/>
     <use xlink:href="#DejaVuSans-Bold-65" x="606.396484"/>
     <use xlink:href="#DejaVuSans-Bold-20" x="674.21875"/>
     <use xlink:href="#DejaVuSans-Bold-6c" x="709.033203"/>
     <use xlink:href="#DejaVuSans-Bold-61" x="743.310547"/>
     <use xlink:href="#DejaVuSans-Bold-20" x="810.791016"/>
     <use xlink:href="#DejaVuSans-Bold-70" x="845.605469"/>
     <use xlink:href="#DejaVuSans-Bold-6f" x="917.1875"/>
     <use xlink:href="#DejaVuSans-Bold-72" x="985.888672"/>
     <use xlink:href="#DejaVuSans-Bold-74" x="1035.205078"/>
     <use xlink:href="#DejaVuSans-Bold-61" x="1083.007812"/>
     <use xlink:href="#DejaVuSans-Bold-6e" x="1150.488281"/>
     <use xlink:href="#DejaVuSans-Bold-7a" x="1221.679688"/>
     <use xlink:href="#DejaVuSans-Bold-61" x="1279.882812"/>
     <use xlink:href="#DejaVuSans-Bold-20" x="1347.363281"/>
     <use xlink:href="#DejaVuSans-Bold-2014" x="1382.177734"/>
     <use xlink:href="#DejaVuSans-Bold-20" x="1482.177734"/>
     <use xlink:href="#DejaVuSans-Bold-42" x="1516.992188"/>
     <use xlink:href="#DejaVuSans-Bold-65" x="1593.212891"/>
     <use xlink:href="#DejaVuSans-Bold-72" x="1661.035156"/>
     <use xlink:href="#DejaVuSans-Bold-6e" x="1710.351562"/>
     <use xlink:href="#DejaVuSans-Bold-6f" x="1781.542969"/>
     <use xlink:href="#DejaVuSans-Bold-75" x="1850.244141"/>
     <use xlink:href="#DejaVuSans-Bold-6c" x="1921.435547"/>
     <use xlink:href="#DejaVuSans-Bold-6c" x="1955.712891"/>
     <use xlink:href="#DejaVuSans-Bold-69" x="1989.990234"/>
     <use xlink:href="#DejaVuSans-Bold-20" x="2024.267578"/>
     <use xlink:href="#DejaVuSans-Bold-28" x="2059.082031"/>
     <use xlink:href="#DejaVuSans-Bold-70" x="2104.785156"/>
     <use xlink:href="#DejaVuSans-Bold-72" x="2176.367188"/>
     <use xlink:href="#DejaVuSans-Bold-65" x="2225.683594"/>
     <use xlink:href="#DejaVuSans-Bold-73" x="2293.505859"/>
     <use xlink:href="#DejaVuSans-Bold-73" x="2353.027344"/>
     <use xlink:href="#DejaVuSans-Bold-69" x="2412.548828"/>
     <use xlink:href="#DejaVuSans-Bold-6f" x="2446.826172"/>
     <use xlink:href="#DejaVuSans-Bold-6e" x="2515.527344"/>
     <use xlink:href="#DejaVuSans-Bold-69" x="2586.71875"/>
     <use xlink:href="#DejaVuSans-Bold-29" x="2620.996094"/>
     <use xlink:href="#DejaVuSans-Bold-20" x="2666.699219"/>
     <use xlink:href="#DejaVuSans-Bold-2b" x="2701.513672"/>
     <use xlink:href="#DejaVuSans-Bold-20" x="2785.302734"/>
     <use xlink:href="#DejaVuSans-Bold-4e" x="2820.117188"/>
     <use xlink:href="#DejaVuSans-Bold-65" x="2903.808594"/>
     <use xlink:href="#DejaVuSans-Bold-77" x="2971.630859"/>
     <use xlink:href="#DejaVuSans-Bold-74" x="3064.013672"/>
     <use xlink:href="#DejaVuSans-Bold-6f" x="3111.816406"/>
     <use xlink:href="#DejaVuSans-Bold-6e" x="3180.517578"/>
     <use xlink:href="#DejaVuSans-Bold-20" x="3251.708984"/>
     <use xlink:href="#DejaVuSans-Bold-28" x="3286.523438"/>
     <use xlink:href="#DejaVuSans-Bold-64" x="3332.226562"/>
     <use xlink:href="#DejaVuSans-Bold-6f" x="3403.808594"/>
     <use xlink:href="#DejaVuSans-Bold-77" x="3472.509766"/>
     <use xlink:href="#DejaVuSans-Bold-6e" x="3564.892578"/>
     <use xlink:href="#DejaVuSans-Bold-77" x="3636.083984"/>
     <use xlink:href="#DejaVuSans-Bold-61" x="3728.466797"/>
     <use xlink:href="#DejaVuSans-Bold-73" x="3795.947266"/>
     <use xlink:href="#DejaVuSans-Bold-68" x="3855.46875"/>
     <use xlink:href="#DejaVuSans-Bold-29" x="3926.660156"/>
    </g>
   </g>
  </g>
 </g>
 <defs>
  <clipPath id="p643de46e57">
   <rect x="51.78502" y="49.477969" width="456.03871" height="277.2"/>
  </clipPath>
 </defs>
</svg>
