<?xml version="1.0" encoding="utf-8" standalone="no"?>
<!DOCTYPE svg PUBLIC "-//W3C//DTD SVG 1.1//EN"
  "http://www.w3.org/Graphics/SVG/1.1/DTD/svg11.dtd">
<svg xmlns:xlink="http://www.w3.org/1999/xlink" width="516.6pt" height="120.126316pt" viewBox="0 0 516.6 120.126316" xmlns="http://www.w3.org/2000/svg" version="1.1">
 <metadata>
  <rdf:RDF xmlns:dc="http://purl.org/dc/elements/1.1/" xmlns:cc="http://creativecommons.org/ns#" xmlns:rdf="http://www.w3.org/1999/02/22-rdf-syntax-ns#">
   <cc:Work>
    <dc:type rdf:resource="http://purl.org/dc/dcmitype/StillImage"/>
    <dc:date>2026-04-27T14:46:33.356078</dc:date>
    <dc:format>image/svg+xml</dc:format>
    <dc:creator>
     <cc:Agent>
      <dc:title>Matplotlib v3.9.4, https://matplotlib.org/</dc:title>
     </cc:Agent>
    </dc:creator>
   </cc:Work>
  </rdf:RDF>
 </metadata>
 <defs>
  <style type="text/css">*{stroke-linejoin: round; stroke-linecap: butt}</style>
 </defs>
 <g id="figure_1">
  <g id="patch_1">
   <path d="M 0 120.126316 
L 516.6 120.126316 
L 516.6 0 
L 0 0 
z
" style="fill: #ffffff"/>
  </g>
  <g id="axes_1">
   <g id="PolyCollection_1">
    <defs>
     <path id="m7e69428ddd" d="M 33.631579 -36.274737 
L 33.631579 -30.988421 
L 456.536842 -30.988421 
L 456.536842 -36.274737 
L 456.536842 -36.274737 
L 33.631579 -36.274737 
z
" style="stroke: #666666; stroke-opacity: 0.4"/>
    </defs>
    <g clip-path="url(#p068cdc5414)">
     <use xlink:href="#m7e69428ddd" x="0" y="120.126316" style="fill: #666666; fill-opacity: 0.4; stroke: #666666; stroke-opacity: 0.4"/>
    </g>
   </g>
   <g id="line2d_1">
    <path d="M 33.631579 86.494737 
L 37.903349 86.494737 
L 42.17512 86.494737 
L 46.44689 86.494737 
L 50.71866 86.494737 
L 54.990431 86.494737 
L 59.262201 86.494737 
L 63.533971 86.494737 
L 67.805742 86.494737 
L 72.077512 86.494737 
L 76.349282 86.494737 
L 80.621053 86.494737 
L 84.892823 86.494737 
L 89.164593 86.494737 
L 93.436364 86.494737 
L 97.708134 86.494737 
L 101.979904 86.494737 
L 106.251675 86.494737 
L 110.523445 86.494737 
L 114.795215 86.494737 
L 119.066986 86.494737 
L 123.338756 86.494737 
L 127.610526 86.494737 
L 131.882297 86.494737 
L 136.154067 86.494737 
L 140.425837 86.494737 
L 144.697608 86.494737 
L 148.969378 86.494737 
L 153.241148 86.494737 
L 157.512919 86.494737 
L 161.784689 86.494737 
L 166.056459 86.494737 
L 170.32823 86.494737 
L 174.6 86.494737 
L 178.87177 86.494737 
L 183.143541 86.494737 
L 187.415311 86.494737 
L 191.687081 86.494737 
L 195.958852 86.494737 
L 200.230622 86.494737 
L 204.502392 86.494737 
L 208.774163 86.494737 
L 213.045933 86.494737 
L 217.317703 86.494737 
L 221.589474 86.494737 
L 225.861244 86.494737 
L 230.133014 86.494737 
L 234.404785 86.494737 
L 238.676555 86.494737 
L 242.948325 86.494737 
L 247.220096 83.825819 
L 251.491866 83.717727 
L 255.763636 83.563576 
L 260.035407 83.374502 
L 264.307177 83.156066 
L 268.578947 82.911789 
L 272.850718 82.644164 
L 277.122488 82.355073 
L 281.394258 82.046006 
L 285.666029 81.718181 
L 289.937799 81.372613 
L 294.209569 81.010173 
L 298.48134 80.631611 
L 302.75311 80.237587 
L 307.02488 79.828685 
L 311.296651 79.405429 
L 315.568421 78.96829 
L 319.840191 78.517694 
L 324.111962 78.054034 
L 328.383732 77.577666 
L 332.655502 77.088922 
L 336.927273 76.588108 
L 341.199043 76.075506 
L 345.470813 75.551383 
L 349.742584 75.015987 
L 354.014354 74.469549 
L 358.286124 73.912289 
L 362.557895 73.344413 
L 366.829665 72.766116 
L 371.101435 72.177582 
L 375.373206 71.578987 
L 379.644976 59.774813 
L 383.916746 59.262201 
L 388.188517 58.749589 
L 392.460287 58.236976 
L 396.732057 57.724364 
L 401.003828 57.211751 
L 405.275598 56.699139 
L 409.547368 56.186526 
L 413.819139 55.673914 
L 418.090909 55.161301 
L 422.362679 54.648689 
L 426.63445 54.136077 
L 430.90622 53.623464 
L 435.17799 53.110852 
L 439.449761 52.598239 
L 443.721531 52.085627 
L 447.993301 51.573014 
L 452.265072 51.060402 
L 456.536842 50.547789 
" clip-path="url(#p068cdc5414)" style="fill: none; stroke: #1976d2; stroke-width: 2.5; stroke-linecap: square"/>
   </g>
   <g id="text_1">
    <!-- PISTA -->
    <g style="fill: #444444" transform="translate(227.463586 99.710526) scale(0.11 -0.11)">
     <defs>
      <path id="DejaVuSans-Bold-50" d="M 588 4666 
L 2584 4666 
Q 3475 4666 3951 4270 
Q 4428 3875 4428 3144 
Q 4428 2409 3951 2014 
Q 3475 1619 2584 1619 
L 1791 1619 
L 1791 0 
L 588 0 
L 588 4666 
z
M 1791 3794 
L 1791 2491 
L 2456 2491 
Q 2806 2491 2997 2661 
Q 3188 2831 3188 3144 
Q 3188 3456 2997 3625 
Q 2806 3794 2456 3794 
L 1791 3794 
z
" transform="scale(0.015625)"/>
      <path id="DejaVuSans-Bold-49" d="M 588 4666 
L 1791 4666 
L 1791 0 
L 588 0 
L 588 4666 
z
" transform="scale(0.015625)"/>
      <path id="DejaVuSans-Bold-53" d="M 3834 4519 
L 3834 3531 
Q 3450 3703 3084 3790 
Q 2719 3878 2394 3878 
Q 1963 3878 1756 3759 
Q 1550 3641 1550 3391 
Q 1550 3203 1689 3098 
Q 1828 2994 2194 2919 
L 2706 2816 
Q 3484 2659 3812 2340 
Q 4141 2022 4141 1434 
Q 4141 663 3683 286 
Q 3225 -91 2284 -91 
Q 1841 -91 1394 -6 
Q 947 78 500 244 
L 500 1259 
Q 947 1022 1364 901 
Q 1781 781 2169 781 
Q 2563 781 2772 912 
Q 2981 1044 2981 1288 
Q 2981 1506 2839 1625 
Q 2697 1744 2272 1838 
L 1806 1941 
Q 1106 2091 782 2419 
Q 459 2747 459 3303 
Q 459 4000 909 4375 
Q 1359 4750 2203 4750 
Q 2588 4750 2994 4692 
Q 3400 4634 3834 4519 
z
" transform="scale(0.015625)"/>
      <path id="DejaVuSans-Bold-54" d="M 31 4666 
L 4331 4666 
L 4331 3756 
L 2784 3756 
L 2784 0 
L 1581 0 
L 1581 3756 
L 31 3756 
L 31 4666 
z
" transform="scale(0.015625)"/>
      <path id="DejaVuSans-Bold-41" d="M 3419 850 
L 1538 850 
L 1241 0 
L 31 0 
L 1759 4666 
L 3194 4666 
L 4922 0 
L 3713 0 
L 3419 850 
z
M 1838 1716 
L 3116 1716 
L 2478 3572 
L 1838 1716 
z
" transform="scale(0.015625)"/>
     </defs>
     <use xlink:href="#DejaVuSans-Bold-50"/>
     <use xlink:href="#DejaVuSans-Bold-49" x="73.291016"/>
     <use xlink:href="#DejaVuSans-Bold-53" x="110.498047"/>
     <use xlink:href="#DejaVuSans-Bold-54" x="182.519531"/>
     <use xlink:href="#DejaVuSans-Bold-41" x="242.982422"/>
    </g>
   </g>
   <g id="text_2">
    <!-- V = 0 -->
    <g style="fill: #666666" transform="translate(18.612048 88.512714) scale(0.1 -0.1)">
     <defs>
      <path id="DejaVuSans-Bold-56" d="M 31 4666 
L 1241 4666 
L 2478 1222 
L 3713 4666 
L 4922 4666 
L 3194 0 
L 1759 0 
L 31 4666 
z
" transform="scale(0.015625)"/>
      <path id="DejaVuSans-Bold-20" transform="scale(0.015625)"/>
      <path id="DejaVuSans-Bold-3d" d="M 678 3084 
L 4684 3084 
L 4684 2350 
L 678 2350 
L 678 3084 
z
M 678 1663 
L 4684 1663 
L 4684 922 
L 678 922 
L 678 1663 
z
" transform="scale(0.015625)"/>
      <path id="DejaVuSans-Bold-30" d="M 2944 2338 
Q 2944 3213 2780 3570 
Q 2616 3928 2228 3928 
Q 1841 3928 1675 3570 
Q 1509 3213 1509 2338 
Q 1509 1453 1675 1090 
Q 1841 728 2228 728 
Q 2613 728 2778 1090 
Q 2944 1453 2944 2338 
z
M 4147 2328 
Q 4147 1169 3647 539 
Q 3147 -91 2228 -91 
Q 1306 -91 806 539 
Q 306 1169 306 2328 
Q 306 3491 806 4120 
Q 1306 4750 2228 4750 
Q 3147 4750 3647 4120 
Q 4147 3491 4147 2328 
z
" transform="scale(0.015625)"/>
     </defs>
     <use xlink:href="#DejaVuSans-Bold-56"/>
     <use xlink:href="#DejaVuSans-Bold-20" x="77.392578"/>
     <use xlink:href="#DejaVuSans-Bold-3d" x="112.207031"/>
     <use xlink:href="#DejaVuSans-Bold-20" x="195.996094"/>
     <use xlink:href="#DejaVuSans-Bold-30" x="230.810547"/>
    </g>
    <!-- (fermo) -->
    <g style="fill: #666666" transform="translate(12.383923 99.710526) scale(0.1 -0.1)">
     <defs>
      <path id="DejaVuSans-Bold-28" d="M 2413 -844 
L 1484 -844 
Q 1006 -72 778 623 
Q 550 1319 550 2003 
Q 550 2688 779 3389 
Q 1009 4091 1484 4856 
L 2413 4856 
Q 2013 4116 1813 3408 
Q 1613 2700 1613 2009 
Q 1613 1319 1811 609 
Q 2009 -100 2413 -844 
z
" transform="scale(0.015625)"/>
      <path id="DejaVuSans-Bold-66" d="M 2841 4863 
L 2841 4128 
L 2222 4128 
Q 1984 4128 1890 4042 
Q 1797 3956 1797 3744 
L 1797 3500 
L 2753 3500 
L 2753 2700 
L 1797 2700 
L 1797 0 
L 678 0 
L 678 2700 
L 122 2700 
L 122 3500 
L 678 3500 
L 678 3744 
Q 678 4316 997 4589 
Q 1316 4863 1984 4863 
L 2841 4863 
z
" transform="scale(0.015625)"/>
      <path id="DejaVuSans-Bold-65" d="M 4031 1759 
L 4031 1441 
L 1416 1441 
Q 1456 1047 1700 850 
Q 1944 653 2381 653 
Q 2734 653 3104 758 
Q 3475 863 3866 1075 
L 3866 213 
Q 3469 63 3072 -14 
Q 2675 -91 2278 -91 
Q 1328 -91 801 392 
Q 275 875 275 1747 
Q 275 2603 792 3093 
Q 1309 3584 2216 3584 
Q 3041 3584 3536 3087 
Q 4031 2591 4031 1759 
z
M 2881 2131 
Q 2881 2450 2695 2645 
Q 2509 2841 2209 2841 
Q 1884 2841 1681 2658 
Q 1478 2475 1428 2131 
L 2881 2131 
z
" transform="scale(0.015625)"/>
      <path id="DejaVuSans-Bold-72" d="M 3138 2547 
Q 2991 2616 2845 2648 
Q 2700 2681 2553 2681 
Q 2122 2681 1889 2404 
Q 1656 2128 1656 1613 
L 1656 0 
L 538 0 
L 538 3500 
L 1656 3500 
L 1656 2925 
Q 1872 3269 2151 3426 
Q 2431 3584 2822 3584 
Q 2878 3584 2943 3579 
Q 3009 3575 3134 3559 
L 3138 2547 
z
" transform="scale(0.015625)"/>
      <path id="DejaVuSans-Bold-6d" d="M 3781 2919 
Q 3994 3244 4286 3414 
Q 4578 3584 4928 3584 
Q 5531 3584 5847 3212 
Q 6163 2841 6163 2131 
L 6163 0 
L 5038 0 
L 5038 1825 
Q 5041 1866 5042 1909 
Q 5044 1953 5044 2034 
Q 5044 2406 4934 2573 
Q 4825 2741 4581 2741 
Q 4263 2741 4089 2478 
Q 3916 2216 3909 1719 
L 3909 0 
L 2784 0 
L 2784 1825 
Q 2784 2406 2684 2573 
Q 2584 2741 2328 2741 
Q 2006 2741 1831 2477 
Q 1656 2213 1656 1722 
L 1656 0 
L 531 0 
L 531 3500 
L 1656 3500 
L 1656 2988 
Q 1863 3284 2130 3434 
Q 2397 3584 2719 3584 
Q 3081 3584 3359 3409 
Q 3638 3234 3781 2919 
z
" transform="scale(0.015625)"/>
      <path id="DejaVuSans-Bold-6f" d="M 2203 2784 
Q 1831 2784 1636 2517 
Q 1441 2250 1441 1747 
Q 1441 1244 1636 976 
Q 1831 709 2203 709 
Q 2569 709 2762 976 
Q 2956 1244 2956 1747 
Q 2956 2250 2762 2517 
Q 2569 2784 2203 2784 
z
M 2203 3584 
Q 3106 3584 3614 3096 
Q 4122 2609 4122 1747 
Q 4122 884 3614 396 
Q 3106 -91 2203 -91 
Q 1297 -91 786 396 
Q 275 884 275 1747 
Q 275 2609 786 3096 
Q 1297 3584 2203 3584 
z
" transform="scale(0.015625)"/>
      <path id="DejaVuSans-Bold-29" d="M 513 -844 
Q 913 -100 1113 609 
Q 1313 1319 1313 2009 
Q 1313 2700 1113 3408 
Q 913 4116 513 4856 
L 1441 4856 
Q 1916 4091 2145 3389 
Q 2375 2688 2375 2003 
Q 2375 1319 2147 623 
Q 1919 -72 1441 -844 
L 513 -844 
z
" transform="scale(0.015625)"/>
     </defs>
     <use xlink:href="#DejaVuSans-Bold-28"/>
     <use xlink:href="#DejaVuSans-Bold-66" x="45.703125"/>
     <use xlink:href="#DejaVuSans-Bold-65" x="89.208984"/>
     <use xlink:href="#DejaVuSans-Bold-72" x="157.03125"/>
     <use xlink:href="#DejaVuSans-Bold-6d" x="206.347656"/>
     <use xlink:href="#DejaVuSans-Bold-6f" x="310.546875"/>
     <use xlink:href="#DejaVuSans-Bold-29" x="379.248047"/>
    </g>
   </g>
   <g id="text_3">
    <!-- V_R = 1,1·V_S -->
    <g style="fill: #fb8c00" transform="translate(206.467023 85.591431) scale(0.1 -0.1)">
     <defs>
      <path id="DejaVuSans-Bold-5f" d="M 3200 -916 
L 3200 -1509 
L 0 -1509 
L 0 -916 
L 3200 -916 
z
" transform="scale(0.015625)"/>
      <path id="DejaVuSans-Bold-52" d="M 2297 2597 
Q 2675 2597 2839 2737 
Q 3003 2878 3003 3200 
Q 3003 3519 2839 3656 
Q 2675 3794 2297 3794 
L 1791 3794 
L 1791 2597 
L 2297 2597 
z
M 1791 1766 
L 1791 0 
L 588 0 
L 588 4666 
L 2425 4666 
Q 3347 4666 3776 4356 
Q 4206 4047 4206 3378 
Q 4206 2916 3982 2619 
Q 3759 2322 3309 2181 
Q 3556 2125 3751 1926 
Q 3947 1728 4147 1325 
L 4800 0 
L 3519 0 
L 2950 1159 
Q 2778 1509 2601 1637 
Q 2425 1766 2131 1766 
L 1791 1766 
z
" transform="scale(0.015625)"/>
      <path id="DejaVuSans-Bold-31" d="M 750 831 
L 1813 831 
L 1813 3847 
L 722 3622 
L 722 4441 
L 1806 4666 
L 2950 4666 
L 2950 831 
L 4013 831 
L 4013 0 
L 750 0 
L 750 831 
z
" transform="scale(0.015625)"/>
      <path id="DejaVuSans-Bold-2c" d="M 653 1209 
L 1778 1209 
L 1778 256 
L 1006 -909 
L 341 -909 
L 653 256 
L 653 1209 
z
" transform="scale(0.015625)"/>
      <path id="DejaVuSans-Bold-b7" d="M 653 2828 
L 1778 2828 
L 1778 1619 
L 653 1619 
L 653 2828 
z
" transform="scale(0.015625)"/>
     </defs>
     <use xlink:href="#DejaVuSans-Bold-56"/>
     <use xlink:href="#DejaVuSans-Bold-5f" x="77.392578"/>
     <use xlink:href="#DejaVuSans-Bold-52" x="127.392578"/>
     <use xlink:href="#DejaVuSans-Bold-20" x="204.394531"/>
     <use xlink:href="#DejaVuSans-Bold-3d" x="239.208984"/>
     <use xlink:href="#DejaVuSans-Bold-20" x="322.998047"/>
     <use xlink:href="#DejaVuSans-Bold-31" x="357.8125"/>
     <use xlink:href="#DejaVuSans-Bold-2c" x="427.392578"/>
     <use xlink:href="#DejaVuSans-Bold-31" x="465.380859"/>
     <use xlink:href="#DejaVuSans-Bold-b7" x="534.960938"/>
     <use xlink:href="#DejaVuSans-Bold-56" x="572.949219"/>
     <use xlink:href="#DejaVuSans-Bold-5f" x="650.341797"/>
     <use xlink:href="#DejaVuSans-Bold-53" x="700.341797"/>
    </g>
    <!-- (rotazione) -->
    <g style="fill: #fb8c00" transform="translate(213.838898 97.067368) scale(0.1 -0.1)">
     <defs>
      <path id="DejaVuSans-Bold-74" d="M 1759 4494 
L 1759 3500 
L 2913 3500 
L 2913 2700 
L 1759 2700 
L 1759 1216 
Q 1759 972 1856 886 
Q 1953 800 2241 800 
L 2816 800 
L 2816 0 
L 1856 0 
Q 1194 0 917 276 
Q 641 553 641 1216 
L 641 2700 
L 84 2700 
L 84 3500 
L 641 3500 
L 641 4494 
L 1759 4494 
z
" transform="scale(0.015625)"/>
      <path id="DejaVuSans-Bold-61" d="M 2106 1575 
Q 1756 1575 1579 1456 
Q 1403 1338 1403 1106 
Q 1403 894 1545 773 
Q 1688 653 1941 653 
Q 2256 653 2472 879 
Q 2688 1106 2688 1447 
L 2688 1575 
L 2106 1575 
z
M 3816 1997 
L 3816 0 
L 2688 0 
L 2688 519 
Q 2463 200 2181 54 
Q 1900 -91 1497 -91 
Q 953 -91 614 226 
Q 275 544 275 1050 
Q 275 1666 698 1953 
Q 1122 2241 2028 2241 
L 2688 2241 
L 2688 2328 
Q 2688 2594 2478 2717 
Q 2269 2841 1825 2841 
Q 1466 2841 1156 2769 
Q 847 2697 581 2553 
L 581 3406 
Q 941 3494 1303 3539 
Q 1666 3584 2028 3584 
Q 2975 3584 3395 3211 
Q 3816 2838 3816 1997 
z
" transform="scale(0.015625)"/>
      <path id="DejaVuSans-Bold-7a" d="M 366 3500 
L 3419 3500 
L 3419 2719 
L 1575 800 
L 3419 800 
L 3419 0 
L 288 0 
L 288 781 
L 2131 2700 
L 366 2700 
L 366 3500 
z
" transform="scale(0.015625)"/>
      <path id="DejaVuSans-Bold-69" d="M 538 3500 
L 1656 3500 
L 1656 0 
L 538 0 
L 538 3500 
z
M 538 4863 
L 1656 4863 
L 1656 3950 
L 538 3950 
L 538 4863 
z
" transform="scale(0.015625)"/>
      <path id="DejaVuSans-Bold-6e" d="M 4056 2131 
L 4056 0 
L 2931 0 
L 2931 347 
L 2931 1631 
Q 2931 2084 2911 2256 
Q 2891 2428 2841 2509 
Q 2775 2619 2662 2680 
Q 2550 2741 2406 2741 
Q 2056 2741 1856 2470 
Q 1656 2200 1656 1722 
L 1656 0 
L 538 0 
L 538 3500 
L 1656 3500 
L 1656 2988 
Q 1909 3294 2193 3439 
Q 2478 3584 2822 3584 
Q 3428 3584 3742 3212 
Q 4056 2841 4056 2131 
z
" transform="scale(0.015625)"/>
     </defs>
     <use xlink:href="#DejaVuSans-Bold-28"/>
     <use xlink:href="#DejaVuSans-Bold-72" x="45.703125"/>
     <use xlink:href="#DejaVuSans-Bold-6f" x="95.019531"/>
     <use xlink:href="#DejaVuSans-Bold-74" x="163.720703"/>
     <use xlink:href="#DejaVuSans-Bold-61" x="211.523438"/>
     <use xlink:href="#DejaVuSans-Bold-7a" x="279.003906"/>
     <use xlink:href="#DejaVuSans-Bold-69" x="337.207031"/>
     <use xlink:href="#DejaVuSans-Bold-6f" x="371.484375"/>
     <use xlink:href="#DejaVuSans-Bold-6e" x="440.185547"/>
     <use xlink:href="#DejaVuSans-Bold-65" x="511.376953"/>
     <use xlink:href="#DejaVuSans-Bold-29" x="579.199219"/>
    </g>
   </g>
   <g id="text_4">
    <!-- V_2 = 1,2·V_S -->
    <g style="fill: #43a047" transform="translate(338.996012 50.605197) scale(0.1 -0.1)">
     <defs>
      <path id="DejaVuSans-Bold-32" d="M 1844 884 
L 3897 884 
L 3897 0 
L 506 0 
L 506 884 
L 2209 2388 
Q 2438 2594 2547 2791 
Q 2656 2988 2656 3200 
Q 2656 3528 2436 3728 
Q 2216 3928 1850 3928 
Q 1569 3928 1234 3808 
Q 900 3688 519 3450 
L 519 4475 
Q 925 4609 1322 4679 
Q 1719 4750 2100 4750 
Q 2938 4750 3402 4381 
Q 3866 4013 3866 3353 
Q 3866 2972 3669 2642 
Q 3472 2313 2841 1759 
L 1844 884 
z
" transform="scale(0.015625)"/>
     </defs>
     <use xlink:href="#DejaVuSans-Bold-56"/>
     <use xlink:href="#DejaVuSans-Bold-5f" x="77.392578"/>
     <use xlink:href="#DejaVuSans-Bold-32" x="127.392578"/>
     <use xlink:href="#DejaVuSans-Bold-20" x="196.972656"/>
     <use xlink:href="#DejaVuSans-Bold-3d" x="231.787109"/>
     <use xlink:href="#DejaVuSans-Bold-20" x="315.576172"/>
     <use xlink:href="#DejaVuSans-Bold-31" x="350.390625"/>
     <use xlink:href="#DejaVuSans-Bold-2c" x="419.970703"/>
     <use xlink:href="#DejaVuSans-Bold-32" x="457.958984"/>
     <use xlink:href="#DejaVuSans-Bold-b7" x="527.539062"/>
     <use xlink:href="#DejaVuSans-Bold-56" x="565.527344"/>
     <use xlink:href="#DejaVuSans-Bold-5f" x="642.919922"/>
     <use xlink:href="#DejaVuSans-Bold-53" x="692.919922"/>
    </g>
    <!-- (decollo sicuro) -->
    <g style="fill: #43a047" transform="translate(333.584293 62.081135) scale(0.1 -0.1)">
     <defs>
      <path id="DejaVuSans-Bold-64" d="M 2919 2988 
L 2919 4863 
L 4044 4863 
L 4044 0 
L 2919 0 
L 2919 506 
Q 2688 197 2409 53 
Q 2131 -91 1766 -91 
Q 1119 -91 703 423 
Q 288 938 288 1747 
Q 288 2556 703 3070 
Q 1119 3584 1766 3584 
Q 2128 3584 2408 3439 
Q 2688 3294 2919 2988 
z
M 2181 722 
Q 2541 722 2730 984 
Q 2919 1247 2919 1747 
Q 2919 2247 2730 2509 
Q 2541 2772 2181 2772 
Q 1825 2772 1636 2509 
Q 1447 2247 1447 1747 
Q 1447 1247 1636 984 
Q 1825 722 2181 722 
z
" transform="scale(0.015625)"/>
      <path id="DejaVuSans-Bold-63" d="M 3366 3391 
L 3366 2478 
Q 3138 2634 2908 2709 
Q 2678 2784 2431 2784 
Q 1963 2784 1702 2511 
Q 1441 2238 1441 1747 
Q 1441 1256 1702 982 
Q 1963 709 2431 709 
Q 2694 709 2930 787 
Q 3166 866 3366 1019 
L 3366 103 
Q 3103 6 2833 -42 
Q 2563 -91 2291 -91 
Q 1344 -91 809 395 
Q 275 881 275 1747 
Q 275 2613 809 3098 
Q 1344 3584 2291 3584 
Q 2566 3584 2833 3536 
Q 3100 3488 3366 3391 
z
" transform="scale(0.015625)"/>
      <path id="DejaVuSans-Bold-6c" d="M 538 4863 
L 1656 4863 
L 1656 0 
L 538 0 
L 538 4863 
z
" transform="scale(0.015625)"/>
      <path id="DejaVuSans-Bold-73" d="M 3272 3391 
L 3272 2541 
Q 2913 2691 2578 2766 
Q 2244 2841 1947 2841 
Q 1628 2841 1473 2761 
Q 1319 2681 1319 2516 
Q 1319 2381 1436 2309 
Q 1553 2238 1856 2203 
L 2053 2175 
Q 2913 2066 3209 1816 
Q 3506 1566 3506 1031 
Q 3506 472 3093 190 
Q 2681 -91 1863 -91 
Q 1516 -91 1145 -36 
Q 775 19 384 128 
L 384 978 
Q 719 816 1070 734 
Q 1422 653 1784 653 
Q 2113 653 2278 743 
Q 2444 834 2444 1013 
Q 2444 1163 2330 1236 
Q 2216 1309 1875 1350 
L 1678 1375 
Q 931 1469 631 1722 
Q 331 1975 331 2491 
Q 331 3047 712 3315 
Q 1094 3584 1881 3584 
Q 2191 3584 2531 3537 
Q 2872 3491 3272 3391 
z
" transform="scale(0.015625)"/>
      <path id="DejaVuSans-Bold-75" d="M 500 1363 
L 500 3500 
L 1625 3500 
L 1625 3150 
Q 1625 2866 1622 2436 
Q 1619 2006 1619 1863 
Q 1619 1441 1641 1255 
Q 1663 1069 1716 984 
Q 1784 875 1895 815 
Q 2006 756 2150 756 
Q 2500 756 2700 1025 
Q 2900 1294 2900 1772 
L 2900 3500 
L 4019 3500 
L 4019 0 
L 2900 0 
L 2900 506 
Q 2647 200 2364 54 
Q 2081 -91 1741 -91 
Q 1134 -91 817 281 
Q 500 653 500 1363 
z
" transform="scale(0.015625)"/>
     </defs>
     <use xlink:href="#DejaVuSans-Bold-28"/>
     <use xlink:href="#DejaVuSans-Bold-64" x="45.703125"/>
     <use xlink:href="#DejaVuSans-Bold-65" x="117.285156"/>
     <use xlink:href="#DejaVuSans-Bold-63" x="185.107422"/>
     <use xlink:href="#DejaVuSans-Bold-6f" x="244.384766"/>
     <use xlink:href="#DejaVuSans-Bold-6c" x="313.085938"/>
     <use xlink:href="#DejaVuSans-Bold-6c" x="347.363281"/>
     <use xlink:href="#DejaVuSans-Bold-6f" x="381.640625"/>
     <use xlink:href="#DejaVuSans-Bold-20" x="450.341797"/>
     <use xlink:href="#DejaVuSans-Bold-73" x="485.15625"/>
     <use xlink:href="#DejaVuSans-Bold-69" x="544.677734"/>
     <use xlink:href="#DejaVuSans-Bold-63" x="578.955078"/>
     <use xlink:href="#DejaVuSans-Bold-75" x="638.232422"/>
     <use xlink:href="#DejaVuSans-Bold-72" x="709.423828"/>
     <use xlink:href="#DejaVuSans-Bold-6f" x="758.740234"/>
     <use xlink:href="#DejaVuSans-Bold-29" x="827.441406"/>
    </g>
    <!-- +35 ft -->
    <g style="fill: #43a047" transform="translate(359.78898 73.278947) scale(0.1 -0.1)">
     <defs>
      <path id="DejaVuSans-Bold-2b" d="M 3053 4013 
L 3053 2375 
L 4684 2375 
L 4684 1638 
L 3053 1638 
L 3053 0 
L 2309 0 
L 2309 1638 
L 678 1638 
L 678 2375 
L 2309 2375 
L 2309 4013 
L 3053 4013 
z
" transform="scale(0.015625)"/>
      <path id="DejaVuSans-Bold-33" d="M 2981 2516 
Q 3453 2394 3698 2092 
Q 3944 1791 3944 1325 
Q 3944 631 3412 270 
Q 2881 -91 1863 -91 
Q 1503 -91 1142 -33 
Q 781 25 428 141 
L 428 1069 
Q 766 900 1098 814 
Q 1431 728 1753 728 
Q 2231 728 2486 893 
Q 2741 1059 2741 1369 
Q 2741 1688 2480 1852 
Q 2219 2016 1709 2016 
L 1228 2016 
L 1228 2791 
L 1734 2791 
Q 2188 2791 2409 2933 
Q 2631 3075 2631 3366 
Q 2631 3634 2415 3781 
Q 2200 3928 1806 3928 
Q 1516 3928 1219 3862 
Q 922 3797 628 3669 
L 628 4550 
Q 984 4650 1334 4700 
Q 1684 4750 2022 4750 
Q 2931 4750 3382 4451 
Q 3834 4153 3834 3553 
Q 3834 3144 3618 2883 
Q 3403 2622 2981 2516 
z
" transform="scale(0.015625)"/>
      <path id="DejaVuSans-Bold-35" d="M 678 4666 
L 3669 4666 
L 3669 3781 
L 1638 3781 
L 1638 3059 
Q 1775 3097 1914 3117 
Q 2053 3138 2203 3138 
Q 3056 3138 3531 2711 
Q 4006 2284 4006 1522 
Q 4006 766 3489 337 
Q 2972 -91 2053 -91 
Q 1656 -91 1267 -14 
Q 878 63 494 219 
L 494 1166 
Q 875 947 1217 837 
Q 1559 728 1863 728 
Q 2300 728 2551 942 
Q 2803 1156 2803 1522 
Q 2803 1891 2551 2103 
Q 2300 2316 1863 2316 
Q 1603 2316 1309 2248 
Q 1016 2181 678 2041 
L 678 4666 
z
" transform="scale(0.015625)"/>
     </defs>
     <use xlink:href="#DejaVuSans-Bold-2b"/>
     <use xlink:href="#DejaVuSans-Bold-33" x="83.789062"/>
     <use xlink:href="#DejaVuSans-Bold-35" x="153.369141"/>
     <use xlink:href="#DejaVuSans-Bold-20" x="222.949219"/>
     <use xlink:href="#DejaVuSans-Bold-66" x="257.763672"/>
     <use xlink:href="#DejaVuSans-Bold-74" x="301.269531"/>
    </g>
   </g>
   <g id="patch_2">
    <path d="M 88.495819 85.437474 
Q 104.995402 85.437474 119.258916 85.437474 
" style="fill: none; stroke: #1976d2; stroke-width: 2; stroke-linecap: round"/>
    <path d="M 114.458916 83.037474 
L 119.258916 85.437474 
L 114.458916 87.837474 
" style="fill: none; stroke: #1976d2; stroke-width: 2; stroke-linecap: round"/>
   </g>
   <g id="patch_3">
    <path d="M 141.358977 85.437474 
Q 157.858559 85.437474 172.122074 85.437474 
" style="fill: none; stroke: #1976d2; stroke-width: 2; stroke-linecap: round"/>
    <path d="M 167.322074 83.037474 
L 172.122074 85.437474 
L 167.322074 87.837474 
" style="fill: none; stroke: #1976d2; stroke-width: 2; stroke-linecap: round"/>
   </g>
   <g id="patch_4">
    <path d="M 194.222135 85.437474 
Q 210.721717 85.437474 224.985232 85.437474 
" style="fill: none; stroke: #1976d2; stroke-width: 2; stroke-linecap: round"/>
    <path d="M 220.185232 83.037474 
L 224.985232 85.437474 
L 220.185232 87.837474 
" style="fill: none; stroke: #1976d2; stroke-width: 2; stroke-linecap: round"/>
   </g>
   <g id="text_5">
    <!-- Sequenza decollo -->
    <g transform="translate(207.375008 23.058947) scale(0.13 -0.13)">
     <defs>
      <path id="DejaVuSans-Bold-71" d="M 2181 2772 
Q 1825 2772 1636 2509 
Q 1447 2247 1447 1747 
Q 1447 1247 1636 984 
Q 1825 722 2181 722 
Q 2541 722 2730 984 
Q 2919 1247 2919 1747 
Q 2919 2247 2730 2509 
Q 2541 2772 2181 2772 
z
M 2919 506 
Q 2688 197 2409 53 
Q 2131 -91 1766 -91 
Q 1119 -91 703 423 
Q 288 938 288 1747 
Q 288 2556 703 3067 
Q 1119 3578 1766 3578 
Q 2131 3578 2409 3434 
Q 2688 3291 2919 2981 
L 2919 3500 
L 4044 3500 
L 4044 -1331 
L 2919 -1331 
L 2919 506 
z
" transform="scale(0.015625)"/>
     </defs>
     <use xlink:href="#DejaVuSans-Bold-53"/>
     <use xlink:href="#DejaVuSans-Bold-65" x="72.021484"/>
     <use xlink:href="#DejaVuSans-Bold-71" x="139.84375"/>
     <use xlink:href="#DejaVuSans-Bold-75" x="211.425781"/>
     <use xlink:href="#DejaVuSans-Bold-65" x="282.617188"/>
     <use xlink:href="#DejaVuSans-Bold-6e" x="350.439453"/>
     <use xlink:href="#DejaVuSans-Bold-7a" x="421.630859"/>
     <use xlink:href="#DejaVuSans-Bold-61" x="479.833984"/>
     <use xlink:href="#DejaVuSans-Bold-20" x="547.314453"/>
     <use xlink:href="#DejaVuSans-Bold-64" x="582.128906"/>
     <use xlink:href="#DejaVuSans-Bold-65" x="653.710938"/>
     <use xlink:href="#DejaVuSans-Bold-63" x="721.533203"/>
     <use xlink:href="#DejaVuSans-Bold-6f" x="780.810547"/>
     <use xlink:href="#DejaVuSans-Bold-6c" x="849.511719"/>
     <use xlink:href="#DejaVuSans-Bold-6c" x="883.789062"/>
     <use xlink:href="#DejaVuSans-Bold-6f" x="918.066406"/>
    </g>
   </g>
   <g id="text_6">
    <!-- 0 → V_R: corsa al suolo · V_R → V_2: salita iniziale -->
    <g style="fill: #444444" transform="translate(147.554852 30.988421) scale(0.1 -0.1)">
     <defs>
      <path id="DejaVuSans-30" d="M 2034 4250 
Q 1547 4250 1301 3770 
Q 1056 3291 1056 2328 
Q 1056 1369 1301 889 
Q 1547 409 2034 409 
Q 2525 409 2770 889 
Q 3016 1369 3016 2328 
Q 3016 3291 2770 3770 
Q 2525 4250 2034 4250 
z
M 2034 4750 
Q 2819 4750 3233 4129 
Q 3647 3509 3647 2328 
Q 3647 1150 3233 529 
Q 2819 -91 2034 -91 
Q 1250 -91 836 529 
Q 422 1150 422 2328 
Q 422 3509 836 4129 
Q 1250 4750 2034 4750 
z
" transform="scale(0.015625)"/>
      <path id="DejaVuSans-20" transform="scale(0.015625)"/>
      <path id="DejaVuSans-2192" d="M 5050 2147 
L 5050 1866 
L 3822 638 
L 3447 1013 
L 4175 1741 
L 366 1741 
L 366 2272 
L 4175 2272 
L 3447 3000 
L 3822 3375 
L 5050 2147 
z
" transform="scale(0.015625)"/>
      <path id="DejaVuSans-56" d="M 1831 0 
L 50 4666 
L 709 4666 
L 2188 738 
L 3669 4666 
L 4325 4666 
L 2547 0 
L 1831 0 
z
" transform="scale(0.015625)"/>
      <path id="DejaVuSans-5f" d="M 3263 -1063 
L 3263 -1509 
L -63 -1509 
L -63 -1063 
L 3263 -1063 
z
" transform="scale(0.015625)"/>
      <path id="DejaVuSans-52" d="M 2841 2188 
Q 3044 2119 3236 1894 
Q 3428 1669 3622 1275 
L 4263 0 
L 3584 0 
L 2988 1197 
Q 2756 1666 2539 1819 
Q 2322 1972 1947 1972 
L 1259 1972 
L 1259 0 
L 628 0 
L 628 4666 
L 2053 4666 
Q 2853 4666 3247 4331 
Q 3641 3997 3641 3322 
Q 3641 2881 3436 2590 
Q 3231 2300 2841 2188 
z
M 1259 4147 
L 1259 2491 
L 2053 2491 
Q 2509 2491 2742 2702 
Q 2975 2913 2975 3322 
Q 2975 3731 2742 3939 
Q 2509 4147 2053 4147 
L 1259 4147 
z
" transform="scale(0.015625)"/>
      <path id="DejaVuSans-3a" d="M 750 794 
L 1409 794 
L 1409 0 
L 750 0 
L 750 794 
z
M 750 3309 
L 1409 3309 
L 1409 2516 
L 750 2516 
L 750 3309 
z
" transform="scale(0.015625)"/>
      <path id="DejaVuSans-63" d="M 3122 3366 
L 3122 2828 
Q 2878 2963 2633 3030 
Q 2388 3097 2138 3097 
Q 1578 3097 1268 2742 
Q 959 2388 959 1747 
Q 959 1106 1268 751 
Q 1578 397 2138 397 
Q 2388 397 2633 464 
Q 2878 531 3122 666 
L 3122 134 
Q 2881 22 2623 -34 
Q 2366 -91 2075 -91 
Q 1284 -91 818 406 
Q 353 903 353 1747 
Q 353 2603 823 3093 
Q 1294 3584 2113 3584 
Q 2378 3584 2631 3529 
Q 2884 3475 3122 3366 
z
" transform="scale(0.015625)"/>
      <path id="DejaVuSans-6f" d="M 1959 3097 
Q 1497 3097 1228 2736 
Q 959 2375 959 1747 
Q 959 1119 1226 758 
Q 1494 397 1959 397 
Q 2419 397 2687 759 
Q 2956 1122 2956 1747 
Q 2956 2369 2687 2733 
Q 2419 3097 1959 3097 
z
M 1959 3584 
Q 2709 3584 3137 3096 
Q 3566 2609 3566 1747 
Q 3566 888 3137 398 
Q 2709 -91 1959 -91 
Q 1206 -91 779 398 
Q 353 888 353 1747 
Q 353 2609 779 3096 
Q 1206 3584 1959 3584 
z
" transform="scale(0.015625)"/>
      <path id="DejaVuSans-72" d="M 2631 2963 
Q 2534 3019 2420 3045 
Q 2306 3072 2169 3072 
Q 1681 3072 1420 2755 
Q 1159 2438 1159 1844 
L 1159 0 
L 581 0 
L 581 3500 
L 1159 3500 
L 1159 2956 
Q 1341 3275 1631 3429 
Q 1922 3584 2338 3584 
Q 2397 3584 2469 3576 
Q 2541 3569 2628 3553 
L 2631 2963 
z
" transform="scale(0.015625)"/>
      <path id="DejaVuSans-73" d="M 2834 3397 
L 2834 2853 
Q 2591 2978 2328 3040 
Q 2066 3103 1784 3103 
Q 1356 3103 1142 2972 
Q 928 2841 928 2578 
Q 928 2378 1081 2264 
Q 1234 2150 1697 2047 
L 1894 2003 
Q 2506 1872 2764 1633 
Q 3022 1394 3022 966 
Q 3022 478 2636 193 
Q 2250 -91 1575 -91 
Q 1294 -91 989 -36 
Q 684 19 347 128 
L 347 722 
Q 666 556 975 473 
Q 1284 391 1588 391 
Q 1994 391 2212 530 
Q 2431 669 2431 922 
Q 2431 1156 2273 1281 
Q 2116 1406 1581 1522 
L 1381 1569 
Q 847 1681 609 1914 
Q 372 2147 372 2553 
Q 372 3047 722 3315 
Q 1072 3584 1716 3584 
Q 2034 3584 2315 3537 
Q 2597 3491 2834 3397 
z
" transform="scale(0.015625)"/>
      <path id="DejaVuSans-61" d="M 2194 1759 
Q 1497 1759 1228 1600 
Q 959 1441 959 1056 
Q 959 750 1161 570 
Q 1363 391 1709 391 
Q 2188 391 2477 730 
Q 2766 1069 2766 1631 
L 2766 1759 
L 2194 1759 
z
M 3341 1997 
L 3341 0 
L 2766 0 
L 2766 531 
Q 2569 213 2275 61 
Q 1981 -91 1556 -91 
Q 1019 -91 701 211 
Q 384 513 384 1019 
Q 384 1609 779 1909 
Q 1175 2209 1959 2209 
L 2766 2209 
L 2766 2266 
Q 2766 2663 2505 2880 
Q 2244 3097 1772 3097 
Q 1472 3097 1187 3025 
Q 903 2953 641 2809 
L 641 3341 
Q 956 3463 1253 3523 
Q 1550 3584 1831 3584 
Q 2591 3584 2966 3190 
Q 3341 2797 3341 1997 
z
" transform="scale(0.015625)"/>
      <path id="DejaVuSans-6c" d="M 603 4863 
L 1178 4863 
L 1178 0 
L 603 0 
L 603 4863 
z
" transform="scale(0.015625)"/>
      <path id="DejaVuSans-75" d="M 544 1381 
L 544 3500 
L 1119 3500 
L 1119 1403 
Q 1119 906 1312 657 
Q 1506 409 1894 409 
Q 2359 409 2629 706 
Q 2900 1003 2900 1516 
L 2900 3500 
L 3475 3500 
L 3475 0 
L 2900 0 
L 2900 538 
Q 2691 219 2414 64 
Q 2138 -91 1772 -91 
Q 1169 -91 856 284 
Q 544 659 544 1381 
z
M 1991 3584 
L 1991 3584 
z
" transform="scale(0.015625)"/>
      <path id="DejaVuSans-b7" d="M 684 2619 
L 1344 2619 
L 1344 1825 
L 684 1825 
L 684 2619 
z
" transform="scale(0.015625)"/>
      <path id="DejaVuSans-32" d="M 1228 531 
L 3431 531 
L 3431 0 
L 469 0 
L 469 531 
Q 828 903 1448 1529 
Q 2069 2156 2228 2338 
Q 2531 2678 2651 2914 
Q 2772 3150 2772 3378 
Q 2772 3750 2511 3984 
Q 2250 4219 1831 4219 
Q 1534 4219 1204 4116 
Q 875 4013 500 3803 
L 500 4441 
Q 881 4594 1212 4672 
Q 1544 4750 1819 4750 
Q 2544 4750 2975 4387 
Q 3406 4025 3406 3419 
Q 3406 3131 3298 2873 
Q 3191 2616 2906 2266 
Q 2828 2175 2409 1742 
Q 1991 1309 1228 531 
z
" transform="scale(0.015625)"/>
      <path id="DejaVuSans-69" d="M 603 3500 
L 1178 3500 
L 1178 0 
L 603 0 
L 603 3500 
z
M 603 4863 
L 1178 4863 
L 1178 4134 
L 603 4134 
L 603 4863 
z
" transform="scale(0.015625)"/>
      <path id="DejaVuSans-74" d="M 1172 4494 
L 1172 3500 
L 2356 3500 
L 2356 3053 
L 1172 3053 
L 1172 1153 
Q 1172 725 1289 603 
Q 1406 481 1766 481 
L 2356 481 
L 2356 0 
L 1766 0 
Q 1100 0 847 248 
Q 594 497 594 1153 
L 594 3053 
L 172 3053 
L 172 3500 
L 594 3500 
L 594 4494 
L 1172 4494 
z
" transform="scale(0.015625)"/>
      <path id="DejaVuSans-6e" d="M 3513 2113 
L 3513 0 
L 2938 0 
L 2938 2094 
Q 2938 2591 2744 2837 
Q 2550 3084 2163 3084 
Q 1697 3084 1428 2787 
Q 1159 2491 1159 1978 
L 1159 0 
L 581 0 
L 581 3500 
L 1159 3500 
L 1159 2956 
Q 1366 3272 1645 3428 
Q 1925 3584 2291 3584 
Q 2894 3584 3203 3211 
Q 3513 2838 3513 2113 
z
" transform="scale(0.015625)"/>
      <path id="DejaVuSans-7a" d="M 353 3500 
L 3084 3500 
L 3084 2975 
L 922 459 
L 3084 459 
L 3084 0 
L 275 0 
L 275 525 
L 2438 3041 
L 353 3041 
L 353 3500 
z
" transform="scale(0.015625)"/>
      <path id="DejaVuSans-65" d="M 3597 1894 
L 3597 1613 
L 953 1613 
Q 991 1019 1311 708 
Q 1631 397 2203 397 
Q 2534 397 2845 478 
Q 3156 559 3463 722 
L 3463 178 
Q 3153 47 2828 -22 
Q 2503 -91 2169 -91 
Q 1331 -91 842 396 
Q 353 884 353 1716 
Q 353 2575 817 3079 
Q 1281 3584 2069 3584 
Q 2775 3584 3186 3129 
Q 3597 2675 3597 1894 
z
M 3022 2063 
Q 3016 2534 2758 2815 
Q 2500 3097 2075 3097 
Q 1594 3097 1305 2825 
Q 1016 2553 972 2059 
L 3022 2063 
z
" transform="scale(0.015625)"/>
     </defs>
     <use xlink:href="#DejaVuSans-30"/>
     <use xlink:href="#DejaVuSans-20" x="63.623047"/>
     <use xlink:href="#DejaVuSans-2192" x="95.410156"/>
     <use xlink:href="#DejaVuSans-20" x="179.199219"/>
     <use xlink:href="#DejaVuSans-56" x="210.986328"/>
     <use xlink:href="#DejaVuSans-5f" x="279.394531"/>
     <use xlink:href="#DejaVuSans-52" x="329.394531"/>
     <use xlink:href="#DejaVuSans-3a" x="395.751953"/>
     <use xlink:href="#DejaVuSans-20" x="429.443359"/>
     <use xlink:href="#DejaVuSans-63" x="461.230469"/>
     <use xlink:href="#DejaVuSans-6f" x="516.210938"/>
     <use xlink:href="#DejaVuSans-72" x="577.392578"/>
     <use xlink:href="#DejaVuSans-73" x="618.505859"/>
     <use xlink:href="#DejaVuSans-61" x="670.605469"/>
     <use xlink:href="#DejaVuSans-20" x="731.884766"/>
     <use xlink:href="#DejaVuSans-61" x="763.671875"/>
     <use xlink:href="#DejaVuSans-6c" x="824.951172"/>
     <use xlink:href="#DejaVuSans-20" x="852.734375"/>
     <use xlink:href="#DejaVuSans-73" x="884.521484"/>
     <use xlink:href="#DejaVuSans-75" x="936.621094"/>
     <use xlink:href="#DejaVuSans-6f" x="1000"/>
     <use xlink:href="#DejaVuSans-6c" x="1061.181641"/>
     <use xlink:href="#DejaVuSans-6f" x="1088.964844"/>
     <use xlink:href="#DejaVuSans-20" x="1150.146484"/>
     <use xlink:href="#DejaVuSans-b7" x="1181.933594"/>
     <use xlink:href="#DejaVuSans-20" x="1213.720703"/>
     <use xlink:href="#DejaVuSans-56" x="1245.507812"/>
     <use xlink:href="#DejaVuSans-5f" x="1313.916016"/>
     <use xlink:href="#DejaVuSans-52" x="1363.916016"/>
     <use xlink:href="#DejaVuSans-20" x="1433.398438"/>
     <use xlink:href="#DejaVuSans-2192" x="1465.185547"/>
     <use xlink:href="#DejaVuSans-20" x="1548.974609"/>
     <use xlink:href="#DejaVuSans-56" x="1580.761719"/>
     <use xlink:href="#DejaVuSans-5f" x="1649.169922"/>
     <use xlink:href="#DejaVuSans-32" x="1699.169922"/>
     <use xlink:href="#DejaVuSans-3a" x="1762.792969"/>
     <use xlink:href="#DejaVuSans-20" x="1796.484375"/>
     <use xlink:href="#DejaVuSans-73" x="1828.271484"/>
     <use xlink:href="#DejaVuSans-61" x="1880.371094"/>
     <use xlink:href="#DejaVuSans-6c" x="1941.650391"/>
     <use xlink:href="#DejaVuSans-69" x="1969.433594"/>
     <use xlink:href="#DejaVuSans-74" x="1997.216797"/>
     <use xlink:href="#DejaVuSans-61" x="2036.425781"/>
     <use xlink:href="#DejaVuSans-20" x="2097.705078"/>
     <use xlink:href="#DejaVuSans-69" x="2129.492188"/>
     <use xlink:href="#DejaVuSans-6e" x="2157.275391"/>
     <use xlink:href="#DejaVuSans-69" x="2220.654297"/>
     <use xlink:href="#DejaVuSans-7a" x="2248.4375"/>
     <use xlink:href="#DejaVuSans-69" x="2300.927734"/>
     <use xlink:href="#DejaVuSans-61" x="2328.710938"/>
     <use xlink:href="#DejaVuSans-6c" x="2389.990234"/>
     <use xlink:href="#DejaVuSans-65" x="2417.773438"/>
    </g>
   </g>
   <g id="PathCollection_1">
    <defs>
     <path id="m03a9062464" d="M 0 7.071068 
C 1.875269 7.071068 3.673985 6.326016 5 5 
C 6.326016 3.673985 7.071068 1.875269 7.071068 0 
C 7.071068 -1.875269 6.326016 -3.673985 5 -5 
C 3.673985 -6.326016 1.875269 -7.071068 0 -7.071068 
C -1.875269 -7.071068 -3.673985 -6.326016 -5 -5 
C -6.326016 -3.673985 -7.071068 -1.875269 -7.071068 0 
C -7.071068 1.875269 -6.326016 3.673985 -5 5 
C -3.673985 6.326016 -1.875269 7.071068 0 7.071068 
z
" style="stroke: #000000; stroke-width: 1.2"/>
    </defs>
    <g clip-path="url(#p068cdc5414)">
     <use xlink:href="#m03a9062464" x="33.631579" y="86.494737" style="fill: #666666; stroke: #000000; stroke-width: 1.2"/>
    </g>
   </g>
   <g id="PathCollection_2">
    <defs>
     <path id="mdd71d62d41" d="M 0 7.071068 
C 1.875269 7.071068 3.673985 6.326016 5 5 
C 6.326016 3.673985 7.071068 1.875269 7.071068 0 
C 7.071068 -1.875269 6.326016 -3.673985 5 -5 
C 3.673985 -6.326016 1.875269 -7.071068 0 -7.071068 
C -1.875269 -7.071068 -3.673985 -6.326016 -5 -5 
C -6.326016 -3.673985 -7.071068 -1.875269 -7.071068 0 
C -7.071068 1.875269 -6.326016 3.673985 -5 5 
C -3.673985 6.326016 -1.875269 7.071068 0 7.071068 
z
" style="stroke: #000000; stroke-width: 1.2"/>
    </defs>
    <g clip-path="url(#p068cdc5414)">
     <use xlink:href="#mdd71d62d41" x="245.084211" y="83.851579" style="fill: #fb8c00; stroke: #000000; stroke-width: 1.2"/>
    </g>
   </g>
   <g id="PathCollection_3">
    <defs>
     <path id="mbdd06368fc" d="M 0 7.071068 
C 1.875269 7.071068 3.673985 6.326016 5 5 
C 6.326016 3.673985 7.071068 1.875269 7.071068 0 
C 7.071068 -1.875269 6.326016 -3.673985 5 -5 
C 3.673985 -6.326016 1.875269 -7.071068 0 -7.071068 
C -1.875269 -7.071068 -3.673985 -6.326016 -5 -5 
C -6.326016 -3.673985 -7.071068 -1.875269 -7.071068 0 
C -7.071068 1.875269 -6.326016 3.673985 -5 5 
C -3.673985 6.326016 -1.875269 7.071068 0 7.071068 
z
" style="stroke: #000000; stroke-width: 1.2"/>
    </defs>
    <g clip-path="url(#p068cdc5414)">
     <use xlink:href="#mbdd06368fc" x="377.242105" y="60.063158" style="fill: #43a047; stroke: #000000; stroke-width: 1.2"/>
    </g>
   </g>
  </g>
 </g>
 <defs>
  <clipPath id="p068cdc5414">
   <rect x="7.2" y="7.2" width="502.2" height="105.726316"/>
  </clipPath>
 </defs>
</svg>
