<?xml version="1.0" encoding="utf-8" standalone="no"?>
<!DOCTYPE svg PUBLIC "-//W3C//DTD SVG 1.1//EN"
  "http://www.w3.org/Graphics/SVG/1.1/DTD/svg11.dtd">
<svg xmlns:xlink="http://www.w3.org/1999/xlink" width="811.44pt" height="303.6195pt" viewBox="0 0 811.44 303.6195" xmlns="http://www.w3.org/2000/svg" version="1.1">
 <metadata>
  <rdf:RDF xmlns:dc="http://purl.org/dc/elements/1.1/" xmlns:cc="http://creativecommons.org/ns#" xmlns:rdf="http://www.w3.org/1999/02/22-rdf-syntax-ns#">
   <cc:Work>
    <dc:type rdf:resource="http://purl.org/dc/dcmitype/StillImage"/>
    <dc:date>2026-04-27T15:16:01.669867</dc:date>
    <dc:format>image/svg+xml</dc:format>
    <dc:creator>
     <cc:Agent>
      <dc:title>Matplotlib v3.9.4, https://matplotlib.org/</dc:title>
     </cc:Agent>
    </dc:creator>
   </cc:Work>
  </rdf:RDF>
 </metadata>
 <defs>
  <style type="text/css">*{stroke-linejoin: round; stroke-linecap: butt}</style>
 </defs>
 <g id="figure_1">
  <g id="patch_1">
   <path d="M 0 303.6195 
L 811.44 303.6195 
L 811.44 0 
L 0 0 
z
" style="fill: #ffffff"/>
  </g>
  <g id="axes_1">
   <g id="PolyCollection_1">
    <defs>
     <path id="mae6a72e5c4" d="M 97.236 -85.565608 
L 97.236 -112.451829 
L 99.91 -113.454649 
L 102.584 -114.383765 
L 105.258 -115.249329 
L 107.932 -116.059051 
L 110.606 -116.818956 
L 113.28 -117.533868 
L 115.954 -118.207725 
L 118.628 -118.843793 
L 121.302 -119.444824 
L 123.976 -120.013164 
L 126.65 -120.550834 
L 129.324 -121.059595 
L 131.998 -121.54099 
L 134.672 -121.996388 
L 137.346 -122.427007 
L 140.02 -122.833937 
L 142.694 -123.218166 
L 145.368 -123.580585 
L 148.042 -123.92201 
L 150.716 -124.243184 
L 153.39 -124.544793 
L 156.064 -124.827469 
L 158.738 -125.091796 
L 161.412 -125.338318 
L 164.086 -125.56754 
L 166.76 -125.779936 
L 169.434 -125.975949 
L 172.108 -126.155994 
L 174.782 -126.320464 
L 177.456 -126.469728 
L 180.13 -126.604134 
L 182.804 -126.724015 
L 185.478 -126.829682 
L 188.152 -126.921435 
L 190.826 -126.999556 
L 193.5 -127.064316 
L 196.174 -127.115973 
L 198.848 -127.154773 
L 201.522 -127.180951 
L 204.196 -127.194733 
L 206.87 -127.196334 
L 209.544 -127.185963 
L 212.218 -127.163819 
L 214.892 -127.130091 
L 217.566 -127.084965 
L 220.24 -127.028616 
L 222.914 -126.961216 
L 225.588 -126.882929 
L 228.262 -126.793911 
L 230.936 -126.694644 
L 233.61 -126.587245 
L 236.284 -126.472183 
L 238.958 -126.349595 
L 241.632 -126.219613 
L 244.306 -126.082366 
L 246.98 -125.937975 
L 249.654 -125.78656 
L 252.328 -125.628237 
L 255.002 -125.463115 
L 257.676 -125.291302 
L 260.35 -125.112903 
L 263.024 -124.928016 
L 265.698 -124.736739 
L 268.372 -124.539165 
L 271.046 -124.335384 
L 273.72 -124.125483 
L 276.394 -123.909546 
L 279.068 -123.687654 
L 281.742 -123.459885 
L 284.416 -123.226314 
L 287.09 -122.987014 
L 289.764 -122.742054 
L 292.438 -122.491501 
L 295.112 -122.235421 
L 297.786 -121.973874 
L 300.46 -121.706921 
L 303.134 -121.434618 
L 305.808 -121.157021 
L 308.482 -120.874181 
L 311.156 -120.586148 
L 313.83 -120.29297 
L 316.504 -119.994693 
L 319.178 -119.691359 
L 321.852 -119.38301 
L 324.526 -119.069685 
L 327.2 -118.75142 
L 329.874 -118.428251 
L 332.548 -118.100209 
L 335.222 -117.767326 
L 337.896 -117.429629 
L 340.57 -117.087146 
L 343.244 -116.739902 
L 345.918 -116.387918 
L 348.592 -116.031216 
L 351.266 -115.669814 
L 353.94 -115.303729 
L 356.614 -114.932977 
L 359.288 -114.557571 
L 361.962 -114.177521 
L 361.962 -90.274229 
L 361.962 -90.274229 
L 359.288 -90.100056 
L 356.614 -89.926325 
L 353.94 -89.753047 
L 351.266 -89.580235 
L 348.592 -89.407903 
L 345.918 -89.23607 
L 343.244 -89.064754 
L 340.57 -88.893976 
L 337.896 -88.723757 
L 335.222 -88.554124 
L 332.548 -88.385102 
L 329.874 -88.21672 
L 327.2 -88.049008 
L 324.526 -87.882 
L 321.852 -87.71573 
L 319.178 -87.550234 
L 316.504 -87.385553 
L 313.83 -87.221726 
L 311.156 -87.058796 
L 308.482 -86.896811 
L 305.808 -86.735816 
L 303.134 -86.575862 
L 300.46 -86.417002 
L 297.786 -86.25929 
L 295.112 -86.102782 
L 292.438 -85.94754 
L 289.764 -85.793623 
L 287.09 -85.641098 
L 284.416 -85.490031 
L 281.742 -85.340491 
L 279.068 -85.192552 
L 276.394 -85.046288 
L 273.72 -84.901778 
L 271.046 -84.759102 
L 268.372 -84.618345 
L 265.698 -84.479593 
L 263.024 -84.342936 
L 260.35 -84.208468 
L 257.676 -84.076286 
L 255.002 -83.946489 
L 252.328 -83.819182 
L 249.654 -83.69447 
L 246.98 -83.572467 
L 244.306 -83.453286 
L 241.632 -83.337046 
L 238.958 -83.22387 
L 236.284 -83.113887 
L 233.61 -83.007228 
L 230.936 -82.90403 
L 228.262 -82.804107 
L 225.588 -82.705636 
L 222.914 -82.608441 
L 220.24 -82.512681 
L 217.566 -82.418518 
L 214.892 -82.326124 
L 212.218 -82.235676 
L 209.544 -82.147356 
L 206.87 -82.061357 
L 204.196 -81.977877 
L 201.522 -81.897123 
L 198.848 -81.819312 
L 196.174 -81.74467 
L 193.5 -81.67343 
L 190.826 -81.605841 
L 188.152 -81.542159 
L 185.478 -81.482655 
L 182.804 -81.427613 
L 180.13 -81.377329 
L 177.456 -81.332119 
L 174.782 -81.292312 
L 172.108 -81.258257 
L 169.434 -81.230325 
L 166.76 -81.208906 
L 164.086 -81.194418 
L 161.412 -81.187301 
L 158.738 -81.188031 
L 156.064 -81.197113 
L 153.39 -81.21509 
L 150.716 -81.242546 
L 148.042 -81.280115 
L 145.368 -81.32848 
L 142.694 -81.388386 
L 140.02 -81.460648 
L 137.346 -81.546158 
L 134.672 -81.645903 
L 131.998 -81.760973 
L 129.324 -81.892588 
L 126.65 -82.042114 
L 123.976 -82.211097 
L 121.302 -82.401295 
L 118.628 -82.614731 
L 115.954 -82.853751 
L 113.28 -83.121106 
L 110.606 -83.420062 
L 107.932 -83.754558 
L 105.258 -84.129417 
L 102.584 -84.550665 
L 99.91 -85.026012 
L 97.236 -85.565608 
z
" style="stroke: #1976d2; stroke-width: 2"/>
    </defs>
    <g clip-path="url(#p1899aaefd1)">
     <use xlink:href="#mae6a72e5c4" x="0" y="303.6195" style="fill: #bbdefb; stroke: #1976d2; stroke-width: 2"/>
    </g>
   </g>
   <g id="text_1">
    <!-- Ala normale (slat retratta) -->
    <g transform="translate(128.636016 56.0205) scale(0.11 -0.11)">
     <defs>
      <path id="DejaVuSans-Bold-41" d="M 3419 850 
L 1538 850 
L 1241 0 
L 31 0 
L 1759 4666 
L 3194 4666 
L 4922 0 
L 3713 0 
L 3419 850 
z
M 1838 1716 
L 3116 1716 
L 2478 3572 
L 1838 1716 
z
" transform="scale(0.015625)"/>
      <path id="DejaVuSans-Bold-6c" d="M 538 4863 
L 1656 4863 
L 1656 0 
L 538 0 
L 538 4863 
z
" transform="scale(0.015625)"/>
      <path id="DejaVuSans-Bold-61" d="M 2106 1575 
Q 1756 1575 1579 1456 
Q 1403 1338 1403 1106 
Q 1403 894 1545 773 
Q 1688 653 1941 653 
Q 2256 653 2472 879 
Q 2688 1106 2688 1447 
L 2688 1575 
L 2106 1575 
z
M 3816 1997 
L 3816 0 
L 2688 0 
L 2688 519 
Q 2463 200 2181 54 
Q 1900 -91 1497 -91 
Q 953 -91 614 226 
Q 275 544 275 1050 
Q 275 1666 698 1953 
Q 1122 2241 2028 2241 
L 2688 2241 
L 2688 2328 
Q 2688 2594 2478 2717 
Q 2269 2841 1825 2841 
Q 1466 2841 1156 2769 
Q 847 2697 581 2553 
L 581 3406 
Q 941 3494 1303 3539 
Q 1666 3584 2028 3584 
Q 2975 3584 3395 3211 
Q 3816 2838 3816 1997 
z
" transform="scale(0.015625)"/>
      <path id="DejaVuSans-Bold-20" transform="scale(0.015625)"/>
      <path id="DejaVuSans-Bold-6e" d="M 4056 2131 
L 4056 0 
L 2931 0 
L 2931 347 
L 2931 1631 
Q 2931 2084 2911 2256 
Q 2891 2428 2841 2509 
Q 2775 2619 2662 2680 
Q 2550 2741 2406 2741 
Q 2056 2741 1856 2470 
Q 1656 2200 1656 1722 
L 1656 0 
L 538 0 
L 538 3500 
L 1656 3500 
L 1656 2988 
Q 1909 3294 2193 3439 
Q 2478 3584 2822 3584 
Q 3428 3584 3742 3212 
Q 4056 2841 4056 2131 
z
" transform="scale(0.015625)"/>
      <path id="DejaVuSans-Bold-6f" d="M 2203 2784 
Q 1831 2784 1636 2517 
Q 1441 2250 1441 1747 
Q 1441 1244 1636 976 
Q 1831 709 2203 709 
Q 2569 709 2762 976 
Q 2956 1244 2956 1747 
Q 2956 2250 2762 2517 
Q 2569 2784 2203 2784 
z
M 2203 3584 
Q 3106 3584 3614 3096 
Q 4122 2609 4122 1747 
Q 4122 884 3614 396 
Q 3106 -91 2203 -91 
Q 1297 -91 786 396 
Q 275 884 275 1747 
Q 275 2609 786 3096 
Q 1297 3584 2203 3584 
z
" transform="scale(0.015625)"/>
      <path id="DejaVuSans-Bold-72" d="M 3138 2547 
Q 2991 2616 2845 2648 
Q 2700 2681 2553 2681 
Q 2122 2681 1889 2404 
Q 1656 2128 1656 1613 
L 1656 0 
L 538 0 
L 538 3500 
L 1656 3500 
L 1656 2925 
Q 1872 3269 2151 3426 
Q 2431 3584 2822 3584 
Q 2878 3584 2943 3579 
Q 3009 3575 3134 3559 
L 3138 2547 
z
" transform="scale(0.015625)"/>
      <path id="DejaVuSans-Bold-6d" d="M 3781 2919 
Q 3994 3244 4286 3414 
Q 4578 3584 4928 3584 
Q 5531 3584 5847 3212 
Q 6163 2841 6163 2131 
L 6163 0 
L 5038 0 
L 5038 1825 
Q 5041 1866 5042 1909 
Q 5044 1953 5044 2034 
Q 5044 2406 4934 2573 
Q 4825 2741 4581 2741 
Q 4263 2741 4089 2478 
Q 3916 2216 3909 1719 
L 3909 0 
L 2784 0 
L 2784 1825 
Q 2784 2406 2684 2573 
Q 2584 2741 2328 2741 
Q 2006 2741 1831 2477 
Q 1656 2213 1656 1722 
L 1656 0 
L 531 0 
L 531 3500 
L 1656 3500 
L 1656 2988 
Q 1863 3284 2130 3434 
Q 2397 3584 2719 3584 
Q 3081 3584 3359 3409 
Q 3638 3234 3781 2919 
z
" transform="scale(0.015625)"/>
      <path id="DejaVuSans-Bold-65" d="M 4031 1759 
L 4031 1441 
L 1416 1441 
Q 1456 1047 1700 850 
Q 1944 653 2381 653 
Q 2734 653 3104 758 
Q 3475 863 3866 1075 
L 3866 213 
Q 3469 63 3072 -14 
Q 2675 -91 2278 -91 
Q 1328 -91 801 392 
Q 275 875 275 1747 
Q 275 2603 792 3093 
Q 1309 3584 2216 3584 
Q 3041 3584 3536 3087 
Q 4031 2591 4031 1759 
z
M 2881 2131 
Q 2881 2450 2695 2645 
Q 2509 2841 2209 2841 
Q 1884 2841 1681 2658 
Q 1478 2475 1428 2131 
L 2881 2131 
z
" transform="scale(0.015625)"/>
      <path id="DejaVuSans-Bold-28" d="M 2413 -844 
L 1484 -844 
Q 1006 -72 778 623 
Q 550 1319 550 2003 
Q 550 2688 779 3389 
Q 1009 4091 1484 4856 
L 2413 4856 
Q 2013 4116 1813 3408 
Q 1613 2700 1613 2009 
Q 1613 1319 1811 609 
Q 2009 -100 2413 -844 
z
" transform="scale(0.015625)"/>
      <path id="DejaVuSans-Bold-73" d="M 3272 3391 
L 3272 2541 
Q 2913 2691 2578 2766 
Q 2244 2841 1947 2841 
Q 1628 2841 1473 2761 
Q 1319 2681 1319 2516 
Q 1319 2381 1436 2309 
Q 1553 2238 1856 2203 
L 2053 2175 
Q 2913 2066 3209 1816 
Q 3506 1566 3506 1031 
Q 3506 472 3093 190 
Q 2681 -91 1863 -91 
Q 1516 -91 1145 -36 
Q 775 19 384 128 
L 384 978 
Q 719 816 1070 734 
Q 1422 653 1784 653 
Q 2113 653 2278 743 
Q 2444 834 2444 1013 
Q 2444 1163 2330 1236 
Q 2216 1309 1875 1350 
L 1678 1375 
Q 931 1469 631 1722 
Q 331 1975 331 2491 
Q 331 3047 712 3315 
Q 1094 3584 1881 3584 
Q 2191 3584 2531 3537 
Q 2872 3491 3272 3391 
z
" transform="scale(0.015625)"/>
      <path id="DejaVuSans-Bold-74" d="M 1759 4494 
L 1759 3500 
L 2913 3500 
L 2913 2700 
L 1759 2700 
L 1759 1216 
Q 1759 972 1856 886 
Q 1953 800 2241 800 
L 2816 800 
L 2816 0 
L 1856 0 
Q 1194 0 917 276 
Q 641 553 641 1216 
L 641 2700 
L 84 2700 
L 84 3500 
L 641 3500 
L 641 4494 
L 1759 4494 
z
" transform="scale(0.015625)"/>
      <path id="DejaVuSans-Bold-29" d="M 513 -844 
Q 913 -100 1113 609 
Q 1313 1319 1313 2009 
Q 1313 2700 1113 3408 
Q 913 4116 513 4856 
L 1441 4856 
Q 1916 4091 2145 3389 
Q 2375 2688 2375 2003 
Q 2375 1319 2147 623 
Q 1919 -72 1441 -844 
L 513 -844 
z
" transform="scale(0.015625)"/>
     </defs>
     <use xlink:href="#DejaVuSans-Bold-41"/>
     <use xlink:href="#DejaVuSans-Bold-6c" x="77.392578"/>
     <use xlink:href="#DejaVuSans-Bold-61" x="111.669922"/>
     <use xlink:href="#DejaVuSans-Bold-20" x="179.150391"/>
     <use xlink:href="#DejaVuSans-Bold-6e" x="213.964844"/>
     <use xlink:href="#DejaVuSans-Bold-6f" x="285.15625"/>
     <use xlink:href="#DejaVuSans-Bold-72" x="353.857422"/>
     <use xlink:href="#DejaVuSans-Bold-6d" x="403.173828"/>
     <use xlink:href="#DejaVuSans-Bold-61" x="507.373047"/>
     <use xlink:href="#DejaVuSans-Bold-6c" x="574.853516"/>
     <use xlink:href="#DejaVuSans-Bold-65" x="609.130859"/>
     <use xlink:href="#DejaVuSans-Bold-20" x="676.953125"/>
     <use xlink:href="#DejaVuSans-Bold-28" x="711.767578"/>
     <use xlink:href="#DejaVuSans-Bold-73" x="757.470703"/>
     <use xlink:href="#DejaVuSans-Bold-6c" x="816.992188"/>
     <use xlink:href="#DejaVuSans-Bold-61" x="851.269531"/>
     <use xlink:href="#DejaVuSans-Bold-74" x="918.75"/>
     <use xlink:href="#DejaVuSans-Bold-20" x="966.552734"/>
     <use xlink:href="#DejaVuSans-Bold-72" x="1001.367188"/>
     <use xlink:href="#DejaVuSans-Bold-65" x="1050.683594"/>
     <use xlink:href="#DejaVuSans-Bold-74" x="1118.505859"/>
     <use xlink:href="#DejaVuSans-Bold-72" x="1166.308594"/>
     <use xlink:href="#DejaVuSans-Bold-61" x="1215.625"/>
     <use xlink:href="#DejaVuSans-Bold-74" x="1283.105469"/>
     <use xlink:href="#DejaVuSans-Bold-74" x="1330.908203"/>
     <use xlink:href="#DejaVuSans-Bold-61" x="1378.710938"/>
     <use xlink:href="#DejaVuSans-Bold-29" x="1446.191406"/>
    </g>
   </g>
  </g>
  <g id="axes_2">
   <g id="PolyCollection_2">
    <defs>
     <path id="ma8dfcaf1f0" d="M 487.296 -85.565608 
L 487.296 -112.451829 
L 489.97 -113.454649 
L 492.644 -114.383765 
L 495.318 -115.249329 
L 497.992 -116.059051 
L 500.666 -116.818956 
L 503.34 -117.533868 
L 506.014 -118.207725 
L 508.688 -118.843793 
L 511.362 -119.444824 
L 514.036 -120.013164 
L 516.71 -120.550834 
L 519.384 -121.059595 
L 522.058 -121.54099 
L 524.732 -121.996388 
L 527.406 -122.427007 
L 530.08 -122.833937 
L 532.754 -123.218166 
L 535.428 -123.580585 
L 538.102 -123.92201 
L 540.776 -124.243184 
L 543.45 -124.544793 
L 546.124 -124.827469 
L 548.798 -125.091796 
L 551.472 -125.338318 
L 554.146 -125.56754 
L 556.82 -125.779936 
L 559.494 -125.975949 
L 562.168 -126.155994 
L 564.842 -126.320464 
L 567.516 -126.469728 
L 570.19 -126.604134 
L 572.864 -126.724015 
L 575.538 -126.829682 
L 578.212 -126.921435 
L 580.886 -126.999556 
L 583.56 -127.064316 
L 586.234 -127.115973 
L 588.908 -127.154773 
L 591.582 -127.180951 
L 594.256 -127.194733 
L 596.93 -127.196334 
L 599.604 -127.185963 
L 602.278 -127.163819 
L 604.952 -127.130091 
L 607.626 -127.084965 
L 610.3 -127.028616 
L 612.974 -126.961216 
L 615.648 -126.882929 
L 618.322 -126.793911 
L 620.996 -126.694644 
L 623.67 -126.587245 
L 626.344 -126.472183 
L 629.018 -126.349595 
L 631.692 -126.219613 
L 634.366 -126.082366 
L 637.04 -125.937975 
L 639.714 -125.78656 
L 642.388 -125.628237 
L 645.062 -125.463115 
L 647.736 -125.291302 
L 650.41 -125.112903 
L 653.084 -124.928016 
L 655.758 -124.736739 
L 658.432 -124.539165 
L 661.106 -124.335384 
L 663.78 -124.125483 
L 666.454 -123.909546 
L 669.128 -123.687654 
L 671.802 -123.459885 
L 674.476 -123.226314 
L 677.15 -122.987014 
L 679.824 -122.742054 
L 682.498 -122.491501 
L 685.172 -122.235421 
L 687.846 -121.973874 
L 690.52 -121.706921 
L 693.194 -121.434618 
L 695.868 -121.157021 
L 698.542 -120.874181 
L 701.216 -120.586148 
L 703.89 -120.29297 
L 706.564 -119.994693 
L 709.238 -119.691359 
L 711.912 -119.38301 
L 714.586 -119.069685 
L 717.26 -118.75142 
L 719.934 -118.428251 
L 722.608 -118.100209 
L 725.282 -117.767326 
L 727.956 -117.429629 
L 730.63 -117.087146 
L 733.304 -116.739902 
L 735.978 -116.387918 
L 738.652 -116.031216 
L 741.326 -115.669814 
L 744 -115.303729 
L 746.674 -114.932977 
L 749.348 -114.557571 
L 752.022 -114.177521 
L 752.022 -90.274229 
L 752.022 -90.274229 
L 749.348 -90.100056 
L 746.674 -89.926325 
L 744 -89.753047 
L 741.326 -89.580235 
L 738.652 -89.407903 
L 735.978 -89.23607 
L 733.304 -89.064754 
L 730.63 -88.893976 
L 727.956 -88.723757 
L 725.282 -88.554124 
L 722.608 -88.385102 
L 719.934 -88.21672 
L 717.26 -88.049008 
L 714.586 -87.882 
L 711.912 -87.71573 
L 709.238 -87.550234 
L 706.564 -87.385553 
L 703.89 -87.221726 
L 701.216 -87.058796 
L 698.542 -86.896811 
L 695.868 -86.735816 
L 693.194 -86.575862 
L 690.52 -86.417002 
L 687.846 -86.25929 
L 685.172 -86.102782 
L 682.498 -85.94754 
L 679.824 -85.793623 
L 677.15 -85.641098 
L 674.476 -85.490031 
L 671.802 -85.340491 
L 669.128 -85.192552 
L 666.454 -85.046288 
L 663.78 -84.901778 
L 661.106 -84.759102 
L 658.432 -84.618345 
L 655.758 -84.479593 
L 653.084 -84.342936 
L 650.41 -84.208468 
L 647.736 -84.076286 
L 645.062 -83.946489 
L 642.388 -83.819182 
L 639.714 -83.69447 
L 637.04 -83.572467 
L 634.366 -83.453286 
L 631.692 -83.337046 
L 629.018 -83.22387 
L 626.344 -83.113887 
L 623.67 -83.007228 
L 620.996 -82.90403 
L 618.322 -82.804107 
L 615.648 -82.705636 
L 612.974 -82.608441 
L 610.3 -82.512681 
L 607.626 -82.418518 
L 604.952 -82.326124 
L 602.278 -82.235676 
L 599.604 -82.147356 
L 596.93 -82.061357 
L 594.256 -81.977877 
L 591.582 -81.897123 
L 588.908 -81.819312 
L 586.234 -81.74467 
L 583.56 -81.67343 
L 580.886 -81.605841 
L 578.212 -81.542159 
L 575.538 -81.482655 
L 572.864 -81.427613 
L 570.19 -81.377329 
L 567.516 -81.332119 
L 564.842 -81.292312 
L 562.168 -81.258257 
L 559.494 -81.230325 
L 556.82 -81.208906 
L 554.146 -81.194418 
L 551.472 -81.187301 
L 548.798 -81.188031 
L 546.124 -81.197113 
L 543.45 -81.21509 
L 540.776 -81.242546 
L 538.102 -81.280115 
L 535.428 -81.32848 
L 532.754 -81.388386 
L 530.08 -81.460648 
L 527.406 -81.546158 
L 524.732 -81.645903 
L 522.058 -81.760973 
L 519.384 -81.892588 
L 516.71 -82.042114 
L 514.036 -82.211097 
L 511.362 -82.401295 
L 508.688 -82.614731 
L 506.014 -82.853751 
L 503.34 -83.121106 
L 500.666 -83.420062 
L 497.992 -83.754558 
L 495.318 -84.129417 
L 492.644 -84.550665 
L 489.97 -85.026012 
L 487.296 -85.565608 
z
" style="stroke: #1976d2; stroke-width: 2"/>
    </defs>
    <g clip-path="url(#pef57522718)">
     <use xlink:href="#ma8dfcaf1f0" x="0" y="303.6195" style="fill: #bbdefb; stroke: #1976d2; stroke-width: 2"/>
    </g>
   </g>
   <g id="PolyCollection_3">
    <defs>
     <path id="m4c20560797" d="M 449.478 -97.05045 
L 449.478 -97.185188 
L 450.932538 -101.347659 
L 452.387077 -103.126297 
L 453.841615 -104.498511 
L 455.296154 -105.658531 
L 456.750692 -106.681591 
L 458.205231 -107.606276 
L 459.659769 -108.455505 
L 461.114308 -109.244213 
L 462.568846 -109.982774 
L 464.023385 -110.67874 
L 465.477923 -111.337813 
L 466.932462 -111.964422 
L 468.387 -112.562091 
L 469.841538 -113.133675 
L 471.296077 -113.681528 
L 472.750615 -114.207618 
L 474.205154 -114.713608 
L 475.659692 -115.200922 
L 477.114231 -115.670786 
L 478.568769 -116.124268 
L 480.023308 -116.562304 
L 481.477846 -116.985719 
L 482.932385 -117.395247 
L 484.386923 -117.79154 
L 485.841462 -118.175186 
L 487.296 -118.546713 
L 488.750538 -118.906599 
L 490.205077 -119.255277 
L 491.659615 -119.593144 
L 493.114154 -119.920561 
L 494.568692 -120.23786 
L 496.023231 -120.545346 
L 497.477769 -120.843302 
L 498.932308 -121.131987 
L 500.386846 -121.411643 
L 501.841385 -121.682494 
L 503.295923 -121.94475 
L 504.750462 -122.198605 
L 506.205 -122.44424 
L 506.205 -82.42771 
L 506.205 -82.42771 
L 504.750462 -82.453766 
L 503.295923 -82.485244 
L 501.841385 -82.522326 
L 500.386846 -82.565206 
L 498.932308 -82.614094 
L 497.477769 -82.669214 
L 496.023231 -82.730807 
L 494.568692 -82.799134 
L 493.114154 -82.874476 
L 491.659615 -82.957139 
L 490.205077 -83.047455 
L 488.750538 -83.145785 
L 487.296 -83.252524 
L 485.841462 -83.368108 
L 484.386923 -83.493014 
L 482.932385 -83.627771 
L 481.477846 -83.772964 
L 480.023308 -83.929248 
L 478.568769 -84.097355 
L 477.114231 -84.278111 
L 475.659692 -84.472452 
L 474.205154 -84.681445 
L 472.750615 -84.906318 
L 471.296077 -85.148493 
L 469.841538 -85.409635 
L 468.387 -85.691709 
L 466.932462 -85.997072 
L 465.477923 -86.328578 
L 464.023385 -86.68975 
L 462.568846 -87.085018 
L 461.114308 -87.520084 
L 459.659769 -88.0025 
L 458.205231 -88.542639 
L 456.750692 -89.155437 
L 455.296154 -89.863814 
L 453.841615 -90.706353 
L 452.387077 -91.758289 
L 450.932538 -93.213851 
L 449.478 -97.05045 
z
" style="stroke: #43a047; stroke-width: 1.5"/>
    </defs>
    <g clip-path="url(#pef57522718)">
     <use xlink:href="#m4c20560797" x="0" y="303.6195" style="fill: #c8e6c9; stroke: #43a047; stroke-width: 1.5"/>
    </g>
   </g>
   <g id="patch_2">
    <path d="M 636.028079 136.45135 
Q 566.376547 163.491726 497.975712 190.046551 
" style="fill: none; stroke: #444444; stroke-width: 1.2; stroke-linecap: round"/>
    <path d="M 501.983116 190.421669 
L 497.975712 190.046551 
L 500.680249 187.065699 
" style="fill: none; stroke: #444444; stroke-width: 1.2; stroke-linecap: round"/>
   </g>
   <g id="text_2">
    <g id="patch_3">
     <path d="M 638.568 135.319219 
L 727.585031 135.319219 
Q 730.285031 135.319219 730.285031 132.619219 
L 730.285031 103.752844 
Q 730.285031 101.052844 727.585031 101.052844 
L 638.568 101.052844 
Q 635.868 101.052844 635.868 103.752844 
L 635.868 132.619219 
Q 635.868 135.319219 638.568 135.319219 
z
" style="fill: #ffffff; opacity: 0.92; stroke: #808080; stroke-linejoin: miter"/>
    </g>
    <!-- Fessura -->
    <g style="fill: #444444" transform="translate(638.568 110.591437) scale(0.09 -0.09)">
     <defs>
      <path id="DejaVuSans-46" d="M 628 4666 
L 3309 4666 
L 3309 4134 
L 1259 4134 
L 1259 2759 
L 3109 2759 
L 3109 2228 
L 1259 2228 
L 1259 0 
L 628 0 
L 628 4666 
z
" transform="scale(0.015625)"/>
      <path id="DejaVuSans-65" d="M 3597 1894 
L 3597 1613 
L 953 1613 
Q 991 1019 1311 708 
Q 1631 397 2203 397 
Q 2534 397 2845 478 
Q 3156 559 3463 722 
L 3463 178 
Q 3153 47 2828 -22 
Q 2503 -91 2169 -91 
Q 1331 -91 842 396 
Q 353 884 353 1716 
Q 353 2575 817 3079 
Q 1281 3584 2069 3584 
Q 2775 3584 3186 3129 
Q 3597 2675 3597 1894 
z
M 3022 2063 
Q 3016 2534 2758 2815 
Q 2500 3097 2075 3097 
Q 1594 3097 1305 2825 
Q 1016 2553 972 2059 
L 3022 2063 
z
" transform="scale(0.015625)"/>
      <path id="DejaVuSans-73" d="M 2834 3397 
L 2834 2853 
Q 2591 2978 2328 3040 
Q 2066 3103 1784 3103 
Q 1356 3103 1142 2972 
Q 928 2841 928 2578 
Q 928 2378 1081 2264 
Q 1234 2150 1697 2047 
L 1894 2003 
Q 2506 1872 2764 1633 
Q 3022 1394 3022 966 
Q 3022 478 2636 193 
Q 2250 -91 1575 -91 
Q 1294 -91 989 -36 
Q 684 19 347 128 
L 347 722 
Q 666 556 975 473 
Q 1284 391 1588 391 
Q 1994 391 2212 530 
Q 2431 669 2431 922 
Q 2431 1156 2273 1281 
Q 2116 1406 1581 1522 
L 1381 1569 
Q 847 1681 609 1914 
Q 372 2147 372 2553 
Q 372 3047 722 3315 
Q 1072 3584 1716 3584 
Q 2034 3584 2315 3537 
Q 2597 3491 2834 3397 
z
" transform="scale(0.015625)"/>
      <path id="DejaVuSans-75" d="M 544 1381 
L 544 3500 
L 1119 3500 
L 1119 1403 
Q 1119 906 1312 657 
Q 1506 409 1894 409 
Q 2359 409 2629 706 
Q 2900 1003 2900 1516 
L 2900 3500 
L 3475 3500 
L 3475 0 
L 2900 0 
L 2900 538 
Q 2691 219 2414 64 
Q 2138 -91 1772 -91 
Q 1169 -91 856 284 
Q 544 659 544 1381 
z
M 1991 3584 
L 1991 3584 
z
" transform="scale(0.015625)"/>
      <path id="DejaVuSans-72" d="M 2631 2963 
Q 2534 3019 2420 3045 
Q 2306 3072 2169 3072 
Q 1681 3072 1420 2755 
Q 1159 2438 1159 1844 
L 1159 0 
L 581 0 
L 581 3500 
L 1159 3500 
L 1159 2956 
Q 1341 3275 1631 3429 
Q 1922 3584 2338 3584 
Q 2397 3584 2469 3576 
Q 2541 3569 2628 3553 
L 2631 2963 
z
" transform="scale(0.015625)"/>
      <path id="DejaVuSans-61" d="M 2194 1759 
Q 1497 1759 1228 1600 
Q 959 1441 959 1056 
Q 959 750 1161 570 
Q 1363 391 1709 391 
Q 2188 391 2477 730 
Q 2766 1069 2766 1631 
L 2766 1759 
L 2194 1759 
z
M 3341 1997 
L 3341 0 
L 2766 0 
L 2766 531 
Q 2569 213 2275 61 
Q 1981 -91 1556 -91 
Q 1019 -91 701 211 
Q 384 513 384 1019 
Q 384 1609 779 1909 
Q 1175 2209 1959 2209 
L 2766 2209 
L 2766 2266 
Q 2766 2663 2505 2880 
Q 2244 3097 1772 3097 
Q 1472 3097 1187 3025 
Q 903 2953 641 2809 
L 641 3341 
Q 956 3463 1253 3523 
Q 1550 3584 1831 3584 
Q 2591 3584 2966 3190 
Q 3341 2797 3341 1997 
z
" transform="scale(0.015625)"/>
     </defs>
     <use xlink:href="#DejaVuSans-46"/>
     <use xlink:href="#DejaVuSans-65" x="52.019531"/>
     <use xlink:href="#DejaVuSans-73" x="113.542969"/>
     <use xlink:href="#DejaVuSans-73" x="165.642578"/>
     <use xlink:href="#DejaVuSans-75" x="217.742188"/>
     <use xlink:href="#DejaVuSans-72" x="281.121094"/>
     <use xlink:href="#DejaVuSans-61" x="322.234375"/>
    </g>
    <!-- (aria 'energizza' -->
    <g style="fill: #444444" transform="translate(638.568 120.669469) scale(0.09 -0.09)">
     <defs>
      <path id="DejaVuSans-28" d="M 1984 4856 
Q 1566 4138 1362 3434 
Q 1159 2731 1159 2009 
Q 1159 1288 1364 580 
Q 1569 -128 1984 -844 
L 1484 -844 
Q 1016 -109 783 600 
Q 550 1309 550 2009 
Q 550 2706 781 3412 
Q 1013 4119 1484 4856 
L 1984 4856 
z
" transform="scale(0.015625)"/>
      <path id="DejaVuSans-69" d="M 603 3500 
L 1178 3500 
L 1178 0 
L 603 0 
L 603 3500 
z
M 603 4863 
L 1178 4863 
L 1178 4134 
L 603 4134 
L 603 4863 
z
" transform="scale(0.015625)"/>
      <path id="DejaVuSans-20" transform="scale(0.015625)"/>
      <path id="DejaVuSans-27" d="M 1147 4666 
L 1147 2931 
L 616 2931 
L 616 4666 
L 1147 4666 
z
" transform="scale(0.015625)"/>
      <path id="DejaVuSans-6e" d="M 3513 2113 
L 3513 0 
L 2938 0 
L 2938 2094 
Q 2938 2591 2744 2837 
Q 2550 3084 2163 3084 
Q 1697 3084 1428 2787 
Q 1159 2491 1159 1978 
L 1159 0 
L 581 0 
L 581 3500 
L 1159 3500 
L 1159 2956 
Q 1366 3272 1645 3428 
Q 1925 3584 2291 3584 
Q 2894 3584 3203 3211 
Q 3513 2838 3513 2113 
z
" transform="scale(0.015625)"/>
      <path id="DejaVuSans-67" d="M 2906 1791 
Q 2906 2416 2648 2759 
Q 2391 3103 1925 3103 
Q 1463 3103 1205 2759 
Q 947 2416 947 1791 
Q 947 1169 1205 825 
Q 1463 481 1925 481 
Q 2391 481 2648 825 
Q 2906 1169 2906 1791 
z
M 3481 434 
Q 3481 -459 3084 -895 
Q 2688 -1331 1869 -1331 
Q 1566 -1331 1297 -1286 
Q 1028 -1241 775 -1147 
L 775 -588 
Q 1028 -725 1275 -790 
Q 1522 -856 1778 -856 
Q 2344 -856 2625 -561 
Q 2906 -266 2906 331 
L 2906 616 
Q 2728 306 2450 153 
Q 2172 0 1784 0 
Q 1141 0 747 490 
Q 353 981 353 1791 
Q 353 2603 747 3093 
Q 1141 3584 1784 3584 
Q 2172 3584 2450 3431 
Q 2728 3278 2906 2969 
L 2906 3500 
L 3481 3500 
L 3481 434 
z
" transform="scale(0.015625)"/>
      <path id="DejaVuSans-7a" d="M 353 3500 
L 3084 3500 
L 3084 2975 
L 922 459 
L 3084 459 
L 3084 0 
L 275 0 
L 275 525 
L 2438 3041 
L 353 3041 
L 353 3500 
z
" transform="scale(0.015625)"/>
     </defs>
     <use xlink:href="#DejaVuSans-28"/>
     <use xlink:href="#DejaVuSans-61" x="39.013672"/>
     <use xlink:href="#DejaVuSans-72" x="100.292969"/>
     <use xlink:href="#DejaVuSans-69" x="141.40625"/>
     <use xlink:href="#DejaVuSans-61" x="169.189453"/>
     <use xlink:href="#DejaVuSans-20" x="230.46875"/>
     <use xlink:href="#DejaVuSans-27" x="262.255859"/>
     <use xlink:href="#DejaVuSans-65" x="289.746094"/>
     <use xlink:href="#DejaVuSans-6e" x="351.269531"/>
     <use xlink:href="#DejaVuSans-65" x="414.648438"/>
     <use xlink:href="#DejaVuSans-72" x="476.171875"/>
     <use xlink:href="#DejaVuSans-67" x="515.535156"/>
     <use xlink:href="#DejaVuSans-69" x="579.011719"/>
     <use xlink:href="#DejaVuSans-7a" x="606.794922"/>
     <use xlink:href="#DejaVuSans-7a" x="659.285156"/>
     <use xlink:href="#DejaVuSans-61" x="711.775391"/>
     <use xlink:href="#DejaVuSans-27" x="773.054688"/>
    </g>
    <!--  strato limite sopra) -->
    <g style="fill: #444444" transform="translate(638.568 130.7475) scale(0.09 -0.09)">
     <defs>
      <path id="DejaVuSans-74" d="M 1172 4494 
L 1172 3500 
L 2356 3500 
L 2356 3053 
L 1172 3053 
L 1172 1153 
Q 1172 725 1289 603 
Q 1406 481 1766 481 
L 2356 481 
L 2356 0 
L 1766 0 
Q 1100 0 847 248 
Q 594 497 594 1153 
L 594 3053 
L 172 3053 
L 172 3500 
L 594 3500 
L 594 4494 
L 1172 4494 
z
" transform="scale(0.015625)"/>
      <path id="DejaVuSans-6f" d="M 1959 3097 
Q 1497 3097 1228 2736 
Q 959 2375 959 1747 
Q 959 1119 1226 758 
Q 1494 397 1959 397 
Q 2419 397 2687 759 
Q 2956 1122 2956 1747 
Q 2956 2369 2687 2733 
Q 2419 3097 1959 3097 
z
M 1959 3584 
Q 2709 3584 3137 3096 
Q 3566 2609 3566 1747 
Q 3566 888 3137 398 
Q 2709 -91 1959 -91 
Q 1206 -91 779 398 
Q 353 888 353 1747 
Q 353 2609 779 3096 
Q 1206 3584 1959 3584 
z
" transform="scale(0.015625)"/>
      <path id="DejaVuSans-6c" d="M 603 4863 
L 1178 4863 
L 1178 0 
L 603 0 
L 603 4863 
z
" transform="scale(0.015625)"/>
      <path id="DejaVuSans-6d" d="M 3328 2828 
Q 3544 3216 3844 3400 
Q 4144 3584 4550 3584 
Q 5097 3584 5394 3201 
Q 5691 2819 5691 2113 
L 5691 0 
L 5113 0 
L 5113 2094 
Q 5113 2597 4934 2840 
Q 4756 3084 4391 3084 
Q 3944 3084 3684 2787 
Q 3425 2491 3425 1978 
L 3425 0 
L 2847 0 
L 2847 2094 
Q 2847 2600 2669 2842 
Q 2491 3084 2119 3084 
Q 1678 3084 1418 2786 
Q 1159 2488 1159 1978 
L 1159 0 
L 581 0 
L 581 3500 
L 1159 3500 
L 1159 2956 
Q 1356 3278 1631 3431 
Q 1906 3584 2284 3584 
Q 2666 3584 2933 3390 
Q 3200 3197 3328 2828 
z
" transform="scale(0.015625)"/>
      <path id="DejaVuSans-70" d="M 1159 525 
L 1159 -1331 
L 581 -1331 
L 581 3500 
L 1159 3500 
L 1159 2969 
Q 1341 3281 1617 3432 
Q 1894 3584 2278 3584 
Q 2916 3584 3314 3078 
Q 3713 2572 3713 1747 
Q 3713 922 3314 415 
Q 2916 -91 2278 -91 
Q 1894 -91 1617 61 
Q 1341 213 1159 525 
z
M 3116 1747 
Q 3116 2381 2855 2742 
Q 2594 3103 2138 3103 
Q 1681 3103 1420 2742 
Q 1159 2381 1159 1747 
Q 1159 1113 1420 752 
Q 1681 391 2138 391 
Q 2594 391 2855 752 
Q 3116 1113 3116 1747 
z
" transform="scale(0.015625)"/>
      <path id="DejaVuSans-29" d="M 513 4856 
L 1013 4856 
Q 1481 4119 1714 3412 
Q 1947 2706 1947 2009 
Q 1947 1309 1714 600 
Q 1481 -109 1013 -844 
L 513 -844 
Q 928 -128 1133 580 
Q 1338 1288 1338 2009 
Q 1338 2731 1133 3434 
Q 928 4138 513 4856 
z
" transform="scale(0.015625)"/>
     </defs>
     <use xlink:href="#DejaVuSans-20"/>
     <use xlink:href="#DejaVuSans-73" x="31.787109"/>
     <use xlink:href="#DejaVuSans-74" x="83.886719"/>
     <use xlink:href="#DejaVuSans-72" x="123.095703"/>
     <use xlink:href="#DejaVuSans-61" x="164.208984"/>
     <use xlink:href="#DejaVuSans-74" x="225.488281"/>
     <use xlink:href="#DejaVuSans-6f" x="264.697266"/>
     <use xlink:href="#DejaVuSans-20" x="325.878906"/>
     <use xlink:href="#DejaVuSans-6c" x="357.666016"/>
     <use xlink:href="#DejaVuSans-69" x="385.449219"/>
     <use xlink:href="#DejaVuSans-6d" x="413.232422"/>
     <use xlink:href="#DejaVuSans-69" x="510.644531"/>
     <use xlink:href="#DejaVuSans-74" x="538.427734"/>
     <use xlink:href="#DejaVuSans-65" x="577.636719"/>
     <use xlink:href="#DejaVuSans-20" x="639.160156"/>
     <use xlink:href="#DejaVuSans-73" x="670.947266"/>
     <use xlink:href="#DejaVuSans-6f" x="723.046875"/>
     <use xlink:href="#DejaVuSans-70" x="784.228516"/>
     <use xlink:href="#DejaVuSans-72" x="847.705078"/>
     <use xlink:href="#DejaVuSans-61" x="888.818359"/>
     <use xlink:href="#DejaVuSans-29" x="950.097656"/>
    </g>
   </g>
   <g id="patch_4">
    <path d="M 488.355476 216.033738 
Q 496.749677 202.603017 503.958764 191.068478 
" style="fill: none; stroke: #fb8c00; stroke-width: 2; stroke-linecap: round"/>
    <path d="M 499.761172 193.633673 
L 503.958764 191.068478 
L 503.492364 195.965669 
" style="fill: none; stroke: #fb8c00; stroke-width: 2; stroke-linecap: round"/>
   </g>
   <g id="text_3">
    <!-- Slat estesa: fessura sul bordo d'attacco -->
    <g transform="translate(477.615313 56.0205) scale(0.11 -0.11)">
     <defs>
      <path id="DejaVuSans-Bold-53" d="M 3834 4519 
L 3834 3531 
Q 3450 3703 3084 3790 
Q 2719 3878 2394 3878 
Q 1963 3878 1756 3759 
Q 1550 3641 1550 3391 
Q 1550 3203 1689 3098 
Q 1828 2994 2194 2919 
L 2706 2816 
Q 3484 2659 3812 2340 
Q 4141 2022 4141 1434 
Q 4141 663 3683 286 
Q 3225 -91 2284 -91 
Q 1841 -91 1394 -6 
Q 947 78 500 244 
L 500 1259 
Q 947 1022 1364 901 
Q 1781 781 2169 781 
Q 2563 781 2772 912 
Q 2981 1044 2981 1288 
Q 2981 1506 2839 1625 
Q 2697 1744 2272 1838 
L 1806 1941 
Q 1106 2091 782 2419 
Q 459 2747 459 3303 
Q 459 4000 909 4375 
Q 1359 4750 2203 4750 
Q 2588 4750 2994 4692 
Q 3400 4634 3834 4519 
z
" transform="scale(0.015625)"/>
      <path id="DejaVuSans-Bold-3a" d="M 716 3500 
L 1844 3500 
L 1844 2291 
L 716 2291 
L 716 3500 
z
M 716 1209 
L 1844 1209 
L 1844 0 
L 716 0 
L 716 1209 
z
" transform="scale(0.015625)"/>
      <path id="DejaVuSans-Bold-66" d="M 2841 4863 
L 2841 4128 
L 2222 4128 
Q 1984 4128 1890 4042 
Q 1797 3956 1797 3744 
L 1797 3500 
L 2753 3500 
L 2753 2700 
L 1797 2700 
L 1797 0 
L 678 0 
L 678 2700 
L 122 2700 
L 122 3500 
L 678 3500 
L 678 3744 
Q 678 4316 997 4589 
Q 1316 4863 1984 4863 
L 2841 4863 
z
" transform="scale(0.015625)"/>
      <path id="DejaVuSans-Bold-75" d="M 500 1363 
L 500 3500 
L 1625 3500 
L 1625 3150 
Q 1625 2866 1622 2436 
Q 1619 2006 1619 1863 
Q 1619 1441 1641 1255 
Q 1663 1069 1716 984 
Q 1784 875 1895 815 
Q 2006 756 2150 756 
Q 2500 756 2700 1025 
Q 2900 1294 2900 1772 
L 2900 3500 
L 4019 3500 
L 4019 0 
L 2900 0 
L 2900 506 
Q 2647 200 2364 54 
Q 2081 -91 1741 -91 
Q 1134 -91 817 281 
Q 500 653 500 1363 
z
" transform="scale(0.015625)"/>
      <path id="DejaVuSans-Bold-62" d="M 2400 722 
Q 2759 722 2948 984 
Q 3138 1247 3138 1747 
Q 3138 2247 2948 2509 
Q 2759 2772 2400 2772 
Q 2041 2772 1848 2508 
Q 1656 2244 1656 1747 
Q 1656 1250 1848 986 
Q 2041 722 2400 722 
z
M 1656 2988 
Q 1888 3294 2169 3439 
Q 2450 3584 2816 3584 
Q 3463 3584 3878 3070 
Q 4294 2556 4294 1747 
Q 4294 938 3878 423 
Q 3463 -91 2816 -91 
Q 2450 -91 2169 54 
Q 1888 200 1656 506 
L 1656 0 
L 538 0 
L 538 4863 
L 1656 4863 
L 1656 2988 
z
" transform="scale(0.015625)"/>
      <path id="DejaVuSans-Bold-64" d="M 2919 2988 
L 2919 4863 
L 4044 4863 
L 4044 0 
L 2919 0 
L 2919 506 
Q 2688 197 2409 53 
Q 2131 -91 1766 -91 
Q 1119 -91 703 423 
Q 288 938 288 1747 
Q 288 2556 703 3070 
Q 1119 3584 1766 3584 
Q 2128 3584 2408 3439 
Q 2688 3294 2919 2988 
z
M 2181 722 
Q 2541 722 2730 984 
Q 2919 1247 2919 1747 
Q 2919 2247 2730 2509 
Q 2541 2772 2181 2772 
Q 1825 2772 1636 2509 
Q 1447 2247 1447 1747 
Q 1447 1247 1636 984 
Q 1825 722 2181 722 
z
" transform="scale(0.015625)"/>
      <path id="DejaVuSans-Bold-27" d="M 1350 4666 
L 1350 2931 
L 609 2931 
L 609 4666 
L 1350 4666 
z
" transform="scale(0.015625)"/>
      <path id="DejaVuSans-Bold-63" d="M 3366 3391 
L 3366 2478 
Q 3138 2634 2908 2709 
Q 2678 2784 2431 2784 
Q 1963 2784 1702 2511 
Q 1441 2238 1441 1747 
Q 1441 1256 1702 982 
Q 1963 709 2431 709 
Q 2694 709 2930 787 
Q 3166 866 3366 1019 
L 3366 103 
Q 3103 6 2833 -42 
Q 2563 -91 2291 -91 
Q 1344 -91 809 395 
Q 275 881 275 1747 
Q 275 2613 809 3098 
Q 1344 3584 2291 3584 
Q 2566 3584 2833 3536 
Q 3100 3488 3366 3391 
z
" transform="scale(0.015625)"/>
     </defs>
     <use xlink:href="#DejaVuSans-Bold-53"/>
     <use xlink:href="#DejaVuSans-Bold-6c" x="72.021484"/>
     <use xlink:href="#DejaVuSans-Bold-61" x="106.298828"/>
     <use xlink:href="#DejaVuSans-Bold-74" x="173.779297"/>
     <use xlink:href="#DejaVuSans-Bold-20" x="221.582031"/>
     <use xlink:href="#DejaVuSans-Bold-65" x="256.396484"/>
     <use xlink:href="#DejaVuSans-Bold-73" x="324.21875"/>
     <use xlink:href="#DejaVuSans-Bold-74" x="383.740234"/>
     <use xlink:href="#DejaVuSans-Bold-65" x="431.542969"/>
     <use xlink:href="#DejaVuSans-Bold-73" x="499.365234"/>
     <use xlink:href="#DejaVuSans-Bold-61" x="558.886719"/>
     <use xlink:href="#DejaVuSans-Bold-3a" x="626.367188"/>
     <use xlink:href="#DejaVuSans-Bold-20" x="666.357422"/>
     <use xlink:href="#DejaVuSans-Bold-66" x="701.171875"/>
     <use xlink:href="#DejaVuSans-Bold-65" x="744.677734"/>
     <use xlink:href="#DejaVuSans-Bold-73" x="812.5"/>
     <use xlink:href="#DejaVuSans-Bold-73" x="872.021484"/>
     <use xlink:href="#DejaVuSans-Bold-75" x="931.542969"/>
     <use xlink:href="#DejaVuSans-Bold-72" x="1002.734375"/>
     <use xlink:href="#DejaVuSans-Bold-61" x="1052.050781"/>
     <use xlink:href="#DejaVuSans-Bold-20" x="1119.53125"/>
     <use xlink:href="#DejaVuSans-Bold-73" x="1154.345703"/>
     <use xlink:href="#DejaVuSans-Bold-75" x="1213.867188"/>
     <use xlink:href="#DejaVuSans-Bold-6c" x="1285.058594"/>
     <use xlink:href="#DejaVuSans-Bold-20" x="1319.335938"/>
     <use xlink:href="#DejaVuSans-Bold-62" x="1354.150391"/>
     <use xlink:href="#DejaVuSans-Bold-6f" x="1425.732422"/>
     <use xlink:href="#DejaVuSans-Bold-72" x="1494.433594"/>
     <use xlink:href="#DejaVuSans-Bold-64" x="1543.75"/>
     <use xlink:href="#DejaVuSans-Bold-6f" x="1615.332031"/>
     <use xlink:href="#DejaVuSans-Bold-20" x="1684.033203"/>
     <use xlink:href="#DejaVuSans-Bold-64" x="1718.847656"/>
     <use xlink:href="#DejaVuSans-Bold-27" x="1790.429688"/>
     <use xlink:href="#DejaVuSans-Bold-61" x="1821.044922"/>
     <use xlink:href="#DejaVuSans-Bold-74" x="1888.525391"/>
     <use xlink:href="#DejaVuSans-Bold-74" x="1936.328125"/>
     <use xlink:href="#DejaVuSans-Bold-61" x="1984.130859"/>
     <use xlink:href="#DejaVuSans-Bold-63" x="2051.611328"/>
     <use xlink:href="#DejaVuSans-Bold-63" x="2110.888672"/>
     <use xlink:href="#DejaVuSans-Bold-6f" x="2170.166016"/>
    </g>
   </g>
  </g>
  <g id="text_4">
   <!-- Slat al bordo d'attacco — ritarda lo stallo da ~16° a ~22° -->
   <g transform="translate(197.010078 31.477969) scale(0.13 -0.13)">
    <defs>
     <path id="DejaVuSans-Bold-2014" d="M 344 2156 
L 6056 2156 
L 6056 1350 
L 344 1350 
L 344 2156 
z
" transform="scale(0.015625)"/>
     <path id="DejaVuSans-Bold-69" d="M 538 3500 
L 1656 3500 
L 1656 0 
L 538 0 
L 538 3500 
z
M 538 4863 
L 1656 4863 
L 1656 3950 
L 538 3950 
L 538 4863 
z
" transform="scale(0.015625)"/>
     <path id="DejaVuSans-Bold-7e" d="M 4684 2656 
L 4684 1894 
Q 4353 1644 4073 1536 
Q 3794 1428 3494 1428 
Q 3159 1428 2713 1609 
Q 2669 1628 2644 1638 
Q 2622 1647 2575 1666 
Q 2091 1856 1797 1856 
Q 1522 1856 1253 1736 
Q 984 1616 678 1356 
L 678 2119 
Q 1013 2369 1291 2476 
Q 1569 2584 1869 2584 
Q 2203 2584 2650 2403 
Q 2697 2384 2719 2375 
Q 2741 2366 2788 2347 
Q 3272 2156 3566 2156 
Q 3834 2156 4098 2273 
Q 4363 2391 4684 2656 
z
" transform="scale(0.015625)"/>
     <path id="DejaVuSans-Bold-31" d="M 750 831 
L 1813 831 
L 1813 3847 
L 722 3622 
L 722 4441 
L 1806 4666 
L 2950 4666 
L 2950 831 
L 4013 831 
L 4013 0 
L 750 0 
L 750 831 
z
" transform="scale(0.015625)"/>
     <path id="DejaVuSans-Bold-36" d="M 2316 2303 
Q 2000 2303 1842 2098 
Q 1684 1894 1684 1484 
Q 1684 1075 1842 870 
Q 2000 666 2316 666 
Q 2634 666 2792 870 
Q 2950 1075 2950 1484 
Q 2950 1894 2792 2098 
Q 2634 2303 2316 2303 
z
M 3803 4544 
L 3803 3681 
Q 3506 3822 3243 3889 
Q 2981 3956 2731 3956 
Q 2194 3956 1894 3657 
Q 1594 3359 1544 2772 
Q 1750 2925 1990 3001 
Q 2231 3078 2516 3078 
Q 3231 3078 3670 2659 
Q 4109 2241 4109 1563 
Q 4109 813 3618 361 
Q 3128 -91 2303 -91 
Q 1394 -91 895 523 
Q 397 1138 397 2266 
Q 397 3422 980 4083 
Q 1563 4744 2578 4744 
Q 2900 4744 3203 4694 
Q 3506 4644 3803 4544 
z
" transform="scale(0.015625)"/>
     <path id="DejaVuSans-Bold-b0" d="M 1600 4288 
Q 1375 4288 1219 4131 
Q 1063 3975 1063 3750 
Q 1063 3525 1217 3372 
Q 1372 3219 1600 3219 
Q 1825 3219 1981 3373 
Q 2138 3528 2138 3750 
Q 2138 3975 1980 4131 
Q 1822 4288 1600 4288 
z
M 1600 4794 
Q 1806 4794 1997 4714 
Q 2188 4634 2338 4488 
Q 2484 4338 2561 4150 
Q 2638 3963 2638 3750 
Q 2638 3541 2561 3352 
Q 2484 3163 2344 3022 
Q 2194 2872 2000 2792 
Q 1806 2713 1594 2713 
Q 1153 2713 854 3011 
Q 556 3309 556 3750 
Q 556 4191 857 4492 
Q 1159 4794 1600 4794 
z
" transform="scale(0.015625)"/>
     <path id="DejaVuSans-Bold-32" d="M 1844 884 
L 3897 884 
L 3897 0 
L 506 0 
L 506 884 
L 2209 2388 
Q 2438 2594 2547 2791 
Q 2656 2988 2656 3200 
Q 2656 3528 2436 3728 
Q 2216 3928 1850 3928 
Q 1569 3928 1234 3808 
Q 900 3688 519 3450 
L 519 4475 
Q 925 4609 1322 4679 
Q 1719 4750 2100 4750 
Q 2938 4750 3402 4381 
Q 3866 4013 3866 3353 
Q 3866 2972 3669 2642 
Q 3472 2313 2841 1759 
L 1844 884 
z
" transform="scale(0.015625)"/>
    </defs>
    <use xlink:href="#DejaVuSans-Bold-53"/>
    <use xlink:href="#DejaVuSans-Bold-6c" x="72.021484"/>
    <use xlink:href="#DejaVuSans-Bold-61" x="106.298828"/>
    <use xlink:href="#DejaVuSans-Bold-74" x="173.779297"/>
    <use xlink:href="#DejaVuSans-Bold-20" x="221.582031"/>
    <use xlink:href="#DejaVuSans-Bold-61" x="256.396484"/>
    <use xlink:href="#DejaVuSans-Bold-6c" x="323.876953"/>
    <use xlink:href="#DejaVuSans-Bold-20" x="358.154297"/>
    <use xlink:href="#DejaVuSans-Bold-62" x="392.96875"/>
    <use xlink:href="#DejaVuSans-Bold-6f" x="464.550781"/>
    <use xlink:href="#DejaVuSans-Bold-72" x="533.251953"/>
    <use xlink:href="#DejaVuSans-Bold-64" x="582.568359"/>
    <use xlink:href="#DejaVuSans-Bold-6f" x="654.150391"/>
    <use xlink:href="#DejaVuSans-Bold-20" x="722.851562"/>
    <use xlink:href="#DejaVuSans-Bold-64" x="757.666016"/>
    <use xlink:href="#DejaVuSans-Bold-27" x="829.248047"/>
    <use xlink:href="#DejaVuSans-Bold-61" x="859.863281"/>
    <use xlink:href="#DejaVuSans-Bold-74" x="927.34375"/>
    <use xlink:href="#DejaVuSans-Bold-74" x="975.146484"/>
    <use xlink:href="#DejaVuSans-Bold-61" x="1022.949219"/>
    <use xlink:href="#DejaVuSans-Bold-63" x="1090.429688"/>
    <use xlink:href="#DejaVuSans-Bold-63" x="1149.707031"/>
    <use xlink:href="#DejaVuSans-Bold-6f" x="1208.984375"/>
    <use xlink:href="#DejaVuSans-Bold-20" x="1277.685547"/>
    <use xlink:href="#DejaVuSans-Bold-2014" x="1312.5"/>
    <use xlink:href="#DejaVuSans-Bold-20" x="1412.5"/>
    <use xlink:href="#DejaVuSans-Bold-72" x="1447.314453"/>
    <use xlink:href="#DejaVuSans-Bold-69" x="1496.630859"/>
    <use xlink:href="#DejaVuSans-Bold-74" x="1530.908203"/>
    <use xlink:href="#DejaVuSans-Bold-61" x="1578.710938"/>
    <use xlink:href="#DejaVuSans-Bold-72" x="1646.191406"/>
    <use xlink:href="#DejaVuSans-Bold-64" x="1695.507812"/>
    <use xlink:href="#DejaVuSans-Bold-61" x="1767.089844"/>
    <use xlink:href="#DejaVuSans-Bold-20" x="1834.570312"/>
    <use xlink:href="#DejaVuSans-Bold-6c" x="1869.384766"/>
    <use xlink:href="#DejaVuSans-Bold-6f" x="1903.662109"/>
    <use xlink:href="#DejaVuSans-Bold-20" x="1972.363281"/>
    <use xlink:href="#DejaVuSans-Bold-73" x="2007.177734"/>
    <use xlink:href="#DejaVuSans-Bold-74" x="2066.699219"/>
    <use xlink:href="#DejaVuSans-Bold-61" x="2114.501953"/>
    <use xlink:href="#DejaVuSans-Bold-6c" x="2181.982422"/>
    <use xlink:href="#DejaVuSans-Bold-6c" x="2216.259766"/>
    <use xlink:href="#DejaVuSans-Bold-6f" x="2250.537109"/>
    <use xlink:href="#DejaVuSans-Bold-20" x="2319.238281"/>
    <use xlink:href="#DejaVuSans-Bold-64" x="2354.052734"/>
    <use xlink:href="#DejaVuSans-Bold-61" x="2425.634766"/>
    <use xlink:href="#DejaVuSans-Bold-20" x="2493.115234"/>
    <use xlink:href="#DejaVuSans-Bold-7e" x="2527.929688"/>
    <use xlink:href="#DejaVuSans-Bold-31" x="2611.71875"/>
    <use xlink:href="#DejaVuSans-Bold-36" x="2681.298828"/>
    <use xlink:href="#DejaVuSans-Bold-b0" x="2750.878906"/>
    <use xlink:href="#DejaVuSans-Bold-20" x="2800.878906"/>
    <use xlink:href="#DejaVuSans-Bold-61" x="2835.693359"/>
    <use xlink:href="#DejaVuSans-Bold-20" x="2903.173828"/>
    <use xlink:href="#DejaVuSans-Bold-7e" x="2937.988281"/>
    <use xlink:href="#DejaVuSans-Bold-32" x="3021.777344"/>
    <use xlink:href="#DejaVuSans-Bold-32" x="3091.357422"/>
    <use xlink:href="#DejaVuSans-Bold-b0" x="3160.9375"/>
   </g>
  </g>
 </g>
 <defs>
  <clipPath id="p1899aaefd1">
   <rect x="21.6" y="74.0205" width="378.18" height="207.999"/>
  </clipPath>
  <clipPath id="pef57522718">
   <rect x="411.66" y="74.0205" width="378.18" height="207.999"/>
  </clipPath>
 </defs>
</svg>
