<?xml version="1.0" encoding="utf-8" standalone="no"?>
<!DOCTYPE svg PUBLIC "-//W3C//DTD SVG 1.1//EN"
  "http://www.w3.org/Graphics/SVG/1.1/DTD/svg11.dtd">
<svg xmlns:xlink="http://www.w3.org/1999/xlink" width="955.44pt" height="330.345pt" viewBox="0 0 955.44 330.345" xmlns="http://www.w3.org/2000/svg" version="1.1">
 <metadata>
  <rdf:RDF xmlns:dc="http://purl.org/dc/elements/1.1/" xmlns:cc="http://creativecommons.org/ns#" xmlns:rdf="http://www.w3.org/1999/02/22-rdf-syntax-ns#">
   <cc:Work>
    <dc:type rdf:resource="http://purl.org/dc/dcmitype/StillImage"/>
    <dc:date>2026-04-27T21:32:04.803029</dc:date>
    <dc:format>image/svg+xml</dc:format>
    <dc:creator>
     <cc:Agent>
      <dc:title>Matplotlib v3.9.4, https://matplotlib.org/</dc:title>
     </cc:Agent>
    </dc:creator>
   </cc:Work>
  </rdf:RDF>
 </metadata>
 <defs>
  <style type="text/css">*{stroke-linejoin: round; stroke-linecap: butt}</style>
 </defs>
 <g id="figure_1">
  <g id="patch_1">
   <path d="M 0 330.345 
L 955.44 330.345 
L 955.44 0 
L 0 0 
z
" style="fill: #ffffff"/>
  </g>
  <g id="axes_1">
   <g id="patch_2">
    <path d="M 99.892174 198.157304 
L 393.487826 198.157304 
Q 395.44513 198.157304 395.44513 196.2 
L 395.44513 166.840435 
Q 395.44513 164.88313 393.487826 164.88313 
L 99.892174 164.88313 
Q 97.93487 164.88313 97.93487 166.840435 
L 97.93487 196.2 
Q 97.93487 198.157304 99.892174 198.157304 
z
" clip-path="url(#p20089c4b3d)" style="fill: #bbdefb; stroke: #1976d2; stroke-width: 2; stroke-linejoin: miter"/>
   </g>
   <g id="patch_3">
    <path d="M 99.892174 196.2 
L 50.959565 181.520217 
L 99.892174 166.840435 
z
" clip-path="url(#p20089c4b3d)" style="fill: #bbdefb; stroke: #bbdefb; stroke-linejoin: miter"/>
   </g>
   <g id="patch_4">
    <path d="M 393.487826 181.520217 
L 432.633913 142.37413 
L 432.633913 220.666304 
z
" clip-path="url(#p20089c4b3d)" style="fill: #bbdefb; stroke: #1976d2; stroke-width: 1.5; stroke-linejoin: miter"/>
   </g>
   <g id="line2d_1">
    <path d="M 99.892174 196.2 
L 50.959565 181.520217 
L 99.892174 166.840435 
" clip-path="url(#p20089c4b3d)" style="fill: none; stroke: #1976d2; stroke-width: 2; stroke-linecap: square"/>
   </g>
   <g id="patch_5">
    <path d="M 207.543913 188.41152 
Q 207.543913 210.877605 207.543913 230.548606 
" style="fill: none; stroke: #388e3c; stroke-width: 2.5; stroke-linecap: round"/>
    <path d="M 209.743913 226.148606 
L 207.543913 230.548606 
L 205.343913 226.148606 
" style="fill: none; stroke: #388e3c; stroke-width: 2.5; stroke-linecap: round"/>
   </g>
   <g id="text_1">
    <g id="patch_6">
     <path d="M 182.336882 255.105557 
L 232.750944 255.105557 
Q 235.750944 255.105557 235.750944 252.105557 
L 235.750944 231.22962 
Q 235.750944 228.22962 232.750944 228.22962 
L 182.336882 228.22962 
Q 179.336882 228.22962 179.336882 231.22962 
L 179.336882 252.105557 
Q 179.336882 255.105557 182.336882 255.105557 
z
" style="fill: #ffffff; opacity: 0.92; stroke: #808080; stroke-linejoin: miter"/>
    </g>
    <!-- CG -->
    <g style="fill: #1b5e20" transform="translate(199.770476 238.828057) scale(0.1 -0.1)">
     <defs>
      <path id="DejaVuSans-Bold-43" d="M 4288 256 
Q 3956 84 3597 -3 
Q 3238 -91 2847 -91 
Q 1681 -91 1000 561 
Q 319 1213 319 2328 
Q 319 3447 1000 4098 
Q 1681 4750 2847 4750 
Q 3238 4750 3597 4662 
Q 3956 4575 4288 4403 
L 4288 3438 
Q 3953 3666 3628 3772 
Q 3303 3878 2944 3878 
Q 2300 3878 1931 3465 
Q 1563 3053 1563 2328 
Q 1563 1606 1931 1193 
Q 2300 781 2944 781 
Q 3303 781 3628 887 
Q 3953 994 4288 1222 
L 4288 256 
z
" transform="scale(0.015625)"/>
      <path id="DejaVuSans-Bold-47" d="M 4781 347 
Q 4331 128 3847 18 
Q 3363 -91 2847 -91 
Q 1681 -91 1000 561 
Q 319 1213 319 2328 
Q 319 3456 1012 4103 
Q 1706 4750 2913 4750 
Q 3378 4750 3804 4662 
Q 4231 4575 4609 4403 
L 4609 3438 
Q 4219 3659 3833 3768 
Q 3447 3878 3059 3878 
Q 2341 3878 1952 3476 
Q 1563 3075 1563 2328 
Q 1563 1588 1938 1184 
Q 2313 781 3003 781 
Q 3191 781 3352 804 
Q 3513 828 3641 878 
L 3641 1784 
L 2906 1784 
L 2906 2591 
L 4781 2591 
L 4781 347 
z
" transform="scale(0.015625)"/>
     </defs>
     <use xlink:href="#DejaVuSans-Bold-43"/>
     <use xlink:href="#DejaVuSans-Bold-47" x="73.388672"/>
    </g>
    <!-- (peso W) -->
    <g style="fill: #1b5e20" transform="translate(182.336882 250.02587) scale(0.1 -0.1)">
     <defs>
      <path id="DejaVuSans-Bold-28" d="M 2413 -844 
L 1484 -844 
Q 1006 -72 778 623 
Q 550 1319 550 2003 
Q 550 2688 779 3389 
Q 1009 4091 1484 4856 
L 2413 4856 
Q 2013 4116 1813 3408 
Q 1613 2700 1613 2009 
Q 1613 1319 1811 609 
Q 2009 -100 2413 -844 
z
" transform="scale(0.015625)"/>
      <path id="DejaVuSans-Bold-70" d="M 1656 506 
L 1656 -1331 
L 538 -1331 
L 538 3500 
L 1656 3500 
L 1656 2988 
Q 1888 3294 2169 3439 
Q 2450 3584 2816 3584 
Q 3463 3584 3878 3070 
Q 4294 2556 4294 1747 
Q 4294 938 3878 423 
Q 3463 -91 2816 -91 
Q 2450 -91 2169 54 
Q 1888 200 1656 506 
z
M 2400 2772 
Q 2041 2772 1848 2508 
Q 1656 2244 1656 1747 
Q 1656 1250 1848 986 
Q 2041 722 2400 722 
Q 2759 722 2948 984 
Q 3138 1247 3138 1747 
Q 3138 2247 2948 2509 
Q 2759 2772 2400 2772 
z
" transform="scale(0.015625)"/>
      <path id="DejaVuSans-Bold-65" d="M 4031 1759 
L 4031 1441 
L 1416 1441 
Q 1456 1047 1700 850 
Q 1944 653 2381 653 
Q 2734 653 3104 758 
Q 3475 863 3866 1075 
L 3866 213 
Q 3469 63 3072 -14 
Q 2675 -91 2278 -91 
Q 1328 -91 801 392 
Q 275 875 275 1747 
Q 275 2603 792 3093 
Q 1309 3584 2216 3584 
Q 3041 3584 3536 3087 
Q 4031 2591 4031 1759 
z
M 2881 2131 
Q 2881 2450 2695 2645 
Q 2509 2841 2209 2841 
Q 1884 2841 1681 2658 
Q 1478 2475 1428 2131 
L 2881 2131 
z
" transform="scale(0.015625)"/>
      <path id="DejaVuSans-Bold-73" d="M 3272 3391 
L 3272 2541 
Q 2913 2691 2578 2766 
Q 2244 2841 1947 2841 
Q 1628 2841 1473 2761 
Q 1319 2681 1319 2516 
Q 1319 2381 1436 2309 
Q 1553 2238 1856 2203 
L 2053 2175 
Q 2913 2066 3209 1816 
Q 3506 1566 3506 1031 
Q 3506 472 3093 190 
Q 2681 -91 1863 -91 
Q 1516 -91 1145 -36 
Q 775 19 384 128 
L 384 978 
Q 719 816 1070 734 
Q 1422 653 1784 653 
Q 2113 653 2278 743 
Q 2444 834 2444 1013 
Q 2444 1163 2330 1236 
Q 2216 1309 1875 1350 
L 1678 1375 
Q 931 1469 631 1722 
Q 331 1975 331 2491 
Q 331 3047 712 3315 
Q 1094 3584 1881 3584 
Q 2191 3584 2531 3537 
Q 2872 3491 3272 3391 
z
" transform="scale(0.015625)"/>
      <path id="DejaVuSans-Bold-6f" d="M 2203 2784 
Q 1831 2784 1636 2517 
Q 1441 2250 1441 1747 
Q 1441 1244 1636 976 
Q 1831 709 2203 709 
Q 2569 709 2762 976 
Q 2956 1244 2956 1747 
Q 2956 2250 2762 2517 
Q 2569 2784 2203 2784 
z
M 2203 3584 
Q 3106 3584 3614 3096 
Q 4122 2609 4122 1747 
Q 4122 884 3614 396 
Q 3106 -91 2203 -91 
Q 1297 -91 786 396 
Q 275 884 275 1747 
Q 275 2609 786 3096 
Q 1297 3584 2203 3584 
z
" transform="scale(0.015625)"/>
      <path id="DejaVuSans-Bold-20" transform="scale(0.015625)"/>
      <path id="DejaVuSans-Bold-57" d="M 191 4666 
L 1344 4666 
L 2150 1275 
L 2950 4666 
L 4109 4666 
L 4909 1275 
L 5716 4666 
L 6859 4666 
L 5759 0 
L 4372 0 
L 3525 3547 
L 2688 0 
L 1300 0 
L 191 4666 
z
" transform="scale(0.015625)"/>
      <path id="DejaVuSans-Bold-29" d="M 513 -844 
Q 913 -100 1113 609 
Q 1313 1319 1313 2009 
Q 1313 2700 1113 3408 
Q 913 4116 513 4856 
L 1441 4856 
Q 1916 4091 2145 3389 
Q 2375 2688 2375 2003 
Q 2375 1319 2147 623 
Q 1919 -72 1441 -844 
L 513 -844 
z
" transform="scale(0.015625)"/>
     </defs>
     <use xlink:href="#DejaVuSans-Bold-28"/>
     <use xlink:href="#DejaVuSans-Bold-70" x="45.703125"/>
     <use xlink:href="#DejaVuSans-Bold-65" x="117.285156"/>
     <use xlink:href="#DejaVuSans-Bold-73" x="185.107422"/>
     <use xlink:href="#DejaVuSans-Bold-6f" x="244.628906"/>
     <use xlink:href="#DejaVuSans-Bold-20" x="313.330078"/>
     <use xlink:href="#DejaVuSans-Bold-57" x="348.144531"/>
     <use xlink:href="#DejaVuSans-Bold-29" x="458.447266"/>
    </g>
   </g>
   <g id="patch_7">
    <path d="M 246.69 174.628915 
Q 246.69 152.16283 246.69 132.491829 
" style="fill: none; stroke: #d32f2f; stroke-width: 2.5; stroke-linecap: round"/>
    <path d="M 244.49 136.891829 
L 246.69 132.491829 
L 248.89 136.891829 
" style="fill: none; stroke: #d32f2f; stroke-width: 2.5; stroke-linecap: round"/>
   </g>
   <g id="text_2">
    <g id="patch_8">
     <path d="M 212.105625 122.987514 
L 281.274375 122.987514 
Q 284.274375 122.987514 284.274375 119.987514 
L 284.274375 99.111576 
Q 284.274375 96.111576 281.274375 96.111576 
L 212.105625 96.111576 
Q 209.105625 96.111576 209.105625 99.111576 
L 209.105625 119.987514 
Q 209.105625 122.987514 212.105625 122.987514 
z
" style="fill: #ffffff; opacity: 0.92; stroke: #808080; stroke-linejoin: miter"/>
    </g>
    <!-- CP -->
    <g style="fill: #b71c1c" transform="translate(239.355625 106.710014) scale(0.1 -0.1)">
     <defs>
      <path id="DejaVuSans-Bold-50" d="M 588 4666 
L 2584 4666 
Q 3475 4666 3951 4270 
Q 4428 3875 4428 3144 
Q 4428 2409 3951 2014 
Q 3475 1619 2584 1619 
L 1791 1619 
L 1791 0 
L 588 0 
L 588 4666 
z
M 1791 3794 
L 1791 2491 
L 2456 2491 
Q 2806 2491 2997 2661 
Q 3188 2831 3188 3144 
Q 3188 3456 2997 3625 
Q 2806 3794 2456 3794 
L 1791 3794 
z
" transform="scale(0.015625)"/>
     </defs>
     <use xlink:href="#DejaVuSans-Bold-43"/>
     <use xlink:href="#DejaVuSans-Bold-50" x="73.388672"/>
    </g>
    <!-- (portanza L) -->
    <g style="fill: #b71c1c" transform="translate(212.105625 117.907826) scale(0.1 -0.1)">
     <defs>
      <path id="DejaVuSans-Bold-72" d="M 3138 2547 
Q 2991 2616 2845 2648 
Q 2700 2681 2553 2681 
Q 2122 2681 1889 2404 
Q 1656 2128 1656 1613 
L 1656 0 
L 538 0 
L 538 3500 
L 1656 3500 
L 1656 2925 
Q 1872 3269 2151 3426 
Q 2431 3584 2822 3584 
Q 2878 3584 2943 3579 
Q 3009 3575 3134 3559 
L 3138 2547 
z
" transform="scale(0.015625)"/>
      <path id="DejaVuSans-Bold-74" d="M 1759 4494 
L 1759 3500 
L 2913 3500 
L 2913 2700 
L 1759 2700 
L 1759 1216 
Q 1759 972 1856 886 
Q 1953 800 2241 800 
L 2816 800 
L 2816 0 
L 1856 0 
Q 1194 0 917 276 
Q 641 553 641 1216 
L 641 2700 
L 84 2700 
L 84 3500 
L 641 3500 
L 641 4494 
L 1759 4494 
z
" transform="scale(0.015625)"/>
      <path id="DejaVuSans-Bold-61" d="M 2106 1575 
Q 1756 1575 1579 1456 
Q 1403 1338 1403 1106 
Q 1403 894 1545 773 
Q 1688 653 1941 653 
Q 2256 653 2472 879 
Q 2688 1106 2688 1447 
L 2688 1575 
L 2106 1575 
z
M 3816 1997 
L 3816 0 
L 2688 0 
L 2688 519 
Q 2463 200 2181 54 
Q 1900 -91 1497 -91 
Q 953 -91 614 226 
Q 275 544 275 1050 
Q 275 1666 698 1953 
Q 1122 2241 2028 2241 
L 2688 2241 
L 2688 2328 
Q 2688 2594 2478 2717 
Q 2269 2841 1825 2841 
Q 1466 2841 1156 2769 
Q 847 2697 581 2553 
L 581 3406 
Q 941 3494 1303 3539 
Q 1666 3584 2028 3584 
Q 2975 3584 3395 3211 
Q 3816 2838 3816 1997 
z
" transform="scale(0.015625)"/>
      <path id="DejaVuSans-Bold-6e" d="M 4056 2131 
L 4056 0 
L 2931 0 
L 2931 347 
L 2931 1631 
Q 2931 2084 2911 2256 
Q 2891 2428 2841 2509 
Q 2775 2619 2662 2680 
Q 2550 2741 2406 2741 
Q 2056 2741 1856 2470 
Q 1656 2200 1656 1722 
L 1656 0 
L 538 0 
L 538 3500 
L 1656 3500 
L 1656 2988 
Q 1909 3294 2193 3439 
Q 2478 3584 2822 3584 
Q 3428 3584 3742 3212 
Q 4056 2841 4056 2131 
z
" transform="scale(0.015625)"/>
      <path id="DejaVuSans-Bold-7a" d="M 366 3500 
L 3419 3500 
L 3419 2719 
L 1575 800 
L 3419 800 
L 3419 0 
L 288 0 
L 288 781 
L 2131 2700 
L 366 2700 
L 366 3500 
z
" transform="scale(0.015625)"/>
      <path id="DejaVuSans-Bold-4c" d="M 588 4666 
L 1791 4666 
L 1791 909 
L 3903 909 
L 3903 0 
L 588 0 
L 588 4666 
z
" transform="scale(0.015625)"/>
     </defs>
     <use xlink:href="#DejaVuSans-Bold-28"/>
     <use xlink:href="#DejaVuSans-Bold-70" x="45.703125"/>
     <use xlink:href="#DejaVuSans-Bold-6f" x="117.285156"/>
     <use xlink:href="#DejaVuSans-Bold-72" x="185.986328"/>
     <use xlink:href="#DejaVuSans-Bold-74" x="235.302734"/>
     <use xlink:href="#DejaVuSans-Bold-61" x="283.105469"/>
     <use xlink:href="#DejaVuSans-Bold-6e" x="350.585938"/>
     <use xlink:href="#DejaVuSans-Bold-7a" x="421.777344"/>
     <use xlink:href="#DejaVuSans-Bold-61" x="479.980469"/>
     <use xlink:href="#DejaVuSans-Bold-20" x="547.460938"/>
     <use xlink:href="#DejaVuSans-Bold-4c" x="582.275391"/>
     <use xlink:href="#DejaVuSans-Bold-29" x="645.996094"/>
    </g>
   </g>
   <g id="text_3">
    <g id="patch_9">
     <path d="M 123.740156 298.636936 
L 369.639844 298.636936 
Q 372.339844 298.636936 372.339844 295.936936 
L 372.339844 276.788592 
Q 372.339844 274.088592 369.639844 274.088592 
L 123.740156 274.088592 
Q 121.040156 274.088592 121.040156 276.788592 
L 121.040156 295.936936 
Q 121.040156 298.636936 123.740156 298.636936 
z
" style="fill: #ffffff; opacity: 0.92; stroke: #808080; stroke-linejoin: miter"/>
    </g>
    <!-- Raffica → muso su → momento di richiamo → torna giù -->
    <g style="fill: #444444" transform="translate(123.740156 283.987186) scale(0.09 -0.09)">
     <defs>
      <path id="DejaVuSans-Oblique-52" d="M 1613 4147 
L 1294 2491 
L 2106 2491 
Q 2584 2491 2879 2755 
Q 3175 3019 3175 3444 
Q 3175 3784 2976 3965 
Q 2778 4147 2406 4147 
L 1613 4147 
z
M 2772 2241 
Q 2972 2194 3105 2009 
Q 3238 1825 3413 1275 
L 3809 0 
L 3144 0 
L 2778 1197 
Q 2638 1659 2453 1815 
Q 2269 1972 1888 1972 
L 1191 1972 
L 806 0 
L 172 0 
L 1081 4666 
L 2503 4666 
Q 3150 4666 3495 4373 
Q 3841 4081 3841 3531 
Q 3841 3044 3547 2687 
Q 3253 2331 2772 2241 
z
" transform="scale(0.015625)"/>
      <path id="DejaVuSans-Oblique-61" d="M 3438 1997 
L 3047 0 
L 2472 0 
L 2578 531 
Q 2325 219 2001 64 
Q 1678 -91 1281 -91 
Q 834 -91 548 182 
Q 263 456 263 884 
Q 263 1497 752 1853 
Q 1241 2209 2100 2209 
L 2900 2209 
L 2931 2363 
Q 2938 2388 2941 2417 
Q 2944 2447 2944 2509 
Q 2944 2788 2717 2942 
Q 2491 3097 2081 3097 
Q 1800 3097 1504 3025 
Q 1209 2953 897 2809 
L 997 3341 
Q 1322 3463 1633 3523 
Q 1944 3584 2234 3584 
Q 2853 3584 3176 3315 
Q 3500 3047 3500 2534 
Q 3500 2431 3484 2292 
Q 3469 2153 3438 1997 
z
M 2816 1759 
L 2241 1759 
Q 1534 1759 1195 1570 
Q 856 1381 856 984 
Q 856 709 1029 553 
Q 1203 397 1509 397 
Q 1978 397 2328 733 
Q 2678 1069 2791 1631 
L 2816 1759 
z
" transform="scale(0.015625)"/>
      <path id="DejaVuSans-Oblique-66" d="M 3059 4863 
L 2969 4384 
L 2419 4384 
Q 2106 4384 1964 4261 
Q 1822 4138 1753 3809 
L 1691 3500 
L 2638 3500 
L 2553 3053 
L 1606 3053 
L 1013 0 
L 434 0 
L 1031 3053 
L 481 3053 
L 563 3500 
L 1113 3500 
L 1159 3744 
Q 1278 4363 1576 4613 
Q 1875 4863 2516 4863 
L 3059 4863 
z
" transform="scale(0.015625)"/>
      <path id="DejaVuSans-Oblique-69" d="M 1172 4863 
L 1747 4863 
L 1606 4134 
L 1031 4134 
L 1172 4863 
z
M 909 3500 
L 1484 3500 
L 800 0 
L 225 0 
L 909 3500 
z
" transform="scale(0.015625)"/>
      <path id="DejaVuSans-Oblique-63" d="M 3431 3366 
L 3316 2797 
Q 3109 2947 2876 3022 
Q 2644 3097 2394 3097 
Q 2119 3097 1870 3000 
Q 1622 2903 1453 2725 
Q 1184 2453 1037 2087 
Q 891 1722 891 1331 
Q 891 859 1127 628 
Q 1363 397 1844 397 
Q 2081 397 2348 469 
Q 2616 541 2906 684 
L 2797 116 
Q 2547 13 2283 -39 
Q 2019 -91 1741 -91 
Q 1044 -91 669 257 
Q 294 606 294 1253 
Q 294 1797 489 2255 
Q 684 2713 1069 3078 
Q 1331 3328 1684 3456 
Q 2038 3584 2456 3584 
Q 2700 3584 2940 3529 
Q 3181 3475 3431 3366 
z
" transform="scale(0.015625)"/>
      <path id="DejaVuSans-Oblique-20" transform="scale(0.015625)"/>
      <path id="DejaVuSans-Oblique-2192" d="M 5050 2147 
L 5050 1866 
L 3822 638 
L 3447 1013 
L 4175 1741 
L 366 1741 
L 366 2272 
L 4175 2272 
L 3447 3000 
L 3822 3375 
L 5050 2147 
z
" transform="scale(0.015625)"/>
      <path id="DejaVuSans-Oblique-6d" d="M 5747 2113 
L 5338 0 
L 4763 0 
L 5166 2094 
Q 5191 2228 5203 2325 
Q 5216 2422 5216 2491 
Q 5216 2772 5059 2928 
Q 4903 3084 4622 3084 
Q 4203 3084 3875 2770 
Q 3547 2456 3450 1953 
L 3066 0 
L 2491 0 
L 2900 2094 
Q 2925 2209 2937 2307 
Q 2950 2406 2950 2484 
Q 2950 2769 2794 2926 
Q 2638 3084 2363 3084 
Q 1938 3084 1609 2770 
Q 1281 2456 1184 1953 
L 800 0 
L 225 0 
L 909 3500 
L 1484 3500 
L 1375 2956 
Q 1609 3263 1923 3423 
Q 2238 3584 2597 3584 
Q 2978 3584 3223 3384 
Q 3469 3184 3519 2828 
Q 3781 3197 4126 3390 
Q 4472 3584 4856 3584 
Q 5306 3584 5551 3325 
Q 5797 3066 5797 2591 
Q 5797 2488 5784 2364 
Q 5772 2241 5747 2113 
z
" transform="scale(0.015625)"/>
      <path id="DejaVuSans-Oblique-75" d="M 428 1388 
L 838 3500 
L 1416 3500 
L 1006 1409 
Q 975 1256 961 1147 
Q 947 1038 947 966 
Q 947 700 1109 554 
Q 1272 409 1569 409 
Q 2031 409 2368 721 
Q 2706 1034 2809 1563 
L 3194 3500 
L 3769 3500 
L 3091 0 
L 2516 0 
L 2631 550 
Q 2388 244 2052 76 
Q 1716 -91 1338 -91 
Q 878 -91 622 161 
Q 366 413 366 863 
Q 366 956 381 1097 
Q 397 1238 428 1388 
z
" transform="scale(0.015625)"/>
      <path id="DejaVuSans-Oblique-73" d="M 3200 3397 
L 3091 2853 
Q 2863 2978 2609 3040 
Q 2356 3103 2088 3103 
Q 1634 3103 1373 2948 
Q 1113 2794 1113 2528 
Q 1113 2219 1719 2053 
Q 1766 2041 1788 2034 
L 1972 1978 
Q 2547 1819 2739 1644 
Q 2931 1469 2931 1166 
Q 2931 609 2489 259 
Q 2047 -91 1331 -91 
Q 1053 -91 747 -37 
Q 441 16 72 128 
L 184 722 
Q 500 559 806 475 
Q 1113 391 1394 391 
Q 1816 391 2080 572 
Q 2344 753 2344 1031 
Q 2344 1331 1650 1516 
L 1591 1531 
L 1394 1581 
Q 956 1697 753 1886 
Q 550 2075 550 2369 
Q 550 2928 970 3256 
Q 1391 3584 2113 3584 
Q 2397 3584 2667 3537 
Q 2938 3491 3200 3397 
z
" transform="scale(0.015625)"/>
      <path id="DejaVuSans-Oblique-6f" d="M 1625 -91 
Q 1009 -91 651 289 
Q 294 669 294 1325 
Q 294 1706 417 2101 
Q 541 2497 738 2766 
Q 1047 3184 1428 3384 
Q 1809 3584 2291 3584 
Q 2888 3584 3255 3212 
Q 3622 2841 3622 2241 
Q 3622 1825 3500 1412 
Q 3378 1000 3181 728 
Q 2875 309 2494 109 
Q 2113 -91 1625 -91 
z
M 891 1344 
Q 891 869 1089 633 
Q 1288 397 1691 397 
Q 2269 397 2648 901 
Q 3028 1406 3028 2181 
Q 3028 2634 2825 2865 
Q 2622 3097 2228 3097 
Q 1903 3097 1650 2945 
Q 1397 2794 1197 2484 
Q 1050 2253 970 1956 
Q 891 1659 891 1344 
z
" transform="scale(0.015625)"/>
      <path id="DejaVuSans-Oblique-65" d="M 3078 2063 
Q 3088 2113 3092 2166 
Q 3097 2219 3097 2272 
Q 3097 2653 2873 2875 
Q 2650 3097 2266 3097 
Q 1838 3097 1509 2826 
Q 1181 2556 1013 2059 
L 3078 2063 
z
M 3578 1613 
L 903 1613 
Q 884 1494 878 1425 
Q 872 1356 872 1306 
Q 872 872 1139 634 
Q 1406 397 1894 397 
Q 2269 397 2603 481 
Q 2938 566 3225 728 
L 3116 159 
Q 2806 34 2476 -28 
Q 2147 -91 1806 -91 
Q 1078 -91 686 257 
Q 294 606 294 1247 
Q 294 1794 489 2264 
Q 684 2734 1063 3103 
Q 1306 3334 1642 3459 
Q 1978 3584 2356 3584 
Q 2950 3584 3301 3228 
Q 3653 2872 3653 2272 
Q 3653 2128 3634 1964 
Q 3616 1800 3578 1613 
z
" transform="scale(0.015625)"/>
      <path id="DejaVuSans-Oblique-6e" d="M 3566 2113 
L 3156 0 
L 2578 0 
L 2988 2091 
Q 3016 2238 3031 2350 
Q 3047 2463 3047 2528 
Q 3047 2791 2881 2937 
Q 2716 3084 2419 3084 
Q 1956 3084 1622 2776 
Q 1288 2469 1184 1941 
L 800 0 
L 225 0 
L 903 3500 
L 1478 3500 
L 1363 2950 
Q 1603 3253 1940 3418 
Q 2278 3584 2650 3584 
Q 3113 3584 3367 3334 
Q 3622 3084 3622 2631 
Q 3622 2519 3608 2391 
Q 3594 2263 3566 2113 
z
" transform="scale(0.015625)"/>
      <path id="DejaVuSans-Oblique-74" d="M 2706 3500 
L 2619 3053 
L 1472 3053 
L 1100 1153 
Q 1081 1047 1072 975 
Q 1063 903 1063 863 
Q 1063 663 1183 572 
Q 1303 481 1569 481 
L 2150 481 
L 2053 0 
L 1503 0 
Q 991 0 739 200 
Q 488 400 488 806 
Q 488 878 497 964 
Q 506 1050 525 1153 
L 897 3053 
L 409 3053 
L 500 3500 
L 978 3500 
L 1172 4494 
L 1747 4494 
L 1556 3500 
L 2706 3500 
z
" transform="scale(0.015625)"/>
      <path id="DejaVuSans-Oblique-64" d="M 2675 525 
Q 2444 222 2128 65 
Q 1813 -91 1428 -91 
Q 903 -91 598 267 
Q 294 625 294 1247 
Q 294 1766 478 2236 
Q 663 2706 1013 3078 
Q 1244 3325 1534 3454 
Q 1825 3584 2144 3584 
Q 2481 3584 2739 3421 
Q 2997 3259 3138 2956 
L 3513 4863 
L 4091 4863 
L 3144 0 
L 2566 0 
L 2675 525 
z
M 891 1350 
Q 891 897 1095 644 
Q 1300 391 1663 391 
Q 1931 391 2161 520 
Q 2391 650 2566 903 
Q 2750 1166 2856 1509 
Q 2963 1853 2963 2188 
Q 2963 2622 2758 2865 
Q 2553 3109 2194 3109 
Q 1922 3109 1687 2981 
Q 1453 2853 1288 2613 
Q 1106 2353 998 2009 
Q 891 1666 891 1350 
z
" transform="scale(0.015625)"/>
      <path id="DejaVuSans-Oblique-72" d="M 2853 2969 
Q 2766 3016 2653 3041 
Q 2541 3066 2413 3066 
Q 1953 3066 1609 2717 
Q 1266 2369 1153 1784 
L 800 0 
L 225 0 
L 909 3500 
L 1484 3500 
L 1375 2956 
Q 1603 3259 1920 3421 
Q 2238 3584 2597 3584 
Q 2691 3584 2781 3573 
Q 2872 3563 2963 3538 
L 2853 2969 
z
" transform="scale(0.015625)"/>
      <path id="DejaVuSans-Oblique-68" d="M 3566 2113 
L 3156 0 
L 2578 0 
L 2988 2091 
Q 3016 2238 3031 2350 
Q 3047 2463 3047 2528 
Q 3047 2791 2881 2937 
Q 2716 3084 2419 3084 
Q 1956 3084 1617 2771 
Q 1278 2459 1178 1941 
L 800 0 
L 225 0 
L 1172 4863 
L 1747 4863 
L 1375 2950 
Q 1594 3244 1934 3414 
Q 2275 3584 2650 3584 
Q 3113 3584 3367 3334 
Q 3622 3084 3622 2631 
Q 3622 2519 3608 2391 
Q 3594 2263 3566 2113 
z
" transform="scale(0.015625)"/>
      <path id="DejaVuSans-Oblique-67" d="M 3816 3500 
L 3219 434 
Q 3047 -456 2561 -893 
Q 2075 -1331 1253 -1331 
Q 950 -1331 690 -1286 
Q 431 -1241 206 -1147 
L 313 -588 
Q 525 -725 762 -790 
Q 1000 -856 1269 -856 
Q 1816 -856 2167 -557 
Q 2519 -259 2631 300 
L 2681 563 
Q 2441 288 2122 144 
Q 1803 0 1434 0 
Q 903 0 598 351 
Q 294 703 294 1319 
Q 294 1803 478 2267 
Q 663 2731 997 3091 
Q 1219 3328 1514 3456 
Q 1809 3584 2131 3584 
Q 2484 3584 2746 3420 
Q 3009 3256 3138 2956 
L 3238 3500 
L 3816 3500 
z
M 2950 2216 
Q 2950 2641 2750 2872 
Q 2550 3103 2181 3103 
Q 1953 3103 1747 3012 
Q 1541 2922 1394 2759 
Q 1156 2491 1023 2127 
Q 891 1763 891 1375 
Q 891 944 1092 712 
Q 1294 481 1672 481 
Q 2219 481 2584 976 
Q 2950 1472 2950 2216 
z
" transform="scale(0.015625)"/>
      <path id="DejaVuSans-Oblique-f9" d="M 428 1388 
L 838 3500 
L 1416 3500 
L 1006 1409 
Q 975 1256 961 1147 
Q 947 1038 947 966 
Q 947 700 1109 554 
Q 1272 409 1569 409 
Q 2031 409 2368 721 
Q 2706 1034 2809 1563 
L 3194 3500 
L 3769 3500 
L 3091 0 
L 2516 0 
L 2631 550 
Q 2388 244 2052 76 
Q 1716 -91 1338 -91 
Q 878 -91 622 161 
Q 366 413 366 863 
Q 366 956 381 1097 
Q 397 1238 428 1388 
z
M 2159 5119 
L 2812 3950 
L 2331 3950 
L 1544 5119 
L 2159 5119 
z
" transform="scale(0.015625)"/>
     </defs>
     <use xlink:href="#DejaVuSans-Oblique-52"/>
     <use xlink:href="#DejaVuSans-Oblique-61" x="69.482422"/>
     <use xlink:href="#DejaVuSans-Oblique-66" x="130.761719"/>
     <use xlink:href="#DejaVuSans-Oblique-66" x="165.966797"/>
     <use xlink:href="#DejaVuSans-Oblique-69" x="201.171875"/>
     <use xlink:href="#DejaVuSans-Oblique-63" x="228.955078"/>
     <use xlink:href="#DejaVuSans-Oblique-61" x="283.935547"/>
     <use xlink:href="#DejaVuSans-Oblique-20" x="345.214844"/>
     <use xlink:href="#DejaVuSans-Oblique-2192" x="377.001953"/>
     <use xlink:href="#DejaVuSans-Oblique-20" x="460.791016"/>
     <use xlink:href="#DejaVuSans-Oblique-6d" x="492.578125"/>
     <use xlink:href="#DejaVuSans-Oblique-75" x="589.990234"/>
     <use xlink:href="#DejaVuSans-Oblique-73" x="653.369141"/>
     <use xlink:href="#DejaVuSans-Oblique-6f" x="705.46875"/>
     <use xlink:href="#DejaVuSans-Oblique-20" x="766.650391"/>
     <use xlink:href="#DejaVuSans-Oblique-73" x="798.4375"/>
     <use xlink:href="#DejaVuSans-Oblique-75" x="850.537109"/>
     <use xlink:href="#DejaVuSans-Oblique-20" x="913.916016"/>
     <use xlink:href="#DejaVuSans-Oblique-2192" x="945.703125"/>
     <use xlink:href="#DejaVuSans-Oblique-20" x="1029.492188"/>
     <use xlink:href="#DejaVuSans-Oblique-6d" x="1061.279297"/>
     <use xlink:href="#DejaVuSans-Oblique-6f" x="1158.691406"/>
     <use xlink:href="#DejaVuSans-Oblique-6d" x="1219.873047"/>
     <use xlink:href="#DejaVuSans-Oblique-65" x="1317.285156"/>
     <use xlink:href="#DejaVuSans-Oblique-6e" x="1378.808594"/>
     <use xlink:href="#DejaVuSans-Oblique-74" x="1442.1875"/>
     <use xlink:href="#DejaVuSans-Oblique-6f" x="1481.396484"/>
     <use xlink:href="#DejaVuSans-Oblique-20" x="1542.578125"/>
     <use xlink:href="#DejaVuSans-Oblique-64" x="1574.365234"/>
     <use xlink:href="#DejaVuSans-Oblique-69" x="1637.841797"/>
     <use xlink:href="#DejaVuSans-Oblique-20" x="1665.625"/>
     <use xlink:href="#DejaVuSans-Oblique-72" x="1697.412109"/>
     <use xlink:href="#DejaVuSans-Oblique-69" x="1738.525391"/>
     <use xlink:href="#DejaVuSans-Oblique-63" x="1766.308594"/>
     <use xlink:href="#DejaVuSans-Oblique-68" x="1821.289062"/>
     <use xlink:href="#DejaVuSans-Oblique-69" x="1884.667969"/>
     <use xlink:href="#DejaVuSans-Oblique-61" x="1912.451172"/>
     <use xlink:href="#DejaVuSans-Oblique-6d" x="1973.730469"/>
     <use xlink:href="#DejaVuSans-Oblique-6f" x="2071.142578"/>
     <use xlink:href="#DejaVuSans-Oblique-20" x="2132.324219"/>
     <use xlink:href="#DejaVuSans-Oblique-2192" x="2164.111328"/>
     <use xlink:href="#DejaVuSans-Oblique-20" x="2247.900391"/>
     <use xlink:href="#DejaVuSans-Oblique-74" x="2279.6875"/>
     <use xlink:href="#DejaVuSans-Oblique-6f" x="2318.896484"/>
     <use xlink:href="#DejaVuSans-Oblique-72" x="2380.078125"/>
     <use xlink:href="#DejaVuSans-Oblique-6e" x="2421.191406"/>
     <use xlink:href="#DejaVuSans-Oblique-61" x="2484.570312"/>
     <use xlink:href="#DejaVuSans-Oblique-20" x="2545.849609"/>
     <use xlink:href="#DejaVuSans-Oblique-67" x="2577.636719"/>
     <use xlink:href="#DejaVuSans-Oblique-69" x="2641.113281"/>
     <use xlink:href="#DejaVuSans-Oblique-f9" x="2668.896484"/>
    </g>
    <!-- ✓ aereo torna da solo all'equilibrio -->
    <g style="fill: #444444" transform="translate(168.743672 294.065217) scale(0.09 -0.09)">
     <defs>
      <path id="DejaVuSans-Oblique-2713" d="M 1416 2044 
Q 1538 2044 1600 1844 
Q 1725 1469 1778 1469 
Q 1819 1469 1863 1531 
Q 2741 2938 3488 3806 
Q 3681 4031 4103 4031 
Q 4203 4031 4237 4012 
Q 4272 3994 4272 3966 
Q 4272 3922 4169 3794 
Q 2963 2344 1931 731 
Q 1859 619 1638 619 
Q 1413 619 1372 638 
Q 1266 684 1122 1116 
Q 959 1594 959 1716 
Q 959 1847 1178 1969 
Q 1313 2044 1416 2044 
z
" transform="scale(0.015625)"/>
      <path id="DejaVuSans-Oblique-6c" d="M 1172 4863 
L 1747 4863 
L 800 0 
L 225 0 
L 1172 4863 
z
" transform="scale(0.015625)"/>
      <path id="DejaVuSans-Oblique-27" d="M 1147 4666 
L 1147 2931 
L 616 2931 
L 616 4666 
L 1147 4666 
z
" transform="scale(0.015625)"/>
      <path id="DejaVuSans-Oblique-71" d="M 2669 525 
Q 2438 222 2123 65 
Q 1809 -91 1428 -91 
Q 897 -91 595 267 
Q 294 625 294 1253 
Q 294 1759 480 2231 
Q 666 2703 1013 3078 
Q 1238 3322 1530 3453 
Q 1822 3584 2144 3584 
Q 2531 3584 2781 3431 
Q 3031 3278 3144 2969 
L 3244 3494 
L 3822 3494 
L 2888 -1319 
L 2309 -1319 
L 2669 525 
z
M 891 1338 
Q 891 875 1084 633 
Q 1278 391 1644 391 
Q 2188 391 2572 911 
Q 2956 1431 2956 2175 
Q 2956 2625 2757 2864 
Q 2559 3103 2188 3103 
Q 1916 3103 1684 2976 
Q 1453 2850 1281 2606 
Q 1100 2350 995 2006 
Q 891 1663 891 1338 
z
" transform="scale(0.015625)"/>
      <path id="DejaVuSans-Oblique-62" d="M 3169 2138 
Q 3169 2591 2961 2847 
Q 2753 3103 2388 3103 
Q 2122 3103 1889 2973 
Q 1656 2844 1484 2597 
Q 1303 2338 1198 1995 
Q 1094 1653 1094 1313 
Q 1094 881 1298 636 
Q 1503 391 1863 391 
Q 2134 391 2365 517 
Q 2597 644 2772 891 
Q 2950 1147 3059 1487 
Q 3169 1828 3169 2138 
z
M 1381 2969 
Q 1594 3256 1914 3420 
Q 2234 3584 2584 3584 
Q 3122 3584 3439 3221 
Q 3756 2859 3756 2241 
Q 3756 1734 3570 1259 
Q 3384 784 3041 416 
Q 2816 172 2522 40 
Q 2228 -91 1906 -91 
Q 1566 -91 1316 65 
Q 1066 222 909 531 
L 806 0 
L 231 0 
L 1178 4863 
L 1753 4863 
L 1381 2969 
z
" transform="scale(0.015625)"/>
     </defs>
     <use xlink:href="#DejaVuSans-Oblique-2713"/>
     <use xlink:href="#DejaVuSans-Oblique-20" x="83.789062"/>
     <use xlink:href="#DejaVuSans-Oblique-61" x="115.576172"/>
     <use xlink:href="#DejaVuSans-Oblique-65" x="176.855469"/>
     <use xlink:href="#DejaVuSans-Oblique-72" x="238.378906"/>
     <use xlink:href="#DejaVuSans-Oblique-65" x="279.492188"/>
     <use xlink:href="#DejaVuSans-Oblique-6f" x="341.015625"/>
     <use xlink:href="#DejaVuSans-Oblique-20" x="402.197266"/>
     <use xlink:href="#DejaVuSans-Oblique-74" x="433.984375"/>
     <use xlink:href="#DejaVuSans-Oblique-6f" x="473.193359"/>
     <use xlink:href="#DejaVuSans-Oblique-72" x="534.375"/>
     <use xlink:href="#DejaVuSans-Oblique-6e" x="575.488281"/>
     <use xlink:href="#DejaVuSans-Oblique-61" x="638.867188"/>
     <use xlink:href="#DejaVuSans-Oblique-20" x="700.146484"/>
     <use xlink:href="#DejaVuSans-Oblique-64" x="731.933594"/>
     <use xlink:href="#DejaVuSans-Oblique-61" x="795.410156"/>
     <use xlink:href="#DejaVuSans-Oblique-20" x="856.689453"/>
     <use xlink:href="#DejaVuSans-Oblique-73" x="888.476562"/>
     <use xlink:href="#DejaVuSans-Oblique-6f" x="940.576172"/>
     <use xlink:href="#DejaVuSans-Oblique-6c" x="1001.757812"/>
     <use xlink:href="#DejaVuSans-Oblique-6f" x="1029.541016"/>
     <use xlink:href="#DejaVuSans-Oblique-20" x="1090.722656"/>
     <use xlink:href="#DejaVuSans-Oblique-61" x="1122.509766"/>
     <use xlink:href="#DejaVuSans-Oblique-6c" x="1183.789062"/>
     <use xlink:href="#DejaVuSans-Oblique-6c" x="1211.572266"/>
     <use xlink:href="#DejaVuSans-Oblique-27" x="1239.355469"/>
     <use xlink:href="#DejaVuSans-Oblique-65" x="1266.845703"/>
     <use xlink:href="#DejaVuSans-Oblique-71" x="1328.369141"/>
     <use xlink:href="#DejaVuSans-Oblique-75" x="1391.845703"/>
     <use xlink:href="#DejaVuSans-Oblique-69" x="1455.224609"/>
     <use xlink:href="#DejaVuSans-Oblique-6c" x="1483.007812"/>
     <use xlink:href="#DejaVuSans-Oblique-69" x="1510.791016"/>
     <use xlink:href="#DejaVuSans-Oblique-62" x="1538.574219"/>
     <use xlink:href="#DejaVuSans-Oblique-72" x="1602.050781"/>
     <use xlink:href="#DejaVuSans-Oblique-69" x="1643.164062"/>
     <use xlink:href="#DejaVuSans-Oblique-6f" x="1670.947266"/>
    </g>
   </g>
   <g id="text_4">
    <!-- STABILE: CG davanti al CP -->
    <g style="fill: #43a047" transform="translate(158.880937 65.655) scale(0.12 -0.12)">
     <defs>
      <path id="DejaVuSans-Bold-53" d="M 3834 4519 
L 3834 3531 
Q 3450 3703 3084 3790 
Q 2719 3878 2394 3878 
Q 1963 3878 1756 3759 
Q 1550 3641 1550 3391 
Q 1550 3203 1689 3098 
Q 1828 2994 2194 2919 
L 2706 2816 
Q 3484 2659 3812 2340 
Q 4141 2022 4141 1434 
Q 4141 663 3683 286 
Q 3225 -91 2284 -91 
Q 1841 -91 1394 -6 
Q 947 78 500 244 
L 500 1259 
Q 947 1022 1364 901 
Q 1781 781 2169 781 
Q 2563 781 2772 912 
Q 2981 1044 2981 1288 
Q 2981 1506 2839 1625 
Q 2697 1744 2272 1838 
L 1806 1941 
Q 1106 2091 782 2419 
Q 459 2747 459 3303 
Q 459 4000 909 4375 
Q 1359 4750 2203 4750 
Q 2588 4750 2994 4692 
Q 3400 4634 3834 4519 
z
" transform="scale(0.015625)"/>
      <path id="DejaVuSans-Bold-54" d="M 31 4666 
L 4331 4666 
L 4331 3756 
L 2784 3756 
L 2784 0 
L 1581 0 
L 1581 3756 
L 31 3756 
L 31 4666 
z
" transform="scale(0.015625)"/>
      <path id="DejaVuSans-Bold-41" d="M 3419 850 
L 1538 850 
L 1241 0 
L 31 0 
L 1759 4666 
L 3194 4666 
L 4922 0 
L 3713 0 
L 3419 850 
z
M 1838 1716 
L 3116 1716 
L 2478 3572 
L 1838 1716 
z
" transform="scale(0.015625)"/>
      <path id="DejaVuSans-Bold-42" d="M 2456 2859 
Q 2741 2859 2887 2984 
Q 3034 3109 3034 3353 
Q 3034 3594 2887 3720 
Q 2741 3847 2456 3847 
L 1791 3847 
L 1791 2859 
L 2456 2859 
z
M 2497 819 
Q 2859 819 3042 972 
Q 3225 1125 3225 1434 
Q 3225 1738 3044 1889 
Q 2863 2041 2497 2041 
L 1791 2041 
L 1791 819 
L 2497 819 
z
M 3616 2497 
Q 4003 2384 4215 2081 
Q 4428 1778 4428 1338 
Q 4428 663 3972 331 
Q 3516 0 2584 0 
L 588 0 
L 588 4666 
L 2394 4666 
Q 3366 4666 3802 4372 
Q 4238 4078 4238 3431 
Q 4238 3091 4078 2852 
Q 3919 2613 3616 2497 
z
" transform="scale(0.015625)"/>
      <path id="DejaVuSans-Bold-49" d="M 588 4666 
L 1791 4666 
L 1791 0 
L 588 0 
L 588 4666 
z
" transform="scale(0.015625)"/>
      <path id="DejaVuSans-Bold-45" d="M 588 4666 
L 3834 4666 
L 3834 3756 
L 1791 3756 
L 1791 2888 
L 3713 2888 
L 3713 1978 
L 1791 1978 
L 1791 909 
L 3903 909 
L 3903 0 
L 588 0 
L 588 4666 
z
" transform="scale(0.015625)"/>
      <path id="DejaVuSans-Bold-3a" d="M 716 3500 
L 1844 3500 
L 1844 2291 
L 716 2291 
L 716 3500 
z
M 716 1209 
L 1844 1209 
L 1844 0 
L 716 0 
L 716 1209 
z
" transform="scale(0.015625)"/>
      <path id="DejaVuSans-Bold-64" d="M 2919 2988 
L 2919 4863 
L 4044 4863 
L 4044 0 
L 2919 0 
L 2919 506 
Q 2688 197 2409 53 
Q 2131 -91 1766 -91 
Q 1119 -91 703 423 
Q 288 938 288 1747 
Q 288 2556 703 3070 
Q 1119 3584 1766 3584 
Q 2128 3584 2408 3439 
Q 2688 3294 2919 2988 
z
M 2181 722 
Q 2541 722 2730 984 
Q 2919 1247 2919 1747 
Q 2919 2247 2730 2509 
Q 2541 2772 2181 2772 
Q 1825 2772 1636 2509 
Q 1447 2247 1447 1747 
Q 1447 1247 1636 984 
Q 1825 722 2181 722 
z
" transform="scale(0.015625)"/>
      <path id="DejaVuSans-Bold-76" d="M 97 3500 
L 1216 3500 
L 2088 1081 
L 2956 3500 
L 4078 3500 
L 2700 0 
L 1472 0 
L 97 3500 
z
" transform="scale(0.015625)"/>
      <path id="DejaVuSans-Bold-69" d="M 538 3500 
L 1656 3500 
L 1656 0 
L 538 0 
L 538 3500 
z
M 538 4863 
L 1656 4863 
L 1656 3950 
L 538 3950 
L 538 4863 
z
" transform="scale(0.015625)"/>
      <path id="DejaVuSans-Bold-6c" d="M 538 4863 
L 1656 4863 
L 1656 0 
L 538 0 
L 538 4863 
z
" transform="scale(0.015625)"/>
     </defs>
     <use xlink:href="#DejaVuSans-Bold-53"/>
     <use xlink:href="#DejaVuSans-Bold-54" x="72.021484"/>
     <use xlink:href="#DejaVuSans-Bold-41" x="132.484375"/>
     <use xlink:href="#DejaVuSans-Bold-42" x="209.876953"/>
     <use xlink:href="#DejaVuSans-Bold-49" x="286.097656"/>
     <use xlink:href="#DejaVuSans-Bold-4c" x="323.304688"/>
     <use xlink:href="#DejaVuSans-Bold-45" x="387.025391"/>
     <use xlink:href="#DejaVuSans-Bold-3a" x="455.335938"/>
     <use xlink:href="#DejaVuSans-Bold-20" x="495.326172"/>
     <use xlink:href="#DejaVuSans-Bold-43" x="530.140625"/>
     <use xlink:href="#DejaVuSans-Bold-47" x="603.529297"/>
     <use xlink:href="#DejaVuSans-Bold-20" x="685.609375"/>
     <use xlink:href="#DejaVuSans-Bold-64" x="720.423828"/>
     <use xlink:href="#DejaVuSans-Bold-61" x="792.005859"/>
     <use xlink:href="#DejaVuSans-Bold-76" x="859.486328"/>
     <use xlink:href="#DejaVuSans-Bold-61" x="924.671875"/>
     <use xlink:href="#DejaVuSans-Bold-6e" x="992.152344"/>
     <use xlink:href="#DejaVuSans-Bold-74" x="1063.34375"/>
     <use xlink:href="#DejaVuSans-Bold-69" x="1111.146484"/>
     <use xlink:href="#DejaVuSans-Bold-20" x="1145.423828"/>
     <use xlink:href="#DejaVuSans-Bold-61" x="1180.238281"/>
     <use xlink:href="#DejaVuSans-Bold-6c" x="1247.71875"/>
     <use xlink:href="#DejaVuSans-Bold-20" x="1281.996094"/>
     <use xlink:href="#DejaVuSans-Bold-43" x="1316.810547"/>
     <use xlink:href="#DejaVuSans-Bold-50" x="1390.199219"/>
    </g>
   </g>
   <g id="PathCollection_1">
    <defs>
     <path id="mb579df159f" d="M 0 7.071068 
C 1.875269 7.071068 3.673985 6.326016 5 5 
C 6.326016 3.673985 7.071068 1.875269 7.071068 0 
C 7.071068 -1.875269 6.326016 -3.673985 5 -5 
C 3.673985 -6.326016 1.875269 -7.071068 0 -7.071068 
C -1.875269 -7.071068 -3.673985 -6.326016 -5 -5 
C -6.326016 -3.673985 -7.071068 -1.875269 -7.071068 0 
C -7.071068 1.875269 -6.326016 3.673985 -5 5 
C -3.673985 6.326016 -1.875269 7.071068 0 7.071068 
z
" style="stroke: #000000; stroke-width: 1.5"/>
    </defs>
    <g clip-path="url(#p20089c4b3d)">
     <use xlink:href="#mb579df159f" x="207.543913" y="181.520217" style="fill: #388e3c; stroke: #000000; stroke-width: 1.5"/>
    </g>
   </g>
   <g id="PathCollection_2">
    <defs>
     <path id="m05ee2e5e01" d="M 0 -7.071068 
L -7.071068 7.071068 
L 7.071068 7.071068 
z
" style="stroke: #000000; stroke-width: 1.5"/>
    </defs>
    <g clip-path="url(#p20089c4b3d)">
     <use xlink:href="#m05ee2e5e01" x="246.69" y="181.520217" style="fill: #d32f2f; stroke: #000000; stroke-width: 1.5"/>
    </g>
   </g>
  </g>
  <g id="axes_2">
   <g id="patch_10">
    <path d="M 561.952174 198.157304 
L 855.547826 198.157304 
Q 857.50513 198.157304 857.50513 196.2 
L 857.50513 166.840435 
Q 857.50513 164.88313 855.547826 164.88313 
L 561.952174 164.88313 
Q 559.99487 164.88313 559.99487 166.840435 
L 559.99487 196.2 
Q 559.99487 198.157304 561.952174 198.157304 
z
" clip-path="url(#p2932488fd1)" style="fill: #bbdefb; stroke: #1976d2; stroke-width: 2; stroke-linejoin: miter"/>
   </g>
   <g id="patch_11">
    <path d="M 561.952174 196.2 
L 513.019565 181.520217 
L 561.952174 166.840435 
z
" clip-path="url(#p2932488fd1)" style="fill: #bbdefb; stroke: #bbdefb; stroke-linejoin: miter"/>
   </g>
   <g id="patch_12">
    <path d="M 855.547826 181.520217 
L 894.693913 142.37413 
L 894.693913 220.666304 
z
" clip-path="url(#p2932488fd1)" style="fill: #bbdefb; stroke: #1976d2; stroke-width: 1.5; stroke-linejoin: miter"/>
   </g>
   <g id="line2d_2">
    <path d="M 561.952174 196.2 
L 513.019565 181.520217 
L 561.952174 166.840435 
" clip-path="url(#p2932488fd1)" style="fill: none; stroke: #1976d2; stroke-width: 2; stroke-linecap: square"/>
   </g>
   <g id="patch_13">
    <path d="M 747.896087 188.41152 
Q 747.896087 210.877605 747.896087 230.548606 
" style="fill: none; stroke: #388e3c; stroke-width: 2.5; stroke-linecap: round"/>
    <path d="M 750.096087 226.148606 
L 747.896087 230.548606 
L 745.696087 226.148606 
" style="fill: none; stroke: #388e3c; stroke-width: 2.5; stroke-linecap: round"/>
   </g>
   <g id="text_5">
    <g id="patch_14">
     <path d="M 722.689056 255.105557 
L 773.103118 255.105557 
Q 776.103118 255.105557 776.103118 252.105557 
L 776.103118 231.22962 
Q 776.103118 228.22962 773.103118 228.22962 
L 722.689056 228.22962 
Q 719.689056 228.22962 719.689056 231.22962 
L 719.689056 252.105557 
Q 719.689056 255.105557 722.689056 255.105557 
z
" style="fill: #ffffff; opacity: 0.92; stroke: #808080; stroke-linejoin: miter"/>
    </g>
    <!-- CG -->
    <g style="fill: #1b5e20" transform="translate(740.122649 238.828057) scale(0.1 -0.1)">
     <use xlink:href="#DejaVuSans-Bold-43"/>
     <use xlink:href="#DejaVuSans-Bold-47" x="73.388672"/>
    </g>
    <!-- (peso W) -->
    <g style="fill: #1b5e20" transform="translate(722.689056 250.02587) scale(0.1 -0.1)">
     <use xlink:href="#DejaVuSans-Bold-28"/>
     <use xlink:href="#DejaVuSans-Bold-70" x="45.703125"/>
     <use xlink:href="#DejaVuSans-Bold-65" x="117.285156"/>
     <use xlink:href="#DejaVuSans-Bold-73" x="185.107422"/>
     <use xlink:href="#DejaVuSans-Bold-6f" x="244.628906"/>
     <use xlink:href="#DejaVuSans-Bold-20" x="313.330078"/>
     <use xlink:href="#DejaVuSans-Bold-57" x="348.144531"/>
     <use xlink:href="#DejaVuSans-Bold-29" x="458.447266"/>
    </g>
   </g>
   <g id="patch_15">
    <path d="M 708.75 174.628915 
Q 708.75 152.16283 708.75 132.491829 
" style="fill: none; stroke: #d32f2f; stroke-width: 2.5; stroke-linecap: round"/>
    <path d="M 706.55 136.891829 
L 708.75 132.491829 
L 710.95 136.891829 
" style="fill: none; stroke: #d32f2f; stroke-width: 2.5; stroke-linecap: round"/>
   </g>
   <g id="text_6">
    <g id="patch_16">
     <path d="M 674.165625 122.987514 
L 743.334375 122.987514 
Q 746.334375 122.987514 746.334375 119.987514 
L 746.334375 99.111576 
Q 746.334375 96.111576 743.334375 96.111576 
L 674.165625 96.111576 
Q 671.165625 96.111576 671.165625 99.111576 
L 671.165625 119.987514 
Q 671.165625 122.987514 674.165625 122.987514 
z
" style="fill: #ffffff; opacity: 0.92; stroke: #808080; stroke-linejoin: miter"/>
    </g>
    <!-- CP -->
    <g style="fill: #b71c1c" transform="translate(701.415625 106.710014) scale(0.1 -0.1)">
     <use xlink:href="#DejaVuSans-Bold-43"/>
     <use xlink:href="#DejaVuSans-Bold-50" x="73.388672"/>
    </g>
    <!-- (portanza L) -->
    <g style="fill: #b71c1c" transform="translate(674.165625 117.907826) scale(0.1 -0.1)">
     <use xlink:href="#DejaVuSans-Bold-28"/>
     <use xlink:href="#DejaVuSans-Bold-70" x="45.703125"/>
     <use xlink:href="#DejaVuSans-Bold-6f" x="117.285156"/>
     <use xlink:href="#DejaVuSans-Bold-72" x="185.986328"/>
     <use xlink:href="#DejaVuSans-Bold-74" x="235.302734"/>
     <use xlink:href="#DejaVuSans-Bold-61" x="283.105469"/>
     <use xlink:href="#DejaVuSans-Bold-6e" x="350.585938"/>
     <use xlink:href="#DejaVuSans-Bold-7a" x="421.777344"/>
     <use xlink:href="#DejaVuSans-Bold-61" x="479.980469"/>
     <use xlink:href="#DejaVuSans-Bold-20" x="547.460938"/>
     <use xlink:href="#DejaVuSans-Bold-4c" x="582.275391"/>
     <use xlink:href="#DejaVuSans-Bold-29" x="645.996094"/>
    </g>
   </g>
   <g id="text_7">
    <g id="patch_17">
     <path d="M 598.59 298.636936 
L 818.91 298.636936 
Q 821.61 298.636936 821.61 295.936936 
L 821.61 277.148592 
Q 821.61 274.448592 818.91 274.448592 
L 598.59 274.448592 
Q 595.89 274.448592 595.89 277.148592 
L 595.89 295.936936 
Q 595.89 298.636936 598.59 298.636936 
z
" style="fill: #ffffff; opacity: 0.92; stroke: #808080; stroke-linejoin: miter"/>
    </g>
    <!-- Raffica → muso su → momento amplifica → stallo -->
    <g style="fill: #444444" transform="translate(598.59 283.987186) scale(0.09 -0.09)">
     <defs>
      <path id="DejaVuSans-Oblique-70" d="M 3175 2156 
Q 3175 2616 2975 2859 
Q 2775 3103 2400 3103 
Q 2144 3103 1911 2972 
Q 1678 2841 1497 2591 
Q 1319 2344 1212 1994 
Q 1106 1644 1106 1300 
Q 1106 863 1306 627 
Q 1506 391 1875 391 
Q 2147 391 2380 519 
Q 2613 647 2778 891 
Q 2956 1147 3065 1494 
Q 3175 1841 3175 2156 
z
M 1394 2969 
Q 1625 3272 1939 3428 
Q 2253 3584 2638 3584 
Q 3175 3584 3472 3232 
Q 3769 2881 3769 2247 
Q 3769 1728 3584 1258 
Q 3400 788 3053 416 
Q 2822 169 2531 39 
Q 2241 -91 1919 -91 
Q 1547 -91 1294 64 
Q 1041 219 916 525 
L 556 -1331 
L -19 -1331 
L 922 3500 
L 1497 3500 
L 1394 2969 
z
" transform="scale(0.015625)"/>
     </defs>
     <use xlink:href="#DejaVuSans-Oblique-52"/>
     <use xlink:href="#DejaVuSans-Oblique-61" x="69.482422"/>
     <use xlink:href="#DejaVuSans-Oblique-66" x="130.761719"/>
     <use xlink:href="#DejaVuSans-Oblique-66" x="165.966797"/>
     <use xlink:href="#DejaVuSans-Oblique-69" x="201.171875"/>
     <use xlink:href="#DejaVuSans-Oblique-63" x="228.955078"/>
     <use xlink:href="#DejaVuSans-Oblique-61" x="283.935547"/>
     <use xlink:href="#DejaVuSans-Oblique-20" x="345.214844"/>
     <use xlink:href="#DejaVuSans-Oblique-2192" x="377.001953"/>
     <use xlink:href="#DejaVuSans-Oblique-20" x="460.791016"/>
     <use xlink:href="#DejaVuSans-Oblique-6d" x="492.578125"/>
     <use xlink:href="#DejaVuSans-Oblique-75" x="589.990234"/>
     <use xlink:href="#DejaVuSans-Oblique-73" x="653.369141"/>
     <use xlink:href="#DejaVuSans-Oblique-6f" x="705.46875"/>
     <use xlink:href="#DejaVuSans-Oblique-20" x="766.650391"/>
     <use xlink:href="#DejaVuSans-Oblique-73" x="798.4375"/>
     <use xlink:href="#DejaVuSans-Oblique-75" x="850.537109"/>
     <use xlink:href="#DejaVuSans-Oblique-20" x="913.916016"/>
     <use xlink:href="#DejaVuSans-Oblique-2192" x="945.703125"/>
     <use xlink:href="#DejaVuSans-Oblique-20" x="1029.492188"/>
     <use xlink:href="#DejaVuSans-Oblique-6d" x="1061.279297"/>
     <use xlink:href="#DejaVuSans-Oblique-6f" x="1158.691406"/>
     <use xlink:href="#DejaVuSans-Oblique-6d" x="1219.873047"/>
     <use xlink:href="#DejaVuSans-Oblique-65" x="1317.285156"/>
     <use xlink:href="#DejaVuSans-Oblique-6e" x="1378.808594"/>
     <use xlink:href="#DejaVuSans-Oblique-74" x="1442.1875"/>
     <use xlink:href="#DejaVuSans-Oblique-6f" x="1481.396484"/>
     <use xlink:href="#DejaVuSans-Oblique-20" x="1542.578125"/>
     <use xlink:href="#DejaVuSans-Oblique-61" x="1574.365234"/>
     <use xlink:href="#DejaVuSans-Oblique-6d" x="1635.644531"/>
     <use xlink:href="#DejaVuSans-Oblique-70" x="1733.056641"/>
     <use xlink:href="#DejaVuSans-Oblique-6c" x="1796.533203"/>
     <use xlink:href="#DejaVuSans-Oblique-69" x="1824.316406"/>
     <use xlink:href="#DejaVuSans-Oblique-66" x="1852.099609"/>
     <use xlink:href="#DejaVuSans-Oblique-69" x="1887.304688"/>
     <use xlink:href="#DejaVuSans-Oblique-63" x="1915.087891"/>
     <use xlink:href="#DejaVuSans-Oblique-61" x="1970.068359"/>
     <use xlink:href="#DejaVuSans-Oblique-20" x="2031.347656"/>
     <use xlink:href="#DejaVuSans-Oblique-2192" x="2063.134766"/>
     <use xlink:href="#DejaVuSans-Oblique-20" x="2146.923828"/>
     <use xlink:href="#DejaVuSans-Oblique-73" x="2178.710938"/>
     <use xlink:href="#DejaVuSans-Oblique-74" x="2230.810547"/>
     <use xlink:href="#DejaVuSans-Oblique-61" x="2270.019531"/>
     <use xlink:href="#DejaVuSans-Oblique-6c" x="2331.298828"/>
     <use xlink:href="#DejaVuSans-Oblique-6c" x="2359.082031"/>
     <use xlink:href="#DejaVuSans-Oblique-6f" x="2386.865234"/>
    </g>
    <!-- ✗ aereo diverge, serve fly-by-wire -->
    <g style="fill: #444444" transform="translate(632.031328 294.065217) scale(0.09 -0.09)">
     <defs>
      <path id="DejaVuSans-Oblique-2717" d="M 3975 4688 
Q 4006 4688 4056 4638 
Q 4109 4588 4166 4506 
Q 4256 4666 4309 4666 
Q 4356 4666 4438 4581 
Q 4488 4528 4488 4463 
Q 4488 4378 4419 4306 
Q 3769 3600 3156 2753 
Q 3409 2134 3856 1388 
Q 3894 1325 3894 1288 
Q 3894 1216 3800 1138 
L 3700 1069 
Q 3713 1031 3713 969 
Q 3713 875 3644 825 
Q 3563 769 3525 769 
Q 3444 769 3381 850 
Q 3006 1331 2606 1981 
Q 2069 1281 1375 113 
Q 1275 -56 1038 -56 
Q 925 -56 913 75 
Q 753 163 753 353 
Q 753 603 788 700 
Q 803 744 888 875 
Q 1525 1869 2238 2700 
Q 1856 3606 1731 4097 
Q 1703 4206 1703 4238 
Q 1703 4281 1759 4363 
Q 1819 4444 1869 4444 
Q 1916 4444 1988 4353 
Q 2016 4406 2056 4444 
Q 2113 4494 2200 4494 
Q 2300 4494 2331 4400 
Q 2500 3875 2775 3400 
Q 3219 3975 3856 4613 
Q 3931 4688 3975 4688 
z
" transform="scale(0.015625)"/>
      <path id="DejaVuSans-Oblique-76" d="M 459 3500 
L 1069 3500 
L 1581 525 
L 3256 3500 
L 3866 3500 
L 1875 0 
L 1100 0 
L 459 3500 
z
" transform="scale(0.015625)"/>
      <path id="DejaVuSans-Oblique-2c" d="M 575 794 
L 1234 794 
L 1131 256 
L 422 -744 
L 19 -744 
L 469 256 
L 575 794 
z
" transform="scale(0.015625)"/>
      <path id="DejaVuSans-Oblique-79" d="M 1588 -325 
Q 1188 -997 936 -1164 
Q 684 -1331 294 -1331 
L -159 -1331 
L -63 -850 
L 269 -850 
Q 509 -850 678 -719 
Q 847 -588 1056 -206 
L 1234 128 
L 459 3500 
L 1069 3500 
L 1650 819 
L 3256 3500 
L 3859 3500 
L 1588 -325 
z
" transform="scale(0.015625)"/>
      <path id="DejaVuSans-Oblique-2d" d="M 391 2009 
L 2075 2009 
L 1978 1497 
L 288 1497 
L 391 2009 
z
" transform="scale(0.015625)"/>
      <path id="DejaVuSans-Oblique-77" d="M 544 3500 
L 1113 3500 
L 1259 684 
L 2566 3500 
L 3231 3500 
L 3425 684 
L 4666 3500 
L 5241 3500 
L 3641 0 
L 2969 0 
L 2797 2900 
L 1459 0 
L 781 0 
L 544 3500 
z
" transform="scale(0.015625)"/>
     </defs>
     <use xlink:href="#DejaVuSans-Oblique-2717"/>
     <use xlink:href="#DejaVuSans-Oblique-20" x="83.789062"/>
     <use xlink:href="#DejaVuSans-Oblique-61" x="115.576172"/>
     <use xlink:href="#DejaVuSans-Oblique-65" x="176.855469"/>
     <use xlink:href="#DejaVuSans-Oblique-72" x="238.378906"/>
     <use xlink:href="#DejaVuSans-Oblique-65" x="279.492188"/>
     <use xlink:href="#DejaVuSans-Oblique-6f" x="341.015625"/>
     <use xlink:href="#DejaVuSans-Oblique-20" x="402.197266"/>
     <use xlink:href="#DejaVuSans-Oblique-64" x="433.984375"/>
     <use xlink:href="#DejaVuSans-Oblique-69" x="497.460938"/>
     <use xlink:href="#DejaVuSans-Oblique-76" x="525.244141"/>
     <use xlink:href="#DejaVuSans-Oblique-65" x="584.423828"/>
     <use xlink:href="#DejaVuSans-Oblique-72" x="645.947266"/>
     <use xlink:href="#DejaVuSans-Oblique-67" x="687.060547"/>
     <use xlink:href="#DejaVuSans-Oblique-65" x="750.537109"/>
     <use xlink:href="#DejaVuSans-Oblique-2c" x="812.060547"/>
     <use xlink:href="#DejaVuSans-Oblique-20" x="843.847656"/>
     <use xlink:href="#DejaVuSans-Oblique-73" x="875.634766"/>
     <use xlink:href="#DejaVuSans-Oblique-65" x="927.734375"/>
     <use xlink:href="#DejaVuSans-Oblique-72" x="989.257812"/>
     <use xlink:href="#DejaVuSans-Oblique-76" x="1030.371094"/>
     <use xlink:href="#DejaVuSans-Oblique-65" x="1089.550781"/>
     <use xlink:href="#DejaVuSans-Oblique-20" x="1151.074219"/>
     <use xlink:href="#DejaVuSans-Oblique-66" x="1182.861328"/>
     <use xlink:href="#DejaVuSans-Oblique-6c" x="1218.066406"/>
     <use xlink:href="#DejaVuSans-Oblique-79" x="1245.849609"/>
     <use xlink:href="#DejaVuSans-Oblique-2d" x="1301.404297"/>
     <use xlink:href="#DejaVuSans-Oblique-62" x="1337.488281"/>
     <use xlink:href="#DejaVuSans-Oblique-79" x="1400.964844"/>
     <use xlink:href="#DejaVuSans-Oblique-2d" x="1456.519531"/>
     <use xlink:href="#DejaVuSans-Oblique-77" x="1492.603516"/>
     <use xlink:href="#DejaVuSans-Oblique-69" x="1574.390625"/>
     <use xlink:href="#DejaVuSans-Oblique-72" x="1602.173828"/>
     <use xlink:href="#DejaVuSans-Oblique-65" x="1643.287109"/>
    </g>
   </g>
   <g id="text_8">
    <!-- INSTABILE: CG dietro al CP -->
    <g style="fill: #d32f2f" transform="translate(618.8175 65.655) scale(0.12 -0.12)">
     <defs>
      <path id="DejaVuSans-Bold-4e" d="M 588 4666 
L 1931 4666 
L 3628 1466 
L 3628 4666 
L 4769 4666 
L 4769 0 
L 3425 0 
L 1728 3200 
L 1728 0 
L 588 0 
L 588 4666 
z
" transform="scale(0.015625)"/>
     </defs>
     <use xlink:href="#DejaVuSans-Bold-49"/>
     <use xlink:href="#DejaVuSans-Bold-4e" x="37.207031"/>
     <use xlink:href="#DejaVuSans-Bold-53" x="120.898438"/>
     <use xlink:href="#DejaVuSans-Bold-54" x="192.919922"/>
     <use xlink:href="#DejaVuSans-Bold-41" x="253.382812"/>
     <use xlink:href="#DejaVuSans-Bold-42" x="330.775391"/>
     <use xlink:href="#DejaVuSans-Bold-49" x="406.996094"/>
     <use xlink:href="#DejaVuSans-Bold-4c" x="444.203125"/>
     <use xlink:href="#DejaVuSans-Bold-45" x="507.923828"/>
     <use xlink:href="#DejaVuSans-Bold-3a" x="576.234375"/>
     <use xlink:href="#DejaVuSans-Bold-20" x="616.224609"/>
     <use xlink:href="#DejaVuSans-Bold-43" x="651.039062"/>
     <use xlink:href="#DejaVuSans-Bold-47" x="724.427734"/>
     <use xlink:href="#DejaVuSans-Bold-20" x="806.507812"/>
     <use xlink:href="#DejaVuSans-Bold-64" x="841.322266"/>
     <use xlink:href="#DejaVuSans-Bold-69" x="912.904297"/>
     <use xlink:href="#DejaVuSans-Bold-65" x="947.181641"/>
     <use xlink:href="#DejaVuSans-Bold-74" x="1015.003906"/>
     <use xlink:href="#DejaVuSans-Bold-72" x="1062.806641"/>
     <use xlink:href="#DejaVuSans-Bold-6f" x="1112.123047"/>
     <use xlink:href="#DejaVuSans-Bold-20" x="1180.824219"/>
     <use xlink:href="#DejaVuSans-Bold-61" x="1215.638672"/>
     <use xlink:href="#DejaVuSans-Bold-6c" x="1283.119141"/>
     <use xlink:href="#DejaVuSans-Bold-20" x="1317.396484"/>
     <use xlink:href="#DejaVuSans-Bold-43" x="1352.210938"/>
     <use xlink:href="#DejaVuSans-Bold-50" x="1425.599609"/>
    </g>
   </g>
   <g id="PathCollection_3">
    <g clip-path="url(#p2932488fd1)">
     <use xlink:href="#mb579df159f" x="747.896087" y="181.520217" style="fill: #388e3c; stroke: #000000; stroke-width: 1.5"/>
    </g>
   </g>
   <g id="PathCollection_4">
    <g clip-path="url(#p2932488fd1)">
     <use xlink:href="#m05ee2e5e01" x="708.75" y="181.520217" style="fill: #d32f2f; stroke: #000000; stroke-width: 1.5"/>
    </g>
   </g>
  </g>
  <g id="text_9">
   <!-- Stabilità statica longitudinale — la posizione relativa di CG e CP -->
   <g transform="translate(243.722031 31.997969) scale(0.13 -0.13)">
    <defs>
     <path id="DejaVuSans-Bold-62" d="M 2400 722 
Q 2759 722 2948 984 
Q 3138 1247 3138 1747 
Q 3138 2247 2948 2509 
Q 2759 2772 2400 2772 
Q 2041 2772 1848 2508 
Q 1656 2244 1656 1747 
Q 1656 1250 1848 986 
Q 2041 722 2400 722 
z
M 1656 2988 
Q 1888 3294 2169 3439 
Q 2450 3584 2816 3584 
Q 3463 3584 3878 3070 
Q 4294 2556 4294 1747 
Q 4294 938 3878 423 
Q 3463 -91 2816 -91 
Q 2450 -91 2169 54 
Q 1888 200 1656 506 
L 1656 0 
L 538 0 
L 538 4863 
L 1656 4863 
L 1656 2988 
z
" transform="scale(0.015625)"/>
     <path id="DejaVuSans-Bold-e0" d="M 2106 1575 
Q 1756 1575 1579 1456 
Q 1403 1338 1403 1106 
Q 1403 894 1545 773 
Q 1688 653 1941 653 
Q 2256 653 2472 879 
Q 2688 1106 2688 1447 
L 2688 1575 
L 2106 1575 
z
M 3816 1997 
L 3816 0 
L 2688 0 
L 2688 519 
Q 2463 200 2181 54 
Q 1900 -91 1497 -91 
Q 953 -91 614 226 
Q 275 544 275 1050 
Q 275 1666 698 1953 
Q 1122 2241 2028 2241 
L 2688 2241 
L 2688 2328 
Q 2688 2594 2478 2717 
Q 2269 2841 1825 2841 
Q 1466 2841 1156 2769 
Q 847 2697 581 2553 
L 581 3406 
Q 941 3494 1303 3539 
Q 1666 3584 2028 3584 
Q 2975 3584 3395 3211 
Q 3816 2838 3816 1997 
z
M 1762 5119 
L 2643 3944 
L 2031 3944 
L 878 5119 
L 1762 5119 
z
" transform="scale(0.015625)"/>
     <path id="DejaVuSans-Bold-63" d="M 3366 3391 
L 3366 2478 
Q 3138 2634 2908 2709 
Q 2678 2784 2431 2784 
Q 1963 2784 1702 2511 
Q 1441 2238 1441 1747 
Q 1441 1256 1702 982 
Q 1963 709 2431 709 
Q 2694 709 2930 787 
Q 3166 866 3366 1019 
L 3366 103 
Q 3103 6 2833 -42 
Q 2563 -91 2291 -91 
Q 1344 -91 809 395 
Q 275 881 275 1747 
Q 275 2613 809 3098 
Q 1344 3584 2291 3584 
Q 2566 3584 2833 3536 
Q 3100 3488 3366 3391 
z
" transform="scale(0.015625)"/>
     <path id="DejaVuSans-Bold-67" d="M 2919 594 
Q 2688 288 2409 144 
Q 2131 0 1766 0 
Q 1125 0 706 504 
Q 288 1009 288 1791 
Q 288 2575 706 3076 
Q 1125 3578 1766 3578 
Q 2131 3578 2409 3434 
Q 2688 3291 2919 2981 
L 2919 3500 
L 4044 3500 
L 4044 353 
Q 4044 -491 3511 -936 
Q 2978 -1381 1966 -1381 
Q 1638 -1381 1331 -1331 
Q 1025 -1281 716 -1178 
L 716 -306 
Q 1009 -475 1290 -558 
Q 1572 -641 1856 -641 
Q 2406 -641 2662 -400 
Q 2919 -159 2919 353 
L 2919 594 
z
M 2181 2772 
Q 1834 2772 1640 2515 
Q 1447 2259 1447 1791 
Q 1447 1309 1634 1061 
Q 1822 813 2181 813 
Q 2531 813 2725 1069 
Q 2919 1325 2919 1791 
Q 2919 2259 2725 2515 
Q 2531 2772 2181 2772 
z
" transform="scale(0.015625)"/>
     <path id="DejaVuSans-Bold-75" d="M 500 1363 
L 500 3500 
L 1625 3500 
L 1625 3150 
Q 1625 2866 1622 2436 
Q 1619 2006 1619 1863 
Q 1619 1441 1641 1255 
Q 1663 1069 1716 984 
Q 1784 875 1895 815 
Q 2006 756 2150 756 
Q 2500 756 2700 1025 
Q 2900 1294 2900 1772 
L 2900 3500 
L 4019 3500 
L 4019 0 
L 2900 0 
L 2900 506 
Q 2647 200 2364 54 
Q 2081 -91 1741 -91 
Q 1134 -91 817 281 
Q 500 653 500 1363 
z
" transform="scale(0.015625)"/>
     <path id="DejaVuSans-Bold-2014" d="M 344 2156 
L 6056 2156 
L 6056 1350 
L 344 1350 
L 344 2156 
z
" transform="scale(0.015625)"/>
    </defs>
    <use xlink:href="#DejaVuSans-Bold-53"/>
    <use xlink:href="#DejaVuSans-Bold-74" x="72.021484"/>
    <use xlink:href="#DejaVuSans-Bold-61" x="119.824219"/>
    <use xlink:href="#DejaVuSans-Bold-62" x="187.304688"/>
    <use xlink:href="#DejaVuSans-Bold-69" x="258.886719"/>
    <use xlink:href="#DejaVuSans-Bold-6c" x="293.164062"/>
    <use xlink:href="#DejaVuSans-Bold-69" x="327.441406"/>
    <use xlink:href="#DejaVuSans-Bold-74" x="361.71875"/>
    <use xlink:href="#DejaVuSans-Bold-e0" x="409.521484"/>
    <use xlink:href="#DejaVuSans-Bold-20" x="477.001953"/>
    <use xlink:href="#DejaVuSans-Bold-73" x="511.816406"/>
    <use xlink:href="#DejaVuSans-Bold-74" x="571.337891"/>
    <use xlink:href="#DejaVuSans-Bold-61" x="619.140625"/>
    <use xlink:href="#DejaVuSans-Bold-74" x="686.621094"/>
    <use xlink:href="#DejaVuSans-Bold-69" x="734.423828"/>
    <use xlink:href="#DejaVuSans-Bold-63" x="768.701172"/>
    <use xlink:href="#DejaVuSans-Bold-61" x="827.978516"/>
    <use xlink:href="#DejaVuSans-Bold-20" x="895.458984"/>
    <use xlink:href="#DejaVuSans-Bold-6c" x="930.273438"/>
    <use xlink:href="#DejaVuSans-Bold-6f" x="964.550781"/>
    <use xlink:href="#DejaVuSans-Bold-6e" x="1033.251953"/>
    <use xlink:href="#DejaVuSans-Bold-67" x="1104.443359"/>
    <use xlink:href="#DejaVuSans-Bold-69" x="1176.025391"/>
    <use xlink:href="#DejaVuSans-Bold-74" x="1210.302734"/>
    <use xlink:href="#DejaVuSans-Bold-75" x="1258.105469"/>
    <use xlink:href="#DejaVuSans-Bold-64" x="1329.296875"/>
    <use xlink:href="#DejaVuSans-Bold-69" x="1400.878906"/>
    <use xlink:href="#DejaVuSans-Bold-6e" x="1435.15625"/>
    <use xlink:href="#DejaVuSans-Bold-61" x="1506.347656"/>
    <use xlink:href="#DejaVuSans-Bold-6c" x="1573.828125"/>
    <use xlink:href="#DejaVuSans-Bold-65" x="1608.105469"/>
    <use xlink:href="#DejaVuSans-Bold-20" x="1675.927734"/>
    <use xlink:href="#DejaVuSans-Bold-2014" x="1710.742188"/>
    <use xlink:href="#DejaVuSans-Bold-20" x="1810.742188"/>
    <use xlink:href="#DejaVuSans-Bold-6c" x="1845.556641"/>
    <use xlink:href="#DejaVuSans-Bold-61" x="1879.833984"/>
    <use xlink:href="#DejaVuSans-Bold-20" x="1947.314453"/>
    <use xlink:href="#DejaVuSans-Bold-70" x="1982.128906"/>
    <use xlink:href="#DejaVuSans-Bold-6f" x="2053.710938"/>
    <use xlink:href="#DejaVuSans-Bold-73" x="2122.412109"/>
    <use xlink:href="#DejaVuSans-Bold-69" x="2181.933594"/>
    <use xlink:href="#DejaVuSans-Bold-7a" x="2216.210938"/>
    <use xlink:href="#DejaVuSans-Bold-69" x="2274.414062"/>
    <use xlink:href="#DejaVuSans-Bold-6f" x="2308.691406"/>
    <use xlink:href="#DejaVuSans-Bold-6e" x="2377.392578"/>
    <use xlink:href="#DejaVuSans-Bold-65" x="2448.583984"/>
    <use xlink:href="#DejaVuSans-Bold-20" x="2516.40625"/>
    <use xlink:href="#DejaVuSans-Bold-72" x="2551.220703"/>
    <use xlink:href="#DejaVuSans-Bold-65" x="2600.537109"/>
    <use xlink:href="#DejaVuSans-Bold-6c" x="2668.359375"/>
    <use xlink:href="#DejaVuSans-Bold-61" x="2702.636719"/>
    <use xlink:href="#DejaVuSans-Bold-74" x="2770.117188"/>
    <use xlink:href="#DejaVuSans-Bold-69" x="2817.919922"/>
    <use xlink:href="#DejaVuSans-Bold-76" x="2852.197266"/>
    <use xlink:href="#DejaVuSans-Bold-61" x="2917.382812"/>
    <use xlink:href="#DejaVuSans-Bold-20" x="2984.863281"/>
    <use xlink:href="#DejaVuSans-Bold-64" x="3019.677734"/>
    <use xlink:href="#DejaVuSans-Bold-69" x="3091.259766"/>
    <use xlink:href="#DejaVuSans-Bold-20" x="3125.537109"/>
    <use xlink:href="#DejaVuSans-Bold-43" x="3160.351562"/>
    <use xlink:href="#DejaVuSans-Bold-47" x="3233.740234"/>
    <use xlink:href="#DejaVuSans-Bold-20" x="3315.820312"/>
    <use xlink:href="#DejaVuSans-Bold-65" x="3350.634766"/>
    <use xlink:href="#DejaVuSans-Bold-20" x="3418.457031"/>
    <use xlink:href="#DejaVuSans-Bold-43" x="3453.271484"/>
    <use xlink:href="#DejaVuSans-Bold-50" x="3526.660156"/>
   </g>
  </g>
 </g>
 <defs>
  <clipPath id="p20089c4b3d">
   <rect x="21.6" y="83.655" width="450.18" height="225.09"/>
  </clipPath>
  <clipPath id="p2932488fd1">
   <rect x="483.66" y="83.655" width="450.18" height="225.09"/>
  </clipPath>
 </defs>
</svg>
